<?xml version="1.0" encoding="utf-8"?>
<!-- Generator: Adobe Illustrator 16.0.0, SVG Export Plug-In . SVG Version: 6.00 Build 0)  -->
<!DOCTYPE svg PUBLIC "-//W3C//DTD SVG 1.1//EN" "http://www.w3.org/Graphics/SVG/1.1/DTD/svg11.dtd">
<svg version="1.1" id="Layer_1" xmlns="http://www.w3.org/2000/svg" xmlns:xlink="http://www.w3.org/1999/xlink" x="0px" y="0px"
	 width="54.333px" height="53.521px" viewBox="0 0 54.333 53.521" enable-background="new 0 0 54.333 53.521" xml:space="preserve">
<circle fill="#36363C" cx="27.166" cy="26.76" r="26.438"/>
<path fill="#FFFFFF" d="M30.313,23.658v-1.637c0-1.89-1.137-2.834-3.872-2.834c-3.623,0-5.761,1.589-6.359,1.589
	c-1.043,0-2.58-2.93-2.58-3.971c0-1.693,3.973-3.431,9.489-3.431c7.845,0,10.677,3.479,10.677,8.295v9.339
	c0,5.117,0.598,6.157,0.598,7.207c0,1.188-4.322,1.585-5.564,1.585c-1.59,0-1.689-2.083-1.984-3.432
	c-0.348,0.653-2.73,3.776-7.3,3.776c-5.367,0-7.352-3.18-7.352-7.247C16.065,28.826,17.701,23.658,30.313,23.658z M25.849,34.335
	c1.888,0,3.675-1.341,4.464-3.127v-2.734c-4.712,0-6.95,1.29-6.95,3.672C23.363,33.394,24.209,34.335,25.849,34.335z"/>
</svg>
