<?xml version="1.0" encoding="utf-8"?>
<!-- Generator: Adobe Illustrator 16.0.0, SVG Export Plug-In . SVG Version: 6.00 Build 0)  -->
<!DOCTYPE svg PUBLIC "-//W3C//DTD SVG 1.1//EN" "http://www.w3.org/Graphics/SVG/1.1/DTD/svg11.dtd">
<svg version="1.1" id="Layer_1" xmlns="http://www.w3.org/2000/svg" xmlns:xlink="http://www.w3.org/1999/xlink" x="0px" y="0px"
	 width="100px" height="100px" viewBox="0 0 100 100" enable-background="new 0 0 100 100" xml:space="preserve">
<g>
	<g>
		<g>
			<circle fill="#FFFFFF" cx="50.128" cy="74.967" r="43.987"/>
		</g>
	</g>
	<g>
		<g>
			<defs>
				<circle id="SVGID_1_" cx="50.128" cy="74.956" r="43.987"/>
			</defs>
			<clipPath id="SVGID_2_">
				<use xlink:href="#SVGID_1_"  overflow="visible"/>
			</clipPath>
			<g clip-path="url(#SVGID_2_)">
				<g>
					<rect x="73.331" y="106.223" fill="#916A54" width="9.595" height="10.779"/>
				</g>
				<g>
					<path fill="#414D4D" d="M82.926,117.486h-9.595c-0.269,0-0.485-0.217-0.485-0.484v-10.779c0-0.269,0.217-0.484,0.485-0.484
						h9.595c0.27,0,0.486,0.217,0.486,0.484v10.779C83.412,117.271,83.193,117.486,82.926,117.486z M73.816,116.518h8.625v-9.812
						h-8.625V116.518z"/>
				</g>
			</g>
		</g>
		<g>
			<defs>
				<circle id="SVGID_3_" cx="50.128" cy="74.956" r="43.987"/>
			</defs>
			<clipPath id="SVGID_4_">
				<use xlink:href="#SVGID_3_"  overflow="visible"/>
			</clipPath>
			<g clip-path="url(#SVGID_4_)">
				<g>
					<rect x="16.407" y="106.223" fill="#916A54" width="9.595" height="10.779"/>
				</g>
				<g>
					<path fill="#414D4D" d="M26.002,117.486h-9.595c-0.269,0-0.485-0.217-0.485-0.484v-10.779c0-0.269,0.217-0.484,0.485-0.484
						h9.595c0.268,0,0.484,0.217,0.484,0.484v10.779C26.487,117.271,26.27,117.486,26.002,117.486z M16.892,116.518h8.625v-9.812
						h-8.625V116.518z"/>
				</g>
			</g>
		</g>
		<g>
			<defs>
				<circle id="SVGID_5_" cx="50.128" cy="74.956" r="43.987"/>
			</defs>
			<clipPath id="SVGID_6_">
				<use xlink:href="#SVGID_5_"  overflow="visible"/>
			</clipPath>
			<g clip-path="url(#SVGID_6_)">
				<g>
					<path fill="#D7DADB" d="M75.725,89.542c0,0.536-0.435,0.97-0.97,0.97H25.054c-0.536,0-0.97-0.434-0.97-0.97v-12.29
						c0-0.536,0.435-0.971,0.97-0.971h49.701c0.535,0,0.97,0.435,0.97,0.971V89.542z"/>
				</g>
				<g>
					<path fill="#414D4D" d="M74.755,90.998H25.054c-0.803,0-1.456-0.652-1.456-1.456v-12.29c0-0.805,0.653-1.456,1.456-1.456
						h49.701c0.804,0,1.455,0.651,1.455,1.456v12.29C76.21,90.346,75.559,90.998,74.755,90.998z M25.054,76.766
						c-0.267,0-0.485,0.219-0.485,0.486v12.29c0,0.267,0.218,0.485,0.485,0.485h49.701c0.267,0,0.483-0.219,0.483-0.485v-12.29
						c0-0.27-0.217-0.486-0.483-0.486H25.054z"/>
				</g>
			</g>
		</g>
		<g>
			<defs>
				<circle id="SVGID_7_" cx="50.128" cy="74.956" r="43.987"/>
			</defs>
			<clipPath id="SVGID_8_">
				<use xlink:href="#SVGID_7_"  overflow="visible"/>
			</clipPath>
			<g clip-path="url(#SVGID_8_)">
				<g>
					<path fill="#F26A51" d="M81.613,88.166c-0.848-4.77-1.616-4.729-3.813-5.921c-1.954-0.948-6.293-2.729-9.851-4.306
						c-3.559-1.578-7.075-4.975-7.075-4.975H50.08H38.8c0,0-3.517,3.396-7.075,4.975c-3.558,1.576-7.896,3.356-9.851,4.306
						c-2.197,1.192-2.965,1.151-3.814,5.921c-0.849,4.771-3.477,19.527-3.477,19.527l11.684,2.306v18.839H50.08h23.328v-18.839
						l11.684-2.306C85.091,107.693,82.463,92.938,81.613,88.166z"/>
				</g>
				<g>
					<path fill="#414D4D" d="M73.407,129.324h-47.14c-0.268,0-0.485-0.219-0.485-0.486v-18.439L14.49,108.17
						c-0.26-0.051-0.43-0.3-0.384-0.561l3.477-19.527c0.773-4.343,1.501-4.923,3.493-5.962c0.178-0.095,0.367-0.192,0.568-0.302
						c1.188-0.577,3.216-1.444,5.365-2.365c1.511-0.646,3.073-1.316,4.521-1.958c3.439-1.524,6.9-4.845,6.935-4.879
						c0.091-0.087,0.211-0.136,0.337-0.136h22.075c0.126,0,0.246,0.049,0.337,0.136c0.034,0.034,3.499,3.356,6.937,4.879
						c1.447,0.642,3.009,1.312,4.521,1.958c2.147,0.921,4.179,1.788,5.345,2.355c0.221,0.118,0.409,0.217,0.588,0.312
						c1.992,1.039,2.721,1.619,3.492,5.962l3.479,19.527c0.046,0.261-0.125,0.51-0.385,0.561l-11.293,2.229v18.439
						C73.893,129.105,73.675,129.324,73.407,129.324z M26.752,128.354h46.17V110c0-0.23,0.164-0.432,0.393-0.477l11.215-2.213
						l-3.393-19.059c-0.729-4.095-1.298-4.391-2.986-5.271c-0.183-0.097-0.377-0.196-0.582-0.31
						c-1.127-0.547-3.146-1.411-5.282-2.325c-1.515-0.648-3.079-1.318-4.533-1.965c-3.229-1.431-6.362-4.268-7.071-4.93H38.993
						c-0.708,0.662-3.841,3.499-7.073,4.93c-1.453,0.646-3.018,1.315-4.531,1.965c-2.138,0.914-4.156,1.778-5.304,2.338
						c-0.187,0.101-0.379,0.2-0.562,0.297c-1.689,0.881-2.258,1.178-2.987,5.271l-3.393,19.059l11.216,2.213
						c0.228,0.045,0.392,0.244,0.392,0.477L26.752,128.354L26.752,128.354z"/>
				</g>
			</g>
		</g>
		<g>
			<defs>
				<circle id="SVGID_9_" cx="50.128" cy="74.956" r="43.987"/>
			</defs>
			<clipPath id="SVGID_10_">
				<use xlink:href="#SVGID_9_"  overflow="visible"/>
			</clipPath>
			<g clip-path="url(#SVGID_10_)">
				<g>
					<g>
						<path fill="#414D4D" d="M66.341,98.012c0.063-0.014,0.13-0.029,0.194-0.041c0.308-0.052,0.605-0.162,0.924-0.131
							c0.077,0.008,0.152,0.018,0.229,0.028c0.054,0.009,0.113,0.019,0.135-0.041c0.015-0.042,0.014-0.103-0.006-0.142
							c-0.062-0.123-0.157-0.209-0.297-0.246c-0.219-0.06-0.441-0.063-0.658-0.037c-0.295,0.035-0.582,0.113-0.872,0.178
							c-0.409,0.09-0.998,0.307-1.423,0.341c-0.17,0.015-0.234,0.134-0.193,0.313c0.035,0.16,0.146,0.215,0.312,0.17
							c0.271-0.071,0.746-0.176,1.019-0.247c0.021-0.007,0.038-0.009,0.051-0.011l-0.13,4.688h-0.002
							c-0.002,0.024-0.001,0.05,0.002,0.073c0.008,0.062,0.051,0.134,0.124,0.13c0.071-0.004,0.172-0.042,0.215-0.097
							c0.048-0.06,0.06-0.098,0.07-0.164l0.002-0.038l0.269-4.716C66.312,98.02,66.324,98.014,66.341,98.012z"/>
					</g>
				</g>
				<g>
					<g>
						<path fill="#414D4D" d="M64.977,98.732c0.062-0.146,0.088-0.31,0.072-0.486c-0.014-0.15-0.045-0.289-0.097-0.411
							c-0.058-0.132-0.126-0.248-0.209-0.344c-0.052-0.062-0.104-0.115-0.165-0.164c-0.253-0.211-0.573-0.319-0.901-0.306
							c-0.02,0.002-0.038,0.004-0.06,0.006c-0.35,0.029-0.666,0.197-0.893,0.468c-0.238,0.286-0.345,0.63-0.299,0.962
							c0.016,0.111,0.104,0.188,0.211,0.184c0.006,0,0.008,0,0.012,0c0.06-0.006,0.102-0.025,0.127-0.062
							c0.024-0.034,0.029-0.079,0.017-0.14c-0.022-0.088-0.042-0.336,0.247-0.685c0.154-0.187,0.374-0.3,0.615-0.321
							c0.014-0.002,0.027-0.002,0.041-0.004c0.227-0.01,0.447,0.064,0.621,0.209c0.281,0.235,0.373,0.659,0.215,0.987
							c-0.066,0.136-0.147,0.261-0.242,0.371c-0.096,0.106-0.199,0.201-0.312,0.276c-0.065,0.043-0.137,0.084-0.209,0.117
							c-0.021,0.01-0.063,0.03-0.088,0.037c-0.005-0.018-0.007-0.051-0.006-0.101c0.001-0.191,0.01-0.786,0.01-0.8
							c0-0.006,0.01-0.564-0.007-0.604c-0.034-0.085-0.091-0.121-0.182-0.117c-0.009,0.002-0.021,0.002-0.03,0.002
							c-0.102,0.014-0.158,0.062-0.181,0.157l-0.002,0.007v0.004l-0.046,0.879c-0.002,0.136-0.006,0.254-0.01,0.367
							c-0.004,0.106-0.01,0.213-0.015,0.319c-0.011,0.214-0.022,0.437-0.024,0.651c-0.006,0.289-0.006,0.598,0.015,0.904
							l0.002,0.027c0.005,0.077,0.014,0.209,0.022,0.27c0,0.004,0,0.012,0.002,0.023c0.015,0.109,0.031,0.243,0.043,0.288
							c0.021,0.094,0.08,0.159,0.166,0.183c0.026,0.006,0.057,0.008,0.086,0.006c0.09-0.002,0.16-0.045,0.188-0.115
							c0.019-0.043,0.017-0.092,0.015-0.131l-0.002-0.008c0-0.015-0.002-0.064-0.009-0.138c-0.014-0.208-0.04-0.596-0.045-0.726
							c-0.003-0.129,0.005-0.711,0.006-0.736c0-0.008-0.001-0.018-0.001-0.027c-0.002-0.048,0.002-0.062,0.012-0.066
							c0.176-0.066,0.326-0.1,0.47-0.106c0.073-0.003,0.147,0.002,0.219,0.015c0.101,0.017,0.17,0.076,0.206,0.18
							c0.027,0.08,0.041,0.168,0.04,0.271c0,0.037-0.007,0.375-0.106,0.711l-0.002,0.006c-0.115,0.342-0.35,0.664-0.645,0.887
							c-0.049,0.035-0.1,0.07-0.152,0.104c-0.197,0.104-0.586,0.168-0.59,0.17c-0.057,0.008-0.111,0.014-0.167,0.016h-0.003
							c-0.002,0-0.005,0-0.005,0c-0.005,0-0.007,0-0.011,0.001h-0.004c-0.092,0.005-0.143,0.044-0.168,0.077
							c-0.043,0.054-0.057,0.131-0.041,0.222c0.02,0.106,0.099,0.181,0.209,0.194l0.002-0.017v0.017
							c0.004,0.002,0.06,0.002,0.064,0.002h0.001h0.001c0.003,0,0.1-0.006,0.137-0.008c0.348-0.016,0.698-0.151,1.018-0.393
							c0.371-0.279,0.656-0.667,0.804-1.088l0.002-0.005c0.113-0.312,0.155-0.646,0.122-0.987c-0.027-0.294-0.166-0.511-0.41-0.646
							c-0.078-0.043-0.193-0.088-0.3-0.109C64.667,99.234,64.857,99.002,64.977,98.732z"/>
					</g>
				</g>
			</g>
		</g>
		<g>
			<defs>
				<circle id="SVGID_11_" cx="50.128" cy="74.956" r="43.987"/>
			</defs>
			<clipPath id="SVGID_12_">
				<use xlink:href="#SVGID_11_"  overflow="visible"/>
			</clipPath>
			<g clip-path="url(#SVGID_12_)">
				<g>
					<rect x="41.05" y="69.609" fill="#916A54" width="17.628" height="12.25"/>
				</g>
				<g>
					<path fill="#414D4D" d="M58.678,82.345H41.05c-0.267,0-0.484-0.217-0.484-0.483V69.609c0-0.268,0.217-0.484,0.484-0.484h17.628
						c0.268,0,0.484,0.218,0.484,0.484v12.25C59.162,82.128,58.945,82.345,58.678,82.345z M41.536,81.374h16.657V70.096H41.536
						V81.374z"/>
				</g>
			</g>
		</g>
		<g>
			<defs>
				<circle id="SVGID_13_" cx="50.128" cy="74.956" r="43.987"/>
			</defs>
			<clipPath id="SVGID_14_">
				<use xlink:href="#SVGID_13_"  overflow="visible"/>
			</clipPath>
			<g clip-path="url(#SVGID_14_)">
				<g>
					<path fill="#414D4D" d="M65.74,105.591c-0.037,0-0.074-0.005-0.111-0.013l-4.916-1.16c-0.219-0.053-0.374-0.248-0.374-0.473
						V93.007c0-0.268,0.218-0.485,0.485-0.485h9.834c0.268,0,0.484,0.219,0.484,0.485v10.938c0,0.225-0.154,0.42-0.375,0.473
						l-4.916,1.16C65.814,105.586,65.777,105.591,65.74,105.591z M61.309,103.561l4.433,1.047l4.433-1.047V93.491h-8.863v10.069
						H61.309z"/>
				</g>
			</g>
		</g>
		<g>
			<defs>
				<circle id="SVGID_15_" cx="50.128" cy="74.956" r="43.987"/>
			</defs>
			<clipPath id="SVGID_16_">
				<use xlink:href="#SVGID_15_"  overflow="visible"/>
			</clipPath>
			<g clip-path="url(#SVGID_16_)">
				<g>
					<path fill="#FFFFFF" d="M58.637,71.831c0,0-2.697,6.815-8.764,9.854c1.342,0.422,3.751,2.64,5.576,4.605
						c0,0,2.835-3.092,4.083-6.468c0.448-3.261,0.702-6.435,0.659-6.972L58.637,71.831z"/>
				</g>
				<g>
					<path fill="#414D4D" d="M55.448,86.777c-0.136,0-0.263-0.057-0.354-0.155c-2.215-2.39-4.32-4.146-5.366-4.472
						c-0.189-0.061-0.323-0.229-0.338-0.424c-0.016-0.197,0.089-0.385,0.266-0.475c5.833-2.924,8.503-9.534,8.53-9.602
						c0.053-0.135,0.166-0.238,0.305-0.282c0.14-0.044,0.291-0.023,0.412,0.057l1.555,1.022c0.125,0.083,0.205,0.217,0.218,0.365
						c0.054,0.642-0.231,3.939-0.661,7.076c-0.005,0.034-0.015,0.069-0.025,0.104c-1.266,3.424-4.062,6.498-4.18,6.627
						C55.715,86.721,55.576,86.773,55.448,86.777z M50.939,81.66c1.565,0.934,3.515,2.88,4.496,3.908
						c0.775-0.922,2.672-3.323,3.623-5.863c0.412-3.016,0.635-5.727,0.65-6.588l-0.857-0.562
						C58.107,74.167,55.613,78.932,50.939,81.66z"/>
				</g>
			</g>
		</g>
		<g>
			<defs>
				<circle id="SVGID_17_" cx="50.128" cy="74.956" r="43.987"/>
			</defs>
			<clipPath id="SVGID_18_">
				<use xlink:href="#SVGID_17_"  overflow="visible"/>
			</clipPath>
			<g clip-path="url(#SVGID_18_)">
				<g>
					<path fill="#FFFFFF" d="M41.099,71.831c0,0,2.696,6.815,8.762,9.854c-1.343,0.422-3.751,2.64-5.576,4.605
						c0,0-2.834-3.092-4.083-6.468c-0.447-3.261-0.703-6.435-0.658-6.972L41.099,71.831z"/>
				</g>
				<g>
					<path fill="#414D4D" d="M44.286,86.777c0,0-0.001,0-0.002,0c-0.135,0-0.264-0.06-0.356-0.157
						c-0.119-0.129-2.914-3.203-4.18-6.627c-0.013-0.033-0.021-0.068-0.026-0.103c-0.431-3.14-0.713-6.438-0.662-7.078
						c0.013-0.147,0.093-0.281,0.217-0.364l1.555-1.022c0.122-0.08,0.273-0.101,0.413-0.057c0.14,0.044,0.251,0.148,0.305,0.283
						c0.026,0.065,2.706,6.683,8.528,9.601c0.177,0.09,0.283,0.276,0.266,0.474c-0.016,0.196-0.149,0.364-0.338,0.426
						c-1.044,0.326-3.15,2.08-5.366,4.471C44.549,86.723,44.421,86.777,44.286,86.777z M40.676,79.705
						c0.955,2.543,2.848,4.941,3.624,5.863c0.98-1.028,2.931-2.976,4.494-3.908c-4.672-2.729-7.168-7.493-7.91-9.105l-0.859,0.562
						C40.041,73.977,40.264,76.689,40.676,79.705z"/>
				</g>
			</g>
		</g>
		<g>
			<defs>
				<circle id="SVGID_19_" cx="50.128" cy="74.956" r="43.987"/>
			</defs>
			<clipPath id="SVGID_20_">
				<use xlink:href="#SVGID_19_"  overflow="visible"/>
			</clipPath>
			<g clip-path="url(#SVGID_20_)">
				<g>
					<rect x="60.824" y="93.007" fill="#6EBCDB" width="9.834" height="2.403"/>
				</g>
				<g>
					<path fill="#414D4D" d="M70.658,95.895h-9.834c-0.27,0-0.485-0.217-0.485-0.483v-2.403c0-0.268,0.218-0.484,0.485-0.484h9.834
						c0.268,0,0.484,0.218,0.484,0.484v2.403C71.143,95.678,70.926,95.895,70.658,95.895z M61.309,94.925h8.864v-1.434h-8.864
						V94.925z"/>
				</g>
			</g>
		</g>
		<g>
			<defs>
				<circle id="SVGID_21_" cx="50.128" cy="74.956" r="43.987"/>
			</defs>
			<clipPath id="SVGID_22_">
				<use xlink:href="#SVGID_21_"  overflow="visible"/>
			</clipPath>
			<g clip-path="url(#SVGID_22_)">
				<g>
					<path fill="#916A54" d="M66.646,41.242c-1.867,0-3.459,1.158-4.106,2.792c-1.399-1.047-3.701-2.268-6.462-3.079l0,0
						c-0.299-0.886,0.979-2.083,0.979-2.083c-1.113-0.236-2.912,0.972-3.604,1.479c-0.138-0.023-0.276-0.05-0.416-0.071
						c-0.304-1.042,0.455-3.079,0.455-3.079c-1.347,0.407-2.876,2.152-3.452,2.858c-0.128,0-0.256-0.003-0.385,0
						c-0.583-1.558,0.757-4.746,0.757-4.746c-3.396,1.348-5.295,5.311-5.295,5.311h0.004c-3.523,0.788-6.46,2.269-7.985,3.615
						c-0.594-1.741-2.24-2.996-4.182-2.996c-2.442,0-4.42,1.979-4.42,4.421s1.979,4.42,4.42,4.42c0.221,0,0.435-0.021,0.647-0.052
						c-0.009,1.657-0.017,4.474-0.017,9.497c0,7.918,8.81,14.453,16.512,14.402v0.002c0.006,0,0.014-0.002,0.02-0.002
						c0.007,0,0.013,0.002,0.02,0.002v-0.002c7.702,0.051,16.514-6.484,16.514-14.402c0-4.971-0.01-7.781-0.019-9.446
						c0.007,0,0.013,0.001,0.019,0.001c2.44,0,4.42-1.978,4.42-4.42C71.064,43.221,69.087,41.242,66.646,41.242z"/>
				</g>
				<g>
					<path fill="#414D4D" d="M50.133,74.416c-0.003,0-0.017,0-0.021,0H50.02c-3.871,0-8.134-1.628-11.416-4.355
						c-3.552-2.951-5.508-6.691-5.508-10.533s0.005-6.854,0.014-8.961c-0.054,0.002-0.106,0.002-0.159,0.002
						c-2.705,0-4.906-2.199-4.906-4.904c0-2.706,2.201-4.905,4.906-4.905c1.868,0,3.551,1.059,4.376,2.695
						c1.78-1.359,4.549-2.572,7.456-3.251c0.458-0.868,2.335-4.105,5.447-5.341c0.181-0.072,0.389-0.028,0.526,0.112
						c0.137,0.139,0.176,0.347,0.102,0.527c-0.303,0.722-0.954,2.618-0.859,3.851c0.822-0.952,2.119-2.244,3.352-2.615
						c0.176-0.055,0.366-0.003,0.493,0.132c0.126,0.134,0.165,0.328,0.103,0.501c-0.227,0.606-0.512,1.671-0.495,2.386
						c0.86-0.598,2.216-1.399,3.3-1.399c0.143,0,0.279,0.014,0.406,0.041c0.177,0.036,0.318,0.169,0.367,0.343
						c0.049,0.175-0.004,0.36-0.137,0.485c-0.354,0.335-0.808,0.937-0.863,1.357c2.14,0.661,4.256,1.651,5.824,2.72
						c0.854-1.562,2.481-2.544,4.299-2.544c2.705,0,4.904,2.199,4.904,4.905c0,2.546-1.949,4.646-4.436,4.882
						c0.01,2.118,0.016,5.138,0.016,8.981c0,3.842-1.956,7.582-5.509,10.535c-3.281,2.727-7.545,4.354-11.403,4.354H50.133
						L50.133,74.416z M50.113,73.445c0.008,0,0.018,0,0.021,0h0.072c7.233,0,15.954-6.209,15.954-13.918
						c0-4.137-0.006-7.312-0.018-9.442c0-0.13,0.049-0.253,0.142-0.344c0.101-0.102,0.252-0.156,0.393-0.142
						c2.14-0.001,3.903-1.766,3.903-3.937c0-2.169-1.766-3.935-3.936-3.935c-1.621,0-3.058,0.976-3.656,2.484
						c-0.055,0.142-0.174,0.248-0.318,0.289s-0.301,0.012-0.422-0.078c-1.583-1.185-3.941-2.308-6.309-3.002
						c-0.15-0.045-0.271-0.161-0.322-0.312c-0.186-0.549,0.025-1.135,0.312-1.61c-0.621,0.223-1.39,0.655-2.193,1.244
						c-0.105,0.077-0.237,0.108-0.367,0.087l-0.155-0.028c-0.084-0.014-0.167-0.029-0.25-0.042
						c-0.188-0.028-0.342-0.162-0.396-0.343c-0.188-0.648-0.049-1.555,0.127-2.27c-0.988,0.685-1.948,1.81-2.282,2.219
						c-0.092,0.113-0.229,0.178-0.375,0.178l-0.265-0.001l-0.11,0.001c-0.214,0.003-0.393-0.122-0.465-0.314
						c-0.414-1.104-0.022-2.798,0.338-3.936c-2.374,1.459-3.786,4.143-3.966,4.5c-0.055,0.15-0.182,0.266-0.347,0.303
						c-3.751,0.838-6.473,2.36-7.77,3.505c-0.122,0.106-0.29,0.146-0.445,0.106c-0.157-0.042-0.283-0.159-0.335-0.313
						c-0.543-1.595-2.041-2.667-3.722-2.667c-2.17,0-3.936,1.766-3.936,3.935c0,2.171,1.766,3.936,3.936,3.936
						c0.171,0,0.354-0.015,0.577-0.049c0.14-0.021,0.282,0.022,0.389,0.115c0.106,0.092,0.168,0.228,0.167,0.368
						c-0.011,2.12-0.017,5.315-0.017,9.495c0,7.709,8.72,13.918,15.94,13.918h0.083C50.1,73.445,50.105,73.445,50.113,73.445z"/>
				</g>
			</g>
		</g>
		<g>
			<defs>
				<circle id="SVGID_23_" cx="50.128" cy="74.956" r="43.987"/>
			</defs>
			<clipPath id="SVGID_24_">
				<use xlink:href="#SVGID_23_"  overflow="visible"/>
			</clipPath>
			<g clip-path="url(#SVGID_24_)">
				<g>
					<ellipse fill="#BF8C77" cx="50.093" cy="63.214" rx="10.079" ry="5.894"/>
				</g>
				<g>
					<path fill="#414D4D" d="M50.093,69.592c-5.826,0-10.564-2.861-10.564-6.378c0-3.519,4.738-6.38,10.564-6.38
						c5.825,0,10.564,2.861,10.564,6.38C60.657,66.729,55.918,69.592,50.093,69.592z M50.093,57.805
						c-5.29,0-9.594,2.428-9.594,5.409s4.304,5.407,9.594,5.407c5.291,0,9.595-2.426,9.595-5.407S55.384,57.805,50.093,57.805z"/>
				</g>
			</g>
		</g>
		<g>
			<defs>
				<circle id="SVGID_25_" cx="50.128" cy="74.956" r="43.987"/>
			</defs>
			<clipPath id="SVGID_26_">
				<use xlink:href="#SVGID_25_"  overflow="visible"/>
			</clipPath>
			<g clip-path="url(#SVGID_26_)">
				<g>
					<path fill="#FFFFFF" d="M53.161,66.611c0,1.35-1.168,3.691-3.122,3.691l0.018-8.335C50.04,65.573,53.161,66.611,53.161,66.611z
						"/>
				</g>
				<g>
					<path fill="#414D4D" d="M50.039,70.79c-0.129,0-0.252-0.052-0.343-0.144c-0.091-0.092-0.143-0.215-0.143-0.345l0.019-8.308
						c0-0.005,0-0.012,0-0.018v-0.01v-0.002c0.001-0.266,0.218-0.482,0.485-0.482h0.002c0.268,0,0.483,0.22,0.482,0.485
						c0,0.007,0,0.013,0,0.017c0,0.007,0,0.011,0,0.015c0.002,3.194,2.745,4.142,2.773,4.151c0.197,0.064,0.332,0.25,0.332,0.459
						c0,0.828-0.354,1.838-0.918,2.633C52.021,70.24,51.066,70.79,50.039,70.79z M50.536,65.154l-0.011,4.602
						c1.218-0.32,1.992-1.805,2.129-2.835C52.159,66.684,51.241,66.143,50.536,65.154z"/>
				</g>
			</g>
		</g>
		<g>
			<defs>
				<circle id="SVGID_27_" cx="50.128" cy="74.956" r="43.987"/>
			</defs>
			<clipPath id="SVGID_28_">
				<use xlink:href="#SVGID_27_"  overflow="visible"/>
			</clipPath>
			<g clip-path="url(#SVGID_28_)">
				<g>
					<path fill="#FFFFFF" d="M46.917,66.65c0,1.349,1.167,3.652,3.122,3.652l0.018-8.335C50.075,65.573,46.917,66.65,46.917,66.65z"
						/>
				</g>
				<g>
					<path fill="#414D4D" d="M50.039,70.79c-2.202,0-3.606-2.452-3.606-4.14c0-0.207,0.132-0.393,0.329-0.459
						c0.112-0.039,2.781-1.006,2.811-4.141v-0.083c0-0.268,0.217-0.483,0.485-0.483l0,0c0.268,0,0.484,0.217,0.484,0.481v0.089
						l-0.017,8.25C50.523,70.573,50.307,70.79,50.039,70.79z M47.425,66.958c0.138,1.019,0.913,2.481,2.13,2.8l0.01-4.587
						C48.85,66.167,47.921,66.717,47.425,66.958z"/>
				</g>
			</g>
		</g>
		<g>
			<defs>
				<circle id="SVGID_29_" cx="50.128" cy="74.956" r="43.987"/>
			</defs>
			<clipPath id="SVGID_30_">
				<use xlink:href="#SVGID_29_"  overflow="visible"/>
			</clipPath>
			<g clip-path="url(#SVGID_30_)">
				<g>
					<circle fill="#414D4D" cx="41.223" cy="51.295" r="1.887"/>
				</g>
				<g>
					<path fill="#414D4D" d="M41.223,53.668c-1.308,0-2.372-1.064-2.372-2.373c0-1.307,1.063-2.372,2.372-2.372
						c1.308,0,2.372,1.065,2.372,2.372C43.595,52.604,42.53,53.668,41.223,53.668z M41.223,49.894c-0.773,0-1.401,0.627-1.401,1.401
						s0.628,1.402,1.401,1.402c0.772,0,1.401-0.629,1.401-1.402S41.995,49.894,41.223,49.894z"/>
				</g>
			</g>
		</g>
		<g>
			<defs>
				<circle id="SVGID_31_" cx="50.128" cy="74.956" r="43.987"/>
			</defs>
			<clipPath id="SVGID_32_">
				<use xlink:href="#SVGID_31_"  overflow="visible"/>
			</clipPath>
			<g clip-path="url(#SVGID_32_)">
				<g>
					<circle fill="#414D4D" cx="59.048" cy="51.295" r="1.887"/>
				</g>
				<g>
					<path fill="#414D4D" d="M59.047,53.668c-1.307,0-2.37-1.064-2.37-2.373c0-1.307,1.063-2.372,2.37-2.372
						c1.309,0,2.372,1.065,2.372,2.372C61.419,52.604,60.355,53.668,59.047,53.668z M59.047,49.894c-0.771,0-1.4,0.627-1.4,1.401
						s0.629,1.402,1.4,1.402c0.773,0,1.402-0.629,1.402-1.402S59.82,49.894,59.047,49.894z"/>
				</g>
			</g>
		</g>
		<g>
			<defs>
				<circle id="SVGID_33_" cx="50.128" cy="74.956" r="43.987"/>
			</defs>
			<clipPath id="SVGID_34_">
				<use xlink:href="#SVGID_33_"  overflow="visible"/>
			</clipPath>
			<g clip-path="url(#SVGID_34_)">
				<g>
					<circle fill="#FFFFFF" cx="59.768" cy="50.384" r="1.167"/>
				</g>
			</g>
		</g>
		<g>
			<defs>
				<circle id="SVGID_35_" cx="50.128" cy="74.956" r="43.987"/>
			</defs>
			<clipPath id="SVGID_36_">
				<use xlink:href="#SVGID_35_"  overflow="visible"/>
			</clipPath>
			<g clip-path="url(#SVGID_36_)">
				<g>
					<circle fill="#FFFFFF" cx="41.942" cy="50.384" r="1.167"/>
				</g>
			</g>
		</g>
		<g>
			<defs>
				<circle id="SVGID_37_" cx="50.128" cy="74.956" r="43.987"/>
			</defs>
			<clipPath id="SVGID_38_">
				<use xlink:href="#SVGID_37_"  overflow="visible"/>
			</clipPath>
			<g clip-path="url(#SVGID_38_)">
				<g>
					<g>
						<path fill="#916A54" d="M55.826,52.148c-0.021,0.235,1.447,0.565,3.281,0.737c1.832,0.175,3.336,0.125,3.358-0.108
							l1.015,0.096l-0.198,2.086l-8.667-0.82l0.197-2.084L55.826,52.148z"/>
					</g>
				</g>
			</g>
		</g>
		<g>
			<defs>
				<circle id="SVGID_39_" cx="50.128" cy="74.956" r="43.987"/>
			</defs>
			<clipPath id="SVGID_40_">
				<use xlink:href="#SVGID_39_"  overflow="visible"/>
			</clipPath>
			<g clip-path="url(#SVGID_40_)">
				<g>
					<g>
						<path fill="#916A54" d="M44.445,52.148c0.021,0.235-1.447,0.565-3.281,0.737c-1.834,0.175-3.338,0.125-3.361-0.108
							l-1.014,0.096l0.198,2.086l8.667-0.82l-0.197-2.084L44.445,52.148z"/>
					</g>
				</g>
			</g>
		</g>
		<g>
			<defs>
				<circle id="SVGID_41_" cx="50.128" cy="74.956" r="43.987"/>
			</defs>
			<clipPath id="SVGID_42_">
				<use xlink:href="#SVGID_41_"  overflow="visible"/>
			</clipPath>
			<g clip-path="url(#SVGID_42_)">
				<g>
					<path fill="#BF8C77" d="M65.189,59.645c-0.422-0.586-1.447-1.826-5.094-3.951c-4.406-2.559-9.709-2.551-10.003-2.549
						c-0.293-0.002-5.598-0.01-10.003,2.549c-3.646,2.125-4.67,3.365-5.094,3.951c-0.453,0.627-0.892,1.342-0.892,2.486
						c0,1.146,0.638,1.947,1.415,2.827c0.776,0.879,2.717,2.556,6.181,2.634c5.599,0,8.157-2.156,8.358-5.623
						c0.2,3.467,2.831,5.623,8.43,5.623c3.464-0.078,5.404-1.755,6.181-2.634c0.776-0.88,1.415-1.683,1.415-2.827
						C66.083,60.986,65.645,60.271,65.189,59.645z"/>
				</g>
				<g>
					<path fill="#414D4D" d="M58.486,68.076c-5.266,0-7.541-1.831-8.428-3.91c-0.879,2.079-3.137,3.91-8.359,3.91
						c-3.753-0.086-5.827-1.985-6.545-2.799c-0.84-0.95-1.537-1.844-1.537-3.146c0-1.302,0.508-2.113,0.985-2.771
						c0.553-0.765,1.699-2.02,5.244-4.084c4.376-2.543,9.618-2.614,10.201-2.614h0.05h0.042c0.583,0,5.825,0.071,10.201,2.614
						c3.549,2.066,4.691,3.32,5.243,4.084c0.478,0.658,0.983,1.471,0.983,2.771c0,1.303-0.694,2.196-1.535,3.146
						c-0.719,0.812-2.793,2.713-6.533,2.799C58.495,68.076,58.491,68.076,58.486,68.076z M50.047,53.629
						c-0.557,0-5.558,0.07-9.714,2.482c-3.776,2.201-4.656,3.418-4.945,3.815c-0.404,0.56-0.8,1.191-0.8,2.203
						c0,0.968,0.536,1.649,1.293,2.505c0.634,0.719,2.469,2.395,5.829,2.471c5.015,0,7.664-1.738,7.862-5.164
						c0.015-0.258,0.228-0.457,0.484-0.457l0,0c0.257,0,0.469,0.199,0.484,0.457c0.247,4.267,4.453,5.162,7.94,5.164
						c3.354-0.078,5.188-1.752,5.822-2.471c0.758-0.854,1.293-1.537,1.293-2.505c0-1.012-0.396-1.646-0.8-2.203
						c-0.289-0.397-1.166-1.61-4.946-3.815c-4.154-2.412-9.156-2.482-9.711-2.482l-0.042,0.002L50.047,53.629z"/>
				</g>
			</g>
		</g>
		<g>
			<defs>
				<circle id="SVGID_43_" cx="50.128" cy="74.956" r="43.987"/>
			</defs>
			<clipPath id="SVGID_44_">
				<use xlink:href="#SVGID_43_"  overflow="visible"/>
			</clipPath>
			<g clip-path="url(#SVGID_44_)">
				<g>
					<path fill="#566261" d="M50.005,51.121c-2.326,0-3.706,0.525-3.706,1.111c0,2.221,2.161,4.485,3.706,4.485
						s3.707-2.266,3.707-4.485C53.712,51.646,52.331,51.121,50.005,51.121z"/>
				</g>
				<g>
					<path fill="#414D4D" d="M50.005,57.203c-1.791,0-4.191-2.457-4.191-4.971c0-1.176,2.166-1.597,4.191-1.597
						c2.024,0,4.19,0.421,4.19,1.597C54.195,54.746,51.796,57.203,50.005,57.203z M46.785,52.256
						c0.017,2.018,2.042,3.979,3.221,3.979c1.18,0,3.204-1.961,3.221-3.979c-0.121-0.184-1.057-0.648-3.221-0.648
						C47.84,51.607,46.905,52.072,46.785,52.256z"/>
				</g>
			</g>
		</g>
		<g>
			<defs>
				<circle id="SVGID_45_" cx="50.128" cy="74.956" r="43.987"/>
			</defs>
			<clipPath id="SVGID_46_">
				<use xlink:href="#SVGID_45_"  overflow="visible"/>
			</clipPath>
			<g clip-path="url(#SVGID_46_)">
				<g>
					<path fill="#566261" d="M44.192,53.182c-0.103,0.058-2.41,0.877-5.94,0.646"/>
				</g>
				<g>
					<path fill="#414D4D" d="M39.493,54.354c-0.405,0-0.83-0.012-1.272-0.043c-0.268-0.017-0.47-0.246-0.453-0.515
						s0.246-0.466,0.515-0.452c3.504,0.23,5.684-0.592,5.704-0.602c0.235-0.126,0.518-0.031,0.645,0.205
						c0.126,0.234,0.025,0.535-0.211,0.662C44.211,53.723,42.337,54.354,39.493,54.354z"/>
				</g>
			</g>
		</g>
		<g>
			<defs>
				<circle id="SVGID_47_" cx="50.128" cy="74.956" r="43.987"/>
			</defs>
			<clipPath id="SVGID_48_">
				<use xlink:href="#SVGID_47_"  overflow="visible"/>
			</clipPath>
			<g clip-path="url(#SVGID_48_)">
				<g>
					<path fill="#566261" d="M56.077,53.182c0.104,0.058,2.409,0.877,5.94,0.646"/>
				</g>
				<g>
					<path fill="#414D4D" d="M60.777,54.354c-2.844,0-4.719-0.631-4.93-0.744c-0.236-0.127-0.324-0.42-0.197-0.655
						c0.123-0.229,0.401-0.319,0.635-0.21c0.094,0.036,2.258,0.824,5.701,0.602c0.268-0.013,0.498,0.184,0.516,0.451
						s-0.186,0.498-0.452,0.516C61.607,54.342,61.184,54.354,60.777,54.354z"/>
				</g>
			</g>
		</g>
		<g>
			<defs>
				<circle id="SVGID_49_" cx="50.128" cy="74.956" r="43.987"/>
			</defs>
			<clipPath id="SVGID_50_">
				<use xlink:href="#SVGID_49_"  overflow="visible"/>
			</clipPath>
			<g clip-path="url(#SVGID_50_)">
				<g>
					<ellipse fill="#647070" cx="50.006" cy="52.599" rx="1.334" ry="0.546"/>
				</g>
			</g>
		</g>
		<g>
			<defs>
				<circle id="SVGID_51_" cx="50.128" cy="74.956" r="43.987"/>
			</defs>
			<clipPath id="SVGID_52_">
				<use xlink:href="#SVGID_51_"  overflow="visible"/>
			</clipPath>
			<g clip-path="url(#SVGID_52_)">
				<g>
					<path fill="#414D4D" d="M55.27,60.854c-0.224,0-0.424-0.151-0.475-0.379c-0.059-0.262,0.105-0.521,0.367-0.58
						c0.084-0.02,8.566-1.877,20.053-0.537c0.268,0.033,0.458,0.272,0.428,0.539c-0.031,0.267-0.272,0.457-0.539,0.427
						C63.792,59,55.458,60.824,55.375,60.843C55.339,60.85,55.303,60.854,55.27,60.854z"/>
				</g>
			</g>
		</g>
		<g>
			<defs>
				<circle id="SVGID_53_" cx="50.128" cy="74.956" r="43.987"/>
			</defs>
			<clipPath id="SVGID_54_">
				<use xlink:href="#SVGID_53_"  overflow="visible"/>
			</clipPath>
			<g clip-path="url(#SVGID_54_)">
				<g>
					<path fill="#414D4D" d="M73.221,63.559c-0.037,0-0.074-0.004-0.113-0.013c-6.693-1.581-15.928-0.991-16.021-0.985
						c-0.267,0.018-0.499-0.184-0.517-0.451s0.186-0.498,0.453-0.516c0.094-0.007,9.469-0.607,16.307,1.008
						c0.262,0.062,0.423,0.323,0.359,0.584C73.639,63.408,73.439,63.559,73.221,63.559z"/>
				</g>
			</g>
		</g>
		<g>
			<defs>
				<circle id="SVGID_55_" cx="50.128" cy="74.956" r="43.987"/>
			</defs>
			<clipPath id="SVGID_56_">
				<use xlink:href="#SVGID_55_"  overflow="visible"/>
			</clipPath>
			<g clip-path="url(#SVGID_56_)">
				<g>
					<path fill="#414D4D" d="M68.799,65.77c-0.046,0-0.093-0.006-0.139-0.02c-3.352-0.995-10.744-1.218-10.818-1.221
						c-0.269-0.008-0.479-0.23-0.471-0.498c0.007-0.27,0.229-0.49,0.498-0.473c0.311,0.01,7.597,0.229,11.066,1.26
						c0.256,0.076,0.403,0.348,0.328,0.604C69.2,65.634,69.008,65.77,68.799,65.77z"/>
				</g>
			</g>
		</g>
		<g>
			<defs>
				<circle id="SVGID_57_" cx="50.128" cy="74.956" r="43.987"/>
			</defs>
			<clipPath id="SVGID_58_">
				<use xlink:href="#SVGID_57_"  overflow="visible"/>
			</clipPath>
			<g clip-path="url(#SVGID_58_)">
				<g>
					<path fill="#414D4D" d="M44.757,60.854c-0.035,0-0.071-0.004-0.106-0.012c-0.083-0.019-8.419-1.843-19.729-0.52
						c-0.267,0.029-0.507-0.16-0.538-0.426c-0.032-0.268,0.159-0.506,0.425-0.539c11.485-1.34,19.969,0.518,20.054,0.537
						c0.261,0.059,0.425,0.317,0.367,0.58C45.179,60.701,44.979,60.854,44.757,60.854z"/>
				</g>
			</g>
		</g>
		<g>
			<defs>
				<circle id="SVGID_59_" cx="50.128" cy="74.956" r="43.987"/>
			</defs>
			<clipPath id="SVGID_60_">
				<use xlink:href="#SVGID_59_"  overflow="visible"/>
			</clipPath>
			<g clip-path="url(#SVGID_60_)">
				<g>
					<path fill="#414D4D" d="M26.806,63.559c-0.22,0-0.419-0.149-0.472-0.373c-0.062-0.261,0.1-0.521,0.361-0.584
						c6.837-1.615,16.212-1.015,16.307-1.008c0.267,0.018,0.47,0.248,0.451,0.516c-0.017,0.269-0.246,0.468-0.516,0.451
						c-0.092-0.006-9.325-0.596-16.019,0.985C26.88,63.555,26.843,63.559,26.806,63.559z"/>
				</g>
			</g>
		</g>
		<g>
			<defs>
				<circle id="SVGID_61_" cx="50.128" cy="74.956" r="43.987"/>
			</defs>
			<clipPath id="SVGID_62_">
				<use xlink:href="#SVGID_61_"  overflow="visible"/>
			</clipPath>
			<g clip-path="url(#SVGID_62_)">
				<g>
					<path fill="#414D4D" d="M31.226,65.77c-0.209,0-0.403-0.136-0.465-0.348c-0.076-0.256,0.07-0.525,0.327-0.604
						c3.471-1.029,10.759-1.25,11.067-1.26c0.267-0.021,0.492,0.203,0.499,0.473c0.007,0.268-0.203,0.49-0.471,0.498
						c-0.074,0.003-7.47,0.226-10.819,1.221C31.318,65.764,31.271,65.77,31.226,65.77z"/>
				</g>
			</g>
		</g>
		<g>
			<defs>
				<circle id="SVGID_63_" cx="50.128" cy="74.956" r="43.987"/>
			</defs>
			<clipPath id="SVGID_64_">
				<use xlink:href="#SVGID_63_"  overflow="visible"/>
			</clipPath>
			<g clip-path="url(#SVGID_64_)">
				<g>
					<circle fill="#BF8C77" cx="33.501" cy="45.664" r="3.37"/>
				</g>
			</g>
		</g>
		<g>
			<defs>
				<circle id="SVGID_65_" cx="50.128" cy="74.956" r="43.987"/>
			</defs>
			<clipPath id="SVGID_66_">
				<use xlink:href="#SVGID_65_"  overflow="visible"/>
			</clipPath>
			<g clip-path="url(#SVGID_66_)">
				<g>
					<circle fill="#BF8C77" cx="65.885" cy="45.664" r="3.37"/>
				</g>
			</g>
		</g>
		<g>
			<defs>
				<circle id="SVGID_67_" cx="50.128" cy="74.956" r="43.987"/>
			</defs>
			<clipPath id="SVGID_68_">
				<use xlink:href="#SVGID_67_"  overflow="visible"/>
			</clipPath>
			<g clip-path="url(#SVGID_68_)">
				<g>
					<path fill="#414D4D" d="M66.646,50.568c-0.754,0-1.478-0.167-2.149-0.495c-0.241-0.118-0.341-0.408-0.224-0.649
						c0.117-0.24,0.408-0.34,0.648-0.223c0.539,0.264,1.118,0.397,1.725,0.397c2.17,0,3.935-1.765,3.935-3.936
						c0-2.169-1.765-3.935-3.935-3.935s-3.937,1.766-3.937,3.935c0,0.269-0.217,0.485-0.485,0.485c-0.268,0-0.484-0.216-0.484-0.485
						c0-2.706,2.201-4.905,4.906-4.905s4.904,2.199,4.904,4.905S69.352,50.568,66.646,50.568z"/>
				</g>
			</g>
		</g>
		<g>
			<defs>
				<circle id="SVGID_69_" cx="50.128" cy="74.956" r="43.987"/>
			</defs>
			<clipPath id="SVGID_70_">
				<use xlink:href="#SVGID_69_"  overflow="visible"/>
			</clipPath>
			<g clip-path="url(#SVGID_70_)">
				<g>
					<path fill="#414D4D" d="M32.951,50.568c-2.705,0-4.906-2.2-4.906-4.905c0-2.706,2.201-4.905,4.906-4.905
						c2.705,0,4.905,2.199,4.905,4.905c0,0.269-0.216,0.485-0.484,0.485s-0.486-0.216-0.486-0.485c0-2.169-1.764-3.935-3.935-3.935
						c-2.17,0-3.936,1.766-3.936,3.935c0,2.171,1.766,3.936,3.936,3.936c0.604,0,1.185-0.134,1.723-0.397
						c0.242-0.117,0.531-0.017,0.649,0.223c0.117,0.242,0.018,0.531-0.223,0.649C34.427,50.402,33.705,50.568,32.951,50.568z"/>
				</g>
			</g>
		</g>
		<g>
			<defs>
				<circle id="SVGID_71_" cx="50.128" cy="74.956" r="43.987"/>
			</defs>
			<clipPath id="SVGID_72_">
				<use xlink:href="#SVGID_71_"  overflow="visible"/>
			</clipPath>
			<g clip-path="url(#SVGID_72_)">
				<g>
					<polygon fill="#D7DADB" points="32.197,126.816 26.132,126.816 26.132,79.03 32.197,76.632 					"/>
				</g>
				<g>
					<path fill="#414D4D" d="M32.197,127.302h-6.065c-0.268,0-0.485-0.217-0.485-0.483V79.03c0-0.199,0.122-0.378,0.307-0.452
						l6.064-2.398c0.149-0.059,0.318-0.039,0.451,0.051c0.133,0.09,0.212,0.24,0.212,0.401v50.187
						C32.682,127.085,32.464,127.302,32.197,127.302z M26.617,126.333h5.094V77.345l-5.094,2.017V126.333z"/>
				</g>
			</g>
		</g>
		<g>
			<defs>
				<circle id="SVGID_73_" cx="50.128" cy="74.956" r="43.987"/>
			</defs>
			<clipPath id="SVGID_74_">
				<use xlink:href="#SVGID_73_"  overflow="visible"/>
			</clipPath>
			<g clip-path="url(#SVGID_74_)">
				<g>
					<polygon fill="#647070" points="28.154,132.882 30.256,132.882 30.256,77.413 28.154,78.223 					"/>
				</g>
				<g>
					<path fill="#414D4D" d="M30.256,133.367h-2.102c-0.268,0-0.486-0.217-0.486-0.485V78.223c0-0.201,0.124-0.381,0.312-0.453
						l2.102-0.809c0.149-0.059,0.318-0.039,0.449,0.053c0.132,0.09,0.21,0.239,0.21,0.399v55.469
						C30.741,133.15,30.524,133.367,30.256,133.367z M28.639,132.396h1.132V78.12l-1.132,0.435V132.396z"/>
				</g>
			</g>
		</g>
		<g>
			<defs>
				<circle id="SVGID_75_" cx="50.128" cy="74.956" r="43.987"/>
			</defs>
			<clipPath id="SVGID_76_">
				<use xlink:href="#SVGID_75_"  overflow="visible"/>
			</clipPath>
			<g clip-path="url(#SVGID_76_)">
				<g>
					<g>
						<path fill="#647070" d="M27.446,108.455c0,0.345,0.278,0.623,0.622,0.623H30.3c0.344,0,0.623-0.278,0.623-0.623v-2.646
							c0-0.343-0.279-0.623-0.623-0.623h-2.232c-0.344,0-0.622,0.28-0.622,0.623V108.455z"/>
					</g>
					<g>
						<path fill="#414D4D" d="M30.3,109.562h-2.232c-0.61,0-1.107-0.496-1.107-1.107v-2.646c0-0.609,0.498-1.107,1.107-1.107H30.3
							c0.611,0,1.108,0.498,1.108,1.107v2.646C31.408,109.066,30.911,109.562,30.3,109.562z M28.068,105.671
							c-0.075,0-0.137,0.062-0.137,0.138v2.646c0,0.076,0.062,0.139,0.137,0.139H30.3c0.076,0,0.138-0.062,0.138-0.139v-2.646
							c0-0.074-0.062-0.138-0.138-0.138H28.068L28.068,105.671z"/>
					</g>
				</g>
				<g>
					<g>
						<line fill="none" x1="29.185" y1="105.616" x2="29.185" y2="107.156"/>
					</g>
					<g>
						<path fill="#414D4D" d="M29.185,107.641c-0.268,0-0.485-0.217-0.485-0.483v-1.54c0-0.268,0.217-0.485,0.485-0.485
							s0.485,0.22,0.485,0.485v1.54C29.669,107.424,29.453,107.641,29.185,107.641z"/>
					</g>
				</g>
				<g>
					<g>
						<circle fill="#414D4D" cx="29.245" cy="103.975" r="0.323"/>
					</g>
				</g>
				<g>
					<g>
						<circle fill="#414D4D" cx="29.245" cy="110.442" r="0.323"/>
					</g>
				</g>
				<g>
					<g>
						<circle fill="#414D4D" cx="29.245" cy="112.222" r="0.323"/>
					</g>
				</g>
				<g>
					<g>
						<circle fill="#414D4D" cx="29.245" cy="101.913" r="0.323"/>
					</g>
				</g>
				<g>
					<g>
						<circle fill="#414D4D" cx="29.245" cy="99.851" r="0.323"/>
					</g>
				</g>
			</g>
		</g>
		<g>
			<defs>
				<circle id="SVGID_77_" cx="50.128" cy="74.956" r="43.987"/>
			</defs>
			<clipPath id="SVGID_78_">
				<use xlink:href="#SVGID_77_"  overflow="visible"/>
			</clipPath>
			<g clip-path="url(#SVGID_78_)">
				<g>
					<polygon fill="#D7DADB" points="67.289,126.816 73.354,126.816 73.354,79.03 67.289,76.632 					"/>
				</g>
				<g>
					<path fill="#414D4D" d="M73.354,127.302H67.29c-0.269,0-0.485-0.217-0.485-0.483V76.632c0-0.161,0.08-0.312,0.213-0.401
						s0.301-0.108,0.451-0.051l6.063,2.398c0.186,0.074,0.308,0.253,0.308,0.452v47.786
						C73.839,127.085,73.622,127.302,73.354,127.302z M67.773,126.333h5.095V79.359l-5.095-2.016V126.333z"/>
				</g>
			</g>
		</g>
		<g>
			<defs>
				<circle id="SVGID_79_" cx="50.128" cy="74.956" r="43.987"/>
			</defs>
			<clipPath id="SVGID_80_">
				<use xlink:href="#SVGID_79_"  overflow="visible"/>
			</clipPath>
			<g clip-path="url(#SVGID_80_)">
				<g>
					<polygon fill="#647070" points="71.331,132.882 69.229,132.882 69.229,77.413 71.331,78.223 					"/>
				</g>
				<g>
					<path fill="#414D4D" d="M71.331,133.367h-2.103c-0.269,0-0.484-0.217-0.484-0.485V77.413c0-0.16,0.079-0.31,0.211-0.399
						c0.132-0.092,0.3-0.109,0.447-0.053l2.104,0.809c0.188,0.072,0.311,0.252,0.311,0.453v54.659
						C71.816,133.15,71.602,133.367,71.331,133.367z M69.715,132.396h1.133V78.555l-1.133-0.435V132.396z"/>
				</g>
			</g>
		</g>
		<g>
			<defs>
				<circle id="SVGID_81_" cx="50.128" cy="74.956" r="43.987"/>
			</defs>
			<clipPath id="SVGID_82_">
				<use xlink:href="#SVGID_81_"  overflow="visible"/>
			</clipPath>
			<g clip-path="url(#SVGID_82_)">
				<g>
					<g>
						<path fill="#647070" d="M72.039,108.455c0,0.345-0.279,0.623-0.623,0.623h-2.23c-0.344,0-0.623-0.278-0.623-0.623v-2.646
							c0-0.343,0.279-0.623,0.623-0.623h2.23c0.344,0,0.623,0.28,0.623,0.623V108.455z"/>
					</g>
					<g>
						<path fill="#414D4D" d="M71.416,109.562h-2.23c-0.61,0-1.107-0.496-1.107-1.107v-2.646c0-0.609,0.497-1.107,1.107-1.107h2.23
							c0.611,0,1.109,0.498,1.109,1.107v2.646C72.525,109.066,72.027,109.562,71.416,109.562z M69.186,105.671
							c-0.076,0-0.138,0.062-0.138,0.138v2.646c0,0.076,0.062,0.139,0.138,0.139h2.23c0.077,0,0.139-0.062,0.139-0.139v-2.646
							c0-0.074-0.062-0.138-0.139-0.138H69.186L69.186,105.671z"/>
					</g>
				</g>
				<g>
					<g>
						<line fill="none" x1="70.301" y1="105.616" x2="70.301" y2="107.156"/>
					</g>
					<g>
						<path fill="#414D4D" d="M70.301,107.641c-0.268,0-0.484-0.217-0.484-0.483v-1.54c0-0.268,0.218-0.485,0.484-0.485
							c0.27,0,0.485,0.22,0.485,0.485v1.54C70.786,107.424,70.568,107.641,70.301,107.641z"/>
					</g>
				</g>
				<g>
					<g>
						<circle fill="#414D4D" cx="70.24" cy="103.975" r="0.323"/>
					</g>
				</g>
				<g>
					<g>
						<circle fill="#414D4D" cx="70.24" cy="110.442" r="0.323"/>
					</g>
				</g>
				<g>
					<g>
						<circle fill="#414D4D" cx="70.24" cy="112.222" r="0.323"/>
					</g>
				</g>
				<g>
					<g>
						<circle fill="#414D4D" cx="70.24" cy="101.913" r="0.323"/>
					</g>
				</g>
				<g>
					<g>
						<circle fill="#414D4D" cx="70.24" cy="99.851" r="0.323"/>
					</g>
				</g>
			</g>
		</g>
		<g>
			<defs>
				<circle id="SVGID_83_" cx="50.128" cy="74.956" r="43.987"/>
			</defs>
			<clipPath id="SVGID_84_">
				<use xlink:href="#SVGID_83_"  overflow="visible"/>
			</clipPath>
			<g clip-path="url(#SVGID_84_)">
				<g>
					<polyline fill="#DE5242" points="52.296,95.9 47.418,95.9 47.418,81.618 52.296,81.618 					"/>
				</g>
				<g>
					<path fill="#414D4D" d="M52.296,96.389h-4.878c-0.268,0-0.485-0.219-0.485-0.486V81.618c0-0.269,0.218-0.485,0.485-0.485h4.878
						c0.269,0,0.485,0.217,0.485,0.485c0,0.268-0.217,0.485-0.485,0.485h-4.393v13.312h4.393c0.269,0,0.485,0.218,0.485,0.484
						C52.781,96.17,52.564,96.389,52.296,96.389z"/>
				</g>
			</g>
		</g>
		<g>
			<defs>
				<circle id="SVGID_85_" cx="50.128" cy="74.956" r="43.987"/>
			</defs>
			<clipPath id="SVGID_86_">
				<use xlink:href="#SVGID_85_"  overflow="visible"/>
			</clipPath>
			<g clip-path="url(#SVGID_86_)">
				<g>
					<path fill="#57A1D8" d="M49.899,81.66c0,0,2.93-1.13,5.931-5.084s2.859-3.85,3.529-4.801l1.853,0.947
						c0,0-0.546,8.865-5.735,13.526C55.477,86.25,51.559,82.154,49.899,81.66z"/>
				</g>
				<g>
					<path fill="#414D4D" d="M55.477,86.734c-0.127,0-0.254-0.051-0.351-0.15c-1.065-1.113-4.106-4.084-5.365-4.46
						c-0.199-0.06-0.338-0.237-0.346-0.446c-0.008-0.205,0.117-0.396,0.31-0.471c0.027-0.012,2.851-1.145,5.718-4.925
						c2.414-3.181,2.791-3.729,3.19-4.312c0.099-0.143,0.199-0.288,0.33-0.475c0.14-0.197,0.403-0.263,0.618-0.152l1.852,0.949
						c0.172,0.088,0.274,0.271,0.264,0.461c-0.006,0.095-0.148,2.3-0.938,5.117c-0.733,2.614-2.188,6.254-4.957,8.737
						C55.708,86.691,55.593,86.734,55.477,86.734z M50.984,81.659c1.56,0.976,3.666,3.051,4.509,3.909
						c4.151-4.047,5.055-11.008,5.208-12.562L59.518,72.4c-0.029,0.041-0.056,0.08-0.084,0.119c-0.404,0.592-0.789,1.15-3.218,4.35
						C54.146,79.595,52.116,81.014,50.984,81.659z"/>
				</g>
			</g>
		</g>
		<g>
			<defs>
				<circle id="SVGID_87_" cx="50.128" cy="74.956" r="43.987"/>
			</defs>
			<clipPath id="SVGID_88_">
				<use xlink:href="#SVGID_87_"  overflow="visible"/>
			</clipPath>
			<g clip-path="url(#SVGID_88_)">
				<g>
					<path fill="#57A1D8" d="M49.852,81.66c0,0-2.93-1.13-5.932-5.084c-3-3.954-2.859-3.85-3.529-4.801l-1.852,0.947
						c0,0,0.545,8.865,5.735,13.526C44.273,86.25,48.191,82.154,49.852,81.66z"/>
				</g>
				<g>
					<path fill="#414D4D" d="M44.273,86.734c-0.115,0-0.231-0.043-0.324-0.125c-2.768-2.484-4.223-6.125-4.956-8.738
						c-0.79-2.816-0.933-5.023-0.938-5.117c-0.012-0.191,0.091-0.373,0.262-0.461l1.852-0.949c0.216-0.109,0.479-0.045,0.618,0.152
						c0.131,0.186,0.231,0.332,0.33,0.477c0.399,0.582,0.777,1.131,3.19,4.311c2.884,3.8,5.69,4.914,5.719,4.925
						c0.194,0.073,0.318,0.265,0.31,0.472c-0.008,0.209-0.147,0.387-0.346,0.445c-1.259,0.376-4.3,3.348-5.366,4.46
						C44.529,86.684,44.401,86.734,44.273,86.734z M39.05,73.008c0.154,1.553,1.059,8.518,5.208,12.562
						c0.843-0.859,2.95-2.936,4.508-3.91c-1.131-0.646-3.163-2.064-5.232-4.79c-2.427-3.198-2.811-3.759-3.217-4.349
						c-0.027-0.039-0.055-0.078-0.083-0.121L39.05,73.008z"/>
				</g>
			</g>
		</g>
		<g>
			<defs>
				<circle id="SVGID_89_" cx="50.128" cy="74.956" r="43.987"/>
			</defs>
			<clipPath id="SVGID_90_">
				<use xlink:href="#SVGID_89_"  overflow="visible"/>
			</clipPath>
			<g clip-path="url(#SVGID_90_)">
				<g>
					<circle fill="#414D4D" cx="49.857" cy="84.69" r="0.708"/>
				</g>
			</g>
		</g>
		<g>
			<defs>
				<circle id="SVGID_91_" cx="50.128" cy="74.956" r="43.987"/>
			</defs>
			<clipPath id="SVGID_92_">
				<use xlink:href="#SVGID_91_"  overflow="visible"/>
			</clipPath>
			<g clip-path="url(#SVGID_92_)">
				<g>
					<circle fill="#414D4D" cx="49.857" cy="88.724" r="0.708"/>
				</g>
			</g>
		</g>
		<g>
			<defs>
				<circle id="SVGID_93_" cx="50.128" cy="74.956" r="43.987"/>
			</defs>
			<clipPath id="SVGID_94_">
				<use xlink:href="#SVGID_93_"  overflow="visible"/>
			</clipPath>
			<g clip-path="url(#SVGID_94_)">
				<g>
					<circle fill="#414D4D" cx="49.857" cy="92.756" r="0.708"/>
				</g>
			</g>
		</g>
	</g>
</g>
</svg>
