<?xml version="1.0" encoding="utf-8"?>
<!-- Generator: Adobe Illustrator 16.0.0, SVG Export Plug-In . SVG Version: 6.00 Build 0)  -->
<!DOCTYPE svg PUBLIC "-//W3C//DTD SVG 1.1//EN" "http://www.w3.org/Graphics/SVG/1.1/DTD/svg11.dtd">
<svg version="1.1" id="Layer_1" xmlns="http://www.w3.org/2000/svg" xmlns:xlink="http://www.w3.org/1999/xlink" x="0px" y="0px"
	 width="100px" height="100px" viewBox="0 0 100 100" enable-background="new 0 0 100 100" xml:space="preserve">
<g>
	<g>
		<g>
			<circle fill="#FFFFFF" cx="49.933" cy="50.002" r="46.29"/>
		</g>
		<g>
			<path fill="#414D4D" d="M49.934,96.803c-25.807,0-46.801-20.995-46.801-46.801s20.994-46.8,46.801-46.8
				c25.805,0,46.799,20.994,46.799,46.8S75.738,96.803,49.934,96.803z M49.934,4.223c-25.243,0-45.779,20.536-45.779,45.779
				c0,25.242,20.536,45.778,45.779,45.778c25.242,0,45.778-20.536,45.778-45.778C95.712,24.759,75.176,4.223,49.934,4.223z"/>
		</g>
	</g>
	<g>
		<defs>
			<circle id="SVGID_1_" cx="49.933" cy="49.99" r="46.29"/>
		</defs>
		<clipPath id="SVGID_2_">
			<use xlink:href="#SVGID_1_"  overflow="visible"/>
		</clipPath>
		<g clip-path="url(#SVGID_2_)">
			<g>
				<rect x="74.352" y="82.893" fill="#916A54" width="10.097" height="11.346"/>
			</g>
			<g>
				<path fill="#414D4D" d="M84.448,94.749H74.352c-0.283,0-0.511-0.229-0.511-0.511V82.893c0-0.28,0.228-0.51,0.511-0.51h10.097
					c0.282,0,0.511,0.229,0.511,0.51v11.346C84.959,94.521,84.73,94.749,84.448,94.749z M74.862,93.729h9.075V83.403h-9.075V93.729z
					"/>
			</g>
		</g>
		<g clip-path="url(#SVGID_2_)">
			<g>
				<rect x="14.447" y="82.893" fill="#916A54" width="10.097" height="11.346"/>
			</g>
			<g>
				<path fill="#414D4D" d="M24.544,94.749H14.447c-0.282,0-0.511-0.229-0.511-0.511V82.893c0-0.28,0.229-0.51,0.511-0.51h10.097
					c0.282,0,0.511,0.229,0.511,0.51v11.346C25.055,94.521,24.826,94.749,24.544,94.749z M14.958,93.729h9.076V83.403h-9.076V93.729
					z"/>
			</g>
		</g>
		<g clip-path="url(#SVGID_2_)">
			<g>
				<path fill="#D7DADB" d="M76.87,65.341c0,0.564-0.457,1.021-1.021,1.021H23.546c-0.563,0-1.021-0.456-1.021-1.021V52.406
					c0-0.563,0.457-1.021,1.021-1.021H75.85c0.563,0,1.021,0.458,1.021,1.021V65.341z"/>
			</g>
			<g>
				<path fill="#414D4D" d="M75.85,66.873H23.546c-0.845,0-1.531-0.688-1.531-1.532V52.406c0-0.846,0.687-1.532,1.531-1.532H75.85
					c0.844,0,1.531,0.687,1.531,1.532v12.935C77.381,66.185,76.693,66.873,75.85,66.873z M23.546,51.896
					c-0.281,0-0.51,0.229-0.51,0.511v12.935c0,0.28,0.229,0.51,0.51,0.51H75.85c0.28,0,0.51-0.229,0.51-0.51V52.406
					c0-0.282-0.229-0.511-0.51-0.511H23.546z"/>
			</g>
		</g>
		<g clip-path="url(#SVGID_2_)">
			<g>
				<path fill="#F26A51" d="M83.068,63.893c-0.894-5.02-1.702-4.977-4.015-6.231c-2.057-0.998-6.622-2.872-10.366-4.531
					c-3.745-1.659-7.445-5.233-7.445-5.233h-11.36h-11.87c0,0-3.701,3.574-7.445,5.233s-8.31,3.533-10.367,4.531
					c-2.312,1.255-3.12,1.212-4.014,6.231c-0.893,5.021-3.659,20.551-3.659,20.551l12.295,2.425v19.825h25.06h24.55V86.868
					l12.295-2.425C86.727,84.443,83.961,68.914,83.068,63.893z"/>
			</g>
			<g>
				<path fill="#414D4D" d="M74.432,107.205H24.822c-0.281,0-0.51-0.229-0.51-0.512V87.288l-11.884-2.345
					c-0.273-0.054-0.453-0.315-0.404-0.59l3.659-20.55c0.813-4.57,1.58-5.181,3.675-6.274c0.188-0.099,0.387-0.201,0.598-0.316
					c1.25-0.607,3.385-1.521,5.646-2.489c1.59-0.682,3.233-1.386,4.757-2.062c3.619-1.604,7.261-5.098,7.298-5.133
					c0.096-0.092,0.223-0.144,0.354-0.144h23.23c0.132,0,0.259,0.052,0.354,0.144c0.035,0.035,3.682,3.531,7.298,5.133
					c1.523,0.676,3.167,1.38,4.757,2.062c2.261,0.968,4.396,1.882,5.626,2.479c0.231,0.126,0.431,0.229,0.617,0.327
					c2.097,1.094,2.863,1.704,3.676,6.274l3.659,20.55c0.049,0.274-0.131,0.536-0.404,0.59l-11.884,2.345v19.405
					C74.941,106.976,74.713,107.205,74.432,107.205z M25.333,106.184H73.92V86.868c0-0.244,0.173-0.454,0.412-0.501l11.804-2.328
					l-3.57-20.057c-0.767-4.309-1.366-4.62-3.144-5.548c-0.191-0.101-0.396-0.207-0.611-0.324c-1.188-0.576-3.312-1.486-5.561-2.449
					c-1.593-0.682-3.24-1.388-4.77-2.066c-3.399-1.506-6.697-4.49-7.442-5.188H38.216c-0.746,0.697-4.043,3.682-7.443,5.188
					c-1.528,0.679-3.176,1.385-4.769,2.066c-2.25,0.963-4.374,1.873-5.581,2.46c-0.196,0.106-0.399,0.213-0.591,0.313
					c-1.778,0.928-2.377,1.239-3.144,5.548l-3.571,20.057l11.803,2.328c0.239,0.047,0.412,0.257,0.412,0.501V106.184z"/>
			</g>
		</g>
		<g clip-path="url(#SVGID_2_)">
			<g>
				<g>
					<path fill-rule="evenodd" clip-rule="evenodd" fill="#414D4D" d="M66.994,74.254c0.068-0.015,0.136-0.031,0.205-0.044
						c0.323-0.055,0.638-0.171,0.973-0.137c0.081,0.007,0.16,0.018,0.24,0.029c0.056,0.009,0.119,0.019,0.141-0.043
						c0.016-0.044,0.015-0.108-0.007-0.15c-0.063-0.128-0.164-0.218-0.312-0.258c-0.229-0.062-0.464-0.066-0.69-0.039
						c-0.311,0.037-0.614,0.119-0.919,0.187c-0.431,0.095-1.051,0.322-1.497,0.359c-0.178,0.016-0.247,0.141-0.204,0.329
						c0.038,0.169,0.154,0.227,0.328,0.181c0.285-0.076,0.785-0.187,1.071-0.262c0.022-0.006,0.04-0.009,0.054-0.01l-0.137,4.934
						h-0.001c-0.003,0.025-0.002,0.053,0.001,0.078c0.009,0.066,0.054,0.14,0.131,0.135c0.075-0.003,0.18-0.044,0.227-0.102
						c0.049-0.061,0.062-0.102,0.073-0.171l0.003-0.041l0.28-4.963C66.965,74.261,66.978,74.256,66.994,74.254z"/>
				</g>
			</g>
			<g>
				<g>
					<path fill-rule="evenodd" clip-rule="evenodd" fill="#414D4D" d="M65.559,75.013c0.066-0.152,0.093-0.325,0.076-0.513
						c-0.014-0.159-0.047-0.305-0.102-0.433c-0.059-0.139-0.133-0.261-0.22-0.362c-0.053-0.063-0.111-0.12-0.174-0.173
						c-0.267-0.222-0.603-0.335-0.948-0.319c-0.021,0.001-0.042,0.003-0.062,0.005c-0.368,0.032-0.702,0.208-0.938,0.492
						c-0.252,0.301-0.363,0.662-0.314,1.013c0.017,0.118,0.108,0.197,0.222,0.192c0.005,0,0.009,0,0.013,0
						c0.062-0.007,0.105-0.028,0.133-0.065c0.026-0.036,0.031-0.083,0.018-0.146c-0.023-0.095-0.045-0.355,0.259-0.722
						c0.164-0.194,0.395-0.314,0.647-0.338c0.015-0.001,0.029-0.003,0.045-0.004c0.238-0.01,0.47,0.067,0.653,0.22
						c0.296,0.248,0.392,0.694,0.226,1.039c-0.07,0.144-0.155,0.274-0.255,0.391c-0.1,0.113-0.21,0.211-0.329,0.292
						c-0.07,0.046-0.144,0.088-0.22,0.122c-0.022,0.012-0.068,0.033-0.095,0.04c-0.003-0.019-0.005-0.053-0.004-0.104
						c0.001-0.202,0.01-0.828,0.01-0.842c0-0.007,0.01-0.595-0.007-0.636c-0.036-0.089-0.097-0.127-0.19-0.124
						c-0.011,0.001-0.021,0.001-0.032,0.002c-0.106,0.014-0.168,0.066-0.19,0.166l-0.002,0.006v0.005l-0.048,0.926
						c-0.003,0.142-0.006,0.267-0.011,0.386c-0.004,0.112-0.01,0.225-0.015,0.336c-0.012,0.226-0.023,0.459-0.026,0.688
						c-0.005,0.304-0.006,0.627,0.016,0.951l0.002,0.028c0.005,0.081,0.014,0.22,0.023,0.283c0,0.004,0,0.013,0.003,0.025
						c0.015,0.116,0.033,0.256,0.043,0.304c0.023,0.099,0.087,0.168,0.176,0.19c0.029,0.007,0.061,0.01,0.091,0.008
						c0.095-0.003,0.17-0.049,0.2-0.122c0.019-0.045,0.016-0.096,0.014-0.137l-0.001-0.01c0-0.015-0.004-0.067-0.01-0.144
						c-0.015-0.219-0.042-0.627-0.047-0.763c-0.003-0.136,0.005-0.749,0.006-0.776c0-0.009-0.001-0.019-0.001-0.029
						c-0.002-0.05,0.001-0.065,0.012-0.069c0.186-0.07,0.343-0.105,0.493-0.113c0.078-0.003,0.156,0.002,0.231,0.015
						c0.105,0.019,0.179,0.081,0.216,0.188c0.03,0.085,0.044,0.179,0.043,0.287c0,0.04-0.008,0.394-0.113,0.749l-0.002,0.005
						c-0.121,0.359-0.367,0.699-0.677,0.933c-0.052,0.039-0.105,0.076-0.161,0.108c-0.209,0.11-0.617,0.179-0.621,0.18
						c-0.059,0.008-0.118,0.014-0.175,0.016h-0.003c-0.002,0-0.006,0-0.006,0c-0.005,0-0.008,0-0.011,0.001h-0.004
						c-0.097,0.005-0.149,0.047-0.177,0.081c-0.045,0.057-0.06,0.137-0.043,0.234c0.021,0.112,0.103,0.189,0.22,0.204l0.002-0.017
						l-0.001,0.017c0.006,0.001,0.062,0.001,0.069,0.001h0.001h0.001c0.003,0,0.104-0.006,0.143-0.008
						c0.365-0.016,0.736-0.159,1.071-0.412c0.391-0.295,0.691-0.702,0.846-1.145l0.002-0.006c0.12-0.327,0.163-0.678,0.128-1.039
						c-0.03-0.309-0.175-0.537-0.431-0.68c-0.082-0.045-0.204-0.091-0.315-0.115C65.233,75.54,65.435,75.296,65.559,75.013z"/>
				</g>
			</g>
		</g>
		<g clip-path="url(#SVGID_2_)">
			<g>
				<rect x="40.38" y="44.365" fill="#916A54" width="18.551" height="12.892"/>
			</g>
			<g>
				<path fill="#414D4D" d="M58.931,57.767H40.38c-0.281,0-0.51-0.228-0.51-0.51V44.365c0-0.282,0.229-0.511,0.51-0.511h18.551
					c0.282,0,0.51,0.229,0.51,0.511v12.892C59.44,57.539,59.213,57.767,58.931,57.767z M40.891,56.745H58.42V44.876H40.891V56.745z"
					/>
			</g>
		</g>
		<g clip-path="url(#SVGID_2_)">
			<g>
				<path fill="#414D4D" d="M66.363,82.229c-0.04,0-0.078-0.005-0.117-0.014l-5.174-1.221c-0.23-0.056-0.394-0.261-0.394-0.498
					v-11.51c0-0.282,0.229-0.512,0.511-0.512h10.349c0.282,0,0.51,0.229,0.51,0.512v11.51c0,0.237-0.162,0.442-0.394,0.498
					l-5.174,1.221C66.441,82.225,66.403,82.229,66.363,82.229z M61.7,80.093l4.663,1.101l4.664-1.101V69.496H61.7V80.093z"/>
			</g>
		</g>
		<g clip-path="url(#SVGID_2_)">
			<g>
				<path fill="#FFFFFF" d="M58.887,46.702c0,0-2.839,7.173-9.222,10.372c1.412,0.443,3.948,2.775,5.868,4.847
					c0,0,2.982-3.255,4.296-6.808c0.472-3.431,0.739-6.771,0.692-7.336L58.887,46.702z"/>
			</g>
			<g>
				<path fill="#414D4D" d="M55.533,62.431c-0.143,0-0.278-0.059-0.375-0.163c-2.33-2.514-4.546-4.361-5.646-4.705
					c-0.199-0.063-0.341-0.24-0.356-0.447c-0.017-0.207,0.094-0.404,0.279-0.498c6.139-3.076,8.948-10.033,8.977-10.104
					c0.056-0.142,0.174-0.252,0.32-0.298s0.307-0.024,0.435,0.06l1.636,1.076c0.131,0.087,0.215,0.229,0.229,0.384
					c0.055,0.676-0.243,4.147-0.696,7.448c-0.005,0.036-0.015,0.072-0.027,0.107c-1.332,3.604-4.274,6.838-4.398,6.976
					C55.812,62.371,55.667,62.427,55.533,62.431z M50.788,57.046c1.646,0.981,3.698,3.031,4.729,4.112
					c0.816-0.969,2.812-3.497,3.813-6.17c0.434-3.172,0.668-6.026,0.685-6.932l-0.903-0.594
					C58.331,49.16,55.706,54.174,50.788,57.046z"/>
			</g>
		</g>
		<g clip-path="url(#SVGID_2_)">
			<g>
				<path fill="#FFFFFF" d="M40.432,46.702c0,0,2.838,7.173,9.222,10.372c-1.413,0.443-3.948,2.775-5.868,4.847
					c0,0-2.982-3.255-4.297-6.808c-0.471-3.431-0.739-6.771-0.692-7.336L40.432,46.702z"/>
			</g>
			<g>
				<path fill="#414D4D" d="M43.785,62.431c0,0-0.001,0-0.002,0c-0.143,0-0.278-0.061-0.375-0.164
					c-0.125-0.138-3.065-3.372-4.398-6.976c-0.014-0.035-0.022-0.071-0.027-0.107c-0.453-3.304-0.75-6.775-0.696-7.448
					c0.014-0.155,0.099-0.297,0.229-0.384l1.637-1.076c0.128-0.084,0.288-0.105,0.434-0.06c0.146,0.046,0.265,0.156,0.321,0.298
					c0.027,0.07,2.848,7.033,8.976,10.104c0.186,0.094,0.297,0.291,0.279,0.498c-0.017,0.207-0.157,0.384-0.355,0.447
					c-1.099,0.344-3.315,2.19-5.646,4.705C44.062,62.372,43.927,62.431,43.785,62.431z M39.986,54.988
					c1.004,2.676,2.997,5.201,3.813,6.17c1.031-1.081,3.084-3.131,4.729-4.112c-4.917-2.872-7.543-7.886-8.324-9.583l-0.903,0.594
					C39.318,48.961,39.553,51.814,39.986,54.988z"/>
			</g>
		</g>
		<g clip-path="url(#SVGID_2_)">
			<g>
				<rect x="61.189" y="68.987" fill="#6EBCDB" width="10.349" height="2.528"/>
			</g>
			<g>
				<path fill="#414D4D" d="M71.538,72.025H61.189c-0.282,0-0.511-0.229-0.511-0.51v-2.528c0-0.282,0.229-0.512,0.511-0.512h10.349
					c0.282,0,0.51,0.229,0.51,0.512v2.528C72.048,71.797,71.82,72.025,71.538,72.025z M61.7,71.005h9.327v-1.509H61.7V71.005z"/>
			</g>
		</g>
		<g clip-path="url(#SVGID_2_)">
			<g>
				<path fill="#916A54" d="M67.315,14.512c-1.963,0-3.639,1.218-4.321,2.938c-1.474-1.103-3.896-2.387-6.8-3.24l0,0
					c-0.313-0.933,1.029-2.192,1.029-2.192c-1.173-0.249-3.064,1.022-3.794,1.557c-0.146-0.025-0.29-0.054-0.438-0.074
					c-0.32-1.098,0.479-3.24,0.479-3.24c-1.417,0.428-3.026,2.265-3.633,3.007c-0.135,0-0.27-0.003-0.405,0
					c-0.613-1.64,0.797-4.994,0.797-4.994c-3.573,1.419-5.573,5.588-5.573,5.588h0.005c-3.707,0.83-6.799,2.389-8.403,3.805
					c-0.625-1.832-2.357-3.152-4.4-3.152c-2.57,0-4.652,2.083-4.652,4.652s2.082,4.651,4.652,4.651c0.232,0,0.458-0.022,0.681-0.056
					c-0.01,1.744-0.018,4.708-0.018,9.994c0,8.332,9.271,15.21,17.376,15.158v0.001c0.007,0,0.015-0.001,0.021-0.001
					s0.014,0.001,0.021,0.001v-0.001c8.105,0.052,17.377-6.826,17.377-15.158c0-5.23-0.009-8.188-0.018-9.939
					c0.006,0,0.012,0.001,0.018,0.001c2.568,0,4.651-2.082,4.651-4.651S69.884,14.512,67.315,14.512z"/>
			</g>
			<g>
				<path fill="#414D4D" d="M49.938,49.423c-0.004,0-0.018,0-0.022,0h-0.097c-4.073,0-8.561-1.713-12.014-4.584
					c-3.737-3.106-5.796-7.043-5.796-11.085c0-4.043,0.005-7.211,0.015-9.431c-0.057,0.001-0.111,0.002-0.167,0.002
					c-2.847,0-5.163-2.315-5.163-5.161c0-2.848,2.316-5.162,5.163-5.162c1.966,0,3.736,1.114,4.605,2.836
					c1.873-1.43,4.787-2.706,7.847-3.421c0.481-0.913,2.457-4.319,5.731-5.62c0.191-0.075,0.409-0.029,0.554,0.117
					C50.738,8.062,50.78,8.28,50.7,8.47c-0.318,0.76-1.003,2.755-0.903,4.052c0.866-1.001,2.229-2.361,3.526-2.752
					c0.186-0.058,0.386-0.004,0.519,0.139c0.134,0.141,0.175,0.346,0.107,0.527c-0.237,0.638-0.538,1.759-0.521,2.511
					c0.905-0.629,2.332-1.473,3.474-1.473c0.149,0,0.293,0.016,0.428,0.043c0.186,0.039,0.335,0.179,0.386,0.361
					c0.052,0.185-0.004,0.38-0.143,0.511c-0.373,0.353-0.851,0.985-0.909,1.428c2.252,0.696,4.478,1.738,6.129,2.862
					c0.899-1.645,2.612-2.677,4.523-2.677c2.847,0,5.162,2.314,5.162,5.162c0,2.679-2.052,4.889-4.668,5.138
					c0.011,2.229,0.017,5.405,0.017,9.452c0,4.042-2.059,7.979-5.797,11.086c-3.453,2.87-7.939,4.583-12,4.583H49.938L49.938,49.423
					z M49.918,48.401c0.009,0,0.019,0,0.022,0h0.075c7.611,0,16.789-6.533,16.789-14.647c0-4.354-0.006-7.695-0.019-9.937
					c0-0.137,0.053-0.267,0.149-0.362c0.105-0.107,0.265-0.164,0.413-0.148c2.25-0.002,4.107-1.858,4.107-4.143
					c0-2.283-1.857-4.142-4.141-4.142c-1.706,0-3.217,1.026-3.848,2.615c-0.059,0.148-0.183,0.261-0.336,0.304
					c-0.152,0.043-0.316,0.013-0.444-0.083c-1.665-1.246-4.146-2.428-6.638-3.159c-0.16-0.047-0.287-0.169-0.34-0.328
					c-0.194-0.578,0.027-1.194,0.329-1.694c-0.654,0.234-1.461,0.688-2.309,1.309c-0.11,0.081-0.249,0.113-0.387,0.091l-0.163-0.028
					c-0.088-0.016-0.175-0.031-0.264-0.045c-0.196-0.029-0.358-0.17-0.415-0.361c-0.199-0.682-0.052-1.636,0.133-2.388
					c-1.04,0.721-2.051,1.904-2.401,2.335c-0.097,0.118-0.241,0.188-0.394,0.188l-0.279-0.001l-0.116,0.001
					c-0.225,0.003-0.412-0.129-0.489-0.331c-0.436-1.162-0.023-2.944,0.356-4.142c-2.498,1.536-3.984,4.359-4.174,4.735
					c-0.059,0.158-0.192,0.28-0.365,0.32c-3.948,0.881-6.812,2.483-8.178,3.688c-0.128,0.112-0.304,0.154-0.468,0.112
					c-0.166-0.045-0.298-0.168-0.353-0.33c-0.572-1.679-2.147-2.807-3.917-2.807c-2.284,0-4.142,1.858-4.142,4.142
					c0,2.284,1.857,4.141,4.142,4.141c0.18,0,0.373-0.016,0.606-0.051c0.147-0.022,0.297,0.023,0.409,0.121s0.177,0.239,0.176,0.387
					c-0.012,2.232-0.019,5.594-0.019,9.992c0,8.114,9.178,14.647,16.775,14.647h0.088C49.903,48.4,49.909,48.401,49.918,48.401z"/>
			</g>
		</g>
		<g clip-path="url(#SVGID_2_)">
			<g>
				<ellipse fill="#BF8C77" cx="49.896" cy="37.633" rx="10.606" ry="6.202"/>
			</g>
			<g>
				<path fill="#414D4D" d="M49.896,44.347c-6.13,0-11.117-3.013-11.117-6.714s4.987-6.713,11.117-6.713s11.117,3.012,11.117,6.713
					S56.026,44.347,49.896,44.347z M49.896,31.942c-5.566,0-10.097,2.554-10.097,5.69c0,3.139,4.53,5.691,10.097,5.691
					c5.567,0,10.097-2.553,10.097-5.691C59.993,34.496,55.464,31.942,49.896,31.942z"/>
			</g>
		</g>
		<g clip-path="url(#SVGID_2_)">
			<g>
				<path fill="#FFFFFF" d="M53.125,41.209c0,1.42-1.229,3.886-3.285,3.886l0.019-8.771C49.841,40.117,53.125,41.209,53.125,41.209z
					"/>
			</g>
			<g>
				<path fill="#414D4D" d="M49.84,45.606c-0.136,0-0.266-0.054-0.361-0.15c-0.096-0.096-0.15-0.227-0.15-0.362l0.021-8.743
					c0-0.004,0-0.011,0-0.017v-0.01v-0.003c0.001-0.28,0.229-0.508,0.51-0.508h0.002c0.282,0.001,0.51,0.23,0.509,0.511
					c0,0.007,0,0.014,0,0.018c0,0.006,0,0.01,0,0.015c0.001,3.361,2.888,4.357,2.917,4.368c0.209,0.069,0.35,0.264,0.35,0.484
					c0,0.871-0.37,1.934-0.967,2.771C51.925,45.028,50.92,45.606,49.84,45.606z M50.362,39.676l-0.011,4.843
					c1.28-0.338,2.096-1.899,2.24-2.983C52.07,41.284,51.104,40.716,50.362,39.676z"/>
			</g>
		</g>
		<g clip-path="url(#SVGID_2_)">
			<g>
				<path fill="#FFFFFF" d="M46.555,41.251c0,1.419,1.229,3.844,3.285,3.844l0.019-8.771C49.877,40.117,46.555,41.251,46.555,41.251
					z"/>
			</g>
			<g>
				<path fill="#414D4D" d="M49.84,45.606c-2.316,0-3.796-2.58-3.796-4.355c0-0.219,0.14-0.413,0.347-0.483
					c0.117-0.042,2.927-1.059,2.957-4.357l0.001-0.086c0.001-0.283,0.229-0.51,0.51-0.511l0,0c0.282,0,0.51,0.228,0.511,0.508v0.093
					l-0.019,8.684C50.35,45.378,50.121,45.606,49.84,45.606z M47.088,41.573c0.146,1.072,0.962,2.613,2.242,2.947l0.011-4.827
					C48.589,40.741,47.611,41.319,47.088,41.573z"/>
			</g>
		</g>
		<g clip-path="url(#SVGID_2_)">
			<g>
				<circle fill="#414D4D" cx="40.562" cy="25.091" r="1.985"/>
			</g>
			<g>
				<path fill="#414D4D" d="M40.562,27.588c-1.376,0-2.496-1.119-2.496-2.497c0-1.375,1.12-2.496,2.496-2.496
					s2.496,1.121,2.496,2.496C43.058,26.469,41.938,27.588,40.562,27.588z M40.562,23.616c-0.812,0-1.475,0.662-1.475,1.475
					c0,0.814,0.662,1.476,1.475,1.476s1.475-0.661,1.475-1.476C42.036,24.278,41.374,23.616,40.562,23.616z"/>
			</g>
		</g>
		<g clip-path="url(#SVGID_2_)">
			<g>
				<circle fill="#414D4D" cx="59.32" cy="25.091" r="1.985"/>
			</g>
			<g>
				<path fill="#414D4D" d="M59.319,27.588c-1.376,0-2.495-1.119-2.495-2.497c0-1.375,1.119-2.496,2.495-2.496
					c1.377,0,2.496,1.121,2.496,2.496C61.815,26.469,60.696,27.588,59.319,27.588z M59.319,23.616c-0.812,0-1.474,0.662-1.474,1.475
					c0,0.814,0.661,1.476,1.474,1.476c0.813,0,1.476-0.661,1.476-1.476C60.795,24.278,60.133,23.616,59.319,23.616z"/>
			</g>
		</g>
		<g clip-path="url(#SVGID_2_)">
			<g>
				<circle fill="#FFFFFF" cx="60.077" cy="24.133" r="1.229"/>
			</g>
		</g>
		<g clip-path="url(#SVGID_2_)">
			<g>
				<circle fill="#FFFFFF" cx="41.318" cy="24.133" r="1.229"/>
			</g>
		</g>
		<g clip-path="url(#SVGID_2_)">
			<g>
				<g>
					<path fill="#916A54" d="M55.93,25.99c-0.023,0.247,1.522,0.595,3.452,0.776c1.93,0.183,3.513,0.131,3.537-0.115l1.065,0.101
						l-0.208,2.195l-9.12-0.863l0.207-2.194L55.93,25.99z"/>
				</g>
			</g>
		</g>
		<g clip-path="url(#SVGID_2_)">
			<g>
				<g>
					<path fill="#916A54" d="M43.952,25.99c0.023,0.247-1.522,0.595-3.452,0.776c-1.93,0.183-3.513,0.131-3.536-0.115l-1.067,0.101
						l0.208,2.195l9.121-0.863l-0.207-2.194L43.952,25.99z"/>
				</g>
			</g>
		</g>
		<g clip-path="url(#SVGID_2_)">
			<g>
				<path fill="#BF8C77" d="M65.784,33.877c-0.445-0.616-1.523-1.922-5.36-4.156c-4.638-2.693-10.219-2.686-10.527-2.684
					c-0.309-0.002-5.891-0.01-10.526,2.684c-3.838,2.234-4.915,3.54-5.361,4.156c-0.478,0.659-0.938,1.412-0.938,2.617
					c0,1.206,0.67,2.049,1.488,2.975c0.817,0.925,2.859,2.688,6.505,2.772c5.892,0,8.583-2.271,8.795-5.917
					c0.211,3.646,2.979,5.917,8.872,5.917c3.645-0.084,5.687-1.848,6.504-2.772c0.817-0.926,1.488-1.769,1.488-2.975
					C66.723,35.289,66.261,34.536,65.784,33.877z"/>
			</g>
			<g>
				<path fill="#414D4D" d="M58.73,42.751c-5.543,0-7.938-1.927-8.871-4.115c-0.925,2.188-3.301,4.115-8.796,4.115
					c-3.95-0.091-6.132-2.09-6.888-2.944c-0.885-1.001-1.617-1.942-1.617-3.312c0-1.369,0.535-2.225,1.036-2.916
					c0.583-0.806,1.788-2.126,5.519-4.3c4.605-2.674,10.121-2.751,10.735-2.751H49.9h0.045c0.613,0,6.129,0.077,10.734,2.751
					c3.733,2.176,4.938,3.495,5.518,4.3c0.502,0.691,1.036,1.547,1.036,2.916c0,1.37-0.731,2.312-1.616,3.312
					c-0.756,0.854-2.938,2.854-6.875,2.944C58.738,42.751,58.734,42.751,58.73,42.751z M49.849,27.548
					c-0.586,0-5.849,0.073-10.223,2.612c-3.974,2.317-4.899,3.597-5.204,4.017c-0.426,0.588-0.842,1.253-0.842,2.317
					c0,1.019,0.564,1.735,1.36,2.636c0.667,0.756,2.599,2.52,6.135,2.6c5.277,0,8.064-1.829,8.274-5.434
					c0.016-0.271,0.239-0.482,0.509-0.482l0,0c0.271,0,0.494,0.211,0.511,0.482c0.259,4.488,4.686,5.433,8.355,5.434
					c3.53-0.081,5.461-1.844,6.128-2.6c0.796-0.9,1.36-1.617,1.36-2.636c0-1.064-0.416-1.729-0.843-2.317
					c-0.303-0.42-1.227-1.697-5.204-4.017c-4.373-2.539-9.636-2.612-10.221-2.612L49.9,27.549L49.849,27.548z"/>
			</g>
		</g>
		<g clip-path="url(#SVGID_2_)">
			<g>
				<path fill="#566261" d="M49.805,24.908c-2.448,0-3.9,0.553-3.9,1.169c0,2.337,2.273,4.722,3.9,4.722
					c1.626,0,3.899-2.385,3.899-4.722C53.704,25.461,52.251,24.908,49.805,24.908z"/>
			</g>
			<g>
				<path fill="#414D4D" d="M49.805,31.309c-1.886,0-4.411-2.587-4.411-5.231c0-1.237,2.278-1.679,4.411-1.679
					c2.132,0,4.41,0.441,4.41,1.679C54.215,28.722,51.689,31.309,49.805,31.309z M46.415,26.103c0.018,2.122,2.149,4.186,3.39,4.186
					c1.239,0,3.371-2.063,3.389-4.186c-0.127-0.194-1.111-0.683-3.389-0.683C47.525,25.42,46.542,25.908,46.415,26.103z"/>
			</g>
		</g>
		<g clip-path="url(#SVGID_2_)">
			<g>
				<path fill="#566261" d="M43.687,27.077c-0.108,0.059-2.536,0.921-6.251,0.679"/>
			</g>
			<g>
				<path fill="#414D4D" d="M38.742,28.31c-0.427,0-0.873-0.013-1.339-0.045c-0.282-0.018-0.495-0.261-0.477-0.542
					c0.018-0.282,0.259-0.49,0.542-0.477c3.688,0.243,5.981-0.623,6.003-0.632c0.247-0.133,0.545-0.033,0.679,0.216
					c0.133,0.247,0.026,0.563-0.223,0.696C43.706,27.646,41.734,28.31,38.742,28.31z"/>
			</g>
		</g>
		<g clip-path="url(#SVGID_2_)">
			<g>
				<path fill="#566261" d="M56.194,27.077c0.108,0.059,2.536,0.921,6.251,0.679"/>
			</g>
			<g>
				<path fill="#414D4D" d="M61.14,28.31c-2.993,0-4.965-0.663-5.187-0.783c-0.249-0.133-0.342-0.442-0.209-0.691
					c0.129-0.24,0.425-0.335,0.668-0.22c0.099,0.037,2.377,0.868,6,0.631c0.281-0.012,0.524,0.194,0.543,0.477
					c0.019,0.281-0.195,0.524-0.476,0.542C62.014,28.297,61.566,28.31,61.14,28.31z"/>
			</g>
		</g>
		<g clip-path="url(#SVGID_2_)">
			<g>
				<ellipse fill="#647070" cx="49.805" cy="26.463" rx="1.404" ry="0.574"/>
			</g>
		</g>
		<g clip-path="url(#SVGID_2_)">
			<g>
				<path fill="#414D4D" d="M55.343,35.149c-0.233,0-0.445-0.16-0.498-0.398c-0.062-0.275,0.111-0.549,0.386-0.61
					c0.09-0.021,9.017-1.975,21.104-0.564c0.28,0.033,0.481,0.286,0.448,0.566c-0.033,0.279-0.286,0.48-0.566,0.448
					c-11.903-1.393-20.675,0.527-20.762,0.546C55.416,35.145,55.379,35.149,55.343,35.149z"/>
			</g>
		</g>
		<g clip-path="url(#SVGID_2_)">
			<g>
				<path fill="#414D4D" d="M74.233,37.997c-0.039,0-0.078-0.005-0.117-0.014c-7.046-1.664-16.762-1.043-16.859-1.036
					c-0.281,0.017-0.525-0.194-0.543-0.476c-0.019-0.281,0.194-0.524,0.476-0.543c0.099-0.007,9.965-0.64,17.161,1.061
					c0.274,0.066,0.444,0.34,0.38,0.614C74.674,37.839,74.465,37.997,74.233,37.997z"/>
			</g>
		</g>
		<g clip-path="url(#SVGID_2_)">
			<g>
				<path fill="#414D4D" d="M69.581,40.323c-0.048,0-0.097-0.007-0.146-0.021c-3.525-1.047-11.307-1.282-11.385-1.284
					c-0.282-0.008-0.503-0.242-0.495-0.524c0.007-0.283,0.241-0.517,0.524-0.496c0.325,0.009,7.994,0.241,11.646,1.325
					c0.271,0.08,0.425,0.365,0.345,0.635C70.004,40.181,69.801,40.323,69.581,40.323z"/>
			</g>
		</g>
		<g clip-path="url(#SVGID_2_)">
			<g>
				<path fill="#414D4D" d="M44.281,35.149c-0.037,0-0.075-0.005-0.112-0.013c-0.087-0.019-8.859-1.938-20.762-0.546
					c-0.28,0.031-0.533-0.169-0.566-0.448c-0.033-0.28,0.168-0.533,0.448-0.566c12.086-1.41,21.015,0.545,21.104,0.564
					c0.275,0.062,0.447,0.335,0.387,0.61C44.726,34.989,44.515,35.149,44.281,35.149z"/>
			</g>
		</g>
		<g clip-path="url(#SVGID_2_)">
			<g>
				<path fill="#414D4D" d="M25.39,37.997c-0.231,0-0.44-0.158-0.496-0.394c-0.064-0.274,0.105-0.548,0.38-0.614
					c7.195-1.7,17.062-1.067,17.16-1.061c0.281,0.019,0.494,0.262,0.475,0.543c-0.018,0.281-0.258,0.491-0.543,0.476
					c-0.097-0.007-9.813-0.628-16.857,1.036C25.469,37.992,25.429,37.997,25.39,37.997z"/>
			</g>
		</g>
		<g clip-path="url(#SVGID_2_)">
			<g>
				<path fill="#414D4D" d="M30.042,40.323c-0.221,0-0.424-0.143-0.489-0.365c-0.08-0.27,0.073-0.555,0.344-0.635
					c3.652-1.084,11.322-1.316,11.646-1.325c0.281-0.021,0.518,0.213,0.525,0.496c0.008,0.282-0.214,0.517-0.496,0.524
					c-0.077,0.002-7.861,0.237-11.386,1.284C30.139,40.316,30.09,40.323,30.042,40.323z"/>
			</g>
		</g>
		<g clip-path="url(#SVGID_2_)">
			<g>
				<circle fill="#BF8C77" cx="32.437" cy="19.165" r="3.546"/>
			</g>
		</g>
		<g clip-path="url(#SVGID_2_)">
			<g>
				<circle fill="#BF8C77" cx="66.516" cy="19.165" r="3.546"/>
			</g>
		</g>
		<g clip-path="url(#SVGID_2_)">
			<g>
				<path fill="#414D4D" d="M67.315,24.325c-0.793,0-1.555-0.175-2.263-0.521c-0.253-0.124-0.358-0.429-0.234-0.683
					c0.123-0.253,0.43-0.357,0.683-0.235c0.567,0.277,1.177,0.418,1.814,0.418c2.283,0,4.141-1.856,4.141-4.141
					c0-2.283-1.857-4.142-4.141-4.142c-2.284,0-4.142,1.858-4.142,4.142c0,0.282-0.229,0.51-0.511,0.51s-0.511-0.228-0.511-0.51
					c0-2.848,2.315-5.162,5.163-5.162c2.847,0,5.162,2.314,5.162,5.162C72.478,22.01,70.162,24.325,67.315,24.325z"/>
			</g>
		</g>
		<g clip-path="url(#SVGID_2_)">
			<g>
				<path fill="#414D4D" d="M31.857,24.325c-2.847,0-5.163-2.315-5.163-5.161c0-2.848,2.316-5.162,5.163-5.162
					s5.162,2.314,5.162,5.162c0,0.282-0.229,0.51-0.511,0.51s-0.511-0.228-0.511-0.51c0-2.283-1.857-4.142-4.141-4.142
					c-2.284,0-4.142,1.858-4.142,4.142c0,2.284,1.857,4.141,4.142,4.141c0.636,0,1.247-0.141,1.813-0.418
					c0.254-0.122,0.559-0.018,0.683,0.235c0.124,0.254,0.019,0.559-0.234,0.683C33.411,24.15,32.65,24.325,31.857,24.325z"/>
			</g>
		</g>
		<g clip-path="url(#SVGID_2_)">
			<g>
				<polygon fill="#D7DADB" points="31.063,104.566 24.681,104.566 24.681,54.278 31.063,51.754 				"/>
			</g>
			<g>
				<path fill="#414D4D" d="M31.063,105.077h-6.383c-0.282,0-0.51-0.229-0.51-0.511V54.278c0-0.209,0.128-0.397,0.322-0.476
					l6.382-2.524c0.157-0.061,0.335-0.041,0.475,0.054c0.141,0.095,0.224,0.252,0.224,0.422v52.812
					C31.573,104.849,31.345,105.077,31.063,105.077z M25.191,104.058h5.361V52.505l-5.361,2.12V104.058z"/>
			</g>
		</g>
		<g clip-path="url(#SVGID_2_)">
			<g>
				<polygon fill="#647070" points="26.809,110.948 29.021,110.948 29.021,52.576 26.809,53.427 				"/>
			</g>
			<g>
				<path fill="#414D4D" d="M29.021,111.46h-2.212c-0.282,0-0.511-0.229-0.511-0.512V53.427c0-0.211,0.13-0.399,0.327-0.477
					l2.212-0.85c0.157-0.062,0.335-0.041,0.473,0.056c0.14,0.095,0.222,0.251,0.222,0.42v58.372
					C29.531,111.231,29.303,111.46,29.021,111.46z M27.319,110.438h1.19V53.319l-1.19,0.459V110.438z"/>
			</g>
		</g>
		<g clip-path="url(#SVGID_2_)">
			<g>
				<g>
					<path fill="#647070" d="M26.064,85.243c0,0.362,0.292,0.656,0.654,0.656h2.349c0.361,0,0.655-0.294,0.655-0.656v-2.785
						c0-0.361-0.294-0.654-0.655-0.654h-2.349c-0.362,0-0.654,0.293-0.654,0.654V85.243z"/>
				</g>
				<g>
					<path fill="#414D4D" d="M29.067,86.41h-2.349c-0.643,0-1.166-0.522-1.166-1.167v-2.785c0-0.642,0.523-1.166,1.166-1.166h2.349
						c0.644,0,1.166,0.524,1.166,1.166v2.785C30.233,85.888,29.711,86.41,29.067,86.41z M26.719,82.313
						c-0.079,0-0.145,0.066-0.145,0.145v2.785c0,0.081,0.065,0.146,0.145,0.146h2.349c0.08,0,0.145-0.064,0.145-0.146v-2.785
						c0-0.078-0.064-0.145-0.145-0.145H26.719z"/>
				</g>
			</g>
			<g>
				<g>
					<line fill="#8A9BAF" x1="27.894" y1="82.256" x2="27.894" y2="83.876"/>
				</g>
				<g>
					<path fill="#414D4D" d="M27.894,84.387c-0.282,0-0.511-0.229-0.511-0.511v-1.62c0-0.28,0.229-0.51,0.511-0.51
						c0.281,0,0.511,0.229,0.511,0.51v1.62C28.404,84.158,28.175,84.387,27.894,84.387z"/>
				</g>
			</g>
			<g>
				<g>
					<circle fill="#414D4D" cx="27.958" cy="80.528" r="0.34"/>
				</g>
			</g>
			<g>
				<g>
					<circle fill="#414D4D" cx="27.958" cy="87.335" r="0.34"/>
				</g>
			</g>
			<g>
				<g>
					<circle fill="#414D4D" cx="27.958" cy="89.208" r="0.34"/>
				</g>
			</g>
			<g>
				<g>
					<circle fill="#414D4D" cx="27.958" cy="78.359" r="0.34"/>
				</g>
			</g>
			<g>
				<g>
					<circle fill="#414D4D" cx="27.958" cy="76.189" r="0.34"/>
				</g>
			</g>
		</g>
		<g clip-path="url(#SVGID_2_)">
			<g>
				<polygon fill="#D7DADB" points="67.992,104.566 74.374,104.566 74.374,54.278 67.992,51.754 				"/>
			</g>
			<g>
				<path fill="#414D4D" d="M74.374,105.077h-6.382c-0.282,0-0.51-0.229-0.51-0.511V51.754c0-0.17,0.083-0.327,0.223-0.422
					c0.141-0.095,0.317-0.114,0.476-0.054l6.382,2.524c0.194,0.078,0.322,0.267,0.322,0.476v50.288
					C74.885,104.849,74.656,105.077,74.374,105.077z M68.503,104.058h5.361V54.625l-5.361-2.12V104.058z"/>
			</g>
		</g>
		<g clip-path="url(#SVGID_2_)">
			<g>
				<polygon fill="#647070" points="72.247,110.948 70.034,110.948 70.034,52.576 72.247,53.427 				"/>
			</g>
			<g>
				<path fill="#414D4D" d="M72.247,111.46h-2.213c-0.281,0-0.511-0.229-0.511-0.512V52.576c0-0.169,0.084-0.325,0.223-0.42
					c0.139-0.097,0.315-0.117,0.473-0.056l2.212,0.85c0.197,0.077,0.326,0.266,0.326,0.477v57.521
					C72.757,111.231,72.529,111.46,72.247,111.46z M70.545,110.438h1.191v-56.66l-1.191-0.459V110.438z"/>
			</g>
		</g>
		<g clip-path="url(#SVGID_2_)">
			<g>
				<g>
					<path fill="#647070" d="M72.991,85.243c0,0.362-0.294,0.656-0.655,0.656h-2.349c-0.361,0-0.654-0.294-0.654-0.656v-2.785
						c0-0.361,0.293-0.654,0.654-0.654h2.349c0.361,0,0.655,0.293,0.655,0.654V85.243z"/>
				</g>
				<g>
					<path fill="#414D4D" d="M72.336,86.41h-2.349c-0.643,0-1.165-0.522-1.165-1.167v-2.785c0-0.642,0.522-1.166,1.165-1.166h2.349
						c0.644,0,1.167,0.524,1.167,1.166v2.785C73.503,85.888,72.979,86.41,72.336,86.41z M69.987,82.313
						c-0.079,0-0.144,0.066-0.144,0.145v2.785c0,0.081,0.064,0.146,0.144,0.146h2.349c0.081,0,0.146-0.064,0.146-0.146v-2.785
						c0-0.078-0.064-0.145-0.146-0.145H69.987z"/>
				</g>
			</g>
			<g>
				<g>
					<line fill="#8A9BAF" x1="71.162" y1="82.256" x2="71.162" y2="83.876"/>
				</g>
				<g>
					<path fill="#414D4D" d="M71.162,84.387c-0.282,0-0.511-0.229-0.511-0.511v-1.62c0-0.28,0.229-0.51,0.511-0.51
						s0.511,0.229,0.511,0.51v1.62C71.673,84.158,71.444,84.387,71.162,84.387z"/>
				</g>
			</g>
			<g>
				<g>
					<circle fill="#414D4D" cx="71.098" cy="80.528" r="0.34"/>
				</g>
			</g>
			<g>
				<g>
					<circle fill="#414D4D" cx="71.098" cy="87.335" r="0.34"/>
				</g>
			</g>
			<g>
				<g>
					<circle fill="#414D4D" cx="71.098" cy="89.208" r="0.34"/>
				</g>
			</g>
			<g>
				<g>
					<circle fill="#414D4D" cx="71.098" cy="78.359" r="0.34"/>
				</g>
			</g>
			<g>
				<g>
					<circle fill="#414D4D" cx="71.098" cy="76.189" r="0.34"/>
				</g>
			</g>
		</g>
		<g clip-path="url(#SVGID_2_)">
			<g>
				<polyline fill="#DE5242" points="52.215,72.033 47.081,72.033 47.081,57.001 52.215,57.001 				"/>
			</g>
			<g>
				<path fill="#414D4D" d="M52.215,72.544h-5.134c-0.281,0-0.511-0.229-0.511-0.511V57.001c0-0.282,0.229-0.51,0.511-0.51h5.134
					c0.282,0,0.511,0.228,0.511,0.51c0,0.283-0.229,0.511-0.511,0.511h-4.623v14.012h4.623c0.282,0,0.511,0.229,0.511,0.51
					C52.726,72.315,52.497,72.544,52.215,72.544z"/>
			</g>
		</g>
		<g clip-path="url(#SVGID_2_)">
			<g>
				<path fill="#57A1D8" d="M49.693,57.046c0,0,3.082-1.189,6.24-5.35c3.158-4.162,3.01-4.051,3.716-5.053l1.948,0.998
					c0,0-0.574,9.329-6.036,14.233C55.562,61.875,51.438,57.565,49.693,57.046z"/>
			</g>
			<g>
				<path fill="#414D4D" d="M55.562,62.386c-0.134,0-0.268-0.054-0.368-0.158c-1.121-1.172-4.322-4.298-5.646-4.693
					c-0.21-0.062-0.355-0.25-0.364-0.47c-0.009-0.217,0.122-0.418,0.326-0.495c0.029-0.012,3-1.205,6.019-5.183
					c2.54-3.348,2.938-3.925,3.357-4.537c0.104-0.15,0.209-0.304,0.347-0.5c0.146-0.208,0.425-0.275,0.651-0.161l1.947,1
					c0.181,0.092,0.289,0.283,0.277,0.485c-0.007,0.098-0.157,2.42-0.988,5.384c-0.772,2.752-2.304,6.582-5.216,9.197
					C55.806,62.342,55.684,62.386,55.562,62.386z M50.834,57.044c1.642,1.026,3.857,3.212,4.745,4.115
					c4.37-4.26,5.319-11.584,5.48-13.219l-1.246-0.64c-0.029,0.044-0.059,0.085-0.087,0.127c-0.427,0.622-0.831,1.21-3.387,4.576
					C54.163,54.872,52.025,56.365,50.834,57.044z"/>
			</g>
		</g>
		<g clip-path="url(#SVGID_2_)">
			<g>
				<path fill="#57A1D8" d="M49.643,57.046c0,0-3.084-1.189-6.242-5.35c-3.157-4.162-3.009-4.051-3.715-5.053l-1.948,0.998
					c0,0,0.573,9.329,6.035,14.233C43.772,61.875,47.896,57.565,49.643,57.046z"/>
			</g>
			<g>
				<path fill="#414D4D" d="M43.771,62.386c-0.121,0-0.243-0.044-0.341-0.131c-2.912-2.615-4.443-6.445-5.215-9.197
					c-0.832-2.964-0.981-5.287-0.988-5.384c-0.013-0.202,0.097-0.394,0.276-0.485l1.949-1c0.227-0.114,0.504-0.047,0.65,0.161
					c0.138,0.196,0.243,0.35,0.347,0.501c0.421,0.612,0.817,1.189,3.357,4.536c3.035,3.999,5.988,5.171,6.018,5.183
					c0.205,0.077,0.336,0.278,0.327,0.495c-0.009,0.22-0.155,0.407-0.364,0.47c-1.326,0.396-4.526,3.521-5.647,4.693
					C44.041,62.332,43.906,62.386,43.771,62.386z M38.275,47.94c0.162,1.635,1.114,8.964,5.479,13.219
					c0.888-0.903,3.104-3.089,4.745-4.115c-1.191-0.679-3.328-2.172-5.506-5.04c-2.555-3.366-2.958-3.954-3.386-4.575
					c-0.028-0.042-0.058-0.084-0.087-0.128L38.275,47.94z"/>
			</g>
		</g>
		<g clip-path="url(#SVGID_2_)">
			<g>
				<circle fill="#414D4D" cx="49.648" cy="60.235" r="0.745"/>
			</g>
		</g>
		<g clip-path="url(#SVGID_2_)">
			<g>
				<circle fill="#414D4D" cx="49.648" cy="64.479" r="0.745"/>
			</g>
		</g>
		<g clip-path="url(#SVGID_2_)">
			<g>
				<circle fill="#414D4D" cx="49.648" cy="68.723" r="0.745"/>
			</g>
		</g>
	</g>
	<g>
		<g>
			<path fill="#242938" d="M50,96.8C24.194,96.8,3.2,75.805,3.2,50C3.2,24.193,24.194,3.2,50,3.2S96.8,24.193,96.8,50
				C96.8,75.805,75.806,96.8,50,96.8z M50,4.221C24.757,4.221,4.221,24.757,4.221,50S24.757,95.778,50,95.778
				c25.242,0,45.779-20.535,45.779-45.778S75.242,4.221,50,4.221z"/>
			<path fill="#232837" d="M50,96.974C24.099,96.974,3.026,75.901,3.026,50S24.099,3.026,50,3.026S96.974,24.099,96.974,50
				S75.901,96.974,50,96.974z M50,3.373C24.29,3.373,3.373,24.29,3.373,50S24.29,96.627,50,96.627S96.627,75.71,96.627,50
				S75.71,3.373,50,3.373z M50,95.952C24.662,95.952,4.048,75.338,4.048,50C4.048,24.661,24.662,4.047,50,4.047
				S95.952,24.661,95.952,50C95.952,75.338,75.338,95.952,50,95.952z M50,4.394C24.853,4.394,4.395,24.853,4.395,50
				c0,25.146,20.458,45.604,45.605,45.604S95.605,75.146,95.605,50C95.605,24.853,75.147,4.394,50,4.394z"/>
		</g>
	</g>
	<g>
		<g>
			<g>
				<path fill="#FFFFFF" d="M95.37,59.218L7.163,67.566c3.915,9.535,10.917,17.477,19.769,22.574l53.244-5.039
					C87.823,78.521,93.295,69.486,95.37,59.218z"/>
			</g>
			<g>
				<path fill="#243142" d="M26.816,90.663l-0.141-0.08c-8.966-5.164-16.062-13.27-19.985-22.822L6.43,67.123l89.577-8.479
					l-0.136,0.675c-2.043,10.109-7.499,19.402-15.361,26.169l-0.124,0.105L26.816,90.663z M7.903,68.01
					c3.865,9.019,10.638,16.667,19.142,21.606l52.921-5.008c7.451-6.458,12.673-15.243,14.762-24.817L7.903,68.01z"/>
			</g>
		</g>
	</g>
	<g>
		<g>
			<g>
				<path fill-rule="evenodd" clip-rule="evenodd" fill="#242938" d="M75.932,71.733c0.409-0.017,0.785-0.432,0.78-0.861
					c-0.005-0.466-0.396-0.921-0.786-0.912c-0.428,0.01-0.815,0.438-0.803,0.887C75.136,71.305,75.541,71.749,75.932,71.733z"/>
			</g>
		</g>
		<g>
			<g>
				<path fill-rule="evenodd" clip-rule="evenodd" fill="#242938" d="M82.647,74.702c-0.006-0.014-0.173,0.772-0.216,0.982
					c-0.162,0.775-0.34,1.404-0.718,2.105c-0.163,0.299-0.308,0.677-0.743,0.643c-0.425-0.036-0.528-0.41-0.651-0.736
					c-0.249-0.662-0.332-1.357-0.384-2.055c-0.011-0.146,0.031-0.302,0.077-0.445c0.399-1.229,0.755-2.47,0.992-3.745
					c0.363-1.956,0.479-3.92,0.164-5.895c-0.047-0.298-0.13-0.595-0.242-0.875c-0.155-0.386-0.475-0.604-0.887-0.613
					c-0.422-0.01-0.715,0.23-0.886,0.608c-0.094,0.206-0.175,0.423-0.234,0.641c-0.501,1.837-0.582,3.717-0.554,5.605
					c0.017,1.124,0.08,2.247,0.152,3.368c0.086,1.323-0.085,2.609-0.483,3.867c-0.08,0.257-0.208,0.51-0.363,0.728
					c-0.302,0.429-0.644,0.392-0.849-0.095c-0.116-0.274-0.202-0.578-0.228-0.875c-0.074-0.817-0.132-1.637-0.155-2.456
					c-0.021-0.743,0.013-1.488,0.02-2.231c0.002-0.183,0.026-0.373-0.022-0.543c-0.036-0.126-0.149-0.274-0.268-0.329
					c-0.317-0.149-0.822,0.142-0.849,0.493c-0.048,0.62-0.074,1.241-0.083,1.865c-0.024,1.21-0.212,2.391-0.673,3.516
					c-0.106,0.261-0.275,0.515-0.475,0.714c-0.283,0.286-0.561,0.233-0.724-0.135c-0.133-0.301-0.225-0.633-0.268-0.959
					c-0.008-0.063-0.016-0.126-0.022-0.19c-0.116-0.887-0.696-0.835-0.696-0.835c-0.652,0.062-0.656,0.874-0.656,0.909
					c-0.024,0.268-0.054,0.535-0.089,0.801c-0.029,0.225-0.075,0.453-0.161,0.66c-0.057,0.14-0.188,0.335-0.302,0.344
					c-0.2,0.019-0.302-0.914-0.327-1.186c-0.025-0.31-0.038-0.619-0.043-0.929c-0.001-0.133,0-0.266,0.003-0.396
					c0.012-0.475,0.055-0.95,0.146-1.414c0.049-0.248,0.112-0.492,0.181-0.736c0.067-0.247,0.296-1.021,0.419-1.066
					c0.132-0.049,0.243,0.076,0.28,0.188c0.006,0.016,0.011,0.054,0.013,0.11c0.006,0.499,0.004,0.984,0,1.507
					c-0.002,0.181-0.025,0.374,0.022,0.542c0.037,0.128,0.15,0.275,0.268,0.329c0.317,0.149,0.822-0.142,0.849-0.491
					c0.031-0.406,0.081-0.828,0.115-1.246c0.028-0.316,0.061-0.632,0.094-0.945c0.069-0.645-0.146-1.099-0.599-1.481
					c-0.479-0.401-0.925-0.429-1.387-0.003c-0.409,0.378-0.697,0.84-0.914,1.349c-0.793,1.856-0.969,3.788-0.65,5.768
					c0.081,0.507,0.238,1.007,0.575,1.423c0.618,0.762,1.483,0.662,1.88-0.234c0.14-0.316,0.358-1.102,0.377-1.156
					c0.036,0.043,0.452,0.743,0.689,0.99c0.462,0.482,1.131,0.441,1.556-0.066c0.165-0.196,0.307-0.418,0.418-0.649
					c0.134-0.271,0.402-0.968,0.437-1.027c0.02,0.053,0.09,0.277,0.105,0.338c0.15,0.547,0.353,1.071,0.757,1.489
					c0.472,0.484,1.102,0.513,1.571,0.028c0.227-0.234,0.481-0.61,0.611-0.907c0.319-0.726,0.47-1.673,0.487-1.722
					c0.025,0.038,0.176,0.336,0.22,0.447c0.219,0.545,0.523,1.026,0.988,1.398c0.641,0.513,1.279,0.49,1.801-0.151
					c0.312-0.384,0.684-1.195,0.684-1.195C84.027,75.23,82.764,74.783,82.647,74.702z M79.615,72.815
					c-0.11,0.051-0.084-1.945-0.071-2.507c0.022-0.971,0.053-1.383,0.124-2.35c0.016-0.202,0.052-0.924,0.095-1.123
					c0.021-0.101,0.058-0.589,0.294-0.506c0.119,0.04,0.151,0.315,0.162,0.428c0.012,0.113,0.054,1.035,0.049,1.332
					c-0.009,0.527-0.036,1.097-0.092,1.621C80.159,69.878,79.805,72.825,79.615,72.815z"/>
			</g>
		</g>
		<g>
			<g>
				<path fill-rule="evenodd" clip-rule="evenodd" fill="#242938" d="M68.847,66.862c0.192-0.047,0.382-0.104,0.574-0.145
					c0.901-0.19,1.773-0.55,2.72-0.497c0.227,0.013,0.454,0.034,0.68,0.059c0.156,0.019,0.336,0.04,0.391-0.135
					c0.039-0.127,0.029-0.309-0.034-0.423c-0.197-0.356-0.49-0.597-0.911-0.691c-0.65-0.149-1.312-0.137-1.947-0.033
					c-0.866,0.143-1.713,0.403-2.562,0.628c-1.202,0.317-2.919,1.026-4.17,1.18c-0.498,0.062-0.679,0.422-0.538,0.948
					c0.124,0.469,0.462,0.616,0.941,0.469c0.797-0.245,2.189-0.612,2.986-0.856c0.062-0.018,0.11-0.028,0.151-0.033l0.164,13.894
					h-0.002c-0.003,0.071,0.002,0.147,0.015,0.219c0.032,0.187,0.165,0.386,0.38,0.366c0.214-0.019,0.504-0.145,0.627-0.311
					c0.13-0.175,0.161-0.295,0.188-0.492l0.001-0.115l0.234-13.987C68.768,66.887,68.804,66.873,68.847,66.862z"/>
			</g>
		</g>
		<g>
			<g>
				<path fill-rule="evenodd" clip-rule="evenodd" fill="#242938" d="M55.776,77.035c-0.103,0.012-0.229,0.095-0.281,0.182
					c-0.046,0.079-0.057,0.201-0.076,0.289c-0.044,0.203-0.084,0.404-0.125,0.607c-0.117,0.577-0.51,2.03-0.57,2.186
					c-0.102,0.256-0.192,0.594-0.415,0.773c-0.091,0.072-0.226,0.106-0.34,0.088c-0.291-0.052-0.333-0.348-0.366-0.576
					c-0.235-1.6-0.369-3.207-0.13-4.814c0.066-0.448-0.069-0.767-0.314-1.086c-0.149-0.196-0.332-0.244-0.559-0.114
					c-0.238,0.136-0.479,0.267-0.727,0.383c-0.463,0.217-0.502,0.189-0.61-0.32c-0.046-0.222-0.093-0.45-0.314-0.582
					c-0.4-0.242-0.888-0.064-1.014,0.41c-0.081,0.303-0.086,0.629-0.115,0.946c-0.029,0.335,0.064,0.643,0.309,0.871
					c0.162,0.152,0.199,0.325,0.222,0.526c0.057,0.512,0.073,1.029,0.057,1.545c-0.017,0.49-0.06,0.979-0.132,1.462
					c-0.021,0.142-0.031,0.212-0.06,0.349c-0.049,0.249-0.119,0.653-0.396,1.058c-0.089,0.132-0.221,0.262-0.332,0.376
					c-0.173,0.171-0.411,0.313-0.66,0.334c-0.226,0.018-0.46-0.048-0.644-0.179c-0.111-0.08-0.223-0.186-0.304-0.297
					c-0.071-0.099-0.381-0.587-0.032-0.678c0.532-0.139,0.862-0.465,0.991-0.965c0.336-1.309,0.437-2.641,0.267-3.979
					c-0.099-0.779-0.664-1.345-1.377-1.452c-0.545-0.083-0.847,0.062-1.041,0.582c-0.165,0.438-0.302,0.895-0.393,1.354
					c-0.139,0.704-0.208,1.413-0.216,2.119c-0.096,0.355-0.364,0.811-0.638,1.063c-0.333,0.308-0.767,0.146-0.873-0.296
					c-0.039-0.161-0.045-0.332-0.051-0.499c-0.025-0.639-0.174-2.761-0.229-3.184c-0.029-0.226-0.083-0.45-0.16-0.663
					c-0.11-0.307-0.331-0.428-0.639-0.392c-0.309,0.034-0.431,0.145-0.469,0.513c-0.037,0.361-0.061,0.728-0.037,1.09
					c0.052,0.773,0.072,1.559,0.231,2.312c0.141,0.676,0.2,1.35,0.207,2.029c0.005,0.451-0.071,0.907-0.144,1.355
					c-0.039,0.239-0.142,0.513-0.421,0.535c-0.282,0.023-0.364-0.257-0.422-0.467c-0.13-0.482-0.271-0.97-0.322-1.464
					c-0.1-0.951-0.153-1.909-0.199-2.865c-0.028-0.589-0.014-1.183-0.002-1.772c0.004-0.204-0.049-0.366-0.231-0.456
					c-0.643-0.322-1.077,0.082-1.065,0.576c0.021,0.865-0.005,1.731-0.005,2.598c0,0.23-0.011,0.463-0.029,0.692
					c-0.018,0.233-0.048,0.462-0.09,0.691c-0.042,0.228-0.094,0.453-0.15,0.677c-0.057,0.225-0.117,0.449-0.196,0.668
					c-0.078,0.22-0.349,0.798-0.521,1.001c-0.116,0.138-0.268,0.317-0.467,0.306c-0.052-0.003-0.118-0.02-0.163-0.048v0.004
					c-0.08-0.051-0.151-0.141-0.209-0.269c-0.133-0.3-0.224-0.632-0.267-0.957c-0.009-0.065-0.016-0.129-0.022-0.191
					c-0.118-0.888-0.698-0.835-0.698-0.835c-0.652,0.062-0.655,0.873-0.654,0.91c-0.026,0.267-0.056,0.534-0.09,0.799
					c-0.029,0.225-0.075,0.454-0.161,0.663c-0.057,0.137-0.188,0.331-0.301,0.341c-0.202,0.021-0.302-0.914-0.328-1.187
					c-0.024-0.309-0.038-0.617-0.042-0.928c-0.001-0.132-0.001-0.265,0.002-0.397c0.013-0.473,0.055-0.948,0.146-1.413
					c0.048-0.248,0.113-0.493,0.179-0.736c0.068-0.247,0.297-1.021,0.42-1.067c0.131-0.047,0.243,0.077,0.281,0.19
					c0.005,0.016,0.009,0.054,0.013,0.108c0.005,0.501,0.003,0.986-0.002,1.508c-0.001,0.183-0.024,0.374,0.023,0.543
					c0.036,0.128,0.149,0.275,0.268,0.33c0.317,0.148,0.822-0.143,0.849-0.494c0.031-0.404,0.081-0.827,0.115-1.245
					c0.028-0.316,0.061-0.63,0.094-0.944c0.07-0.646-0.146-1.101-0.599-1.481c-0.478-0.402-0.924-0.431-1.386-0.004
					c-0.41,0.378-0.697,0.84-0.915,1.349c-0.52,1.217-0.772,2.465-0.797,3.739l-0.002-0.012c-0.066,0.41-0.225,1.066-0.41,1.448
					c-0.15,0.311-0.333,0.623-0.567,0.872c-0.478,0.508-1.214,0.432-1.619-0.13c-0.071-0.097-0.382-0.585-0.032-0.677
					c0.531-0.138,0.861-0.465,0.991-0.965c0.335-1.308,0.436-2.641,0.267-3.98c-0.099-0.778-0.666-1.344-1.377-1.451
					c-0.546-0.082-0.848,0.063-1.042,0.581c-0.165,0.439-0.302,0.896-0.393,1.355c-0.279,1.417-0.275,2.845-0.054,4.267
					c0.132,0.852,0.43,1.644,1.07,2.27c0.802,0.786,1.908,0.779,2.663-0.045c0.192-0.209,0.567-0.748,0.757-1.022
					c0.098,0.336,0.241,0.658,0.471,0.94c0.617,0.762,1.482,0.663,1.878-0.233c0.141-0.317,0.217-0.664,0.323-0.996
					c0.017-0.055,0.036-0.107,0.055-0.16c0.037,0.041,0.08,0.08,0.109,0.126c0.192,0.289,0.344,0.617,0.579,0.864
					c0.464,0.482,1.133,0.441,1.558-0.066l-0.001-0.009c0.007-0.007,0.015-0.015,0.021-0.023c0.196-0.245,0.353-0.531,0.485-0.818
					c0.127-0.274,0.196-0.574,0.298-0.86c0.038-0.11,0.088-0.216,0.133-0.321c0.043,0.111,0.096,0.223,0.128,0.339
					c0.137,0.506,0.33,0.99,0.704,1.364c0.185,0.184,0.432,0.347,0.681,0.423c0.541,0.171,1.104-0.136,1.389-0.761
					c0.168-0.369,0.279-0.771,0.373-1.168c0.076-0.323,0.086-0.662,0.135-0.993c0.016-0.109,0.013-0.259,0.212-0.206
					c0.542,0.145,0.986-0.012,1.339-0.447c0.061-0.075,0.118-0.08,0.16-0.049c0.015,0.119,0.029,0.236,0.048,0.355
					c0.133,0.854,0.431,1.644,1.07,2.271c0.803,0.785,2.047,0.747,2.758-0.097c0.376-0.445,0.672-0.921,0.877-1.476
					c0.096-0.254,0.184-0.51,0.248-0.774c0.119-0.486,0.165-0.989,0.215-1.485c0.052-0.51,0.089-1.02,0.091-1.532
					c0.001-0.274-0.007-0.548-0.031-0.821c-0.02-0.238,0.067-0.393,0.339-0.397c0.061-0.002,0.427-0.082,0.402,0.188
					c-0.128,1.494-0.004,2.979,0.198,4.456c0.061,0.441,0.22,0.893,0.435,1.283c0.408,0.742,1.156,0.841,1.812,0.306
					c0.342-0.277,0.564-0.638,0.731-1.032c0.61-1.44,0.688-4.148,0.626-4.265C55.969,77.123,55.85,77.028,55.776,77.035z
					 M31.878,81.167c-0.188-0.083-0.194-1.06-0.172-1.784c0.004-0.18,0.107-1.198,0.185-1.552c0.031-0.149,0.04-0.359,0.259-0.376
					c0.418-0.032,0.379,2.873,0.006,3.545C32.108,81.084,31.961,81.202,31.878,81.167z M47.445,79.67
					c-0.188-0.083-0.194-1.058-0.174-1.785c0.006-0.178,0.108-1.196,0.186-1.552c0.032-0.148,0.041-0.357,0.259-0.376
					c0.418-0.032,0.381,2.875,0.007,3.546C47.676,79.587,47.527,79.706,47.445,79.67z"/>
			</g>
		</g>
		<g>
			<g>
				<path fill-rule="evenodd" clip-rule="evenodd" fill="#242938" d="M29.279,74.069c0.171-0.436,0.224-0.923,0.157-1.45
					c-0.057-0.447-0.168-0.852-0.334-1.202c-0.181-0.385-0.402-0.721-0.659-0.998c-0.156-0.168-0.328-0.324-0.508-0.463
					c-0.773-0.594-1.733-0.875-2.703-0.793c-0.059,0.005-0.117,0.012-0.176,0.019c-1.031,0.135-1.948,0.663-2.582,1.489
					c-0.675,0.878-0.95,1.903-0.773,2.885c0.061,0.331,0.327,0.544,0.648,0.515c0.01-0.001,0.021-0.002,0.031-0.003
					c0.175-0.022,0.296-0.086,0.366-0.193c0.07-0.106,0.081-0.242,0.032-0.413c-0.077-0.266-0.165-0.995,0.65-2.056
					c0.438-0.57,1.071-0.935,1.783-1.028c0.041-0.004,0.082-0.009,0.123-0.013c0.669-0.056,1.33,0.137,1.864,0.548
					c0.857,0.659,1.18,1.901,0.749,2.892c-0.18,0.412-0.405,0.791-0.674,1.126c-0.266,0.334-0.567,0.623-0.892,0.858
					c-0.19,0.137-0.394,0.264-0.604,0.374c-0.059,0.03-0.188,0.098-0.259,0.117c-0.013-0.049-0.021-0.146-0.025-0.291
					c-0.019-0.57-0.065-2.332-0.066-2.366c0-0.02-0.038-1.678-0.09-1.789c-0.111-0.247-0.286-0.352-0.552-0.328
					c-0.027,0.002-0.057,0.005-0.088,0.01c-0.299,0.049-0.463,0.203-0.52,0.488l-0.002,0.015l-0.001,0.014l-0.03,2.608
					c0.008,0.398,0.014,0.753,0.013,1.088c0.001,0.316-0.002,0.633-0.005,0.95c-0.006,0.634-0.011,1.287,0.004,1.935
					c0.021,0.852,0.053,1.768,0.149,2.673l0.009,0.077c0.023,0.231,0.064,0.617,0.097,0.796c0.002,0.008,0.006,0.032,0.012,0.069
					c0.057,0.328,0.124,0.719,0.159,0.85c0.073,0.276,0.261,0.464,0.513,0.517c0.081,0.017,0.171,0.021,0.257,0.015
					c0.268-0.023,0.472-0.16,0.547-0.367c0.05-0.132,0.036-0.273,0.025-0.388l-0.003-0.026c-0.003-0.04-0.021-0.191-0.043-0.403
					c-0.067-0.613-0.19-1.757-0.217-2.141c-0.026-0.382-0.072-2.107-0.074-2.181c-0.001-0.026-0.003-0.054-0.005-0.084
					c-0.01-0.14-0.004-0.186,0.026-0.198c0.514-0.217,0.951-0.334,1.374-0.37c0.221-0.019,0.439-0.015,0.651,0.014
					c0.301,0.037,0.513,0.208,0.63,0.504c0.093,0.236,0.142,0.499,0.151,0.803c0.003,0.111,0.023,1.111-0.233,2.118
					c-0.002,0.005-0.004,0.012-0.006,0.018c-0.298,1.021-0.954,2.007-1.8,2.699c-0.139,0.115-0.287,0.223-0.439,0.323
					c-0.575,0.333-1.716,0.57-1.727,0.571c-0.164,0.03-0.33,0.053-0.489,0.066l-0.008,0.001c-0.008,0-0.017,0-0.024,0
					c-0.008,0.001-0.015,0.002-0.021,0.004h-0.012c-0.271,0.024-0.416,0.148-0.49,0.249c-0.121,0.162-0.153,0.391-0.095,0.661
					c0.068,0.317,0.308,0.523,0.642,0.551l0.004-0.047l0.001,0.048c0.012,0.001,0.173-0.004,0.191-0.005h0.003h0.005
					c0.005-0.001,0.287-0.029,0.4-0.038c1.026-0.089,2.052-0.531,2.965-1.278c1.066-0.875,1.865-2.053,2.25-3.317l0.005-0.016
					c0.303-0.935,0.386-1.925,0.246-2.937c-0.119-0.865-0.554-1.491-1.289-1.862c-0.236-0.119-0.585-0.236-0.898-0.292
					C28.424,75.591,28.961,74.882,29.279,74.069z"/>
			</g>
		</g>
		<g>
			<g>
				<path fill-rule="evenodd" clip-rule="evenodd" fill="#242938" d="M60.951,76.329c-0.232-0.625-0.433-1.046-0.473-1.716
					c-0.017-0.256-0.008-0.72-0.029-0.974c-0.032-0.382-0.35-0.624-0.8-0.638c-0.368-0.011-0.647,0.239-0.693,0.63
					c-0.021,0.164-0.052,2.609-0.194,3.659c-0.021,0.15-0.082,0.219-0.206,0.32c-0.212,0.174-0.345,0.281-0.378,0.569
					c-0.025,0.234,0.022,0.472,0.06,0.704c0.062,0.382,0.101,0.818,0.066,1.204c-0.003,0.033-0.006,0.067-0.01,0.102
					c0,0-0.01,0.067-0.023,0.181c-0.019,0.131-0.036,0.263-0.042,0.397c-0.069,0.775-0.112,2.041,0.371,1.889
					c0.278-0.087,0.45-0.511,0.562-1.027c0.04,0.06,0.076,0.109,0.102,0.137c0.366,0.408,0.791,0.704,1.382,0.638
					c0.681-0.099,1.133-0.492,1.34-1.133c0.216-0.673,0.24-1.272,0.016-2.05C61.714,78.237,61.311,77.29,60.951,76.329z
					 M60.892,80.647c-0.035,0.169-0.129,0.433-0.266,0.555c-0.161,0.146-0.488,0.019-0.629-0.108
					c-0.219-0.201-0.335-0.535-0.428-0.811c-0.157-0.458-0.212-0.907-0.067-1.407c0.196-0.678,0.273-1.389,0.404-2.085
					c0.009-0.052,0.037-0.099,0.058-0.146c0.032,0.047,0.395,0.775,0.504,1.104c0.083,0.249,0.138,0.506,0.209,0.76
					C60.866,79.183,61.041,79.941,60.892,80.647z"/>
			</g>
		</g>
		<g>
			<g>
				<path fill-rule="evenodd" clip-rule="evenodd" fill="#242938" d="M56.174,69.038c-0.246,0.048-0.443,0.226-0.464,0.534
					c-0.019,0.252,0.015,0.469,0.042,0.723c0.043,0.38,0.296,1.808,0.383,2.136c0.087,0.335,0.278,0.511,0.498,0.472
					c0.186-0.032,0.347-0.267,0.347-0.593c0-0.724-0.098-2.692-0.214-2.946C56.656,69.124,56.423,68.987,56.174,69.038z"/>
			</g>
		</g>
	</g>
</g>
</svg>
