<?xml version="1.0" encoding="utf-8"?>
<!-- Generator: Adobe Illustrator 16.0.0, SVG Export Plug-In . SVG Version: 6.00 Build 0)  -->
<!DOCTYPE svg PUBLIC "-//W3C//DTD SVG 1.1//EN" "http://www.w3.org/Graphics/SVG/1.1/DTD/svg11.dtd">
<svg version="1.1" id="Layer_1" xmlns="http://www.w3.org/2000/svg" xmlns:xlink="http://www.w3.org/1999/xlink" x="0px" y="0px"
	 width="170.164px" height="50.375px" viewBox="0 0 170.164 50.375" enable-background="new 0 0 170.164 50.375"
	 xml:space="preserve">
<g>
	<g>
		<path fill-rule="evenodd" clip-rule="evenodd" fill="#F16951" d="M146.706,20.534c1.086,0.039,2.167-0.986,2.242-2.128
			c0.083-1.237-0.866-2.525-1.905-2.579c-1.135-0.062-2.257,0.994-2.31,2.192C144.677,19.239,145.663,20.499,146.706,20.534z"/>
	</g>
	<g>
		<path fill-rule="evenodd" clip-rule="evenodd" fill="#F16951" d="M163.934,29.761c-0.013-0.039-0.615,2.016-0.77,2.565
			c-0.589,2.025-1.185,3.66-2.327,5.444c-0.494,0.764-0.953,1.736-2.103,1.555c-1.12-0.178-1.316-1.191-1.576-2.083
			c-0.535-1.806-0.614-3.668-0.61-5.531c0-0.387,0.143-0.792,0.291-1.167c1.306-3.18,2.501-6.404,3.384-9.739
			c1.359-5.121,2.06-10.311,1.622-15.613c-0.067-0.8-0.23-1.604-0.469-2.371c-0.336-1.057-1.139-1.701-2.231-1.807
			c-1.117-0.11-1.947,0.466-2.474,1.437c-0.29,0.529-0.55,1.087-0.748,1.655c-1.7,4.775-2.293,9.748-2.595,14.767
			c-0.181,2.985-0.239,5.98-0.272,8.97c-0.035,3.527-0.747,6.908-2.057,10.167c-0.267,0.666-0.652,1.312-1.111,1.859
			c-0.886,1.075-1.784,0.908-2.229-0.42c-0.259-0.755-0.426-1.575-0.436-2.369c-0.029-2.184-0.021-4.372,0.082-6.55
			c0.096-1.978,0.335-3.949,0.499-5.92c0.044-0.484,0.144-0.985,0.05-1.445c-0.071-0.343-0.341-0.758-0.642-0.929
			c-0.816-0.46-2.214,0.213-2.355,1.138c-0.247,1.636-0.44,3.28-0.597,4.936c-0.302,3.206-1.039,6.304-2.487,9.199
			c-0.333,0.668-0.837,1.309-1.402,1.799c-0.808,0.703-1.535,0.507-1.895-0.504c-0.29-0.824-0.468-1.725-0.517-2.597
			c-0.008-0.174-0.016-0.341-0.024-0.514c-0.13-2.374-1.679-2.354-1.679-2.354c-1.744,0.035-1.916,2.188-1.924,2.282
			c-0.12,0.702-0.249,1.411-0.398,2.106c-0.119,0.59-0.287,1.188-0.557,1.721c-0.184,0.358-0.571,0.849-0.871,0.849
			c-0.538,0.014-0.617-2.484-0.634-3.211c0-0.828,0.026-1.65,0.078-2.473c0.02-0.354,0.05-0.708,0.086-1.055
			c0.127-1.256,0.331-2.509,0.667-3.724c0.178-0.646,0.397-1.282,0.626-1.915c0.23-0.642,0.995-2.653,1.33-2.748
			c0.357-0.103,0.629,0.251,0.704,0.557c0.012,0.042,0.016,0.145,0.009,0.296c-0.082,1.326-0.187,2.612-0.301,4
			c-0.037,0.479-0.143,0.986-0.049,1.443c0.072,0.349,0.343,0.762,0.644,0.927c0.813,0.461,2.214-0.213,2.355-1.132
			c0.158-1.078,0.377-2.186,0.554-3.289c0.136-0.833,0.285-1.662,0.441-2.487c0.308-1.698-0.172-2.947-1.296-4.054
			c-1.189-1.162-2.367-1.323-3.679-0.287c-1.163,0.922-2.02,2.09-2.697,3.398c-2.479,4.768-3.335,9.86-2.886,15.175
			c0.115,1.363,0.434,2.724,1.243,3.896c1.49,2.146,3.807,2.056,5.037-0.245c0.434-0.809,1.171-2.852,1.232-2.991
			c0.086,0.119,1.054,2.062,1.633,2.765c1.13,1.372,2.915,1.397,4.143,0.135c0.476-0.489,0.899-1.048,1.239-1.641
			c0.41-0.691,1.26-2.489,1.362-2.638c0.045,0.147,0.186,0.757,0.216,0.917c0.289,1.483,0.721,2.914,1.708,4.105
			c1.156,1.38,2.82,1.581,4.163,0.391c0.65-0.577,1.402-1.525,1.811-2.285c0.99-1.862,1.579-4.346,1.636-4.473
			c0.06,0.105,0.398,0.928,0.497,1.23c0.469,1.49,1.181,2.829,2.339,3.912c1.597,1.488,3.296,1.557,4.812-0.041
			c0.903-0.956,2.051-3.039,2.051-3.039C167.491,31.44,164.227,30.002,163.934,29.761z M156.265,24.146
			c-0.304,0.113,0.165-5.179,0.311-6.669c0.257-2.57,0.42-3.658,0.803-6.213c0.081-0.534,0.319-2.44,0.475-2.959
			c0.075-0.263,0.271-1.552,0.882-1.284c0.308,0.13,0.339,0.867,0.346,1.169c0.008,0.303-0.065,2.755-0.134,3.543
			c-0.132,1.397-0.322,2.905-0.571,4.284C158.297,16.458,156.764,24.21,156.265,24.146z"/>
	</g>
	<g>
		<path fill-rule="evenodd" clip-rule="evenodd" fill="#F16951" d="M128.877,6.184c0.518-0.084,1.031-0.198,1.551-0.267
			c2.433-0.327,4.816-1.104,7.315-0.772c0.601,0.076,1.201,0.179,1.791,0.291c0.415,0.08,0.891,0.172,1.067-0.282
			c0.13-0.328,0.139-0.812-0.004-1.126c-0.45-0.988-1.185-1.685-2.28-2.021c-1.693-0.525-3.455-0.626-5.165-0.477
			c-2.324,0.204-4.628,0.728-6.927,1.151c-3.253,0.603-7.956,2.14-11.308,2.296c-1.33,0.062-1.884,0.985-1.617,2.411
			c0.237,1.269,1.102,1.727,2.408,1.432c2.165-0.491,5.933-1.185,8.097-1.672c0.168-0.036,0.301-0.055,0.413-0.06l-2.356,36.91
			h-0.005c-0.02,0.188-0.025,0.392-0.004,0.584c0.048,0.503,0.359,1.056,0.933,1.046c0.575-0.004,1.371-0.282,1.729-0.695
			c0.382-0.437,0.486-0.75,0.596-1.271l0.03-0.304l3.426-37.081C128.658,6.234,128.755,6.205,128.877,6.184z"/>
	</g>
	<g>
		<path fill-rule="evenodd" clip-rule="evenodd" fill="#F16951" d="M92.14,30.568c-0.271,0.011-0.624,0.203-0.781,0.423
			c-0.138,0.205-0.195,0.526-0.26,0.755c-0.159,0.526-0.305,1.058-0.457,1.585c-0.425,1.51-1.757,5.288-1.95,5.686
			c-0.324,0.66-0.632,1.539-1.261,1.971c-0.249,0.176-0.617,0.24-0.917,0.163c-0.759-0.195-0.811-0.988-0.854-1.599
			c-0.306-4.293-0.337-8.586,0.62-12.805c0.267-1.179-0.032-2.05-0.615-2.945c-0.357-0.553-0.834-0.718-1.464-0.419
			c-0.657,0.315-1.32,0.615-2.002,0.872c-1.271,0.483-1.37,0.4-1.56-0.972c-0.074-0.6-0.155-1.215-0.715-1.61
			c-1.015-0.72-2.342-0.349-2.77,0.885c-0.28,0.789-0.357,1.655-0.499,2.491c-0.146,0.882,0.043,1.718,0.647,2.373
			c0.399,0.437,0.461,0.9,0.481,1.441c0.048,1.37-0.012,2.745-0.161,4.11c-0.141,1.299-0.355,2.59-0.642,3.855
			c-0.084,0.371-0.125,0.558-0.228,0.916c-0.179,0.646-0.447,1.707-1.262,2.729c-0.262,0.33-0.638,0.647-0.959,0.93
			c-0.494,0.419-1.154,0.749-1.819,0.753c-0.602,0.002-1.212-0.218-1.671-0.604c-0.281-0.235-0.556-0.539-0.746-0.849
			c-0.171-0.276-0.895-1.633,0.05-1.805c1.439-0.26,2.381-1.062,2.825-2.364c1.155-3.405,1.687-6.919,1.505-10.509
			c-0.107-2.089-1.496-3.704-3.361-4.13c-1.432-0.331-2.262-0.004-2.882,1.334c-0.525,1.134-0.982,2.315-1.314,3.516
			c-0.51,1.846-0.834,3.711-0.995,5.584c-0.329,0.925-1.131,2.076-1.909,2.695c-0.942,0.75-2.063,0.235-2.257-0.96
			c-0.069-0.438-0.05-0.891-0.032-1.336c0.06-1.697,0.09-7.359,0.026-8.496c-0.031-0.603-0.131-1.211-0.292-1.792
			c-0.232-0.836-0.789-1.202-1.618-1.168c-0.828,0.028-1.17,0.297-1.345,1.268c-0.169,0.951-0.31,1.919-0.32,2.885
			c-0.016,2.064-0.118,4.151,0.15,6.182c0.24,1.819,0.261,3.622,0.143,5.428c-0.075,1.199-0.366,2.394-0.65,3.572
			c-0.152,0.624-0.479,1.33-1.225,1.335c-0.753,0.004-0.917-0.759-1.025-1.328c-0.248-1.304-0.527-2.625-0.563-3.945
			c-0.072-2.547-0.022-5.102,0.048-7.646c0.042-1.573,0.199-3.143,0.347-4.706c0.055-0.542-0.054-0.981-0.519-1.258
			c-1.641-0.984-2.878,0.002-2.945,1.317c-0.122,2.298-0.362,4.59-0.533,6.89c-0.046,0.613-0.123,1.229-0.217,1.836
			c-0.094,0.614-0.22,1.218-0.376,1.817c-0.159,0.596-0.344,1.183-0.539,1.767c-0.192,0.583-0.403,1.163-0.652,1.733
			c-0.253,0.566-1.086,2.047-1.587,2.551c-0.336,0.346-0.771,0.79-1.296,0.72c-0.141-0.021-0.314-0.079-0.429-0.16v0.01
			c-0.201-0.151-0.371-0.406-0.5-0.751c-0.292-0.828-0.467-1.728-0.515-2.6c-0.011-0.173-0.016-0.345-0.021-0.513
			c-0.133-2.379-1.687-2.356-1.687-2.356c-1.742,0.036-1.914,2.188-1.918,2.286c-0.123,0.701-0.254,1.407-0.398,2.101
			c-0.122,0.594-0.29,1.192-0.557,1.729c-0.184,0.354-0.568,0.84-0.873,0.844c-0.537,0.018-0.616-2.486-0.628-3.214
			c-0.002-0.821,0.021-1.646,0.071-2.47c0.023-0.35,0.051-0.7,0.086-1.056c0.126-1.249,0.335-2.504,0.673-3.724
			c0.175-0.646,0.395-1.283,0.62-1.917c0.232-0.639,0.992-2.65,1.331-2.746c0.354-0.1,0.626,0.252,0.706,0.555
			c0.011,0.046,0.013,0.147,0.011,0.294c-0.084,1.331-0.189,2.619-0.306,4.002c-0.039,0.485-0.139,0.991-0.046,1.447
			c0.072,0.348,0.342,0.761,0.647,0.927c0.811,0.46,2.209-0.21,2.349-1.136c0.164-1.068,0.381-2.182,0.557-3.283
			c0.136-0.834,0.287-1.659,0.438-2.49c0.312-1.695-0.169-2.948-1.293-4.053c-1.187-1.163-2.367-1.326-3.678-0.286
			c-1.162,0.923-2.02,2.091-2.697,3.393c-1.624,3.129-2.546,6.391-2.868,9.768l0-0.029c-0.259,1.072-0.81,2.782-1.379,3.763
			c-0.461,0.79-1.013,1.588-1.683,2.199c-1.368,1.253-3.307,0.903-4.27-0.669c-0.17-0.272-0.899-1.627,0.049-1.805
			c1.434-0.258,2.379-1.061,2.822-2.362c1.153-3.4,1.688-6.923,1.506-10.512c-0.104-2.086-1.495-3.698-3.361-4.128
			c-1.432-0.327-2.262-0.002-2.883,1.335c-0.526,1.134-0.98,2.318-1.314,3.519c-1.027,3.704-1.302,7.497-1,11.312
			c0.18,2.289,0.814,4.45,2.386,6.241c1.974,2.25,4.908,2.451,7.08,0.415c0.549-0.516,1.655-1.874,2.216-2.562
			c0.188,0.915,0.504,1.796,1.06,2.59c1.486,2.147,3.802,2.058,5.031-0.24c0.436-0.816,0.709-1.723,1.054-2.581
			c0.061-0.141,0.12-0.278,0.183-0.414c0.089,0.117,0.192,0.228,0.265,0.359c0.451,0.804,0.789,1.703,1.364,2.405
			c1.131,1.377,2.917,1.399,4.147,0.138l-0.001-0.024c0.021-0.015,0.041-0.036,0.062-0.054c0.568-0.614,1.041-1.344,1.448-2.079
			c0.395-0.702,0.641-1.483,0.964-2.22c0.125-0.289,0.277-0.562,0.415-0.831c0.093,0.305,0.21,0.613,0.273,0.927
			c0.26,1.371,0.68,2.695,1.595,3.76c0.454,0.528,1.078,1.009,1.722,1.264c1.401,0.561,2.96-0.14,3.84-1.742
			c0.52-0.945,0.896-1.993,1.224-3.028c0.268-0.843,0.361-1.738,0.556-2.604c0.067-0.29,0.085-0.689,0.605-0.507
			c1.409,0.49,2.619,0.167,3.64-0.92c0.18-0.187,0.334-0.187,0.436-0.096c0.019,0.318,0.034,0.633,0.059,0.954
			c0.182,2.288,0.816,4.447,2.386,6.242c1.974,2.246,5.286,2.393,7.339,0.299c1.087-1.11,1.966-2.31,2.625-3.743
			c0.304-0.654,0.588-1.314,0.812-2.008c0.417-1.267,0.637-2.59,0.869-3.899c0.238-1.34,0.438-2.689,0.549-4.049
			c0.06-0.729,0.091-1.455,0.083-2.186c-0.005-0.636,0.258-1.027,0.979-0.985c0.161,0.005,1.146-0.132,1.029,0.579
			c-0.641,3.938-0.605,7.904-0.365,11.867c0.071,1.182,0.4,2.413,0.896,3.49c0.933,2.052,2.901,2.469,4.748,1.176
			c0.957-0.668,1.621-1.579,2.143-2.592c1.915-3.702,2.664-10.877,2.52-11.196C92.632,30.839,92.338,30.562,92.14,30.568z
			 M27.879,36.741c-0.484-0.259-0.302-2.852-0.102-4.77c0.05-0.475,0.529-3.158,0.804-4.081c0.114-0.39,0.181-0.946,0.765-0.944
			c1.116-0.004,0.431,7.701-0.696,9.406C28.508,36.569,28.091,36.852,27.879,36.741z M69.5,35.891
			c-0.485-0.259-0.304-2.849-0.103-4.776c0.05-0.471,0.528-3.15,0.803-4.08c0.117-0.387,0.178-0.938,0.764-0.942
			c1.114-0.005,0.431,7.706-0.695,9.409C70.127,35.717,69.71,36.003,69.5,35.891z"/>
	</g>
	<g>
		<path fill-rule="evenodd" clip-rule="evenodd" fill="#F16951" d="M22.402,17.382c0.541-1.121,0.781-2.405,0.709-3.819
			c-0.057-1.198-0.275-2.293-0.644-3.257c-0.403-1.06-0.926-1.994-1.55-2.782c-0.381-0.477-0.805-0.926-1.256-1.33
			c-1.934-1.732-4.427-2.668-7.014-2.645c-0.159,0-0.315,0.007-0.473,0.012C9.412,3.713,6.869,4.932,5.023,6.995
			C3.054,9.192,2.122,11.856,2.392,14.5c0.094,0.891,0.759,1.507,1.617,1.496c0.026-0.001,0.056-0.001,0.085-0.003
			c0.466-0.024,0.804-0.168,1.013-0.438c0.208-0.271,0.261-0.627,0.166-1.091c-0.149-0.719-0.238-2.676,2.138-5.326
			c1.277-1.426,3.033-2.266,4.942-2.374c0.108-0.001,0.218-0.006,0.327-0.008c1.788-0.014,3.504,0.631,4.84,1.829
			c2.143,1.921,2.751,5.283,1.408,7.823c-0.56,1.059-1.235,2.021-2.015,2.856c-0.772,0.832-1.627,1.541-2.541,2.099
			c-0.531,0.323-1.094,0.619-1.678,0.871c-0.163,0.071-0.518,0.222-0.71,0.261c-0.026-0.133-0.025-0.396-0.01-0.78
			c0.067-1.517,0.294-6.201,0.299-6.293c0.002-0.051,0.234-4.463,0.121-4.765c-0.246-0.678-0.692-0.993-1.398-0.981
			c-0.076-0.002-0.153,0.002-0.238,0.008c-0.801,0.069-1.269,0.446-1.476,1.19l-0.01,0.039l-0.003,0.036l-0.605,6.918
			c-0.058,1.06-0.114,2.003-0.183,2.89c-0.063,0.839-0.133,1.679-0.207,2.521c-0.137,1.682-0.285,3.417-0.372,5.137
			c-0.117,2.266-0.217,4.702-0.142,7.125l0.006,0.205c0.021,0.618,0.05,1.652,0.099,2.131c0.003,0.021,0.011,0.089,0.018,0.188
			c0.082,0.882,0.184,1.93,0.253,2.288c0.135,0.748,0.594,1.28,1.256,1.475c0.211,0.059,0.446,0.091,0.677,0.091
			c0.714-0.01,1.285-0.335,1.527-0.866c0.156-0.341,0.148-0.722,0.143-1.025l0-0.068c-0.001-0.11-0.016-0.514-0.036-1.081
			c-0.054-1.646-0.154-4.703-0.146-5.727c0.008-1.017,0.234-5.607,0.241-5.803c0.005-0.07,0.003-0.146,0.003-0.223
			c0.001-0.373,0.028-0.497,0.111-0.521c1.407-0.472,2.592-0.698,3.719-0.707c0.592-0.003,1.174,0.048,1.73,0.166
			c0.787,0.159,1.318,0.654,1.57,1.466c0.199,0.646,0.277,1.354,0.241,2.161c-0.016,0.295-0.163,2.952-1.046,5.574
			c-0.007,0.015-0.013,0.031-0.017,0.047c-0.998,2.646-2.939,5.134-5.318,6.801c-0.394,0.279-0.809,0.533-1.233,0.771
			c-1.593,0.772-4.667,1.17-4.698,1.17c-0.44,0.047-0.888,0.078-1.311,0.082H5.53c-0.022-0.003-0.045-0.004-0.067-0.004
			c-0.019,0-0.038,0-0.059,0.004L5.372,44.13c-0.72,0.013-1.13,0.312-1.35,0.562c-0.35,0.409-0.481,1.006-0.384,1.738
			c0.12,0.854,0.713,1.446,1.593,1.588l0.021-0.122l-0.007,0.126c0.034,0.006,0.458,0.024,0.507,0.028h0.01l0.012,0.003
			c0.014-0.007,0.766-0.022,1.071-0.027c2.741-0.029,5.553-0.994,8.129-2.796c3.005-2.109,5.361-5.074,6.635-8.354l0.017-0.043
			c0.991-2.419,1.41-5.03,1.24-7.744c-0.139-2.32-1.169-4.068-3.045-5.199c-0.601-0.363-1.508-0.746-2.326-0.958
			C19.83,21.249,21.395,19.474,22.402,17.382z"/>
	</g>
	<g>
		<path fill-rule="evenodd" clip-rule="evenodd" fill="#F16951" d="M106.017,29.73c-0.492-1.706-0.937-2.861-0.91-4.65
			c0.012-0.681,0.125-1.911,0.118-2.59c-0.007-1.019-0.8-1.726-1.993-1.853c-0.977-0.101-1.768,0.506-1.97,1.534
			c-0.086,0.43-0.66,6.915-1.247,9.674c-0.087,0.394-0.265,0.562-0.613,0.807c-0.596,0.418-0.972,0.679-1.113,1.439
			c-0.118,0.613-0.039,1.255,0.013,1.878c0.09,1.024,0.104,2.193-0.063,3.207c-0.013,0.091-0.031,0.178-0.049,0.272
			c0,0-0.038,0.175-0.093,0.473c-0.08,0.34-0.149,0.691-0.194,1.047c-0.341,2.044-0.71,5.396,0.605,5.088
			c0.761-0.176,1.296-1.267,1.693-2.618c0.098,0.169,0.181,0.309,0.244,0.383c0.893,1.16,1.96,2.031,3.542,1.972
			c1.823-0.124,3.105-1.08,3.782-2.737c0.709-1.742,0.893-3.326,0.455-5.439C107.662,34.947,106.778,32.351,106.017,29.73z
			 M104.994,41.182c-0.127,0.442-0.429,1.123-0.812,1.416c-0.465,0.358-1.306-0.048-1.649-0.412
			c-0.541-0.578-0.784-1.487-0.977-2.235c-0.325-1.249-0.377-2.453,0.102-3.75c0.657-1.758,1.01-3.631,1.494-5.454
			c0.036-0.131,0.121-0.252,0.181-0.379c0.077,0.131,0.895,2.142,1.119,3.04c0.169,0.675,0.265,1.365,0.404,2.056
			C105.22,37.289,105.534,39.339,104.994,41.182z"/>
	</g>
	<g>
		<path fill-rule="evenodd" clip-rule="evenodd" fill="#F16951" d="M94.797,9.419c-0.66,0.08-1.218,0.511-1.337,1.324
			c-0.096,0.667-0.055,1.25-0.033,1.927c0.04,1.019,0.426,4.857,0.589,5.747c0.164,0.907,0.637,1.414,1.226,1.353
			c0.504-0.05,0.972-0.639,1.037-1.505c0.146-1.92,0.284-7.167,0.025-7.863C96.064,9.743,95.468,9.334,94.797,9.419z"/>
	</g>
</g>
</svg>
