<?xml version="1.0" encoding="utf-8"?>
<!-- Generator: Adobe Illustrator 16.0.0, SVG Export Plug-In . SVG Version: 6.00 Build 0)  -->
<!DOCTYPE svg PUBLIC "-//W3C//DTD SVG 1.1//EN" "http://www.w3.org/Graphics/SVG/1.1/DTD/svg11.dtd">
<svg version="1.1" id="Layer_1" xmlns="http://www.w3.org/2000/svg" xmlns:xlink="http://www.w3.org/1999/xlink" x="0px" y="0px"
	 width="170.164px" height="50.375px" viewBox="0 0 170.164 50.375" enable-background="new 0 0 170.164 50.375"
	 xml:space="preserve">
<g>
	<g>
		<path fill="#F16951" d="M129.525,21.626c0.788,0.029,1.573-0.716,1.628-1.545c0.061-0.899-0.629-1.834-1.384-1.874
			c-0.824-0.045-1.639,0.722-1.678,1.592C128.051,20.686,128.768,21.601,129.525,21.626z"/>
	</g>
	<g>
		<path fill="#F16951" d="M142.038,28.328c-0.009-0.027-0.446,1.465-0.559,1.864c-0.428,1.471-0.861,2.658-1.69,3.953
			c-0.358,0.556-0.692,1.262-1.527,1.13c-0.813-0.129-0.956-0.865-1.145-1.513c-0.389-1.312-0.446-2.664-0.443-4.018
			c0-0.281,0.104-0.575,0.211-0.848c0.949-2.31,1.817-4.651,2.458-7.074c0.987-3.72,1.497-7.49,1.179-11.341
			c-0.049-0.581-0.167-1.165-0.341-1.722c-0.244-0.768-0.828-1.235-1.621-1.312c-0.812-0.08-1.413,0.338-1.797,1.044
			c-0.21,0.384-0.399,0.79-0.543,1.202c-1.235,3.468-1.665,7.081-1.885,10.726c-0.132,2.168-0.174,4.344-0.197,6.516
			c-0.025,2.562-0.543,5.018-1.494,7.385c-0.194,0.483-0.474,0.953-0.807,1.351c-0.645,0.78-1.297,0.66-1.619-0.305
			c-0.188-0.55-0.311-1.145-0.317-1.721c-0.021-1.587-0.015-3.176,0.06-4.759c0.069-1.437,0.244-2.868,0.363-4.3
			c0.031-0.351,0.104-0.715,0.035-1.049c-0.051-0.249-0.247-0.55-0.466-0.675c-0.593-0.334-1.608,0.155-1.71,0.827
			c-0.181,1.188-0.32,2.383-0.435,3.586c-0.219,2.328-0.755,4.578-1.806,6.681c-0.243,0.485-0.609,0.951-1.019,1.308
			c-0.588,0.511-1.115,0.367-1.377-0.366c-0.211-0.599-0.34-1.253-0.375-1.887c-0.006-0.126-0.012-0.247-0.018-0.373
			c-0.095-1.725-1.22-1.71-1.22-1.71c-1.268,0.025-1.392,1.59-1.397,1.657c-0.088,0.511-0.181,1.025-0.29,1.529
			c-0.086,0.429-0.208,0.863-0.404,1.251c-0.133,0.261-0.414,0.616-0.633,0.616c-0.391,0.01-0.448-1.805-0.46-2.332
			c0-0.602,0.02-1.199,0.057-1.796c0.015-0.258,0.036-0.516,0.062-0.767c0.093-0.913,0.24-1.823,0.484-2.705
			c0.129-0.47,0.288-0.932,0.455-1.392c0.167-0.466,0.723-1.926,0.966-1.996c0.259-0.075,0.457,0.182,0.512,0.405
			c0.009,0.03,0.011,0.105,0.006,0.214c-0.06,0.963-0.135,1.898-0.219,2.906c-0.026,0.348-0.104,0.716-0.035,1.048
			c0.052,0.254,0.249,0.554,0.468,0.674c0.59,0.335,1.608-0.154,1.711-0.822c0.115-0.783,0.273-1.588,0.402-2.39
			c0.099-0.604,0.206-1.207,0.319-1.806c0.225-1.233-0.124-2.141-0.94-2.945c-0.863-0.844-1.719-0.961-2.673-0.208
			c-0.845,0.669-1.467,1.518-1.959,2.468c-1.8,3.463-2.422,7.162-2.096,11.022c0.083,0.99,0.315,1.979,0.902,2.831
			c1.083,1.558,2.766,1.493,3.659-0.179c0.314-0.587,0.851-2.071,0.896-2.173c0.062,0.087,0.765,1.498,1.186,2.009
			c0.82,0.997,2.117,1.015,3.009,0.098c0.347-0.354,0.653-0.761,0.899-1.191c0.298-0.502,0.916-1.808,0.99-1.916
			c0.033,0.107,0.135,0.55,0.156,0.666c0.21,1.077,0.524,2.116,1.241,2.982c0.84,1.001,2.048,1.147,3.023,0.283
			c0.473-0.419,1.019-1.107,1.316-1.66c0.718-1.352,1.146-3.156,1.188-3.248c0.044,0.075,0.29,0.674,0.361,0.893
			c0.341,1.083,0.857,2.055,1.699,2.842c1.16,1.081,2.395,1.132,3.495-0.03c0.655-0.694,1.489-2.207,1.489-2.207
			C144.623,29.548,142.251,28.504,142.038,28.328z M136.469,24.25c-0.222,0.082,0.119-3.762,0.226-4.844
			c0.187-1.867,0.305-2.657,0.583-4.513c0.059-0.388,0.232-1.772,0.345-2.149c0.056-0.191,0.197-1.128,0.642-0.933
			c0.224,0.094,0.246,0.63,0.251,0.849c0.006,0.22-0.047,2.001-0.098,2.574c-0.096,1.015-0.233,2.11-0.415,3.112
			C137.944,18.666,136.83,24.297,136.469,24.25z"/>
	</g>
	<g>
		<path fill="#F16951" d="M116.574,11.203c0.376-0.061,0.749-0.144,1.127-0.194c1.768-0.238,3.498-0.802,5.313-0.561
			c0.437,0.056,0.872,0.13,1.301,0.211c0.302,0.059,0.647,0.125,0.775-0.205c0.094-0.238,0.101-0.59-0.003-0.818
			c-0.327-0.718-0.861-1.224-1.657-1.468c-1.229-0.381-2.51-0.455-3.751-0.347c-1.688,0.148-3.362,0.529-5.032,0.836
			c-2.361,0.438-5.777,1.554-8.213,1.668c-0.966,0.045-1.368,0.715-1.175,1.751c0.173,0.922,0.801,1.255,1.749,1.04
			c1.573-0.356,4.31-0.861,5.882-1.214c0.121-0.026,0.218-0.04,0.3-0.043l-1.712,26.81h-0.003c-0.015,0.137-0.019,0.285-0.003,0.424
			c0.034,0.366,0.261,0.768,0.678,0.76c0.418-0.002,0.996-0.204,1.256-0.504c0.277-0.317,0.353-0.545,0.433-0.924l0.021-0.221
			l2.488-26.935C116.416,11.239,116.486,11.218,116.574,11.203z"/>
	</g>
	<g>
		<path fill="#F16951" d="M89.891,28.915c-0.197,0.008-0.454,0.147-0.567,0.308c-0.101,0.147-0.143,0.382-0.188,0.548
			c-0.117,0.382-0.223,0.77-0.332,1.151c-0.31,1.097-1.277,3.841-1.418,4.131c-0.234,0.479-0.458,1.117-0.915,1.431
			c-0.182,0.128-0.448,0.175-0.666,0.118c-0.552-0.142-0.589-0.717-0.621-1.161c-0.222-3.118-0.245-6.236,0.45-9.301
			c0.194-0.856-0.022-1.489-0.446-2.14c-0.259-0.401-0.606-0.521-1.063-0.304c-0.478,0.229-0.959,0.447-1.454,0.633
			c-0.923,0.351-0.995,0.291-1.133-0.706c-0.054-0.436-0.113-0.883-0.52-1.17c-0.737-0.522-1.701-0.253-2.012,0.643
			c-0.203,0.573-0.259,1.202-0.362,1.809c-0.106,0.642,0.031,1.249,0.47,1.724c0.29,0.317,0.335,0.653,0.35,1.047
			c0.035,0.994-0.009,1.993-0.117,2.984c-0.103,0.944-0.258,1.882-0.466,2.801c-0.061,0.27-0.091,0.405-0.166,0.665
			c-0.129,0.47-0.324,1.24-0.916,1.982c-0.191,0.239-0.464,0.471-0.697,0.675c-0.359,0.306-0.838,0.545-1.321,0.548
			c-0.438,0.002-0.88-0.159-1.214-0.438c-0.204-0.171-0.404-0.392-0.542-0.617c-0.124-0.2-0.65-1.186,0.037-1.311
			c1.045-0.188,1.729-0.771,2.052-1.718c0.839-2.473,1.225-5.025,1.093-7.633c-0.078-1.518-1.086-2.691-2.441-3
			c-1.04-0.241-1.643-0.003-2.093,0.969c-0.381,0.824-0.713,1.682-0.955,2.554c-0.371,1.341-0.605,2.696-0.723,4.057
			c-0.239,0.672-0.821,1.507-1.387,1.957c-0.684,0.545-1.499,0.171-1.639-0.696c-0.05-0.319-0.037-0.648-0.023-0.971
			c0.043-1.233,0.065-5.346,0.019-6.172c-0.023-0.438-0.096-0.879-0.212-1.302c-0.168-0.607-0.573-0.873-1.175-0.848
			c-0.602,0.02-0.85,0.216-0.977,0.921c-0.123,0.691-0.225,1.394-0.232,2.096c-0.012,1.5-0.085,3.015,0.109,4.491
			c0.175,1.32,0.19,2.63,0.104,3.942c-0.054,0.871-0.266,1.739-0.472,2.595c-0.11,0.453-0.348,0.966-0.89,0.969
			c-0.547,0.003-0.666-0.55-0.745-0.964c-0.18-0.946-0.382-1.906-0.409-2.865c-0.053-1.851-0.016-3.707,0.035-5.554
			c0.03-1.143,0.145-2.283,0.252-3.418c0.041-0.394-0.039-0.713-0.377-0.914c-1.192-0.714-2.09,0.001-2.139,0.957
			c-0.089,1.669-0.263,3.334-0.388,5.005c-0.033,0.445-0.089,0.893-0.157,1.333c-0.068,0.446-0.16,0.886-0.273,1.32
			c-0.116,0.434-0.25,0.859-0.392,1.283c-0.14,0.424-0.293,0.846-0.474,1.259c-0.184,0.411-0.789,1.487-1.152,1.854
			c-0.244,0.252-0.56,0.573-0.941,0.522c-0.103-0.015-0.228-0.057-0.312-0.116v0.008c-0.146-0.11-0.269-0.295-0.363-0.546
			c-0.212-0.602-0.339-1.255-0.374-1.888c-0.008-0.127-0.012-0.251-0.015-0.373c-0.097-1.729-1.226-1.711-1.226-1.711
			c-1.266,0.025-1.39,1.589-1.393,1.659c-0.089,0.51-0.185,1.023-0.289,1.526c-0.089,0.432-0.211,0.866-0.405,1.256
			c-0.134,0.258-0.413,0.61-0.634,0.613c-0.39,0.014-0.447-1.806-0.456-2.334c-0.001-0.597,0.016-1.196,0.052-1.795
			c0.017-0.254,0.037-0.508,0.062-0.767c0.092-0.907,0.244-1.818,0.489-2.705c0.127-0.469,0.287-0.932,0.45-1.393
			c0.168-0.464,0.721-1.925,0.967-1.995c0.257-0.072,0.455,0.184,0.513,0.404c0.008,0.033,0.01,0.106,0.008,0.213
			c-0.061,0.967-0.137,1.902-0.222,2.907c-0.029,0.353-0.101,0.72-0.034,1.051c0.052,0.253,0.249,0.553,0.47,0.674
			c0.589,0.334,1.604-0.152,1.706-0.825c0.119-0.776,0.277-1.585,0.404-2.385c0.099-0.605,0.208-1.205,0.318-1.809
			c0.227-1.232-0.123-2.142-0.939-2.944c-0.862-0.845-1.719-0.963-2.671-0.208c-0.844,0.67-1.467,1.519-1.959,2.465
			c-1.18,2.272-1.849,4.642-2.083,7.095v-0.021c-0.188,0.778-0.588,2.021-1.002,2.733c-0.335,0.573-0.735,1.153-1.222,1.598
			c-0.994,0.909-2.402,0.655-3.102-0.486c-0.124-0.197-0.653-1.182,0.036-1.312c1.042-0.187,1.728-0.77,2.049-1.715
			c0.838-2.47,1.227-5.029,1.094-7.636c-0.076-1.516-1.086-2.686-2.441-2.999c-1.04-0.238-1.643-0.001-2.094,0.97
			c-0.382,0.823-0.712,1.683-0.954,2.555c-0.746,2.691-0.946,5.446-0.727,8.218c0.131,1.662,0.591,3.232,1.733,4.532
			c1.434,1.635,3.565,1.78,5.143,0.303c0.399-0.375,1.203-1.362,1.61-1.861c0.137,0.664,0.366,1.305,0.77,1.881
			c1.08,1.56,2.762,1.495,3.654-0.175c0.317-0.592,0.515-1.251,0.766-1.874c0.044-0.102,0.087-0.202,0.133-0.301
			c0.065,0.085,0.14,0.165,0.192,0.261c0.328,0.584,0.573,1.237,0.991,1.747c0.821,1,2.119,1.016,3.012,0.101l-0.001-0.018
			c0.016-0.011,0.03-0.026,0.045-0.039c0.412-0.446,0.756-0.977,1.051-1.511c0.287-0.51,0.466-1.077,0.7-1.612
			c0.091-0.21,0.202-0.408,0.302-0.604c0.067,0.221,0.152,0.445,0.198,0.674c0.189,0.995,0.494,1.957,1.159,2.73
			c0.33,0.383,0.783,0.732,1.251,0.918c1.018,0.407,2.15-0.102,2.789-1.266c0.377-0.687,0.651-1.447,0.889-2.199
			c0.195-0.612,0.262-1.263,0.403-1.892c0.049-0.211,0.062-0.5,0.439-0.368c1.024,0.356,1.903,0.121,2.644-0.668
			c0.131-0.136,0.243-0.136,0.317-0.069c0.014,0.231,0.025,0.459,0.043,0.692c0.132,1.662,0.593,3.23,1.733,4.534
			c1.434,1.631,3.84,1.738,5.331,0.217c0.79-0.806,1.428-1.678,1.907-2.719c0.221-0.475,0.427-0.954,0.59-1.458
			c0.303-0.921,0.462-1.881,0.631-2.832c0.173-0.974,0.318-1.953,0.399-2.941c0.044-0.529,0.066-1.057,0.061-1.588
			c-0.004-0.462,0.187-0.746,0.711-0.715c0.117,0.003,0.833-0.097,0.748,0.42c-0.466,2.86-0.439,5.741-0.265,8.619
			c0.051,0.859,0.291,1.754,0.651,2.536c0.677,1.49,2.107,1.793,3.449,0.854c0.694-0.485,1.177-1.146,1.556-1.883
			c1.392-2.688,1.936-7.9,1.831-8.132C90.247,29.111,90.034,28.911,89.891,28.915z M43.213,33.398
			c-0.352-0.188-0.219-2.071-0.074-3.465c0.037-0.345,0.385-2.294,0.584-2.964c0.083-0.283,0.132-0.688,0.556-0.687
			c0.81-0.003,0.312,5.594-0.506,6.833C43.67,33.273,43.367,33.479,43.213,33.398z M73.445,32.781
			c-0.352-0.188-0.221-2.069-0.075-3.469c0.036-0.342,0.383-2.288,0.583-2.964c0.085-0.281,0.129-0.681,0.555-0.685
			c0.81-0.003,0.313,5.598-0.504,6.835C73.9,32.655,73.598,32.862,73.445,32.781z"/>
	</g>
	<g>
		<path fill="#F16951" d="M39.234,19.337c0.393-0.814,0.567-1.747,0.515-2.774c-0.041-0.87-0.2-1.666-0.468-2.366
			c-0.292-0.77-0.672-1.448-1.126-2.021c-0.276-0.346-0.584-0.672-0.912-0.966c-1.405-1.258-3.216-1.938-5.095-1.921
			c-0.116,0-0.229,0.005-0.344,0.009c-2.006,0.11-3.853,0.996-5.194,2.495c-1.43,1.596-2.107,3.531-1.911,5.451
			c0.068,0.647,0.551,1.095,1.174,1.087c0.019-0.001,0.041-0.001,0.062-0.002c0.339-0.018,0.584-0.122,0.736-0.318
			c0.151-0.197,0.19-0.456,0.121-0.793c-0.108-0.522-0.172-1.943,1.553-3.868c0.928-1.036,2.203-1.646,3.59-1.725
			c0.078,0,0.158-0.004,0.237-0.006c1.299-0.01,2.545,0.458,3.516,1.329c1.557,1.395,1.998,3.837,1.023,5.683
			c-0.407,0.769-0.897,1.468-1.464,2.074c-0.561,0.604-1.182,1.12-1.846,1.524c-0.386,0.235-0.795,0.45-1.219,0.633
			c-0.118,0.052-0.376,0.161-0.516,0.189c-0.019-0.097-0.019-0.288-0.007-0.566c0.049-1.102,0.213-4.504,0.217-4.571
			c0.001-0.037,0.169-3.242,0.088-3.461c-0.179-0.492-0.503-0.721-1.016-0.713c-0.055-0.001-0.111,0.002-0.173,0.006
			c-0.582,0.05-0.922,0.324-1.072,0.864l-0.008,0.028l-0.002,0.026l-0.439,5.025c-0.042,0.77-0.083,1.455-0.133,2.099
			c-0.046,0.609-0.097,1.22-0.15,1.831c-0.1,1.222-0.208,2.482-0.271,3.731c-0.084,1.646-0.157,3.416-0.103,5.176l0.004,0.149
			c0.015,0.448,0.036,1.199,0.072,1.548c0.002,0.015,0.008,0.064,0.013,0.137c0.06,0.64,0.134,1.401,0.184,1.661
			c0.098,0.543,0.431,0.93,0.912,1.071c0.153,0.043,0.324,0.066,0.492,0.066c0.519-0.007,0.934-0.243,1.109-0.629
			c0.113-0.248,0.107-0.524,0.104-0.744v-0.05c-0.001-0.079-0.011-0.373-0.026-0.785c-0.04-1.195-0.112-3.416-0.106-4.16
			c0.005-0.739,0.17-4.072,0.175-4.215c0.004-0.052,0.002-0.106,0.002-0.162c0.001-0.271,0.021-0.361,0.081-0.379
			c1.021-0.343,1.882-0.506,2.701-0.514c0.43-0.001,0.853,0.036,1.256,0.121c0.572,0.117,0.958,0.475,1.141,1.066
			c0.145,0.469,0.201,0.982,0.175,1.568c-0.011,0.215-0.118,2.146-0.759,4.05c-0.005,0.011-0.01,0.022-0.013,0.033
			c-0.725,1.923-2.135,3.73-3.863,4.94c-0.286,0.203-0.587,0.387-0.896,0.561c-1.157,0.56-3.39,0.85-3.413,0.85
			c-0.319,0.034-0.645,0.057-0.952,0.06h-0.014c-0.016-0.002-0.032-0.003-0.048-0.003c-0.014,0-0.028,0-0.043,0.003l-0.023-0.004
			c-0.523,0.01-0.821,0.227-0.981,0.408c-0.254,0.298-0.349,0.731-0.279,1.263c0.087,0.62,0.518,1.051,1.157,1.153l0.015-0.088
			l-0.005,0.091c0.024,0.004,0.333,0.018,0.368,0.021h0.007l0.009,0.002c0.01-0.005,0.556-0.016,0.778-0.02
			c1.991-0.021,4.033-0.722,5.905-2.03c2.183-1.532,3.894-3.686,4.819-6.068l0.012-0.031c0.72-1.757,1.024-3.654,0.901-5.625
			c-0.101-1.685-0.85-2.955-2.212-3.776c-0.437-0.264-1.095-0.542-1.689-0.696C37.367,22.146,38.503,20.856,39.234,19.337z"/>
	</g>
	<g>
		<path fill="#F16951" d="M99.971,28.307c-0.358-1.24-0.682-2.078-0.661-3.378c0.008-0.495,0.091-1.388,0.085-1.881
			c-0.005-0.74-0.581-1.253-1.447-1.346c-0.71-0.074-1.285,0.367-1.432,1.114c-0.062,0.312-0.479,5.022-0.905,7.027
			c-0.063,0.286-0.192,0.408-0.445,0.586c-0.433,0.304-0.706,0.493-0.809,1.045c-0.086,0.445-0.028,0.912,0.009,1.364
			c0.066,0.744,0.076,1.593-0.046,2.329c-0.008,0.067-0.021,0.13-0.035,0.198c0,0-0.027,0.127-0.066,0.344
			c-0.059,0.246-0.109,0.501-0.143,0.76c-0.246,1.484-0.515,3.92,0.44,3.696c0.553-0.128,0.941-0.921,1.229-1.902
			c0.071,0.124,0.132,0.225,0.178,0.278c0.648,0.843,1.423,1.476,2.572,1.433c1.325-0.09,2.256-0.784,2.748-1.987
			c0.515-1.266,0.648-2.416,0.33-3.951C101.165,32.096,100.522,30.21,99.971,28.307z M99.227,36.624
			c-0.092,0.321-0.312,0.816-0.59,1.029c-0.338,0.26-0.948-0.035-1.197-0.3c-0.394-0.42-0.569-1.08-0.71-1.623
			c-0.236-0.907-0.273-1.782,0.074-2.724c0.477-1.277,0.733-2.638,1.085-3.962c0.025-0.095,0.088-0.183,0.132-0.275
			c0.056,0.096,0.65,1.556,0.812,2.208c0.123,0.49,0.192,0.992,0.293,1.493C99.392,33.797,99.619,35.286,99.227,36.624z"/>
	</g>
	<g>
		<path fill="#F16951" d="M91.82,13.553c-0.479,0.059-0.885,0.372-0.972,0.962c-0.07,0.485-0.04,0.908-0.024,1.4
			c0.029,0.74,0.311,3.528,0.428,4.174c0.119,0.659,0.463,1.027,0.892,0.983c0.366-0.036,0.706-0.464,0.753-1.093
			c0.105-1.395,0.206-5.206,0.019-5.711C92.74,13.789,92.308,13.491,91.82,13.553z"/>
	</g>
</g>
</svg>
