<?xml version="1.0" encoding="utf-8"?>
<!-- Generator: Adobe Illustrator 19.2.1, SVG Export Plug-In . SVG Version: 6.00 Build 0)  -->
<svg version="1.1" id="Layer_4" xmlns="http://www.w3.org/2000/svg" xmlns:xlink="http://www.w3.org/1999/xlink" x="0px" y="0px"
	 viewBox="0 0 590.2 343" style="enable-background:new 0 0 590.2 343;" xml:space="preserve">
<style type="text/css">
	.st0{clip-path:url(#SVGID_2_);}
	.st1{fill:none;stroke:#414D4D;stroke-width:3;stroke-linecap:round;stroke-linejoin:round;}
	.st2{fill:#F8BBCF;stroke:#414D4D;stroke-width:3;stroke-linecap:round;stroke-linejoin:round;}
	.st3{fill:#FCB64E;stroke:#414D4D;stroke-width:3;stroke-linecap:round;stroke-linejoin:round;}
	.st4{fill:#F58981;stroke:#414D4D;stroke-width:3;stroke-linecap:round;stroke-linejoin:round;}
	.st5{fill:#58C1EF;stroke:#414D4D;stroke-width:3;stroke-linecap:round;stroke-linejoin:round;}
	.st6{fill:#FFFFFF;stroke:#414D4D;stroke-width:3;stroke-linecap:round;stroke-linejoin:round;}
	.st7{fill:#41B655;stroke:#414D4D;stroke-width:3;stroke-linecap:round;stroke-linejoin:round;}
	.st8{fill:#F8AA92;stroke:#414D4D;stroke-width:3;stroke-linecap:round;stroke-linejoin:round;}
	.st9{opacity:0.5;fill:#414D4D;enable-background:new    ;}
	.st10{fill:#414D4D;}
	.st11{fill:#916A54;stroke:#414D4D;stroke-width:3;stroke-linecap:round;stroke-linejoin:round;}
	.st12{fill:#BF8C77;stroke:#414D4D;stroke-width:3;stroke-linecap:round;stroke-linejoin:round;}
	.st13{fill:#414D4D;stroke:#414D4D;stroke-width:3;stroke-linecap:round;stroke-linejoin:round;}
	.st14{fill:#FFFFFF;}
	.st15{fill:#916A54;}
	.st16{fill:#566261;stroke:#414D4D;stroke-width:3;stroke-linecap:round;stroke-linejoin:round;}
	.st17{fill:#647070;}
	.st18{fill:none;stroke:#414D4D;stroke-width:2;stroke-linecap:round;stroke-linejoin:round;}
	
		.st19{opacity:0.5;fill:#58C1EF;stroke:#414D4D;stroke-width:3;stroke-linecap:round;stroke-linejoin:round;enable-background:new    ;}
	
		.st20{opacity:0.5;fill:#FAF291;stroke:#414D4D;stroke-width:3;stroke-linecap:round;stroke-linejoin:round;enable-background:new    ;}
	.st21{fill:#FAF291;stroke:#414D4D;stroke-width:3;stroke-linecap:round;stroke-linejoin:round;}
</style>
<title>beaverParty</title>
<g>
	<defs>
		<rect id="SVGID_1_" x="-35" y="-45" width="653" height="388"/>
	</defs>
	<clipPath id="SVGID_2_">
		<use xlink:href="#SVGID_1_"  style="overflow:visible;"/>
	</clipPath>
	<g class="st0">
		<path class="st1" d="M588.7,118.3c-67.7,21.7-173.6,35.7-292.7,35.7c-120.1,0-226.9-14.2-294.5-36.3"/>
		<path class="st2" d="M502.4,217l10.1-80c-17.6,3.1-36.3,5.9-56,8.2L502.4,217z"/>
		<path class="st3" d="M395.2,226.8l22.8-77.7c-17.7,1.5-36.1,2.7-54.9,3.6L395.2,226.8z"/>
		<path class="st4" d="M89.7,217l46.1-72.1c-19.8-2.4-38.6-5.2-56.2-8.4L89.7,217z"/>
		<path class="st5" d="M196.8,226.8l32.2-74.3c-18.9-0.9-37.3-2.1-55-3.7L196.8,226.8z"/>
		<path class="st6" d="M267.7,153.8l28.6,78.4l28.1-78.4c-8.9,0.2-18,0.2-27.1,0.2C287.3,154.1,277.4,154,267.7,153.8z"/>
		<path class="st7" d="M242.3,285c12-12,30.2-19.1,51.8-19.3l0,0c21.6,0.2,39.8,7.2,51.8,19.3c16.1,16.1,14.1,49.1,2.9,82.3
			c-1.6,4.8-3.4,9.2-5.1,13.1h58.8c-0.4-32,2.7-120-19.6-132.3c-11.4-7.5-88.2-24.7-88.2-24.7s-79.6,17.2-90.9,24.7
			c-22.4,12.3-19.2,100.3-19.6,132.3h60.5c-1.8-4-3.5-8.3-5.1-13.1C228.2,334.1,226.2,301.1,242.3,285z"/>
		<path class="st6" d="M343.6,380.5c1.8-4,3.5-8.3,5.1-13.1c11.2-33.2,13.3-66.2-2.9-82.3c-12-12-30.2-19.1-51.8-19.3l0,0
			c-21.6,0.2-39.8,7.2-51.8,19.3c-16.1,16.1-14.1,49.1-2.9,82.3c1.6,4.8,3.4,9.2,5.1,13.1H343.6L343.6,380.5z"/>
		<path class="st7" d="M243.8,84.6c-7,2.6-10.6,10.3-8.1,17.3c0,0,0,0,0,0l7.9,21.8l25.4-9.2l-7.9-21.8
			C258.6,85.6,250.8,82,243.8,84.6C243.8,84.6,243.8,84.6,243.8,84.6z"/>
		
			<ellipse transform="matrix(0.9399 -0.3414 0.3414 0.9399 -19.6428 91.4693)" class="st8" cx="250.1" cy="101.5" rx="7.8" ry="10.7"/>
		<path class="st9" d="M348.2,113.2c-15.1-19.3-50.1-19.9-54.1-19.9s-39,0.6-54.1,19.9c-6.7,8.5-9.3,37.4-0.3,82.8
			c7,35.1,25.8,53.7,54.4,53.7s47.4-18.6,54.4-53.7C357.6,150.6,354.9,121.7,348.2,113.2z"/>
		<path class="st7" d="M344.4,84.6c7,2.6,10.6,10.3,8.1,17.3c0,0,0,0,0,0l-7.9,21.8l-25.4-9.2l7.9-21.8
			C329.7,85.6,337.4,82,344.4,84.6C344.4,84.6,344.4,84.6,344.4,84.6z"/>
		
			<ellipse transform="matrix(0.3414 -0.9399 0.9399 0.3414 127.2165 384.9059)" class="st8" cx="338.3" cy="101.7" rx="10.7" ry="7.8"/>
		<ellipse class="st10" cx="293.2" cy="204.9" rx="48.6" ry="29.9"/>
		<path class="st11" d="M345.2,141.8c0,3.4,0,7.1,0,10.8l0,0C345.2,152.7,345.2,147.6,345.2,141.8L345.2,141.8v-16.5
			c-5.6,0-10.6,3.4-12.7,8.6c-6.1-4.3-12.8-7.5-20-9.5c-0.9-2.7,3-6.4,3-6.4c-3.4-0.7-9,3-11.1,4.6l-1.3-0.2
			c-0.9-3.2,1.4-9.5,1.4-9.5c-4.2,1.3-8.9,6.7-10.7,8.8h-1.2c-1.8-4.8,2.3-14.7,2.3-14.7c-10.5,4.2-16.4,16.4-16.4,16.4l0,0
			c-6.3,1.4-12.3,3.6-18,6.6l-12.1-3.2c-1.7-1-3.6-1.5-5.5-1.5h-0.1v0.2c0,5.8-0.1,41-0.1,56.3c0,24.5,27.2,44.7,51.1,44.5h0.1
			c23.8,0.2,51.1-20.1,51.1-44.5c0-7.1,0-18.4,0-29.2"/>
		<ellipse class="st12" cx="294" cy="193.3" rx="31.2" ry="18.2"/>
		<path class="st6" d="M303.6,203.8c0,4.2-3.6,11.4-9.6,11.4l0.1-25.8C293.8,195.8,297.6,201.5,303.6,203.8z"/>
		<path class="st6" d="M284.2,203.9c0,4.2,3.6,11.3,9.6,11.3l0.1-25.8C294.1,195.8,290.2,201.6,284.2,203.9z"/>
		<circle class="st13" cx="266.6" cy="156.4" r="5.8"/>
		<circle class="st13" cx="321.7" cy="156.4" r="5.8"/>
		<circle class="st14" cx="324" cy="153.6" r="3.6"/>
		<circle class="st14" cx="268.8" cy="153.6" r="3.6"/>
		<path class="st15" d="M311.8,159.1c-0.1,0.7,4.5,1.8,10.1,2.3s10.3,0.4,10.4-0.3l3.1,0.3l-0.6,6.4l-26.8-2.5l0.6-6.4L311.8,159.1z
			"/>
		<path class="st15" d="M276.6,159.1c0.1,0.7-4.5,1.8-10.1,2.3s-10.3,0.4-10.4-0.3l-3.1,0.3l0.6,6.4l26.8-2.5l-0.6-6.4L276.6,159.1z
			"/>
		<path class="st12" d="M340.7,182.2c-1.3-1.8-4.5-5.6-15.8-12.2c-13.6-7.9-30-7.9-30.9-7.9s-17.3,0-30.9,7.9
			c-11.3,6.6-14.4,10.4-15.8,12.2c-1.8,2.2-2.8,4.9-2.8,7.7c0,3.5,2,6,4.4,8.7s8.4,7.9,19.1,8.1c17.3,0,25.2-6.7,25.8-17.4
			c0.6,10.7,8.8,17.4,26.1,17.4c10.7-0.2,16.7-5.4,19.1-8.1s4.4-5.2,4.4-8.7C343.5,187.1,342.5,184.4,340.7,182.2z"/>
		<path class="st16" d="M293.8,155.9c-7.2,0-11.5,1.6-11.5,3.4c0,6.9,6.7,13.9,11.5,13.9s11.5-7,11.5-13.9
			C305.2,157.5,301,155.9,293.8,155.9z"/>
		<path class="st16" d="M275.8,162.3c-0.3,0.2-7.4,2.7-18.4,2"/>
		<path class="st16" d="M312.6,162.3c0.3,0.2,7.4,2.7,18.4,2"/>
		<ellipse class="st17" cx="293.8" cy="160.5" rx="4.1" ry="1.7"/>
		<path class="st9" d="M344.9,129.1h-13v-1.7c0-0.8-0.7-1.5-1.5-1.5h-13v-0.1c0-0.8-0.7-1.5-1.5-1.5h-13v-0.1c0-0.8-0.7-1.5-1.5-1.5
			h-14.5c-0.8,0-1.5,0.7-1.5,1.5v0.1h-13c-0.8,0-1.5,0.7-1.5,1.5v0.1h-13c-0.8,0-1.5,0.7-1.5,1.5v1.7h-13c-0.8,0-1.5,0.7-1.5,1.5
			v14.5c8.1,0,16.1,1.9,23.3,5.5c2.2-4.3,7.5-6,11.8-3.8c1.1,0.5,2,1.3,2.7,2.2c2.2-4.3,7.5-6,11.8-3.8c1.1,0.5,2,1.3,2.7,2.2
			c3.1-3.7,8.6-4.2,12.3-1.1c0.9,0.8,1.7,1.7,2.2,2.7c3.1-3.7,8.6-4.2,12.3-1.1c0.9,0.8,1.7,1.7,2.2,2.7c3.4-3.5,8.9-3.5,12.4-0.2
			c1,0.9,1.7,2.1,2.2,3.4c4.8,0,8.8-3.9,8.8-8.8v-14.5c0-0.8-0.7-1.5-1.5-1.5C345,129.1,345,129.1,344.9,129.1z"/>
		<path class="st9" d="M322.8,213.3c-2.2,4.3-7.5,6-11.8,3.8c-1.1-0.5-2-1.3-2.7-2.2c-2.2,4.3-7.5,6-11.8,3.8
			c-1.1-0.5-2-1.3-2.7-2.2c-3.1,3.7-8.6,4.2-12.3,1.1c-0.9-0.8-1.7-1.7-2.2-2.7c-3.1,3.7-8.6,4.2-12.3,1.1c-0.9-0.8-1.7-1.7-2.2-2.7
			c-4.8,0-8.8,3.9-8.8,8.8v3.6c0,0.5,0.2,0.9,0.6,1.2l13.9,10.4v0.9c0,0.8,0.7,1.5,1.5,1.5h13v0.1c0,0.8,0.7,1.5,1.5,1.5H301
			c0.8,0,1.5-0.7,1.5-1.5v-0.1h13c0.8,0,1.5-0.7,1.5-1.5v-0.8l13.9-10.4c0.4-0.3,0.6-0.7,0.6-1.2v-3.6
			C331.6,217.3,327.7,213.4,322.8,213.3z"/>
		<path class="st6" d="M330.2,227.1v-3.6c0-4-3.3-7.3-7.3-7.3s-7.3,3.3-7.3,7.3v14.5L330.2,227.1z"/>
		<path class="st6" d="M315.7,239.5v-14.5c0-4-3.3-7.3-7.3-7.3s-7.3,3.3-7.3,7.3v14.5H315.7z"/>
		<path class="st6" d="M301.2,241.2v-14.5c0-4-3.3-7.3-7.3-7.3s-7.3,3.3-7.3,7.3l0,0v14.5H301.2z"/>
		<path class="st6" d="M286.7,239.5v-14.5c0-4-3.3-7.3-7.3-7.3s-7.3,3.3-7.3,7.3v14.5H286.7z"/>
		<path class="st6" d="M272.2,237.9v-14.5c0-4-3.3-7.3-7.3-7.3s-7.3,3.3-7.3,7.3v3.6L272.2,237.9z"/>
		<path class="st6" d="M243.1,128.6v14.5c0,4,3.3,7.3,7.3,7.3s7.3-3.3,7.3-7.3v-14.5H243.1z"/>
		<path class="st6" d="M257.6,125.4v14.5c0,4,3.3,7.3,7.3,7.3s7.3-3.3,7.3-7.3l0,0v-14.5H257.6z"/>
		<path class="st6" d="M272.2,123.8v14.5c0,4,3.3,7.3,7.3,7.3s7.3-3.3,7.3-7.3l0,0v-14.5H272.2z"/>
		<path class="st6" d="M286.7,122.2v14.5c0,4,3.3,7.3,7.3,7.3s7.3-3.3,7.3-7.3v-14.5H286.7z"/>
		<path class="st6" d="M301.2,123.8v14.5c0,4,3.3,7.3,7.3,7.3s7.3-3.3,7.3-7.3l0,0v-14.5H301.2z"/>
		<path class="st6" d="M315.7,125.4v14.5c0,4,3.3,7.3,7.3,7.3s7.3-3.3,7.3-7.3l0,0v-14.5H315.7z"/>
		<path class="st6" d="M330.2,128.6v14.5c0,4,3.3,7.3,7.3,7.3s7.3-3.3,7.3-7.3v-14.5H330.2z"/>
		<path class="st7" d="M346.8,111.3C334.2,95.1,305.6,92,293.9,92s-40.2,3-52.9,19.3c-5.3,6.8-9.8,32.7,0,81.5s39.7,52.5,52.9,52.5
			s43.1-3.7,52.9-52.5S352.2,118.1,346.8,111.3z M333.5,220.5c-11.7,12-30.2,12-39.5,12s-27.9,0-39.5-12S242,166.4,242,141.3
			c0,0,20.2-10.4,51.9-10.4s51.9,10.4,51.9,10.4C345.9,166.4,345.1,208.5,333.5,220.5L333.5,220.5z"/>
		<path class="st7" d="M284.4,120.3c0,2.8-2.2,5-5,5s-5-2.2-5-5"/>
		<path class="st7" d="M313,120.3c0,2.8-2.2,5-5,5s-5-2.2-5-5"/>
		<path class="st18" d="M310.1,184.5c0,0,25.8-5.8,61.5-1.6"/>
		<path class="st18" d="M315.6,189.8c0,0,28.8-1.9,50,3.1"/>
		<path class="st18" d="M318.1,195.8c0,0,23.2,0.7,33.8,3.8"/>
		<path class="st18" d="M277.6,184.5c0,0-25.8-5.8-61.5-1.6"/>
		<path class="st18" d="M272,189.8c0,0-28.8-1.9-50,3.1"/>
		<path class="st18" d="M269.6,195.8c0,0-23.2,0.7-33.8,3.8"/>
		<circle class="st13" cx="327.1" cy="110.3" r="6.9"/>
		<circle class="st14" cx="329.8" cy="106.9" r="4.3"/>
		<circle class="st13" cx="259.9" cy="110.3" r="6.9"/>
		<circle class="st14" cx="262.6" cy="106.9" r="4.3"/>
		<path class="st1" d="M381.8,286.5c0,0-7.1,66.6-16.4,93.9"/>
		<path class="st1" d="M206.2,286.5c0,0,7.1,66.6,16.4,93.9"/>
		<path class="st1" d="M531.5,163.6c3.1-5.6,5.5-11.4,4.1-17.9c-2.1-10-8.9-17.5-17.8-22.1c-6.4-3.3-13.4-5.7-18.4-11.2
			c-3.2-3.6-4.6-8.6-5.1-13.4"/>
		<path class="st19" d="M513.4,42.8c-3.6-13.2-12.4-22.9-24.8-27.3l-0.2-0.1c-0.1,0-0.2-0.1-0.3-0.1c-13.5-4.4-28.2-0.3-37.4,10.5
			c-0.1,0.1-0.1,0.2-0.2,0.2c-0.1,0.1-0.1,0.1-0.2,0.2c-8.3,10.2-10.7,23.1-6.9,36.2c5.2,16.6,18,29.8,34.4,35.5h0.1
			c3.8,1.2,7.7,1.7,11.6,1.3l-0.3,1l-1.2,4.7l4.7-1.3l4.7-1.3l-3.5-3.4l-0.8-0.8c3.5-1.7,6.7-4.2,9.2-7.2l0,0l0,0
			C513.5,77.5,517.6,59.7,513.4,42.8z"/>
		<polygon class="st5" points="492.5,93.6 496,97 499.4,100.4 494.8,101.7 490.1,103 491.3,98.3 		"/>
		<path class="st5" d="M490.6,13.5l-0.2-0.1c-0.1,0-0.2-0.1-0.3-0.1c-13.5-4.4-28.2-0.3-37.4,10.5c-0.1,0.1-0.1,0.2-0.2,0.2
			c-0.1,0.1-0.1,0.1-0.2,0.2c-8.3,10.2-10.7,23.1-6.9,36.2c5.2,16.6,18,29.8,34.4,35.5h0.1c4.2,1.2,8.7,2.1,13.5,1
			c4.6-1.6,8.1-4.7,11-7.9l0,0l0,0c11-13.5,15.1-31.3,10.8-48.2C511.8,27.6,503,17.9,490.6,13.5z"/>
		<path class="st1" d="M460.8,25.9c-6.1,5.8-9.5,13.8-9.5,22.1"/>
		<path class="st1" d="M131.8,256.3c5.9-4.2,11.1-8.8,12.8-16c2.7-11.1-0.5-21.9-7.1-30.9c-4.8-6.5-10.8-12.2-13-20.2
			c-1.4-5.2-0.4-10.9,1.4-15.9"/>
		<path class="st20" d="M161.7,87.5c-0.1-0.1-0.1-0.1-0.2-0.2c-0.1-0.1-0.1-0.2-0.2-0.2c-11.4-11-28.3-14-42.7-7.6
			c-0.1,0-0.2,0.1-0.3,0.2l-0.3,0.1c-13.3,6.3-22,18-24.5,33.1c-2.8,19.2,3.6,38.7,17.4,52.4h0.1l0,0c3.2,3.1,6.9,5.5,11.1,7
			l-0.8,0.9l-3.5,4.1l5.3,0.9l5.3,0.9l-1.8-5.1l-0.4-1.1c4.4,0,8.8-0.9,12.8-2.7l0,0h0.1c17.6-8.2,30.4-24.2,34.3-43.2
			C176.2,112,172,98,161.7,87.5z"/>
		<polygon class="st21" points="126.6,167.1 128.5,172.1 130.3,177.2 125,176.3 119.7,175.3 123.2,171.2 		"/>
		<path class="st21" d="M163.7,85.5c-0.1-0.1-0.1-0.1-0.2-0.2c-0.1-0.1-0.1-0.2-0.2-0.2c-11.4-11-28.3-14-42.7-7.6
			c-0.1,0-0.2,0.1-0.3,0.2l-0.3,0.1c-13.3,6.3-22,18-24.5,33.1c-2.8,19.2,3.6,38.7,17.4,52.4h0.1l0,0c3.6,3.2,7.8,6.3,13.1,7.6
			c5.4,0.7,10.4-0.8,14.9-2.6l0,0h0.1c17.6-8.2,30.4-24.2,34.3-43.2C178.2,110,174,96,163.7,85.5z"/>
		<path class="st1" d="M127.7,83.6c0,0-13.1,3.2-20.3,17.6"/>
		
			<rect x="449" y="214" transform="matrix(0.9295 -0.3689 0.3689 0.9295 -50.1605 183.3708)" class="st21" width="10.9" height="17.7"/>
		<polygon class="st21" points="389.9,64.6 379.7,60.9 385.8,44.3 396,48.1 		"/>
		<polygon class="st2" points="379.9,103.7 369.8,100 375.9,83.5 386,87.2 		"/>
		<polygon class="st3" points="377.9,40 367.1,41.2 365.2,23.6 376,22.4 		"/>
		
			<rect x="133" y="277.8" transform="matrix(0.9469 -0.3214 0.3214 0.9469 -84.7876 59.7141)" class="st4" width="10.8" height="17.6"/>
		
			<rect x="170.7" y="2.9" transform="matrix(0.9469 -0.3214 0.3214 0.9469 5.5967 57.2453)" class="st4" width="10.8" height="17.6"/>
		
			<rect x="158.1" y="19.1" transform="matrix(0.867 -0.4983 0.4983 0.867 9.9834 86.4327)" class="st5" width="17.7" height="10.8"/>
		
			<rect x="172.5" y="46.5" transform="matrix(6.557733e-02 -0.9978 0.9978 6.557733e-02 117.7004 229.459)" class="st21" width="17.7" height="10.8"/>
		
			<rect x="429.8" y="237.3" transform="matrix(9.515080e-02 -0.9955 0.9955 9.515080e-02 155.3216 656.3019)" class="st2" width="17.7" height="10.8"/>
		
			<rect x="450.9" y="260.1" transform="matrix(0.7979 -0.6028 0.6028 0.7979 -67.1057 330.8005)" class="st3" width="17.7" height="10.8"/>
	</g>
</g>
</svg>
