<?xml version="1.0" encoding="utf-8"?>
<!-- Generator: Adobe Illustrator 16.0.0, SVG Export Plug-In . SVG Version: 6.00 Build 0)  -->
<!DOCTYPE svg PUBLIC "-//W3C//DTD SVG 1.1//EN" "http://www.w3.org/Graphics/SVG/1.1/DTD/svg11.dtd">
<svg version="1.1" id="Layer_1" xmlns="http://www.w3.org/2000/svg" xmlns:xlink="http://www.w3.org/1999/xlink" x="0px" y="0px"
	 width="400px" height="400px" viewBox="0 0 400 400" enable-background="new 0 0 400 400" xml:space="preserve">
<g>
	<g>
		<g>
			<rect x="319.748" y="381.041" fill="#916A54" width="49.255" height="55.345"/>
			<path fill="#414D4D" d="M369.003,438.875h-49.255c-1.376,0-2.494-1.111-2.494-2.489v-55.345c0-1.371,1.118-2.489,2.494-2.489
				h49.255c1.376,0,2.494,1.118,2.494,2.489v55.345C371.497,437.764,370.379,438.875,369.003,438.875z M322.237,433.898h44.275
				v-50.367h-44.275V433.898z"/>
		</g>
		<g>
			<rect x="27.525" y="381.041" fill="#916A54" width="49.256" height="55.345"/>
			<path fill="#414D4D" d="M76.782,438.875H27.525c-1.375,0-2.493-1.111-2.493-2.489v-55.345c0-1.371,1.118-2.489,2.493-2.489
				h49.256c1.376,0,2.491,1.118,2.491,2.489v55.345C79.272,437.764,78.158,438.875,76.782,438.875z M30.016,433.898h44.275v-50.367
				H30.016V433.898z"/>
		</g>
		<g>
			<path fill="#D7DADB" d="M332.036,295.415c0,2.756-2.229,4.98-4.981,4.98H71.916c-2.752,0-4.982-2.225-4.982-4.98v-63.092
				c0-2.748,2.23-4.984,4.982-4.984h255.139c2.753,0,4.981,2.236,4.981,4.984V295.415z"/>
			<path fill="#414D4D" d="M327.055,302.89H71.916c-4.123,0-7.475-3.354-7.475-7.475v-63.092c0-4.126,3.352-7.474,7.475-7.474
				h255.139c4.116,0,7.471,3.348,7.471,7.474v63.092C334.525,299.535,331.171,302.89,327.055,302.89z M71.916,229.828
				c-1.375,0-2.493,1.118-2.493,2.495v63.092c0,1.373,1.118,2.491,2.493,2.491h255.139c1.374,0,2.49-1.118,2.49-2.491v-63.092
				c0-1.377-1.116-2.495-2.49-2.495H71.916z"/>
		</g>
		<g>
			<path fill="#B6DEF6" d="M362.268,288.355c-4.357-24.486-8.301-24.276-19.581-30.401c-10.027-4.867-32.306-14.01-50.567-22.101
				c-18.264-8.096-36.319-25.533-36.319-25.533h-55.415H142.48c0,0-18.059,17.438-36.323,25.533
				c-18.262,8.091-40.535,17.233-50.568,22.101c-11.279,6.125-15.223,5.915-19.581,30.401
				C31.65,312.849,18.16,388.603,18.16,388.603l59.981,11.83v96.713h122.244H320.14v-96.713l59.977-11.83
				C380.116,388.603,366.628,312.849,362.268,288.355z"/>
			<path fill="#414D4D" d="M320.14,499.64H78.141c-1.376,0-2.489-1.119-2.489-2.494v-94.664l-57.971-11.439
				c-1.333-0.259-2.212-1.536-1.972-2.875L33.558,287.92c3.966-22.293,7.706-25.272,17.93-30.604
				c0.912-0.484,1.885-0.984,2.914-1.547c6.097-2.963,16.515-7.419,27.541-12.144c7.753-3.321,15.776-6.759,23.208-10.053
				c17.658-7.826,35.421-24.871,35.601-25.041c0.462-0.446,1.085-0.7,1.729-0.7H255.8c0.647,0,1.263,0.254,1.729,0.7
				c0.178,0.17,17.961,17.227,35.603,25.041c7.43,3.294,15.449,6.731,23.206,10.053c11.025,4.725,21.443,9.181,27.439,12.095
				c1.13,0.611,2.099,1.111,3.013,1.596c10.228,5.332,13.962,8.312,17.934,30.604l17.848,100.247
				c0.237,1.339-0.645,2.616-1.97,2.875l-57.973,11.439v94.664C322.629,498.521,321.514,499.64,320.14,499.64z M80.63,494.654
				h237.015v-94.222c0-1.189,0.843-2.213,2.009-2.444l57.581-11.357l-17.42-97.839c-3.739-21.018-6.658-22.537-15.326-27.064
				c-0.943-0.491-1.935-1.008-2.985-1.581c-5.794-2.809-16.157-7.248-27.129-11.946c-7.767-3.326-15.805-6.769-23.266-10.079
				c-16.582-7.347-32.664-21.907-36.305-25.306H143.471c-3.634,3.398-19.719,17.959-36.303,25.306
				c-7.459,3.311-15.494,6.753-23.266,10.079c-10.971,4.698-21.336,9.138-27.223,12.002c-0.958,0.518-1.951,1.034-2.887,1.525
				c-8.668,4.527-11.589,6.047-15.332,27.064l-17.419,97.839l57.58,11.357c1.168,0.231,2.01,1.255,2.01,2.444V494.654z"/>
		</g>
		<g>
			<g>
				<path fill-rule="evenodd" clip-rule="evenodd" fill="#414D4D" d="M283.86,338.897c0.335-0.071,0.664-0.154,0.999-0.215
					c1.577-0.265,3.112-0.831,4.747-0.666c0.392,0.033,0.781,0.088,1.168,0.144c0.274,0.043,0.583,0.093,0.688-0.21
					c0.079-0.215,0.072-0.528-0.033-0.731c-0.311-0.628-0.803-1.063-1.524-1.262c-1.115-0.304-2.264-0.324-3.372-0.188
					c-1.508,0.182-2.989,0.58-4.476,0.91c-2.104,0.463-5.128,1.574-7.307,1.751c-0.867,0.077-1.204,0.688-0.994,1.607
					c0.182,0.822,0.755,1.104,1.598,0.882c1.394-0.373,3.832-0.908,5.232-1.278c0.103-0.026,0.188-0.043,0.261-0.05l-0.669,24.07
					h-0.008c-0.012,0.125-0.008,0.257,0.008,0.38c0.047,0.323,0.263,0.682,0.64,0.66c0.368-0.017,0.877-0.215,1.104-0.495
					c0.239-0.298,0.304-0.496,0.36-0.84l0.01-0.198l1.367-24.21C283.711,338.93,283.782,338.908,283.86,338.897z"/>
			</g>
			<g>
				<path fill-rule="evenodd" clip-rule="evenodd" fill="#414D4D" d="M276.859,342.599c0.322-0.743,0.449-1.586,0.372-2.499
					c-0.067-0.776-0.234-1.486-0.496-2.111c-0.289-0.677-0.648-1.271-1.073-1.768c-0.26-0.307-0.547-0.588-0.849-0.842
					c-1.3-1.08-2.942-1.636-4.627-1.56c-0.1,0.007-0.203,0.017-0.303,0.023c-1.799,0.158-3.422,1.013-4.577,2.401
					c-1.227,1.47-1.771,3.231-1.536,4.938c0.083,0.578,0.529,0.965,1.086,0.938c0.018,0,0.038,0,0.054,0
					c0.305-0.028,0.52-0.133,0.651-0.314c0.129-0.177,0.153-0.408,0.083-0.71c-0.116-0.463-0.215-1.736,1.265-3.521
					c0.803-0.951,1.923-1.536,3.162-1.651c0.072-0.007,0.144-0.01,0.214-0.017c1.16-0.05,2.293,0.33,3.188,1.073
					c1.443,1.206,1.913,3.384,1.097,5.068c-0.335,0.698-0.753,1.338-1.244,1.906c-0.482,0.55-1.022,1.028-1.604,1.42
					c-0.34,0.225-0.699,0.43-1.073,0.6c-0.1,0.055-0.331,0.16-0.456,0.193c-0.017-0.089-0.028-0.259-0.023-0.512
					c0.01-0.986,0.05-4.037,0.05-4.104c0-0.032,0.05-2.903-0.033-3.102c-0.175-0.435-0.468-0.621-0.93-0.604
					c-0.05,0.005-0.1,0.005-0.154,0.01c-0.521,0.066-0.819,0.32-0.932,0.81l-0.005,0.027v0.021l-0.237,4.517
					c-0.01,0.693-0.026,1.302-0.05,1.885c-0.024,0.545-0.05,1.095-0.076,1.64c-0.056,1.097-0.11,2.237-0.127,3.351
					c-0.024,1.479-0.033,3.062,0.077,4.642l0.011,0.139c0.022,0.396,0.065,1.073,0.11,1.381c0,0.017,0.008,0.062,0.02,0.122
					c0.068,0.568,0.159,1.252,0.212,1.481c0.107,0.479,0.419,0.821,0.854,0.93c0.138,0.033,0.293,0.05,0.443,0.04
					c0.465-0.017,0.827-0.238,0.973-0.595c0.092-0.222,0.082-0.469,0.065-0.667v-0.05c-0.003-0.071-0.022-0.33-0.044-0.699
					c-0.078-1.068-0.212-3.057-0.231-3.723c-0.017-0.661,0.021-3.652,0.028-3.784c0-0.043-0.007-0.093-0.007-0.143
					c-0.01-0.242,0.007-0.32,0.062-0.342c0.903-0.342,1.668-0.512,2.401-0.55c0.385-0.017,0.765,0.01,1.128,0.071
					c0.512,0.087,0.871,0.396,1.058,0.92c0.142,0.413,0.209,0.869,0.204,1.397c0,0.193-0.039,1.923-0.552,3.653
					c0,0-0.005,0.016-0.01,0.026c-0.59,1.751-1.79,3.409-3.3,4.55c-0.253,0.191-0.514,0.368-0.783,0.528
					c-1.022,0.538-3.013,0.869-3.032,0.875c-0.288,0.04-0.573,0.066-0.854,0.079h-0.012c0,0-0.026,0-0.043,0
					c-0.012,0-0.029,0-0.029,0l-0.026,0.004c-0.473,0.023-0.73,0.227-0.869,0.396c-0.215,0.275-0.287,0.667-0.208,1.14
					c0.098,0.552,0.506,0.925,1.077,0.998l0.007-0.083v0.083c0.02,0.005,0.297,0.005,0.333,0.005h0.007h0.007
					c0.01,0,0.499-0.028,0.693-0.038c1.784-0.078,3.588-0.776,5.222-2.011c1.911-1.438,3.374-3.426,4.124-5.585l0.012-0.027
					c0.59-1.598,0.798-3.306,0.623-5.066c-0.143-1.51-0.85-2.623-2.1-3.316c-0.401-0.22-0.996-0.446-1.538-0.566
					C275.274,345.171,276.248,343.981,276.859,342.599z"/>
			</g>
		</g>
		<g>
			<rect x="154.033" y="193.099" fill="#916A54" width="90.49" height="62.885"/>
			<path fill="#414D4D" d="M244.522,258.472h-90.49c-1.375,0-2.491-1.112-2.491-2.488v-62.885c0-1.376,1.117-2.496,2.491-2.496
				h90.49c1.376,0,2.489,1.12,2.489,2.496v62.885C247.012,257.359,245.898,258.472,244.522,258.472z M156.523,253.488h85.51v-57.9
				h-85.51V253.488z"/>
		</g>
		<g>
			<path fill="#414D4D" d="M280.784,377.804c-0.193,0-0.387-0.023-0.574-0.066l-25.24-5.953c-1.123-0.271-1.916-1.273-1.916-2.43
				v-56.149c0-1.378,1.11-2.494,2.488-2.494h50.481c1.378,0,2.491,1.116,2.491,2.494v56.149c0,1.156-0.795,2.159-1.918,2.43
				l-25.246,5.953C281.166,377.78,280.976,377.804,280.784,377.804z M258.036,367.384l22.748,5.368l22.75-5.368v-51.694h-45.498
				V367.384z"/>
		</g>
		<g>
			<path fill="#FFFFFF" d="M244.308,204.499c0,0-13.847,34.99-44.984,50.593c6.895,2.164,19.258,13.541,28.627,23.642
				c0,0,14.551-15.878,20.958-33.204c2.299-16.737,3.605-33.027,3.38-35.787L244.308,204.499z"/>
			<path fill="#414D4D" d="M227.95,281.223c-0.693,0-1.354-0.285-1.828-0.797c-11.368-12.26-22.179-21.277-27.544-22.95
				c-0.968-0.31-1.657-1.173-1.738-2.183c-0.079-1.007,0.458-1.971,1.368-2.428c29.94-15.008,43.648-48.944,43.786-49.286
				c0.275-0.693,0.849-1.229,1.563-1.453c0.717-0.227,1.493-0.123,2.118,0.29l7.981,5.25c0.639,0.426,1.049,1.113,1.114,1.873
				c0.268,3.293-1.188,20.228-3.398,36.332c-0.021,0.176-0.066,0.353-0.126,0.522c-6.51,17.582-20.857,33.359-21.464,34.026
				C229.312,280.933,228.601,281.201,227.95,281.223z M204.802,254.953c8.031,4.79,18.041,14.787,23.074,20.062
				c3.984-4.724,13.715-17.062,18.601-30.098c2.116-15.476,3.261-29.399,3.344-33.816l-4.405-2.896
				C241.604,216.489,228.793,240.942,204.802,254.953z"/>
		</g>
		<g>
			<path fill="#FFFFFF" d="M154.282,204.499c0,0,13.847,34.99,44.985,50.593c-6.893,2.164-19.258,13.541-28.627,23.642
				c0,0-14.545-15.878-20.958-33.204c-2.294-16.737-3.606-33.027-3.379-35.787L154.282,204.499z"/>
			<path fill="#414D4D" d="M170.64,281.223h-0.006c-0.696,0-1.36-0.297-1.831-0.803c-0.606-0.667-14.95-16.444-21.457-34.026
				c-0.064-0.17-0.107-0.347-0.13-0.522c-2.212-16.114-3.666-33.05-3.398-36.332c0.066-0.76,0.476-1.447,1.118-1.873l7.977-5.25
				c0.626-0.413,1.407-0.517,2.118-0.29c0.717,0.225,1.292,0.76,1.569,1.453c0.134,0.342,13.892,34.306,43.781,49.286
				c0.909,0.457,1.449,1.421,1.368,2.428c-0.083,1.01-0.768,1.873-1.736,2.183c-5.362,1.673-16.171,10.686-27.543,22.95
				C171.994,280.938,171.333,281.223,170.64,281.223z M152.113,244.918c4.896,13.053,14.618,25.374,18.603,30.098
				c5.03-5.275,15.044-15.272,23.072-20.062c-23.991-14.011-36.802-38.464-40.608-46.747l-4.41,2.896
				C148.854,215.515,149.997,229.437,152.113,244.918z"/>
		</g>
		<g>
			<rect x="255.542" y="313.205" fill="#6EBCDB" width="50.481" height="12.337"/>
			<path fill="#414D4D" d="M306.023,328.025h-50.481c-1.378,0-2.488-1.11-2.488-2.483v-12.337c0-1.378,1.11-2.494,2.488-2.494
				h50.481c1.378,0,2.491,1.116,2.491,2.494v12.337C308.515,326.915,307.401,328.025,306.023,328.025z M258.036,323.047h45.498
				v-7.357h-45.498V323.047z"/>
		</g>
		<g>
			<path fill="#916A54" d="M285.426,47.465c-9.577,0-17.75,5.942-21.083,14.33c-7.181-5.375-18.999-11.644-33.168-15.806l0,0
				c-1.525-4.549,5.021-10.695,5.021-10.695c-5.719-1.212-14.949,4.99-18.507,7.593c-0.711-0.119-1.414-0.257-2.131-0.363
				c-1.564-5.352,2.332-15.804,2.332-15.804c-6.914,2.086-14.764,11.047-17.72,14.671c-0.661,0-1.316-0.017-1.974,0
				c-3-7.998,3.885-24.365,3.885-24.365c-17.434,6.922-27.189,27.263-27.189,27.263h0.021c-18.081,4.047-33.163,11.648-40.993,18.56
				c-3.047-8.939-11.497-15.382-21.462-15.382c-12.535,0-22.697,10.16-22.697,22.696c0,12.534,10.162,22.691,22.697,22.691
				c1.128,0,2.23-0.111,3.319-0.27c-0.046,8.508-0.086,22.967-0.086,48.751c0,40.646,45.228,74.198,84.767,73.944v0.006
				c0.029,0,0.066-0.006,0.099-0.006c0.035,0,0.071,0.006,0.104,0.006v-0.006c39.535,0.254,84.765-33.299,84.765-73.944
				c0-25.515-0.041-39.94-0.088-48.487c0.028,0,0.059,0.005,0.088,0.005c12.53,0,22.69-10.157,22.69-22.691
				C308.116,57.625,297.956,47.465,285.426,47.465z"/>
			<path fill="#414D4D" d="M200.661,217.767c-0.021,0-0.088,0-0.111,0h-0.472c-19.871,0-41.754-8.355-58.604-22.36
				c-18.232-15.15-28.272-34.356-28.272-54.073c0-19.722,0.021-35.177,0.071-46.002c-0.274,0.005-0.548,0.01-0.814,0.01
				c-13.89,0-25.187-11.295-25.187-25.18c0-13.89,11.297-25.18,25.187-25.18c9.585,0,18.225,5.434,22.463,13.835
				c9.139-6.974,23.353-13.203,38.279-16.69c2.352-4.455,11.99-21.07,27.961-27.417c0.929-0.367,1.994-0.142,2.696,0.575
				c0.703,0.715,0.906,1.784,0.521,2.708c-1.554,3.707-4.897,13.439-4.412,19.766c4.227-4.884,10.877-11.52,17.202-13.426
				c0.903-0.281,1.887-0.017,2.537,0.677c0.645,0.687,0.848,1.685,0.517,2.572c-1.156,3.11-2.626,8.581-2.542,12.248
				c4.421-3.066,11.376-7.182,16.942-7.182c0.733,0,1.435,0.073,2.087,0.21c0.906,0.187,1.633,0.871,1.885,1.762
				c0.249,0.899-0.021,1.85-0.694,2.489c-1.82,1.72-4.147,4.809-4.437,6.967c10.981,3.393,21.845,8.476,29.899,13.961
				c4.384-8.024,12.74-13.057,22.062-13.057c13.885,0,25.18,11.29,25.18,25.18c0,13.069-10.01,23.847-22.765,25.064
				c0.048,10.872,0.074,26.364,0.074,46.108c0,19.717-10.041,38.923-28.275,54.08c-16.847,13.998-38.728,22.354-58.538,22.354
				H200.661L200.661,217.767z M200.559,212.788c0.044,0,0.091,0,0.111,0h0.368c37.13,0,81.897-31.871,81.897-71.455
				c0-21.235-0.027-37.539-0.086-48.47c-0.006-0.667,0.257-1.3,0.724-1.767c0.516-0.525,1.292-0.8,2.018-0.727
				c10.973-0.006,20.037-9.067,20.037-20.208c0-11.136-9.064-20.201-20.201-20.201c-8.321,0-15.69,5.005-18.771,12.755
				c-0.284,0.727-0.891,1.272-1.634,1.482c-0.743,0.209-1.555,0.061-2.171-0.401c-8.125-6.082-20.229-11.847-32.378-15.412
				c-0.78-0.231-1.399-0.826-1.657-1.602c-0.948-2.82,0.133-5.828,1.603-8.266c-3.194,1.145-7.129,3.358-11.259,6.383
				c-0.545,0.396-1.222,0.555-1.888,0.446l-0.798-0.144c-0.426-0.071-0.853-0.149-1.285-0.215c-0.958-0.144-1.751-0.831-2.023-1.763
				c-0.972-3.327-0.253-7.979,0.647-11.648c-5.072,3.515-10.002,9.292-11.716,11.391c-0.466,0.578-1.175,0.913-1.92,0.913
				l-1.361-0.005l-0.568,0.005c-1.095,0.017-2.012-0.627-2.383-1.614c-2.126-5.667-0.116-14.364,1.739-20.201
				c-12.187,7.489-19.435,21.265-20.367,23.099c-0.284,0.77-0.933,1.364-1.779,1.559c-19.258,4.301-33.232,12.114-39.889,17.991
				c-0.625,0.545-1.483,0.75-2.286,0.545c-0.804-0.22-1.449-0.819-1.718-1.607c-2.793-8.189-10.474-13.691-19.106-13.691
				c-11.141,0-20.205,9.065-20.205,20.201c0,11.141,9.063,20.202,20.205,20.202c0.875,0,1.817-0.078,2.957-0.248
				c0.722-0.111,1.445,0.109,1.994,0.588c0.552,0.476,0.862,1.17,0.859,1.89c-0.06,10.889-0.087,27.285-0.087,48.741
				c0,39.584,44.768,71.455,81.831,71.455h0.43C200.487,212.783,200.517,212.788,200.559,212.788z"/>
		</g>
		<g>
			<path fill="#BF8C77" d="M252.195,160.258c0,16.709-23.165,30.252-51.737,30.252c-28.583,0-51.744-13.543-51.744-30.252
				c0-16.71,23.161-30.253,51.744-30.253C229.03,130.005,252.195,143.548,252.195,160.258z"/>
			<path fill="#414D4D" d="M200.458,193.004c-29.908,0-54.235-14.694-54.235-32.746c0-18.059,24.327-32.747,54.235-32.747
				c29.898,0,54.229,14.688,54.229,32.747C254.687,178.31,230.356,193.004,200.458,193.004z M200.458,132.494
				c-27.161,0-49.255,12.458-49.255,27.764c0,15.311,22.094,27.763,49.255,27.763c27.152,0,49.246-12.452,49.246-27.763
				C249.704,144.952,227.61,132.494,200.458,132.494z"/>
		</g>
		<g>
			<path fill="#FFFFFF" d="M216.203,177.699c0,6.929-5.993,18.957-16.026,18.957l0.093-42.788
				C200.18,172.373,216.203,177.699,216.203,177.699z"/>
			<path fill="#414D4D" d="M200.177,199.152c-0.662,0-1.295-0.265-1.764-0.733c-0.468-0.469-0.727-1.106-0.727-1.768L197.78,154
				c0-0.021,0-0.054,0-0.083v-0.049v-0.012c0.005-1.364,1.123-2.478,2.489-2.478c0,0,0.006,0,0.012,0
				c1.374,0.006,2.482,1.123,2.478,2.494c0,0.028,0,0.061,0,0.083c0,0.028,0,0.049,0,0.073
				c0.005,16.396,14.088,21.258,14.231,21.308c1.017,0.337,1.705,1.288,1.705,2.362c0,4.251-1.809,9.435-4.713,13.515
				C210.349,196.331,205.446,199.152,200.177,199.152z M202.726,170.22l-0.055,23.627c6.251-1.651,10.229-9.269,10.929-14.556
				C211.059,178.068,206.35,175.294,202.726,170.22z"/>
		</g>
		<g>
			<path fill="#FFFFFF" d="M184.155,177.903c0,6.923,5.993,18.753,16.022,18.753l0.093-42.788
				C200.359,172.373,184.155,177.903,184.155,177.903z"/>
			<path fill="#414D4D" d="M200.177,199.152c-11.301,0-18.515-12.587-18.515-21.249c0-1.063,0.679-2.015,1.687-2.358
				c0.578-0.201,14.278-5.16,14.432-21.252v-0.424c0.003-1.376,1.115-2.483,2.489-2.489l0,0c1.371,0,2.484,1.113,2.489,2.478v0.453
				l-0.091,42.358C202.665,198.039,201.548,199.152,200.177,199.152z M186.758,179.479c0.707,5.227,4.686,12.743,10.935,14.374
				l0.049-23.545C194.074,175.419,189.31,178.239,186.758,179.479z"/>
		</g>
		<g>
			<path fill="#414D4D" d="M164.604,99.074c0,5.355-4.334,9.689-9.689,9.689c-5.347,0-9.683-4.334-9.683-9.689
				c0-5.342,4.336-9.681,9.683-9.681C160.27,89.393,164.604,93.732,164.604,99.074z"/>
			<path fill="#414D4D" d="M154.915,111.25c-6.713,0-12.177-5.458-12.177-12.177c0-6.707,5.464-12.177,12.177-12.177
				c6.715,0,12.177,5.471,12.177,12.177C167.092,105.793,161.629,111.25,154.915,111.25z M154.915,91.882
				c-3.964,0-7.192,3.228-7.192,7.192c0,3.971,3.228,7.198,7.192,7.198c3.966,0,7.197-3.228,7.197-7.198
				C162.111,95.109,158.88,91.882,154.915,91.882z"/>
		</g>
		<g>
			<path fill="#414D4D" d="M256.11,99.074c0,5.355-4.338,9.689-9.688,9.689c-5.347,0-9.681-4.334-9.681-9.689
				c0-5.342,4.334-9.681,9.681-9.681C251.772,89.393,256.11,93.732,256.11,99.074z"/>
			<path fill="#414D4D" d="M246.422,111.25c-6.708,0-12.172-5.458-12.172-12.177c0-6.707,5.464-12.177,12.172-12.177
				c6.715,0,12.178,5.471,12.178,12.177C258.6,105.793,253.137,111.25,246.422,111.25z M246.422,91.882
				c-3.966,0-7.193,3.228-7.193,7.192c0,3.971,3.228,7.198,7.193,7.198c3.971,0,7.199-3.228,7.199-7.198
				C253.621,95.109,250.393,91.882,246.422,91.882z"/>
		</g>
		<g>
			<path fill="#FFFFFF" d="M256.11,94.399c0,3.311-2.683,5.993-5.993,5.993s-5.991-2.682-5.991-5.993
				c0-3.303,2.681-5.993,5.991-5.993S256.11,91.096,256.11,94.399z"/>
		</g>
		<g>
			<path fill="#FFFFFF" d="M164.604,94.399c0,3.311-2.683,5.993-5.993,5.993c-3.313,0-5.996-2.682-5.996-5.993
				c0-3.303,2.683-5.993,5.996-5.993C161.921,88.406,164.604,91.096,164.604,94.399z"/>
		</g>
		<g>
			<g>
				<path fill="#916A54" d="M229.883,103.459c-0.109,1.206,7.427,2.902,16.842,3.788c9.413,0.894,17.139,0.641,17.249-0.562
					l5.205,0.492l-1.013,10.706l-44.496-4.208l1.015-10.707L229.883,103.459z"/>
			</g>
		</g>
		<g>
			<g>
				<path fill="#916A54" d="M171.46,103.459c0.107,1.206-7.43,2.902-16.843,3.788c-9.414,0.894-17.139,0.641-17.254-0.562
					l-5.198,0.492l1.011,10.706l44.498-4.208l-1.014-10.707L171.46,103.459z"/>
			</g>
		</g>
		<g>
			<path fill="#BF8C77" d="M277.956,141.934c-2.173-3.006-7.433-9.374-26.147-20.279c-22.625-13.135-49.848-13.097-51.351-13.085
				c-1.51-0.012-28.733-0.05-51.353,13.085c-18.723,10.905-23.979,17.273-26.156,20.279c-2.322,3.216-4.576,6.89-4.576,12.765
				c0,5.884,3.268,9.997,7.258,14.513c3.991,4.511,13.951,13.113,31.732,13.521c28.746,0,41.875-11.075,42.905-28.865
				c1.03,17.79,14.529,28.865,43.278,28.865c17.778-0.408,27.738-9.011,31.728-13.521c3.991-4.516,7.26-8.629,7.26-14.513
				C282.535,148.824,280.282,145.15,277.956,141.934z"/>
			<path fill="#414D4D" d="M243.548,185.223c-27.036,0-38.723-9.4-43.267-20.074c-4.516,10.674-16.11,20.074-42.917,20.074
				c-19.268-0.441-29.916-10.193-33.599-14.362c-4.313-4.886-7.884-9.475-7.884-16.161c0-6.68,2.608-10.849,5.049-14.225
				c2.843-3.926,8.725-10.37,26.921-20.971c22.466-13.049,49.372-13.422,52.368-13.422h0.256h0.218
				c2.99,0,29.898,0.373,52.362,13.422c18.211,10.611,24.088,17.05,26.921,20.971c2.443,3.376,5.048,7.545,5.048,14.225
				c0,6.687-3.569,11.275-7.881,16.161c-3.685,4.169-14.331,13.921-33.541,14.362C243.586,185.223,243.566,185.223,243.548,185.223z
				 M200.22,111.059c-2.857,0-28.528,0.358-49.864,12.745c-19.387,11.302-23.903,17.541-25.388,19.59
				c-2.078,2.867-4.105,6.111-4.105,11.305c0,4.969,2.75,8.467,6.637,12.861c3.249,3.683,12.672,12.287,29.922,12.679
				c25.742,0,39.342-8.923,40.362-26.508c0.078-1.321,1.167-2.352,2.486-2.352l0,0c1.321,0,2.411,1.031,2.487,2.352
				c1.264,21.897,22.857,26.501,40.763,26.508c17.222-0.396,26.641-8.996,29.89-12.679c3.885-4.394,6.635-7.893,6.635-12.861
				c0-5.193-2.024-8.438-4.104-11.305c-1.481-2.05-5.986-8.279-25.386-19.59c-21.337-12.387-47.007-12.745-49.86-12.745
				l-0.214,0.006L200.22,111.059z"/>
		</g>
		<g>
			<path fill="#566261" d="M200.005,98.182c-11.939,0-19.025,2.699-19.025,5.702c0,11.4,11.092,23.032,19.025,23.032
				c7.932,0,19.022-11.632,19.022-23.032C219.027,100.881,211.942,98.182,200.005,98.182z"/>
			<path fill="#414D4D" d="M200.005,129.404c-9.197,0-21.518-12.616-21.518-25.52c0-6.038,11.115-8.19,21.518-8.19
				c10.398,0,21.513,2.152,21.513,8.19C221.519,116.788,209.199,129.404,200.005,129.404z M183.473,104.009
				c0.083,10.348,10.485,20.416,16.533,20.416s16.445-10.068,16.531-20.416c-0.619-0.948-5.421-3.332-16.531-3.332
				C188.892,100.678,184.088,103.061,183.473,104.009z"/>
		</g>
		<g>
			<path fill="#566261" d="M170.166,108.763c-0.533,0.286-12.375,4.493-30.494,3.31"/>
			<path fill="#414D4D" d="M146.041,114.775c-2.08,0-4.261-0.066-6.536-0.218c-1.371-0.089-2.408-1.273-2.317-2.645
				c0.088-1.376,1.264-2.39,2.643-2.324c17.991,1.183,29.179-3.039,29.28-3.085c1.209-0.649,2.661-0.159,3.313,1.054
				c0.647,1.206,0.128,2.747-1.085,3.396C170.26,111.538,160.638,114.775,146.041,114.775z"/>
		</g>
		<g>
			<path fill="#566261" d="M231.175,108.763c0.531,0.286,12.373,4.493,30.498,3.31"/>
			<path fill="#414D4D" d="M255.301,114.775c-14.601,0-24.219-3.237-25.303-3.822c-1.21-0.649-1.668-2.157-1.018-3.37
				c0.633-1.172,2.07-1.635,3.263-1.074c0.478,0.182,11.587,4.235,29.267,3.079c1.369-0.061,2.559,0.948,2.647,2.324
				c0.09,1.371-0.951,2.555-2.325,2.645C259.563,114.709,257.382,114.775,255.301,114.775z"/>
		</g>
		<g>
			<path fill="#647070" d="M206.856,105.767c0,1.546-3.068,2.803-6.851,2.803s-6.852-1.257-6.852-2.803
				c0-1.542,3.069-2.798,6.852-2.798S206.856,104.224,206.856,105.767z"/>
		</g>
		<g>
			<path fill="#414D4D" d="M227.019,148.142c-1.14,0-2.171-0.783-2.428-1.946c-0.303-1.343,0.541-2.676,1.883-2.98
				c0.436-0.099,43.987-9.631,102.952-2.751c1.361,0.165,2.341,1.397,2.181,2.765c-0.16,1.364-1.398,2.345-2.759,2.185
				c-58.071-6.791-100.853,2.572-101.28,2.666C227.384,148.119,227.198,148.142,227.019,148.142z"/>
		</g>
		<g>
			<path fill="#414D4D" d="M319.175,162.03c-0.191,0-0.385-0.021-0.578-0.066c-34.365-8.117-81.763-5.087-82.235-5.055
				c-1.373,0.083-2.559-0.948-2.649-2.319s0.946-2.555,2.318-2.649c0.479-0.033,48.609-3.117,83.713,5.177
				c1.338,0.32,2.164,1.658,1.851,2.996C321.324,161.26,320.302,162.03,319.175,162.03z"/>
		</g>
		<g>
			<path fill="#414D4D" d="M296.479,173.381c-0.236,0-0.474-0.033-0.71-0.104c-17.2-5.106-55.156-6.252-55.537-6.263
				c-1.374-0.039-2.457-1.184-2.418-2.56c0.038-1.377,1.178-2.517,2.561-2.418c1.586,0.043,38.992,1.179,56.809,6.465
				c1.323,0.392,2.074,1.778,1.682,3.095C298.543,172.683,297.554,173.381,296.479,173.381z"/>
		</g>
		<g>
			<path fill="#414D4D" d="M173.063,148.142c-0.182,0-0.363-0.023-0.548-0.061c-0.426-0.094-43.214-9.457-101.28-2.666
				c-1.366,0.154-2.6-0.821-2.758-2.185c-0.16-1.368,0.814-2.6,2.18-2.765c58.958-6.88,102.517,2.659,102.948,2.751
				c1.341,0.304,2.186,1.637,1.887,2.98C175.227,147.359,174.203,148.142,173.063,148.142z"/>
		</g>
		<g>
			<path fill="#414D4D" d="M80.906,162.03c-1.126,0-2.149-0.77-2.42-1.916c-0.317-1.338,0.512-2.676,1.854-2.996
				c35.097-8.294,83.229-5.21,83.708-5.177c1.371,0.094,2.412,1.278,2.317,2.649c-0.087,1.371-1.26,2.395-2.648,2.319
				c-0.474-0.033-47.87-3.062-82.237,5.055C81.291,162.008,81.096,162.03,80.906,162.03z"/>
		</g>
		<g>
			<path fill="#414D4D" d="M103.6,173.381c-1.074,0-2.065-0.698-2.389-1.784c-0.39-1.316,0.36-2.703,1.68-3.095
				c17.818-5.286,55.228-6.422,56.813-6.465c1.371-0.106,2.522,1.041,2.564,2.418c0.038,1.376-1.047,2.521-2.418,2.56
				c-0.38,0.011-38.348,1.156-55.54,6.263C104.073,173.348,103.834,173.381,103.6,173.381z"/>
		</g>
		<g>
			<path fill="#BF8C77" d="M132.579,70.166c0,9.551-7.745,17.294-17.297,17.294c-9.554,0-17.299-7.744-17.299-17.294
				c0-9.561,7.745-17.304,17.299-17.304C124.834,52.861,132.579,60.605,132.579,70.166z"/>
		</g>
		<g>
			<path fill="#BF8C77" d="M298.823,70.166c0,9.551-7.747,17.294-17.296,17.294c-9.556,0-17.299-7.744-17.299-17.294
				c0-9.561,7.743-17.304,17.299-17.304C291.076,52.861,298.823,60.605,298.823,70.166z"/>
		</g>
		<g>
			<path fill="#414D4D" d="M285.426,95.341c-3.868,0-7.582-0.853-11.037-2.539c-1.232-0.606-1.748-2.093-1.145-3.332
				c0.606-1.234,2.098-1.746,3.331-1.146c2.769,1.35,5.745,2.039,8.851,2.039c11.137,0,20.201-9.061,20.201-20.202
				c0-11.136-9.064-20.201-20.201-20.201c-11.142,0-20.201,9.065-20.201,20.201c0,1.377-1.117,2.489-2.491,2.489
				c-1.377,0-2.492-1.112-2.492-2.489c0-13.89,11.298-25.18,25.185-25.18c13.885,0,25.18,11.29,25.18,25.18
				C310.605,84.045,299.311,95.341,285.426,95.341z"/>
		</g>
		<g>
			<path fill="#414D4D" d="M112.458,95.341c-13.89,0-25.187-11.295-25.187-25.18c0-13.89,11.297-25.18,25.187-25.18
				c13.883,0,25.18,11.29,25.18,25.18c0,1.377-1.115,2.489-2.493,2.489c-1.376,0-2.491-1.112-2.491-2.489
				c0-11.136-9.06-20.201-20.197-20.201c-11.141,0-20.205,9.065-20.205,20.201c0,11.141,9.063,20.202,20.205,20.202
				c3.101,0,6.077-0.689,8.846-2.039c1.239-0.6,2.725-0.087,3.332,1.146c0.6,1.239,0.087,2.725-1.145,3.332
				C120.037,94.488,116.322,95.341,112.458,95.341z"/>
		</g>
		<g>
			<polygon fill="#D7DADB" points="108.582,486.769 77.447,486.769 77.447,241.455 108.582,229.139 			"/>
			<path fill="#414D4D" d="M108.582,489.258H77.447c-1.371,0-2.489-1.111-2.489-2.489V241.455c0-1.02,0.625-1.939,1.576-2.319
				l31.133-12.316c0.766-0.297,1.63-0.203,2.312,0.262c0.684,0.462,1.092,1.232,1.092,2.058v257.63
				C111.071,488.146,109.958,489.258,108.582,489.258z M79.94,484.284h26.151V232.803L79.94,243.146V484.284z"/>
		</g>
		<g>
			<polygon fill="#647070" points="87.826,517.901 98.618,517.901 98.618,233.149 87.826,237.302 			"/>
			<path fill="#414D4D" d="M98.618,520.396H87.826c-1.376,0-2.491-1.116-2.491-2.494v-280.6c0-1.03,0.636-1.949,1.599-2.325
				l10.793-4.146c0.765-0.297,1.63-0.198,2.302,0.271c0.677,0.462,1.079,1.227,1.079,2.048v284.752
				C101.107,519.279,99.996,520.396,98.618,520.396z M90.318,515.412h5.81V236.778l-5.81,2.235V515.412z"/>
		</g>
		<g>
			<g>
				<path fill="#647070" d="M84.195,392.508c0,1.768,1.431,3.201,3.195,3.201h11.457c1.764,0,3.198-1.434,3.198-3.201V378.92
					c0-1.761-1.434-3.194-3.198-3.194H87.39c-1.764,0-3.195,1.434-3.195,3.194V392.508z"/>
				<path fill="#414D4D" d="M98.846,398.196H87.39c-3.135,0-5.686-2.551-5.686-5.688V378.92c0-3.132,2.55-5.688,5.686-5.688h11.457
					c3.137,0,5.686,2.557,5.686,5.688v13.588C104.532,395.646,101.983,398.196,98.846,398.196z M87.39,378.216
					c-0.39,0-0.707,0.319-0.707,0.704v13.588c0,0.392,0.317,0.71,0.707,0.71h11.457c0.388,0,0.708-0.318,0.708-0.71V378.92
					c0-0.385-0.32-0.704-0.708-0.704H87.39z"/>
			</g>
			<g>
				<line fill="#8A9BAF" x1="93.121" y1="377.936" x2="93.121" y2="385.838"/>
				<path fill="#414D4D" d="M93.121,388.328c-1.376,0-2.494-1.113-2.494-2.49v-7.902c0-1.371,1.118-2.491,2.494-2.491
					c1.377,0,2.491,1.12,2.491,2.491v7.902C95.612,387.215,94.499,388.328,93.121,388.328z"/>
			</g>
			<g>
				<path fill="#414D4D" d="M91.77,369.508c0,0.92,0.74,1.658,1.66,1.658c0.914,0,1.663-0.738,1.663-1.658
					c0-0.913-0.75-1.661-1.663-1.661C92.51,367.847,91.77,368.595,91.77,369.508z"/>
			</g>
			<g>
				<path fill="#414D4D" d="M91.77,402.712c0,0.922,0.74,1.665,1.66,1.665c0.914,0,1.663-0.743,1.663-1.665
					c0-0.918-0.75-1.656-1.663-1.656C92.51,401.056,91.77,401.794,91.77,402.712z"/>
			</g>
			<g>
				<path fill="#414D4D" d="M91.77,411.844c0,0.921,0.74,1.665,1.66,1.665c0.914,0,1.663-0.744,1.663-1.665
					c0-0.914-0.75-1.657-1.663-1.657C92.51,410.187,91.77,410.93,91.77,411.844z"/>
			</g>
			<g>
				<path fill="#414D4D" d="M91.77,358.923c0,0.919,0.74,1.664,1.66,1.664c0.914,0,1.663-0.745,1.663-1.664
					c0-0.92-0.75-1.658-1.663-1.658C92.51,357.265,91.77,358.003,91.77,358.923z"/>
			</g>
			<g>
				<path fill="#414D4D" d="M91.77,348.339c0,0.918,0.74,1.661,1.66,1.661c0.914,0,1.663-0.743,1.663-1.661
					c0-0.922-0.75-1.658-1.663-1.658C92.51,346.681,91.77,347.417,91.77,348.339z"/>
			</g>
		</g>
		<g>
			<polygon fill="#D7DADB" points="288.731,486.769 319.864,486.769 319.864,241.455 288.731,229.139 			"/>
			<path fill="#414D4D" d="M319.864,489.258h-31.133c-1.378,0-2.489-1.111-2.489-2.489v-257.63c0-0.825,0.406-1.596,1.09-2.058
				c0.683-0.465,1.548-0.559,2.312-0.262l31.135,12.316c0.946,0.38,1.574,1.3,1.574,2.319v245.313
				C322.354,488.146,321.241,489.258,319.864,489.258z M291.221,484.284h26.149V243.146l-26.149-10.344V484.284z"/>
		</g>
		<g>
			<polygon fill="#647070" points="309.482,517.901 298.693,517.901 298.693,233.149 309.482,237.302 			"/>
			<path fill="#414D4D" d="M309.482,520.396h-10.789c-1.376,0-2.488-1.116-2.488-2.494V233.149c0-0.821,0.401-1.586,1.076-2.048
				c0.677-0.47,1.542-0.568,2.304-0.271l10.793,4.146c0.961,0.376,1.601,1.295,1.601,2.325v280.6
				C311.979,519.279,310.86,520.396,309.482,520.396z M301.184,515.412h5.81V239.014l-5.81-2.235V515.412z"/>
		</g>
		<g>
			<g>
				<path fill="#647070" d="M313.118,392.508c0,1.768-1.436,3.201-3.199,3.201h-11.457c-1.765,0-3.194-1.434-3.194-3.201V378.92
					c0-1.761,1.43-3.194,3.194-3.194h11.457c1.764,0,3.199,1.434,3.199,3.194V392.508z"/>
				<path fill="#414D4D" d="M309.919,398.196h-11.457c-3.134,0-5.683-2.551-5.683-5.688V378.92c0-3.132,2.549-5.688,5.683-5.688
					h11.457c3.135,0,5.688,2.557,5.688,5.688v13.588C315.607,395.646,313.054,398.196,309.919,398.196z M298.462,378.216
					c-0.389,0-0.704,0.319-0.704,0.704v13.588c0,0.392,0.315,0.71,0.704,0.71h11.457c0.39,0,0.707-0.318,0.707-0.71V378.92
					c0-0.385-0.317-0.704-0.707-0.704H298.462z"/>
			</g>
			<g>
				<line fill="#8A9BAF" x1="304.19" y1="377.936" x2="304.19" y2="385.838"/>
				<path fill="#414D4D" d="M304.19,388.328c-1.371,0-2.489-1.113-2.489-2.49v-7.902c0-1.371,1.118-2.491,2.489-2.491
					c1.377,0,2.49,1.12,2.49,2.491v7.902C306.681,387.215,305.567,388.328,304.19,388.328z"/>
			</g>
			<g>
				<path fill="#414D4D" d="M305.54,369.508c0,0.92-0.745,1.658-1.659,1.658c-0.92,0-1.663-0.738-1.663-1.658
					c0-0.913,0.743-1.661,1.663-1.661C304.795,367.847,305.54,368.595,305.54,369.508z"/>
			</g>
			<g>
				<path fill="#414D4D" d="M305.54,402.712c0,0.922-0.745,1.665-1.659,1.665c-0.92,0-1.663-0.743-1.663-1.665
					c0-0.918,0.743-1.656,1.663-1.656C304.795,401.056,305.54,401.794,305.54,402.712z"/>
			</g>
			<g>
				<path fill="#414D4D" d="M305.54,411.844c0,0.921-0.745,1.665-1.659,1.665c-0.92,0-1.663-0.744-1.663-1.665
					c0-0.914,0.743-1.657,1.663-1.657C304.795,410.187,305.54,410.93,305.54,411.844z"/>
			</g>
			<g>
				<path fill="#414D4D" d="M305.54,358.923c0,0.919-0.745,1.664-1.659,1.664c-0.92,0-1.663-0.745-1.663-1.664
					c0-0.92,0.743-1.658,1.663-1.658C304.795,357.265,305.54,358.003,305.54,358.923z"/>
			</g>
			<g>
				<path fill="#414D4D" d="M305.54,348.339c0,0.918-0.745,1.661-1.659,1.661c-0.92,0-1.663-0.743-1.663-1.661
					c0-0.922,0.743-1.658,1.663-1.658C304.795,346.681,305.54,347.417,305.54,348.339z"/>
			</g>
		</g>
		<g>
			<polyline fill="#6EBCDB" points="211.765,328.064 186.722,328.064 186.722,254.738 211.765,254.738 			"/>
			<path fill="#414D4D" d="M211.765,330.559h-25.043c-1.378,0-2.489-1.116-2.489-2.494v-73.326c0-1.378,1.111-2.489,2.489-2.489
				h25.043c1.376,0,2.489,1.111,2.489,2.489s-1.113,2.489-2.489,2.489h-22.556v68.35h22.556c1.376,0,2.489,1.116,2.489,2.487
				C214.254,329.442,213.141,330.559,211.765,330.559z"/>
		</g>
		<g>
			<path fill="#DE5242" d="M199.46,254.953c0,0,15.041-5.8,30.442-26.095c15.408-20.301,14.682-19.761,18.129-24.646l9.499,4.868
				c0,0-2.8,45.509-29.441,69.434C228.089,278.515,207.975,257.492,199.46,254.953z"/>
			<path fill="#414D4D" d="M228.089,281.004c-0.654,0-1.307-0.26-1.797-0.771c-5.471-5.717-21.08-20.968-27.542-22.895
				c-1.024-0.304-1.734-1.222-1.779-2.292c-0.038-1.058,0.6-2.037,1.594-2.417c0.139-0.055,14.631-5.877,29.356-25.28
				c12.395-16.33,14.332-19.147,16.379-22.135c0.505-0.731,1.021-1.479,1.691-2.438c0.715-1.015,2.069-1.345,3.175-0.783
				l9.504,4.873c0.883,0.452,1.411,1.384,1.352,2.368c-0.033,0.479-0.767,11.81-4.82,26.268
				c-3.77,13.421-11.24,32.107-25.444,44.862C229.283,280.789,228.686,281.004,228.089,281.004z M205.03,254.946
				c8.001,5.009,18.816,15.664,23.146,20.076c21.312-20.779,25.947-56.513,26.732-64.487l-6.08-3.117
				c-0.143,0.215-0.284,0.413-0.422,0.617c-2.084,3.033-4.05,5.904-16.52,22.326C221.271,244.352,210.838,251.633,205.03,254.946z"
				/>
		</g>
		<g>
			<path fill="#DE5242" d="M199.212,254.953c0,0-15.041-5.8-30.446-26.095c-15.405-20.301-14.678-19.761-18.122-24.646l-9.502,4.868
				c0,0,2.798,45.509,29.437,69.434C170.579,278.515,190.697,257.492,199.212,254.953z"/>
			<path fill="#414D4D" d="M170.579,281.004c-0.595,0-1.189-0.215-1.664-0.64c-14.208-12.755-21.676-31.441-25.444-44.862
				c-4.054-14.458-4.787-25.793-4.817-26.268c-0.062-0.984,0.469-1.916,1.353-2.368l9.5-4.873c1.106-0.562,2.463-0.231,3.171,0.783
				c0.674,0.958,1.191,1.706,1.698,2.444c2.048,2.985,3.988,5.805,16.373,22.128c14.81,19.508,29.219,25.226,29.362,25.28
				c0.993,0.38,1.635,1.359,1.589,2.417c-0.04,1.07-0.757,1.988-1.777,2.292c-6.465,1.927-22.075,17.178-27.542,22.895
				C171.89,280.744,171.234,281.004,170.579,281.004z M143.765,210.535c0.791,7.975,5.439,43.729,26.731,64.487
				c4.329-4.412,15.14-15.067,23.148-20.076c-5.809-3.313-16.242-10.595-26.86-24.585c-12.464-16.422-14.43-19.293-16.518-22.32
				c-0.137-0.204-0.281-0.408-0.419-0.623L143.765,210.535z"/>
		</g>
		<g>
			<path fill="#414D4D" d="M195.608,270.512c0,2.005,1.632,3.629,3.638,3.629c2.001,0,3.628-1.624,3.628-3.629
				c0-2.011-1.627-3.636-3.628-3.636C197.24,266.876,195.608,268.501,195.608,270.512z"/>
		</g>
		<g>
			<path fill="#414D4D" d="M195.608,291.213c0,2.006,1.632,3.631,3.638,3.631c2.001,0,3.628-1.625,3.628-3.631
				c0-2.009-1.627-3.634-3.628-3.634C197.24,287.579,195.608,289.204,195.608,291.213z"/>
		</g>
		<g>
			<path fill="#414D4D" d="M195.608,311.917c0,2.005,1.632,3.63,3.638,3.63c2.001,0,3.628-1.625,3.628-3.63
				c0-2.011-1.627-3.634-3.628-3.634C197.24,308.283,195.608,309.906,195.608,311.917z"/>
		</g>
	</g>
</g>
<g>
	<defs>
		<circle id="SVGID_1_" cx="-535.249" cy="26.756" r="133.501"/>
	</defs>
	<clipPath id="SVGID_2_">
		<use xlink:href="#SVGID_1_"  overflow="visible"/>
	</clipPath>
	<g clip-path="url(#SVGID_2_)">
		<rect x="-464.826" y="121.649" fill="#916A54" width="29.121" height="32.721"/>
		<path fill="#414D4D" d="M-435.705,155.842h-29.121c-0.814,0-1.473-0.658-1.473-1.473v-32.721c0-0.811,0.658-1.471,1.473-1.471
			h29.121c0.813,0,1.473,0.66,1.473,1.471v32.721C-434.232,155.184-434.892,155.842-435.705,155.842z M-463.354,152.899h26.178
			v-29.777h-26.178V152.899z"/>
	</g>
	<g clip-path="url(#SVGID_2_)">
		<rect x="-637.592" y="121.649" fill="#916A54" width="29.121" height="32.721"/>
		<path fill="#414D4D" d="M-608.471,155.842h-29.121c-0.814,0-1.473-0.658-1.473-1.473v-32.721c0-0.811,0.658-1.471,1.473-1.471
			h29.121c0.813,0,1.473,0.66,1.473,1.471v32.721C-606.998,155.184-607.657,155.842-608.471,155.842z M-636.12,152.899h26.177
			v-29.777h-26.177V152.899z"/>
	</g>
	<g clip-path="url(#SVGID_2_)">
		<path fill="#D7DADB" d="M-457.562,71.027c0,1.628-1.315,2.943-2.943,2.943h-150.842c-1.627,0-2.945-1.315-2.945-2.943V33.725
			c0-1.625,1.318-2.947,2.945-2.947h150.842c1.628,0,2.943,1.322,2.943,2.947V71.027z"/>
		<path fill="#414D4D" d="M-460.506,75.446h-150.842c-2.438,0-4.419-1.983-4.419-4.419V33.725c0-2.439,1.981-4.418,4.419-4.418
			h150.842c2.436,0,4.417,1.979,4.417,4.418v37.302C-456.089,73.462-458.07,75.446-460.506,75.446z M-611.348,32.25
			c-0.812,0-1.474,0.66-1.474,1.475v37.302c0,0.812,0.661,1.472,1.474,1.472h150.842c0.812,0,1.474-0.66,1.474-1.472V33.725
			c0-0.814-0.661-1.475-1.474-1.475H-611.348z"/>
	</g>
	<g clip-path="url(#SVGID_2_)">
		<path fill="#5DC4B9" d="M-439.687,66.852c-2.577-14.477-4.908-14.353-11.577-17.973c-5.931-2.879-19.1-8.284-29.896-13.067
			c-10.798-4.786-21.473-15.095-21.473-15.095h-32.762h-34.236c0,0-10.674,10.309-21.473,15.095
			C-601.9,40.595-615.068,46-621.001,48.879c-6.667,3.62-8.998,3.496-11.577,17.973c-2.575,14.48-10.551,59.268-10.551,59.268
			l35.462,6.994v57.178h72.272h70.799v-57.178l35.463-6.994C-429.133,126.12-437.109,81.333-439.687,66.852z"/>
		<path fill="#414D4D" d="M-464.596,191.766h-143.071c-0.813,0-1.474-0.66-1.474-1.475v-55.966l-34.273-6.763
			c-0.786-0.153-1.306-0.908-1.164-1.7l10.552-59.268c2.346-13.181,4.555-14.942,10.602-18.095c0.539-0.285,1.113-0.582,1.723-0.914
			c3.604-1.752,9.762-4.387,16.282-7.18c4.584-1.964,9.326-3.996,13.721-5.942c10.439-4.627,20.941-14.704,21.046-14.806
			c0.275-0.264,0.644-0.414,1.022-0.414h66.998c0.383,0,0.747,0.15,1.021,0.414c0.106,0.102,10.62,10.186,21.048,14.806
			c4.393,1.946,9.136,3.979,13.722,5.942c6.519,2.793,12.678,5.428,16.222,7.15c0.669,0.361,1.242,0.658,1.782,0.943
			c6.045,3.152,8.254,4.914,10.601,18.095l10.554,59.268c0.139,0.792-0.379,1.547-1.166,1.7l-34.272,6.763v55.966
			C-463.122,191.106-463.781,191.766-464.596,191.766z M-606.193,188.82h140.126v-55.706c0-0.703,0.497-1.309,1.187-1.445
			l34.043-6.714l-10.297-57.845c-2.213-12.426-3.94-13.324-9.065-16c-0.554-0.291-1.142-0.596-1.763-0.936
			c-3.424-1.66-9.553-4.285-16.039-7.062c-4.592-1.967-9.344-4.002-13.755-5.958c-9.806-4.344-19.313-12.953-21.464-14.962h-65.82
			c-2.15,2.009-11.66,10.618-21.465,14.962c-4.41,1.956-9.16,3.991-13.757,5.958c-6.484,2.777-12.612,5.402-16.095,7.096
			c-0.565,0.307-1.152,0.611-1.705,0.902c-5.127,2.676-6.852,3.574-9.064,16l-10.299,57.845l34.042,6.714
			c0.69,0.137,1.19,0.742,1.19,1.445V188.82z"/>
	</g>
	<g clip-path="url(#SVGID_2_)">
		<g>
			<path fill-rule="evenodd" clip-rule="evenodd" fill="#414D4D" d="M-486.043,96.734c0.198-0.042,0.393-0.091,0.592-0.127
				c0.932-0.156,1.838-0.491,2.806-0.394c0.231,0.02,0.462,0.052,0.692,0.084c0.16,0.026,0.343,0.056,0.406-0.123
				c0.046-0.127,0.041-0.312-0.021-0.434c-0.184-0.371-0.473-0.629-0.9-0.746c-0.66-0.179-1.34-0.191-1.992-0.11
				c-0.895,0.107-1.77,0.342-2.65,0.537c-1.242,0.274-3.029,0.932-4.318,1.036c-0.512,0.045-0.711,0.406-0.587,0.95
				c0.107,0.485,0.446,0.651,0.944,0.521c0.824-0.221,2.266-0.537,3.094-0.755c0.061-0.017,0.111-0.026,0.154-0.029l-0.397,14.229
				h-0.003c-0.007,0.074-0.006,0.152,0.004,0.225c0.028,0.191,0.156,0.403,0.379,0.391c0.216-0.01,0.519-0.127,0.652-0.293
				c0.142-0.176,0.18-0.293,0.213-0.495l0.006-0.117l0.809-14.313C-486.128,96.753-486.089,96.741-486.043,96.734z"/>
		</g>
		<g>
			<path fill-rule="evenodd" clip-rule="evenodd" fill="#414D4D" d="M-490.182,98.922c0.19-0.439,0.266-0.938,0.22-1.479
				c-0.041-0.459-0.139-0.879-0.294-1.247c-0.17-0.401-0.383-0.753-0.636-1.046c-0.151-0.182-0.319-0.348-0.501-0.498
				c-0.768-0.638-1.736-0.967-2.732-0.922c-0.061,0.004-0.122,0.01-0.183,0.014c-1.062,0.095-2.022,0.6-2.704,1.42
				c-0.727,0.869-1.05,1.911-0.908,2.92c0.047,0.342,0.311,0.57,0.641,0.555c0.012,0,0.023,0,0.033,0
				c0.18-0.017,0.308-0.078,0.383-0.186c0.078-0.105,0.094-0.242,0.051-0.42c-0.067-0.274-0.127-1.026,0.748-2.082
				c0.475-0.562,1.137-0.908,1.869-0.977c0.043-0.003,0.084-0.006,0.125-0.01c0.688-0.029,1.357,0.195,1.888,0.635
				c0.851,0.714,1.128,2,0.647,2.996c-0.198,0.414-0.445,0.791-0.734,1.127c-0.286,0.325-0.605,0.609-0.949,0.84
				c-0.201,0.133-0.413,0.254-0.635,0.355c-0.061,0.032-0.195,0.094-0.27,0.113c-0.01-0.052-0.017-0.152-0.014-0.303
				c0.006-0.583,0.029-2.387,0.029-2.426c0-0.02,0.029-1.716-0.018-1.833c-0.105-0.257-0.278-0.368-0.552-0.358
				c-0.029,0.004-0.059,0.004-0.091,0.006c-0.309,0.039-0.484,0.189-0.551,0.479l-0.005,0.017v0.013l-0.139,2.67
				c-0.007,0.41-0.017,0.769-0.029,1.114c-0.015,0.322-0.029,0.647-0.044,0.97c-0.034,0.647-0.066,1.321-0.074,1.979
				c-0.017,0.876-0.02,1.811,0.042,2.745l0.007,0.081c0.014,0.234,0.04,0.635,0.066,0.817c0,0.01,0.005,0.036,0.012,0.071
				c0.042,0.336,0.094,0.74,0.125,0.877c0.063,0.283,0.248,0.484,0.504,0.55c0.082,0.02,0.174,0.029,0.263,0.022
				c0.275-0.01,0.489-0.14,0.575-0.352c0.055-0.13,0.047-0.277,0.039-0.395v-0.029c-0.002-0.041-0.014-0.195-0.026-0.413
				c-0.046-0.632-0.126-1.808-0.137-2.2c-0.01-0.392,0.015-2.16,0.015-2.238c0-0.025,0-0.055,0-0.084
				c-0.008-0.144,0.002-0.189,0.034-0.202c0.534-0.202,0.986-0.303,1.419-0.325c0.229-0.01,0.451,0.006,0.668,0.042
				c0.305,0.052,0.515,0.234,0.623,0.544c0.086,0.244,0.126,0.515,0.123,0.827c0,0.114-0.021,1.136-0.326,2.159l-0.006,0.016
				c-0.348,1.035-1.059,2.016-1.952,2.689c-0.148,0.114-0.304,0.219-0.462,0.312c-0.604,0.319-1.781,0.515-1.793,0.518
				c-0.17,0.023-0.34,0.039-0.505,0.046h-0.007c-0.006,0-0.018,0-0.025,0c0,0-0.016,0-0.021,0.003h-0.014
				c-0.277,0.014-0.43,0.134-0.511,0.234c-0.128,0.164-0.171,0.395-0.124,0.674c0.059,0.326,0.297,0.548,0.635,0.59l0.008-0.049
				l-0.002,0.049c0.013,0.004,0.178,0.004,0.198,0.004h0.001h0.006c0,0,0.295-0.017,0.41-0.023c1.053-0.045,2.121-0.459,3.086-1.188
				c1.131-0.85,1.996-2.024,2.439-3.302l0.008-0.016c0.346-0.945,0.471-1.954,0.368-2.996c-0.085-0.893-0.503-1.55-1.242-1.96
				c-0.237-0.13-0.589-0.264-0.908-0.335C-491.119,100.442-490.543,99.739-490.182,98.922z"/>
		</g>
	</g>
	<g clip-path="url(#SVGID_2_)">
		<rect x="-562.799" y="10.536" fill="#916A54" width="53.498" height="37.178"/>
		<path fill="#414D4D" d="M-509.301,49.185h-53.498c-0.812,0-1.473-0.657-1.473-1.472V10.536c0-0.814,0.66-1.476,1.473-1.476h53.498
			c0.814,0,1.473,0.661,1.473,1.476v37.178C-507.828,48.528-508.486,49.185-509.301,49.185z M-561.326,46.239h50.555V12.006h-50.555
			V46.239z"/>
	</g>
	<g clip-path="url(#SVGID_2_)">
		<path fill="#414D4D" d="M-487.863,119.735c-0.114,0-0.227-0.014-0.339-0.039l-14.921-3.52c-0.664-0.16-1.133-0.752-1.133-1.436
			V81.543c0-0.813,0.657-1.475,1.471-1.475h29.846c0.812,0,1.474,0.661,1.474,1.475v33.197c0,0.684-0.471,1.275-1.135,1.436
			l-14.925,3.52C-487.636,119.721-487.748,119.735-487.863,119.735z M-501.311,113.575l13.447,3.174l13.452-3.174V83.012h-26.899
			V113.575z"/>
	</g>
	<g clip-path="url(#SVGID_2_)">
		<path fill="#FFFFFF" d="M-509.428,17.276c0,0-8.186,20.686-26.596,29.91c4.076,1.279,11.387,8.006,16.924,13.979
			c0,0,8.604-9.388,12.393-19.631c1.358-9.896,2.131-19.527,1.996-21.158L-509.428,17.276z"/>
		<path fill="#414D4D" d="M-519.1,62.635c-0.408,0-0.799-0.168-1.078-0.472c-6.722-7.248-13.113-12.578-16.285-13.567
			c-0.572-0.184-0.979-0.694-1.027-1.29c-0.049-0.596,0.271-1.165,0.809-1.437c17.701-8.872,25.806-28.937,25.887-29.139
			c0.163-0.41,0.502-0.726,0.925-0.859c0.422-0.133,0.883-0.071,1.252,0.173l4.718,3.103c0.379,0.251,0.621,0.658,0.66,1.107
			c0.158,1.947-0.702,11.96-2.01,21.48c-0.013,0.104-0.039,0.209-0.076,0.31c-3.846,10.394-12.329,19.722-12.688,20.116
			C-518.293,62.463-518.713,62.624-519.1,62.635z M-532.783,47.104c4.748,2.833,10.667,8.743,13.642,11.862
			c2.356-2.794,8.107-10.087,10.997-17.794c1.25-9.15,1.928-17.382,1.977-19.993l-2.604-1.713
			C-511.025,24.364-518.6,38.821-532.783,47.104z"/>
	</g>
	<g clip-path="url(#SVGID_2_)">
		<path fill="#FFFFFF" d="M-562.651,17.276c0,0,8.187,20.686,26.596,29.91c-4.075,1.279-11.386,8.006-16.923,13.979
			c0,0-8.602-9.388-12.393-19.631c-1.358-9.896-2.132-19.527-1.998-21.158L-562.651,17.276z"/>
		<path fill="#414D4D" d="M-552.979,62.635c-0.004,0-0.004,0-0.004,0c-0.414,0-0.806-0.176-1.084-0.475
			c-0.358-0.395-8.84-9.723-12.686-20.116c-0.038-0.101-0.064-0.205-0.078-0.31c-1.307-9.527-2.166-19.539-2.008-21.48
			c0.039-0.449,0.281-0.856,0.659-1.107l4.718-3.103c0.37-0.244,0.83-0.306,1.252-0.173c0.424,0.134,0.764,0.449,0.929,0.859
			c0.078,0.202,8.212,20.283,25.882,29.139c0.538,0.271,0.857,0.841,0.811,1.437c-0.05,0.596-0.455,1.106-1.027,1.29
			c-3.169,0.989-9.562,6.316-16.286,13.567C-552.18,62.467-552.57,62.635-552.979,62.635z M-563.936,41.172
			c2.896,7.717,8.645,15,10.999,17.794c2.974-3.119,8.896-9.029,13.642-11.862c-14.184-8.283-21.756-22.74-24.008-27.638
			l-2.607,1.713C-565.86,23.788-565.185,32.018-563.936,41.172z"/>
	</g>
	<g clip-path="url(#SVGID_2_)">
		<rect x="-502.785" y="81.543" fill="#6EBCDB" width="29.846" height="7.295"/>
		<path fill="#414D4D" d="M-472.939,90.306h-29.846c-0.813,0-1.471-0.657-1.471-1.468v-7.295c0-0.813,0.657-1.475,1.471-1.475
			h29.846c0.812,0,1.474,0.661,1.474,1.475v7.295C-471.466,89.649-472.127,90.306-472.939,90.306z M-501.311,87.363h26.899v-4.351
			h-26.899V87.363z"/>
	</g>
	<g clip-path="url(#SVGID_2_)">
		<path fill="#916A54" d="M-485.119-75.566c-5.658,0-10.492,3.514-12.463,8.473c-4.247-3.178-11.232-6.884-19.609-9.346l0,0
			c-0.902-2.689,2.969-6.323,2.969-6.323c-3.381-0.716-8.838,2.95-10.943,4.49c-0.42-0.071-0.834-0.153-1.258-0.215
			c-0.924-3.165,1.379-9.345,1.379-9.345c-4.088,1.234-8.729,6.531-10.477,8.674c-0.393,0-0.778-0.01-1.168,0
			c-1.772-4.728,2.298-14.404,2.298-14.404c-10.308,4.092-16.075,16.117-16.075,16.117h0.013
			c-10.691,2.393-19.606,6.887-24.235,10.973c-1.802-5.284-6.797-9.094-12.69-9.094c-7.409,0-13.417,6.008-13.417,13.418
			c0,7.411,6.008,13.416,13.417,13.416c0.669,0,1.32-0.066,1.964-0.16c-0.026,5.031-0.053,13.578-0.053,28.823
			c0,24.03,26.741,43.866,50.117,43.716v0.004c0.018,0,0.039-0.004,0.059-0.004c0.021,0,0.041,0.004,0.061,0.004v-0.004
			c23.375,0.15,50.113-19.686,50.113-43.716c0-15.086-0.022-23.613-0.05-28.667c0.017,0,0.034,0.004,0.05,0.004
			c7.41,0,13.417-6.005,13.417-13.416C-471.702-69.558-477.709-75.566-485.119-75.566z"/>
		<path fill="#414D4D" d="M-535.232,25.12c-0.011,0-0.051,0-0.064,0h-0.278c-11.749,0-24.688-4.939-34.648-13.221
			c-10.779-8.957-16.715-20.311-16.715-31.968c0-11.66,0.013-20.797,0.04-27.198c-0.162,0.003-0.322,0.006-0.481,0.006
			c-8.21,0-14.89-6.678-14.89-14.887c0-8.211,6.68-14.887,14.89-14.887c5.669,0,10.776,3.214,13.282,8.18
			c5.402-4.123,13.807-7.805,22.631-9.866c1.389-2.634,7.089-12.458,16.531-16.209c0.549-0.218,1.179-0.085,1.594,0.339
			c0.416,0.424,0.536,1.055,0.309,1.602c-0.92,2.191-2.894,7.945-2.609,11.687c2.5-2.888,6.432-6.812,10.171-7.938
			c0.534-0.166,1.115-0.01,1.499,0.4c0.381,0.407,0.502,0.996,0.305,1.521c-0.682,1.84-1.551,5.073-1.501,7.241
			c2.613-1.812,6.728-4.246,10.017-4.246c0.433,0,0.848,0.043,1.233,0.125c0.537,0.11,0.966,0.514,1.114,1.041
			c0.147,0.531-0.012,1.094-0.41,1.473c-1.076,1.016-2.453,2.842-2.625,4.119c6.494,2.005,12.917,5.01,17.679,8.254
			c2.592-4.744,7.533-7.721,13.042-7.721c8.211,0,14.891,6.676,14.891,14.887c0,7.727-5.92,14.1-13.461,14.818
			c0.027,6.428,0.044,15.588,0.044,27.261c0,11.657-5.936,23.011-16.715,31.972c-9.962,8.277-22.9,13.217-34.61,13.217H-535.232
			L-535.232,25.12z M-535.292,22.176c0.026,0,0.056,0,0.065,0h0.218c21.951,0,48.419-18.844,48.419-42.245
			c0-12.556-0.018-22.194-0.053-28.657c-0.002-0.395,0.153-0.769,0.43-1.045c0.305-0.31,0.762-0.473,1.191-0.43
			c6.49-0.004,11.846-5.359,11.846-11.947c0-6.584-5.355-11.943-11.943-11.943c-4.92,0-9.274,2.96-11.094,7.541
			c-0.17,0.43-0.528,0.752-0.968,0.877c-0.441,0.123-0.917,0.035-1.283-0.238c-4.804-3.595-11.962-7.004-19.143-9.111
			c-0.461-0.137-0.829-0.488-0.979-0.947c-0.561-1.666,0.078-3.444,0.947-4.887c-1.887,0.677-4.215,1.986-6.657,3.773
			c-0.321,0.234-0.72,0.329-1.114,0.264l-0.473-0.084c-0.252-0.043-0.504-0.088-0.76-0.127c-0.568-0.085-1.035-0.492-1.196-1.043
			c-0.573-1.967-0.149-4.718,0.383-6.887c-3.001,2.078-5.915,5.494-6.926,6.734c-0.278,0.342-0.695,0.541-1.136,0.541l-0.803-0.004
			l-0.338,0.004c-0.647,0.01-1.189-0.372-1.411-0.955c-1.253-3.35-0.067-8.492,1.03-11.943
			c-7.205,4.429-11.492,12.572-12.041,13.656c-0.168,0.456-0.552,0.808-1.052,0.922c-11.386,2.543-19.647,7.163-23.583,10.637
			c-0.369,0.323-0.877,0.443-1.352,0.323c-0.476-0.13-0.857-0.485-1.016-0.951c-1.651-4.842-6.192-8.095-11.298-8.095
			c-6.585,0-11.943,5.359-11.943,11.943c0,6.588,5.358,11.943,11.943,11.943c0.52,0,1.076-0.045,1.751-0.146
			c0.424-0.064,0.854,0.065,1.178,0.349c0.324,0.28,0.51,0.69,0.508,1.116c-0.035,6.438-0.053,16.131-0.053,28.817
			c0,23.401,26.469,42.245,48.381,42.245h0.252C-535.334,22.172-535.316,22.176-535.292,22.176z"/>
	</g>
	<g clip-path="url(#SVGID_2_)">
		<path fill="#BF8C77" d="M-504.764-8.881c0,9.88-13.697,17.886-30.588,17.886c-16.898,0-30.592-8.006-30.592-17.886
			c0-9.879,13.693-17.886,30.592-17.886C-518.461-26.767-504.764-18.76-504.764-8.881z"/>
		<path fill="#414D4D" d="M-535.352,10.479c-17.682,0-32.064-8.687-32.064-19.36c0-10.677,14.383-19.36,32.064-19.36
			c17.677,0,32.061,8.684,32.061,19.36C-503.291,1.792-517.675,10.479-535.352,10.479z M-535.352-25.294
			c-16.059,0-29.121,7.365-29.121,16.413c0,9.052,13.062,16.414,29.121,16.414c16.054,0,29.115-7.362,29.115-16.414
			C-506.236-17.929-519.298-25.294-535.352-25.294z"/>
	</g>
	<g clip-path="url(#SVGID_2_)">
		<path fill="#FFFFFF" d="M-526.043,1.431c0,4.097-3.543,11.208-9.475,11.208l0.055-25.297
			C-535.516-1.718-526.043,1.431-526.043,1.431z"/>
		<path fill="#414D4D" d="M-535.518,14.114c-0.392,0-0.768-0.156-1.043-0.434c-0.275-0.276-0.432-0.654-0.432-1.045l0.058-25.215
			c0-0.014,0-0.033,0-0.049v-0.029v-0.007c0.003-0.808,0.663-1.466,1.472-1.466c0.004,0,0.004,0,0.004,0
			c0.814,0.004,1.471,0.664,1.47,1.476c0,0.017,0,0.036,0,0.049c0,0.017,0,0.029,0,0.042c0.001,9.693,8.327,12.568,8.41,12.598
			c0.603,0.199,1.009,0.762,1.009,1.397c0,2.514-1.068,5.577-2.785,7.99C-529.502,12.446-532.402,14.114-535.518,14.114z
			 M-534.011-2.991l-0.032,13.969c3.693-0.978,6.047-5.479,6.461-8.606C-529.084,1.649-531.868,0.008-534.011-2.991z"/>
	</g>
	<g clip-path="url(#SVGID_2_)">
		<path fill="#FFFFFF" d="M-544.99,1.551c0,4.094,3.541,11.088,9.473,11.088l0.055-25.297C-535.41-1.718-544.99,1.551-544.99,1.551z
			"/>
		<path fill="#414D4D" d="M-535.518,14.114c-6.682,0-10.945-7.44-10.945-12.562c0-0.629,0.4-1.191,0.997-1.394
			c0.341-0.12,8.44-3.051,8.53-12.565l0.001-0.25c0.001-0.814,0.659-1.469,1.47-1.473h0.002c0.811,0,1.469,0.658,1.474,1.466v0.267
			l-0.056,25.043C-534.049,13.456-534.707,14.114-535.518,14.114z M-543.451,2.483c0.416,3.09,2.771,7.534,6.466,8.498l0.028-13.92
			C-539.126,0.083-541.942,1.75-543.451,2.483z"/>
	</g>
	<g clip-path="url(#SVGID_2_)">
		<path fill="#414D4D" d="M-556.549-45.053c0,3.165-2.562,5.728-5.729,5.728c-3.161,0-5.726-2.562-5.726-5.728
			c0-3.158,2.564-5.724,5.726-5.724C-559.111-50.777-556.549-48.211-556.549-45.053z"/>
		<path fill="#414D4D" d="M-562.277-37.854c-3.969,0-7.197-3.227-7.197-7.199c0-3.966,3.229-7.199,7.197-7.199
			c3.971,0,7.199,3.233,7.199,7.199C-555.078-41.081-558.307-37.854-562.277-37.854z M-562.277-49.306
			c-2.344,0-4.252,1.908-4.252,4.253c0,2.348,1.908,4.256,4.252,4.256c2.345,0,4.254-1.908,4.254-4.256
			C-558.023-47.398-559.933-49.306-562.277-49.306z"/>
	</g>
	<g clip-path="url(#SVGID_2_)">
		<path fill="#414D4D" d="M-502.449-45.053c0,3.165-2.564,5.728-5.728,5.728c-3.161,0-5.724-2.562-5.724-5.728
			c0-3.158,2.562-5.724,5.724-5.724C-505.014-50.777-502.449-48.211-502.449-45.053z"/>
		<path fill="#414D4D" d="M-508.177-37.854c-3.968,0-7.196-3.227-7.196-7.199c0-3.966,3.229-7.199,7.196-7.199
			c3.97,0,7.199,3.233,7.199,7.199C-500.978-41.081-504.207-37.854-508.177-37.854z M-508.177-49.306
			c-2.345,0-4.253,1.908-4.253,4.253c0,2.348,1.908,4.256,4.253,4.256c2.348,0,4.256-1.908,4.256-4.256
			C-503.921-47.398-505.829-49.306-508.177-49.306z"/>
	</g>
	<g clip-path="url(#SVGID_2_)">
		<path fill="#FFFFFF" d="M-502.449-47.818c0,1.957-1.584,3.543-3.543,3.543s-3.544-1.586-3.544-3.543
			c0-1.953,1.585-3.543,3.544-3.543S-502.449-49.771-502.449-47.818z"/>
	</g>
	<g clip-path="url(#SVGID_2_)">
		<path fill="#FFFFFF" d="M-556.549-47.818c0,1.957-1.588,3.543-3.545,3.543s-3.543-1.586-3.543-3.543
			c0-1.953,1.586-3.543,3.543-3.543S-556.549-49.771-556.549-47.818z"/>
	</g>
	<g clip-path="url(#SVGID_2_)">
		<g>
			<path fill="#916A54" d="M-517.955-42.461c-0.066,0.714,4.391,1.716,9.957,2.24c5.564,0.528,10.133,0.378,10.199-0.332l3.076,0.29
				l-0.601,6.33l-26.305-2.488l0.598-6.33L-517.955-42.461z"/>
		</g>
	</g>
	<g clip-path="url(#SVGID_2_)">
		<g>
			<path fill="#916A54" d="M-552.497-42.461c0.066,0.714-4.392,1.716-9.956,2.24c-5.566,0.528-10.133,0.378-10.201-0.332
				l-3.075,0.29l0.599,6.33l26.307-2.488l-0.598-6.33L-552.497-42.461z"/>
		</g>
	</g>
	<g clip-path="url(#SVGID_2_)">
		<path fill="#BF8C77" d="M-489.532-19.714c-1.286-1.777-4.396-5.541-15.462-11.988c-13.374-7.766-29.469-7.744-30.357-7.736
			c-0.895-0.008-16.988-0.029-30.362,7.736c-11.067,6.447-14.175,10.211-15.462,11.988c-1.373,1.902-2.707,4.074-2.707,7.548
			c0,3.478,1.934,5.909,4.293,8.579c2.359,2.668,8.248,7.754,18.76,7.994c16.994,0,24.758-6.548,25.367-17.064
			c0.609,10.517,8.59,17.064,25.586,17.064c10.513-0.24,16.4-5.326,18.759-7.994c2.359-2.67,4.292-5.102,4.292-8.579
			C-486.826-15.64-488.158-17.812-489.532-19.714z"/>
		<path fill="#414D4D" d="M-509.877,5.879c-15.985,0-22.893-5.559-25.581-11.869c-2.67,6.311-9.522,11.869-25.372,11.869
			c-11.391-0.262-17.686-6.027-19.863-8.492c-2.549-2.889-4.661-5.601-4.661-9.554c0-3.95,1.542-6.415,2.985-8.411
			c1.681-2.32,5.158-6.131,15.916-12.398c13.281-7.714,29.189-7.936,30.961-7.936h0.151h0.127c1.77,0,17.677,0.222,30.959,7.936
			c10.767,6.274,14.241,10.08,15.916,12.398c1.444,1.996,2.983,4.461,2.983,8.411c0,3.953-2.109,6.665-4.658,9.554
			c-2.181,2.465-8.473,8.23-19.83,8.492C-509.855,5.879-509.865,5.879-509.877,5.879z M-535.492-37.968
			c-1.689,0-16.868,0.212-29.48,7.535c-11.462,6.682-14.132,10.371-15.01,11.582c-1.229,1.696-2.429,3.614-2.429,6.685
			c0,2.937,1.628,5.005,3.925,7.603c1.922,2.179,7.492,7.265,17.691,7.496c15.219,0,23.26-5.275,23.861-15.672
			c0.047-0.781,0.691-1.391,1.471-1.391l0,0c0.781,0,1.426,0.609,1.471,1.391c0.748,12.946,13.514,15.668,24.098,15.672
			c10.186-0.234,15.75-5.317,17.673-7.496c2.297-2.598,3.925-4.666,3.925-7.603c0-3.07-1.199-4.988-2.429-6.685
			c-0.876-1.211-3.54-4.895-15.009-11.582c-12.613-7.323-27.791-7.535-29.479-7.535l-0.126,0.004L-535.492-37.968z"/>
	</g>
	<g clip-path="url(#SVGID_2_)">
		<path fill="#566261" d="M-535.621-45.581c-7.057,0-11.246,1.595-11.246,3.37c0,6.74,6.558,13.617,11.246,13.617
			c4.691,0,11.248-6.877,11.248-13.617C-524.373-43.986-528.562-45.581-535.621-45.581z"/>
		<path fill="#414D4D" d="M-535.621-27.122c-5.436,0-12.72-7.46-12.72-15.089c0-3.568,6.571-4.842,12.72-4.842
			c6.149,0,12.721,1.273,12.721,4.842C-522.9-34.582-530.184-27.122-535.621-27.122z M-545.396-42.136
			c0.05,6.119,6.201,12.07,9.774,12.07c3.577,0,9.725-5.951,9.775-12.07c-0.367-0.56-3.204-1.969-9.775-1.969
			C-542.189-44.105-545.029-42.696-545.396-42.136z"/>
	</g>
	<g clip-path="url(#SVGID_2_)">
		<path fill="#566261" d="M-553.262-39.326c-0.312,0.17-7.315,2.657-18.027,1.957"/>
		<path fill="#414D4D" d="M-567.523-35.77c-1.23,0-2.52-0.039-3.862-0.13c-0.812-0.053-1.427-0.752-1.374-1.563
			c0.052-0.813,0.748-1.413,1.564-1.374c10.637,0.7,17.251-1.797,17.311-1.823c0.715-0.384,1.573-0.095,1.957,0.622
			c0.385,0.713,0.078,1.625-0.638,2.009C-553.205-37.685-558.894-35.77-567.523-35.77z"/>
	</g>
	<g clip-path="url(#SVGID_2_)">
		<path fill="#566261" d="M-517.191-39.326c0.314,0.17,7.314,2.657,18.031,1.957"/>
		<path fill="#414D4D" d="M-502.928-35.77c-8.633,0-14.318-1.915-14.959-2.26c-0.718-0.384-0.986-1.276-0.602-1.993
			c0.372-0.693,1.226-0.967,1.929-0.635c0.282,0.107,6.851,2.504,17.303,1.82c0.81-0.035,1.513,0.561,1.565,1.374
			c0.053,0.812-0.562,1.511-1.375,1.563C-500.408-35.809-501.697-35.77-502.928-35.77z"/>
	</g>
	<g clip-path="url(#SVGID_2_)">
		<path fill="#647070" d="M-531.568-41.097c0,0.915-1.815,1.658-4.053,1.658c-2.236,0-4.047-0.743-4.047-1.658
			c0-0.912,1.811-1.654,4.047-1.654C-533.384-42.751-531.568-42.009-531.568-41.097z"/>
	</g>
	<g clip-path="url(#SVGID_2_)">
		<path fill="#414D4D" d="M-519.648-16.044c-0.674,0-1.281-0.463-1.436-1.149c-0.178-0.794,0.32-1.583,1.113-1.762
			c0.258-0.059,26.006-5.694,60.865-1.628c0.807,0.098,1.385,0.827,1.293,1.635c-0.095,0.807-0.828,1.387-1.633,1.293
			c-34.333-4.016-59.627,1.52-59.879,1.575C-519.434-16.058-519.542-16.044-519.648-16.044z"/>
	</g>
	<g clip-path="url(#SVGID_2_)">
		<path fill="#414D4D" d="M-465.165-7.833c-0.112,0-0.226-0.013-0.341-0.039c-20.318-4.8-48.34-3.009-48.619-2.989
			c-0.812,0.049-1.514-0.561-1.566-1.371c-0.055-0.811,0.56-1.511,1.371-1.566c0.283-0.02,28.738-1.842,49.492,3.061
			c0.791,0.189,1.281,0.98,1.094,1.771C-463.894-8.289-464.498-7.833-465.165-7.833z"/>
	</g>
	<g clip-path="url(#SVGID_2_)">
		<path fill="#414D4D" d="M-478.584-1.122c-0.139,0-0.278-0.02-0.42-0.062c-10.167-3.02-32.606-3.696-32.832-3.703
			c-0.812-0.022-1.453-0.699-1.429-1.514c0.021-0.814,0.694-1.488,1.513-1.43c0.936,0.026,23.055,0.697,33.587,3.822
			c0.78,0.232,1.226,1.053,0.993,1.83C-477.363-1.535-477.947-1.122-478.584-1.122z"/>
	</g>
	<g clip-path="url(#SVGID_2_)">
		<path fill="#414D4D" d="M-551.548-16.044c-0.107,0-0.217-0.014-0.324-0.036c-0.253-0.056-25.551-5.591-59.878-1.575
			c-0.808,0.091-1.539-0.486-1.633-1.293c-0.095-0.808,0.483-1.537,1.293-1.635c34.854-4.066,60.607,1.572,60.862,1.628
			c0.793,0.179,1.292,0.968,1.115,1.762C-550.269-16.507-550.874-16.044-551.548-16.044z"/>
	</g>
	<g clip-path="url(#SVGID_2_)">
		<path fill="#414D4D" d="M-606.031-7.833c-0.667,0-1.272-0.456-1.432-1.134c-0.188-0.791,0.303-1.582,1.094-1.771
			c20.752-4.902,49.207-3.08,49.49-3.061c0.812,0.056,1.427,0.756,1.371,1.566c-0.053,0.811-0.745,1.416-1.564,1.371
			c-0.281-0.02-28.302-1.811-48.619,2.989C-605.807-7.845-605.92-7.833-606.031-7.833z"/>
	</g>
	<g clip-path="url(#SVGID_2_)">
		<path fill="#414D4D" d="M-592.615-1.122c-0.635,0-1.221-0.413-1.412-1.056c-0.23-0.777,0.213-1.598,0.993-1.83
			c10.534-3.125,32.652-3.796,33.589-3.822c0.811-0.062,1.49,0.615,1.514,1.43c0.024,0.814-0.617,1.491-1.43,1.514
			c-0.225,0.007-22.672,0.684-32.834,3.703C-592.336-1.141-592.477-1.122-592.615-1.122z"/>
	</g>
	<g clip-path="url(#SVGID_2_)">
		<path fill="#BF8C77" d="M-575.482-62.144c0,5.646-4.579,10.224-10.227,10.224c-5.65,0-10.229-4.578-10.229-10.224
			c0-5.652,4.578-10.23,10.229-10.23C-580.062-72.375-575.482-67.796-575.482-62.144z"/>
	</g>
	<g clip-path="url(#SVGID_2_)">
		<path fill="#BF8C77" d="M-477.197-62.144c0,5.646-4.579,10.224-10.225,10.224c-5.651,0-10.229-4.578-10.229-10.224
			c0-5.652,4.577-10.23,10.229-10.23C-481.776-72.375-477.197-67.796-477.197-62.144z"/>
	</g>
	<g clip-path="url(#SVGID_2_)">
		<path fill="#414D4D" d="M-485.119-47.261c-2.285,0-4.48-0.504-6.523-1.5c-0.729-0.359-1.033-1.238-0.677-1.971
			c0.356-0.729,1.24-1.032,1.97-0.678c1.637,0.799,3.396,1.205,5.23,1.205c6.588,0,11.943-5.355,11.943-11.943
			c0-6.584-5.355-11.943-11.943-11.943c-6.585,0-11.941,5.359-11.941,11.943c0,0.814-0.66,1.473-1.473,1.473
			c-0.814,0-1.475-0.658-1.475-1.473c0-8.211,6.681-14.887,14.889-14.887c8.211,0,14.891,6.676,14.891,14.887
			C-470.229-53.939-476.908-47.261-485.119-47.261z"/>
	</g>
	<g clip-path="url(#SVGID_2_)">
		<path fill="#414D4D" d="M-587.38-47.261c-8.21,0-14.89-6.678-14.89-14.887c0-8.211,6.68-14.887,14.89-14.887
			c8.208,0,14.889,6.676,14.889,14.887c0,0.814-0.659,1.473-1.474,1.473s-1.473-0.658-1.473-1.473
			c0-6.584-5.355-11.943-11.942-11.943c-6.585,0-11.943,5.359-11.943,11.943c0,6.588,5.358,11.943,11.943,11.943
			c1.835,0,3.595-0.406,5.231-1.205c0.732-0.354,1.613-0.051,1.97,0.678c0.354,0.732,0.052,1.611-0.677,1.971
			C-582.899-47.765-585.094-47.261-587.38-47.261z"/>
	</g>
	<g clip-path="url(#SVGID_2_)">
		<polygon fill="#D7DADB" points="-589.67,184.157 -608.077,184.157 -608.077,39.124 -589.67,31.842 		"/>
		<path fill="#414D4D" d="M-589.67,185.628h-18.407c-0.812,0-1.472-0.657-1.472-1.472V39.124c0-0.603,0.369-1.146,0.932-1.371
			l18.404-7.28c0.455-0.176,0.966-0.12,1.369,0.153c0.404,0.273,0.645,0.729,0.645,1.217v152.314
			C-588.199,184.971-588.857,185.628-589.67,185.628z M-606.604,182.688h15.461V34.008l-15.461,6.115V182.688z"/>
	</g>
	<g clip-path="url(#SVGID_2_)">
		<polygon fill="#647070" points="-601.941,202.562 -595.561,202.562 -595.561,34.213 -601.941,36.668 		"/>
		<path fill="#414D4D" d="M-595.561,204.039h-6.381c-0.813,0-1.473-0.662-1.473-1.477V36.668c0-0.609,0.375-1.152,0.945-1.374
			l6.381-2.452c0.452-0.176,0.962-0.117,1.361,0.16c0.4,0.273,0.638,0.726,0.638,1.211v168.349
			C-594.089,203.377-594.746,204.039-595.561,204.039z M-600.468,201.092h3.435V36.36l-3.435,1.321V201.092z"/>
	</g>
	<g clip-path="url(#SVGID_2_)">
		<g>
			<path fill="#647070" d="M-604.088,128.428c0,1.046,0.844,1.893,1.889,1.893h6.773c1.044,0,1.891-0.847,1.891-1.893v-8.032
				c0-1.042-0.847-1.889-1.891-1.889h-6.773c-1.045,0-1.889,0.847-1.889,1.889V128.428z"/>
			<path fill="#414D4D" d="M-595.426,131.792h-6.773c-1.854,0-3.363-1.508-3.363-3.364v-8.032c0-1.853,1.51-3.364,3.363-3.364h6.773
				c1.854,0,3.362,1.512,3.362,3.364v8.032C-592.063,130.285-593.571,131.792-595.426,131.792z M-602.199,119.979
				c-0.23,0-0.416,0.189-0.416,0.417v8.032c0,0.231,0.186,0.42,0.416,0.42h6.773c0.229,0,0.418-0.188,0.418-0.42v-8.032
				c0-0.228-0.188-0.417-0.418-0.417H-602.199z"/>
		</g>
		<g>
			<line fill="#8A9BAF" x1="-598.812" y1="119.813" x2="-598.812" y2="124.485"/>
			<path fill="#414D4D" d="M-598.812,125.958c-0.813,0-1.471-0.658-1.471-1.473v-4.672c0-0.811,0.657-1.472,1.471-1.472
				c0.814,0,1.475,0.661,1.475,1.472v4.672C-597.338,125.299-597.998,125.958-598.812,125.958z"/>
		</g>
		<g>
			<path fill="#414D4D" d="M-599.609,114.831c0,0.545,0.438,0.98,0.981,0.98c0.54,0,0.981-0.436,0.981-0.98
				c0-0.54-0.441-0.982-0.981-0.982C-599.172,113.848-599.609,114.291-599.609,114.831z"/>
		</g>
		<g>
			<circle fill="#414D4D" cx="-598.628" cy="134.462" r="0.981"/>
		</g>
		<g>
			<path fill="#414D4D" d="M-599.609,139.861c0,0.544,0.438,0.983,0.981,0.983c0.54,0,0.981-0.439,0.981-0.983
				c0-0.54-0.441-0.979-0.981-0.979C-599.172,138.881-599.609,139.321-599.609,139.861z"/>
		</g>
		<g>
			<circle fill="#414D4D" cx="-598.628" cy="108.573" r="0.981"/>
		</g>
		<g>
			<circle fill="#414D4D" cx="-598.628" cy="102.315" r="0.981"/>
		</g>
	</g>
	<g clip-path="url(#SVGID_2_)">
		<polygon fill="#D7DADB" points="-483.165,184.157 -464.758,184.157 -464.758,39.124 -483.165,31.842 		"/>
		<path fill="#414D4D" d="M-464.758,185.628h-18.407c-0.812,0-1.472-0.657-1.472-1.472V31.842c0-0.488,0.242-0.943,0.645-1.217
			c0.405-0.273,0.916-0.329,1.369-0.153l18.405,7.28c0.563,0.225,0.933,0.769,0.933,1.371v145.033
			C-463.285,184.971-463.944,185.628-464.758,185.628z M-481.691,182.688h15.461V40.124l-15.461-6.115V182.688z"/>
	</g>
	<g clip-path="url(#SVGID_2_)">
		<polygon fill="#647070" points="-470.893,202.562 -477.273,202.562 -477.273,34.213 -470.893,36.668 		"/>
		<path fill="#414D4D" d="M-470.893,204.039h-6.381c-0.813,0-1.473-0.662-1.473-1.477V34.213c0-0.485,0.238-0.938,0.638-1.211
			c0.4-0.277,0.911-0.336,1.362-0.16l6.381,2.452c0.57,0.222,0.944,0.765,0.944,1.374v165.894
			C-469.421,203.377-470.08,204.039-470.893,204.039z M-475.801,201.092h3.435V37.681l-3.435-1.321V201.092z"/>
	</g>
	<g clip-path="url(#SVGID_2_)">
		<g>
			<path fill="#647070" d="M-468.746,128.428c0,1.046-0.848,1.893-1.89,1.893h-6.774c-1.043,0-1.889-0.847-1.889-1.893v-8.032
				c0-1.042,0.846-1.889,1.889-1.889h6.774c1.042,0,1.89,0.847,1.89,1.889V128.428z"/>
			<path fill="#414D4D" d="M-470.636,131.792h-6.774c-1.853,0-3.359-1.508-3.359-3.364v-8.032c0-1.853,1.507-3.364,3.359-3.364
				h6.774c1.853,0,3.362,1.512,3.362,3.364v8.032C-467.273,130.285-468.783,131.792-470.636,131.792z M-477.41,119.979
				c-0.229,0-0.416,0.189-0.416,0.417v8.032c0,0.231,0.187,0.42,0.416,0.42h6.774c0.229,0,0.417-0.188,0.417-0.42v-8.032
				c0-0.228-0.188-0.417-0.417-0.417H-477.41z"/>
		</g>
		<g>
			<line fill="#8A9BAF" x1="-474.023" y1="119.813" x2="-474.023" y2="124.485"/>
			<path fill="#414D4D" d="M-474.023,125.958c-0.812,0-1.472-0.658-1.472-1.473v-4.672c0-0.811,0.659-1.472,1.472-1.472
				c0.814,0,1.473,0.661,1.473,1.472v4.672C-472.551,125.299-473.209,125.958-474.023,125.958z"/>
		</g>
		<g>
			<path fill="#414D4D" d="M-473.225,114.831c0,0.545-0.441,0.98-0.982,0.98c-0.543,0-0.982-0.436-0.982-0.98
				c0-0.54,0.439-0.982,0.982-0.982C-473.666,113.848-473.225,114.291-473.225,114.831z"/>
		</g>
		<g>
			<circle fill="#414D4D" cx="-474.207" cy="134.462" r="0.982"/>
		</g>
		<g>
			<path fill="#414D4D" d="M-473.225,139.861c0,0.544-0.441,0.983-0.982,0.983c-0.543,0-0.982-0.439-0.982-0.983
				c0-0.54,0.439-0.979,0.982-0.979C-473.666,138.881-473.225,139.321-473.225,139.861z"/>
		</g>
		<g>
			<circle fill="#414D4D" cx="-474.207" cy="108.573" r="0.982"/>
		</g>
		<g>
			<circle fill="#414D4D" cx="-474.207" cy="102.315" r="0.982"/>
		</g>
	</g>
	<g clip-path="url(#SVGID_2_)">
		<polyline fill="#5DC4B9" points="-528.669,90.329 -543.473,90.329 -543.473,46.977 -528.669,46.977 		"/>
		<path fill="#414D4D" d="M-528.669,91.804h-14.804c-0.814,0-1.474-0.661-1.474-1.476V46.977c0-0.814,0.659-1.472,1.474-1.472
			h14.804c0.813,0,1.474,0.657,1.474,1.472s-0.66,1.473-1.474,1.473H-542v40.408h13.331c0.813,0,1.474,0.66,1.474,1.471
			C-527.195,91.143-527.855,91.804-528.669,91.804z"/>
	</g>
	<g clip-path="url(#SVGID_2_)">
		<path fill="#6EBCDB" d="M-535.941,47.104c0,0,8.893-3.428,17.998-15.428c9.11-12.002,8.68-11.682,10.717-14.57l5.619,2.879
			c0,0-1.658,26.904-17.407,41.049C-519.015,61.034-530.908,48.606-535.941,47.104z"/>
		<path fill="#414D4D" d="M-519.015,62.506c-0.388,0-0.774-0.154-1.063-0.457c-3.234-3.379-12.463-12.396-16.283-13.535
			c-0.604-0.18-1.025-0.723-1.052-1.354c-0.024-0.625,0.354-1.204,0.942-1.429c0.082-0.033,8.65-3.475,17.355-14.946
			c7.328-9.654,8.474-11.321,9.684-13.087c0.299-0.432,0.604-0.875,1-1.441c0.422-0.6,1.224-0.795,1.877-0.463l5.617,2.882
			c0.523,0.267,0.834,0.817,0.801,1.399c-0.02,0.284-0.453,6.982-2.85,15.529c-2.228,7.936-6.646,18.982-15.043,26.523
			C-518.312,62.379-518.663,62.506-519.015,62.506z M-532.648,47.101c4.731,2.96,11.123,9.261,13.684,11.868
			c12.602-12.285,15.342-33.41,15.806-38.125L-506.754,19c-0.084,0.127-0.168,0.244-0.249,0.365c-1.232,1.794-2.396,3.49-9.767,13.2
			C-523.047,40.836-529.215,45.141-532.648,47.101z"/>
	</g>
	<g clip-path="url(#SVGID_2_)">
		<path fill="#6EBCDB" d="M-536.088,47.104c0,0-8.893-3.428-18-15.428c-9.107-12.002-8.678-11.682-10.714-14.57l-5.62,2.879
			c0,0,1.656,26.904,17.405,41.049C-553.017,61.034-541.123,48.606-536.088,47.104z"/>
		<path fill="#414D4D" d="M-553.017,62.506c-0.352,0-0.703-0.127-0.985-0.379c-8.396-7.541-12.814-18.588-15.039-26.523
			c-2.398-8.547-2.833-15.248-2.85-15.529c-0.037-0.582,0.277-1.133,0.798-1.399l5.618-2.882c0.656-0.332,1.455-0.137,1.876,0.463
			c0.398,0.566,0.703,1.01,1.003,1.445c1.213,1.765,2.357,3.432,9.68,13.083c8.754,11.533,17.273,14.913,17.359,14.946
			c0.587,0.225,0.965,0.804,0.94,1.429c-0.024,0.632-0.448,1.175-1.052,1.354c-3.822,1.14-13.051,10.156-16.285,13.535
			C-552.242,62.352-552.629,62.506-553.017,62.506z M-568.869,20.844c0.466,4.715,3.216,25.854,15.803,38.125
			c2.561-2.607,8.952-8.908,13.687-11.868c-3.435-1.96-9.601-6.265-15.882-14.535c-7.367-9.71-8.529-11.406-9.764-13.197
			c-0.081-0.12-0.166-0.241-0.248-0.368L-568.869,20.844z"/>
	</g>
	<g clip-path="url(#SVGID_2_)">
		<path fill="#414D4D" d="M-538.218,56.303c0,1.185,0.962,2.146,2.147,2.146s2.147-0.961,2.147-2.146
			c0-1.189-0.962-2.149-2.147-2.149S-538.218,55.114-538.218,56.303z"/>
	</g>
	<g clip-path="url(#SVGID_2_)">
		<path fill="#414D4D" d="M-538.218,68.542c0,1.185,0.962,2.146,2.147,2.146s2.147-0.961,2.147-2.146
			c0-1.188-0.962-2.149-2.147-2.149S-538.218,67.354-538.218,68.542z"/>
	</g>
	<g clip-path="url(#SVGID_2_)">
		<circle fill="#414D4D" cx="-536.07" cy="80.782" r="2.147"/>
	</g>
</g>
</svg>
