<?xml version="1.0" encoding="utf-8"?>
<!-- Generator: Adobe Illustrator 21.1.0, SVG Export Plug-In . SVG Version: 6.00 Build 0)  -->
<svg version="1.1" id="Layer_1" xmlns="http://www.w3.org/2000/svg" xmlns:xlink="http://www.w3.org/1999/xlink" x="0px" y="0px"
	 viewBox="0 0 180 139.5" style="enable-background:new 0 0 180 139.5;" xml:space="preserve">
<style type="text/css">
	.st0{opacity:0.1;}
	.st1{fill:#231F20;}
	.st2{fill:#CDDEE4;}
	.st3{fill:#424E4D;}
	.st4{fill:#FDBF0F;}
	.st5{fill:#F8A366;}
	.st6{fill:#A7D05E;}
	.st7{fill:#86C670;}
	.st8{fill:#8E3A52;}
	.st9{fill:#F1634C;}
	.st10{fill:#FCE871;}
	.st11{fill:none;}
	.st12{fill:#EBA53C;}
	.st13{fill:#FFE171;}
	.st14{fill:#F4D9A6;}
	.st15{opacity:0.4;}
	.st16{fill:#E1ECB9;}
	.st17{fill:#7FB04E;}
	.st18{fill:#FFFFFF;}
	.st19{fill:#5FAC45;}
	.st20{fill:#F5905F;}
</style>
<g class="st0">
	<path class="st1" d="M90.8,55.1c-22.5,0-40.1,8.5-40.1,19.3c0,0.9,0.1,1.9,0.4,2.8l5.1,31.7l0.2,1h0.1c2.3,8.3,16.7,14.5,34.3,14.5
		c18.4,0,33.3-6.7,34.5-15.6l5.1-31.5c0.3-1,0.4-2,0.4-2.9C130.9,63.6,113.3,55.1,90.8,55.1z"/>
</g>
<g>
	<path class="st2" d="M131,67c0.3-0.9,0.4-1.8,0.4-2.8c0-10.4-18.2-18.9-40.7-18.9S50,53.8,50,64.2c0,0.9,0.2,1.9,0.4,2.8l5.4,33.1
		l0,0c1.3,8.4,16.4,15.1,34.8,15.1c18.5,0,33.6-6.7,34.8-15.2L131,67z"/>
	<path class="st3" d="M90.8,116.4c-18.4,0-33.4-6.4-35.8-15.1h-0.1l-0.2-1l-5.4-33.1c-0.3-1-0.5-1.9-0.5-2.9
		c0-11.3,18.4-20.1,41.9-20.1s41.9,8.9,41.9,20.1c0,1-0.1,1.9-0.5,3.1l-5.4,32.9C125.5,109.4,110.1,116.4,90.8,116.4z M57,98.8
		L57,98.8l0.2,1c1.2,7.9,16,14,33.6,14c17.5,0,32.5-6.3,33.6-14.2l5.4-33.1c0.3-0.9,0.4-1.6,0.4-2.4c0-9.6-18.1-17.7-39.5-17.7
		s-39.4,8.1-39.4,17.7c0,0.7,0.1,1.4,0.4,2.4L57,98.8z"/>
</g>
<g>
	<g>
		<g>
			<path class="st4" d="M107.3,71.2c-1,0-2.1-0.1-3.1-0.3c-8.1-1.7-13.2-9.6-11.5-17.6c0.1-0.2,0.2-0.4,0.4-0.6
				c0.2-0.1,0.4-0.1,0.7-0.1l27.3,5.8c0.5,0.1,0.8,0.6,0.7,1.1c-0.8,3.9-3.1,7.2-6.4,9.4C113,70.4,110.2,71.2,107.3,71.2z
				 M94.4,54.6c-0.9,6.7,3.5,13.1,10.2,14.5c3.4,0.7,6.9,0.1,9.8-1.8c2.7-1.7,4.6-4.3,5.4-7.3L94.4,54.6z"/>
		</g>
	</g>
	<g>
		<path class="st5" d="M94.7,52.7c-1.9,7.5,2.8,14.8,9.9,16.3c3.4,0.7,6.9,0.1,9.8-1.8s5.1-5,5.9-9"/>
	</g>
</g>
<g>
	<circle class="st6" cx="105.8" cy="61.2" r="5.4"/>
	<path class="st7" d="M105.8,67.6c-3.5,0-6.3-2.8-6.3-6.3s2.8-6.3,6.3-6.3s6.3,2.8,6.3,6.3C112.1,64.8,109.3,67.6,105.8,67.6z
		 M105.8,56.7c-2.5,0-4.5,2-4.5,4.5s2,4.5,4.5,4.5s4.5-2,4.5-4.5S108.2,56.7,105.8,56.7z"/>
</g>
<g>
	<circle class="st8" cx="117.3" cy="88.4" r="6.3"/>
	<path class="st9" d="M117.3,95.6c-4,0-7.2-3.2-7.2-7.2s3.2-7.2,7.2-7.2s7.2,3.2,7.2,7.2S121.3,95.6,117.3,95.6z M117.3,83.1
		c-3,0-5.4,2.4-5.4,5.4s2.4,5.4,5.4,5.4s5.4-2.4,5.4-5.4C122.6,85.5,120.2,83.1,117.3,83.1z"/>
</g>
<g>
	<path class="st3" d="M90.8,116.4c-18.4,0-33.4-6.4-35.8-15.1h0l-0.2-1l-5.4-33.1c-0.1-0.7,0.4-1.3,1-1.4c0.7-0.1,1.3,0.4,1.4,1
		l5.4,33.1c1.2,7.9,16,14,33.6,14c17.5,0,32.5-6.3,33.6-14.2l5.4-33c0.1-0.7,0.7-1.1,1.4-1s1.1,0.7,1,1.4l-5.4,33
		C125.6,109.4,110.1,116.4,90.8,116.4z"/>
</g>
<g>
	<g>
		<circle class="st10" cx="74.1" cy="63.1" r="9.7"/>
		<path class="st4" d="M74.1,73.8c-5.9,0-10.7-4.8-10.7-10.7s4.8-10.7,10.7-10.7s10.7,4.8,10.7,10.7S80,73.8,74.1,73.8z M74.1,54.3
			c-4.8,0-8.8,4-8.8,8.8s4,8.8,8.8,8.8s8.8-4,8.8-8.8S78.9,54.3,74.1,54.3z"/>
	</g>
	<g>
		<g>
			<line class="st11" x1="70.4" y1="66.8" x2="71.5" y2="65.6"/>
			<path class="st12" d="M70.4,67.7c-0.2,0-0.4-0.1-0.7-0.3c-0.4-0.4-0.4-1,0-1.3l1.2-1.2c0.4-0.4,1-0.4,1.3,0c0.4,0.4,0.4,1,0,1.3
				L71,67.4C70.9,67.7,70.6,67.7,70.4,67.7z"/>
		</g>
		<g>
			<line class="st11" x1="77.7" y1="59.4" x2="76.6" y2="60.6"/>
			<path class="st12" d="M76.6,61.5c-0.2,0-0.4-0.1-0.7-0.3c-0.4-0.4-0.4-1,0-1.3l1.2-1.2c0.4-0.4,1-0.4,1.3,0c0.4,0.4,0.4,1,0,1.3
				l-1.2,1.2C77,61.5,76.8,61.5,76.6,61.5z"/>
		</g>
		<g>
			<line class="st11" x1="77.7" y1="66.8" x2="76.6" y2="65.6"/>
			<path class="st12" d="M77.7,67.7c-0.2,0-0.4-0.1-0.7-0.3l-1.2-1.2c-0.4-0.4-0.4-1,0-1.3s1-0.4,1.3,0l1.2,1.2c0.4,0.4,0.4,1,0,1.3
				C78.2,67.7,77.9,67.7,77.7,67.7z"/>
		</g>
		<g>
			<line class="st11" x1="70.4" y1="59.4" x2="71.5" y2="60.6"/>
			<path class="st12" d="M71.5,61.5c-0.2,0-0.4-0.1-0.7-0.3L69.7,60c-0.4-0.4-0.4-1,0-1.3c0.4-0.4,1-0.4,1.3,0l1.2,1.2
				c0.4,0.4,0.4,1,0,1.3C72.1,61.5,71.8,61.5,71.5,61.5z"/>
		</g>
	</g>
</g>
<g>
	<g>
		<circle class="st10" cx="101.6" cy="71.8" r="9.7"/>
		<path class="st4" d="M101.6,82.5c-5.9,0-10.7-4.8-10.7-10.7s4.8-10.7,10.7-10.7c5.9,0,10.7,4.8,10.7,10.7S107.5,82.5,101.6,82.5z
			 M101.6,63c-4.8,0-8.8,4-8.8,8.8s4,8.8,8.8,8.8s8.8-4,8.8-8.8S106.4,63,101.6,63z"/>
	</g>
	<g>
		<g>
			<line class="st11" x1="97.9" y1="75.5" x2="99.1" y2="74.4"/>
			<path class="st12" d="M97.9,76.5c-0.2,0-0.4-0.1-0.7-0.3c-0.4-0.4-0.4-1,0-1.3l1.2-1.2c0.4-0.4,1-0.4,1.3,0c0.4,0.4,0.4,1,0,1.3
				l-1.2,1.2C98.4,76.4,98.2,76.5,97.9,76.5z"/>
		</g>
		<g>
			<line class="st11" x1="105.2" y1="68.2" x2="104.1" y2="69.4"/>
			<path class="st12" d="M104.1,70.3c-0.2,0-0.4-0.1-0.7-0.3c-0.4-0.4-0.4-1,0-1.3l1.2-1.2c0.4-0.4,1-0.4,1.3,0s0.4,1,0,1.3
				l-1.2,1.2C104.6,70.2,104.4,70.3,104.1,70.3z"/>
		</g>
		<g>
			<line class="st11" x1="105.2" y1="75.5" x2="104.1" y2="74.4"/>
			<path class="st12" d="M105.2,76.5c-0.2,0-0.4-0.1-0.7-0.3l-1.2-1.2c-0.4-0.4-0.4-1,0-1.3c0.4-0.4,1-0.4,1.3,0l1.2,1.2
				c0.4,0.4,0.4,1,0,1.3C105.7,76.4,105.5,76.5,105.2,76.5z"/>
		</g>
		<g>
			<line class="st11" x1="97.9" y1="68.2" x2="99.1" y2="69.4"/>
			<path class="st12" d="M99.1,70.3c-0.2,0-0.4-0.1-0.7-0.3l-1.2-1.2c-0.4-0.4-0.4-1,0-1.3s1-0.4,1.3,0l1.2,1.2c0.4,0.4,0.4,1,0,1.3
				C99.6,70.2,99.3,70.3,99.1,70.3z"/>
		</g>
	</g>
</g>
<g>
	<g>
		<circle class="st10" cx="94.4" cy="85.5" r="9.7"/>
		<path class="st4" d="M94.4,96.1c-5.9,0-10.7-4.8-10.7-10.7c0-5.9,4.8-10.7,10.7-10.7c5.9,0,10.7,4.8,10.7,10.7
			S100.2,96.1,94.4,96.1z M94.4,76.7c-4.8,0-8.8,4-8.8,8.8s4,8.8,8.8,8.8s8.8-4,8.8-8.8C103.2,80.6,99.2,76.7,94.4,76.7z"/>
	</g>
	<g>
		<g>
			<line class="st11" x1="90.7" y1="89.1" x2="91.8" y2="88"/>
			<path class="st12" d="M90.7,90.1c-0.2,0-0.4-0.1-0.7-0.3c-0.4-0.4-0.4-1,0-1.3l1.2-1.2c0.4-0.4,1-0.4,1.3,0s0.4,1,0,1.3l-1.2,1.2
				C91.1,90,90.9,90.1,90.7,90.1z"/>
		</g>
		<g>
			<line class="st11" x1="98" y1="81.8" x2="96.9" y2="82.9"/>
			<path class="st12" d="M96.9,83.9c-0.2,0-0.4-0.1-0.7-0.3c-0.4-0.4-0.4-1,0-1.3l1.2-1.2c0.4-0.4,1-0.4,1.3,0c0.4,0.4,0.4,1,0,1.3
				l-1.2,1.2C97.3,83.8,97.1,83.9,96.9,83.9z"/>
		</g>
		<g>
			<line class="st11" x1="98" y1="89.1" x2="96.9" y2="88"/>
			<path class="st12" d="M98,90.1c-0.2,0-0.4-0.1-0.7-0.3l-1.2-1.2c-0.4-0.4-0.4-1,0-1.3c0.4-0.4,1-0.4,1.3,0l1.2,1.2
				c0.4,0.4,0.4,1,0,1.3C98.5,90,98.2,90.1,98,90.1z"/>
		</g>
		<g>
			<line class="st11" x1="90.7" y1="81.8" x2="91.8" y2="82.9"/>
			<path class="st12" d="M91.8,83.9c-0.2,0-0.4-0.1-0.7-0.3L90,82.4c-0.4-0.4-0.4-1,0-1.3s1-0.4,1.3,0l1.2,1.2c0.4,0.4,0.4,1,0,1.3
				C92.3,83.8,92,83.9,91.8,83.9z"/>
		</g>
	</g>
</g>
<g>
	<path class="st4" d="M86.3,109.8c0.6,1.1,1.6,1.2,1.8,1.2c0.1,0,1.2,0.1,1.9-0.8c3.5-4.2,4.8-9.7,4.8-10c0.1-0.5-0.1-1.8-1.4-2.2
		c-1.4-0.5-4.2-0.8-4.2-0.8s-2.8-0.2-4.3,0c-1.3,0.2-1.7,1.3-1.8,1.9C83.3,99.3,83.6,105,86.3,109.8z"/>
	<path class="st13" d="M88.3,111.9c-0.1,0-0.2,0-0.3,0c-1-0.1-1.9-0.7-2.5-1.6c-2.8-4.9-3.1-10.8-3.1-11.3c0.1-1,0.8-2.5,2.5-2.8
		c1.6-0.2,4.3-0.1,4.5,0c0.1,0,2.9,0.3,4.4,0.8c1.6,0.6,2.1,2.2,2,3.1c-0.1,0.5-1.4,6.2-5.1,10.5C90.1,111.6,89.1,111.9,88.3,111.9z
		 M87,97.9c-0.6,0-1.3,0-1.7,0.1c-0.9,0.1-1,1-1,1s0.2,5.5,2.9,10.2l0,0c0.3,0.5,0.7,0.7,1,0.7c0.1,0,0.7,0.1,1.2-0.5
		c3.4-4.1,4.6-9.5,4.6-9.5l0,0c0,0,0-0.9-0.8-1.2c-1.3-0.4-4-0.7-4-0.7l0,0C89.2,98,88.2,97.9,87,97.9z"/>
</g>
<g>
	<path class="st4" d="M73.9,89.4c0.9-0.9,0.6-1.9,0.6-2.1c0-0.1-0.2-1.2-1.4-1.6c-5.1-1.9-10.7-1.5-11-1.4c-0.5,0.1-1.6,0.7-1.6,2
		c0,1.5,0.6,4.2,0.6,4.2s0.7,2.7,1.3,4c0.6,1.1,1.9,1.2,2.4,1.1C65,95.6,70.3,93.5,73.9,89.4z"/>
	<path class="st13" d="M64.2,96.7c-0.9,0-2.1-0.4-2.8-1.6c-0.7-1.4-1.4-4.1-1.5-4.3c0-0.1-0.6-2.8-0.6-4.5s1.4-2.7,2.3-2.9
		c0.5-0.1,6.3-0.6,11.6,1.4c1.5,0.5,1.9,1.9,2,2.2c0.2,1-0.1,2.1-0.8,2.9c-3.8,4.2-9.2,6.4-9.7,6.6C64.7,96.7,64.4,96.7,64.2,96.7z
		 M61.8,90.4c0,0,0.7,2.5,1.3,3.8c0.4,0.8,1.3,0.6,1.3,0.6s5.2-2,8.7-6l0,0c0.4-0.4,0.4-0.9,0.4-1.2c-0.1-0.2-0.2-0.7-0.8-1
		c-5-1.9-10.4-1.3-10.6-1.3c0,0-0.9,0.2-0.9,1.1C61.3,87.6,61.7,89.7,61.8,90.4L61.8,90.4z"/>
</g>
<g>
	<path class="st4" d="M67.6,76.8c1.2,0.4,2-0.2,2.2-0.3c0.1-0.1,1-0.7,0.9-1.9c-0.2-5.4-2.9-10.4-3.1-10.7c-0.3-0.4-1.3-1.2-2.5-0.7
		c-1.4,0.6-3.7,2.2-3.7,2.2s-2.2,1.7-3.1,2.8c-0.8,1-0.4,2.2-0.1,2.6C58.3,70.9,62.4,75,67.6,76.8z"/>
	<path class="st13" d="M68.4,77.8c-0.4,0-0.7-0.1-1.1-0.2c-5.4-1.8-9.5-5.9-9.8-6.3c-0.6-0.7-1-2.4,0.1-3.7c1-1.3,3.2-2.9,3.3-3
		s2.4-1.7,3.9-2.3c1.6-0.7,3.1,0.2,3.7,1c0.3,0.4,3.1,5.6,3.3,11.3c0.1,1.6-1,2.5-1.3,2.8C69.7,77.6,69.1,77.8,68.4,77.8z M61.9,66
		c0,0-2.1,1.6-3,2.7c-0.5,0.7-0.1,1.4,0,1.5c0,0,3.9,4,9,5.7l0,0c0.6,0.2,1,0,1.3-0.1c0.1-0.1,0.6-0.4,0.5-1.2
		c-0.2-5.4-2.9-10.1-2.9-10.2l0,0c0,0-0.6-0.7-1.4-0.4C64.3,64.4,62.5,65.6,61.9,66L61.9,66z"/>
</g>
<g>
	<path class="st9" d="M96.6,85.4c0.1,1.3,1,1.8,1,1.9c0.1,0.1,1,0.7,2.2,0.1c5-2.2,8.7-6.6,8.8-6.8c0.3-0.4,0.6-1.6-0.3-2.6
		c-1-1-3.4-2.6-3.4-2.6s-2.4-1.4-3.8-1.9c-1.3-0.4-2.2,0.4-2.5,0.9C98.5,74.7,96.3,80,96.6,85.4z"/>
	<path class="st8" d="M98.8,88.5c-0.8,0-1.5-0.4-1.7-0.5c-0.9-0.6-1.5-1.6-1.5-2.6c-0.3-5.6,2-11.1,2.2-11.5
		c0.5-0.8,1.9-1.9,3.5-1.3c1.5,0.4,3.9,1.9,4,1.9c0.1,0.1,2.5,1.6,3.6,2.8c1.2,1.3,0.9,2.9,0.4,3.7c-0.3,0.4-4.1,4.9-9.2,7.2
		C99.7,88.5,99.3,88.5,98.8,88.5z M100.5,74.3c-0.6,0-1,0.5-1,0.5s-2.2,5.1-1.9,10.4l0,0c0,0.6,0.4,1,0.6,1.1s0.7,0.4,1.3,0.1
		c4.9-2.2,8.4-6.4,8.4-6.5l0,0c0,0,0.4-0.8-0.1-1.4c-0.8-0.8-2.6-2.1-3.2-2.5l0,0c0,0-2.3-1.3-3.6-1.8
		C100.8,74.3,100.6,74.3,100.5,74.3z"/>
</g>
<g>
	<path class="st9" d="M82.6,66.6c0,1.3,1,1.8,1,1.9c0.1,0.1,1,0.7,2.2,0.1c5-2.2,8.7-6.6,8.8-6.8c0.3-0.4,0.6-1.6-0.3-2.6
		c-1-1-3.4-2.6-3.4-2.6s-2.4-1.4-3.8-1.9c-1.3-0.4-2.2,0.4-2.5,0.9C84.5,55.9,82.3,61.2,82.6,66.6z"/>
	<path class="st8" d="M84.8,69.8c-0.8,0-1.5-0.4-1.7-0.5c-0.9-0.6-1.5-1.5-1.5-2.6c-0.3-5.7,1.9-11,2.2-11.5
		c0.5-0.8,1.9-1.9,3.5-1.3c1.5,0.4,3.9,1.9,4,1.9c0.1,0.1,2.5,1.6,3.6,2.8c1.2,1.3,0.9,2.9,0.4,3.7c-0.3,0.4-4.1,4.9-9.2,7.2
		C85.6,69.7,85.2,69.8,84.8,69.8z M86.4,55.6c-0.6,0-1,0.5-1,0.6c0,0-2.2,5.1-1.9,10.4l0,0c0,0.7,0.4,1,0.6,1.1s0.7,0.4,1.3,0.1
		c4.8-2.2,8.4-6.4,8.4-6.5l0,0c0,0,0.4-0.8-0.1-1.4c-1-1-3.2-2.5-3.2-2.5l0,0c0,0-2.3-1.3-3.6-1.8C86.7,55.6,86.6,55.6,86.4,55.6z"
		/>
</g>
<g>
	<path class="st9" d="M95.8,98.8c1.2,0.4,2-0.2,2.2-0.3c0.1-0.1,1-0.7,0.9-1.9c-0.2-5.4-2.9-10.4-3.1-10.7c-0.3-0.4-1.3-1.2-2.5-0.7
		c-1.4,0.6-3.7,2.2-3.7,2.2s-2.2,1.7-3.1,2.8c-0.8,1-0.4,2.2-0.1,2.6C86.5,93,90.6,97,95.8,98.8z"/>
	<path class="st8" d="M96.5,99.8c-0.4,0-0.7-0.1-1.1-0.2c-5.4-1.8-9.5-5.9-9.8-6.3c-0.6-0.7-1-2.4,0.1-3.7c1-1.3,3.2-2.9,3.3-3
		c0.1-0.1,2.4-1.7,3.9-2.3c1.6-0.7,3.1,0.2,3.7,1c0.3,0.4,3.1,5.6,3.3,11.3c0.1,1.3-0.6,2.3-1.3,2.8C97.9,99.7,97.2,99.8,96.5,99.8z
		 M90,88c0,0-2.1,1.6-3,2.7c-0.6,0.7-0.1,1.4,0,1.5c0,0,3.9,4,9,5.7l0,0c0.6,0.2,1,0,1.3-0.1c0.1-0.1,0.6-0.4,0.5-1.2
		c-0.2-5.4-2.9-10.1-2.9-10.2l0,0c0,0-0.6-0.7-1.4-0.4C92.5,86.4,90.7,87.6,90,88L90,88z"/>
</g>
<g>
	<path class="st9" d="M60,86.6c0.5,1.2,1.6,1.3,1.7,1.3c0.1,0,1.2,0.2,2-0.7c3.8-3.9,5.5-9.3,5.6-9.6c0.1-0.5-0.1-1.8-1.3-2.3
		c-1.3-0.6-4.1-1.1-4.1-1.1s-2.8-0.4-4.3-0.3c-1.3,0.1-1.9,1.3-1.9,1.8C57.8,75.9,57.7,81.6,60,86.6z"/>
	<path class="st8" d="M62.1,88.9c-0.2,0-0.4,0-0.6-0.1c-1-0.2-1.9-0.9-2.4-1.9c-2.4-5.1-2.3-11-2.2-11.6c0.1-1,1-2.4,2.8-2.5
		c1.6-0.1,4.3,0.3,4.5,0.3c0.1,0,2.9,0.6,4.3,1.2c1.6,0.7,1.9,2.4,1.8,3.3c-0.1,0.5-1.9,6.1-5.8,10.1C63.6,88.8,62.7,88.9,62.1,88.9
		z M60.3,74.7c-0.2,0-0.4,0-0.5,0c-0.9,0.1-1,1-1,1s-0.1,5.6,2.1,10.4l0,0c0.2,0.5,0.7,0.7,1,0.8c0.1,0,0.7,0.1,1.2-0.4
		c3.7-3.8,5.3-9.1,5.4-9.2l0,0c0,0,0.1-0.9-0.7-1.3c-1-0.4-3.2-1-3.9-1l0,0C63.8,75,61.8,74.7,60.3,74.7z"/>
</g>
<g>
	<g>
		<g>
			<path class="st4" d="M83.6,99.9c-2.7,0-5.4-0.7-7.8-2.2c-3.4-2.1-5.7-5.4-6.7-9.2c-1.9-8,3.1-16,11-17.9c0.2-0.1,0.5,0,0.7,0.1
				s0.4,0.4,0.4,0.6l6.5,27.2c0.1,0.5-0.2,1-0.7,1.1C86,99.7,84.8,99.9,83.6,99.9z M79.7,72.6c-6.4,2-10.3,8.7-8.7,15.4
				c0.8,3.4,2.9,6.3,5.8,8.1c2.7,1.6,5.8,2.2,9,1.7L79.7,72.6z"/>
		</g>
	</g>
	<g>
		<path class="st5" d="M81.6,72c-7.6,1.4-12.2,9-10.5,16c0.8,3.4,2.9,6.3,5.8,8.1c3,1.8,6.7,2.5,10.7,1.4"/>
	</g>
</g>
<g>
	<path class="st4" d="M100,95.9c0.1,1.3,1,1.7,1.2,1.8c0.1,0.1,1,0.6,2.2,0c4.8-2.5,8.3-7,8.4-7.3c0.2-0.4,0.5-1.7-0.4-2.6
		c-1.1-1-3.5-2.4-3.5-2.4s-2.5-1.3-3.9-1.6c-1.3-0.3-2.2,0.6-2.4,1C101.4,85.1,99.5,90.6,100,95.9z"/>
	<path class="st13" d="M102.3,99c-0.7,0-1.3-0.3-1.6-0.4c-0.9-0.5-1.5-1.4-1.6-2.5c-0.6-5.6,1.4-11.1,1.6-11.6
		c0.4-0.8,1.7-1.9,3.4-1.5c1.6,0.4,4,1.7,4.1,1.7c0.1,0.1,2.5,1.5,3.7,2.5c1.3,1.2,1,2.8,0.6,3.7c-0.2,0.4-3.8,5.1-8.8,7.7
		C103.2,98.8,102.7,99,102.3,99z M103.5,84.7c-0.7,0-1,0.6-1,0.6s-2,5.2-1.4,10.5l0,0c0.1,0.7,0.4,1,0.7,1c0.1,0.1,0.7,0.3,1.3,0
		c4.8-2.4,8.1-6.9,8.1-6.9l0,0c0,0,0.4-0.8-0.2-1.4c-1-1-3.3-2.2-3.4-2.2l0,0c0,0-2.4-1.2-3.7-1.6C103.6,84.7,103.5,84.7,103.5,84.7
		z"/>
</g>
<g>
	<g>
		<g>
			<path class="st4" d="M108.6,108.3c-6.6,0-12.8-4.6-14.5-11.3c-0.1-0.2,0-0.5,0.1-0.7s0.3-0.4,0.6-0.4l27.1-6.8
				c0.5-0.1,1,0.1,1.1,0.7c1,3.9,0.4,7.8-1.6,11.3c-2,3.4-5.3,5.8-9.2,6.8C111,108.2,109.8,108.3,108.6,108.3z M96.2,97.5
				c2.1,6.4,8.9,10.2,15.5,8.6c3.4-0.8,6.2-3,8-5.9c1.6-2.7,2.2-5.8,1.6-9L96.2,97.5z"/>
		</g>
	</g>
	<g>
		<path class="st5" d="M95.6,95.7c1.5,7.6,9.1,12.1,16,10.4c3.4-0.8,6.2-3,8-5.9c1.8-3,2.5-6.7,1.3-10.7"/>
	</g>
</g>
<g>
	<g>
		<g>
			<path class="st14" d="M103.3,82c5.8,5.1,14.6,4.4,19.7-1.4c5.1-5.8,4.4-14.6-1.4-19.7L103.3,82z"/>
			<path class="st9" d="M112.4,86.4c-3.4,0-6.9-1.2-9.7-3.7c-0.2-0.1-0.3-0.4-0.3-0.7c0-0.2,0.1-0.5,0.2-0.7l18.3-21
				c0.4-0.4,0.9-0.4,1.3-0.1c3,2.6,4.8,6.2,5.1,10.1c0.3,4-1,7.8-3.6,10.8C120.8,84.7,116.6,86.4,112.4,86.4z M104.6,81.9
				c5.4,4,13.1,3.3,17.6-1.9c2.3-2.6,3.4-6,3.1-9.5c-0.2-3.1-1.6-6-3.8-8.3L104.6,81.9z"/>
		</g>
	</g>
	<g>
		<path class="st14" d="M103.1,80.8c5.6,5.4,14.4,4.7,19.1-0.7c2.3-2.6,3.4-6,3.1-9.5c-0.2-3.4-1.9-6.9-5.1-9.5"/>
	</g>
</g>
<g>
	<g>
		<g>
			<path class="st14" d="M61.9,88.2c-3.6,6.8-1,15.2,5.8,18.9c6.8,3.6,15.2,1,18.9-5.8L61.9,88.2z"/>
			<path class="st9" d="M74.2,109.6c-2.4,0-4.8-0.6-6.9-1.7C60,104.1,57.2,95,61.1,87.7c0.1-0.2,0.3-0.4,0.5-0.4
				c0.2-0.1,0.5-0.1,0.7,0.1l24.7,13c0.4,0.2,0.6,0.8,0.4,1.3c-1.9,3.5-5,6.1-8.7,7.2C77.2,109.3,75.7,109.6,74.2,109.6z M62.4,89.4
				c-2.7,6.2-0.2,13.5,5.8,16.7c3.1,1.6,6.6,1.9,9.9,0.9c3.1-0.9,5.5-2.9,7.2-5.5L62.4,89.4z"/>
		</g>
	</g>
	<g>
		<path class="st14" d="M63.1,87.7c-4,6.7-1.3,15.1,5.1,18.4c3.1,1.6,6.6,1.9,9.9,0.9s6.3-3.4,8.2-7.2"/>
	</g>
</g>
<g>
	<g class="st15">
		<path class="st2" d="M90.8,80.5c-18.6,0-34.5-5.7-40.1-13.5l5.2,32.1l0,0c1.3,8.4,16.4,15.1,34.8,15.1c18.5,0,33.6-6.7,34.8-15.2
			l5.2-32C125.2,74.8,109.4,80.5,90.8,80.5z"/>
	</g>
</g>
<g>
	<path class="st3" d="M90.9,116.4c-18.3,0-33.4-6.4-35.8-15.1H55l-0.2-1l-5.4-33.1c-0.1-0.7,0.4-1.3,1-1.4c0.7-0.1,1.3,0.4,1.4,1
		l5.4,33.1c1.2,7.9,16,14,33.6,14c17.5,0,32.5-6.3,33.6-14.2l5.4-33c0.1-0.7,0.7-1.1,1.4-1s1.1,0.7,1,1.4l-5.4,33
		C125.7,109.4,110.2,116.4,90.9,116.4z"/>
</g>
<g>
	<circle class="st6" cx="97.7" cy="105.5" r="5.4"/>
	<path class="st7" d="M97.7,111.9c-3.5,0-6.3-2.8-6.3-6.3s2.8-6.3,6.3-6.3s6.3,2.8,6.3,6.3S101.2,111.9,97.7,111.9z M97.7,101.1
		c-2.5,0-4.5,2-4.5,4.5s2,4.5,4.5,4.5s4.5-2,4.5-4.5S100.2,101.1,97.7,101.1z"/>
</g>
<g>
	<circle class="st6" cx="112.6" cy="74.4" r="5.4"/>
	<path class="st7" d="M112.6,80.8c-3.5,0-6.3-2.8-6.3-6.3s2.8-6.3,6.3-6.3s6.3,2.8,6.3,6.3C118.9,77.9,116.1,80.8,112.6,80.8z
		 M112.6,69.9c-2.5,0-4.5,2-4.5,4.5s2,4.5,4.5,4.5s4.5-2,4.5-4.5S115,69.9,112.6,69.9z"/>
</g>
<g>
	<circle class="st6" cx="94" cy="86.4" r="5.4"/>
	<path class="st7" d="M93.9,92.7c-3.5,0-6.3-2.8-6.3-6.3s2.8-6.3,6.3-6.3s6.3,2.8,6.3,6.3C100.3,89.9,97.4,92.7,93.9,92.7z
		 M93.9,81.9c-2.5,0-4.5,2-4.5,4.5s2,4.5,4.5,4.5s4.5-2,4.5-4.5S96.4,81.9,93.9,81.9z"/>
</g>
<g>
	<circle class="st8" cx="87.5" cy="73.3" r="6.3"/>
	<path class="st9" d="M87.5,80.5c-4,0-7.2-3.2-7.2-7.2s3.2-7.2,7.2-7.2s7.2,3.2,7.2,7.2S91.4,80.5,87.5,80.5z M87.5,68
		c-3,0-5.4,2.4-5.4,5.4s2.4,5.4,5.4,5.4s5.4-2.4,5.4-5.4S90.4,68,87.5,68z"/>
</g>
<g>
	<circle class="st6" cx="73.4" cy="71.6" r="5.4"/>
	<path class="st7" d="M73.4,77.9c-3.5,0-6.3-2.8-6.3-6.3s2.8-6.3,6.3-6.3s6.3,2.8,6.3,6.3S76.9,77.9,73.4,77.9z M73.4,67.1
		c-2.5,0-4.5,2-4.5,4.5s2,4.5,4.5,4.5s4.5-2,4.5-4.5S75.9,67.1,73.4,67.1z"/>
</g>
<g>
	<path class="st3" d="M90.5,80.5c-13.8,0-26.9-3.1-35-8.4c-0.6-0.4-0.7-1.1-0.4-1.7c0.4-0.6,1.1-0.7,1.7-0.4
		c7.8,5,20.3,8.1,33.6,8.1c13.9,0,26.7-3.2,34.4-8.5c0.6-0.4,1.3-0.2,1.7,0.3c0.4,0.6,0.2,1.3-0.3,1.7
		C118.2,77.1,104.8,80.5,90.5,80.5z"/>
</g>
<g>
	<path class="st4" d="M74.6,109.7c1.2,0.4,2-0.2,2.2-0.3c0.1-0.1,1-0.7,0.9-1.9c-0.2-5.4-2.9-10.4-3.1-10.7
		c-0.3-0.4-1.3-1.2-2.5-0.7c-1.4,0.6-3.7,2.2-3.7,2.2s-2.2,1.7-3.1,2.8c-0.8,1-0.4,2.2-0.1,2.6C65.4,104,69.4,108,74.6,109.7z"/>
	<path class="st13" d="M75.4,110.8c-0.4,0-0.7-0.1-1.1-0.2c-5.4-1.8-9.5-5.9-9.8-6.3c-0.6-0.7-1-2.4,0.1-3.7c1-1.2,3.2-2.9,3.3-3
		c0.1-0.1,2.4-1.7,3.9-2.3c1.6-0.7,3.1,0.2,3.7,1c0.3,0.4,3.1,5.6,3.3,11.3c0.1,1.6-1,2.5-1.3,2.8C76.8,110.6,76.1,110.8,75.4,110.8
		z M68.9,99.1c0,0-2.1,1.6-3,2.7c-0.6,0.7-0.1,1.4,0,1.5c0,0,3.9,4,9,5.7l0,0c0.6,0.2,1,0,1.3-0.1c0.1-0.1,0.6-0.5,0.5-1.2
		c-0.2-5.4-2.9-10.1-2.9-10.2l0,0c0,0-0.6-0.7-1.4-0.4C71.1,97.5,68.9,99,68.9,99.1L68.9,99.1z"/>
</g>
<g class="st0">
	<path class="st1" d="M91,55.1c-22.7,0-40.4,8.5-40.4,19.5c0,0.9,0.2,1.9,0.5,2.8l5.1,31.9l0.2,1h0.1c2.3,8.4,16.8,14.6,34.5,14.6
		c18.6,0,33.6-6.8,34.8-15.7l5.1-31.7c0.3-1.1,0.5-2,0.5-2.9C131.4,63.7,113.7,55.1,91,55.1z"/>
</g>
<g>
	<path class="st2" d="M131.5,67.7c0.3-0.9,0.5-1.8,0.5-2.8c0-10.6-18.3-19.1-41-19.1s-41,8.5-41,19.1c0,0.9,0.2,1.9,0.5,2.7
		l5.4,33.3l0,0c1.3,8.5,16.5,15.2,35.1,15.2c18.7,0,33.9-6.8,35.1-15.3L131.5,67.7z"/>
	<path class="st3" d="M91,117.5c-18.6,0-33.7-6.5-36.1-15.2h-0.1l-0.2-1.1l-5.4-33.3c-0.3-1-0.5-2-0.5-2.9
		c0-11.4,18.6-20.4,42.2-20.4s42.2,8.9,42.2,20.4c0,1-0.2,2-0.5,3.1l-5.4,33.1C126.1,110.4,110.4,117.5,91,117.5z M57,99.8L57,99.8
		l0.2,1.1c1.2,7.9,16.1,14.2,33.9,14.2c17.6,0,32.8-6.4,33.9-14.3l5.4-33.4c0.3-0.9,0.5-1.7,0.5-2.4c0-9.7-18.2-17.8-39.8-17.8
		S51.3,55.3,51.3,65c0,0.7,0.2,1.4,0.5,2.4L57,99.8z"/>
</g>
<g>
	<g>
		
			<ellipse transform="matrix(3.038680e-02 -0.9995 0.9995 3.038680e-02 13.8754 153.8279)" class="st16" cx="86.2" cy="69.8" rx="11.2" ry="11.2"/>
		<path class="st17" d="M86.2,81.9c-0.2,0-0.2,0-0.4,0c-3.2-0.1-6.3-1.4-8.4-3.8c-2.3-2.3-3.4-5.4-3.3-8.7
			c0.2-6.7,5.9-11.9,12.5-11.8c3.2,0.1,6.3,1.4,8.4,3.8c2.2,2.3,3.4,5.4,3.3,8.7C98.1,76.7,92.7,81.9,86.2,81.9z M86.2,59.5
			c-5.5,0-10.1,4.4-10.3,10c-0.1,2.7,0.9,5.4,2.8,7.4s4.5,3.2,7.2,3.2c2.8,0.1,5.4-0.9,7.4-2.8s3.2-4.5,3.2-7.2s-0.9-5.4-2.8-7.4
			s-4.5-3.2-7.2-3.2C86.4,59.5,86.3,59.5,86.2,59.5z"/>
	</g>
	<g>
		<g>
			<g>
				<path class="st18" d="M84,70.8c0.5-0.1,0.8,0.2,0.8,0.3c0.1,0.1,0.4,0.4,0.2,0.8c-0.5,2.2-2,4.1-2,4.1c-0.2,0.2-0.6,0.4-1.1,0.1
					S80.6,75,80.6,75s-0.8-0.8-1.1-1.4c-0.2-0.5,0-0.9,0.2-1.1C79.9,72.4,81.8,71.1,84,70.8z"/>
				<path class="st6" d="M82.5,77.2c-0.3,0-0.7-0.1-1-0.3c-0.6-0.4-1.4-1.2-1.5-1.3c-0.1-0.2-0.9-1-1.2-1.6
					c-0.5-0.8-0.2-1.7,0.4-2.2c0.2-0.2,2.3-1.7,4.8-2c0.6-0.1,1.2,0.1,1.7,0.5c0.5,0.5,0.6,1.1,0.5,1.7c-0.5,2.4-2.1,4.5-2.3,4.6
					C83.4,77,82.9,77.2,82.5,77.2z M84.2,71.7c-2,0.3-3.8,1.5-3.8,1.6c0.2,0.2,0.8,0.8,1,1.1c0.2,0.2,0.8,0.8,1.1,1
					C82.5,75.3,83.7,73.6,84.2,71.7L84.2,71.7L84.2,71.7z"/>
			</g>
		</g>
		<g>
			<g>
				<path class="st18" d="M84,70.8c0.5-0.1,0.8,0.2,0.8,0.3c0.1,0.1,0.4,0.4,0.2,0.8c-0.5,2.2-2,4.1-2,4.1c-0.2,0.2-0.6,0.4-1.1,0.1
					S80.6,75,80.6,75s-0.8-0.8-1.1-1.4c-0.2-0.5,0-0.9,0.2-1.1C79.9,72.4,81.8,71.1,84,70.8z"/>
				<path class="st6" d="M82.5,77.2c-0.3,0-0.7-0.1-1-0.3c-0.6-0.4-1.4-1.2-1.5-1.3c-0.1-0.2-0.9-1-1.2-1.6
					c-0.5-0.8-0.2-1.7,0.4-2.2c0.2-0.2,2.3-1.7,4.8-2c0.6-0.1,1.2,0.1,1.7,0.5c0.5,0.5,0.6,1.1,0.5,1.7c-0.5,2.4-2.1,4.5-2.3,4.6
					C83.4,77,82.9,77.2,82.5,77.2z M84.2,71.7c-2,0.3-3.8,1.5-3.8,1.6c0.2,0.2,0.8,0.8,1,1.1c0.2,0.2,0.8,0.8,1.1,1
					C82.5,75.3,83.7,73.6,84.2,71.7L84.2,71.7L84.2,71.7z"/>
			</g>
		</g>
		<g>
			<line class="st11" x1="83" y1="72.8" x2="84" y2="71.8"/>
			<path class="st6" d="M83,73.7c-0.2,0-0.5-0.1-0.7-0.3c-0.4-0.4-0.3-1,0.1-1.4l1-1c0.4-0.4,1-0.3,1.4,0.1s0.3,1-0.1,1.4l-1,1
				C83.4,73.6,83.2,73.7,83,73.7z"/>
		</g>
		<g>
			<g>
				<path class="st18" d="M87.3,67.7c-0.2,0.5,0.2,0.8,0.2,0.8c0.1,0.1,0.3,0.4,0.8,0.3c2.2-0.4,4.1-1.7,4.2-1.8
					c0.2-0.2,0.5-0.6,0.2-1.1c-0.2-0.5-1-1.4-1-1.4s-0.8-0.8-1.4-1.1c-0.5-0.3-0.9-0.1-1.1,0.1C89.2,63.6,87.8,65.5,87.3,67.7z"/>
				<path class="st6" d="M88.2,69.8c-0.5,0-1-0.2-1.4-0.6c-0.5-0.5-0.6-1.1-0.5-1.7c0.5-2.4,2.1-4.5,2.3-4.6
					c0.5-0.5,1.4-0.7,2.2-0.2c0.6,0.4,1.4,1.2,1.5,1.3c0.1,0.2,0.9,1,1.2,1.6c0.5,0.8,0.2,1.7-0.3,2.2c-0.2,0.2-2.3,1.7-4.8,2
					C88.4,69.8,88.3,69.8,88.2,69.8z M87.3,67.7l0.9,0.2c2-0.4,3.8-1.6,3.8-1.6c-0.2-0.2-0.8-0.8-1-1.1s-0.8-0.8-1.1-1
					c0,0.1-1.3,1.7-1.7,3.6l0,0L87.3,67.7z"/>
			</g>
		</g>
		<g>
			<g>
				<path class="st18" d="M87.3,67.7c-0.2,0.5,0.2,0.8,0.2,0.8c0.1,0.1,0.3,0.4,0.8,0.3c2.2-0.4,4.1-1.7,4.2-1.8
					c0.2-0.2,0.5-0.6,0.2-1.1c-0.2-0.5-1-1.4-1-1.4s-0.8-0.8-1.4-1.1c-0.5-0.3-0.9-0.1-1.1,0.1C89.2,63.6,87.8,65.5,87.3,67.7z"/>
				<path class="st6" d="M88.2,69.8c-0.5,0-1-0.2-1.4-0.6c-0.5-0.5-0.6-1.1-0.5-1.7c0.5-2.4,2.1-4.5,2.3-4.6
					c0.5-0.5,1.4-0.7,2.2-0.2c0.6,0.4,1.4,1.2,1.5,1.3c0.1,0.2,0.9,1,1.2,1.6c0.5,0.8,0.2,1.7-0.3,2.2c-0.2,0.2-2.3,1.7-4.8,2
					C88.4,69.8,88.3,69.8,88.2,69.8z M87.3,67.7l0.9,0.2c2-0.4,3.8-1.6,3.8-1.6c-0.2-0.2-0.8-0.8-1-1.1s-0.8-0.8-1.1-1
					c0,0.1-1.3,1.7-1.7,3.6l0,0L87.3,67.7z"/>
			</g>
		</g>
		<g>
			<line class="st11" x1="89.4" y1="66.8" x2="88.4" y2="67.7"/>
			<path class="st6" d="M88.4,68.6c-0.2,0-0.5-0.1-0.7-0.3c-0.4-0.4-0.3-1,0.1-1.4l0.9-0.9c0.4-0.4,1-0.3,1.4,0.1s0.3,1-0.1,1.4
				l-1,1C88.9,68.6,88.6,68.6,88.4,68.6z"/>
		</g>
		<g>
			<g>
				<path class="st18" d="M87.2,72c-0.1-0.5,0.2-0.8,0.3-0.8c0.1-0.1,0.4-0.4,0.8-0.2c2.2,0.5,4.1,2,4.1,2c0.2,0.2,0.4,0.6,0.1,1.1
					s-1.1,1.3-1.1,1.3s-0.8,0.8-1.4,1.1c-0.5,0.2-0.9,0-1.1-0.2C88.9,76.1,87.5,74.2,87.2,72z"/>
				<path class="st6" d="M89.6,77.4c-0.5,0-1.1-0.2-1.4-0.6c-0.3-0.2-1.7-2.4-2-4.7c-0.1-0.6,0.1-1.3,0.5-1.7
					c0.5-0.5,1.1-0.6,1.7-0.5c2.3,0.5,4.3,2,4.6,2.3c0.5,0.5,0.7,1.4,0.2,2.2c-0.4,0.6-1.2,1.4-1.3,1.5c-0.2,0.1-1,0.9-1.6,1.2
					C90.1,77.3,89.8,77.4,89.6,77.4z M88.1,71.8c0.3,2,1.5,3.8,1.6,3.8c0.2-0.2,0.8-0.8,1.1-1c0.2-0.2,0.8-0.8,1-1.1
					C91.7,73.5,90.1,72.2,88.1,71.8L88.1,71.8L88.1,71.8z"/>
			</g>
		</g>
		<g>
			<g>
				<path class="st18" d="M87.2,72c-0.1-0.5,0.2-0.8,0.3-0.8c0.1-0.1,0.4-0.4,0.8-0.2c2.2,0.5,4.1,2,4.1,2c0.2,0.2,0.4,0.6,0.1,1.1
					s-1.1,1.3-1.1,1.3s-0.8,0.8-1.4,1.1c-0.5,0.2-0.9,0-1.1-0.2C88.9,76.1,87.5,74.2,87.2,72z"/>
				<path class="st6" d="M89.6,77.4c-0.5,0-1.1-0.2-1.4-0.6c-0.3-0.2-1.7-2.4-2-4.7c-0.1-0.6,0.1-1.3,0.5-1.7
					c0.5-0.5,1.1-0.6,1.7-0.5c2.3,0.5,4.3,2,4.6,2.3c0.5,0.5,0.7,1.4,0.2,2.2c-0.4,0.6-1.2,1.4-1.3,1.5c-0.2,0.1-1,0.9-1.6,1.2
					C90.1,77.3,89.8,77.4,89.6,77.4z M88.1,71.8c0.3,2,1.5,3.8,1.6,3.8c0.2-0.2,0.8-0.8,1.1-1c0.2-0.2,0.8-0.8,1-1.1
					C91.7,73.5,90.1,72.2,88.1,71.8L88.1,71.8L88.1,71.8z"/>
			</g>
		</g>
		<g>
			<line class="st11" x1="89.2" y1="72.9" x2="88.3" y2="72"/>
			<path class="st6" d="M89.2,73.9c-0.2,0-0.5-0.1-0.7-0.3l-1-1c-0.4-0.4-0.3-1,0.1-1.4s1-0.3,1.4,0.1l1,1c0.4,0.4,0.3,1-0.1,1.4
				C89.7,73.9,89.5,73.9,89.2,73.9z"/>
		</g>
		<g>
			<g>
				<path class="st18" d="M84.1,68.6c0.5,0.2,0.8-0.2,0.8-0.2c0.1-0.1,0.4-0.3,0.3-0.8c-0.4-2.2-1.7-4.1-1.8-4.2
					c-0.2-0.2-0.6-0.5-1.1-0.2s-1.4,1.1-1.4,1.1s-0.8,0.8-1.1,1.4c-0.3,0.5-0.1,0.9,0.1,1.1C80,66.8,81.9,68.2,84.1,68.6z"/>
				<path class="st6" d="M84.3,69.6c-0.2,0-0.3,0-0.5-0.1c-2.3-0.5-4.4-2-4.6-2.3c-0.5-0.5-0.7-1.4-0.2-2.2c0.4-0.6,1.2-1.4,1.3-1.5
					c0.2-0.1,1-0.9,1.6-1.2c0.8-0.5,1.7-0.2,2.2,0.3c0.2,0.2,1.7,2.3,2,4.8c0.2,0.9-0.4,1.5-0.5,1.7C85.2,69.5,84.8,69.6,84.3,69.6z
					 M80.6,66.1c0.1,0,1.7,1.3,3.6,1.7l0,0L84,68.6l0.2-0.9c-0.4-2-1.6-3.8-1.7-3.8c-0.2,0.2-0.8,0.8-1.1,1
					C81.4,65.2,80.9,65.8,80.6,66.1z"/>
			</g>
		</g>
		<g>
			<g>
				<path class="st18" d="M84.1,68.6c0.5,0.2,0.8-0.2,0.8-0.2c0.1-0.1,0.4-0.3,0.3-0.8c-0.4-2.2-1.7-4.1-1.8-4.2
					c-0.2-0.2-0.6-0.5-1.1-0.2s-1.4,1.1-1.4,1.1s-0.8,0.8-1.1,1.4c-0.3,0.5-0.1,0.9,0.1,1.1C80,66.8,81.9,68.2,84.1,68.6z"/>
				<path class="st6" d="M84.3,69.6c-0.2,0-0.3,0-0.5-0.1c-2.3-0.5-4.4-2-4.6-2.3c-0.5-0.5-0.7-1.4-0.2-2.2c0.4-0.6,1.2-1.4,1.3-1.5
					c0.2-0.1,1-0.9,1.6-1.2c0.8-0.5,1.7-0.2,2.2,0.3c0.2,0.2,1.7,2.3,2,4.8c0.2,0.9-0.4,1.5-0.5,1.7C85.2,69.5,84.8,69.6,84.3,69.6z
					 M80.6,66.1c0.1,0,1.7,1.3,3.6,1.7l0,0L84,68.6l0.2-0.9c-0.4-2-1.6-3.8-1.7-3.8c-0.2,0.2-0.8,0.8-1.1,1
					C81.4,65.2,80.9,65.8,80.6,66.1z"/>
			</g>
		</g>
		<g>
			<line class="st11" x1="83.2" y1="66.6" x2="84.1" y2="67.6"/>
			<path class="st6" d="M84.1,68.6c-0.2,0-0.5-0.1-0.7-0.3l-1-1c-0.4-0.4-0.3-1,0.1-1.4s1-0.3,1.4,0.1l1,1c0.4,0.4,0.3,1-0.1,1.4
				C84.6,68.4,84.3,68.6,84.1,68.6z"/>
		</g>
	</g>
</g>
<g>
	<path class="st7" d="M83.5,71.8c-1.7,0.7-3.4,1-5.1,1.1L86.8,95c1.7-0.2,3.4-0.5,5.1-1.1s3.2-1.5,4.6-2.6l-8.4-22
		C86.8,70.3,85.2,71.2,83.5,71.8z"/>
	<path class="st19" d="M86.8,96.3c-0.5,0-1-0.3-1.2-0.8l-8.4-22.1c-0.2-0.4-0.1-0.8,0.2-1.1c0.2-0.3,0.6-0.5,1-0.6
		c1.7-0.2,3.2-0.5,4.8-1.1c1.5-0.6,2.9-1.4,4.2-2.3c0.3-0.2,0.8-0.3,1.1-0.2c0.4,0.1,0.7,0.4,0.8,0.8l8.3,22.2
		c0.2,0.5,0,1.1-0.4,1.4c-1.5,1.1-3.1,2-4.9,2.7C90.6,95.8,88.7,96.2,86.8,96.3L86.8,96.3z M80.2,74l7.5,19.7c1.3-0.2,2.6-0.5,3.8-1
		c1.2-0.5,2.4-1.1,3.5-1.8l-7.5-19.7c-1.1,0.7-2.3,1.3-3.5,1.7l0,0C82.8,73.5,81.5,73.9,80.2,74z M83.5,71.8L83.5,71.8L83.5,71.8z"
		/>
</g>
<g>
	<path class="st7" d="M98.4,58.2c-1.8-0.4-3.4-1.1-4.9-2l-6,29.6c1.4,0.9,3.1,1.6,4.9,2s3.5,0.4,5.3,0.1l6-29.6
		C102,58.5,100.2,58.5,98.4,58.2z"/>
	<path class="st19" d="M95.3,89.3c-1.1,0-2-0.1-3.1-0.3c-1.9-0.4-3.6-1.1-5.3-2.1c-0.5-0.3-0.7-0.8-0.5-1.3l6-29.6
		c0.1-0.4,0.4-0.8,0.8-0.9c0.4-0.2,0.8-0.2,1.1,0.1c1.4,0.9,2.9,1.5,4.5,1.8l0,0c1.6,0.3,3.2,0.4,4.8,0.1c0.4-0.1,0.8,0.1,1.1,0.4
		c0.3,0.3,0.4,0.7,0.3,1.1l-6,29.6c-0.1,0.5-0.5,0.9-1.1,1C97,89.2,96.1,89.3,95.3,89.3z M88.9,85.2c1.2,0.7,2.4,1.1,3.7,1.4
		c1.3,0.2,2.6,0.3,3.9,0.2l5.5-27.1c-1.4,0.1-2.6,0-3.9-0.3l0,0c-1.3-0.2-2.6-0.7-3.8-1.3L88.9,85.2z"/>
</g>
<g>
	<path class="st7" d="M62.1,74.5c-1.8,0.3-3.5,0.2-5.3-0.2l4.8,29.9c1.7,0.4,3.5,0.5,5.3,0.2s3.5-0.9,5-1.8l-4.8-29.9
		C65.5,73.5,63.8,74.2,62.1,74.5z"/>
	<path class="st19" d="M64.6,105.8c-1.1,0-2.2-0.1-3.2-0.3c-0.5-0.1-0.9-0.5-1-1.1l-4.8-29.9c-0.1-0.4,0.1-0.8,0.4-1.1
		c0.3-0.3,0.7-0.4,1.1-0.3c1.6,0.3,3.2,0.4,4.8,0.2l0,0c1.6-0.2,3.1-0.8,4.5-1.7c0.4-0.2,0.8-0.2,1.1-0.1c0.4,0.2,0.6,0.5,0.7,0.9
		l4.8,29.9c0.1,0.5-0.2,1.1-0.6,1.3c-1.7,1-3.5,1.7-5.4,2C66.2,105.7,65.5,105.8,64.6,105.8z M62.8,103.1c1.4,0.2,2.6,0.2,4,0
		c1.3-0.2,2.6-0.6,3.8-1.2l-4.5-27.3c-1.2,0.5-2.5,0.9-3.8,1.1l0,0c-1.3,0.2-2.6,0.2-3.9,0.2L62.8,103.1z M62.1,74.5L62.1,74.5
		L62.1,74.5z"/>
</g>
<g>
	<path class="st7" d="M69.8,61.9c-1.8,0.2-3.5-0.1-5.2-0.6l2.3,30.2c1.7,0.5,3.4,0.7,5.2,0.6c1.8-0.2,3.5-0.6,5.1-1.4l-2.3-30.2
		C73.2,61.3,71.6,61.8,69.8,61.9z"/>
	<path class="st19" d="M71,93.4c-1.5,0-3-0.2-4.5-0.7c-0.5-0.2-0.8-0.6-0.9-1.1l-2.3-30.2c0-0.4,0.2-0.8,0.5-1.1
		c0.3-0.2,0.8-0.3,1.1-0.2c1.6,0.5,3.2,0.7,4.8,0.5c1.6-0.2,3.2-0.5,4.7-1.2c0.4-0.2,0.8-0.2,1.1,0.1c0.4,0.2,0.6,0.6,0.6,1
		l2.3,30.2c0.1,0.5-0.2,1-0.7,1.2c-1.7,0.8-3.6,1.4-5.5,1.4C71.7,93.4,71.4,93.4,71,93.4z M68,90.5c1.3,0.3,2.6,0.4,3.9,0.3
		s2.6-0.4,3.8-0.9l-2-27.6c-1.3,0.5-2.6,0.7-3.8,0.8l0,0c-1.3,0.1-2.6,0-3.9-0.2L68,90.5z M69.8,61.9L69.8,61.9L69.8,61.9z"/>
</g>
<g>
	<g>
		<g>
			<circle class="st16" cx="106.4" cy="96.6" r="12.1"/>
		</g>
		<g>
			<path class="st17" d="M106.4,109.6c-7.2,0-13-5.8-13-13s5.8-13,13-13s13,5.8,13,13S113.5,109.6,106.4,109.6z M106.4,85.3
				c-6.2,0-11.2,5.1-11.2,11.2s5.1,11.2,11.2,11.2s11.2-5.1,11.2-11.2S112.5,85.3,106.4,85.3z"/>
		</g>
	</g>
	<g>
		<g>
			<g>
				<g>
					<path class="st18" d="M104,97.8c0.5-0.1,0.9,0.2,0.9,0.3c0.1,0.1,0.4,0.4,0.2,0.9c-0.5,2.4-2,4.5-2.1,4.5
						c-0.2,0.2-0.7,0.5-1.1,0.2c-0.6-0.4-1.4-1.2-1.4-1.2s-0.8-0.9-1.2-1.4c-0.3-0.5,0-1,0.2-1.1C99.6,99.6,101.7,98.1,104,97.8z"/>
				</g>
				<g>
					<path class="st6" d="M102.4,104.6c-0.3,0-0.6-0.1-0.9-0.2c-0.6-0.4-1.5-1.2-1.6-1.4c-0.2-0.2-1-1-1.4-1.7
						c-0.5-0.8-0.2-1.7,0.3-2.2c0.2-0.2,2.4-1.8,5-2.3c0.6-0.2,1.2,0.1,1.7,0.5c0.3,0.3,0.7,1,0.5,1.7c-0.5,2.6-2.1,4.8-2.3,5
						C103.4,104.4,103,104.6,102.4,104.6z M104.2,98.6c-2.3,0.4-4.1,1.8-4.1,1.8c0.2,0.5,0.9,1.1,1.1,1.4s0.9,0.8,1.3,1.1l0,0
						c0.1,0,1.5-1.9,2-4.1l0,0L104.2,98.6z"/>
				</g>
			</g>
		</g>
		<g>
			<g>
				<g>
					<path class="st18" d="M104,97.8c0.5-0.1,0.9,0.2,0.9,0.3c0.1,0.1,0.4,0.4,0.2,0.9c-0.5,2.4-2,4.5-2.1,4.5
						c-0.2,0.2-0.7,0.5-1.1,0.2c-0.6-0.4-1.4-1.2-1.4-1.2s-0.8-0.9-1.2-1.4c-0.3-0.5,0-1,0.2-1.1C99.6,99.6,101.7,98.1,104,97.8z"/>
				</g>
				<g>
					<path class="st6" d="M102.4,104.6c-0.3,0-0.6-0.1-0.9-0.2c-0.6-0.4-1.5-1.2-1.6-1.4c-0.2-0.2-1-1-1.4-1.7
						c-0.5-0.8-0.2-1.7,0.3-2.2c0.2-0.2,2.4-1.8,5-2.3c0.6-0.2,1.2,0.1,1.7,0.5c0.3,0.3,0.7,1,0.5,1.7c-0.5,2.6-2.1,4.8-2.3,5
						C103.4,104.4,103,104.6,102.4,104.6z M104.2,98.6c-2.3,0.4-4.1,1.8-4.1,1.8c0.2,0.5,0.9,1.1,1.1,1.4s0.9,0.8,1.3,1.1l0,0
						c0.1,0,1.5-1.9,2-4.1l0,0L104.2,98.6z"/>
				</g>
			</g>
		</g>
		<g>
			<g>
				<line class="st11" x1="103" y1="99.9" x2="104" y2="98.9"/>
			</g>
			<g>
				<path class="st6" d="M103,100.8c-0.2,0-0.5-0.1-0.6-0.2c-0.3-0.3-0.3-0.9,0-1.2l1.1-1.1c0.3-0.3,0.9-0.3,1.2,0
					c0.3,0.3,0.3,0.9,0,1.2l-1.1,1.1C103.4,100.7,103.2,100.8,103,100.8z"/>
			</g>
		</g>
		<g>
			<g>
				<g>
					<path class="st18" d="M107.5,94.3c-0.1,0.5,0.2,0.9,0.3,0.9c0.1,0.1,0.4,0.4,0.9,0.2c2.4-0.5,4.5-2,4.5-2.1
						c0.2-0.2,0.5-0.7,0.2-1.1c-0.4-0.6-1.2-1.4-1.2-1.4s-0.9-0.8-1.4-1.2c-0.5-0.3-1,0-1.1,0.2C109.5,89.8,107.9,92,107.5,94.3z"/>
				</g>
				<g>
					<path class="st6" d="M108.5,96.4c-0.5,0-1-0.2-1.3-0.5c-0.5-0.5-0.6-1.1-0.5-1.7c0.5-2.6,2.1-4.8,2.3-5
						c0.4-0.4,1.3-0.8,2.2-0.3c0.7,0.4,1.5,1.2,1.7,1.3c0.2,0.2,1,1,1.4,1.7c0.5,0.8,0.2,1.7-0.2,2.2c-0.2,0.2-2.4,1.8-5,2.3
						C108.7,96.3,108.6,96.4,108.5,96.4z M110.2,90.4c-0.3,0.2-1.6,2.1-1.9,4.1l0,0c0,0.1,0,0.1,0.1,0.2c2.4-0.4,4.2-1.8,4.3-1.9
						c-0.3-0.5-0.9-1.2-1.1-1.4C111.3,91.2,110.7,90.6,110.2,90.4z"/>
				</g>
			</g>
		</g>
		<g>
			<g>
				<g>
					<path class="st18" d="M107.5,94.3c-0.1,0.5,0.2,0.9,0.3,0.9c0.1,0.1,0.4,0.4,0.9,0.2c2.4-0.5,4.5-2,4.5-2.1
						c0.2-0.2,0.5-0.7,0.2-1.1c-0.4-0.6-1.2-1.4-1.2-1.4s-0.9-0.8-1.4-1.2c-0.5-0.3-1,0-1.1,0.2C109.5,89.8,107.9,92,107.5,94.3z"/>
				</g>
				<g>
					<path class="st6" d="M108.5,96.4c-0.5,0-1-0.2-1.3-0.5c-0.5-0.5-0.6-1.1-0.5-1.7c0.5-2.6,2.1-4.8,2.3-5
						c0.4-0.4,1.3-0.8,2.2-0.3c0.7,0.4,1.5,1.2,1.7,1.3c0.2,0.2,1,1,1.4,1.7c0.5,0.8,0.2,1.7-0.2,2.2c-0.2,0.2-2.4,1.8-5,2.3
						C108.7,96.3,108.6,96.4,108.5,96.4z M110.2,90.4c-0.3,0.2-1.6,2.1-1.9,4.1l0,0c0,0.1,0,0.1,0.1,0.2c2.4-0.4,4.2-1.8,4.3-1.9
						c-0.3-0.5-0.9-1.2-1.1-1.4C111.3,91.2,110.7,90.6,110.2,90.4z"/>
				</g>
			</g>
		</g>
		<g>
			<g>
				<line class="st11" x1="109.7" y1="93.2" x2="108.6" y2="94.3"/>
			</g>
			<g>
				<path class="st6" d="M108.6,95.2c-0.2,0-0.5-0.1-0.6-0.2c-0.3-0.3-0.3-0.9,0-1.2l1.1-1.1c0.3-0.3,0.9-0.3,1.2,0
					c0.3,0.3,0.3,0.9,0,1.2l-1.1,1.1C109.1,95.1,108.9,95.2,108.6,95.2z"/>
			</g>
		</g>
		<g>
			<g>
				<g>
					<path class="st18" d="M107.5,98.9c-0.1-0.5,0.2-0.9,0.3-0.9c0.1-0.1,0.4-0.4,0.9-0.2c2.4,0.5,4.5,2,4.5,2.1
						c0.2,0.2,0.5,0.7,0.2,1.1c-0.4,0.6-1.2,1.4-1.2,1.4s-0.9,0.8-1.4,1.2c-0.5,0.3-1,0-1.1-0.2C109.5,103.3,107.9,101.3,107.5,98.9
						z"/>
				</g>
				<g>
					<path class="st6" d="M110.2,104.6c-0.5,0-1-0.2-1.3-0.5c-0.2-0.2-1.8-2.4-2.3-5c-0.2-0.6,0.1-1.2,0.5-1.7
						c0.5-0.5,1.1-0.6,1.7-0.5c2.6,0.5,4.8,2.1,5,2.3c0.5,0.5,0.8,1.4,0.2,2.2c-0.4,0.6-1.2,1.5-1.4,1.6c-0.2,0.2-1,1-1.7,1.4
						C110.8,104.5,110.5,104.6,110.2,104.6z M108.6,98.6L108.6,98.6l-0.2,0.2c0.4,2,1.6,3.8,1.8,4.1c0.5-0.2,1.1-0.9,1.4-1.1
						c0.2-0.2,0.8-0.9,1.1-1.3C112.6,100.4,110.7,99,108.6,98.6z"/>
				</g>
			</g>
		</g>
		<g>
			<g>
				<g>
					<path class="st18" d="M107.5,98.9c-0.1-0.5,0.2-0.9,0.3-0.9c0.1-0.1,0.4-0.4,0.9-0.2c2.4,0.5,4.5,2,4.5,2.1
						c0.2,0.2,0.5,0.7,0.2,1.1c-0.4,0.6-1.2,1.4-1.2,1.4s-0.9,0.8-1.4,1.2c-0.5,0.3-1,0-1.1-0.2C109.5,103.3,107.9,101.3,107.5,98.9
						z"/>
				</g>
				<g>
					<path class="st6" d="M110.2,104.6c-0.5,0-1-0.2-1.3-0.5c-0.2-0.2-1.8-2.4-2.3-5c-0.2-0.6,0.1-1.2,0.5-1.7
						c0.5-0.5,1.1-0.6,1.7-0.5c2.6,0.5,4.8,2.1,5,2.3c0.5,0.5,0.8,1.4,0.2,2.2c-0.4,0.6-1.2,1.5-1.4,1.6c-0.2,0.2-1,1-1.7,1.4
						C110.8,104.5,110.5,104.6,110.2,104.6z M108.6,98.6L108.6,98.6l-0.2,0.2c0.4,2,1.6,3.8,1.8,4.1c0.5-0.2,1.1-0.9,1.4-1.1
						c0.2-0.2,0.8-0.9,1.1-1.3C112.6,100.4,110.7,99,108.6,98.6z"/>
				</g>
			</g>
		</g>
		<g>
			<g>
				<line class="st11" x1="109.7" y1="99.9" x2="108.6" y2="98.9"/>
			</g>
			<g>
				<path class="st6" d="M109.7,100.8c-0.2,0-0.5-0.1-0.6-0.2l-1.1-1.1c-0.3-0.3-0.3-0.9,0-1.2s0.9-0.3,1.2,0l1.1,1.1
					c0.3,0.3,0.3,0.9,0,1.2C110.1,100.7,109.9,100.8,109.7,100.8z"/>
			</g>
		</g>
		<g>
			<g>
				<g>
					<path class="st18" d="M104,95.5c0.5,0.1,0.9-0.2,0.9-0.3c0.1-0.1,0.4-0.4,0.2-0.9c-0.5-2.4-2-4.5-2.1-4.5
						c-0.2-0.2-0.7-0.5-1.1-0.2c-0.6,0.4-1.4,1.2-1.4,1.2s-0.8,0.9-1.2,1.4c-0.3,0.5,0,1,0.2,1.1C99.6,93.5,101.7,95,104,95.5z"/>
				</g>
				<g>
					<path class="st6" d="M104.3,96.3c-0.2,0-0.2,0-0.4,0c-2.6-0.5-4.8-2-5-2.3c-0.5-0.5-0.8-1.4-0.3-2.2c0.4-0.7,1.2-1.5,1.3-1.7
						c0.2-0.2,1-1,1.7-1.4c0.8-0.5,1.7-0.2,2.2,0.2c0.2,0.2,1.8,2.4,2.3,5c0.2,0.6-0.1,1.2-0.5,1.7
						C105.2,96.2,104.8,96.3,104.3,96.3z M102.5,90.3c-0.5,0.3-1.1,0.9-1.4,1.1c-0.2,0.2-0.8,0.9-1.1,1.3c0,0.1,1.9,1.5,4.1,1.9l0,0
						c0.1,0,0.1,0,0.2-0.1C103.9,92.2,102.5,90.3,102.5,90.3z"/>
				</g>
			</g>
		</g>
		<g>
			<g>
				<g>
					<path class="st18" d="M104,95.5c0.5,0.1,0.9-0.2,0.9-0.3c0.1-0.1,0.4-0.4,0.2-0.9c-0.5-2.4-2-4.5-2.1-4.5
						c-0.2-0.2-0.7-0.5-1.1-0.2c-0.6,0.4-1.4,1.2-1.4,1.2s-0.8,0.9-1.2,1.4c-0.3,0.5,0,1,0.2,1.1C99.6,93.5,101.7,95,104,95.5z"/>
				</g>
				<g>
					<path class="st6" d="M104.3,96.3c-0.2,0-0.2,0-0.4,0c-2.6-0.5-4.8-2-5-2.3c-0.5-0.5-0.8-1.4-0.3-2.2c0.4-0.7,1.2-1.5,1.3-1.7
						c0.2-0.2,1-1,1.7-1.4c0.8-0.5,1.7-0.2,2.2,0.2c0.2,0.2,1.8,2.4,2.3,5c0.2,0.6-0.1,1.2-0.5,1.7
						C105.2,96.2,104.8,96.3,104.3,96.3z M102.5,90.3c-0.5,0.3-1.1,0.9-1.4,1.1c-0.2,0.2-0.8,0.9-1.1,1.3c0,0.1,1.9,1.5,4.1,1.9l0,0
						c0.1,0,0.1,0,0.2-0.1C103.9,92.2,102.5,90.3,102.5,90.3z"/>
				</g>
			</g>
		</g>
		<g>
			<g>
				<line class="st11" x1="103" y1="93.2" x2="104" y2="94.3"/>
			</g>
			<g>
				<path class="st6" d="M104,95.2c-0.2,0-0.5-0.1-0.6-0.2l-1.1-1.1c-0.3-0.3-0.3-0.9,0-1.2c0.3-0.3,0.9-0.3,1.2,0l1.1,1.1
					c0.3,0.3,0.3,0.9,0,1.2C104.5,95.1,104.3,95.2,104,95.2z"/>
			</g>
		</g>
	</g>
</g>
<g>
	<g>
		
			<ellipse transform="matrix(3.038675e-02 -0.9995 0.9995 3.038675e-02 31.5594 177.7427)" class="st16" cx="107.4" cy="72.6" rx="11.2" ry="11.2"/>
		<path class="st17" d="M107.4,84.7c-0.2,0-0.2,0-0.4,0c-3.2-0.1-6.3-1.4-8.4-3.8c-2.2-2.3-3.4-5.4-3.3-8.7
			c0.2-6.7,5.7-12,12.5-11.8c6.7,0.2,12,5.8,11.8,12.5h-0.9h0.9C119.4,79.5,114,84.7,107.4,84.7z M107.4,62.3
			c-5.5,0-10.1,4.4-10.3,10C97,75,98,77.7,99.9,79.7s4.5,3.2,7.2,3.2c2.6,0.1,5.4-0.9,7.3-2.8c2-1.9,3.2-4.5,3.2-7.2
			c0.2-5.7-4.3-10.4-10-10.6C107.6,62.3,107.5,62.3,107.4,62.3z"/>
	</g>
	<g>
		<g>
			<g>
				<path class="st18" d="M105.2,73.5c0.5-0.1,0.8,0.2,0.8,0.3c0.1,0.1,0.4,0.4,0.2,0.8c-0.5,2.2-2,4.1-2,4.1
					c-0.2,0.2-0.6,0.4-1.1,0.1s-1.3-1.1-1.3-1.1s-0.8-0.8-1.1-1.4c-0.2-0.5,0-0.9,0.2-1.1C101.1,75.3,103,73.9,105.2,73.5z"/>
				<path class="st6" d="M103.6,80c-0.3,0-0.7-0.1-1-0.3c-0.6-0.4-1.4-1.2-1.4-1.3c-0.1-0.2-0.9-1-1.2-1.6c-0.5-0.8-0.2-1.7,0.4-2.2
					c0.2-0.2,2.3-1.7,4.8-2c0.6-0.1,1.2,0.1,1.7,0.5c0.5,0.5,0.6,1.1,0.5,1.7c-0.5,2.4-2.1,4.4-2.3,4.6
					C104.6,79.8,104.2,80,103.6,80z M105.4,74.5c-2,0.3-3.8,1.5-3.8,1.6c0.2,0.2,0.8,0.8,1,1.1c0.2,0.2,0.8,0.8,1.1,1
					C103.7,78.1,105,76.4,105.4,74.5L105.4,74.5L105.4,74.5z"/>
			</g>
		</g>
		<g>
			<g>
				<path class="st18" d="M105.2,73.5c0.5-0.1,0.8,0.2,0.8,0.3c0.1,0.1,0.4,0.4,0.2,0.8c-0.5,2.2-2,4.1-2,4.1
					c-0.2,0.2-0.6,0.4-1.1,0.1s-1.3-1.1-1.3-1.1s-0.8-0.8-1.1-1.4c-0.2-0.5,0-0.9,0.2-1.1C101.1,75.3,103,73.9,105.2,73.5z"/>
				<path class="st6" d="M103.6,80c-0.3,0-0.7-0.1-1-0.3c-0.6-0.4-1.4-1.2-1.4-1.3c-0.1-0.2-0.9-1-1.2-1.6c-0.5-0.8-0.2-1.7,0.4-2.2
					c0.2-0.2,2.3-1.7,4.8-2c0.6-0.1,1.2,0.1,1.7,0.5c0.5,0.5,0.6,1.1,0.5,1.7c-0.5,2.4-2.1,4.4-2.3,4.6
					C104.6,79.8,104.2,80,103.6,80z M105.4,74.5c-2,0.3-3.8,1.5-3.8,1.6c0.2,0.2,0.8,0.8,1,1.1c0.2,0.2,0.8,0.8,1.1,1
					C103.7,78.1,105,76.4,105.4,74.5L105.4,74.5L105.4,74.5z"/>
			</g>
		</g>
		<g>
			<line class="st11" x1="104.3" y1="75.6" x2="105.2" y2="74.7"/>
			<path class="st6" d="M104.3,76.6c-0.2,0-0.5-0.1-0.7-0.3c-0.4-0.4-0.4-1,0-1.4l1-1c0.4-0.4,1-0.3,1.4,0.1s0.4,1,0,1.4l-1,1
				C104.7,76.5,104.5,76.6,104.3,76.6z"/>
		</g>
		<g>
			<g>
				<path class="st18" d="M108.6,70.5c-0.2,0.5,0.2,0.8,0.2,0.8c0.1,0.1,0.3,0.4,0.8,0.3c2.2-0.4,4.1-1.7,4.2-1.8
					c0.2-0.2,0.5-0.6,0.2-1.1s-1.1-1.4-1.1-1.4s-0.8-0.8-1.4-1.1c-0.5-0.3-0.9-0.1-1.1,0.1C110.4,66.5,109,68.3,108.6,70.5z"/>
				<path class="st6" d="M109.5,72.6c-0.5,0-1-0.2-1.4-0.6c-0.5-0.5-0.6-1.1-0.5-1.7c0.5-2.3,2-4.4,2.3-4.7c0.5-0.5,1.4-0.7,2.2-0.2
					c0.6,0.4,1.4,1.2,1.5,1.3c0.1,0.2,0.9,1,1.2,1.6c0.5,0.8,0.2,1.7-0.3,2.2c-0.2,0.2-2.3,1.7-4.8,2
					C109.7,72.6,109.5,72.6,109.5,72.6z M108.6,70.5l0.9,0.2c2-0.4,3.8-1.6,3.8-1.6c-0.2-0.2-0.8-0.8-1-1.1c-0.2-0.2-0.8-0.8-1.1-1
					c0,0.1-1.3,1.7-1.7,3.6l0,0L108.6,70.5z"/>
			</g>
		</g>
		<g>
			<g>
				<path class="st18" d="M108.6,70.5c-0.2,0.5,0.2,0.8,0.2,0.8c0.1,0.1,0.3,0.4,0.8,0.3c2.2-0.4,4.1-1.7,4.2-1.8
					c0.2-0.2,0.5-0.6,0.2-1.1s-1.1-1.4-1.1-1.4s-0.8-0.8-1.4-1.1c-0.5-0.3-0.9-0.1-1.1,0.1C110.4,66.5,109,68.3,108.6,70.5z"/>
				<path class="st6" d="M109.5,72.6c-0.5,0-1-0.2-1.4-0.6c-0.5-0.5-0.6-1.1-0.5-1.7c0.5-2.3,2-4.4,2.3-4.7c0.5-0.5,1.4-0.7,2.2-0.2
					c0.6,0.4,1.4,1.2,1.5,1.3c0.1,0.2,0.9,1,1.2,1.6c0.5,0.8,0.2,1.7-0.3,2.2c-0.2,0.2-2.3,1.7-4.8,2
					C109.7,72.6,109.5,72.6,109.5,72.6z M108.6,70.5l0.9,0.2c2-0.4,3.8-1.6,3.8-1.6c-0.2-0.2-0.8-0.8-1-1.1c-0.2-0.2-0.8-0.8-1.1-1
					c0,0.1-1.3,1.7-1.7,3.6l0,0L108.6,70.5z"/>
			</g>
		</g>
		<g>
			<line class="st11" x1="110.6" y1="69.6" x2="109.6" y2="70.5"/>
			<path class="st6" d="M109.6,71.4c-0.2,0-0.5-0.1-0.7-0.3c-0.4-0.4-0.3-1,0.1-1.4l1-1c0.4-0.4,1-0.3,1.4,0.1s0.3,1-0.1,1.4l-1,1
				C110.1,71.4,109.8,71.4,109.6,71.4z"/>
		</g>
		<g>
			<g>
				<path class="st18" d="M108.4,74.8c-0.1-0.5,0.2-0.8,0.3-0.8c0.1-0.1,0.4-0.4,0.8-0.2c2.2,0.5,4.1,2,4.1,2
					c0.2,0.2,0.4,0.6,0.1,1.1s-1.1,1.3-1.1,1.3s-0.8,0.8-1.4,1.1c-0.5,0.2-0.9,0-1.1-0.2C110.1,78.9,108.7,76.9,108.4,74.8z"/>
				<path class="st6" d="M110.8,80.3c-0.5,0-1.1-0.2-1.4-0.6c-0.2-0.3-1.7-2.4-2-4.8c-0.1-0.6,0.1-1.3,0.5-1.7
					c0.5-0.5,1.1-0.6,1.7-0.5c2.4,0.5,4.5,2.1,4.6,2.3c0.5,0.5,0.7,1.4,0.2,2.2c-0.4,0.6-1.2,1.4-1.3,1.5c-0.2,0.1-1,0.9-1.6,1.2
					C111.4,80.2,111.1,80.3,110.8,80.3z M109.3,74.6c0.3,2,1.5,3.8,1.6,3.8c0.2-0.2,0.8-0.8,1.1-1c0.2-0.2,0.8-0.8,1-1.1
					C112.9,76.3,111.3,75.1,109.3,74.6L109.3,74.6L109.3,74.6z"/>
			</g>
		</g>
		<g>
			<g>
				<path class="st18" d="M108.4,74.8c-0.1-0.5,0.2-0.8,0.3-0.8c0.1-0.1,0.4-0.4,0.8-0.2c2.2,0.5,4.1,2,4.1,2
					c0.2,0.2,0.4,0.6,0.1,1.1s-1.1,1.3-1.1,1.3s-0.8,0.8-1.4,1.1c-0.5,0.2-0.9,0-1.1-0.2C110.1,78.9,108.7,76.9,108.4,74.8z"/>
				<path class="st6" d="M110.8,80.3c-0.5,0-1.1-0.2-1.4-0.6c-0.2-0.3-1.7-2.4-2-4.8c-0.1-0.6,0.1-1.3,0.5-1.7
					c0.5-0.5,1.1-0.6,1.7-0.5c2.4,0.5,4.5,2.1,4.6,2.3c0.5,0.5,0.7,1.4,0.2,2.2c-0.4,0.6-1.2,1.4-1.3,1.5c-0.2,0.1-1,0.9-1.6,1.2
					C111.4,80.2,111.1,80.3,110.8,80.3z M109.3,74.6c0.3,2,1.5,3.8,1.6,3.8c0.2-0.2,0.8-0.8,1.1-1c0.2-0.2,0.8-0.8,1-1.1
					C112.9,76.3,111.3,75.1,109.3,74.6L109.3,74.6L109.3,74.6z"/>
			</g>
		</g>
		<g>
			<line class="st11" x1="110.4" y1="75.8" x2="109.5" y2="74.8"/>
			<path class="st6" d="M110.4,76.7c-0.2,0-0.5-0.1-0.7-0.3l-1-1c-0.4-0.4-0.3-1,0.1-1.4s1-0.3,1.4,0.1l1,1c0.4,0.4,0.3,1-0.1,1.4
				C110.9,76.6,110.7,76.7,110.4,76.7z"/>
		</g>
		<g>
			<g>
				<path class="st18" d="M105.3,71.4c0.5,0.2,0.8-0.2,0.8-0.2c0.1-0.1,0.4-0.3,0.3-0.8c-0.4-2.2-1.7-4.1-1.8-4.2
					c-0.2-0.2-0.6-0.5-1.1-0.2s-1.4,1.1-1.4,1.1s-0.8,0.8-1.1,1.4c-0.3,0.5-0.1,0.9,0.1,1.1C101.2,69.6,103.1,71,105.3,71.4z"/>
				<path class="st6" d="M105.5,72.4c-0.2,0-0.3,0-0.5-0.1c-2.4-0.5-4.5-2.1-4.6-2.3c-0.5-0.5-0.7-1.4-0.2-2.2
					c0.4-0.6,1.2-1.4,1.3-1.5c0.2-0.1,1-0.9,1.6-1.2c0.8-0.5,1.7-0.2,2.2,0.3c0.3,0.3,1.7,2.4,2,4.8c0.1,0.6-0.1,1.3-0.5,1.7
					C106.5,72.3,106.1,72.4,105.5,72.4z M101.8,68.9c0.1,0,1.7,1.3,3.6,1.7l0,0l-0.2,0.9l0.2-0.9c-0.4-2-1.6-3.8-1.6-3.8
					c-0.2,0.2-0.8,0.8-1.1,1C102.6,68,102.1,68.6,101.8,68.9z"/>
			</g>
		</g>
		<g>
			<g>
				<path class="st18" d="M105.3,71.4c0.5,0.2,0.8-0.2,0.8-0.2c0.1-0.1,0.4-0.3,0.3-0.8c-0.4-2.2-1.7-4.1-1.8-4.2
					c-0.2-0.2-0.6-0.5-1.1-0.2s-1.4,1.1-1.4,1.1s-0.8,0.8-1.1,1.4c-0.3,0.5-0.1,0.9,0.1,1.1C101.2,69.6,103.1,71,105.3,71.4z"/>
				<path class="st6" d="M105.5,72.4c-0.2,0-0.3,0-0.5-0.1c-2.4-0.5-4.5-2.1-4.6-2.3c-0.5-0.5-0.7-1.4-0.2-2.2
					c0.4-0.6,1.2-1.4,1.3-1.5c0.2-0.1,1-0.9,1.6-1.2c0.8-0.5,1.7-0.2,2.2,0.3c0.3,0.3,1.7,2.4,2,4.8c0.1,0.6-0.1,1.3-0.5,1.7
					C106.5,72.3,106.1,72.4,105.5,72.4z M101.8,68.9c0.1,0,1.7,1.3,3.6,1.7l0,0l-0.2,0.9l0.2-0.9c-0.4-2-1.6-3.8-1.6-3.8
					c-0.2,0.2-0.8,0.8-1.1,1C102.6,68,102.1,68.6,101.8,68.9z"/>
			</g>
		</g>
		<g>
			<line class="st11" x1="104.4" y1="69.4" x2="105.4" y2="70.4"/>
			<path class="st6" d="M105.4,71.4c-0.2,0-0.5-0.1-0.7-0.3l-1-1c-0.4-0.4-0.3-1,0.1-1.4s1-0.3,1.4,0.1l1,1c0.4,0.4,0.3,1-0.1,1.4
				C105.8,71.3,105.6,71.4,105.4,71.4z"/>
		</g>
	</g>
</g>
<g>
	<rect x="110.6" y="79.8" transform="matrix(0.5 -0.866 0.866 0.5 -15.5295 142.1582)" class="st10" width="9.4" height="9.4"/>
	<path class="st13" d="M117.1,92c-0.2,0-0.3-0.1-0.5-0.2l-8.2-4.8c-0.2-0.2-0.4-0.3-0.5-0.6c-0.1-0.2,0-0.5,0.1-0.7l4.8-8.2
		c0.2-0.5,0.8-0.6,1.3-0.4l8.2,4.8c0.2,0.2,0.4,0.3,0.5,0.6c0.1,0.2,0,0.5-0.1,0.7l-4.8,8.2C117.7,91.8,117.4,92,117.1,92z
		 M110.1,85.9l6.6,3.8l3.8-6.6l-6.6-3.8L110.1,85.9z"/>
</g>
<g>
	<g>
		<circle class="st16" cx="81.6" cy="97.8" r="13.4"/>
		<path class="st17" d="M81.6,112.1c-7.9,0-14.3-6.4-14.3-14.3s6.4-14.3,14.3-14.3S96,89.8,96,97.8S89.5,112.1,81.6,112.1z
			 M81.6,85.4c-6.9,0-12.4,5.6-12.4,12.4s5.6,12.4,12.4,12.4c6.9,0,12.4-5.6,12.4-12.4C94.1,91,88.5,85.4,81.6,85.4z"/>
	</g>
	<g>
		<g>
			<g>
				<path class="st18" d="M79.1,99c0.6-0.2,1,0.2,1,0.3s0.5,0.4,0.3,1c-0.5,2.6-2.2,4.9-2.3,5c-0.2,0.2-0.8,0.5-1.3,0.2
					c-0.6-0.4-1.6-1.4-1.6-1.4s-0.9-1-1.3-1.7c-0.3-0.5,0-1.1,0.2-1.3C74.2,101.2,76.5,99.6,79.1,99z"/>
				<path class="st6" d="M77.4,106.6c-0.3,0-0.7-0.1-1-0.3c-0.7-0.5-1.7-1.4-1.7-1.4c-0.2-0.2-1.1-1.1-1.5-1.8
					c-0.5-0.9-0.2-1.9,0.3-2.4c0.2-0.2,2.6-2,5.5-2.5c0.7-0.2,1.4,0.1,1.8,0.5c0.5,0.5,0.7,1.2,0.5,1.9c-0.5,2.9-2.3,5.3-2.6,5.4
					C78.5,106.4,77.9,106.6,77.4,106.6z M79.3,100c-2.2,0.4-4.2,1.7-4.6,2c0.3,0.5,1,1.3,1.2,1.5s1,0.9,1.4,1.2
					c0.4-0.3,1.7-2.3,2.2-4.5l0,0L79.3,100z"/>
			</g>
		</g>
		<g>
			<g>
				<path class="st18" d="M79.1,99c0.6-0.2,1,0.2,1,0.3s0.5,0.4,0.3,1c-0.5,2.6-2.2,4.9-2.3,5c-0.2,0.2-0.8,0.5-1.3,0.2
					c-0.6-0.4-1.6-1.4-1.6-1.4s-0.9-1-1.3-1.7c-0.3-0.5,0-1.1,0.2-1.3C74.2,101.2,76.5,99.6,79.1,99z"/>
				<path class="st6" d="M77.4,106.6c-0.3,0-0.7-0.1-1-0.3c-0.7-0.5-1.7-1.4-1.7-1.4c-0.2-0.2-1.1-1.1-1.5-1.8
					c-0.5-0.9-0.2-1.9,0.3-2.4c0.2-0.2,2.6-2,5.5-2.5c0.7-0.2,1.4,0.1,1.8,0.5c0.5,0.5,0.7,1.2,0.5,1.9c-0.5,2.9-2.3,5.3-2.6,5.4
					C78.5,106.4,77.9,106.6,77.4,106.6z M79.3,100c-2.2,0.4-4.2,1.7-4.6,2c0.3,0.5,1,1.3,1.2,1.5s1,0.9,1.4,1.2
					c0.4-0.3,1.7-2.3,2.2-4.5l0,0L79.3,100z"/>
			</g>
		</g>
		<g>
			<line class="st11" x1="77.9" y1="101.5" x2="79.1" y2="100.3"/>
			<path class="st6" d="M77.9,102.4c-0.2,0-0.5-0.1-0.7-0.3c-0.4-0.4-0.4-1,0-1.4l1.1-1.1c0.4-0.4,1-0.4,1.4,0s0.4,1,0,1.4l-1.1,1.1
				C78.5,102.4,78.2,102.4,77.9,102.4z"/>
		</g>
		<g>
			<g>
				<path class="st18" d="M82.9,95.3c-0.2,0.6,0.2,1,0.3,1c0.1,0.1,0.4,0.5,1,0.3c2.6-0.5,4.9-2.2,5-2.3c0.2-0.2,0.5-0.8,0.2-1.3
					C89,92.4,88,91.4,88,91.4s-1-0.9-1.7-1.3c-0.5-0.3-1.1,0-1.3,0.2C85,90.4,83.4,92.6,82.9,95.3z"/>
				<path class="st6" d="M84,97.5c-0.5,0-1-0.2-1.4-0.6c-0.5-0.5-0.7-1.2-0.6-1.9c0.5-2.9,2.3-5.3,2.5-5.5c0.5-0.5,1.5-0.8,2.4-0.3
					c0.7,0.5,1.7,1.4,1.8,1.4c0.2,0.2,1.1,1.1,1.5,1.8c0.5,0.9,0.2,1.9-0.3,2.4c-0.2,0.2-2.6,2-5.5,2.6C84.3,97.5,84.1,97.5,84,97.5
					z M85.9,90.9c-0.4,0.3-1.7,2.3-2.1,4.5l0,0c0,0.1,0,0.1,0.1,0.2c2.4-0.4,4.4-1.8,4.8-2c-0.3-0.5-1-1.3-1.2-1.5
					C87.1,91.9,86.4,91.2,85.9,90.9z"/>
			</g>
		</g>
		<g>
			<g>
				<path class="st18" d="M82.9,95.3c-0.2,0.6,0.2,1,0.3,1c0.1,0.1,0.4,0.5,1,0.3c2.6-0.5,4.9-2.2,5-2.3c0.2-0.2,0.5-0.8,0.2-1.3
					C89,92.4,88,91.4,88,91.4s-1-0.9-1.7-1.3c-0.5-0.3-1.1,0-1.3,0.2C85,90.4,83.4,92.6,82.9,95.3z"/>
				<path class="st6" d="M84,97.5c-0.5,0-1-0.2-1.4-0.6c-0.5-0.5-0.7-1.2-0.6-1.9c0.5-2.9,2.3-5.3,2.5-5.5c0.5-0.5,1.5-0.8,2.4-0.3
					c0.7,0.5,1.7,1.4,1.8,1.4c0.2,0.2,1.1,1.1,1.5,1.8c0.5,0.9,0.2,1.9-0.3,2.4c-0.2,0.2-2.6,2-5.5,2.6C84.3,97.5,84.1,97.5,84,97.5
					z M85.9,90.9c-0.4,0.3-1.7,2.3-2.1,4.5l0,0c0,0.1,0,0.1,0.1,0.2c2.4-0.4,4.4-1.8,4.8-2c-0.3-0.5-1-1.3-1.2-1.5
					C87.1,91.9,86.4,91.2,85.9,90.9z"/>
			</g>
		</g>
		<g>
			<line class="st11" x1="85.3" y1="94.1" x2="84.2" y2="95.3"/>
			<path class="st6" d="M84.2,96.3c-0.2,0-0.5-0.1-0.7-0.3c-0.4-0.4-0.4-1,0-1.4l1.1-1.2c0.4-0.4,1-0.4,1.4,0s0.4,1,0,1.4L84.9,96
				C84.6,96.1,84.4,96.3,84.2,96.3z"/>
		</g>
		<g>
			<g>
				<path class="st18" d="M82.9,100.3c-0.2-0.6,0.2-1,0.3-1c0.1-0.1,0.4-0.5,1.1-0.3c2.6,0.5,4.9,2.2,5,2.3c0.2,0.2,0.5,0.8,0.2,1.3
					c-0.4,0.6-1.4,1.6-1.4,1.6s-1,0.9-1.7,1.3c-0.5,0.3-1.1,0-1.3-0.2C85,105.2,83.4,103,82.9,100.3z"/>
				<path class="st6" d="M85.9,106.6c-0.5,0-1.1-0.2-1.4-0.6c-0.2-0.2-2-2.6-2.5-5.5c-0.2-0.7,0.1-1.4,0.5-1.8
					c0.5-0.5,1.2-0.7,1.9-0.5c2.8,0.5,5.2,2.3,5.4,2.6c0.5,0.5,0.8,1.6,0.3,2.4c-0.5,0.7-1.4,1.7-1.4,1.7c-0.2,0.2-1.1,1.1-1.8,1.4
					C86.6,106.5,86.2,106.6,85.9,106.6z M84,99.9L84,99.9l-0.2,0.2c0.4,2.2,1.7,4.2,2,4.6c0.5-0.3,1.3-1,1.5-1.2s0.9-1,1.2-1.4
					C88.6,102,86.5,100.4,84,99.9z"/>
			</g>
		</g>
		<g>
			<g>
				<path class="st18" d="M82.9,100.3c-0.2-0.6,0.2-1,0.3-1c0.1-0.1,0.4-0.5,1.1-0.3c2.6,0.5,4.9,2.2,5,2.3c0.2,0.2,0.5,0.8,0.2,1.3
					c-0.4,0.6-1.4,1.6-1.4,1.6s-1,0.9-1.7,1.3c-0.5,0.3-1.1,0-1.3-0.2C85,105.2,83.4,103,82.9,100.3z"/>
				<path class="st6" d="M85.9,106.6c-0.5,0-1.1-0.2-1.4-0.6c-0.2-0.2-2-2.6-2.5-5.5c-0.2-0.7,0.1-1.4,0.5-1.8
					c0.5-0.5,1.2-0.7,1.9-0.5c2.8,0.5,5.2,2.3,5.4,2.6c0.5,0.5,0.8,1.6,0.3,2.4c-0.5,0.7-1.4,1.7-1.4,1.7c-0.2,0.2-1.1,1.1-1.8,1.4
					C86.6,106.5,86.2,106.6,85.9,106.6z M84,99.9L84,99.9l-0.2,0.2c0.4,2.2,1.7,4.2,2,4.6c0.5-0.3,1.3-1,1.5-1.2s0.9-1,1.2-1.4
					C88.6,102,86.5,100.4,84,99.9z"/>
			</g>
		</g>
		<g>
			<line class="st11" x1="85.3" y1="101.5" x2="84.2" y2="100.3"/>
			<path class="st6" d="M85.3,102.4c-0.2,0-0.5-0.1-0.7-0.3l-1.1-1.1c-0.4-0.4-0.4-1,0-1.4s1-0.4,1.4,0l1.1,1.1c0.4,0.4,0.4,1,0,1.4
				C85.8,102.4,85.6,102.4,85.3,102.4z"/>
		</g>
		<g>
			<g>
				<path class="st18" d="M79.1,96.6c0.6,0.2,1-0.2,1-0.3s0.5-0.4,0.3-1c-0.5-2.6-2.2-4.9-2.3-5c-0.2-0.2-0.8-0.5-1.3-0.2
					c-0.6,0.4-1.6,1.4-1.6,1.4s-0.9,1-1.3,1.7c-0.3,0.5,0,1.1,0.2,1.3C74.2,94.4,76.5,96.1,79.1,96.6z"/>
				<path class="st6" d="M79.4,97.5c-0.2,0-0.3,0-0.5-0.1c-2.9-0.5-5.4-2.3-5.5-2.5c-0.5-0.5-0.9-1.4-0.3-2.4
					c0.5-0.7,1.4-1.7,1.4-1.8c0.2-0.2,1.1-1.1,1.8-1.5c0.9-0.5,1.9-0.2,2.4,0.3c0.2,0.2,2,2.6,2.6,5.5c0.2,0.8-0.2,1.5-0.6,1.9
					C80.4,97.3,79.9,97.5,79.4,97.5z M77.4,90.9c-0.5,0.3-1.3,1-1.5,1.2s-0.9,1-1.1,1.4c0.3,0.4,2.3,1.7,4.5,2.1l0,0
					c0.1,0,0.1,0,0.2-0.1C79.1,93.2,77.7,91.2,77.4,90.9z"/>
			</g>
		</g>
		<g>
			<g>
				<path class="st18" d="M79.1,96.6c0.6,0.2,1-0.2,1-0.3s0.5-0.4,0.3-1c-0.5-2.6-2.2-4.9-2.3-5c-0.2-0.2-0.8-0.5-1.3-0.2
					c-0.6,0.4-1.6,1.4-1.6,1.4s-0.9,1-1.3,1.7c-0.3,0.5,0,1.1,0.2,1.3C74.2,94.4,76.5,96.1,79.1,96.6z"/>
				<path class="st6" d="M79.4,97.5c-0.2,0-0.3,0-0.5-0.1c-2.9-0.5-5.4-2.3-5.5-2.5c-0.5-0.5-0.9-1.4-0.3-2.4
					c0.5-0.7,1.4-1.7,1.4-1.8c0.2-0.2,1.1-1.1,1.8-1.5c0.9-0.5,1.9-0.2,2.4,0.3c0.2,0.2,2,2.6,2.6,5.5c0.2,0.8-0.2,1.5-0.6,1.9
					C80.4,97.3,79.9,97.5,79.4,97.5z M77.4,90.9c-0.5,0.3-1.3,1-1.5,1.2s-0.9,1-1.1,1.4c0.3,0.4,2.3,1.7,4.5,2.1l0,0
					c0.1,0,0.1,0,0.2-0.1C79.1,93.2,77.7,91.2,77.4,90.9z"/>
			</g>
		</g>
		<g>
			<line class="st11" x1="77.9" y1="94.1" x2="79.1" y2="95.3"/>
			<path class="st6" d="M79.1,96.3c-0.2,0-0.5-0.1-0.7-0.3l-1.1-1.2c-0.4-0.4-0.4-1,0-1.4s1-0.4,1.4,0l1.1,1.2c0.4,0.4,0.4,1,0,1.4
				C79.6,96.1,79.4,96.3,79.1,96.3z"/>
		</g>
	</g>
</g>
<g>
	
		<rect x="64.1" y="91.3" transform="matrix(0.7885 -0.615 0.615 0.7885 -44.8774 63.4495)" class="st10" width="11.4" height="11.4"/>
	<path class="st13" d="M68.8,105.8c-0.3,0-0.5-0.2-0.8-0.4l-7-9c-0.3-0.4-0.2-1,0.2-1.3l9-7c0.2-0.2,0.5-0.2,0.7-0.2
		s0.5,0.2,0.6,0.4l7,9c0.3,0.4,0.2,1-0.2,1.3l-9,7C69.3,105.8,69,105.8,68.8,105.8z M63.1,96.1l5.8,7.5l7.5-5.8l-5.8-7.5L63.1,96.1z
		"/>
</g>
<g>
	<g>
		<g>
			<path class="st20" d="M87.2,87.4c1.3,3.5,5.1,5.3,8.6,4.1c3.5-1.3,5.4-5.1,4.1-8.6L87.2,87.4z"/>
			<path class="st20" d="M93.5,92.8c-3.2,0-6.1-2-7.2-5.1c-0.1-0.2-0.1-0.5,0-0.8c0.1-0.2,0.3-0.4,0.5-0.5l12.7-4.5
				c0.5-0.2,1.1,0.1,1.2,0.6c0.7,2,0.6,4-0.3,5.9c-0.9,1.8-2.4,3.2-4.4,3.9C95.3,92.6,94.4,92.8,93.5,92.8z M88.5,88
				c1.4,2.4,4.3,3.6,7,2.6c1.4-0.5,2.6-1.6,3.3-2.9c0.5-1.1,0.7-2.3,0.5-3.5L88.5,88z"/>
		</g>
	</g>
	<g>
		<path class="st12" d="M87.4,86.8c1.1,3.5,4.9,5.4,8.2,4.2c1.6-0.5,2.9-1.7,3.5-3.2c0.8-1.5,0.8-3.3,0.2-5.2"/>
	</g>
</g>
<g>
	<g>
		<g>
			<path class="st20" d="M111.8,102.2c2.8,2.4,7,2.2,9.5-0.6c2.4-2.8,2.2-7-0.6-9.5L111.8,102.2z"/>
			<path class="st20" d="M116.2,104.9c-1.8,0-3.5-0.6-5.1-1.9c-0.2-0.2-0.3-0.4-0.3-0.7c0-0.2,0.1-0.5,0.2-0.7l8.8-10.1
				c0.4-0.4,0.9-0.5,1.4-0.1c1.5,1.4,2.5,3.2,2.6,5.3c0.2,2-0.5,4-1.9,5.6C120.5,103.9,118.4,104.9,116.2,104.9z M113.2,102.1
				c2.3,1.4,5.5,1.1,7.4-1.1c1-1.1,1.5-2.6,1.4-4.2c-0.1-1.2-0.5-2.3-1.3-3.3L113.2,102.1z"/>
		</g>
	</g>
	<g>
		<path class="st12" d="M111.7,101.6c2.7,2.6,6.9,2.3,9.2-0.3c1.1-1.3,1.7-2.9,1.5-4.5c-0.1-1.7-0.9-3.3-2.4-4.6"/>
	</g>
</g>
<g>
	<g>
		<g>
			<path class="st20" d="M58.2,64.6c-1.9,3.2-0.8,7.3,2.3,9.2c3.2,1.9,7.3,0.8,9.2-2.3L58.2,64.6z"/>
			<path class="st20" d="M64,75.7c-1.4,0-2.7-0.4-3.9-1.1c-3.6-2.2-4.8-6.9-2.6-10.5c0.2-0.2,0.3-0.4,0.6-0.5c0.2-0.1,0.5,0,0.7,0.1
				l11.5,6.9c0.5,0.3,0.6,0.8,0.3,1.3c-1.1,1.7-2.7,3-4.7,3.5C65.3,75.6,64.6,75.7,64,75.7z M58.6,65.9c-1,2.6,0,5.6,2.4,7.1
				c1.4,0.8,2.9,1,4.4,0.6c1.2-0.3,2.3-1,3-1.9L58.6,65.9z"/>
		</g>
	</g>
	<g>
		<path class="st12" d="M58.8,64.4c-2,3.1-1,7.2,2,9c1.4,0.8,3.1,1.1,4.8,0.7c1.7-0.4,3.1-1.5,4.1-3.2"/>
	</g>
</g>
<g>
	<path class="st7" d="M100.1,89.7c-1.7-0.7-3.2-1.5-4.5-2.5l-7.8,20c1.4,1,2.9,1.9,4.5,2.5c1.7,0.7,3.4,1.1,5.1,1.3l7.8-20
		C103.5,90.7,101.8,90.4,100.1,89.7z"/>
	<path class="st19" d="M97.4,112.2c-0.1,0-0.1,0-0.2,0c-1.8-0.2-3.6-0.7-5.4-1.4c-1.7-0.7-3.4-1.6-4.8-2.7c-0.5-0.3-0.6-0.9-0.5-1.4
		l7.8-20c0.2-0.4,0.5-0.6,0.8-0.8c0.4-0.1,0.8,0,1.1,0.2c1.3,1,2.7,1.7,4.3,2.3l0,0c1.5,0.6,3.1,1,4.8,1.2c0.4,0.1,0.8,0.3,0.9,0.6
		c0.2,0.3,0.2,0.8,0.1,1.1l-7.8,19.9C98.4,111.9,97.8,112.2,97.4,112.2z M89.2,106.7c1.1,0.8,2.3,1.4,3.5,1.8
		c1.2,0.5,2.5,0.8,3.8,1.1l6.9-17.6c-1.3-0.2-2.6-0.6-3.8-1.1l0,0c-1.2-0.5-2.4-1.1-3.5-1.7L89.2,106.7z"/>
</g>
<g>
	<path class="st7" d="M123.3,63.6c-1.8-0.3-3.5-1-4.9-1.9L113,91.5c1.5,0.9,3.1,1.5,4.9,1.9c1.8,0.3,3.5,0.3,5.3,0l5.4-29.8
		C126.8,63.9,125.1,63.9,123.3,63.6z"/>
	<path class="st19" d="M120.4,94.8c-0.9,0-1.8-0.1-2.8-0.2c-1.9-0.3-3.7-1.1-5.4-2c-0.5-0.3-0.7-0.8-0.6-1.3l5.4-29.8
		c0.1-0.4,0.4-0.8,0.7-0.9c0.4-0.2,0.8-0.2,1.1,0.1c1.4,0.8,2.9,1.4,4.5,1.7l0,0c1.6,0.3,3.2,0.3,4.8,0c0.5-0.1,0.8,0.1,1.1,0.4
		s0.5,0.7,0.4,1.1l-5.4,29.8c-0.1,0.5-0.5,0.9-1,1C122.4,94.7,121.4,94.8,120.4,94.8z M114.4,90.8c1.2,0.6,2.4,1.1,3.8,1.3
		c1.3,0.2,2.6,0.3,4,0.1l4.9-27.2c-1.4,0.1-2.6,0-3.9-0.2l0,0c-1.3-0.2-2.6-0.6-3.8-1.2L114.4,90.8z"/>
</g>
<g>
	<g>
		<circle class="st16" cx="70.8" cy="80.1" r="11.2"/>
		<path class="st17" d="M70.8,92.3c-6.7,0-12.1-5.4-12.1-12.1S64.1,68,70.8,68c6.7,0,12.1,5.4,12.1,12.1
			C83,86.7,77.5,92.3,70.8,92.3z M70.8,69.8c-5.7,0-10.3,4.6-10.3,10.3s4.6,10.3,10.3,10.3s10.3-4.6,10.3-10.3S76.5,69.8,70.8,69.8z
			"/>
	</g>
	<g>
		<g>
			<g>
				<path class="st18" d="M68.7,81.2c0.5-0.1,0.8,0.2,0.8,0.2c0.1,0.1,0.4,0.4,0.2,0.8c-0.5,2.2-1.8,4.1-2,4.2
					c-0.2,0.2-0.6,0.4-1.1,0.2c-0.5-0.3-1.4-1.1-1.4-1.1s-0.8-0.8-1.1-1.4c-0.3-0.5,0-0.9,0.2-1.1C64.6,82.9,66.5,81.5,68.7,81.2z"
					/>
				<path class="st6" d="M67.2,87.7c-0.3,0-0.6-0.1-0.9-0.3c-0.6-0.4-1.4-1.1-1.5-1.2c-0.2-0.2-0.9-1-1.3-1.6
					c-0.5-0.8-0.2-1.7,0.3-2.2c0.2-0.2,2.3-1.7,4.7-2.1c0.6-0.2,1.2,0.1,1.7,0.5c0.5,0.5,0.6,1.1,0.5,1.7c-0.5,2.4-2,4.5-2.2,4.7
					C68.2,87.4,67.7,87.7,67.2,87.7z M68.9,82.1c-2,0.4-3.8,1.7-3.8,1.7c0.2,0.2,0.8,0.8,1.1,1.1c0.2,0.2,0.8,0.8,1.1,1
					C67.3,85.6,68.5,84,68.9,82.1L68.9,82.1L68.9,82.1z"/>
			</g>
		</g>
		<g>
			<g>
				<path class="st18" d="M68.7,81.2c0.5-0.1,0.8,0.2,0.8,0.2c0.1,0.1,0.4,0.4,0.2,0.8c-0.5,2.2-1.8,4.1-2,4.2
					c-0.2,0.2-0.6,0.4-1.1,0.2c-0.5-0.3-1.4-1.1-1.4-1.1s-0.8-0.8-1.1-1.4c-0.3-0.5,0-0.9,0.2-1.1C64.6,82.9,66.5,81.5,68.7,81.2z"
					/>
				<path class="st6" d="M67.2,87.7c-0.3,0-0.6-0.1-0.9-0.3c-0.6-0.4-1.4-1.1-1.5-1.2c-0.2-0.2-0.9-1-1.3-1.6
					c-0.5-0.8-0.2-1.7,0.3-2.2c0.2-0.2,2.3-1.7,4.7-2.1c0.6-0.2,1.2,0.1,1.7,0.5c0.5,0.5,0.6,1.1,0.5,1.7c-0.5,2.4-2,4.5-2.2,4.7
					C68.2,87.4,67.7,87.7,67.2,87.7z M68.9,82.1c-2,0.4-3.8,1.7-3.8,1.7c0.2,0.2,0.8,0.8,1.1,1.1c0.2,0.2,0.8,0.8,1.1,1
					C67.3,85.6,68.5,84,68.9,82.1L68.9,82.1L68.9,82.1z"/>
			</g>
		</g>
		<g>
			<line class="st11" x1="67.7" y1="83.2" x2="68.7" y2="82.2"/>
			<path class="st6" d="M67.7,84.1c-0.2,0-0.5-0.1-0.7-0.3c-0.4-0.4-0.4-1,0-1.4l1-1c0.4-0.4,1-0.4,1.4,0s0.4,1,0,1.4l-1,1
				C68.2,84,68,84.1,67.7,84.1z"/>
		</g>
		<g>
			<g>
				<path class="st18" d="M71.9,77.9c-0.1,0.5,0.2,0.8,0.2,0.8c0.1,0.1,0.4,0.4,0.8,0.2c2.2-0.5,4.1-1.8,4.2-2
					c0.2-0.2,0.4-0.6,0.2-1.1c-0.3-0.5-1.1-1.4-1.1-1.4s-0.8-0.8-1.4-1.1c-0.5-0.3-0.9,0-1.1,0.2C73.6,73.9,72.3,75.7,71.9,77.9z"/>
				<path class="st6" d="M72.8,80c-0.5,0-0.9-0.2-1.3-0.5C71,79,70.8,78.4,71,77.8c0.5-2.5,2-4.5,2.1-4.7c0.5-0.5,1.4-0.8,2.2-0.3
					c0.6,0.4,1.4,1.1,1.5,1.2c0.1,0.2,0.9,0.9,1.3,1.5c0.5,0.8,0.2,1.7-0.3,2.2c-0.2,0.2-2.3,1.7-4.7,2.2C73,80,72.9,80,72.8,80z
					 M71.9,77.9l0.9,0.2c2-0.4,3.8-1.7,3.8-1.7c-0.2-0.2-0.8-0.8-1.1-1.1c-0.3-0.2-0.8-0.8-1.1-1c0,0.1-1.2,1.7-1.6,3.7l0,0
					L71.9,77.9z"/>
			</g>
		</g>
		<g>
			<g>
				<path class="st18" d="M71.9,77.9c-0.1,0.5,0.2,0.8,0.2,0.8c0.1,0.1,0.4,0.4,0.8,0.2c2.2-0.5,4.1-1.8,4.2-2
					c0.2-0.2,0.4-0.6,0.2-1.1c-0.3-0.5-1.1-1.4-1.1-1.4s-0.8-0.8-1.4-1.1c-0.5-0.3-0.9,0-1.1,0.2C73.6,73.9,72.3,75.7,71.9,77.9z"/>
				<path class="st6" d="M72.8,80c-0.5,0-0.9-0.2-1.3-0.5C71,79,70.8,78.4,71,77.8c0.5-2.5,2-4.5,2.1-4.7c0.5-0.5,1.4-0.8,2.2-0.3
					c0.6,0.4,1.4,1.1,1.5,1.2c0.1,0.2,0.9,0.9,1.3,1.5c0.5,0.8,0.2,1.7-0.3,2.2c-0.2,0.2-2.3,1.7-4.7,2.2C73,80,72.9,80,72.8,80z
					 M71.9,77.9l0.9,0.2c2-0.4,3.8-1.7,3.8-1.7c-0.2-0.2-0.8-0.8-1.1-1.1c-0.3-0.2-0.8-0.8-1.1-1c0,0.1-1.2,1.7-1.6,3.7l0,0
					L71.9,77.9z"/>
			</g>
		</g>
		<g>
			<line class="st11" x1="73.9" y1="76.9" x2="72.9" y2="77.9"/>
			<path class="st6" d="M72.9,78.9c-0.2,0-0.5-0.1-0.7-0.3c-0.4-0.4-0.4-1,0-1.4l1-1c0.4-0.4,1-0.4,1.4,0s0.4,1,0,1.4l-1,1
				C73.4,78.8,73.2,78.9,72.9,78.9z"/>
		</g>
		<g>
			<g>
				<path class="st18" d="M71.9,82.2c-0.1-0.5,0.2-0.8,0.2-0.8c0.1-0.1,0.4-0.4,0.8-0.2c2.2,0.5,4.1,1.8,4.2,2
					c0.2,0.2,0.4,0.6,0.2,1.1c-0.3,0.5-1.1,1.4-1.1,1.4s-0.8,0.8-1.4,1.1c-0.5,0.3-0.9,0-1.1-0.2C73.6,86.3,72.3,84.4,71.9,82.2z"/>
				<path class="st6" d="M74.4,87.6c-0.5,0-1-0.2-1.3-0.5c-0.2-0.2-1.7-2.3-2.1-4.7c-0.2-0.6,0.1-1.3,0.5-1.7
					c0.5-0.5,1.1-0.6,1.7-0.5c2.4,0.5,4.5,2,4.7,2.2c0.5,0.5,0.8,1.4,0.2,2.2c-0.4,0.6-1.1,1.4-1.3,1.5c-0.2,0.1-1,0.9-1.6,1.3
					C75,87.5,74.7,87.6,74.4,87.6z M72.8,82c0.4,2,1.7,3.8,1.7,3.8c0.2-0.2,0.8-0.8,1.1-1.1c0.2-0.2,0.8-0.8,1-1.1
					C76.4,83.6,74.8,82.4,72.8,82L72.8,82L72.8,82z"/>
			</g>
		</g>
		<g>
			<g>
				<path class="st18" d="M71.9,82.2c-0.1-0.5,0.2-0.8,0.2-0.8c0.1-0.1,0.4-0.4,0.8-0.2c2.2,0.5,4.1,1.8,4.2,2
					c0.2,0.2,0.4,0.6,0.2,1.1c-0.3,0.5-1.1,1.4-1.1,1.4s-0.8,0.8-1.4,1.1c-0.5,0.3-0.9,0-1.1-0.2C73.6,86.3,72.3,84.4,71.9,82.2z"/>
				<path class="st6" d="M74.4,87.6c-0.5,0-1-0.2-1.3-0.5c-0.2-0.2-1.7-2.3-2.1-4.7c-0.2-0.6,0.1-1.3,0.5-1.7
					c0.5-0.5,1.1-0.6,1.7-0.5c2.4,0.5,4.5,2,4.7,2.2c0.5,0.5,0.8,1.4,0.2,2.2c-0.4,0.6-1.1,1.4-1.3,1.5c-0.2,0.1-1,0.9-1.6,1.3
					C75,87.5,74.7,87.6,74.4,87.6z M72.8,82c0.4,2,1.7,3.8,1.7,3.8c0.2-0.2,0.8-0.8,1.1-1.1c0.2-0.2,0.8-0.8,1-1.1
					C76.4,83.6,74.8,82.4,72.8,82L72.8,82L72.8,82z"/>
			</g>
		</g>
		<g>
			<line class="st11" x1="73.9" y1="83.2" x2="72.9" y2="82.2"/>
			<path class="st6" d="M73.9,84.1c-0.2,0-0.5-0.1-0.7-0.3l-1-1c-0.4-0.4-0.4-1,0-1.4s1-0.4,1.4,0l1,1c0.4,0.4,0.4,1,0,1.4
				C74.4,84,74.2,84.1,73.9,84.1z"/>
		</g>
		<g>
			<g>
				<path class="st18" d="M68.7,79c0.5,0.1,0.8-0.2,0.8-0.2c0.1-0.1,0.4-0.4,0.2-0.8c-0.5-2.2-1.8-4.1-2-4.2
					c-0.2-0.2-0.6-0.4-1.1-0.2c-0.5,0.3-1.4,1.1-1.4,1.1s-0.8,0.8-1.1,1.4c-0.3,0.5,0,0.9,0.2,1.1S66.5,78.6,68.7,79z"/>
				<path class="st6" d="M68.9,80c-0.2,0-0.2,0-0.4,0c-2.5-0.5-4.5-2-4.7-2.1c-0.5-0.5-0.8-1.4-0.3-2.2c0.4-0.6,1.1-1.4,1.2-1.5
					c0.2-0.2,0.9-0.9,1.5-1.3c0.8-0.5,1.7-0.2,2.2,0.2c0.2,0.2,1.7,2.3,2.2,4.7c0.2,0.6-0.1,1.3-0.5,1.7C69.9,79.8,69.4,80,68.9,80z
					 M65.2,76.6c0.1,0,1.7,1.2,3.7,1.6l0,0l-0.2,0.9l0.2-0.9c-0.4-2-1.7-3.8-1.7-3.8c-0.2,0.2-0.8,0.8-1.1,1.1
					C65.9,75.7,65.3,76.2,65.2,76.6z"/>
			</g>
		</g>
		<g>
			<g>
				<path class="st18" d="M68.7,79c0.5,0.1,0.8-0.2,0.8-0.2c0.1-0.1,0.4-0.4,0.2-0.8c-0.5-2.2-1.8-4.1-2-4.2
					c-0.2-0.2-0.6-0.4-1.1-0.2c-0.5,0.3-1.4,1.1-1.4,1.1s-0.8,0.8-1.1,1.4c-0.3,0.5,0,0.9,0.2,1.1S66.5,78.6,68.7,79z"/>
				<path class="st6" d="M68.9,80c-0.2,0-0.2,0-0.4,0c-2.5-0.5-4.5-2-4.7-2.1c-0.5-0.5-0.8-1.4-0.3-2.2c0.4-0.6,1.1-1.4,1.2-1.5
					c0.2-0.2,0.9-0.9,1.5-1.3c0.8-0.5,1.7-0.2,2.2,0.2c0.2,0.2,1.7,2.3,2.2,4.7c0.2,0.6-0.1,1.3-0.5,1.7C69.9,79.8,69.4,80,68.9,80z
					 M65.2,76.6c0.1,0,1.7,1.2,3.7,1.6l0,0l-0.2,0.9l0.2-0.9c-0.4-2-1.7-3.8-1.7-3.8c-0.2,0.2-0.8,0.8-1.1,1.1
					C65.9,75.7,65.3,76.2,65.2,76.6z"/>
			</g>
		</g>
		<g>
			<line class="st11" x1="67.7" y1="76.9" x2="68.7" y2="77.9"/>
			<path class="st6" d="M68.7,78.9c-0.2,0-0.5-0.1-0.7-0.3l-1-1c-0.4-0.4-0.4-1,0-1.4s1-0.4,1.4,0l1,1c0.4,0.4,0.4,1,0,1.4
				C69.2,78.8,68.9,78.9,68.7,78.9z"/>
		</g>
	</g>
</g>
<g>
	
		<rect x="71.1" y="65.2" transform="matrix(0.9327 -0.3607 0.3607 0.9327 -19.8748 31.7068)" class="st10" width="7.8" height="7.8"/>
	<path class="st13" d="M72.8,75.1c-0.4,0-0.8-0.2-0.9-0.6l-2.8-7.2c-0.2-0.5,0.1-1.1,0.5-1.2l7.3-2.8c0.5-0.2,1.1,0.1,1.2,0.5
		l2.8,7.3c0.1,0.2,0.1,0.5,0,0.8c-0.1,0.2-0.3,0.4-0.5,0.5l-7.3,2.8C73,75.1,72.9,75.1,72.8,75.1z M71.1,67.4l2.1,5.5l5.5-2.1
		l-2.1-5.5L71.1,67.4z"/>
</g>
<g>
	<g>
		<g>
			<path class="st20" d="M80.9,103.1c-0.8,3.6,1.6,7.2,5.2,8s7.2-1.5,8-5.2L80.9,103.1z"/>
			<path class="st20" d="M87.5,112.2c-0.5,0-1.1-0.1-1.6-0.2c-4.1-0.9-6.8-5-5.9-9.1c0.1-0.2,0.2-0.5,0.4-0.6
				c0.2-0.2,0.5-0.2,0.7-0.2l13.1,2.8c0.5,0.1,0.8,0.6,0.8,1.1c-0.5,2-1.6,3.7-3.3,4.8C90.4,111.7,89,112.2,87.5,112.2z M81.8,104.2
				c-0.2,2.8,1.8,5.4,4.6,5.9c1.5,0.3,3.1,0,4.4-0.8c1.1-0.7,1.8-1.6,2.3-2.7L81.8,104.2z"/>
		</g>
	</g>
	<g>
		<path class="st12" d="M81.5,102.7c-1,3.6,1.4,7.2,4.8,7.8c1.7,0.4,3.3,0,4.8-0.9c1.4-0.9,2.5-2.4,2.9-4.4"/>
	</g>
</g>
<g>
	<path class="st3" d="M90.6,80.7c-14,0-27.1-3.2-35.3-8.5c-0.6-0.4-0.8-1.1-0.4-1.7c0.4-0.6,1.1-0.8,1.7-0.4
		c7.8,5.1,20.4,8.1,33.9,8.1c14,0,26.9-3.2,34.6-8.6c0.5-0.4,1.4-0.2,1.7,0.3c0.4,0.6,0.2,1.4-0.3,1.7
		C118.6,77.3,105.1,80.7,90.6,80.7z"/>
</g>
<g>
	<g class="st15">
		<path class="st2" d="M91,80.7c-18.9,0-34.8-5.7-40.4-13.6l5.2,32.4l0,0c1.3,8.5,16.5,15.2,35.1,15.2c18.7,0,33.9-6.8,35.1-15.3
			l5.2-32.3C125.7,75,109.8,80.7,91,80.7z"/>
	</g>
</g>
<g>
	<path class="st3" d="M91,117.5c-18.6,0-33.7-6.5-36.1-15.2h-0.1l-0.2-1.1l-5.4-33.3c-0.1-0.7,0.4-1.4,1.1-1.4
		c0.7-0.2,1.4,0.4,1.4,1.1l5.4,33.3C58.3,108.8,73.2,115,91,115c17.6,0,32.8-6.4,33.9-14.3l5.4-33.3c0.1-0.7,0.8-1.1,1.4-1.1
		c0.7,0.1,1.1,0.8,1.1,1.4l-5.4,33.2C126.1,110.4,110.4,117.5,91,117.5z"/>
</g>
</svg>
