<?xml version="1.0" encoding="utf-8"?>
<!-- Generator: Adobe Illustrator 16.0.0, SVG Export Plug-In . SVG Version: 6.00 Build 0)  -->
<!DOCTYPE svg PUBLIC "-//W3C//DTD SVG 1.1//EN" "http://www.w3.org/Graphics/SVG/1.1/DTD/svg11.dtd">
<svg version="1.1" id="Layer_1" xmlns="http://www.w3.org/2000/svg" xmlns:xlink="http://www.w3.org/1999/xlink" x="0px" y="0px"
	 width="180px" height="220px" viewBox="0 0 180 220" enable-background="new 0 0 180 220" xml:space="preserve">
<g opacity="0.1">
	<g>
		<path d="M139.273,164.965c0,0.051-0.014,0.102-0.014,0.151c-0.057-9.673-11.523-18.085-33.279-23.916
			c-29.194-7.822-51.989-4.335-62.536,9.573c-2.801,3.692-4.066,7.346-3.909,10.86c-0.005-0.108-0.034-0.211-0.037-0.323
			l0.177,10.021c0.174,9.896,11.678,18.736,32.736,24.379c28.33,7.594,52.49,3.643,63.066-10.307
			c2.721-3.586,4.026-7.078,3.967-10.42L139.273,164.965z"/>
		<path d="M99.238,200.77c-0.004,0-0.004,0-0.004,0c-8.494,0-17.625-1.293-27.146-3.845c-21.521-5.766-33.478-14.845-33.669-25.569
			l-0.174-10.021c-0.003-0.084,0.005-0.169,0.022-0.256c-0.006-3.678,1.399-7.398,4.178-11.062
			c7.028-9.271,19.285-14.168,35.437-14.168c8.613,0,18.181,1.392,28.427,4.137c22.065,5.912,33.877,14.472,34.203,24.768
			c0.012,0.062,0.016,0.126,0.02,0.191l0.177,10.021c0.065,3.655-1.358,7.425-4.226,11.203
			C129.344,195.585,116.109,200.77,99.238,200.77z M40.768,161.882l0.168,9.431c0.163,9.365,11.757,17.812,31.803,23.186
			c9.307,2.493,18.22,3.76,26.496,3.76c0,0,0,0,0.004,0c16.07,0,28.582-4.833,35.238-13.611c2.519-3.32,3.77-6.562,3.715-9.638
			l-0.168-9.678c-0.015-0.067-0.022-0.136-0.022-0.208c-0.047-9.068-11.534-17.133-32.345-22.708
			c-10.035-2.688-19.378-4.056-27.774-4.056c-15.336,0-26.897,4.559-33.433,13.175c-2.571,3.389-3.802,6.769-3.659,10.043l0,0
			c0,0,0,0.005,0.002,0.005C40.796,161.684,40.791,161.783,40.768,161.882z"/>
	</g>
	<g>
		<path d="M99.727,190.1c-6.258,0-10.284-1.352-10.667-1.479c-0.655-0.229-0.998-0.944-0.77-1.603
			c0.228-0.651,0.95-1.007,1.599-0.775c0.202,0.066,20.599,6.822,42.089-11.703c0.522-0.446,1.326-0.395,1.776,0.132
			c0.452,0.528,0.396,1.321-0.133,1.776C120.625,187.646,108.154,190.1,99.727,190.1z"/>
	</g>
</g>
<g>
	<g>
		<path fill="#E0C382" d="M139.273,156.332c0,0.051-0.014,0.102-0.014,0.152c-0.057-9.672-11.523-18.086-33.279-23.916
			c-29.194-7.823-51.989-4.336-62.536,9.572c-2.801,3.692-4.066,7.346-3.909,10.86c-0.005-0.108-0.034-0.21-0.037-0.321l0.177,10.02
			c0.174,9.896,11.678,18.736,32.736,24.38c28.33,7.593,52.49,3.642,63.066-10.308c2.721-3.586,4.026-7.078,3.967-10.42
			L139.273,156.332z"/>
		<path fill="#CA9A62" d="M99.238,192.137c-0.004,0-0.004,0-0.004,0c-8.494,0-17.625-1.292-27.146-3.844
			c-21.521-5.766-33.478-14.845-33.669-25.57l-0.174-10.021c-0.003-0.085,0.005-0.169,0.022-0.257
			c-0.006-3.678,1.399-7.397,4.178-11.062c7.028-9.27,19.285-14.168,35.437-14.168c8.613,0,18.181,1.393,28.427,4.137
			c22.065,5.912,33.877,14.473,34.203,24.769c0.012,0.062,0.016,0.126,0.02,0.19l0.177,10.021c0.065,3.655-1.358,7.424-4.226,11.203
			C129.344,186.952,116.109,192.137,99.238,192.137z M40.768,153.25l0.168,9.43c0.163,9.366,11.757,17.812,31.803,23.187
			c9.307,2.491,18.22,3.76,26.496,3.76c0,0,0,0,0.004,0c16.07,0,28.582-4.833,35.238-13.61c2.519-3.322,3.77-6.562,3.715-9.64
			l-0.168-9.678c-0.015-0.067-0.022-0.136-0.022-0.208c-0.047-9.067-11.534-17.133-32.345-22.707
			c-10.035-2.689-19.378-4.055-27.774-4.055c-15.336,0-26.897,4.558-33.433,13.172c-2.571,3.39-3.802,6.771-3.659,10.043l0,0
			c0,0,0,0.007,0.002,0.007C40.796,153.05,40.791,153.15,40.768,153.25z"/>
	</g>
	<g>
		<path fill="#CA9A62" d="M99.727,181.468c-6.258,0-10.284-1.352-10.667-1.481c-0.655-0.229-0.998-0.942-0.77-1.602
			c0.228-0.65,0.95-1.006,1.599-0.775c0.202,0.067,20.599,6.822,42.089-11.702c0.522-0.447,1.326-0.394,1.776,0.132
			c0.452,0.527,0.396,1.32-0.133,1.775C120.625,179.016,108.154,181.468,99.727,181.468z"/>
	</g>
</g>
<g>
	<g opacity="0.1">
		<g>
			<path d="M77.764,129.053c0.298,0.082,0.551,0.225,0.694,0.416l7.478,9.76c0.323,0.431,0.003,0.967-0.717,1.172
				c-0.396,0.109-0.834,0.106-1.205,0.006c-0.298-0.079-0.548-0.219-0.694-0.413l-7.466-9.772c-0.323-0.431-0.014-0.953,0.706-1.154
				C76.955,128.952,77.396,128.957,77.764,129.053z"/>
		</g>
		<g>
			<path d="M138.863,154.874c0.139,0.192,0.23,0.44-0.051,1.073l-0.183,0.277c-0.313,0.383-0.575,0.5-1.172,0.651
				c-0.882,0.194-2.461,0.187-4.24,0.259c-1.747,0.102-3.844,0.332-5.556,1.321c-0.812,0.472-1.389,0.972-1.76,1.461
				c-0.662,0.871-0.711,1.687-0.803,2.366c-0.062,0.674-0.136,1.222-0.518,1.725c-0.229,0.299-0.54,0.596-1.124,0.922
				c-0.765,0.45-1.416,0.635-2.095,0.748c-1.036,0.172-2.244,0.09-3.771,0.162c-1.507,0.045-3.354,0.36-4.999,1.332
				c-0.835,0.467-1.414,0.967-1.757,1.459c-0.663,0.874-0.735,1.68-0.806,2.368c-0.061,0.675-0.139,1.224-0.518,1.724
				c-0.229,0.301-0.562,0.59-1.125,0.924c-0.865,0.506-1.533,0.793-2.06,0.965c-0.802,0.232-1.365,0.271-2.464,0.304
				c-1.11,0.048-2.58,0.084-4.596,0.392c-2.691,0.414-4.191,0.978-5.224,1.219c-0.551,0.13-0.964,0.188-1.53,0.19
				c-0.604,0.011-1.384-0.042-2.53-0.247c-0.304-0.045-0.54-0.107-0.75-0.166c-1.363-0.361-1.891-0.902-2.661-1.711
				c-0.733-0.783-1.751-1.832-3.937-2.417c-0.351-0.096-0.739-0.18-1.135-0.253c-1.456-0.253-2.776-0.225-3.889-0.059
				c-1.692,0.253-2.872,0.764-3.962,1.041c-1.084,0.275-1.933,0.429-3.467,0.176c-0.278-0.043-0.514-0.107-0.748-0.169
				c-1.343-0.359-1.866-0.896-2.664-1.714c-0.733-0.781-1.725-1.821-3.934-2.414c-0.354-0.096-0.72-0.178-1.138-0.256
				c-1.38-0.23-2.7-0.168-3.883,0.012c-1.759,0.27-3.229,0.792-4.44,1.121c-0.599,0.148-1.135,0.264-1.585,0.298
				c-0.418,0.028-0.716,0.015-1.048-0.073c-0.236-0.064-0.495-0.166-0.804-0.354c-0.542-0.368-0.658-0.588-0.658-0.85
				c-0.028-0.264,0.129-0.617,0.467-1.063c0.399-0.528,1.04-1.149,1.584-1.866c0.683-0.9,1.253-2.021,0.759-3.275
				c-0.346-0.889-0.983-1.574-1.798-2.068c-1.186-0.747-2.467-1.106-3.392-1.528c-0.924-0.421-1.548-0.792-1.919-1.72
				c-0.309-0.859-0.106-1.357,0.318-1.95c0.391-0.517,1.025-1.051,1.568-1.771c0.632-0.793,1.031-1.844,0.514-3.065
				c-0.346-0.885-1.006-1.579-1.787-2.082c-1.186-0.747-2.501-1.103-3.403-1.515c-0.913-0.437-1.537-0.807-1.931-1.739
				c-0.281-0.714-0.332-1.208-0.289-1.562c0.05-0.365,0.188-0.619,0.413-0.955c0.284-0.371,0.747-0.836,1.248-1.496
				c0.326-0.426,0.657-0.94,0.989-1.562c0.534-1.112,0.686-1.95,0.781-2.596c0.118-0.642,0.18-1.022,0.483-1.423
				c0.27-0.359,0.759-0.78,1.829-1.404c0.79-0.443,1.442-0.633,2.119-0.742c1.037-0.174,2.256-0.104,3.773-0.162
				c1.5-0.046,3.353-0.359,4.996-1.332c0.81-0.473,1.388-0.973,1.753-1.462c0.664-0.87,0.717-1.686,0.787-2.37
				c0.056-0.676,0.135-1.227,0.514-1.727c0.25-0.295,0.559-0.59,1.121-0.922c0.792-0.444,1.444-0.629,2.119-0.742
				c1.037-0.171,2.259-0.102,3.771-0.162c1.518-0.061,3.355-0.359,5.002-1.331c0.708-0.413,1.23-0.878,1.585-1.35
				c0.708-0.931,0.848-1.859,0.978-2.667c0.121-0.831,0.248-1.521,0.576-1.915c0.143-0.187,0.287-0.302,0.514-0.415
				c0.202-0.118,0.498-0.211,1.015-0.295c0.728-0.1,1.099-0.069,1.45,0.025c0.351,0.096,0.722,0.28,1.11,0.59
				c0.613,0.457,1.242,1.16,2.065,1.862c0.801,0.699,1.846,1.443,3.47,1.88c0.281,0.073,0.573,0.135,0.902,0.188
				c1.45,0.25,2.759,0.239,3.886,0.06c1.692-0.254,2.873-0.765,3.957-1.043c1.088-0.277,1.928-0.412,3.471-0.174
				c0.27,0.057,0.515,0.105,0.75,0.168c1.328,0.373,1.854,0.911,2.625,1.721c0.771,0.774,1.75,1.83,3.961,2.422
				c0.354,0.096,0.729,0.16,1.127,0.232c1.447,0.25,2.779,0.248,3.908,0.064c1.668-0.262,2.869-0.764,3.936-1.049
				c1.087-0.275,1.947-0.406,3.48-0.15c0.633,0.1,1.172,0.209,1.568,0.316c1.26,0.354,1.573,0.609,2.205,1.157
				c0.618,0.565,1.371,1.402,3.01,2.445c1.869,1.188,3.426,1.678,4.27,2.091c0.427,0.219,0.738,0.407,1.021,0.705
				c0.307,0.307,0.596,0.744,0.874,1.458c0.31,0.856,0.103,1.353-0.331,1.925c-0.365,0.522-1.012,1.073-1.576,1.787
				c-0.6,0.787-0.998,1.832-0.494,3.071c0.322,0.88,0.994,1.56,1.772,2.06c1.188,0.752,2.492,1.119,3.416,1.537
				c0.929,0.422,1.55,0.797,1.923,1.723c0.28,0.746,0.064,1.293-0.425,1.938c-0.455,0.602-1.144,1.211-1.708,1.953
				c-0.35,0.46-0.645,1-0.697,1.59c-0.039,0.609,0.217,1.248,0.781,1.88c1.658,1.841,4.086,2.628,5.521,3.237
				C138.297,154.43,138.715,154.663,138.863,154.874z M62.079,161.936l44.931-25.31c1.9-0.728,3.87-1.453,5.901-2.164
				c0.672-0.25,0.922-0.771,0.53-1.183c-0.156-0.17-0.394-0.293-0.662-0.365c-0.405-0.109-0.887-0.102-1.301,0.045
				c-39.211,13.773-54.7,30.803-54.79,30.882c-0.382,0.433-0.135,0.964,0.57,1.188c0.756,0.205,1.582,0.041,1.953-0.374l0.152-0.166
				C59.713,164.13,60.598,163.232,62.079,161.936 M67.896,147.871c0.149,0.197,0.404,0.343,0.705,0.425
				c0.363,0.097,0.795,0.101,1.194-0.021c0.719-0.201,1.051-0.717,0.708-1.154l-7.466-9.773c-0.144-0.189-0.396-0.334-0.694-0.414
				c-0.371-0.097-0.809-0.103-1.206,0.01c-0.73,0.221-1.04,0.736-0.716,1.17L67.896,147.871 M68.845,133.01
				c-0.719,0.205-1.034,0.725-0.708,1.157l7.463,9.772c0.146,0.19,0.399,0.334,0.697,0.414c0.365,0.099,0.804,0.104,1.203-0.01
				c0.73-0.219,1.065-0.729,0.719-1.169l-7.478-9.759c-0.149-0.196-0.402-0.343-0.705-0.425
				C69.674,132.896,69.241,132.893,68.845,133.01 M84.277,125.119c-0.73,0.217-1.065,0.73-0.716,1.169l7.474,9.756
				c0.146,0.194,0.396,0.338,0.697,0.416c0.365,0.099,0.807,0.103,1.203-0.011c0.719-0.203,1.027-0.723,0.705-1.152l-7.464-9.773
				c-0.146-0.192-0.399-0.336-0.697-0.416C85.115,125.01,84.674,125.007,84.277,125.119 M76.559,129.064
				c-0.719,0.201-1.028,0.725-0.706,1.153l7.466,9.773c0.146,0.194,0.396,0.334,0.694,0.413c0.371,0.102,0.809,0.104,1.205-0.006
				c0.72-0.205,1.04-0.741,0.717-1.172l-7.478-9.76c-0.143-0.191-0.396-0.334-0.694-0.416
				C77.396,128.957,76.955,128.952,76.559,129.064 M110.434,153.393c0.443-0.397,0.312-0.933-0.352-1.213l-14.629-6.109
				c-0.066-0.027-0.135-0.051-0.208-0.069c-0.624-0.166-1.386-0.048-1.784,0.312c-0.47,0.392-0.312,0.935,0.328,1.209l14.626,6.108
				c0.069,0.024,0.138,0.048,0.208,0.067C109.25,153.865,110.018,153.744,110.434,153.393 M95,161.286
				c0.467-0.392,0.312-0.937-0.354-1.218l-14.602-6.098c-0.079-0.035-0.163-0.062-0.242-0.084c-0.61-0.162-1.354-0.042-1.771,0.305
				c-0.475,0.404-0.32,0.945,0.332,1.207l14.629,6.108c0.075,0.031,0.157,0.06,0.241,0.082
				C93.846,161.753,94.587,161.632,95,161.286 M118.148,149.445c0.443-0.399,0.289-0.938-0.359-1.2l-14.629-6.108
				c-0.078-0.033-0.16-0.062-0.241-0.082c-0.608-0.166-1.353-0.041-1.741,0.311c-0.468,0.391-0.312,0.933,0.328,1.208l14.626,6.108
				c0.078,0.03,0.157,0.06,0.241,0.082C116.982,149.926,117.73,149.802,118.148,149.445 M102.717,157.338
				c0.443-0.398,0.312-0.934-0.352-1.214l-14.604-6.103c-0.07-0.028-0.143-0.051-0.216-0.068c-0.641-0.174-1.402-0.053-1.801,0.304
				c-0.466,0.394-0.312,0.935,0.329,1.209l14.637,6.095c0.076,0.03,0.157,0.06,0.242,0.082
				C101.562,157.805,102.307,157.684,102.717,157.338"/>
		</g>
		<g>
			<path d="M141.241,156.925c-0.437,0.607-1.187,1.076-2.021,1.354c-0.83,0.277-1.718,0.402-2.558,0.47
				c-1.675,0.118-3.361,0.063-4.718,0.253c-0.911,0.118-1.655,0.314-2.318,0.702c-0.588,0.329-0.896,0.624-1.113,0.91
				c-0.391,0.518-0.455,1.052-0.525,1.737c-0.084,0.668-0.143,1.494-0.795,2.354c-0.379,0.503-0.957,1.003-1.768,1.477
				c-1.644,0.971-3.484,1.271-5.002,1.33c-1.515,0.061-2.73-0.008-3.768,0.16c-0.682,0.113-1.318,0.287-2.094,0.748
				c-0.59,0.326-0.896,0.624-1.112,0.91c-0.394,0.518-0.483,1.043-0.528,1.736c-0.082,0.668-0.145,1.494-0.796,2.354
				c-0.382,0.5-0.955,1-1.771,1.472c-1,0.58-1.871,0.984-2.752,1.248c-0.865,0.281-1.717,0.399-2.492,0.449
				c-1.582,0.113-2.852,0.028-5.184,0.389c-1.763,0.268-2.799,0.594-3.806,0.873c-1.017,0.299-2.149,0.6-3.619,0.6
				c-0.976,0.017-2.034-0.078-3.357-0.314c-0.396-0.07-0.795-0.141-1.124-0.229c-2.209-0.591-3.215-1.652-3.959-2.423
				c-0.773-0.81-1.298-1.348-2.627-1.719c-0.236-0.062-0.483-0.113-0.75-0.17c-1.545-0.24-2.383-0.104-3.468,0.174
				c-1.09,0.275-2.271,0.787-3.959,1.043c-1.127,0.181-2.437,0.191-3.889-0.059c-0.396-0.072-0.784-0.158-1.138-0.253
				c-2.236-0.603-3.209-1.642-3.945-2.403c-0.77-0.809-1.324-1.354-2.653-1.728c-0.233-0.062-0.48-0.112-0.748-0.166
				c-1.206-0.202-2.343-0.042-3.672,0.292c-1.318,0.316-2.684,0.814-4.235,1.07c-1.023,0.181-2.217,0.232-3.361-0.072
				c-0.686-0.186-1.267-0.428-1.781-0.753c-0.922-0.573-1.422-1.293-1.436-1.99c-0.022-0.677,0.317-1.274,0.742-1.832
				c0.5-0.66,1.13-1.265,1.585-1.864c0.554-0.769,0.868-1.441,0.587-2.152c-0.396-0.938-0.995-1.305-1.944-1.729
				c-0.899-0.413-2.206-0.78-3.395-1.53c-0.787-0.486-1.45-1.182-1.796-2.068c-0.492-1.215-0.115-2.271,0.515-3.065
				c0.545-0.717,1.177-1.251,1.568-1.768c0.447-0.591,0.652-1.085,0.343-1.944c-0.394-0.934-1.017-1.304-1.945-1.727
				c-0.924-0.422-2.206-0.78-3.392-1.527c-0.801-0.509-1.453-1.182-1.798-2.068c-0.32-0.843-0.436-1.512-0.385-2.102
				c0.084-0.596,0.359-1.109,0.697-1.555c0.382-0.5,0.821-0.937,1.248-1.492c0.281-0.373,0.573-0.795,0.834-1.326
				c0.461-0.98,0.587-1.635,0.683-2.281c0.096-0.611,0.191-1.259,0.736-1.976c0.478-0.632,1.245-1.233,2.473-1.958
				c1.666-0.967,3.507-1.266,5.021-1.324c1.515-0.059,2.737,0.01,3.746-0.168c0.703-0.104,1.332-0.298,2.119-0.742
				c0.565-0.332,0.896-0.621,1.113-0.906c0.382-0.502,0.455-1.053,0.528-1.737c0.056-0.675,0.118-1.503,0.77-2.363
				c0.382-0.5,0.961-1,1.759-1.458c1.675-0.98,3.518-1.281,5.03-1.34c1.518-0.061,2.737,0.01,3.771-0.162
				c0.68-0.111,1.332-0.298,2.096-0.748c0.427-0.23,0.717-0.497,0.944-0.799c0.433-0.572,0.607-1.319,0.728-2.113
				c0.121-0.795,0.194-1.637,0.823-2.467c0.284-0.373,0.705-0.742,1.304-1.047c0.599-0.307,1.332-0.521,2.181-0.639
				c1.197-0.198,2.349-0.147,3.31,0.11c0.938,0.251,1.624,0.658,2.178,1.083c0.556,0.424,1.02,0.895,1.458,1.32
				c0.916,0.884,1.787,1.599,3.009,1.926l0.54,0.111c1.509,0.248,2.357,0.097,3.445-0.182c1.087-0.276,2.269-0.789,3.957-1.043
				c1.115-0.164,2.437-0.19,3.888,0.062c0.397,0.071,0.782,0.159,1.137,0.253c2.188,0.586,3.201,1.633,3.938,2.417
				c0.771,0.81,1.299,1.348,2.661,1.713c0.214,0.056,0.447,0.119,0.75,0.166c1.507,0.248,2.381,0.104,3.472-0.173
				c1.062-0.284,2.268-0.79,3.955-1.043c1.116-0.166,2.438-0.191,3.887,0.059c0.75,0.133,1.383,0.268,1.944,0.417
				c1.769,0.474,2.726,1.138,3.408,1.775c0.717,0.655,1.271,1.306,2.685,2.202c1.248,0.781,2.181,1.152,3.104,1.539
				c0.901,0.377,1.874,0.81,2.594,1.574c0.491,0.508,0.871,1.129,1.169,1.931c0.514,1.223,0.115,2.272-0.482,3.06
				c-0.568,0.708-1.211,1.26-1.603,1.776c-0.411,0.579-0.618,1.075-0.307,1.934c0.394,0.933,0.995,1.302,1.919,1.72
				c0.925,0.422,2.23,0.789,3.414,1.537c0.781,0.504,1.453,1.184,1.802,2.067c0.452,1.188,0.009,2.26-0.633,3.071
				c-0.587,0.772-1.298,1.41-1.708,1.953c-0.262,0.346-0.396,0.635-0.419,0.925c-0.021,0.286,0.063,0.584,0.433,0.993
				c1.414,1.568,3.448,2.098,5.266,2.945c0.604,0.281,1.189,0.627,1.586,1.112c0.554,0.646,0.562,1.462,0.121,2.341
				C141.466,156.591,141.359,156.768,141.241,156.925z M137.459,156.877c0.596-0.15,0.857-0.27,1.172-0.65l0.184-0.278
				c0.281-0.632,0.188-0.88,0.051-1.073c-0.149-0.211-0.567-0.443-1.29-0.759c-1.437-0.609-3.863-1.396-5.521-3.237
				c-0.564-0.632-0.82-1.27-0.781-1.88c0.054-0.59,0.349-1.13,0.697-1.59c0.563-0.742,1.252-1.353,1.707-1.953
				c0.489-0.644,0.705-1.19,0.426-1.937c-0.375-0.928-0.996-1.302-1.924-1.724c-0.924-0.418-2.228-0.786-3.416-1.537
				c-0.777-0.5-1.449-1.18-1.772-2.06c-0.503-1.239-0.104-2.284,0.493-3.071c0.565-0.714,1.213-1.265,1.578-1.787
				c0.433-0.573,0.641-1.067,0.33-1.925c-0.277-0.714-0.566-1.152-0.873-1.458c-0.283-0.298-0.597-0.485-1.022-0.705
				c-0.843-0.413-2.399-0.901-4.269-2.091c-1.64-1.043-2.393-1.88-3.011-2.445c-0.632-0.548-0.946-0.803-2.204-1.158
				c-0.396-0.106-0.938-0.217-1.568-0.315c-1.534-0.257-2.396-0.125-3.481,0.151c-1.065,0.283-2.269,0.787-3.935,1.047
				c-1.129,0.185-2.461,0.187-3.908-0.063c-0.398-0.071-0.771-0.138-1.127-0.233c-2.211-0.591-3.189-1.646-3.962-2.422
				c-0.771-0.809-1.296-1.347-2.624-1.72c-0.236-0.063-0.481-0.112-0.751-0.168c-1.542-0.239-2.384-0.103-3.47,0.174
				c-1.086,0.278-2.266,0.79-3.958,1.042c-1.126,0.182-2.436,0.191-3.886-0.059c-0.329-0.053-0.621-0.115-0.902-0.189
				c-1.624-0.436-2.669-1.18-3.47-1.879c-0.823-0.701-1.453-1.404-2.065-1.863c-0.388-0.309-0.759-0.494-1.11-0.59
				c-0.351-0.094-0.722-0.125-1.45-0.025c-0.517,0.084-0.812,0.178-1.015,0.296c-0.228,0.112-0.371,0.228-0.514,0.415
				c-0.329,0.395-0.455,1.084-0.576,1.914c-0.129,0.809-0.27,1.736-0.978,2.668c-0.354,0.472-0.877,0.937-1.585,1.35
				c-1.647,0.971-3.484,1.271-5.002,1.331c-1.512,0.062-2.734-0.009-3.771,0.162c-0.674,0.112-1.326,0.298-2.119,0.742
				c-0.562,0.331-0.871,0.627-1.121,0.922c-0.379,0.5-0.458,1.051-0.514,1.726c-0.07,0.687-0.124,1.5-0.787,2.371
				c-0.365,0.489-0.944,0.989-1.753,1.461c-1.644,0.973-3.496,1.287-4.996,1.332c-1.517,0.061-2.737-0.011-3.773,0.163
				c-0.677,0.109-1.329,0.298-2.119,0.742c-1.07,0.624-1.559,1.045-1.829,1.405c-0.303,0.397-0.365,0.779-0.483,1.422
				c-0.095,0.646-0.247,1.482-0.781,2.596c-0.332,0.621-0.663,1.137-0.989,1.562c-0.5,0.66-0.964,1.123-1.248,1.494
				c-0.225,0.338-0.363,0.59-0.413,0.955c-0.042,0.354,0.008,0.85,0.289,1.562c0.394,0.933,1.018,1.304,1.931,1.738
				c0.902,0.414,2.217,0.769,3.403,1.516c0.781,0.503,1.441,1.197,1.787,2.082c0.517,1.223,0.118,2.273-0.514,3.064
				c-0.542,0.721-1.177,1.254-1.568,1.771c-0.424,0.593-0.627,1.091-0.318,1.95c0.371,0.928,0.995,1.299,1.919,1.72
				c0.924,0.422,2.206,0.781,3.392,1.527c0.815,0.496,1.453,1.182,1.798,2.068c0.495,1.254-0.076,2.375-0.759,3.276
				c-0.545,0.717-1.186,1.338-1.584,1.866c-0.337,0.445-0.495,0.801-0.467,1.064c0,0.262,0.115,0.479,0.658,0.848
				c0.309,0.188,0.567,0.291,0.804,0.354c0.332,0.087,0.629,0.103,1.048,0.073c0.45-0.034,0.986-0.148,1.585-0.298
				c1.211-0.329,2.681-0.853,4.44-1.121c1.183-0.181,2.503-0.242,3.883-0.013c0.418,0.08,0.784,0.16,1.138,0.256
				c2.208,0.594,3.2,1.634,3.934,2.414c0.798,0.817,1.321,1.354,2.664,1.715c0.233,0.062,0.469,0.126,0.748,0.169
				c1.534,0.253,2.383,0.101,3.467-0.175c1.09-0.278,2.271-0.789,3.962-1.043c1.112-0.166,2.433-0.193,3.889,0.06
				c0.396,0.073,0.784,0.157,1.135,0.253c2.186,0.585,3.204,1.633,3.937,2.417c0.77,0.81,1.298,1.349,2.661,1.711
				c0.211,0.06,0.447,0.121,0.75,0.166c1.146,0.205,1.925,0.259,2.528,0.247c0.567-0.003,0.98-0.062,1.531-0.191
				c1.031-0.24,2.531-0.804,5.225-1.219c2.015-0.307,3.484-0.343,4.595-0.391c1.099-0.031,1.663-0.07,2.464-0.305
				c0.525-0.172,1.193-0.457,2.061-0.963c0.562-0.336,0.896-0.625,1.123-0.926c0.381-0.5,0.459-1.048,0.519-1.723
				c0.069-0.688,0.144-1.494,0.806-2.368c0.344-0.492,0.922-0.992,1.758-1.459c1.644-0.972,3.491-1.287,4.998-1.332
				c1.525-0.071,2.733,0.009,3.771-0.162c0.678-0.112,1.329-0.298,2.094-0.748c0.584-0.325,0.896-0.624,1.124-0.922
				c0.382-0.503,0.455-1.051,0.517-1.726c0.094-0.68,0.142-1.494,0.805-2.365c0.371-0.489,0.947-0.989,1.759-1.461
				c1.712-0.989,3.808-1.221,5.556-1.321C134.998,157.062,136.577,157.07,137.459,156.877"/>
		</g>
		<g>
			<path d="M107.01,136.626l-44.931,25.31C67.665,157.018,81.712,146.301,107.01,136.626z"/>
		</g>
		<g>
			<path d="M62.343,136.934c0.298,0.08,0.551,0.225,0.694,0.414l7.466,9.773c0.343,0.438,0.011,0.953-0.708,1.154
				c-0.399,0.121-0.832,0.115-1.194,0.021c-0.301-0.082-0.556-0.228-0.705-0.425l-7.475-9.76c-0.323-0.432-0.014-0.948,0.716-1.168
				C61.534,136.831,61.972,136.837,62.343,136.934z"/>
		</g>
		<g>
			<path d="M112.779,132.914c0.27,0.072,0.506,0.195,0.662,0.365c0.392,0.412,0.142,0.933-0.53,1.183
				c-2.031,0.711-3.999,1.437-5.901,2.164c-25.298,9.675-39.345,20.392-44.931,25.31c-1.48,1.299-2.366,2.194-2.714,2.555
				l-0.152,0.166c-0.371,0.416-1.197,0.578-1.869,0.398c-0.79-0.246-1.037-0.781-0.654-1.214
				c0.09-0.079,15.578-17.106,54.789-30.882C111.895,132.812,112.374,132.805,112.779,132.914z"/>
		</g>
		<g>
			<path d="M102.919,142.055c0.081,0.021,0.163,0.049,0.241,0.082l14.629,6.108c0.648,0.262,0.804,0.801,0.359,1.2
				c-0.418,0.355-1.166,0.479-1.775,0.316c-0.084-0.021-0.163-0.051-0.241-0.082l-14.626-6.107
				c-0.641-0.275-0.796-0.817-0.329-1.208C101.566,142.014,102.311,141.889,102.919,142.055z"/>
		</g>
		<g>
			<path d="M79.804,153.889c0.079,0.021,0.163,0.047,0.242,0.084l14.601,6.098c0.666,0.281,0.82,0.826,0.354,1.217
				c-0.41,0.346-1.153,0.467-1.765,0.304c-0.084-0.022-0.166-0.051-0.241-0.082L78.366,155.4c-0.649-0.262-0.806-0.803-0.332-1.207
				C78.45,153.846,79.194,153.725,79.804,153.889z"/>
		</g>
		<g>
			<path d="M87.545,149.953c0.073,0.018,0.146,0.04,0.216,0.068l14.604,6.103c0.662,0.28,0.795,0.815,0.352,1.214
				c-0.41,0.346-1.154,0.467-1.765,0.305c-0.085-0.022-0.166-0.052-0.242-0.082l-14.637-6.095c-0.641-0.274-0.795-0.815-0.329-1.209
				C86.144,149.9,86.905,149.779,87.545,149.953z"/>
		</g>
		<g>
			<path d="M95.245,146c0.073,0.02,0.142,0.042,0.208,0.07l14.629,6.107c0.663,0.281,0.795,0.815,0.352,1.215
				c-0.416,0.352-1.184,0.473-1.811,0.303c-0.07-0.02-0.139-0.041-0.208-0.066l-14.626-6.107c-0.641-0.275-0.795-0.818-0.328-1.209
				C93.859,145.952,94.621,145.834,95.245,146z"/>
		</g>
		<g>
			<path d="M70.037,132.992c0.303,0.082,0.556,0.229,0.705,0.425l7.478,9.759c0.346,0.438,0.011,0.95-0.719,1.17
				c-0.399,0.111-0.837,0.106-1.203,0.008c-0.298-0.078-0.551-0.223-0.697-0.412l-7.463-9.773c-0.326-0.434-0.011-0.952,0.708-1.156
				C69.241,132.893,69.674,132.896,70.037,132.992z"/>
		</g>
		<g>
			<path d="M85.48,125.107c0.298,0.078,0.55,0.223,0.697,0.416l7.464,9.772c0.322,0.431,0.014,0.949-0.705,1.152
				c-0.396,0.112-0.838,0.108-1.203,0.011c-0.301-0.078-0.551-0.223-0.697-0.416l-7.474-9.756c-0.349-0.438-0.014-0.952,0.716-1.169
				C84.674,125.007,85.115,125.01,85.48,125.107z"/>
		</g>
	</g>
	<g>
		<g>
			<path fill="#5FAC45" d="M77.764,126.176c0.298,0.081,0.551,0.225,0.694,0.416l7.478,9.76c0.323,0.43,0.003,0.967-0.717,1.172
				c-0.396,0.108-0.834,0.105-1.205,0.006c-0.298-0.079-0.548-0.221-0.694-0.413l-7.466-9.773c-0.323-0.43-0.014-0.952,0.706-1.155
				C76.955,126.074,77.396,126.08,77.764,126.176z"/>
		</g>
		<g>
			<path fill="#87C770" d="M138.863,151.996c0.139,0.193,0.23,0.441-0.051,1.074l-0.183,0.277c-0.313,0.383-0.575,0.5-1.172,0.651
				c-0.882,0.194-2.461,0.187-4.24,0.259c-1.747,0.102-3.844,0.331-5.556,1.32c-0.812,0.472-1.389,0.973-1.76,1.461
				c-0.662,0.871-0.711,1.688-0.803,2.365c-0.062,0.676-0.136,1.224-0.518,1.727c-0.229,0.299-0.54,0.596-1.124,0.922
				c-0.765,0.449-1.416,0.635-2.095,0.747c-1.036,0.173-2.244,0.091-3.771,0.163c-1.507,0.045-3.354,0.359-4.999,1.332
				c-0.835,0.466-1.414,0.967-1.757,1.458c-0.663,0.874-0.735,1.681-0.806,2.369c-0.061,0.674-0.139,1.223-0.518,1.723
				c-0.229,0.302-0.562,0.591-1.125,0.925c-0.865,0.506-1.533,0.793-2.06,0.963c-0.802,0.233-1.365,0.272-2.464,0.305
				c-1.11,0.048-2.58,0.084-4.596,0.391c-2.691,0.416-4.191,0.979-5.224,1.221c-0.551,0.129-0.964,0.188-1.53,0.19
				c-0.604,0.011-1.384-0.043-2.53-0.248c-0.304-0.045-0.54-0.106-0.75-0.165c-1.363-0.363-1.891-0.902-2.661-1.712
				c-0.733-0.784-1.751-1.832-3.937-2.416c-0.351-0.096-0.739-0.181-1.135-0.253c-1.456-0.253-2.776-0.227-3.889-0.061
				c-1.692,0.254-2.872,0.766-3.962,1.043c-1.084,0.275-1.933,0.428-3.467,0.175c-0.278-0.042-0.514-0.106-0.748-0.169
				c-1.343-0.359-1.866-0.896-2.664-1.715c-0.733-0.78-1.725-1.819-3.934-2.412c-0.354-0.096-0.72-0.178-1.138-0.256
				c-1.38-0.23-2.7-0.17-3.883,0.011c-1.759,0.271-3.229,0.793-4.44,1.121c-0.599,0.149-1.135,0.265-1.585,0.298
				c-0.418,0.027-0.716,0.015-1.048-0.072c-0.236-0.064-0.495-0.166-0.804-0.354c-0.542-0.368-0.658-0.588-0.658-0.85
				c-0.028-0.264,0.129-0.617,0.467-1.064c0.399-0.528,1.04-1.148,1.584-1.865c0.683-0.902,1.253-2.023,0.759-3.275
				c-0.346-0.889-0.983-1.574-1.798-2.068c-1.186-0.747-2.467-1.107-3.392-1.528c-0.924-0.422-1.548-0.793-1.919-1.72
				c-0.309-0.86-0.106-1.357,0.318-1.95c0.391-0.519,1.025-1.051,1.568-1.771c0.632-0.793,1.031-1.845,0.514-3.065
				c-0.346-0.886-1.006-1.579-1.787-2.082c-1.186-0.748-2.501-1.103-3.403-1.515c-0.913-0.437-1.537-0.808-1.931-1.739
				c-0.281-0.714-0.332-1.209-0.289-1.562c0.05-0.365,0.188-0.619,0.413-0.957c0.284-0.369,0.747-0.834,1.248-1.494
				c0.326-0.428,0.657-0.94,0.989-1.562c0.534-1.112,0.686-1.95,0.781-2.597c0.118-0.641,0.18-1.022,0.483-1.422
				c0.27-0.359,0.759-0.781,1.829-1.405c0.79-0.442,1.442-0.632,2.119-0.741c1.037-0.175,2.256-0.104,3.773-0.163
				c1.5-0.045,3.353-0.358,4.996-1.332c0.81-0.472,1.388-0.973,1.753-1.461c0.664-0.87,0.717-1.687,0.787-2.372
				c0.056-0.674,0.135-1.225,0.514-1.726c0.25-0.295,0.559-0.591,1.121-0.921c0.792-0.444,1.444-0.631,2.119-0.742
				c1.037-0.171,2.259-0.104,3.771-0.162c1.518-0.061,3.355-0.359,5.002-1.332c0.708-0.413,1.23-0.878,1.585-1.35
				c0.708-0.93,0.848-1.859,0.978-2.668c0.121-0.83,0.248-1.521,0.576-1.914c0.143-0.188,0.287-0.303,0.514-0.415
				c0.202-0.118,0.498-0.212,1.015-0.296c0.728-0.1,1.099-0.068,1.45,0.025c0.351,0.096,0.722,0.281,1.11,0.59
				c0.613,0.459,1.242,1.162,2.065,1.863c0.801,0.698,1.846,1.443,3.47,1.878c0.281,0.074,0.573,0.136,0.902,0.189
				c1.45,0.25,2.759,0.239,3.886,0.059c1.692-0.253,2.873-0.764,3.957-1.042c1.088-0.277,1.928-0.413,3.471-0.174
				c0.27,0.057,0.515,0.105,0.75,0.168c1.328,0.373,1.854,0.911,2.625,1.721c0.771,0.775,1.75,1.83,3.961,2.422
				c0.354,0.096,0.729,0.159,1.127,0.232c1.447,0.25,2.779,0.246,3.908,0.064c1.668-0.26,2.869-0.765,3.936-1.049
				c1.087-0.276,1.947-0.408,3.48-0.151c0.633,0.1,1.172,0.209,1.568,0.315c1.26,0.355,1.573,0.611,2.205,1.159
				c0.618,0.563,1.371,1.4,3.01,2.444c1.869,1.188,3.426,1.678,4.27,2.091c0.427,0.22,0.738,0.407,1.021,0.705
				c0.307,0.307,0.596,0.745,0.874,1.459c0.31,0.856,0.103,1.353-0.331,1.925c-0.365,0.521-1.012,1.073-1.576,1.787
				c-0.6,0.786-0.998,1.832-0.494,3.07c0.322,0.88,0.994,1.561,1.772,2.061c1.188,0.75,2.492,1.118,3.416,1.537
				c0.929,0.422,1.55,0.795,1.923,1.723c0.28,0.744,0.064,1.293-0.425,1.937c-0.455,0.603-1.144,1.211-1.708,1.953
				c-0.35,0.461-0.645,1-0.697,1.591c-0.039,0.609,0.217,1.247,0.781,1.88c1.658,1.84,4.086,2.627,5.521,3.237
				C138.297,151.553,138.715,151.786,138.863,151.996z M62.079,159.059l44.931-25.311c1.9-0.729,3.87-1.452,5.901-2.163
				c0.672-0.25,0.922-0.771,0.53-1.185c-0.156-0.168-0.394-0.291-0.662-0.364c-0.405-0.109-0.887-0.101-1.301,0.045
				c-39.211,13.774-54.7,30.804-54.79,30.882c-0.382,0.434-0.135,0.964,0.57,1.188c0.756,0.205,1.582,0.043,1.953-0.373l0.152-0.166
				C59.713,161.253,60.598,160.355,62.079,159.059 M67.896,144.994c0.149,0.195,0.404,0.343,0.705,0.424
				c0.363,0.096,0.795,0.102,1.194-0.02c0.719-0.203,1.051-0.717,0.708-1.154l-7.466-9.773c-0.144-0.191-0.396-0.334-0.694-0.416
				c-0.371-0.096-0.809-0.101-1.206,0.012c-0.73,0.22-1.04,0.736-0.716,1.17L67.896,144.994 M68.845,130.132
				c-0.719,0.205-1.034,0.726-0.708,1.158l7.463,9.772c0.146,0.19,0.399,0.334,0.697,0.412c0.365,0.1,0.804,0.104,1.203-0.008
				c0.73-0.22,1.065-0.73,0.719-1.169l-7.478-9.76c-0.149-0.196-0.402-0.343-0.705-0.425
				C69.674,130.02,69.241,130.014,68.845,130.132 M84.277,122.24c-0.73,0.218-1.065,0.732-0.716,1.169l7.474,9.758
				c0.146,0.192,0.396,0.337,0.697,0.416c0.365,0.099,0.807,0.101,1.203-0.013c0.719-0.201,1.027-0.721,0.705-1.151l-7.464-9.774
				c-0.146-0.191-0.399-0.334-0.697-0.414C85.115,122.132,84.674,122.128,84.277,122.24 M76.559,126.188
				c-0.719,0.203-1.028,0.726-0.706,1.154l7.466,9.773c0.146,0.193,0.396,0.334,0.694,0.412c0.371,0.102,0.809,0.104,1.205-0.006
				c0.72-0.205,1.04-0.742,0.717-1.172l-7.478-9.759c-0.143-0.19-0.396-0.335-0.694-0.416
				C77.396,126.08,76.955,126.074,76.559,126.188 M110.434,150.516c0.443-0.398,0.312-0.933-0.352-1.214l-14.629-6.108
				c-0.066-0.027-0.135-0.051-0.208-0.069c-0.624-0.166-1.386-0.048-1.784,0.312c-0.47,0.392-0.312,0.934,0.328,1.209l14.626,6.108
				c0.069,0.024,0.138,0.048,0.208,0.067C109.25,150.986,110.018,150.867,110.434,150.516 M95,158.409
				c0.467-0.392,0.312-0.937-0.354-1.218l-14.602-6.098c-0.079-0.037-0.163-0.062-0.242-0.085c-0.61-0.161-1.354-0.042-1.771,0.304
				c-0.475,0.405-0.32,0.947,0.332,1.209l14.629,6.108c0.075,0.031,0.157,0.06,0.241,0.081
				C93.846,158.875,94.587,158.755,95,158.409 M118.148,146.566c0.443-0.397,0.289-0.938-0.359-1.198l-14.629-6.109
				c-0.078-0.032-0.16-0.062-0.241-0.081c-0.608-0.166-1.353-0.043-1.741,0.309c-0.468,0.392-0.312,0.934,0.328,1.209l14.626,6.109
				c0.078,0.03,0.157,0.059,0.241,0.08C116.982,147.048,117.73,146.925,118.148,146.566 M102.717,154.461
				c0.443-0.398,0.312-0.934-0.352-1.214l-14.604-6.104c-0.07-0.027-0.143-0.051-0.216-0.066c-0.641-0.174-1.402-0.055-1.801,0.304
				c-0.466,0.394-0.312,0.933,0.329,1.208l14.637,6.096c0.076,0.03,0.157,0.06,0.242,0.082
				C101.562,154.928,102.307,154.807,102.717,154.461"/>
		</g>
		<g>
			<path fill="#5FAC45" d="M141.241,154.048c-0.437,0.606-1.187,1.076-2.021,1.354c-0.83,0.277-1.718,0.4-2.558,0.469
				c-1.675,0.118-3.361,0.064-4.718,0.253c-0.911,0.118-1.655,0.315-2.318,0.703c-0.588,0.328-0.896,0.623-1.113,0.909
				c-0.391,0.518-0.455,1.052-0.525,1.736c-0.084,0.67-0.143,1.495-0.795,2.354c-0.379,0.504-0.957,1.004-1.768,1.476
				c-1.644,0.973-3.484,1.273-5.002,1.332c-1.515,0.059-2.73-0.009-3.768,0.16c-0.682,0.112-1.318,0.286-2.094,0.747
				c-0.59,0.326-0.896,0.624-1.112,0.911c-0.394,0.518-0.483,1.042-0.528,1.736c-0.082,0.668-0.145,1.494-0.796,2.354
				c-0.382,0.5-0.955,1.001-1.771,1.473c-1,0.58-1.871,0.983-2.752,1.248c-0.865,0.28-1.717,0.398-2.492,0.449
				c-1.582,0.112-2.852,0.028-5.184,0.389c-1.763,0.267-2.799,0.592-3.806,0.873c-1.017,0.299-2.149,0.6-3.619,0.6
				c-0.976,0.017-2.034-0.079-3.357-0.315c-0.396-0.069-0.795-0.14-1.124-0.229c-2.209-0.59-3.215-1.651-3.959-2.422
				c-0.773-0.81-1.298-1.35-2.627-1.721c-0.236-0.062-0.483-0.111-0.75-0.168c-1.545-0.242-2.383-0.104-3.468,0.174
				c-1.09,0.275-2.271,0.787-3.959,1.043c-1.127,0.181-2.437,0.19-3.889-0.06c-0.396-0.073-0.784-0.157-1.138-0.253
				c-2.236-0.602-3.209-1.641-3.945-2.402c-0.77-0.81-1.324-1.354-2.653-1.729c-0.233-0.062-0.48-0.112-0.748-0.165
				c-1.206-0.203-2.343-0.043-3.672,0.292c-1.318,0.316-2.684,0.814-4.235,1.07c-1.023,0.18-2.217,0.232-3.361-0.073
				c-0.686-0.187-1.267-0.427-1.781-0.753c-0.922-0.573-1.422-1.293-1.436-1.989c-0.022-0.679,0.317-1.274,0.742-1.832
				c0.5-0.66,1.13-1.265,1.585-1.866c0.554-0.767,0.868-1.441,0.587-2.152c-0.396-0.936-0.995-1.303-1.944-1.728
				c-0.899-0.413-2.206-0.78-3.395-1.532c-0.787-0.484-1.45-1.18-1.796-2.066c-0.492-1.215-0.115-2.271,0.515-3.066
				c0.545-0.716,1.177-1.25,1.568-1.768c0.447-0.59,0.652-1.084,0.343-1.944c-0.394-0.933-1.017-1.304-1.945-1.726
				c-0.924-0.422-2.206-0.78-3.392-1.528c-0.801-0.509-1.453-1.181-1.798-2.067c-0.32-0.844-0.436-1.513-0.385-2.103
				c0.084-0.597,0.359-1.108,0.697-1.554c0.382-0.5,0.821-0.937,1.248-1.492c0.281-0.374,0.573-0.795,0.834-1.326
				c0.461-0.98,0.587-1.637,0.683-2.282c0.096-0.612,0.191-1.259,0.736-1.975c0.478-0.634,1.245-1.234,2.473-1.959
				c1.666-0.968,3.507-1.265,5.021-1.323c1.515-0.061,2.737,0.008,3.746-0.169c0.703-0.104,1.332-0.298,2.119-0.741
				c0.565-0.332,0.896-0.621,1.113-0.908c0.382-0.5,0.455-1.051,0.528-1.735c0.056-0.675,0.118-1.505,0.77-2.363
				c0.382-0.5,0.961-1,1.759-1.458c1.675-0.98,3.518-1.281,5.03-1.34c1.518-0.059,2.737,0.01,3.771-0.162
				c0.68-0.111,1.332-0.298,2.096-0.748c0.427-0.23,0.717-0.497,0.944-0.799c0.433-0.572,0.607-1.319,0.728-2.113
				c0.121-0.795,0.194-1.637,0.823-2.467c0.284-0.373,0.705-0.742,1.304-1.047c0.599-0.307,1.332-0.521,2.181-0.639
				c1.197-0.198,2.349-0.147,3.31,0.11c0.938,0.251,1.624,0.658,2.178,1.083c0.556,0.424,1.02,0.895,1.458,1.32
				c0.916,0.884,1.787,1.599,3.009,1.926l0.54,0.111c1.509,0.248,2.357,0.097,3.445-0.182c1.087-0.277,2.269-0.789,3.957-1.043
				c1.115-0.164,2.437-0.19,3.888,0.062c0.397,0.071,0.782,0.159,1.137,0.253c2.188,0.586,3.201,1.633,3.938,2.417
				c0.771,0.81,1.299,1.348,2.661,1.713c0.214,0.056,0.447,0.119,0.75,0.166c1.507,0.249,2.381,0.104,3.472-0.173
				c1.062-0.284,2.268-0.79,3.955-1.042c1.116-0.166,2.438-0.191,3.887,0.059c0.75,0.132,1.383,0.267,1.944,0.417
				c1.769,0.475,2.726,1.137,3.408,1.776c0.717,0.657,1.271,1.306,2.685,2.2c1.248,0.781,2.181,1.152,3.104,1.541
				c0.901,0.377,1.874,0.81,2.594,1.574c0.491,0.508,0.871,1.129,1.169,1.93c0.514,1.223,0.115,2.273-0.482,3.061
				c-0.568,0.708-1.211,1.26-1.603,1.775c-0.411,0.578-0.618,1.076-0.307,1.934c0.394,0.934,0.995,1.301,1.919,1.721
				c0.925,0.422,2.23,0.789,3.414,1.537c0.781,0.502,1.453,1.183,1.802,2.067c0.452,1.188,0.009,2.259-0.633,3.071
				c-0.587,0.771-1.298,1.41-1.708,1.953c-0.262,0.346-0.396,0.635-0.419,0.924c-0.021,0.287,0.063,0.585,0.433,0.994
				c1.414,1.567,3.448,2.097,5.266,2.945c0.604,0.28,1.189,0.627,1.586,1.112c0.554,0.646,0.562,1.461,0.121,2.341
				C141.466,153.713,141.359,153.891,141.241,154.048z M137.459,154c0.596-0.15,0.857-0.27,1.172-0.652l0.184-0.277
				c0.281-0.633,0.188-0.879,0.051-1.073c-0.149-0.21-0.567-0.442-1.29-0.758c-1.437-0.61-3.863-1.397-5.521-3.237
				c-0.564-0.633-0.82-1.271-0.781-1.88c0.054-0.591,0.349-1.13,0.697-1.591c0.563-0.742,1.252-1.352,1.707-1.953
				c0.489-0.645,0.705-1.191,0.426-1.936c-0.375-0.929-0.996-1.302-1.924-1.724c-0.924-0.419-2.228-0.787-3.416-1.537
				c-0.777-0.5-1.449-1.181-1.772-2.06c-0.503-1.239-0.104-2.285,0.493-3.071c0.565-0.714,1.213-1.265,1.578-1.787
				c0.433-0.573,0.641-1.067,0.33-1.925c-0.277-0.714-0.566-1.152-0.873-1.459c-0.283-0.298-0.597-0.484-1.022-0.705
				c-0.843-0.413-2.399-0.902-4.269-2.091c-1.64-1.044-2.393-1.882-3.011-2.444c-0.632-0.548-0.946-0.804-2.204-1.158
				c-0.396-0.107-0.938-0.217-1.568-0.316c-1.534-0.256-2.396-0.125-3.481,0.152c-1.065,0.283-2.269,0.787-3.935,1.047
				c-1.129,0.182-2.461,0.187-3.908-0.063c-0.398-0.073-0.771-0.138-1.127-0.233c-2.211-0.591-3.189-1.646-3.962-2.422
				c-0.771-0.809-1.296-1.347-2.624-1.72c-0.236-0.063-0.481-0.112-0.751-0.168c-1.542-0.239-2.384-0.103-3.47,0.174
				c-1.086,0.278-2.266,0.79-3.958,1.042c-1.126,0.182-2.436,0.191-3.886-0.059c-0.329-0.053-0.621-0.115-0.902-0.189
				c-1.624-0.436-2.669-1.18-3.47-1.878c-0.823-0.703-1.453-1.405-2.065-1.862c-0.388-0.31-0.759-0.496-1.11-0.59
				c-0.351-0.095-0.722-0.125-1.45-0.025c-0.517,0.084-0.812,0.177-1.015,0.295c-0.228,0.111-0.371,0.228-0.514,0.414
				c-0.329,0.396-0.455,1.084-0.576,1.916c-0.129,0.808-0.27,1.736-0.978,2.666c-0.354,0.473-0.877,0.938-1.585,1.351
				c-1.647,0.972-3.484,1.271-5.002,1.332c-1.512,0.06-2.734-0.01-3.771,0.162c-0.674,0.11-1.326,0.298-2.119,0.742
				c-0.562,0.331-0.871,0.626-1.121,0.921c-0.379,0.501-0.458,1.052-0.514,1.726c-0.07,0.687-0.124,1.501-0.787,2.372
				c-0.365,0.488-0.944,0.989-1.753,1.461c-1.644,0.973-3.496,1.287-4.996,1.332c-1.517,0.059-2.737-0.012-3.773,0.163
				c-0.677,0.109-1.329,0.298-2.119,0.741c-1.07,0.624-1.559,1.046-1.829,1.404c-0.303,0.399-0.365,0.781-0.483,1.423
				c-0.095,0.646-0.247,1.483-0.781,2.597c-0.332,0.621-0.663,1.135-0.989,1.562c-0.5,0.66-0.964,1.123-1.248,1.494
				c-0.225,0.338-0.363,0.59-0.413,0.955c-0.042,0.354,0.008,0.85,0.289,1.562c0.394,0.933,1.018,1.304,1.931,1.738
				c0.902,0.414,2.217,0.768,3.403,1.516c0.781,0.503,1.441,1.195,1.787,2.082c0.517,1.222,0.118,2.273-0.514,3.064
				c-0.542,0.721-1.177,1.254-1.568,1.771c-0.424,0.593-0.627,1.09-0.318,1.95c0.371,0.927,0.995,1.298,1.919,1.72
				c0.924,0.421,2.206,0.781,3.392,1.528c0.815,0.493,1.453,1.181,1.798,2.067c0.495,1.254-0.076,2.375-0.759,3.276
				c-0.545,0.717-1.186,1.337-1.584,1.865c-0.337,0.446-0.495,0.802-0.467,1.065c0,0.262,0.115,0.479,0.658,0.848
				c0.309,0.188,0.567,0.289,0.804,0.354c0.332,0.087,0.629,0.101,1.048,0.072c0.45-0.033,0.986-0.147,1.585-0.298
				c1.211-0.328,2.681-0.852,4.44-1.121c1.183-0.18,2.503-0.241,3.883-0.012c0.418,0.078,0.784,0.16,1.138,0.257
				c2.208,0.593,3.2,1.632,3.934,2.413c0.798,0.817,1.321,1.354,2.664,1.714c0.233,0.062,0.469,0.127,0.748,0.169
				c1.534,0.253,2.383,0.102,3.467-0.174c1.09-0.278,2.271-0.791,3.962-1.043c1.112-0.166,2.433-0.193,3.889,0.06
				c0.396,0.072,0.784,0.157,1.135,0.253c2.186,0.584,3.204,1.633,3.937,2.416c0.77,0.811,1.298,1.35,2.661,1.712
				c0.211,0.06,0.447,0.12,0.75,0.165c1.146,0.205,1.925,0.26,2.528,0.248c0.567-0.003,0.98-0.062,1.531-0.191
				c1.031-0.241,2.531-0.804,5.225-1.219c2.015-0.308,3.484-0.344,4.595-0.392c1.099-0.031,1.663-0.07,2.464-0.304
				c0.525-0.172,1.193-0.459,2.061-0.965c0.562-0.334,0.896-0.623,1.123-0.924c0.381-0.5,0.459-1.049,0.519-1.723
				c0.069-0.688,0.144-1.495,0.806-2.369c0.344-0.49,0.922-0.992,1.758-1.458c1.644-0.974,3.491-1.287,4.998-1.332
				c1.525-0.073,2.733,0.009,3.771-0.163c0.678-0.111,1.329-0.298,2.094-0.746c0.584-0.326,0.896-0.625,1.124-0.923
				c0.382-0.503,0.455-1.051,0.517-1.726c0.094-0.68,0.142-1.495,0.805-2.366c0.371-0.488,0.947-0.989,1.759-1.461
				c1.712-0.989,3.808-1.22,5.556-1.32C134.998,154.186,136.577,154.193,137.459,154"/>
		</g>
		<g>
			<path fill="#87C770" d="M107.01,133.748l-44.931,25.311C67.665,154.141,81.712,143.423,107.01,133.748z"/>
		</g>
		<g>
			<path fill="#5FAC45" d="M62.343,134.055c0.298,0.082,0.551,0.225,0.694,0.416l7.466,9.773c0.343,0.438,0.011,0.951-0.708,1.154
				c-0.399,0.121-0.832,0.115-1.194,0.02c-0.301-0.081-0.556-0.229-0.705-0.424l-7.475-9.76c-0.323-0.433-0.014-0.949,0.716-1.168
				C61.534,133.954,61.972,133.959,62.343,134.055z"/>
		</g>
		<g>
			<path fill="#5FAC45" d="M112.779,130.036c0.27,0.073,0.506,0.196,0.662,0.364c0.392,0.414,0.142,0.935-0.53,1.185
				c-2.031,0.711-3.999,1.437-5.901,2.163c-25.298,9.675-39.345,20.393-44.931,25.311c-1.48,1.299-2.366,2.194-2.714,2.555
				l-0.152,0.166c-0.371,0.416-1.197,0.578-1.869,0.397c-0.79-0.247-1.037-0.78-0.654-1.214c0.09-0.078,15.578-17.105,54.789-30.882
				C111.895,129.936,112.374,129.927,112.779,130.036z"/>
		</g>
		<g>
			<path fill="#5FAC45" d="M102.919,139.178c0.081,0.021,0.163,0.049,0.241,0.081l14.629,6.109c0.648,0.261,0.804,0.801,0.359,1.198
				c-0.418,0.357-1.166,0.48-1.775,0.317c-0.084-0.022-0.163-0.05-0.241-0.081l-14.626-6.109c-0.641-0.274-0.796-0.816-0.329-1.207
				C101.566,139.135,102.311,139.012,102.919,139.178z"/>
		</g>
		<g>
			<path fill="#5FAC45" d="M79.804,151.01c0.079,0.022,0.163,0.049,0.242,0.086l14.601,6.098c0.666,0.279,0.82,0.826,0.354,1.217
				c-0.41,0.346-1.153,0.466-1.765,0.303c-0.084-0.021-0.166-0.05-0.241-0.081l-14.629-6.108c-0.649-0.262-0.806-0.803-0.332-1.209
				C78.45,150.968,79.194,150.848,79.804,151.01z"/>
		</g>
		<g>
			<path fill="#5FAC45" d="M87.545,147.076c0.073,0.017,0.146,0.039,0.216,0.066l14.604,6.104c0.662,0.28,0.795,0.813,0.352,1.214
				c-0.41,0.346-1.154,0.467-1.765,0.305c-0.085-0.022-0.166-0.052-0.242-0.082l-14.637-6.096c-0.641-0.275-0.795-0.814-0.329-1.208
				C86.144,147.021,86.905,146.902,87.545,147.076z"/>
		</g>
		<g>
			<path fill="#5FAC45" d="M95.245,143.123c0.073,0.02,0.142,0.042,0.208,0.068l14.629,6.109c0.663,0.281,0.795,0.814,0.352,1.215
				c-0.416,0.352-1.184,0.471-1.811,0.303c-0.07-0.02-0.139-0.041-0.208-0.066l-14.626-6.109c-0.641-0.274-0.795-0.816-0.328-1.207
				C93.859,143.075,94.621,142.957,95.245,143.123z"/>
		</g>
		<g>
			<path fill="#5FAC45" d="M70.037,130.115c0.303,0.08,0.556,0.228,0.705,0.424l7.478,9.76c0.346,0.438,0.011,0.949-0.719,1.169
				c-0.399,0.112-0.837,0.106-1.203,0.009c-0.298-0.078-0.551-0.223-0.697-0.414l-7.463-9.771c-0.326-0.434-0.011-0.953,0.708-1.158
				C69.241,130.014,69.674,130.02,70.037,130.115z"/>
		</g>
		<g>
			<path fill="#5FAC45" d="M85.48,122.23c0.298,0.078,0.55,0.222,0.697,0.414l7.464,9.773c0.322,0.432,0.014,0.95-0.705,1.152
				c-0.396,0.111-0.838,0.109-1.203,0.012c-0.301-0.079-0.551-0.223-0.697-0.416l-7.474-9.758c-0.349-0.438-0.014-0.951,0.716-1.169
				C84.674,122.128,85.115,122.132,85.48,122.23z"/>
		</g>
	</g>
</g>
<g opacity="0.1">
	<g>
		<path d="M115.771,115.42c1.317,0.354,2.365,0.932,3.426,1.6c1.051,0.678,2.06,1.469,3.068,2.31
			c2.012,1.668,4.016,3.53,5.842,4.853c1.16,0.855,2.305,1.461,2.945,1.629c0.225,0.062,0.35,0.084,0.418,0.075
			c0.635-0.126,1.202-0.108,1.684,0.019c0.482,0.129,0.88,0.373,1.07,0.695c0.406,0.642-0.154,1.357-1.226,1.616
			c-0.621,0.146-1.29,0.202-1.901,0.175c-0.627-0.033-1.201-0.136-1.74-0.281c-1.301-0.349-2.362-0.934-3.426-1.6
			c-1.033-0.674-2.06-1.47-3.067-2.31c-2.009-1.666-4.017-3.531-5.825-4.847c-1.182-0.862-2.32-1.463-2.965-1.637
			c-0.223-0.061-0.34-0.066-0.416-0.076c-0.21,0.069-0.303,0.131-0.389,0.245c-0.234,0.285-0.42,0.88-0.475,1.646
			c-0.036,0.771,0.036,1.695,0.18,2.688c0.269,1.981,0.766,4.221,0.832,6.174c0.022,1.308-0.072,2.481-0.861,3.549
			c-0.242,0.32-0.568,0.642-0.995,0.912c-0.438,0.279-1,0.511-1.618,0.656c-0.618,0.145-1.29,0.196-1.917,0.17
			c-0.626-0.035-1.208-0.128-1.733-0.269c-1.289-0.356-2.363-0.931-3.414-1.61c-1.054-0.677-2.06-1.467-3.07-2.31
			c-2.01-1.666-4.016-3.529-5.822-4.845c-1.182-0.862-2.324-1.465-2.965-1.638c-0.225-0.06-0.34-0.065-0.418-0.073
			c-0.211,0.065-0.301,0.131-0.389,0.242c-0.21,0.278-0.418,0.879-0.446,1.641c-0.054,0.768,0.017,1.688,0.16,2.684
			c0.261,1.989,0.767,4.221,0.832,6.171c0.022,1.31-0.064,2.501-0.852,3.565c-0.242,0.316-0.562,0.63-0.998,0.91
			c-0.452,0.272-0.992,0.504-1.607,0.646c-0.627,0.155-1.293,0.2-1.919,0.169c-0.635-0.02-1.208-0.127-1.731-0.268
			c-1.31-0.362-2.366-0.928-3.417-1.606c-1.051-0.681-2.06-1.47-3.068-2.312c-2.012-1.668-4.016-3.528-5.825-4.846
			c-1.18-0.863-2.321-1.465-2.961-1.64c-0.225-0.056-0.346-0.063-0.402-0.067c-0.23,0.062-0.32,0.125-0.405,0.236
			c-0.213,0.281-0.424,0.883-0.45,1.641c-0.053,0.769,0.02,1.692,0.16,2.685c0.261,1.991,0.781,4.228,0.852,6.18
			c0.022,1.308-0.084,2.492-0.871,3.558c-0.245,0.32-0.562,0.629-0.995,0.91c-0.43,0.271-0.992,0.506-1.61,0.646
			c-0.618,0.146-1.29,0.202-1.919,0.168c-0.635-0.021-1.206-0.123-1.731-0.264c-1.293-0.359-2.363-0.934-3.417-1.61
			c-1.051-0.677-2.057-1.47-3.069-2.31c-2.012-1.666-4.015-3.529-5.825-4.849c-1.18-0.858-2.321-1.464-2.962-1.635
			c-0.225-0.06-0.34-0.067-0.402-0.067c-0.644,0.123-1.211,0.106-1.691-0.021c-0.478-0.131-0.871-0.368-1.062-0.691
			c-0.407-0.646,0.141-1.365,1.226-1.619c0.618-0.146,1.275-0.201,1.902-0.174c0.626,0.034,1.197,0.139,1.722,0.275
			c1.321,0.354,2.366,0.933,3.423,1.602c1.054,0.68,2.06,1.471,3.074,2.311c2.001,1.675,4.016,3.529,5.839,4.851
			c1.158,0.868,2.298,1.47,2.939,1.642c0.225,0.062,0.359,0.072,0.416,0.076c0.222-0.076,0.301-0.131,0.388-0.244
			c0.236-0.285,0.422-0.877,0.475-1.647c0.028-0.759-0.037-1.69-0.177-2.687c-0.267-1.979-0.767-4.221-0.832-6.17
			c-0.025-1.311,0.073-2.484,0.843-3.556c0.242-0.319,0.568-0.642,1.012-0.908c0.438-0.28,1-0.511,1.622-0.657
			c0.615-0.144,1.273-0.201,1.896-0.17c0.629,0.029,1.2,0.135,1.723,0.274c1.321,0.354,2.369,0.933,3.425,1.599
			c1.054,0.68,2.06,1.473,3.068,2.311c2.006,1.678,4.019,3.529,5.845,4.85c1.155,0.869,2.296,1.473,2.937,1.643
			c0.228,0.062,0.36,0.072,0.419,0.078c0.222-0.078,0.3-0.129,0.388-0.244c0.21-0.278,0.424-0.881,0.458-1.649
			c0.045-0.756-0.02-1.69-0.163-2.685c-0.267-1.979-0.773-4.211-0.837-6.162c-0.02-1.317,0.062-2.497,0.852-3.563
			c0.242-0.319,0.559-0.631,0.995-0.911c0.453-0.275,1-0.514,1.61-0.646c0.626-0.155,1.29-0.2,1.925-0.18
			c0.627,0.033,1.199,0.138,1.725,0.277c1.311,0.364,2.363,0.932,3.424,1.6c1.054,0.679,2.062,1.47,3.068,2.311
			c2.002,1.677,4.016,3.532,5.842,4.85c1.144,0.844,2.257,1.45,2.91,1.625c0.263,0.069,0.389,0.09,0.447,0.092
			c0.235-0.072,0.309-0.141,0.396-0.252c0.225-0.275,0.419-0.877,0.467-1.636c0.051-0.768-0.037-1.696-0.163-2.682
			c-0.278-1.997-0.78-4.228-0.849-6.179c-0.025-1.309,0.08-2.496,0.867-3.561c0.242-0.318,0.562-0.631,0.998-0.91
			c0.453-0.275,0.998-0.514,1.615-0.658c0.618-0.144,1.29-0.199,1.918-0.166C114.676,115.176,115.246,115.279,115.771,115.42z"/>
	</g>
	<g>
		<path d="M115.771,137.41c1.317,0.354,2.365,0.93,3.426,1.599c1.051,0.677,2.06,1.47,3.068,2.308
			c2.012,1.67,4.016,3.531,5.842,4.851c1.16,0.858,2.305,1.461,2.945,1.635c0.225,0.06,0.35,0.079,0.418,0.073
			c0.635-0.126,1.202-0.111,1.684,0.018c0.482,0.129,0.88,0.373,1.07,0.696c0.406,0.642-0.154,1.36-1.226,1.618
			c-0.621,0.145-1.29,0.197-1.901,0.172c-0.627-0.031-1.201-0.138-1.74-0.281c-1.301-0.349-2.362-0.93-3.426-1.599
			c-1.033-0.675-2.06-1.47-3.067-2.31c-2.009-1.668-4.017-3.529-5.825-4.846c-1.182-0.861-2.32-1.467-2.965-1.636
			c-0.223-0.062-0.34-0.067-0.416-0.078c-0.21,0.067-0.303,0.132-0.389,0.244c-0.234,0.284-0.42,0.88-0.475,1.646
			c-0.036,0.771,0.036,1.695,0.18,2.688c0.269,1.98,0.766,4.221,0.832,6.174c0.022,1.311-0.072,2.484-0.861,3.549
			c-0.242,0.317-0.568,0.641-0.995,0.91c-0.438,0.278-1,0.516-1.618,0.658s-1.29,0.199-1.917,0.165
			c-0.626-0.027-1.208-0.123-1.733-0.265c-1.289-0.358-2.363-0.93-3.414-1.606c-1.054-0.681-2.06-1.47-3.07-2.31
			c-2.01-1.67-4.016-3.529-5.822-4.849c-1.182-0.862-2.324-1.464-2.965-1.638c-0.225-0.061-0.34-0.064-0.418-0.073
			c-0.211,0.067-0.301,0.129-0.389,0.241c-0.21,0.281-0.418,0.88-0.446,1.643c-0.054,0.767,0.017,1.69,0.16,2.684
			c0.261,1.992,0.767,4.221,0.832,6.173c0.022,1.308-0.064,2.498-0.852,3.563c-0.242,0.319-0.562,0.629-0.998,0.909
			c-0.452,0.275-0.992,0.503-1.607,0.646c-0.627,0.157-1.293,0.202-1.919,0.169c-0.635-0.021-1.208-0.124-1.731-0.266
			c-1.31-0.365-2.366-0.933-3.417-1.609c-1.051-0.678-2.06-1.469-3.068-2.311c-2.012-1.666-4.016-3.531-5.825-4.847
			c-1.18-0.862-2.321-1.464-2.961-1.636c-0.225-0.062-0.346-0.067-0.402-0.07c-0.23,0.064-0.32,0.127-0.405,0.239
			c-0.213,0.274-0.424,0.876-0.45,1.641c-0.053,0.765,0.02,1.688,0.16,2.681c0.261,1.992,0.781,4.228,0.852,6.178
			c0.022,1.31-0.084,2.494-0.871,3.56c-0.245,0.32-0.562,0.634-0.995,0.914c-0.43,0.271-0.992,0.5-1.61,0.646
			c-0.618,0.145-1.29,0.201-1.919,0.17c-0.635-0.022-1.206-0.126-1.731-0.268c-1.293-0.359-2.363-0.931-3.417-1.609
			c-1.051-0.678-2.057-1.467-3.069-2.311c-2.012-1.667-4.015-3.529-5.825-4.845c-1.18-0.865-2.321-1.467-2.962-1.636
			c-0.225-0.062-0.34-0.067-0.402-0.072c-0.644,0.123-1.211,0.111-1.691-0.018c-0.478-0.129-0.871-0.371-1.062-0.696
			c-0.407-0.642,0.141-1.36,1.226-1.616c0.618-0.145,1.275-0.205,1.902-0.171c0.626,0.03,1.197,0.135,1.722,0.274
			c1.321,0.354,2.366,0.931,3.423,1.6c1.054,0.677,2.06,1.47,3.074,2.311c2.001,1.678,4.016,3.531,5.839,4.85
			c1.158,0.869,2.298,1.47,2.939,1.645c0.225,0.059,0.359,0.07,0.416,0.073c0.222-0.079,0.301-0.13,0.388-0.242
			c0.236-0.286,0.422-0.879,0.475-1.646c0.028-0.762-0.037-1.694-0.177-2.688c-0.267-1.98-0.767-4.224-0.832-6.174
			c-0.025-1.307,0.073-2.482,0.843-3.554c0.242-0.32,0.568-0.642,1.012-0.905c0.438-0.281,1-0.514,1.622-0.657
			c0.615-0.146,1.273-0.204,1.896-0.175c0.629,0.034,1.2,0.135,1.723,0.275c1.321,0.354,2.369,0.934,3.425,1.602
			c1.054,0.682,2.06,1.467,3.068,2.311c2.006,1.676,4.019,3.529,5.845,4.851c1.155,0.865,2.296,1.47,2.937,1.642
			c0.228,0.062,0.36,0.072,0.419,0.075c0.222-0.077,0.3-0.132,0.388-0.243c0.21-0.275,0.424-0.877,0.458-1.646
			c0.045-0.76-0.02-1.691-0.163-2.688c-0.267-1.979-0.773-4.209-0.837-6.162c-0.02-1.317,0.062-2.498,0.852-3.565
			c0.242-0.317,0.559-0.629,0.995-0.91c0.453-0.274,1-0.512,1.61-0.646c0.626-0.151,1.29-0.199,1.925-0.181
			c0.627,0.034,1.199,0.138,1.725,0.278c1.311,0.361,2.363,0.934,3.424,1.6c1.054,0.68,2.062,1.469,3.068,2.309
			c2.002,1.679,4.016,3.529,5.842,4.852c1.144,0.844,2.257,1.45,2.91,1.624c0.263,0.067,0.389,0.09,0.447,0.097
			c0.235-0.074,0.309-0.142,0.396-0.257c0.225-0.271,0.419-0.88,0.467-1.636c0.051-0.768-0.037-1.693-0.163-2.684
			c-0.278-1.996-0.78-4.227-0.849-6.176c-0.025-1.311,0.08-2.496,0.867-3.562c0.242-0.317,0.562-0.632,0.998-0.91
			c0.453-0.272,0.998-0.515,1.615-0.657c0.618-0.144,1.29-0.199,1.918-0.166C114.676,137.163,115.246,137.27,115.771,137.41z"/>
	</g>
</g>
<g>
	<g>
		<path fill="#E4D3B5" d="M115.771,112.543c1.317,0.354,2.365,0.932,3.426,1.6c1.051,0.678,2.06,1.469,3.068,2.31
			c2.012,1.668,4.016,3.53,5.842,4.85c1.16,0.858,2.305,1.462,2.945,1.634c0.225,0.061,0.35,0.08,0.418,0.073
			c0.635-0.128,1.202-0.11,1.684,0.017c0.482,0.131,0.88,0.375,1.07,0.697c0.406,0.641-0.154,1.357-1.226,1.615
			c-0.621,0.146-1.29,0.203-1.901,0.176c-0.627-0.035-1.201-0.136-1.74-0.281c-1.301-0.35-2.362-0.934-3.426-1.6
			c-1.033-0.675-2.06-1.47-3.067-2.31c-2.009-1.667-4.017-3.531-5.825-4.847c-1.182-0.862-2.32-1.463-2.965-1.637
			c-0.223-0.061-0.34-0.066-0.416-0.076c-0.21,0.069-0.303,0.131-0.389,0.245c-0.234,0.285-0.42,0.88-0.475,1.646
			c-0.036,0.771,0.036,1.695,0.18,2.688c0.269,1.981,0.766,4.221,0.832,6.174c0.022,1.308-0.072,2.48-0.861,3.549
			c-0.242,0.32-0.568,0.642-0.995,0.91c-0.438,0.281-1,0.512-1.618,0.657c-0.618,0.144-1.29,0.197-1.917,0.169
			c-0.626-0.033-1.208-0.126-1.733-0.267c-1.289-0.357-2.363-0.931-3.414-1.61c-1.054-0.678-2.06-1.467-3.07-2.31
			c-2.01-1.667-4.016-3.528-5.822-4.845c-1.182-0.863-2.324-1.465-2.965-1.638c-0.225-0.062-0.34-0.065-0.418-0.075
			c-0.211,0.066-0.301,0.131-0.389,0.243c-0.21,0.278-0.418,0.878-0.446,1.64c-0.054,0.768,0.017,1.69,0.16,2.685
			c0.261,1.989,0.767,4.22,0.832,6.17c0.022,1.31-0.064,2.501-0.852,3.565c-0.242,0.317-0.562,0.63-0.998,0.91
			c-0.452,0.272-0.992,0.504-1.607,0.646c-0.627,0.154-1.293,0.199-1.919,0.168c-0.635-0.02-1.208-0.126-1.731-0.268
			c-1.31-0.361-2.366-0.926-3.417-1.606c-1.051-0.68-2.06-1.47-3.068-2.31c-2.012-1.67-4.016-3.529-5.825-4.849
			c-1.18-0.862-2.321-1.464-2.961-1.638c-0.225-0.057-0.346-0.064-0.402-0.066c-0.23,0.062-0.32,0.123-0.405,0.235
			c-0.213,0.28-0.424,0.882-0.45,1.642c-0.053,0.768,0.02,1.69,0.16,2.684c0.261,1.992,0.781,4.227,0.852,6.179
			c0.022,1.308-0.084,2.493-0.871,3.558c-0.245,0.32-0.562,0.631-0.995,0.91c-0.43,0.271-0.992,0.506-1.61,0.646
			c-0.618,0.146-1.29,0.201-1.919,0.169c-0.635-0.022-1.206-0.124-1.731-0.265c-1.293-0.359-2.363-0.934-3.417-1.609
			c-1.051-0.678-2.057-1.471-3.069-2.311c-2.012-1.666-4.015-3.529-5.825-4.848c-1.18-0.859-2.321-1.464-2.962-1.636
			c-0.225-0.06-0.34-0.067-0.402-0.067c-0.644,0.124-1.211,0.107-1.691-0.021c-0.478-0.129-0.871-0.368-1.062-0.691
			c-0.407-0.646,0.141-1.365,1.226-1.617c0.618-0.146,1.275-0.203,1.902-0.175c0.626,0.033,1.197,0.138,1.722,0.274
			c1.321,0.354,2.366,0.934,3.423,1.603c1.054,0.681,2.06,1.47,3.074,2.31c2.001,1.676,4.016,3.529,5.839,4.851
			c1.158,0.868,2.298,1.47,2.939,1.642c0.225,0.062,0.359,0.073,0.416,0.075c0.222-0.075,0.301-0.129,0.388-0.243
			c0.236-0.285,0.422-0.877,0.475-1.646c0.028-0.76-0.037-1.691-0.177-2.688c-0.267-1.979-0.767-4.221-0.832-6.17
			c-0.025-1.311,0.073-2.484,0.843-3.556c0.242-0.319,0.568-0.642,1.012-0.906c0.438-0.28,1-0.513,1.622-0.657
			c0.615-0.145,1.273-0.203,1.896-0.172c0.629,0.03,1.2,0.135,1.723,0.274c1.321,0.354,2.369,0.933,3.425,1.599
			c1.054,0.682,2.06,1.473,3.068,2.312c2.006,1.677,4.019,3.528,5.845,4.85c1.155,0.868,2.296,1.474,2.937,1.642
			c0.228,0.062,0.36,0.072,0.419,0.078c0.222-0.078,0.3-0.129,0.388-0.244c0.21-0.277,0.424-0.879,0.458-1.648
			c0.045-0.756-0.02-1.691-0.163-2.684c-0.267-1.981-0.773-4.213-0.837-6.164c-0.02-1.316,0.062-2.498,0.852-3.563
			c0.242-0.319,0.559-0.631,0.995-0.911c0.453-0.275,1-0.514,1.61-0.646c0.626-0.155,1.29-0.2,1.925-0.18
			c0.627,0.033,1.199,0.137,1.725,0.277c1.311,0.364,2.363,0.932,3.424,1.6c1.054,0.679,2.062,1.469,3.068,2.31
			c2.002,1.678,4.016,3.532,5.842,4.851c1.144,0.844,2.257,1.449,2.91,1.625c0.263,0.069,0.389,0.09,0.447,0.092
			c0.235-0.072,0.309-0.141,0.396-0.252c0.225-0.275,0.419-0.877,0.467-1.637c0.051-0.767-0.037-1.697-0.163-2.682
			c-0.278-1.997-0.78-4.227-0.849-6.178c-0.025-1.309,0.08-2.496,0.867-3.561c0.242-0.318,0.562-0.631,0.998-0.911
			c0.453-0.274,0.998-0.513,1.615-0.657c0.618-0.144,1.29-0.199,1.918-0.166C114.676,112.299,115.246,112.402,115.771,112.543z"/>
	</g>
	<g>
		<path fill="#E4D3B5" d="M115.771,134.532c1.317,0.354,2.365,0.931,3.426,1.6c1.051,0.677,2.06,1.47,3.068,2.308
			c2.012,1.668,4.016,3.531,5.842,4.85c1.16,0.859,2.305,1.462,2.945,1.636c0.225,0.06,0.35,0.078,0.418,0.073
			c0.635-0.127,1.202-0.112,1.684,0.018c0.482,0.129,0.88,0.373,1.07,0.696c0.406,0.642-0.154,1.358-1.226,1.618
			c-0.621,0.145-1.29,0.195-1.901,0.172c-0.627-0.031-1.201-0.138-1.74-0.281c-1.301-0.349-2.362-0.931-3.426-1.599
			c-1.033-0.675-2.06-1.47-3.067-2.312c-2.009-1.666-4.017-3.528-5.825-4.844c-1.182-0.863-2.32-1.467-2.965-1.636
			c-0.223-0.062-0.34-0.067-0.416-0.079c-0.21,0.068-0.303,0.133-0.389,0.245c-0.234,0.282-0.42,0.879-0.475,1.644
			c-0.036,0.772,0.036,1.697,0.18,2.689c0.269,1.98,0.766,4.221,0.832,6.173c0.022,1.31-0.072,2.483-0.861,3.55
			c-0.242,0.317-0.568,0.641-0.995,0.91c-0.438,0.278-1,0.514-1.618,0.657s-1.29,0.198-1.917,0.166
			c-0.626-0.028-1.208-0.124-1.733-0.265c-1.289-0.359-2.363-0.931-3.414-1.606c-1.054-0.681-2.06-1.47-3.07-2.312
			c-2.01-1.668-4.016-3.528-5.822-4.847c-1.182-0.862-2.324-1.464-2.965-1.639c-0.225-0.06-0.34-0.063-0.418-0.073
			c-0.211,0.068-0.301,0.13-0.389,0.242c-0.21,0.281-0.418,0.88-0.446,1.641c-0.054,0.768,0.017,1.692,0.16,2.684
			c0.261,1.992,0.767,4.222,0.832,6.175c0.022,1.307-0.064,2.498-0.852,3.563c-0.242,0.319-0.562,0.629-0.998,0.909
			c-0.452,0.275-0.992,0.503-1.607,0.646c-0.627,0.158-1.293,0.203-1.919,0.169c-0.635-0.022-1.208-0.123-1.731-0.265
			c-1.31-0.365-2.366-0.934-3.417-1.609c-1.051-0.676-2.06-1.471-3.068-2.311c-2.012-1.666-4.016-3.531-5.825-4.848
			c-1.18-0.861-2.321-1.464-2.961-1.635c-0.225-0.062-0.346-0.067-0.402-0.07c-0.23,0.064-0.32,0.126-0.405,0.238
			c-0.213,0.275-0.424,0.877-0.45,1.642c-0.053,0.765,0.02,1.688,0.16,2.681c0.261,1.992,0.781,4.227,0.852,6.177
			c0.022,1.31-0.084,2.495-0.871,3.561c-0.245,0.32-0.562,0.632-0.995,0.913c-0.43,0.27-0.992,0.5-1.61,0.646
			c-0.618,0.144-1.29,0.199-1.919,0.168c-0.635-0.022-1.206-0.127-1.731-0.268c-1.293-0.359-2.363-0.93-3.417-1.609
			c-1.051-0.678-2.057-1.467-3.069-2.311c-2.012-1.666-4.015-3.529-5.825-4.844c-1.18-0.866-2.321-1.467-2.962-1.637
			c-0.225-0.062-0.34-0.066-0.402-0.072c-0.644,0.124-1.211,0.111-1.691-0.018c-0.478-0.129-0.871-0.371-1.062-0.696
			c-0.407-0.642,0.141-1.359,1.226-1.615c0.618-0.144,1.275-0.205,1.902-0.172c0.626,0.03,1.197,0.135,1.722,0.274
			c1.321,0.354,2.366,0.932,3.423,1.6c1.054,0.678,2.06,1.47,3.074,2.311c2.001,1.678,4.016,3.532,5.839,4.85
			c1.158,0.869,2.298,1.471,2.939,1.645c0.225,0.061,0.359,0.07,0.416,0.073c0.222-0.078,0.301-0.129,0.388-0.241
			c0.236-0.287,0.422-0.88,0.475-1.646c0.028-0.762-0.037-1.694-0.177-2.687c-0.267-1.981-0.767-4.224-0.832-6.174
			c-0.025-1.308,0.073-2.483,0.843-3.556c0.242-0.319,0.568-0.641,1.012-0.903c0.438-0.281,1-0.515,1.622-0.658
			c0.615-0.146,1.273-0.205,1.896-0.174c0.629,0.033,1.2,0.135,1.723,0.274c1.321,0.354,2.369,0.934,3.425,1.603
			c1.054,0.681,2.06,1.467,3.068,2.31c2.006,1.676,4.019,3.529,5.845,4.852c1.155,0.865,2.296,1.469,2.937,1.641
			c0.228,0.062,0.36,0.073,0.419,0.076c0.222-0.079,0.3-0.133,0.388-0.245c0.21-0.274,0.424-0.876,0.458-1.646
			c0.045-0.76-0.02-1.691-0.163-2.688c-0.267-1.978-0.773-4.209-0.837-6.162c-0.02-1.316,0.062-2.498,0.852-3.564
			c0.242-0.317,0.559-0.631,0.995-0.91c0.453-0.275,1-0.512,1.61-0.646c0.626-0.151,1.29-0.199,1.925-0.18
			c0.627,0.033,1.199,0.139,1.725,0.277c1.311,0.363,2.363,0.934,3.424,1.6c1.054,0.68,2.062,1.471,3.068,2.311
			c2.002,1.678,4.016,3.529,5.842,4.85c1.144,0.844,2.257,1.45,2.91,1.624c0.263,0.067,0.389,0.091,0.447,0.097
			c0.235-0.074,0.309-0.142,0.396-0.257c0.225-0.272,0.419-0.879,0.467-1.635c0.051-0.769-0.037-1.694-0.163-2.685
			c-0.278-1.994-0.78-4.227-0.849-6.177c-0.025-1.31,0.08-2.495,0.867-3.56c0.242-0.317,0.562-0.633,0.998-0.911
			c0.453-0.272,0.998-0.515,1.615-0.657c0.618-0.143,1.29-0.199,1.918-0.166C114.676,134.285,115.246,134.393,115.771,134.532z"/>
	</g>
</g>
<g>
	<g opacity="0.1">
		<g>
			<path d="M119.227,145.434c0.532,0.873,0.961,1.746,1.274,2.612c-0.624-0.19-1.235-0.388-1.849-0.588
				C118.934,146.835,119.118,146.145,119.227,145.434z"/>
		</g>
		<g enable-background="new    ">
			<g>
				<path d="M65.246,100.375c3.76-0.891,7.755-1.225,13.69-0.281c6.277,2.509,10.914,5.803,13.263,9.194
					c-8.919-2.218-15.112-2.458-21.654-0.91c-1.079,0.255-2.259,0.733-3.389,1.349c-2.175-0.666-4.513-1.441-7.036-2.333
					c-1.18-0.418-1.652-0.995-1.528-1.823C58.912,103.503,62.84,100.937,65.246,100.375z"/>
			</g>
			<g>
				<path d="M89.372,100.578c2.838,0.802,5.963,1.79,9.503,3c3.766,1.287,7.307,2.768,10.555,4.387l-2.057,1.23
					c-0.637-0.312-1.287-0.621-1.945-0.924C101.602,105.229,96.088,102.522,89.372,100.578z"/>
			</g>
			<g>
				<path d="M64.245,98.746c7.002-1.658,13.628-1.26,23.57,1.403c0.079,0.021,0.157,0.042,0.236,0.063l-0.275,0.358
					c-1.203-0.48-2.461-0.935-3.776-1.357l-0.602,0.666c-1.028-0.482-2.107-0.944-3.237-1.385l-1.607,1.449
					c0.129,0.049,0.253,0.1,0.382,0.15c-5.935-0.944-9.931-0.609-13.69,0.281c-2.405,0.562-6.333,3.129-6.654,5.196
					c-0.124,0.829,0.348,1.405,1.528,1.823c2.523,0.891,4.861,1.667,7.036,2.333c-0.528,0.287-1.04,0.601-1.523,0.936
					c-0.888-0.112-1.748-0.202-2.591-0.264c-1.411-0.463-2.883-0.964-4.423-1.509c-2.102-0.736-3.125-1.958-2.877-3.444
					C56.141,102.76,60.733,99.578,64.245,98.746z"/>
			</g>
			<g>
				<path d="M80.161,98.495c1.129,0.441,2.208,0.903,3.237,1.385c2.563,1.201,4.805,2.521,6.682,3.913
					c2.76,2.044,4.736,4.25,5.812,6.478c-0.086-0.022-0.17-0.047-0.254-0.07c-0.248-0.07-0.494-0.141-0.748-0.211l-0.539-0.146
					c-0.078-0.02-0.156-0.042-0.235-0.062c-0.652-0.174-1.293-0.34-1.916-0.495c-2.35-3.392-6.986-6.685-13.263-9.194
					c-0.129-0.05-0.253-0.101-0.382-0.15L80.161,98.495z"/>
			</g>
			<g>
				<path d="M92.199,109.288c0.623,0.155,1.264,0.32,1.916,0.495c0.078,0.02,0.156,0.042,0.23,0.062l-0.271,0.359
					c-1.203-0.48-2.468-0.936-3.777-1.357l-0.596,0.655c-1.034-0.486-2.119-0.95-3.254-1.394l-1.596,1.467
					c0.112,0.045,0.23,0.093,0.343,0.138c-5.912-0.941-9.908-0.601-13.64,0.281c-0.82,0.191-1.81,0.611-2.782,1.171
					c-1.084-0.202-2.13-0.371-3.142-0.503c0.483-0.334,0.995-0.649,1.523-0.936c1.13-0.615,2.31-1.093,3.389-1.349
					C77.087,106.829,83.28,107.069,92.199,109.288z"/>
			</g>
			<g>
				<path d="M84,99.214c1.315,0.423,2.574,0.877,3.776,1.357c3.726,1.486,6.924,3.233,9.475,5.124
					c2.911,2.156,4.979,4.5,6.042,6.864c-1.275-0.425-2.495-0.815-3.67-1.178c-1.821-2.709-5.12-5.348-9.543-7.588
					c-1.877-1.393-4.119-2.712-6.682-3.913L84,99.214z"/>
			</g>
			<g>
				<path d="M95.893,110.271c-1.074-2.228-3.053-4.434-5.812-6.478c4.423,2.242,7.722,4.879,9.543,7.588
					C98.324,110.977,97.083,110.607,95.893,110.271z"/>
			</g>
			<g>
				<path d="M103.293,112.559c-1.062-2.363-3.131-4.707-6.042-6.863c4.776,2.418,8.272,5.304,10.015,8.244
					c-0.686-0.252-1.377-0.504-2.078-0.742C104.54,112.977,103.911,112.764,103.293,112.559z"/>
			</g>
			<g>
				<path d="M88.591,100.357c0.264,0.073,0.522,0.146,0.781,0.221c6.716,1.944,12.229,4.65,16.056,7.692
					c2.84,2.251,4.756,4.687,5.553,7.132c-1.207-0.51-2.443-0.998-3.715-1.465c-1.742-2.938-5.236-5.825-10.015-8.243
					c-2.551-1.891-5.749-3.638-9.475-5.124l0.275-0.358L88.591,100.357z"/>
			</g>
			<g>
				<path d="M107.373,109.195c4.17,2.557,6.879,5.398,7.939,8.18c-1.394-0.686-2.838-1.343-4.332-1.973
					c-0.799-2.445-2.715-4.881-5.554-7.132C106.086,108.574,106.736,108.883,107.373,109.195z"/>
			</g>
			<g>
				<path d="M135.736,136.755c0.078,0.315-0.163,0.63-0.557,0.815c-0.434,0.193-1,0.232-1.473,0.105
					c-5.451-1.461-10.104-3.344-14.611-5.156c-3.08-1.235-6.041-2.428-9.184-3.479c-0.528-0.479-1.079-0.95-1.658-1.422l1.838,0.177
					c0.062-0.208,0.112-0.422,0.157-0.632c1.54,0.494,3.022,1.02,4.474,1.562c-0.066,0.42-0.186,0.84-0.349,1.252l2.815,0.356
					c0.072-0.192,0.141-0.392,0.196-0.584c1.118,0.437,2.22,0.879,3.315,1.317c0.371,0.152,0.742,0.301,1.113,0.449
					c-0.125,0.389-0.287,0.772-0.483,1.149l2.72,0.508c0.118-0.213,0.219-0.433,0.314-0.647c1.181,0.461,2.389,0.916,3.619,1.358
					c-0.135,0.394-0.299,0.757-0.5,1.068l2.687,0.603c0.157-0.242,0.292-0.505,0.416-0.777c0.606,0.203,1.22,0.4,1.843,0.589
					c-0.313-0.863-0.74-1.737-1.275-2.61c0.221-1.447,0.125-2.984-0.156-4.221l-2.866,0.268c0.007,0.03,0.017,0.063,0.022,0.096
					c-1.305-1.377-2.844-2.737-4.592-4.063c-1.494-2.506-4.137-4.987-7.822-7.247l-2.068,1.236c-0.63-0.312-1.271-0.618-1.928-0.919
					c-3.833-3.052-9.357-5.767-16.105-7.708c0.084,0.022,0.168,0.047,0.252,0.07c1.191,0.336,2.434,0.706,3.731,1.11
					c1.175,0.362,2.394,0.753,3.67,1.178c0.618,0.204,1.247,0.418,1.894,0.637c0.703,0.24,1.395,0.49,2.08,0.742
					c1.271,0.467,2.506,0.957,3.715,1.465c1.494,0.629,2.938,1.287,4.332,1.973c1.146,0.564,2.261,1.146,3.334,1.738
					c1.201,0.672,2.354,1.357,3.455,2.062c0.967,0.615,1.89,1.245,2.766,1.883c1.67,1.209,3.176,2.447,4.502,3.707
					C132.848,130.066,135.096,133.493,135.736,136.755z"/>
			</g>
			<g>
				<path d="M109.43,107.964c0.033,0.011,0.057,0.022,0.078,0.039c3.659,2.248,6.278,4.722,7.762,7.22
					c0.771,1.297,1.236,2.607,1.377,3.895c-1.072-0.596-2.187-1.178-3.332-1.742c-1.062-2.782-3.771-5.623-7.946-8.177
					L109.43,107.964z"/>
			</g>
			<g>
				<path d="M121.889,119.328c0.125,0.564,0.197,1.197,0.215,1.849c-1.103-0.706-2.254-1.391-3.457-2.062
					c-0.141-1.284-0.606-2.594-1.377-3.893C119.034,116.562,120.58,117.938,121.889,119.328z"/>
			</g>
			<g>
				<path d="M94.902,121.729c4.091,2.508,6.783,5.293,7.879,8.027c-1.389-0.666-2.821-1.307-4.305-1.92
					c-0.82-2.413-2.722-4.812-5.52-7.036C93.621,121.104,94.262,121.413,94.902,121.729z"/>
			</g>
			<g>
				<path d="M86.45,108.107c1.135,0.444,2.22,0.908,3.254,1.394c2.567,1.203,4.812,2.522,6.692,3.917
					c4.43,3.285,6.84,6.982,6.723,10.535c-0.994-0.627-2.028-1.242-3.102-1.844c-1.119-4.448-6.555-9.102-14.821-12.397
					c-0.112-0.045-0.23-0.093-0.343-0.138L86.45,108.107z"/>
			</g>
			<g>
				<path d="M109.913,129.042c3.562,3.215,5.968,6.563,6.866,9.79c-1.303-1.178-2.758-2.338-4.354-3.465
					c0.163-1.357,0.062-2.771-0.202-3.932l-2.85,0.289c0.012,0.037,0.018,0.075,0.027,0.115c-1.31-1.386-2.854-2.757-4.607-4.092
					c-1.495-2.512-4.136-4.99-7.834-7.244l-2.057,1.223c-0.641-0.314-1.281-0.623-1.944-0.927c-3.833-3.043-9.335-5.75-16.057-7.69
					c2.838,0.801,5.963,1.789,9.503,2.998c4.979,1.703,9.577,3.746,13.612,6.002c1.073,0.602,2.107,1.217,3.103,1.844
					c1.028,0.65,2.018,1.316,2.95,1.995c0.461,0.331,0.904,0.666,1.344,1.006c0.285,0.222,0.566,0.444,0.843,0.666
					C108.834,128.092,109.385,128.564,109.913,129.042z"/>
			</g>
			<g>
				<path d="M96.959,120.505c3.698,2.254,6.339,4.731,7.834,7.244c0.742,1.245,1.197,2.498,1.359,3.733
					c-1.084-0.592-2.209-1.168-3.371-1.728c-1.096-2.733-3.788-5.521-7.885-8.028L96.959,120.505z"/>
			</g>
			<g>
				<path d="M74.513,120.783c1.141,0.441,2.231,0.908,3.266,1.394c2.602,1.218,4.867,2.558,6.761,3.974
					c4.889,3.647,7.289,7.799,6.508,11.692c-0.051,0.244-0.106,0.486-0.187,0.728l-2.826-0.295c0.101-0.349,0.174-0.698,0.219-1.057
					c0.607-5.105-5.193-10.925-14.983-14.83c-0.118-0.046-0.23-0.094-0.349-0.139L74.513,120.783z"/>
			</g>
			<g>
				<path d="M73.271,122.389c9.79,3.905,15.59,9.726,14.983,14.834c-3.895-0.812-7.902-1.412-13.949-2.209
					c-2.597-0.347-5.446-0.934-8.683-1.799c-3.271-0.88-6.94-2.043-11.145-3.535c-1.174-0.398-1.641-0.973-1.517-1.801
					c0.332-2.083,4.243-4.634,6.66-5.213C63.369,121.787,67.359,121.449,73.271,122.389z"/>
			</g>
			<g>
				<path d="M103.811,130.268c3.687,2.26,6.334,4.74,7.828,7.25c1.551,2.604,1.859,5.239,0.82,7.695
					c-0.096,0.217-0.197,0.434-0.311,0.646l-2.754-0.515c0.209-0.38,0.365-0.762,0.489-1.149c1.298-4.071-1.657-8.719-8.147-12.689
					L103.811,130.268z"/>
			</g>
			<g>
				<path d="M119.062,141.215c0.285,1.233,0.381,2.771,0.162,4.219c-0.106,0.711-0.293,1.401-0.572,2.024
					c-0.118,0.278-0.266,0.54-0.422,0.787l-2.652-0.606c0.195-0.314,0.359-0.678,0.488-1.07c0.488-1.516,0.479-3.495,0.158-4.99
					c-0.007-0.031-0.013-0.064-0.023-0.096L119.062,141.215z"/>
			</g>
			<g>
				<path d="M82.184,122.458c0.079,0.021,0.157,0.042,0.236,0.062l-0.275,0.36c-1.203-0.483-2.467-0.937-3.777-1.36l-0.59,0.657
					c-1.034-0.485-2.125-0.952-3.266-1.394l-1.59,1.467c0.118,0.045,0.23,0.093,0.349,0.139c-5.912-0.938-9.902-0.602-13.651,0.277
					c-2.417,0.579-6.328,3.13-6.66,5.213c-0.124,0.828,0.343,1.4,1.517,1.801c4.204,1.492,7.874,2.655,11.145,3.535
					c3.237,0.865,6.086,1.452,8.683,1.795c6.047,0.801,10.054,1.399,13.949,2.209c-0.045,0.357-0.118,0.708-0.219,1.057l2.826,0.295
					c0.08-0.24,0.136-0.482,0.187-0.728c1.163,0.275,2.354,0.579,3.632,0.923c0.297,0.077,0.596,0.162,0.893,0.243
					c-0.039,0.401-0.112,0.798-0.229,1.191l2.821,0.272c0.062-0.212,0.111-0.423,0.156-0.633c1.535,0.494,3.023,1.02,4.475,1.561
					c-0.072,0.424-0.186,0.843-0.35,1.256l2.805,0.371c0.079-0.2,0.146-0.405,0.203-0.604c1.123,0.44,2.225,0.886,3.32,1.323
					c0.371,0.148,0.742,0.298,1.112,0.449c-0.124,0.389-0.28,0.771-0.489,1.149l2.754,0.515c0.113-0.215,0.215-0.43,0.311-0.646
					c1.18,0.461,2.377,0.913,3.607,1.354c-0.129,0.395-0.293,0.757-0.488,1.072l2.652,0.605c0.156-0.247,0.304-0.51,0.422-0.787
					c0.611,0.2,1.225,0.396,1.849,0.588c-0.313-0.865-0.742-1.738-1.274-2.613c0.219-1.447,0.123-2.983-0.164-4.218l-2.86,0.267
					c-1.281-1.277-2.82-2.642-4.562-3.965c-1.496-2.509-4.144-4.99-7.83-7.25l-2.067,1.234c-0.642-0.314-1.298-0.627-1.961-0.934
					c-3.896-3.092-9.515-5.83-16.382-7.777c1.203,0.334,2.439,0.693,3.732,1.093c1.174,0.359,2.394,0.744,3.669,1.166
					c0.799,0.263,1.613,0.534,2.457,0.82c0.5,0.172,0.994,0.349,1.489,0.524c1.271,0.459,2.519,0.941,3.731,1.441
					c1.482,0.613,2.916,1.254,4.305,1.92c1.162,0.559,2.287,1.135,3.372,1.729c1.202,0.654,2.36,1.328,3.468,2.018
					c0.973,0.609,1.91,1.232,2.805,1.866c1.596,1.127,3.051,2.286,4.354,3.465c3.85,3.487,6.345,7.134,7.024,10.599
					c0.073,0.312-0.162,0.627-0.572,0.826c-0.416,0.184-0.983,0.221-1.45,0.094c-5.457-1.461-10.121-3.33-14.617-5.154
					c-4.519-1.797-8.733-3.516-13.696-4.844c-6.417-1.721-10.762-2.434-19.833-3.643c-2.793-0.371-5.839-1-9.279-1.922
					c-3.36-0.898-7.104-2.085-11.369-3.594c-2.09-0.748-3.113-1.973-2.9-3.448c0.208-1.329,1.439-2.776,3.046-3.998
					c0.641-0.489,1.343-0.938,2.062-1.335c1.141-0.621,2.332-1.102,3.417-1.36c6.401-1.518,12.499-1.315,21.103,0.772
					C80.521,122.02,81.335,122.23,82.184,122.458z"/>
			</g>
			<g>
				<path d="M52.775,112.904c3.743-0.889,7.722-1.223,13.611-0.293c6.312,2.513,10.976,5.818,13.331,9.215
					c-8.604-2.088-14.702-2.29-21.103-0.771c-1.085,0.258-2.276,0.738-3.417,1.359c-2.321-0.703-4.833-1.529-7.57-2.495
					c-1.158-0.413-1.63-0.985-1.523-1.801C46.441,116.032,50.364,113.466,52.775,112.904z"/>
			</g>
			<g>
				<path d="M68.775,111.165c2.035,0.379,4.209,0.882,6.57,1.515c0.079,0.021,0.152,0.043,0.236,0.065l-0.275,0.356
					c-1.203-0.48-2.467-0.937-3.776-1.357l-0.607,0.669c-1.034-0.483-2.119-0.95-3.254-1.394l-1.596,1.47
					c0.107,0.038,0.213,0.081,0.314,0.124c-5.89-0.93-9.868-0.596-13.611,0.291c-2.411,0.562-6.333,3.128-6.671,5.213
					c-0.107,0.814,0.365,1.388,1.523,1.801c2.737,0.966,5.249,1.792,7.57,2.495c-0.72,0.396-1.422,0.846-2.062,1.335
					c-2.169-0.672-4.49-1.443-6.986-2.33c-2.102-0.736-3.125-1.958-2.911-3.434c0.433-2.694,5.024-5.875,8.525-6.693
					c3.687-0.879,7.267-1.186,11.279-0.894c0.843,0.062,1.703,0.152,2.591,0.264C66.645,110.794,67.69,110.962,68.775,111.165z"/>
			</g>
			<g>
				<path d="M85.196,109.712c8.267,3.296,13.701,7.95,14.82,12.397c-4.035-2.256-8.633-4.299-13.612-6.002
					c-3.541-1.209-6.666-2.197-9.503-2.998c-0.258-0.076-0.517-0.149-0.781-0.223l-0.54-0.146c-0.084-0.021-0.157-0.042-0.236-0.062
					c-2.36-0.633-4.535-1.136-6.57-1.516c0.972-0.559,1.961-0.98,2.782-1.171C75.289,109.111,79.284,108.771,85.196,109.712z"/>
			</g>
			<g>
				<path d="M71.529,111.744c1.31,0.421,2.574,0.876,3.776,1.357c3.737,1.494,6.952,3.248,9.509,5.153
					c2.877,2.136,4.929,4.457,5.985,6.794c-1.275-0.422-2.495-0.807-3.669-1.166c-1.827-2.703-5.12-5.331-9.532-7.566
					c-1.877-1.389-4.119-2.703-6.676-3.903L71.529,111.744z"/>
			</g>
			<g>
				<path d="M83.415,122.792c-1.074-2.228-3.058-4.431-5.817-6.478c4.412,2.237,7.705,4.865,9.532,7.567
					C85.837,123.482,84.601,123.124,83.415,122.792z"/>
			</g>
			<g>
				<path d="M82.959,122.666c0.146,0.039,0.292,0.081,0.438,0.124c6.868,1.946,12.488,4.687,16.382,7.776
					c4.67,3.709,6.845,7.92,5.671,11.855c-0.058,0.199-0.124,0.404-0.203,0.604l-2.804-0.371c0.162-0.412,0.274-0.831,0.349-1.256
					c0.758-4.534-3.592-9.557-11.173-13.396c-2.552-1.894-5.75-3.639-9.475-5.125l0.275-0.36L82.959,122.666z"/>
			</g>
			<g>
				<path d="M67.668,111.02c1.135,0.443,2.22,0.91,3.254,1.394c2.557,1.2,4.799,2.515,6.676,3.903
					c2.759,2.045,4.743,4.248,5.817,6.477c-0.163-0.045-0.309-0.087-0.456-0.126l-0.54-0.146c-0.079-0.021-0.157-0.043-0.236-0.062
					c-0.849-0.229-1.664-0.438-2.467-0.632c-2.354-3.397-7.019-6.702-13.331-9.214c-0.101-0.043-0.208-0.084-0.314-0.125
					L67.668,111.02z"/>
			</g>
			<g>
				<path d="M124.699,118.906c0.27,1.222,0.371,2.726,0.168,4.152c-0.876-0.638-1.799-1.268-2.766-1.883
					c-0.021-0.652-0.09-1.283-0.213-1.849c-0.006-0.05-0.018-0.099-0.027-0.146L124.699,118.906z"/>
			</g>
			<g>
				<path d="M90.799,125.049c-1.056-2.338-3.107-4.658-5.985-6.794c4.721,2.388,8.177,5.238,9.931,8.14
					c-0.495-0.18-0.989-0.354-1.489-0.524C92.412,125.583,91.598,125.311,90.799,125.049z"/>
			</g>
			<g>
				<path d="M96.396,113.418c7.295,3.709,11.521,8.508,11.104,12.917c-0.298-0.084-0.597-0.166-0.894-0.247
					c-0.18-0.048-0.359-0.096-0.539-0.141c-0.935-0.678-1.924-1.344-2.951-1.995C103.236,120.4,100.825,116.703,96.396,113.418z"/>
			</g>
			<g>
				<path d="M106.607,126.089c0.299,0.081,0.597,0.163,0.895,0.247c-0.018,0.205-0.051,0.413-0.09,0.618
					c-0.438-0.34-0.883-0.675-1.344-1.006C106.249,125.993,106.43,126.041,106.607,126.089z"/>
			</g>
			<g>
				<path d="M109.508,108.003c10.836,5.412,18.361,12.364,19.861,18.763c-1.326-1.26-2.832-2.498-4.502-3.707
					c0.203-1.428,0.102-2.931-0.168-4.152l-2.838,0.275c0.011,0.047,0.021,0.096,0.027,0.146c-1.31-1.392-2.854-2.765-4.619-4.104
					C115.786,112.725,113.167,110.251,109.508,108.003z"/>
			</g>
			<g>
				<path d="M76.12,112.887c0.264,0.073,0.523,0.146,0.781,0.223c6.722,1.94,12.224,4.646,16.057,7.69
					c2.798,2.222,4.698,4.623,5.519,7.036c-1.213-0.5-2.461-0.982-3.73-1.441c-1.754-2.901-5.21-5.752-9.931-8.14
					c-2.557-1.905-5.772-3.659-9.509-5.153l0.275-0.356L76.12,112.887z"/>
			</g>
			<g>
				<path d="M103.54,115.32c7.599,3.839,11.953,8.861,11.185,13.408c-1.451-0.543-2.935-1.068-4.475-1.562
					C111.048,123.232,108.514,119.004,103.54,115.32z"/>
			</g>
			<g>
				<path d="M90.299,108.847c1.309,0.421,2.574,0.876,3.777,1.357c3.715,1.483,6.912,3.229,9.464,5.116
					c4.974,3.685,7.508,7.914,6.71,11.845c-0.045,0.21-0.096,0.424-0.157,0.632l-1.838-0.177c-0.274-0.226-0.557-0.444-0.843-0.666
					c0.039-0.205,0.072-0.413,0.09-0.618c0.416-4.409-3.811-9.208-11.105-12.917c-1.881-1.394-4.125-2.714-6.692-3.917
					L90.299,108.847z"/>
			</g>
			<g>
				<path d="M94.891,109.99c0.254,0.07,0.5,0.141,0.748,0.211c6.75,1.941,12.273,4.656,16.106,7.708
					c4.659,3.709,6.821,7.916,5.644,11.844c-0.058,0.192-0.125,0.392-0.197,0.584l-2.815-0.356c0.163-0.412,0.274-0.832,0.349-1.252
					c0.766-4.547-3.586-9.568-11.184-13.408c-2.553-1.887-5.749-3.633-9.464-5.116l0.274-0.359L94.891,109.99z"/>
			</g>
			<g>
				<path d="M113.673,118.828c6.496,3.962,9.44,8.621,8.144,12.693c-0.371-0.149-0.741-0.299-1.112-0.451
					c-1.097-0.438-2.197-0.881-3.315-1.316c1.18-3.929-0.982-8.135-5.643-11.844C112.402,118.209,113.043,118.516,113.673,118.828z"
					/>
			</g>
			<g>
				<path d="M115.741,117.591c3.687,2.259,6.327,4.741,7.821,7.247c1.553,2.605,1.854,5.241,0.805,7.691
					c-0.096,0.216-0.196,0.436-0.314,0.647l-2.72-0.508c0.196-0.377,0.358-0.762,0.483-1.149c1.297-4.071-1.647-8.729-8.149-12.689
					L115.741,117.591z"/>
			</g>
			<g>
				<path d="M109.4,131.841c0.113,0.509,0.191,1.076,0.221,1.66c-1.107-0.688-2.266-1.362-3.469-2.019
					c-0.162-1.235-0.617-2.488-1.359-3.733C106.547,129.084,108.092,130.455,109.4,131.841z"/>
			</g>
			<g>
				<path d="M123.562,124.838c1.748,1.326,3.289,2.688,4.592,4.062c0.326,1.498,0.332,3.477-0.168,4.988
					c-1.23-0.443-2.438-0.898-3.619-1.359C125.418,130.079,125.115,127.443,123.562,124.838z"/>
			</g>
			<g>
				<path d="M112.223,131.436c0.266,1.162,0.365,2.574,0.202,3.933c-0.894-0.634-1.832-1.257-2.804-1.866
					c-0.028-0.584-0.107-1.15-0.221-1.66c-0.01-0.04-0.017-0.078-0.027-0.115L112.223,131.436z"/>
			</g>
			<g>
				<path d="M131.156,132.76c0.533,0.873,0.961,1.747,1.275,2.61c-0.623-0.188-1.236-0.386-1.844-0.588
					C130.863,134.161,131.05,133.471,131.156,132.76z"/>
			</g>
			<g>
				<path d="M130.999,128.539c0.28,1.236,0.377,2.773,0.157,4.221c-0.106,0.711-0.293,1.401-0.567,2.022
					c-0.124,0.274-0.259,0.534-0.416,0.776l-2.687-0.603c0.201-0.312,0.365-0.675,0.5-1.067c0.5-1.513,0.494-3.49,0.168-4.988
					c-0.006-0.03-0.016-0.063-0.021-0.096L130.999,128.539z"/>
			</g>
			<g>
				<path d="M84.539,126.15c7.25,3.697,11.447,8.469,11.031,12.857c-0.297-0.081-0.596-0.166-0.894-0.244
					c-1.276-0.343-2.468-0.646-3.631-0.922C91.828,133.948,89.428,129.798,84.539,126.15z"/>
			</g>
			<g>
				<path d="M78.368,121.52c1.31,0.424,2.574,0.877,3.777,1.36c3.726,1.486,6.923,3.231,9.475,5.125
					c4.968,3.681,7.491,7.907,6.698,11.836c-0.045,0.21-0.096,0.421-0.156,0.632l-2.821-0.271c0.117-0.395,0.19-0.79,0.229-1.191
					c0.416-4.39-3.781-9.16-11.031-12.857c-1.894-1.416-4.159-2.758-6.761-3.975L78.368,121.52z"/>
			</g>
			<g>
				<path d="M91.62,128.005c7.581,3.839,11.931,8.86,11.173,13.396c-1.45-0.539-2.939-1.064-4.475-1.56
					C99.111,135.912,96.588,131.686,91.62,128.005z"/>
			</g>
			<g>
				<path d="M101.741,131.501c6.485,3.976,9.44,8.623,8.144,12.694c-0.371-0.151-0.742-0.301-1.111-0.449
					c-1.098-0.438-2.198-0.882-3.321-1.323c1.174-3.937-1.001-8.146-5.671-11.854C100.443,130.874,101.102,131.186,101.741,131.501z
					"/>
			</g>
		</g>
		<g>
			<path d="M111.639,137.518c1.742,1.322,3.281,2.687,4.586,4.061c0.32,1.495,0.332,3.477-0.158,4.99
				c-1.229-0.441-2.428-0.895-3.606-1.354C113.498,142.757,113.189,140.121,111.639,137.518z"/>
		</g>
	</g>
	<g>
		<g>
			<path fill="#F6E9CF" d="M119.227,142.555c0.532,0.875,0.961,1.748,1.274,2.613c-0.624-0.189-1.235-0.389-1.849-0.587
				C118.934,143.957,119.118,143.266,119.227,142.555z"/>
		</g>
		<g enable-background="new    ">
			<g>
				<path fill="#F6E9CF" d="M65.246,97.497c3.76-0.891,7.755-1.225,13.69-0.281c6.277,2.51,10.914,5.803,13.263,9.194
					c-8.919-2.218-15.112-2.458-21.654-0.91c-1.079,0.255-2.259,0.733-3.389,1.349c-2.175-0.666-4.513-1.441-7.036-2.332
					c-1.18-0.419-1.652-0.995-1.528-1.824C58.912,100.626,62.84,98.059,65.246,97.497z"/>
			</g>
			<g>
				<path fill="#EFD190" d="M89.372,97.701c2.838,0.802,5.963,1.79,9.503,3c3.766,1.287,7.307,2.768,10.555,4.387l-2.057,1.23
					c-0.637-0.312-1.287-0.621-1.945-0.924C101.602,102.351,96.088,99.646,89.372,97.701z"/>
			</g>
			<g>
				<path fill="#EFD190" d="M64.245,95.869c7.002-1.658,13.628-1.26,23.57,1.404c0.079,0.021,0.157,0.042,0.236,0.063l-0.275,0.358
					c-1.203-0.48-2.461-0.935-3.776-1.357l-0.602,0.666c-1.028-0.482-2.107-0.944-3.237-1.385l-1.607,1.449
					c0.129,0.049,0.253,0.1,0.382,0.15c-5.935-0.944-9.931-0.609-13.69,0.281c-2.405,0.562-6.333,3.129-6.654,5.196
					c-0.124,0.829,0.348,1.405,1.528,1.824c2.523,0.891,4.861,1.666,7.036,2.332c-0.528,0.287-1.04,0.602-1.523,0.936
					c-0.888-0.112-1.748-0.202-2.591-0.264c-1.411-0.463-2.883-0.963-4.423-1.509c-2.102-0.736-3.125-1.958-2.877-3.444
					C56.141,99.883,60.733,96.7,64.245,95.869z"/>
			</g>
			<g>
				<path fill="#EFD190" d="M80.161,95.617c1.129,0.441,2.208,0.903,3.237,1.385c2.563,1.201,4.805,2.521,6.682,3.913
					c2.76,2.044,4.736,4.25,5.812,6.478c-0.086-0.022-0.17-0.047-0.254-0.07c-0.248-0.07-0.494-0.141-0.748-0.211l-0.539-0.146
					c-0.078-0.02-0.156-0.042-0.235-0.062c-0.652-0.174-1.293-0.34-1.916-0.495c-2.35-3.392-6.986-6.685-13.263-9.194
					c-0.129-0.05-0.253-0.101-0.382-0.15L80.161,95.617z"/>
			</g>
			<g>
				<path fill="#EFD190" d="M92.199,106.41c0.623,0.155,1.264,0.32,1.916,0.495c0.078,0.02,0.156,0.042,0.23,0.062l-0.271,0.359
					c-1.203-0.48-2.468-0.936-3.777-1.357l-0.596,0.655c-1.034-0.486-2.119-0.95-3.254-1.394l-1.596,1.467
					c0.112,0.045,0.23,0.093,0.343,0.138c-5.912-0.941-9.908-0.601-13.64,0.281c-0.82,0.191-1.81,0.612-2.782,1.171
					c-1.084-0.202-2.13-0.371-3.142-0.503c0.483-0.334,0.995-0.649,1.523-0.936c1.13-0.615,2.31-1.093,3.389-1.349
					C77.087,103.952,83.28,104.192,92.199,106.41z"/>
			</g>
			<g>
				<path fill="#EFD190" d="M84,96.336c1.315,0.423,2.574,0.877,3.776,1.357c3.726,1.486,6.924,3.233,9.475,5.124
					c2.911,2.157,4.979,4.5,6.042,6.863c-1.275-0.424-2.495-0.815-3.67-1.177c-1.821-2.709-5.12-5.348-9.543-7.588
					c-1.877-1.393-4.119-2.712-6.682-3.913L84,96.336z"/>
			</g>
			<g>
				<path fill="#F6E9CF" d="M95.893,107.394c-1.074-2.228-3.053-4.434-5.812-6.478c4.423,2.242,7.722,4.879,9.543,7.588
					C98.324,108.099,97.083,107.731,95.893,107.394z"/>
			</g>
			<g>
				<path fill="#F6E9CF" d="M103.293,109.681c-1.062-2.363-3.131-4.707-6.042-6.863c4.776,2.418,8.272,5.304,10.015,8.243
					c-0.686-0.252-1.377-0.502-2.078-0.742C104.54,110.1,103.911,109.886,103.293,109.681z"/>
			</g>
			<g>
				<path fill="#EFD190" d="M88.591,97.48c0.264,0.073,0.522,0.146,0.781,0.221c6.716,1.945,12.229,4.65,16.056,7.692
					c2.84,2.251,4.756,4.687,5.553,7.132c-1.207-0.51-2.443-0.998-3.715-1.465c-1.742-2.938-5.236-5.825-10.015-8.243
					c-2.551-1.891-5.749-3.638-9.475-5.124l0.275-0.358L88.591,97.48z"/>
			</g>
			<g>
				<path fill="#F6E9CF" d="M107.373,106.317c4.17,2.557,6.879,5.398,7.939,8.18c-1.394-0.687-2.838-1.343-4.332-1.974
					c-0.799-2.444-2.715-4.88-5.554-7.131C106.086,105.696,106.736,106.006,107.373,106.317z"/>
			</g>
			<g>
				<path fill="#EFD190" d="M135.736,133.878c0.078,0.313-0.163,0.629-0.557,0.813c-0.434,0.194-1,0.233-1.473,0.107
					c-5.451-1.462-10.104-3.345-14.611-5.156c-3.08-1.236-6.041-2.429-9.184-3.479c-0.528-0.479-1.079-0.949-1.658-1.422
					l1.838,0.178c0.062-0.208,0.112-0.422,0.157-0.633c1.54,0.495,3.022,1.021,4.474,1.562c-0.066,0.422-0.186,0.84-0.349,1.252
					l2.815,0.357c0.072-0.193,0.141-0.391,0.196-0.585c1.118,0.437,2.22,0.88,3.315,1.317c0.371,0.151,0.742,0.302,1.113,0.449
					c-0.125,0.389-0.287,0.773-0.483,1.149l2.72,0.509c0.118-0.214,0.219-0.433,0.314-0.648c1.181,0.461,2.389,0.916,3.619,1.359
					c-0.135,0.395-0.299,0.756-0.5,1.067l2.687,0.603c0.157-0.242,0.292-0.504,0.416-0.775c0.606,0.201,1.22,0.397,1.843,0.587
					c-0.313-0.862-0.74-1.736-1.275-2.61c0.221-1.447,0.125-2.984-0.156-4.221l-2.866,0.268c0.007,0.03,0.017,0.064,0.022,0.096
					c-1.305-1.377-2.844-2.736-4.592-4.063c-1.494-2.506-4.137-4.987-7.822-7.247l-2.068,1.236c-0.63-0.312-1.271-0.618-1.928-0.92
					c-3.833-3.051-9.357-5.765-16.105-7.708c0.084,0.022,0.168,0.047,0.252,0.07c1.191,0.337,2.434,0.706,3.731,1.11
					c1.175,0.362,2.394,0.753,3.67,1.177c0.618,0.205,1.247,0.418,1.894,0.638c0.703,0.24,1.395,0.49,2.08,0.742
					c1.271,0.467,2.506,0.957,3.715,1.465c1.494,0.629,2.938,1.287,4.332,1.973c1.146,0.564,2.261,1.146,3.334,1.738
					c1.201,0.672,2.354,1.357,3.455,2.062c0.967,0.615,1.89,1.245,2.766,1.883c1.67,1.209,3.176,2.448,4.502,3.707
					C132.848,127.189,135.096,130.615,135.736,133.878z"/>
			</g>
			<g>
				<path fill="#EFD190" d="M109.43,105.087c0.033,0.011,0.057,0.022,0.078,0.039c3.659,2.248,6.278,4.721,7.762,7.22
					c0.771,1.297,1.236,2.607,1.377,3.895c-1.072-0.596-2.187-1.178-3.332-1.742c-1.062-2.782-3.771-5.623-7.946-8.177
					L109.43,105.087z"/>
			</g>
			<g>
				<path fill="#F6E9CF" d="M121.889,116.45c0.125,0.565,0.197,1.196,0.215,1.849c-1.103-0.706-2.254-1.391-3.457-2.062
					c-0.141-1.283-0.606-2.594-1.377-3.891C119.034,113.686,120.58,115.061,121.889,116.45z"/>
			</g>
			<g>
				<path fill="#F6E9CF" d="M94.902,118.85c4.091,2.51,6.783,5.293,7.879,8.028c-1.389-0.666-2.821-1.308-4.305-1.919
					c-0.82-2.414-2.722-4.812-5.52-7.036C93.621,118.227,94.262,118.535,94.902,118.85z"/>
			</g>
			<g>
				<path fill="#EFD190" d="M86.45,105.23c1.135,0.444,2.22,0.908,3.254,1.394c2.567,1.203,4.812,2.523,6.692,3.917
					c4.43,3.285,6.84,6.982,6.723,10.535c-0.994-0.627-2.028-1.242-3.102-1.844c-1.119-4.447-6.555-9.102-14.821-12.397
					c-0.112-0.045-0.23-0.093-0.343-0.138L86.45,105.23z"/>
			</g>
			<g>
				<path fill="#EFD190" d="M109.913,126.164c3.562,3.215,5.968,6.564,6.866,9.79c-1.303-1.177-2.758-2.338-4.354-3.465
					c0.163-1.356,0.062-2.771-0.202-3.931l-2.85,0.289c0.012,0.036,0.018,0.075,0.027,0.114c-1.31-1.385-2.854-2.756-4.607-4.091
					c-1.495-2.514-4.136-4.991-7.834-7.244l-2.057,1.223c-0.641-0.315-1.281-0.625-1.944-0.928
					c-3.833-3.043-9.335-5.75-16.057-7.691c2.838,0.801,5.963,1.791,9.503,2.998c4.979,1.703,9.577,3.746,13.612,6.002
					c1.073,0.602,2.107,1.217,3.103,1.844c1.028,0.652,2.018,1.318,2.95,1.994c0.461,0.332,0.904,0.666,1.344,1.007
					c0.285,0.223,0.566,0.444,0.843,0.666C108.834,125.215,109.385,125.688,109.913,126.164z"/>
			</g>
			<g>
				<path fill="#EFD190" d="M96.959,117.628c3.698,2.253,6.339,4.731,7.834,7.244c0.742,1.244,1.197,2.498,1.359,3.733
					c-1.084-0.592-2.209-1.168-3.371-1.729c-1.096-2.734-3.788-5.52-7.885-8.027L96.959,117.628z"/>
			</g>
			<g>
				<path fill="#EFD190" d="M74.513,117.906c1.141,0.441,2.231,0.908,3.266,1.394c2.602,1.218,4.867,2.558,6.761,3.974
					c4.889,3.646,7.289,7.797,6.508,11.691c-0.051,0.245-0.106,0.486-0.187,0.729l-2.826-0.295c0.101-0.349,0.174-0.699,0.219-1.057
					c0.607-5.105-5.193-10.926-14.983-14.832c-0.118-0.045-0.23-0.093-0.349-0.138L74.513,117.906z"/>
			</g>
			<g>
				<path fill="#F6E9CF" d="M73.271,119.51c9.79,3.906,15.59,9.725,14.983,14.833c-3.895-0.812-7.902-1.409-13.949-2.208
					c-2.597-0.346-5.446-0.933-8.683-1.799c-3.271-0.879-6.94-2.043-11.145-3.534c-1.174-0.399-1.641-0.973-1.517-1.802
					c0.332-2.082,4.243-4.634,6.66-5.212C63.369,118.909,67.359,118.572,73.271,119.51z"/>
			</g>
			<g>
				<path fill="#EFD190" d="M103.811,127.391c3.687,2.258,6.334,4.739,7.828,7.25c1.551,2.604,1.859,5.239,0.82,7.695
					c-0.096,0.216-0.197,0.434-0.311,0.646l-2.754-0.516c0.209-0.379,0.365-0.762,0.489-1.148c1.298-4.071-1.657-8.719-8.147-12.689
					L103.811,127.391z"/>
			</g>
			<g>
				<path fill="#EFD190" d="M119.062,138.337c0.285,1.233,0.381,2.771,0.162,4.218c-0.106,0.711-0.293,1.402-0.572,2.026
					c-0.118,0.278-0.266,0.539-0.422,0.787l-2.652-0.607c0.195-0.313,0.359-0.677,0.488-1.069c0.488-1.516,0.479-3.496,0.158-4.991
					c-0.007-0.03-0.013-0.064-0.023-0.095L119.062,138.337z"/>
			</g>
			<g>
				<path fill="#EFD190" d="M82.184,119.581c0.079,0.021,0.157,0.042,0.236,0.062l-0.275,0.359
					c-1.203-0.482-2.467-0.936-3.777-1.359l-0.59,0.657c-1.034-0.485-2.125-0.952-3.266-1.394l-1.59,1.467
					c0.118,0.045,0.23,0.093,0.349,0.138c-5.912-0.938-9.902-0.601-13.651,0.278c-2.417,0.579-6.328,3.13-6.66,5.212
					c-0.124,0.829,0.343,1.401,1.517,1.802c4.204,1.491,7.874,2.655,11.145,3.534c3.237,0.866,6.086,1.453,8.683,1.796
					c6.047,0.801,10.054,1.399,13.949,2.209c-0.045,0.356-0.118,0.708-0.219,1.057l2.826,0.295c0.08-0.241,0.136-0.482,0.187-0.729
					c1.163,0.275,2.354,0.579,3.632,0.922c0.297,0.079,0.596,0.163,0.893,0.245c-0.039,0.401-0.112,0.798-0.229,1.191l2.821,0.272
					c0.062-0.212,0.111-0.423,0.156-0.634c1.535,0.495,3.023,1.021,4.475,1.56c-0.072,0.426-0.186,0.844-0.35,1.256l2.805,0.371
					c0.079-0.198,0.146-0.403,0.203-0.604c1.123,0.439,2.225,0.885,3.32,1.323c0.371,0.147,0.742,0.298,1.112,0.448
					c-0.124,0.389-0.28,0.771-0.489,1.149l2.754,0.515c0.113-0.213,0.215-0.431,0.311-0.646c1.18,0.461,2.377,0.913,3.607,1.354
					c-0.129,0.394-0.293,0.756-0.488,1.069l2.652,0.607c0.156-0.248,0.304-0.509,0.422-0.787c0.611,0.198,1.225,0.396,1.849,0.587
					c-0.313-0.865-0.742-1.739-1.274-2.613c0.219-1.447,0.123-2.984-0.164-4.218l-2.86,0.269c-1.281-1.279-2.82-2.643-4.562-3.965
					c-1.496-2.511-4.144-4.992-7.83-7.25l-2.067,1.232c-0.642-0.314-1.298-0.627-1.961-0.934c-3.896-3.09-9.515-5.83-16.382-7.777
					c1.203,0.334,2.439,0.693,3.732,1.093c1.174,0.358,2.394,0.745,3.669,1.167c0.799,0.262,1.613,0.533,2.457,0.82
					c0.5,0.171,0.994,0.349,1.489,0.525c1.271,0.457,2.519,0.94,3.731,1.44c1.482,0.612,2.916,1.253,4.305,1.919
					c1.162,0.561,2.287,1.137,3.372,1.729c1.202,0.654,2.36,1.33,3.468,2.019c0.973,0.608,1.91,1.233,2.805,1.864
					c1.596,1.128,3.051,2.289,4.354,3.466c3.85,3.487,6.345,7.135,7.024,10.6c0.073,0.312-0.162,0.626-0.572,0.826
					c-0.416,0.183-0.983,0.22-1.45,0.093c-5.457-1.461-10.121-3.33-14.617-5.152c-4.519-1.799-8.733-3.517-13.696-4.846
					c-6.417-1.72-10.762-2.434-19.833-3.642c-2.793-0.371-5.839-1.001-9.279-1.922c-3.36-0.899-7.104-2.085-11.369-3.595
					c-2.09-0.748-3.113-1.974-2.9-3.447c0.208-1.329,1.439-2.776,3.046-3.999c0.641-0.489,1.343-0.938,2.062-1.335
					c1.141-0.621,2.332-1.102,3.417-1.36c6.401-1.518,12.499-1.315,21.103,0.772C80.521,119.143,81.335,119.354,82.184,119.581z"/>
			</g>
			<g>
				<path fill="#F6E9CF" d="M52.775,110.027c3.743-0.888,7.722-1.223,13.611-0.292c6.312,2.512,10.976,5.817,13.331,9.214
					c-8.604-2.088-14.702-2.29-21.103-0.772c-1.085,0.259-2.276,0.739-3.417,1.36c-2.321-0.703-4.833-1.529-7.57-2.495
					c-1.158-0.413-1.63-0.985-1.523-1.801C46.441,113.154,50.364,110.589,52.775,110.027z"/>
			</g>
			<g>
				<path fill="#EFD190" d="M68.775,108.287c2.035,0.379,4.209,0.883,6.57,1.515c0.079,0.02,0.152,0.042,0.236,0.065l-0.275,0.357
					c-1.203-0.481-2.467-0.936-3.776-1.357l-0.607,0.669c-1.034-0.483-2.119-0.95-3.254-1.394l-1.596,1.47
					c0.107,0.04,0.213,0.082,0.314,0.124c-5.89-0.93-9.868-0.596-13.611,0.292c-2.411,0.562-6.333,3.126-6.671,5.212
					c-0.107,0.814,0.365,1.388,1.523,1.801c2.737,0.966,5.249,1.792,7.57,2.495c-0.72,0.396-1.422,0.846-2.062,1.335
					c-2.169-0.672-4.49-1.444-6.986-2.33c-2.102-0.736-3.125-1.958-2.911-3.434c0.433-2.694,5.024-5.875,8.525-6.693
					c3.687-0.879,7.267-1.186,11.279-0.894c0.843,0.062,1.703,0.152,2.591,0.264C66.645,107.917,67.69,108.085,68.775,108.287z"/>
			</g>
			<g>
				<path fill="#F6E9CF" d="M85.196,106.834c8.267,3.296,13.701,7.95,14.82,12.398c-4.035-2.258-8.633-4.299-13.612-6.002
					c-3.541-1.209-6.666-2.197-9.503-2.999c-0.258-0.076-0.517-0.149-0.781-0.222l-0.54-0.146c-0.084-0.021-0.157-0.042-0.236-0.062
					c-2.36-0.632-4.535-1.135-6.57-1.515c0.972-0.559,1.961-0.98,2.782-1.171C75.289,106.233,79.284,105.893,85.196,106.834z"/>
			</g>
			<g>
				<path fill="#EFD190" d="M71.529,108.866c1.31,0.421,2.574,0.876,3.776,1.357c3.737,1.495,6.952,3.248,9.509,5.153
					c2.877,2.136,4.929,4.457,5.985,6.795c-1.275-0.422-2.495-0.807-3.669-1.167c-1.827-2.703-5.12-5.331-9.532-7.566
					c-1.877-1.389-4.119-2.703-6.676-3.903L71.529,108.866z"/>
			</g>
			<g>
				<path fill="#F6E9CF" d="M83.415,119.915c-1.074-2.229-3.058-4.431-5.817-6.478c4.412,2.237,7.705,4.864,9.532,7.567
					C85.837,120.605,84.601,120.247,83.415,119.915z"/>
			</g>
			<g>
				<path fill="#EFD190" d="M82.959,119.789c0.146,0.04,0.292,0.082,0.438,0.124c6.868,1.946,12.488,4.688,16.382,7.778
					c4.67,3.709,6.845,7.918,5.671,11.854c-0.058,0.199-0.124,0.404-0.203,0.604l-2.804-0.371c0.162-0.413,0.274-0.831,0.349-1.256
					c0.758-4.535-3.592-9.558-11.173-13.396c-2.552-1.896-5.75-3.639-9.475-5.126l0.275-0.359L82.959,119.789z"/>
			</g>
			<g>
				<path fill="#EFD190" d="M67.668,108.141c1.135,0.444,2.22,0.911,3.254,1.394c2.557,1.199,4.799,2.515,6.676,3.902
					c2.759,2.047,4.743,4.25,5.817,6.478c-0.163-0.045-0.309-0.087-0.456-0.126l-0.54-0.146c-0.079-0.02-0.157-0.041-0.236-0.062
					c-0.849-0.228-1.664-0.438-2.467-0.632c-2.354-3.397-7.019-6.702-13.331-9.214c-0.101-0.042-0.208-0.084-0.314-0.124
					L67.668,108.141z"/>
			</g>
			<g>
				<path fill="#EFD190" d="M124.699,116.029c0.27,1.222,0.371,2.726,0.168,4.152c-0.876-0.638-1.799-1.268-2.766-1.883
					c-0.021-0.652-0.09-1.283-0.213-1.849c-0.006-0.05-0.018-0.099-0.027-0.146L124.699,116.029z"/>
			</g>
			<g>
				<path fill="#F6E9CF" d="M90.799,122.172c-1.056-2.338-3.107-4.658-5.985-6.795c4.721,2.389,8.177,5.238,9.931,8.141
					c-0.495-0.18-0.989-0.354-1.489-0.524C92.412,122.705,91.598,122.434,90.799,122.172z"/>
			</g>
			<g>
				<path fill="#F6E9CF" d="M96.396,110.541c7.295,3.709,11.521,8.508,11.104,12.917c-0.298-0.084-0.597-0.165-0.894-0.247
					c-0.18-0.048-0.359-0.096-0.539-0.141c-0.935-0.678-1.924-1.344-2.951-1.995C103.236,117.523,100.825,113.826,96.396,110.541z"
					/>
			</g>
			<g>
				<path fill="#EFD190" d="M106.607,123.211c0.299,0.082,0.597,0.163,0.895,0.247c-0.018,0.205-0.051,0.413-0.09,0.618
					c-0.438-0.34-0.883-0.674-1.344-1.006C106.249,123.115,106.43,123.163,106.607,123.211z"/>
			</g>
			<g>
				<path fill="#EFD190" d="M109.508,105.126c10.836,5.412,18.361,12.364,19.861,18.763c-1.326-1.259-2.832-2.498-4.502-3.707
					c0.203-1.428,0.102-2.931-0.168-4.152l-2.838,0.275c0.011,0.047,0.021,0.096,0.027,0.146c-1.31-1.392-2.854-2.765-4.619-4.104
					C115.786,109.847,113.167,107.374,109.508,105.126z"/>
			</g>
			<g>
				<path fill="#EFD190" d="M76.12,110.01c0.264,0.073,0.523,0.146,0.781,0.222c6.722,1.941,12.224,4.647,16.057,7.691
					c2.798,2.224,4.698,4.622,5.519,7.036c-1.213-0.5-2.461-0.982-3.73-1.441c-1.754-2.902-5.21-5.752-9.931-8.141
					c-2.557-1.904-5.772-3.659-9.509-5.153l0.275-0.357L76.12,110.01z"/>
			</g>
			<g>
				<path fill="#F6E9CF" d="M103.54,112.443c7.599,3.838,11.953,8.859,11.185,13.406c-1.451-0.543-2.935-1.067-4.475-1.562
					C111.048,120.355,108.514,116.127,103.54,112.443z"/>
			</g>
			<g>
				<path fill="#EFD190" d="M90.299,105.969c1.309,0.421,2.574,0.876,3.777,1.357c3.715,1.484,6.912,3.229,9.464,5.117
					c4.974,3.684,7.508,7.912,6.71,11.844c-0.045,0.211-0.096,0.425-0.157,0.633l-1.838-0.178c-0.274-0.225-0.557-0.443-0.843-0.666
					c0.039-0.205,0.072-0.413,0.09-0.618c0.416-4.409-3.811-9.208-11.105-12.917c-1.881-1.394-4.125-2.714-6.692-3.917
					L90.299,105.969z"/>
			</g>
			<g>
				<path fill="#EFD190" d="M94.891,107.113c0.254,0.07,0.5,0.141,0.748,0.211c6.75,1.941,12.273,4.656,16.106,7.708
					c4.659,3.709,6.821,7.916,5.644,11.844c-0.058,0.194-0.125,0.392-0.197,0.585l-2.815-0.357c0.163-0.412,0.274-0.83,0.349-1.252
					c0.766-4.547-3.586-9.568-11.184-13.406c-2.553-1.889-5.749-3.633-9.464-5.117l0.274-0.359L94.891,107.113z"/>
			</g>
			<g>
				<path fill="#F6E9CF" d="M113.673,115.95c6.496,3.962,9.44,8.62,8.144,12.692c-0.371-0.148-0.741-0.299-1.112-0.449
					c-1.097-0.438-2.197-0.883-3.315-1.318c1.18-3.928-0.982-8.135-5.643-11.844C112.402,115.332,113.043,115.639,113.673,115.95z"
					/>
			</g>
			<g>
				<path fill="#EFD190" d="M115.741,114.714c3.687,2.259,6.327,4.74,7.821,7.247c1.553,2.605,1.854,5.241,0.805,7.691
					c-0.096,0.217-0.196,0.436-0.314,0.648l-2.72-0.509c0.196-0.376,0.358-0.763,0.483-1.149c1.297-4.07-1.647-8.729-8.149-12.688
					L115.741,114.714z"/>
			</g>
			<g>
				<path fill="#F6E9CF" d="M109.4,128.963c0.113,0.51,0.191,1.076,0.221,1.661c-1.107-0.688-2.266-1.363-3.469-2.019
					c-0.162-1.235-0.617-2.489-1.359-3.733C106.547,126.207,108.092,127.578,109.4,128.963z"/>
			</g>
			<g>
				<path fill="#F6E9CF" d="M123.562,121.96c1.748,1.327,3.289,2.687,4.592,4.063c0.326,1.498,0.332,3.477-0.168,4.987
					c-1.23-0.444-2.438-0.899-3.619-1.36C125.418,127.201,125.115,124.564,123.562,121.96z"/>
			</g>
			<g>
				<path fill="#EFD190" d="M112.223,128.559c0.266,1.16,0.365,2.574,0.202,3.932c-0.894-0.633-1.832-1.256-2.804-1.865
					c-0.028-0.585-0.107-1.152-0.221-1.661c-0.01-0.039-0.017-0.078-0.027-0.114L112.223,128.559z"/>
			</g>
			<g>
				<path fill="#F6E9CF" d="M131.156,129.882c0.533,0.874,0.961,1.748,1.275,2.61c-0.623-0.188-1.236-0.385-1.844-0.588
					C130.863,131.284,131.05,130.593,131.156,129.882z"/>
			</g>
			<g>
				<path fill="#EFD190" d="M130.999,125.661c0.28,1.235,0.377,2.772,0.157,4.221c-0.106,0.711-0.293,1.402-0.567,2.022
					c-0.124,0.275-0.259,0.535-0.416,0.775l-2.687-0.602c0.201-0.312,0.365-0.674,0.5-1.066c0.5-1.513,0.494-3.49,0.168-4.988
					c-0.006-0.03-0.016-0.064-0.021-0.096L130.999,125.661z"/>
			</g>
			<g>
				<path fill="#F6E9CF" d="M84.539,123.271c7.25,3.699,11.447,8.471,11.031,12.859c-0.297-0.082-0.596-0.166-0.894-0.245
					c-1.276-0.343-2.468-0.646-3.631-0.922C91.828,131.07,89.428,126.92,84.539,123.271z"/>
			</g>
			<g>
				<path fill="#EFD190" d="M78.368,118.643c1.31,0.424,2.574,0.875,3.777,1.359c3.726,1.487,6.923,3.23,9.475,5.126
					c4.968,3.681,7.491,7.907,6.698,11.835c-0.045,0.211-0.096,0.422-0.156,0.633l-2.821-0.271c0.117-0.395,0.19-0.79,0.229-1.191
					c0.416-4.39-3.781-9.16-11.031-12.859c-1.894-1.416-4.159-2.756-6.761-3.973L78.368,118.643z"/>
			</g>
			<g>
				<path fill="#F6E9CF" d="M91.62,125.128c7.581,3.838,11.931,8.858,11.173,13.396c-1.45-0.539-2.939-1.064-4.475-1.561
					C99.111,133.035,96.588,128.809,91.62,125.128z"/>
			</g>
			<g>
				<path fill="#F6E9CF" d="M101.741,128.623c6.485,3.977,9.44,8.624,8.144,12.695c-0.371-0.151-0.742-0.301-1.111-0.449
					c-1.098-0.438-2.198-0.883-3.321-1.323c1.174-3.938-1.001-8.146-5.671-11.854C100.443,127.996,101.102,128.309,101.741,128.623z
					"/>
			</g>
		</g>
		<g>
			<path fill="#F6E9CF" d="M111.639,134.641c1.742,1.322,3.281,2.686,4.586,4.06c0.32,1.495,0.332,3.477-0.158,4.991
				c-1.229-0.441-2.428-0.895-3.606-1.354C113.498,139.88,113.189,137.244,111.639,134.641z"/>
		</g>
	</g>
</g>
<g>
	<g opacity="0.1">
		<g>
			<path d="M139.273,73.345c0,0.048-0.014,0.101-0.014,0.149c-0.057-9.669-11.523-18.085-33.279-23.914
				c-29.194-7.823-51.989-4.336-62.536,9.573c-2.801,3.692-4.066,7.344-3.909,10.861c-0.005-0.108-0.034-0.212-0.037-0.322
				l0.177,10.021c0.174,9.896,11.678,18.737,32.736,24.379c28.33,7.592,52.49,3.639,63.066-10.307
				c2.721-3.587,4.026-7.08,3.967-10.421L139.273,73.345z"/>
			<path d="M99.238,109.15c-0.004,0-0.004,0-0.004,0c-8.494,0-17.625-1.292-27.146-3.844C50.566,99.54,38.61,90.459,38.419,79.735
				l-0.174-10.021c-0.003-0.087,0.005-0.171,0.022-0.257c-0.006-3.678,1.399-7.398,4.178-11.064
				c7.028-9.269,19.285-14.167,35.437-14.167c8.613,0,18.181,1.391,28.427,4.138c22.065,5.912,33.877,14.47,34.203,24.766
				c0.012,0.062,0.016,0.126,0.02,0.192l0.177,10.021c0.065,3.654-1.358,7.424-4.226,11.202
				C129.344,103.964,116.109,109.15,99.238,109.15z M40.768,70.261l0.168,9.43c0.164,9.365,11.757,17.813,31.804,23.186
				c9.307,2.492,18.22,3.76,26.496,3.76c0,0,0,0,0.002,0c16.07,0,28.584-4.833,35.24-13.612c2.518-3.32,3.769-6.561,3.715-9.638
				l-0.17-9.679c-0.014-0.066-0.021-0.135-0.021-0.205c-0.047-9.069-11.534-17.134-32.345-22.709
				c-10.035-2.69-19.378-4.054-27.774-4.054c-15.336,0-26.897,4.555-33.433,13.173c-2.571,3.389-3.802,6.768-3.659,10.043l0,0
				c0,0,0,0.003,0.002,0.003C40.796,70.061,40.791,70.163,40.768,70.261z"/>
		</g>
		<g>
			<g>
				<path d="M125.744,77.097c0.191,0.204,0.217,0.466,0.045,0.691c-0.168,0.225-0.51,0.376-0.898,0.436
					c-9.084,1.152-24.312-0.698-39.784-4.845c-15.452-4.141-27.895-9.704-32.43-14.503c-0.208-0.222-0.222-0.465-0.051-0.691
					c0.174-0.225,0.495-0.394,0.899-0.436c9.093-1.166,24.323,0.688,39.772,4.825C108.77,66.721,121.191,72.279,125.744,77.097z
					 M86.163,71.988c13.764,3.689,27.698,5.555,36.399,4.934c-4.979-4.285-16.584-9.262-30.328-12.945
					c-13.74-3.683-27.7-5.556-36.382-4.929C60.814,63.331,72.414,68.306,86.163,71.988"/>
			</g>
		</g>
		<g>
			<path d="M99.727,96.455c-6.258,0-10.284-1.35-10.667-1.482c-0.655-0.229-0.998-0.944-0.77-1.602
				c0.228-0.652,0.95-1.003,1.599-0.774c0.202,0.068,20.599,6.821,42.089-11.704c0.522-0.447,1.326-0.394,1.776,0.133
				c0.452,0.525,0.396,1.319-0.133,1.773C120.625,94,108.154,96.455,99.727,96.455z"/>
		</g>
	</g>
	<g>
		<g>
			<path fill="#E0C382" d="M139.273,70.468c0,0.048-0.014,0.101-0.014,0.149c-0.057-9.669-11.523-18.085-33.279-23.914
				c-29.194-7.823-51.989-4.336-62.536,9.574c-2.801,3.692-4.066,7.344-3.909,10.86c-0.005-0.108-0.034-0.212-0.037-0.322
				l0.177,10.021c0.174,9.896,11.678,18.737,32.736,24.379c28.33,7.591,52.49,3.639,63.066-10.307
				c2.721-3.587,4.026-7.08,3.967-10.421L139.273,70.468z"/>
			<path fill="#CA9A62" d="M99.238,106.272c-0.004,0-0.004,0-0.004,0c-8.494,0-17.625-1.292-27.146-3.844
				c-21.522-5.765-33.478-14.846-33.669-25.57l-0.174-10.021c-0.003-0.087,0.005-0.171,0.022-0.257
				c-0.006-3.678,1.399-7.398,4.178-11.064C49.473,46.248,61.73,41.35,77.882,41.35c8.613,0,18.181,1.391,28.427,4.138
				c22.065,5.912,33.877,14.47,34.203,24.766c0.012,0.062,0.016,0.126,0.02,0.192l0.177,10.021
				c0.065,3.654-1.358,7.424-4.226,11.202C129.344,101.087,116.109,106.272,99.238,106.272z M40.768,67.384l0.168,9.431
				C41.1,86.179,52.693,94.626,72.74,100c9.307,2.492,18.22,3.76,26.496,3.76c0,0,0,0,0.002,0c16.07,0,28.584-4.833,35.24-13.612
				c2.518-3.32,3.769-6.561,3.715-9.638l-0.17-9.679c-0.014-0.066-0.021-0.135-0.021-0.205
				c-0.047-9.069-11.534-17.134-32.345-22.709c-10.035-2.69-19.378-4.053-27.774-4.053c-15.336,0-26.897,4.555-33.433,13.173
				c-2.571,3.389-3.802,6.768-3.659,10.043l0,0c0,0,0,0.003,0.002,0.003C40.796,67.183,40.791,67.286,40.768,67.384z"/>
		</g>
		<g>
			<g>
				<path fill="#CA9A62" d="M125.744,74.219c0.191,0.204,0.217,0.466,0.045,0.691c-0.168,0.225-0.51,0.376-0.898,0.436
					c-9.084,1.152-24.312-0.698-39.784-4.845c-15.452-4.14-27.895-9.704-32.43-14.503c-0.208-0.222-0.222-0.465-0.051-0.691
					c0.174-0.225,0.495-0.394,0.899-0.436c9.093-1.166,24.323,0.688,39.772,4.825C108.77,63.843,121.191,69.401,125.744,74.219z
					 M86.163,69.111c13.764,3.689,27.698,5.555,36.399,4.934c-4.979-4.285-16.584-9.262-30.328-12.945
					c-13.74-3.683-27.7-5.556-36.382-4.929C60.814,60.453,72.414,65.428,86.163,69.111"/>
			</g>
		</g>
		<g>
			<path fill="#CA9A62" d="M99.727,93.577c-6.258,0-10.284-1.35-10.667-1.482c-0.655-0.229-0.998-0.944-0.77-1.602
				c0.228-0.652,0.95-1.003,1.599-0.774c0.202,0.069,20.599,6.821,42.089-11.704c0.522-0.447,1.326-0.394,1.776,0.133
				c0.452,0.525,0.396,1.319-0.133,1.773C120.625,91.123,108.154,93.577,99.727,93.577z"/>
		</g>
	</g>
</g>
</svg>
