<?xml version="1.0" encoding="utf-8"?>
<!-- Generator: Adobe Illustrator 16.0.0, SVG Export Plug-In . SVG Version: 6.00 Build 0)  -->
<!DOCTYPE svg PUBLIC "-//W3C//DTD SVG 1.1//EN" "http://www.w3.org/Graphics/SVG/1.1/DTD/svg11.dtd">
<svg version="1.1" id="Layer_1" xmlns="http://www.w3.org/2000/svg" xmlns:xlink="http://www.w3.org/1999/xlink" x="0px" y="0px"
	 width="180px" height="218.034px" viewBox="0 0 180 218.034" enable-background="new 0 0 180 218.034" xml:space="preserve">
<g>
	<g opacity="0.1">
		<g>
			<path fill="#231F20" d="M141.893,156.398c0,0.047-0.018,0.104-0.018,0.148c-0.059-9.832-11.718-18.395-33.846-24.322
				c-29.695-7.955-52.879-4.408-63.607,9.738c-2.85,3.756-4.135,7.469-3.976,11.047c-0.005-0.109-0.034-0.219-0.037-0.326
				l0.181,10.191c0.177,10.066,11.879,19.059,33.297,24.797c28.815,7.723,53.39,3.697,64.147-10.482
				c2.767-3.65,4.093-7.203,4.034-10.602L141.893,156.398z"/>
			<path fill="#231F20" d="M101.17,192.816h-0.005c-8.638,0-17.926-1.314-27.609-3.91c-21.893-5.865-34.052-15.102-34.247-26.008
				l-0.177-10.191c-0.003-0.092,0.006-0.178,0.022-0.264c-0.006-3.74,1.424-7.525,4.25-11.256
				c7.15-9.426,19.617-14.406,36.045-14.406c8.757,0,18.49,1.414,28.912,4.209c22.44,6.014,34.457,14.717,34.787,25.189
				c0.013,0.061,0.019,0.127,0.019,0.195l0.183,10.191c0.063,3.717-1.383,7.551-4.299,11.393
				C131.792,187.541,118.33,192.816,101.17,192.816z M41.698,153.262l0.171,9.592c0.166,9.521,11.961,18.117,32.35,23.582
				c9.466,2.535,18.532,3.826,26.946,3.826h0.005c16.344,0,29.072-4.918,35.842-13.848c2.561-3.375,3.834-6.674,3.777-9.803
				l-0.172-9.846c-0.012-0.066-0.021-0.139-0.021-0.207c-0.047-9.227-11.729-17.43-32.896-23.1
				c-10.209-2.736-19.709-4.121-28.249-4.121c-15.6,0-27.357,4.631-34.007,13.398c-2.615,3.447-3.867,6.883-3.722,10.215l0,0
				c0,0,0,0,0.004,0C41.727,153.057,41.721,153.16,41.698,153.262z"/>
		</g>
		<g>
			<path fill="#231F20" d="M101.668,181.961c-6.368,0-10.461-1.371-10.85-1.508c-0.669-0.23-1.019-0.961-0.783-1.629
				c0.229-0.664,0.966-1.018,1.624-0.787c0.204,0.072,20.954,6.938,42.813-11.902c0.53-0.455,1.348-0.4,1.807,0.137
				c0.457,0.531,0.398,1.34-0.139,1.801C122.92,179.463,110.236,181.961,101.668,181.961z"/>
		</g>
	</g>
	<g>
		<g>
			<path fill="#DFC282" d="M141.893,147.619c0,0.045-0.018,0.104-0.018,0.148c-0.059-9.832-11.718-18.395-33.846-24.322
				c-29.695-7.957-52.879-4.41-63.607,9.738c-2.85,3.754-4.135,7.467-3.976,11.045c-0.005-0.107-0.034-0.217-0.037-0.324
				l0.181,10.191c0.177,10.064,11.879,19.057,33.297,24.797c28.815,7.719,53.39,3.697,64.147-10.484
				c2.767-3.648,4.093-7.201,4.034-10.6L141.893,147.619z"/>
			<path fill="#CA9963" d="M101.17,184.037h-0.005c-8.638,0-17.926-1.314-27.609-3.91c-21.893-5.863-34.052-15.102-34.247-26.008
				l-0.177-10.191c-0.003-0.092,0.006-0.178,0.022-0.264c-0.006-3.742,1.424-7.525,4.25-11.256
				C50.554,122.982,63.021,118,79.449,118c8.757,0,18.49,1.416,28.912,4.211c22.44,6.014,34.457,14.717,34.787,25.188
				c0.013,0.062,0.019,0.129,0.019,0.197l0.183,10.191c0.063,3.715-1.383,7.551-4.299,11.393
				C131.792,178.762,118.33,184.037,101.17,184.037z M41.698,144.48l0.171,9.592c0.166,9.523,11.961,18.117,32.35,23.582
				c9.466,2.535,18.532,3.824,26.946,3.824h0.005c16.344,0,29.072-4.916,35.842-13.844c2.561-3.377,3.834-6.676,3.777-9.805
				l-0.172-9.846c-0.012-0.066-0.021-0.137-0.021-0.207c-0.047-9.225-11.729-17.428-32.896-23.098
				c-10.209-2.738-19.709-4.121-28.249-4.121c-15.6,0-27.357,4.629-34.007,13.396c-2.615,3.447-3.867,6.883-3.722,10.215l0,0
				c0,0,0,0,0.004,0C41.727,144.275,41.721,144.381,41.698,144.48z"/>
		</g>
		<g>
			<path fill="#C99962" d="M101.668,173.182c-6.368,0-10.461-1.371-10.85-1.51c-0.669-0.23-1.019-0.959-0.783-1.629
				c0.229-0.662,0.966-1.018,1.624-0.785c0.204,0.07,20.954,6.938,42.813-11.902c0.53-0.455,1.348-0.4,1.807,0.137
				c0.457,0.531,0.398,1.34-0.139,1.801C122.92,170.686,110.236,173.182,101.668,173.182z"/>
		</g>
	</g>
	<g>
		<g opacity="0.1">
			<g>
				<path fill="#231F20" d="M79.329,119.873c0.303,0.08,0.561,0.225,0.703,0.42l7.608,9.928c0.325,0.439,0,0.982-0.732,1.188
					c-0.399,0.113-0.846,0.109-1.223,0.012c-0.303-0.084-0.561-0.229-0.709-0.424l-7.591-9.939
					c-0.332-0.439-0.018-0.967,0.714-1.176C78.506,119.768,78.952,119.77,79.329,119.873z"/>
			</g>
			<g>
				<path fill="#231F20" d="M141.475,146.135c0.139,0.193,0.234,0.449-0.051,1.092l-0.189,0.281
					c-0.318,0.387-0.582,0.51-1.188,0.662c-0.896,0.197-2.504,0.188-4.314,0.266c-1.778,0.102-3.91,0.336-5.647,1.342
					c-0.829,0.48-1.412,0.99-1.79,1.484c-0.674,0.889-0.727,1.717-0.816,2.408c-0.062,0.688-0.138,1.242-0.525,1.752
					c-0.234,0.309-0.549,0.609-1.145,0.939c-0.776,0.457-1.439,0.648-2.131,0.764c-1.053,0.172-2.281,0.086-3.837,0.16
					c-1.53,0.045-3.411,0.365-5.081,1.357c-0.852,0.471-1.439,0.979-1.789,1.482c-0.675,0.891-0.748,1.709-0.816,2.41
					c-0.063,0.686-0.145,1.242-0.526,1.752c-0.233,0.309-0.571,0.6-1.144,0.938c-0.881,0.52-1.561,0.812-2.098,0.982
					c-0.812,0.236-1.39,0.273-2.504,0.309c-1.132,0.049-2.624,0.086-4.676,0.395c-2.738,0.426-4.266,0.998-5.311,1.242
					c-0.562,0.131-0.983,0.193-1.562,0.199c-0.61,0.008-1.405-0.045-2.571-0.252c-0.31-0.049-0.55-0.113-0.762-0.172
					c-1.389-0.371-1.926-0.916-2.709-1.74c-0.743-0.797-1.777-1.859-4.001-2.457c-0.36-0.096-0.755-0.188-1.155-0.258
					c-1.48-0.254-2.823-0.23-3.955-0.061c-1.721,0.258-2.921,0.777-4.03,1.059c-1.104,0.281-1.967,0.438-3.527,0.176
					c-0.285-0.039-0.525-0.104-0.76-0.168c-1.366-0.363-1.897-0.912-2.709-1.74c-0.749-0.797-1.755-1.857-4.002-2.457
					c-0.359-0.098-0.731-0.178-1.16-0.258c-1.4-0.238-2.744-0.178-3.949,0.012c-1.789,0.273-3.281,0.799-4.516,1.137
					c-0.606,0.154-1.155,0.27-1.612,0.305c-0.423,0.027-0.726,0.014-1.063-0.074c-0.24-0.064-0.503-0.172-0.817-0.361
					c-0.555-0.373-0.669-0.6-0.669-0.861c-0.028-0.27,0.132-0.631,0.475-1.08c0.406-0.541,1.058-1.172,1.611-1.9
					c0.692-0.918,1.275-2.061,0.772-3.334c-0.354-0.9-1.001-1.6-1.829-2.104c-1.207-0.76-2.51-1.129-3.453-1.559
					c-0.938-0.426-1.573-0.805-1.95-1.748c-0.314-0.873-0.108-1.379,0.323-1.98c0.396-0.523,1.045-1.072,1.593-1.797
					c0.646-0.812,1.052-1.875,0.526-3.121c-0.354-0.9-1.023-1.607-1.819-2.115c-1.206-0.764-2.544-1.121-3.461-1.543
					c-0.929-0.441-1.563-0.824-1.964-1.773c-0.285-0.723-0.337-1.229-0.295-1.582c0.053-0.371,0.192-0.635,0.421-0.975
					c0.288-0.381,0.761-0.85,1.269-1.518c0.332-0.441,0.669-0.961,1.006-1.59c0.543-1.135,0.697-1.986,0.795-2.646
					c0.12-0.652,0.184-1.035,0.492-1.445c0.273-0.363,0.771-0.789,1.86-1.428c0.804-0.451,1.468-0.643,2.153-0.756
					c1.058-0.172,2.298-0.105,3.842-0.164c1.525-0.045,3.406-0.363,5.081-1.354c0.823-0.48,1.412-0.988,1.784-1.482
					c0.674-0.891,0.725-1.715,0.8-2.418c0.058-0.686,0.137-1.24,0.521-1.752c0.257-0.301,0.571-0.602,1.143-0.939
					c0.807-0.451,1.469-0.643,2.155-0.754c1.052-0.174,2.298-0.105,3.835-0.164c1.544-0.061,3.413-0.365,5.088-1.354
					c0.721-0.424,1.252-0.895,1.611-1.375c0.721-0.945,0.863-1.889,0.995-2.712c0.12-0.847,0.251-1.546,0.583-1.949
					c0.148-0.188,0.291-0.306,0.525-0.42c0.206-0.12,0.504-0.215,1.029-0.3c0.743-0.104,1.12-0.069,1.475,0.025
					c0.36,0.096,0.737,0.285,1.132,0.601c0.623,0.466,1.264,1.18,2.098,1.896c0.817,0.709,1.881,1.469,3.533,1.908
					c0.285,0.078,0.583,0.141,0.914,0.193c1.475,0.256,2.807,0.246,3.956,0.061c1.721-0.256,2.921-0.777,4.022-1.061
					c1.104-0.279,1.961-0.42,3.527-0.178c0.273,0.059,0.525,0.109,0.766,0.172c1.351,0.377,1.887,0.928,2.67,1.75
					c0.783,0.789,1.777,1.863,4.029,2.463c0.36,0.098,0.737,0.162,1.145,0.238c1.475,0.254,2.828,0.248,3.979,0.064
					c1.692-0.264,2.915-0.777,4.001-1.066c1.104-0.283,1.979-0.414,3.539-0.154c0.646,0.102,1.194,0.217,1.595,0.324
					c1.28,0.359,1.602,0.619,2.246,1.178c0.629,0.57,1.396,1.424,3.059,2.486c1.904,1.211,3.486,1.703,4.345,2.125
					c0.435,0.225,0.749,0.412,1.04,0.719c0.309,0.312,0.605,0.758,0.887,1.482c0.312,0.871,0.104,1.377-0.338,1.961
					c-0.371,0.531-1.027,1.092-1.602,1.812c-0.61,0.801-1.018,1.869-0.502,3.127c0.326,0.895,1.012,1.584,1.801,2.098
					c1.212,0.76,2.537,1.133,3.476,1.561c0.943,0.43,1.577,0.807,1.955,1.75c0.285,0.76,0.068,1.314-0.429,1.973
					c-0.463,0.611-1.166,1.229-1.738,1.988c-0.354,0.463-0.656,1.016-0.709,1.615c-0.04,0.619,0.219,1.266,0.795,1.912
					c1.688,1.871,4.155,2.674,5.613,3.291C140.896,145.682,141.32,145.918,141.475,146.135z M63.375,153.312l45.701-25.74
					c1.932-0.74,3.933-1.475,6.002-2.201c0.68-0.256,0.938-0.783,0.537-1.205c-0.16-0.172-0.4-0.297-0.676-0.369
					c-0.41-0.109-0.896-0.105-1.319,0.043c-39.882,14.014-55.636,31.334-55.727,31.416c-0.389,0.438-0.138,0.979,0.577,1.205
					c0.771,0.207,1.612,0.041,1.989-0.379l0.154-0.168C60.969,155.547,61.866,154.639,63.375,153.312 M69.291,139.012
					c0.148,0.199,0.412,0.348,0.715,0.432c0.371,0.1,0.812,0.1,1.218-0.021c0.731-0.205,1.069-0.729,0.72-1.174l-7.596-9.939
					c-0.144-0.197-0.4-0.34-0.703-0.42c-0.378-0.105-0.824-0.107-1.229,0.008c-0.743,0.221-1.058,0.752-0.726,1.188L69.291,139.012
					 M70.258,123.896c-0.732,0.207-1.053,0.734-0.721,1.172l7.591,9.941c0.149,0.195,0.406,0.342,0.709,0.422
					c0.372,0.102,0.817,0.105,1.224-0.012c0.743-0.221,1.08-0.742,0.731-1.188l-7.608-9.924c-0.148-0.199-0.406-0.35-0.715-0.432
					C71.098,123.777,70.658,123.773,70.258,123.896 M85.954,115.865c-0.743,0.223-1.086,0.746-0.731,1.189l7.603,9.93
					c0.148,0.193,0.404,0.34,0.708,0.42c0.372,0.1,0.823,0.105,1.224-0.01c0.73-0.207,1.047-0.736,0.721-1.176l-7.591-9.941
					c-0.148-0.193-0.405-0.34-0.708-0.42C86.806,115.758,86.354,115.752,85.954,115.865 M78.1,119.881
					c-0.731,0.209-1.046,0.734-0.714,1.176l7.591,9.939c0.148,0.195,0.406,0.34,0.709,0.424c0.377,0.098,0.823,0.104,1.223-0.012
					c0.732-0.205,1.058-0.748,0.732-1.188l-7.608-9.928c-0.143-0.195-0.4-0.34-0.703-0.42
					C78.952,119.77,78.506,119.768,78.1,119.881 M112.557,144.623c0.452-0.4,0.314-0.947-0.358-1.232l-14.88-6.215
					c-0.068-0.025-0.137-0.049-0.211-0.068c-0.635-0.17-1.406-0.045-1.812,0.316c-0.479,0.398-0.318,0.949,0.332,1.229l14.879,6.213
					c0.068,0.027,0.137,0.051,0.212,0.07C111.352,145.104,112.134,144.984,112.557,144.623 M96.859,152.654
					c0.476-0.4,0.314-0.947-0.359-1.234l-14.851-6.207c-0.08-0.033-0.165-0.062-0.245-0.086c-0.623-0.166-1.378-0.041-1.801,0.309
					c-0.486,0.416-0.326,0.967,0.337,1.229l14.878,6.213c0.076,0.035,0.16,0.064,0.246,0.086
					C95.684,153.129,96.438,153.004,96.859,152.654 M120.404,140.611c0.451-0.406,0.291-0.955-0.365-1.221l-14.879-6.211
					c-0.08-0.033-0.166-0.062-0.246-0.086c-0.623-0.166-1.377-0.043-1.771,0.314c-0.475,0.4-0.319,0.949,0.332,1.229l14.879,6.213
					c0.08,0.035,0.16,0.061,0.246,0.084C119.216,141.102,119.977,140.977,120.404,140.611 M104.709,148.641
					c0.451-0.402,0.314-0.949-0.359-1.234l-14.852-6.205c-0.074-0.029-0.148-0.053-0.223-0.074
					c-0.652-0.172-1.424-0.053-1.829,0.312c-0.475,0.396-0.32,0.951,0.331,1.229l14.891,6.197c0.074,0.035,0.16,0.062,0.246,0.084
					C103.531,149.113,104.291,148.99,104.709,148.641"/>
			</g>
			<g>
				<path fill="#231F20" d="M143.893,148.221c-0.444,0.615-1.205,1.098-2.058,1.377c-0.84,0.281-1.743,0.408-2.601,0.477
					c-1.705,0.123-3.42,0.066-4.797,0.256c-0.926,0.119-1.687,0.322-2.36,0.721c-0.595,0.33-0.908,0.631-1.132,0.924
					c-0.395,0.521-0.463,1.064-0.531,1.768c-0.086,0.678-0.148,1.521-0.812,2.396c-0.383,0.51-0.972,1.018-1.795,1.498
					c-1.675,0.988-3.543,1.295-5.086,1.354c-1.545,0.061-2.779-0.012-3.837,0.166c-0.69,0.111-1.338,0.285-2.127,0.76
					c-0.6,0.332-0.914,0.633-1.131,0.924c-0.399,0.523-0.492,1.061-0.538,1.768c-0.085,0.68-0.148,1.52-0.812,2.395
					c-0.389,0.512-0.971,1.021-1.801,1.5c-1.018,0.584-1.902,0.994-2.795,1.266c-0.88,0.291-1.748,0.408-2.537,0.459
					c-1.606,0.111-2.897,0.031-5.271,0.393c-1.795,0.273-2.846,0.605-3.869,0.893c-1.035,0.303-2.189,0.604-3.682,0.609
					c-0.994,0.014-2.069-0.082-3.418-0.318c-0.4-0.074-0.806-0.148-1.145-0.238c-2.246-0.604-3.27-1.684-4.023-2.463
					c-0.789-0.826-1.321-1.369-2.676-1.748c-0.24-0.066-0.491-0.115-0.76-0.172c-1.572-0.244-2.424-0.105-3.527,0.176
					c-1.108,0.283-2.31,0.805-4.03,1.061c-1.143,0.184-2.475,0.195-3.955-0.061c-0.4-0.072-0.795-0.16-1.154-0.256
					c-2.275-0.611-3.264-1.672-4.014-2.443c-0.782-0.822-1.348-1.377-2.697-1.758c-0.24-0.062-0.492-0.111-0.76-0.168
					c-1.229-0.205-2.385-0.043-3.738,0.297c-1.338,0.326-2.727,0.83-4.305,1.09c-1.041,0.186-2.258,0.236-3.418-0.074
					c-0.697-0.186-1.293-0.432-1.812-0.768c-0.938-0.586-1.446-1.316-1.463-2.021c-0.023-0.689,0.325-1.297,0.754-1.865
					c0.509-0.672,1.148-1.289,1.612-1.9c0.565-0.777,0.886-1.463,0.601-2.188c-0.406-0.949-1.012-1.32-1.979-1.756
					c-0.914-0.424-2.244-0.795-3.453-1.555c-0.801-0.498-1.476-1.203-1.827-2.104c-0.5-1.24-0.117-2.311,0.523-3.121
					c0.554-0.73,1.197-1.275,1.595-1.799c0.454-0.598,0.663-1.102,0.349-1.975c-0.4-0.949-1.034-1.332-1.978-1.758
					c-0.94-0.426-2.244-0.795-3.45-1.559c-0.814-0.516-1.478-1.199-1.829-2.102c-0.326-0.855-0.443-1.537-0.392-2.137
					c0.086-0.609,0.366-1.129,0.709-1.582c0.389-0.508,0.835-0.947,1.269-1.521c0.286-0.377,0.584-0.805,0.85-1.348
					c0.469-0.996,0.598-1.66,0.694-2.322c0.097-0.619,0.194-1.275,0.749-2.006c0.485-0.641,1.266-1.254,2.515-1.988
					c1.694-0.982,3.568-1.289,5.106-1.35c1.543-0.061,2.783,0.008,3.812-0.172c0.715-0.105,1.354-0.303,2.154-0.754
					c0.572-0.338,0.909-0.631,1.133-0.924c0.389-0.512,0.463-1.066,0.537-1.77c0.057-0.684,0.119-1.525,0.783-2.4
					c0.389-0.51,0.977-1.018,1.789-1.482c1.703-0.998,3.578-1.303,5.115-1.363c1.543-0.061,2.784,0.012,3.836-0.166
					c0.691-0.111,1.354-0.303,2.132-0.76c0.435-0.234,0.726-0.504,0.96-0.812c0.44-0.582,0.617-1.344,0.738-2.148
					c0.125-0.81,0.199-1.664,0.84-2.511c0.285-0.377,0.715-0.754,1.326-1.062c0.605-0.314,1.354-0.532,2.218-0.652
					c1.218-0.2,2.39-0.148,3.367,0.113c0.954,0.256,1.651,0.67,2.212,1.102c0.565,0.432,1.04,0.909,1.486,1.344
					c0.932,0.9,1.817,1.627,3.058,1.957l0.549,0.114c1.538,0.252,2.401,0.099,3.503-0.183c1.109-0.283,2.311-0.803,4.024-1.063
					c1.138-0.165,2.479-0.194,3.956,0.063c0.404,0.074,0.794,0.16,1.154,0.257c2.224,0.595,3.258,1.661,4.007,2.458
					c0.782,0.822,1.319,1.371,2.704,1.742c0.217,0.059,0.457,0.121,0.766,0.166c1.532,0.256,2.418,0.109,3.527-0.174
					c1.08-0.289,2.309-0.803,4.023-1.061c1.137-0.168,2.48-0.193,3.955,0.061c0.76,0.135,1.406,0.271,1.979,0.426
					c1.795,0.48,2.771,1.154,3.464,1.807c0.731,0.67,1.292,1.326,2.731,2.238c1.27,0.795,2.219,1.172,3.155,1.562
					c0.92,0.387,1.909,0.828,2.642,1.6c0.498,0.521,0.887,1.15,1.188,1.969c0.521,1.244,0.114,2.309-0.492,3.111
					c-0.577,0.721-1.233,1.283-1.629,1.807c-0.417,0.59-0.629,1.096-0.313,1.969c0.399,0.949,1.012,1.32,1.955,1.75
					c0.938,0.428,2.27,0.801,3.47,1.561c0.795,0.51,1.479,1.203,1.835,2.104c0.457,1.213,0.006,2.299-0.646,3.121
					c-0.595,0.789-1.32,1.436-1.738,1.988c-0.262,0.35-0.399,0.646-0.422,0.939c-0.022,0.295,0.062,0.598,0.439,1.012
					c1.436,1.596,3.504,2.131,5.355,2.994c0.611,0.289,1.205,0.643,1.611,1.135c0.561,0.66,0.571,1.484,0.12,2.383
					C144.121,147.877,144.014,148.061,143.893,148.221z M140.046,148.17c0.604-0.152,0.869-0.275,1.188-0.662l0.188-0.281
					c0.285-0.643,0.188-0.898,0.052-1.092c-0.154-0.217-0.578-0.453-1.314-0.773c-1.458-0.617-3.928-1.42-5.613-3.291
					c-0.576-0.646-0.835-1.293-0.795-1.912c0.053-0.602,0.354-1.152,0.709-1.615c0.572-0.76,1.275-1.377,1.738-1.988
					c0.496-0.658,0.714-1.213,0.429-1.973c-0.378-0.943-1.012-1.32-1.955-1.75c-0.938-0.428-2.264-0.801-3.476-1.561
					c-0.789-0.516-1.475-1.203-1.801-2.098c-0.516-1.258-0.108-2.326,0.502-3.127c0.572-0.721,1.229-1.279,1.602-1.812
					c0.439-0.584,0.65-1.09,0.338-1.961c-0.279-0.727-0.578-1.172-0.887-1.482c-0.291-0.307-0.605-0.494-1.04-0.719
					c-0.856-0.422-2.44-0.914-4.345-2.125c-1.664-1.062-2.43-1.916-3.059-2.486c-0.646-0.559-0.966-0.816-2.246-1.178
					c-0.4-0.109-0.949-0.223-1.595-0.324c-1.562-0.26-2.437-0.129-3.539,0.154c-1.086,0.289-2.31,0.805-4.001,1.066
					c-1.148,0.184-2.504,0.188-3.979-0.064c-0.406-0.076-0.783-0.141-1.145-0.238c-2.252-0.6-3.246-1.674-4.029-2.463
					c-0.783-0.824-1.319-1.373-2.67-1.75c-0.24-0.062-0.49-0.113-0.766-0.172c-1.566-0.242-2.424-0.102-3.527,0.178
					c-1.103,0.283-2.303,0.805-4.022,1.061c-1.149,0.188-2.481,0.195-3.956-0.061c-0.331-0.055-0.629-0.115-0.914-0.193
					c-1.652-0.439-2.716-1.2-3.533-1.909c-0.834-0.715-1.475-1.429-2.098-1.896c-0.395-0.313-0.771-0.504-1.132-0.6
					c-0.354-0.096-0.731-0.13-1.475-0.025c-0.525,0.084-0.823,0.18-1.029,0.3c-0.234,0.114-0.377,0.231-0.525,0.42
					c-0.332,0.403-0.463,1.104-0.583,1.948c-0.132,0.824-0.274,1.768-0.995,2.713c-0.359,0.48-0.891,0.951-1.611,1.375
					c-1.675,0.988-3.544,1.293-5.088,1.354c-1.537,0.059-2.783-0.01-3.835,0.164c-0.687,0.111-1.349,0.303-2.155,0.754
					c-0.571,0.338-0.886,0.639-1.143,0.939c-0.384,0.512-0.463,1.066-0.521,1.752c-0.075,0.703-0.126,1.527-0.8,2.418
					c-0.372,0.494-0.961,1.002-1.784,1.482c-1.675,0.99-3.556,1.309-5.081,1.354c-1.544,0.061-2.784-0.008-3.842,0.164
					c-0.686,0.113-1.35,0.305-2.153,0.756c-1.089,0.639-1.587,1.062-1.86,1.428c-0.309,0.41-0.372,0.793-0.492,1.445
					c-0.098,0.66-0.252,1.512-0.795,2.646c-0.337,0.629-0.674,1.148-1.006,1.588c-0.508,0.67-0.98,1.139-1.269,1.52
					c-0.229,0.34-0.368,0.604-0.421,0.975c-0.042,0.354,0.01,0.859,0.295,1.582c0.4,0.949,1.035,1.332,1.964,1.773
					c0.917,0.422,2.255,0.779,3.461,1.543c0.796,0.508,1.465,1.215,1.819,2.115c0.525,1.246,0.119,2.309-0.526,3.121
					c-0.548,0.725-1.196,1.273-1.593,1.797c-0.432,0.604-0.638,1.107-0.323,1.98c0.377,0.943,1.012,1.322,1.95,1.748
					c0.943,0.43,2.246,0.799,3.453,1.559c0.828,0.504,1.475,1.203,1.829,2.104c0.503,1.273-0.08,2.416-0.772,3.334
					c-0.554,0.729-1.205,1.359-1.611,1.9c-0.343,0.449-0.503,0.811-0.475,1.08c0,0.262,0.114,0.488,0.669,0.861
					c0.314,0.189,0.577,0.297,0.817,0.361c0.338,0.088,0.641,0.102,1.063,0.074c0.457-0.035,1.006-0.148,1.612-0.305
					c1.234-0.338,2.727-0.861,4.516-1.137c1.205-0.188,2.549-0.25,3.949-0.012c0.429,0.08,0.801,0.16,1.16,0.258
					c2.247,0.6,3.253,1.66,4.002,2.457c0.812,0.828,1.343,1.377,2.709,1.74c0.234,0.064,0.475,0.129,0.76,0.168
					c1.561,0.262,2.424,0.105,3.527-0.176c1.109-0.281,2.31-0.801,4.03-1.059c1.132-0.172,2.475-0.195,3.955,0.061
					c0.4,0.07,0.795,0.162,1.155,0.258c2.224,0.598,3.258,1.66,4.001,2.457c0.783,0.824,1.32,1.369,2.709,1.74
					c0.212,0.059,0.452,0.123,0.761,0.172c1.166,0.207,1.962,0.26,2.572,0.252c0.577-0.006,1-0.068,1.562-0.199
					c1.045-0.244,2.571-0.816,5.311-1.242c2.052-0.309,3.544-0.346,4.676-0.395c1.114-0.033,1.691-0.07,2.503-0.309
					c0.538-0.172,1.218-0.463,2.099-0.982c0.572-0.338,0.908-0.629,1.144-0.938c0.383-0.51,0.463-1.066,0.526-1.752
					c0.068-0.701,0.143-1.521,0.816-2.41c0.35-0.504,0.938-1.012,1.789-1.482c1.669-0.992,3.551-1.312,5.081-1.357
					c1.556-0.074,2.784,0.012,3.836-0.16c0.691-0.113,1.354-0.307,2.132-0.764c0.596-0.33,0.909-0.631,1.145-0.939
					c0.389-0.51,0.463-1.064,0.525-1.752c0.092-0.691,0.144-1.521,0.816-2.408c0.378-0.494,0.961-1.004,1.79-1.484
					c1.737-1.006,3.869-1.24,5.647-1.342C137.542,148.355,139.148,148.367,140.046,148.17"/>
			</g>
			<g>
				<path fill="#231F20" d="M109.076,127.572l-45.701,25.74C69.057,148.314,83.342,137.416,109.076,127.572z"/>
			</g>
			<g>
				<path fill="#231F20" d="M63.645,127.889c0.303,0.08,0.56,0.223,0.703,0.422l7.596,9.938c0.35,0.445,0.012,0.971-0.72,1.176
					c-0.405,0.119-0.847,0.119-1.218,0.02c-0.303-0.082-0.566-0.23-0.715-0.432l-7.602-9.926c-0.332-0.438-0.018-0.969,0.726-1.188
					C62.82,127.781,63.267,127.783,63.645,127.889z"/>
			</g>
			<g>
				<path fill="#231F20" d="M114.939,123.797c0.274,0.072,0.516,0.197,0.676,0.369c0.4,0.422,0.143,0.949-0.537,1.205
					c-2.069,0.729-4.07,1.461-6.002,2.201c-25.734,9.844-40.02,20.742-45.701,25.74c-1.509,1.326-2.406,2.234-2.761,2.602
					l-0.154,0.168c-0.377,0.42-1.218,0.586-1.903,0.402c-0.801-0.252-1.052-0.791-0.663-1.229
					c0.091-0.082,15.845-17.402,55.727-31.416C114.043,123.691,114.529,123.686,114.939,123.797z"/>
			</g>
			<g>
				<path fill="#231F20" d="M104.914,133.096c0.08,0.021,0.166,0.051,0.246,0.086l14.879,6.211c0.656,0.266,0.816,0.812,0.365,1.219
					c-0.428,0.367-1.188,0.49-1.807,0.324c-0.086-0.023-0.164-0.049-0.244-0.084l-14.881-6.213c-0.65-0.279-0.806-0.828-0.33-1.229
					C103.537,133.053,104.291,132.93,104.914,133.096z"/>
			</g>
			<g>
				<path fill="#231F20" d="M81.404,145.127c0.08,0.023,0.165,0.053,0.245,0.086L96.5,151.42c0.675,0.287,0.835,0.834,0.359,1.234
					c-0.416,0.35-1.178,0.475-1.795,0.309c-0.086-0.021-0.17-0.051-0.246-0.086l-14.878-6.213c-0.663-0.262-0.823-0.812-0.337-1.229
					C80.026,145.086,80.781,144.961,81.404,145.127z"/>
			</g>
			<g>
				<path fill="#231F20" d="M89.275,141.125c0.074,0.023,0.148,0.047,0.223,0.074l14.852,6.205c0.674,0.287,0.812,0.832,0.359,1.234
					c-0.418,0.352-1.178,0.475-1.795,0.309c-0.086-0.021-0.172-0.047-0.246-0.082l-14.891-6.199
					c-0.651-0.275-0.806-0.832-0.331-1.229C87.852,141.074,88.623,140.953,89.275,141.125z"/>
			</g>
			<g>
				<path fill="#231F20" d="M97.105,137.107c0.074,0.02,0.144,0.043,0.211,0.066l14.881,6.215c0.674,0.285,0.812,0.832,0.359,1.234
					c-0.424,0.359-1.207,0.48-1.841,0.312c-0.075-0.021-0.144-0.043-0.212-0.072l-14.879-6.213c-0.65-0.277-0.807-0.828-0.332-1.227
					C95.7,137.061,96.473,136.936,97.105,137.107z"/>
			</g>
			<g>
				<path fill="#231F20" d="M71.469,123.877c0.309,0.084,0.566,0.232,0.715,0.434l7.608,9.922c0.349,0.447,0.012,0.969-0.731,1.188
					c-0.406,0.117-0.852,0.113-1.224,0.014c-0.303-0.08-0.56-0.227-0.709-0.424l-7.591-9.939c-0.332-0.439-0.012-0.967,0.721-1.172
					C70.658,123.773,71.098,123.777,71.469,123.877z"/>
			</g>
			<g>
				<path fill="#231F20" d="M87.178,115.857c0.303,0.08,0.56,0.227,0.708,0.42l7.592,9.941c0.324,0.438,0.01,0.969-0.722,1.176
					c-0.399,0.115-0.853,0.109-1.224,0.01c-0.303-0.08-0.561-0.227-0.708-0.42l-7.603-9.93c-0.354-0.443-0.012-0.967,0.731-1.189
					C86.354,115.752,86.806,115.758,87.178,115.857z"/>
			</g>
		</g>
		<g>
			<g>
				<path fill="#5FAB45" d="M79.329,116.945c0.303,0.08,0.561,0.225,0.703,0.422l7.608,9.926c0.325,0.439,0,0.982-0.732,1.188
					c-0.399,0.115-0.846,0.109-1.223,0.012c-0.303-0.082-0.561-0.229-0.709-0.422l-7.591-9.941
					c-0.332-0.439-0.018-0.965,0.714-1.174C78.506,116.84,78.952,116.844,79.329,116.945z"/>
			</g>
			<g>
				<path fill="#86C670" d="M141.475,143.207c0.139,0.193,0.234,0.451-0.051,1.092l-0.189,0.281
					c-0.318,0.387-0.582,0.51-1.188,0.664c-0.896,0.197-2.504,0.188-4.314,0.264c-1.778,0.104-3.91,0.338-5.647,1.344
					c-0.829,0.479-1.412,0.988-1.79,1.482c-0.674,0.889-0.727,1.719-0.816,2.408c-0.062,0.688-0.138,1.244-0.525,1.752
					c-0.234,0.311-0.549,0.609-1.145,0.941c-0.776,0.457-1.439,0.648-2.131,0.764c-1.053,0.17-2.281,0.084-3.837,0.158
					c-1.53,0.047-3.411,0.367-5.081,1.357c-0.852,0.473-1.439,0.98-1.789,1.484c-0.675,0.889-0.748,1.709-0.816,2.408
					c-0.063,0.686-0.145,1.244-0.526,1.752c-0.233,0.309-0.571,0.6-1.144,0.938c-0.881,0.521-1.561,0.812-2.098,0.984
					c-0.812,0.236-1.39,0.273-2.504,0.309c-1.132,0.049-2.624,0.086-4.676,0.395c-2.738,0.426-4.266,0.998-5.311,1.24
					c-0.562,0.131-0.983,0.193-1.562,0.199c-0.61,0.01-1.405-0.045-2.571-0.252c-0.31-0.049-0.55-0.113-0.762-0.172
					c-1.389-0.371-1.926-0.916-2.709-1.738c-0.743-0.799-1.777-1.861-4.001-2.459c-0.36-0.094-0.755-0.186-1.155-0.258
					c-1.48-0.254-2.823-0.23-3.955-0.061c-1.721,0.258-2.921,0.777-4.03,1.059c-1.104,0.283-1.967,0.438-3.527,0.178
					c-0.285-0.039-0.525-0.104-0.76-0.168c-1.366-0.363-1.897-0.912-2.709-1.74c-0.749-0.799-1.755-1.859-4.002-2.459
					c-0.359-0.098-0.731-0.178-1.16-0.258c-1.4-0.236-2.744-0.178-3.949,0.012c-1.789,0.273-3.281,0.801-4.516,1.139
					c-0.606,0.154-1.155,0.27-1.612,0.303c-0.423,0.027-0.726,0.016-1.063-0.074c-0.24-0.062-0.503-0.172-0.817-0.359
					c-0.555-0.375-0.669-0.6-0.669-0.863c-0.028-0.27,0.132-0.629,0.475-1.08c0.406-0.541,1.058-1.172,1.611-1.9
					c0.692-0.918,1.275-2.061,0.772-3.332c-0.354-0.9-1.001-1.602-1.829-2.105c-1.207-0.76-2.51-1.129-3.453-1.557
					c-0.938-0.426-1.573-0.807-1.95-1.75c-0.314-0.871-0.108-1.377,0.323-1.98c0.396-0.521,1.045-1.07,1.593-1.797
					c0.646-0.812,1.052-1.875,0.526-3.121c-0.354-0.9-1.023-1.605-1.819-2.115c-1.206-0.764-2.544-1.119-3.461-1.543
					c-0.929-0.439-1.563-0.822-1.964-1.771c-0.285-0.723-0.337-1.229-0.295-1.584c0.053-0.371,0.192-0.635,0.421-0.975
					c0.288-0.379,0.761-0.85,1.269-1.518c0.332-0.439,0.669-0.961,1.006-1.59c0.543-1.135,0.697-1.986,0.795-2.645
					c0.12-0.652,0.184-1.035,0.492-1.447c0.273-0.363,0.771-0.789,1.86-1.426c0.804-0.451,1.468-0.645,2.153-0.758
					c1.058-0.172,2.298-0.104,3.842-0.162c1.525-0.047,3.406-0.363,5.081-1.355c0.823-0.479,1.412-0.988,1.784-1.482
					c0.674-0.889,0.725-1.715,0.8-2.418c0.058-0.684,0.137-1.24,0.521-1.752c0.257-0.301,0.571-0.602,1.143-0.938
					c0.807-0.451,1.469-0.645,2.155-0.756c1.052-0.174,2.298-0.105,3.835-0.162c1.544-0.062,3.413-0.365,5.088-1.355
					c0.721-0.422,1.252-0.895,1.611-1.373c0.721-0.946,0.863-1.891,0.995-2.713c0.12-0.847,0.251-1.547,0.583-1.949
					c0.148-0.188,0.291-0.307,0.525-0.42c0.206-0.12,0.504-0.215,1.029-0.301c0.743-0.104,1.12-0.068,1.475,0.025
					c0.36,0.098,0.737,0.286,1.132,0.602c0.623,0.465,1.264,1.18,2.098,1.895c0.817,0.709,1.881,1.469,3.533,1.909
					c0.285,0.077,0.583,0.14,0.914,0.194c1.475,0.254,2.807,0.246,3.956,0.06c1.721-0.257,2.921-0.777,4.022-1.06
					c1.104-0.281,1.961-0.422,3.527-0.179c0.273,0.058,0.525,0.108,0.766,0.173c1.351,0.377,1.887,0.926,2.67,1.748
					c0.783,0.789,1.777,1.863,4.029,2.465c0.36,0.096,0.737,0.162,1.145,0.236c1.475,0.254,2.828,0.248,3.979,0.064
					c1.692-0.262,2.915-0.775,4.001-1.064c1.104-0.283,1.979-0.414,3.539-0.154c0.646,0.102,1.194,0.215,1.595,0.322
					c1.28,0.359,1.602,0.621,2.246,1.178c0.629,0.572,1.396,1.424,3.059,2.486c1.904,1.213,3.486,1.703,4.345,2.127
					c0.435,0.223,0.749,0.412,1.04,0.717c0.309,0.312,0.605,0.758,0.887,1.484c0.312,0.871,0.104,1.377-0.338,1.961
					c-0.371,0.529-1.027,1.092-1.602,1.811c-0.61,0.801-1.018,1.869-0.502,3.127c0.326,0.896,1.012,1.584,1.801,2.1
					c1.212,0.76,2.537,1.131,3.476,1.561c0.943,0.428,1.577,0.805,1.955,1.748c0.285,0.762,0.068,1.314-0.429,1.973
					c-0.463,0.611-1.166,1.229-1.738,1.988c-0.354,0.465-0.656,1.016-0.709,1.615c-0.04,0.621,0.219,1.268,0.795,1.912
					c1.688,1.873,4.155,2.676,5.613,3.293C140.896,142.754,141.32,142.992,141.475,143.207z M63.375,150.387l45.701-25.74
					c1.932-0.74,3.933-1.475,6.002-2.201c0.68-0.256,0.938-0.781,0.537-1.205c-0.16-0.172-0.4-0.297-0.676-0.369
					c-0.41-0.109-0.896-0.104-1.319,0.043c-39.882,14.014-55.636,31.334-55.727,31.416c-0.389,0.438-0.138,0.979,0.577,1.207
					c0.771,0.205,1.612,0.039,1.989-0.381l0.154-0.168C60.969,152.621,61.866,151.711,63.375,150.387 M69.291,136.084
					c0.148,0.199,0.412,0.35,0.715,0.432c0.371,0.102,0.812,0.102,1.218-0.02c0.731-0.207,1.069-0.729,0.72-1.176l-7.596-9.939
					c-0.144-0.197-0.4-0.34-0.703-0.42c-0.378-0.104-0.824-0.105-1.229,0.01c-0.743,0.219-1.058,0.75-0.726,1.188L69.291,136.084
					 M70.258,120.971c-0.732,0.207-1.053,0.734-0.721,1.172l7.591,9.939c0.149,0.197,0.406,0.344,0.709,0.424
					c0.372,0.102,0.817,0.105,1.224-0.012c0.743-0.221,1.08-0.742,0.731-1.188l-7.608-9.924c-0.148-0.199-0.406-0.35-0.715-0.432
					C71.098,120.852,70.658,120.848,70.258,120.971 M85.954,112.939c-0.743,0.223-1.086,0.746-0.731,1.188l7.603,9.93
					c0.148,0.193,0.404,0.34,0.708,0.42c0.372,0.102,0.823,0.105,1.224-0.008c0.73-0.209,1.047-0.738,0.721-1.178l-7.591-9.939
					c-0.148-0.195-0.405-0.342-0.708-0.42C86.806,112.83,86.354,112.824,85.954,112.939 M78.1,116.955
					c-0.731,0.209-1.046,0.734-0.714,1.174l7.591,9.941c0.148,0.193,0.406,0.34,0.709,0.422c0.377,0.098,0.823,0.105,1.223-0.012
					c0.732-0.205,1.058-0.748,0.732-1.188l-7.608-9.926c-0.143-0.197-0.4-0.342-0.703-0.422
					C78.952,116.844,78.506,116.84,78.1,116.955 M112.557,141.697c0.452-0.402,0.314-0.949-0.358-1.234l-14.88-6.215
					c-0.068-0.023-0.137-0.047-0.211-0.066c-0.635-0.172-1.406-0.047-1.812,0.316c-0.479,0.396-0.318,0.949,0.332,1.227
					l14.879,6.213c0.068,0.027,0.137,0.053,0.212,0.072C111.352,142.178,112.134,142.059,112.557,141.697 M96.859,149.729
					c0.476-0.4,0.314-0.949-0.359-1.234l-14.851-6.209c-0.08-0.033-0.165-0.061-0.245-0.086c-0.623-0.164-1.378-0.039-1.801,0.311
					c-0.486,0.414-0.326,0.967,0.337,1.229l14.878,6.215c0.076,0.033,0.16,0.062,0.246,0.084
					C95.684,150.203,96.438,150.076,96.859,149.729 M120.404,137.686c0.451-0.406,0.291-0.955-0.365-1.221l-14.879-6.211
					c-0.08-0.033-0.166-0.062-0.246-0.086c-0.623-0.166-1.377-0.043-1.771,0.314c-0.475,0.398-0.319,0.949,0.332,1.229l14.879,6.213
					c0.08,0.033,0.16,0.061,0.246,0.082C119.216,138.174,119.977,138.051,120.404,137.686 M104.709,145.713
					c0.451-0.402,0.314-0.947-0.359-1.234l-14.852-6.205c-0.074-0.027-0.148-0.051-0.223-0.074c-0.652-0.17-1.424-0.051-1.829,0.312
					c-0.475,0.396-0.32,0.951,0.331,1.229l14.891,6.199c0.074,0.035,0.16,0.061,0.246,0.082
					C103.531,146.188,104.291,146.064,104.709,145.713"/>
			</g>
			<g>
				<path fill="#5FAB45" d="M143.893,145.293c-0.444,0.617-1.205,1.098-2.058,1.377c-0.84,0.283-1.743,0.408-2.601,0.479
					c-1.705,0.123-3.42,0.064-4.797,0.254c-0.926,0.121-1.687,0.324-2.36,0.721c-0.595,0.332-0.908,0.631-1.132,0.924
					c-0.395,0.521-0.463,1.064-0.531,1.77c-0.086,0.678-0.148,1.52-0.812,2.395c-0.383,0.51-0.972,1.02-1.795,1.498
					c-1.675,0.988-3.543,1.295-5.086,1.355c-1.545,0.059-2.779-0.012-3.837,0.166c-0.69,0.109-1.338,0.285-2.127,0.76
					c-0.6,0.33-0.914,0.631-1.131,0.922c-0.399,0.523-0.492,1.062-0.538,1.768c-0.085,0.682-0.148,1.521-0.812,2.396
					c-0.389,0.51-0.971,1.02-1.801,1.5c-1.018,0.582-1.902,0.994-2.795,1.264c-0.88,0.291-1.748,0.408-2.537,0.459
					c-1.606,0.111-2.897,0.031-5.271,0.393c-1.795,0.273-2.846,0.605-3.869,0.893c-1.035,0.303-2.189,0.605-3.682,0.611
					c-0.994,0.012-2.069-0.084-3.418-0.32c-0.4-0.074-0.806-0.148-1.145-0.236c-2.246-0.604-3.27-1.684-4.023-2.465
					c-0.789-0.824-1.321-1.367-2.676-1.748c-0.24-0.066-0.491-0.113-0.76-0.172c-1.572-0.242-2.424-0.105-3.527,0.178
					c-1.108,0.281-2.31,0.803-4.03,1.061c-1.143,0.184-2.475,0.193-3.955-0.062c-0.4-0.07-0.795-0.16-1.154-0.256
					c-2.275-0.609-3.264-1.672-4.014-2.441c-0.782-0.824-1.348-1.379-2.697-1.758c-0.24-0.062-0.492-0.111-0.76-0.17
					c-1.229-0.205-2.385-0.041-3.738,0.299c-1.338,0.326-2.727,0.828-4.305,1.088c-1.041,0.186-2.258,0.238-3.418-0.074
					c-0.697-0.186-1.293-0.432-1.812-0.766c-0.938-0.586-1.446-1.318-1.463-2.021c-0.023-0.689,0.325-1.297,0.754-1.865
					c0.509-0.672,1.148-1.289,1.612-1.9c0.565-0.777,0.886-1.463,0.601-2.189c-0.406-0.947-1.012-1.318-1.979-1.754
					c-0.914-0.424-2.244-0.795-3.453-1.555c-0.801-0.498-1.476-1.203-1.827-2.105c-0.5-1.238-0.117-2.309,0.523-3.121
					c0.554-0.729,1.197-1.273,1.595-1.797c0.454-0.598,0.663-1.1,0.349-1.975c-0.4-0.949-1.034-1.332-1.978-1.758
					c-0.94-0.426-2.244-0.795-3.45-1.559c-0.814-0.516-1.478-1.199-1.829-2.102c-0.326-0.857-0.443-1.537-0.392-2.137
					c0.086-0.609,0.366-1.129,0.709-1.582c0.389-0.51,0.835-0.947,1.269-1.521c0.286-0.377,0.584-0.805,0.85-1.348
					c0.469-0.994,0.598-1.66,0.694-2.32c0.097-0.621,0.194-1.279,0.749-2.008c0.485-0.641,1.266-1.254,2.515-1.988
					c1.694-0.982,3.568-1.289,5.106-1.35c1.543-0.061,2.783,0.008,3.812-0.172c0.715-0.105,1.354-0.303,2.154-0.754
					c0.572-0.338,0.909-0.633,1.133-0.924c0.389-0.512,0.463-1.064,0.537-1.77c0.057-0.684,0.119-1.525,0.783-2.4
					c0.389-0.51,0.977-1.018,1.789-1.482c1.703-0.998,3.578-1.305,5.115-1.363c1.543-0.061,2.784,0.012,3.836-0.166
					c0.691-0.111,1.354-0.304,2.132-0.761c0.435-0.233,0.726-0.503,0.96-0.812c0.44-0.584,0.617-1.344,0.738-2.149
					c0.125-0.81,0.199-1.663,0.84-2.51c0.285-0.378,0.715-0.755,1.326-1.062c0.605-0.314,1.354-0.533,2.218-0.652
					c1.218-0.2,2.39-0.148,3.367,0.113c0.954,0.256,1.651,0.67,2.212,1.102c0.565,0.432,1.04,0.908,1.486,1.344
					c0.932,0.9,1.817,1.626,3.058,1.958l0.549,0.114c1.538,0.251,2.401,0.097,3.503-0.184c1.109-0.283,2.311-0.804,4.024-1.062
					c1.138-0.166,2.479-0.193,3.956,0.062c0.404,0.073,0.794,0.159,1.154,0.256c2.224,0.596,3.258,1.662,4.007,2.459
					c0.782,0.822,1.319,1.371,2.704,1.742c0.217,0.059,0.457,0.121,0.766,0.166c1.532,0.256,2.418,0.109,3.527-0.174
					c1.08-0.289,2.309-0.804,4.023-1.061c1.137-0.17,2.48-0.194,3.955,0.06c0.76,0.136,1.406,0.271,1.979,0.427
					c1.795,0.479,2.771,1.154,3.464,1.807c0.731,0.67,1.292,1.326,2.731,2.238c1.27,0.793,2.219,1.172,3.155,1.562
					c0.92,0.387,1.909,0.828,2.642,1.6c0.498,0.521,0.887,1.15,1.188,1.967c0.521,1.246,0.114,2.311-0.492,3.113
					c-0.577,0.721-1.233,1.283-1.629,1.807c-0.417,0.59-0.629,1.096-0.313,1.969c0.399,0.949,1.012,1.32,1.955,1.75
					c0.938,0.428,2.27,0.801,3.47,1.561c0.795,0.508,1.479,1.203,1.835,2.104c0.457,1.213,0.006,2.299-0.646,3.121
					c-0.595,0.789-1.32,1.436-1.738,1.988c-0.262,0.35-0.399,0.646-0.422,0.939c-0.022,0.295,0.062,0.598,0.439,1.012
					c1.436,1.594,3.504,2.133,5.355,2.994c0.611,0.289,1.205,0.641,1.611,1.135c0.561,0.66,0.571,1.484,0.12,2.381
					C144.121,144.949,144.014,145.133,143.893,145.293z M140.046,145.244c0.604-0.154,0.869-0.277,1.188-0.664l0.188-0.281
					c0.285-0.641,0.188-0.896,0.052-1.092c-0.154-0.215-0.578-0.453-1.314-0.771c-1.458-0.617-3.928-1.42-5.613-3.293
					c-0.576-0.646-0.835-1.291-0.795-1.912c0.053-0.602,0.354-1.15,0.709-1.615c0.572-0.76,1.275-1.377,1.738-1.988
					c0.496-0.656,0.714-1.211,0.429-1.973c-0.378-0.943-1.012-1.32-1.955-1.748c-0.938-0.43-2.264-0.801-3.476-1.561
					c-0.789-0.516-1.475-1.203-1.801-2.1c-0.516-1.258-0.108-2.326,0.502-3.127c0.572-0.719,1.229-1.279,1.602-1.811
					c0.439-0.584,0.65-1.09,0.338-1.961c-0.279-0.727-0.578-1.172-0.887-1.484c-0.291-0.305-0.605-0.494-1.04-0.717
					c-0.856-0.424-2.44-0.914-4.345-2.127c-1.664-1.062-2.43-1.914-3.059-2.486c-0.646-0.557-0.966-0.816-2.246-1.178
					c-0.4-0.107-0.949-0.223-1.595-0.322c-1.562-0.26-2.437-0.129-3.539,0.154c-1.086,0.289-2.31,0.803-4.001,1.064
					c-1.148,0.184-2.504,0.189-3.979-0.064c-0.406-0.074-0.783-0.141-1.145-0.236c-2.252-0.602-3.246-1.676-4.029-2.465
					c-0.783-0.822-1.319-1.371-2.67-1.748c-0.24-0.064-0.49-0.115-0.766-0.173c-1.566-0.243-2.424-0.103-3.527,0.179
					c-1.103,0.281-2.303,0.803-4.022,1.06c-1.149,0.187-2.481,0.194-3.956-0.06c-0.331-0.056-0.629-0.117-0.914-0.194
					c-1.652-0.44-2.716-1.2-3.533-1.909c-0.834-0.715-1.475-1.43-2.098-1.895c-0.395-0.314-0.771-0.504-1.132-0.602
					c-0.354-0.095-0.731-0.129-1.475-0.025c-0.525,0.086-0.823,0.181-1.029,0.301c-0.234,0.113-0.377,0.23-0.525,0.42
					c-0.332,0.402-0.463,1.104-0.583,1.949c-0.132,0.822-0.274,1.767-0.995,2.713c-0.359,0.479-0.891,0.951-1.611,1.373
					c-1.675,0.99-3.544,1.293-5.088,1.355c-1.537,0.057-2.783-0.012-3.835,0.162c-0.687,0.111-1.349,0.305-2.155,0.756
					c-0.571,0.336-0.886,0.637-1.143,0.938c-0.384,0.512-0.463,1.068-0.521,1.752c-0.075,0.703-0.126,1.529-0.8,2.418
					c-0.372,0.494-0.961,1.004-1.784,1.482c-1.675,0.992-3.556,1.309-5.081,1.355c-1.544,0.061-2.784-0.01-3.842,0.162
					c-0.686,0.113-1.35,0.307-2.153,0.758c-1.089,0.637-1.587,1.062-1.86,1.426c-0.309,0.412-0.372,0.795-0.492,1.447
					c-0.098,0.658-0.252,1.512-0.795,2.645c-0.337,0.629-0.674,1.148-1.006,1.59c-0.508,0.668-0.98,1.139-1.269,1.518
					c-0.229,0.34-0.368,0.604-0.421,0.975c-0.042,0.355,0.01,0.861,0.295,1.584c0.4,0.949,1.035,1.332,1.964,1.771
					c0.917,0.424,2.255,0.779,3.461,1.543c0.796,0.51,1.465,1.215,1.819,2.115c0.525,1.246,0.119,2.311-0.526,3.121
					c-0.548,0.727-1.196,1.273-1.593,1.797c-0.432,0.604-0.638,1.109-0.323,1.98c0.377,0.943,1.012,1.324,1.95,1.75
					c0.943,0.428,2.246,0.797,3.453,1.557c0.828,0.504,1.475,1.203,1.829,2.105c0.503,1.271-0.08,2.414-0.772,3.332
					c-0.554,0.729-1.205,1.359-1.611,1.9c-0.343,0.451-0.503,0.812-0.475,1.08c0,0.264,0.114,0.488,0.669,0.863
					c0.314,0.188,0.577,0.297,0.817,0.359c0.338,0.09,0.641,0.104,1.063,0.074c0.457-0.033,1.006-0.148,1.612-0.303
					c1.234-0.338,2.727-0.863,4.516-1.139c1.205-0.188,2.549-0.248,3.949-0.012c0.429,0.08,0.801,0.16,1.16,0.258
					c2.247,0.6,3.253,1.66,4.002,2.459c0.812,0.828,1.343,1.377,2.709,1.74c0.234,0.064,0.475,0.129,0.76,0.168
					c1.561,0.26,2.424,0.105,3.527-0.178c1.109-0.279,2.31-0.801,4.03-1.059c1.132-0.17,2.475-0.193,3.955,0.061
					c0.4,0.072,0.795,0.164,1.155,0.258c2.224,0.598,3.258,1.66,4.001,2.459c0.783,0.822,1.32,1.367,2.709,1.738
					c0.212,0.059,0.452,0.123,0.761,0.172c1.166,0.207,1.962,0.262,2.572,0.252c0.577-0.006,1-0.068,1.562-0.199
					c1.045-0.242,2.571-0.814,5.311-1.24c2.052-0.311,3.544-0.346,4.676-0.395c1.114-0.035,1.691-0.072,2.503-0.309
					c0.538-0.172,1.218-0.465,2.099-0.984c0.572-0.338,0.908-0.629,1.144-0.938c0.383-0.508,0.463-1.066,0.526-1.752
					c0.068-0.699,0.143-1.521,0.816-2.408c0.35-0.504,0.938-1.012,1.789-1.484c1.669-0.99,3.551-1.311,5.081-1.357
					c1.556-0.074,2.784,0.012,3.836-0.158c0.691-0.115,1.354-0.307,2.132-0.764c0.596-0.332,0.909-0.633,1.145-0.941
					c0.389-0.508,0.463-1.064,0.525-1.752c0.092-0.689,0.144-1.52,0.816-2.408c0.378-0.494,0.961-1.004,1.79-1.482
					c1.737-1.006,3.869-1.24,5.647-1.344C137.542,145.432,139.148,145.441,140.046,145.244"/>
			</g>
			<g>
				<path fill="#86C670" d="M109.076,124.646l-45.701,25.738C69.057,145.389,83.342,134.488,109.076,124.646z"/>
			</g>
			<g>
				<path fill="#5FAB45" d="M63.645,124.961c0.303,0.08,0.56,0.223,0.703,0.424l7.596,9.938c0.35,0.445,0.012,0.969-0.72,1.174
					c-0.405,0.121-0.847,0.121-1.218,0.021c-0.303-0.084-0.566-0.232-0.715-0.434l-7.602-9.926
					c-0.332-0.438-0.018-0.969,0.726-1.188C62.82,124.855,63.267,124.857,63.645,124.961z"/>
			</g>
			<g>
				<path fill="#5FAB45" d="M114.939,120.871c0.274,0.07,0.516,0.197,0.676,0.367c0.4,0.424,0.143,0.949-0.537,1.207
					c-2.069,0.727-4.07,1.461-6.002,2.201c-25.734,9.842-40.02,20.74-45.701,25.738c-1.509,1.326-2.406,2.234-2.761,2.602
					l-0.154,0.168c-0.377,0.422-1.218,0.586-1.903,0.404c-0.801-0.252-1.052-0.793-0.663-1.23
					c0.091-0.082,15.845-17.402,55.727-31.416C114.043,120.766,114.529,120.76,114.939,120.871z"/>
			</g>
			<g>
				<path fill="#5FAB45" d="M104.914,130.168c0.08,0.023,0.166,0.053,0.246,0.086l14.879,6.211c0.656,0.266,0.816,0.814,0.365,1.221
					c-0.428,0.365-1.188,0.488-1.807,0.322c-0.086-0.021-0.164-0.049-0.244-0.084l-14.881-6.213c-0.65-0.279-0.806-0.828-0.33-1.229
					C103.537,130.125,104.291,130.002,104.914,130.168z"/>
			</g>
			<g>
				<path fill="#5FAB45" d="M81.404,142.199c0.08,0.023,0.165,0.053,0.245,0.086l14.851,6.209c0.675,0.285,0.835,0.834,0.359,1.234
					c-0.416,0.348-1.178,0.475-1.795,0.309c-0.086-0.021-0.17-0.051-0.246-0.086l-14.878-6.213
					c-0.663-0.264-0.823-0.814-0.337-1.229C80.026,142.16,80.781,142.035,81.404,142.199z"/>
			</g>
			<g>
				<path fill="#5FAB45" d="M89.275,138.199c0.074,0.023,0.148,0.045,0.223,0.074l14.852,6.205c0.674,0.285,0.812,0.832,0.359,1.232
					c-0.418,0.354-1.178,0.477-1.795,0.311c-0.086-0.023-0.172-0.049-0.246-0.082l-14.891-6.199
					c-0.651-0.277-0.806-0.832-0.331-1.229C87.852,138.146,88.623,138.027,89.275,138.199z"/>
			</g>
			<g>
				<path fill="#5FAB45" d="M97.105,134.182c0.074,0.02,0.144,0.043,0.211,0.066l14.881,6.215c0.674,0.285,0.812,0.832,0.359,1.234
					c-0.424,0.359-1.207,0.48-1.841,0.312c-0.075-0.021-0.144-0.045-0.212-0.072l-14.879-6.213c-0.65-0.277-0.807-0.828-0.332-1.227
					C95.7,134.135,96.473,134.01,97.105,134.182z"/>
			</g>
			<g>
				<path fill="#5FAB45" d="M71.469,120.951c0.309,0.082,0.566,0.23,0.715,0.432l7.608,9.924c0.349,0.445,0.012,0.969-0.731,1.188
					c-0.406,0.117-0.852,0.111-1.224,0.012c-0.303-0.08-0.56-0.227-0.709-0.424l-7.591-9.939c-0.332-0.438-0.012-0.965,0.721-1.172
					C70.658,120.848,71.098,120.852,71.469,120.951z"/>
			</g>
			<g>
				<path fill="#5FAB45" d="M87.178,112.932c0.303,0.08,0.56,0.227,0.708,0.42l7.592,9.939c0.324,0.439,0.01,0.971-0.722,1.178
					c-0.399,0.115-0.853,0.109-1.224,0.01c-0.303-0.08-0.561-0.227-0.708-0.42l-7.603-9.93c-0.354-0.443-0.012-0.967,0.731-1.189
					C86.354,112.824,86.806,112.83,87.178,112.932z"/>
			</g>
		</g>
	</g>
	<path opacity="0.1" fill="#231F20" enable-background="new    " d="M146.477,101.519c0.058-1.806-0.256-3.519-0.617-5.263
		c-0.475-2.243-1.157-4.832-3.197-7.264c-1.832-3.753-6.014-6.565-10.271-9.046c-4.474-2.609-9.387-5.196-15.877-5.67
		c-5.051-0.375-9.914,0.749-15.164,1.96l-2.226,0.503c-0.903,0.212-1.835,0.397-2.784,0.589l-0.96,0.191
		c-3.642,0.715-8.177,1.604-12.164,3.27c-0.954,0.406-1.966,0.917-3.101,1.569c-1.606,0.929-3.204,2-4.413,2.83
		c-1.409,0.96-2.927,1.915-4.505,2.83c-1.528,0.875-3.126,1.726-4.764,2.529c-1.715,0.849-3.492,1.741-5.057,2.641
		c-1.242,0.721-2.221,1.363-2.98,1.967c-2.995,2.346-4.676,4.961-6.133,7.239l-0.558,0.837c-0.347,0.529-0.687,1.047-1.069,1.557
		l-1.191,1.586c-2.112,2.742-4.297,5.578-4.391,8.688l-0.342,12.096c-0.005,0.252,0,0.504,0.021,0.746
		c0.316,3.758,4.437,7.742,7.094,9.023c1.053,0.576,2.064,1.693,3.145,2.887c1.406,1.508,2.998,3.223,5.355,4.596
		c4.971,2.896,9.426,4.732,16.277,4.941c1.86,0.061,3.798,0.123,5.787,0.123c3.084,0,7.734-0.133,12.457-1.293
		c3.59-0.871,6.642-2.32,10.094-3.961l0.67-0.316c1.257-0.598,2.539-1.209,3.914-1.781c1.51-0.645,3.182-1.24,4.963-1.869
		l0.33-0.119c3.152-1.145,6.414-2.326,9.277-3.979c2.867-1.652,4.873-3.527,6.969-5.482c1.006-0.947,1.973-1.85,2.979-2.66
		c1.114-0.865,2.264-1.682,3.409-2.492c2.707-1.906,5.262-3.707,6.776-5.928c1.229-1.811,1.863-3.766,1.926-5.982l0.344-12.092
		L146.477,101.519z"/>
	<g>
		<g>
			<path fill="#EBA53C" d="M143.842,93.636c-0.445-2.099-1.072-4.533-3.007-6.768c-1.612-3.481-5.662-6.191-9.772-8.586
				c-4.34-2.532-9.064-5.024-15.246-5.476c-4.877-0.357-9.666,0.76-14.733,1.932l-2.215,0.5c-1.222,0.283-2.495,0.525-3.793,0.792
				c-3.8,0.743-8.08,1.595-11.875,3.178c-0.967,0.412-1.955,0.92-2.938,1.486c-1.466,0.852-2.933,1.823-4.321,2.772
				c-1.44,0.983-2.984,1.955-4.602,2.893c-1.561,0.892-3.184,1.76-4.848,2.572c-1.686,0.834-3.432,1.709-4.967,2.595
				c-1.074,0.623-2.047,1.246-2.812,1.852c-2.783,2.179-4.333,4.58-5.824,6.908c-0.566,0.832-1.075,1.662-1.664,2.443
				c-0.4,0.543-0.806,1.062-1.206,1.605c-2.218,2.881-4.304,5.613-4.071,8.428c-0.014-0.201-0.02-0.396-0.016-0.59l-0.342,12.09
				c-0.004,0.197-0.001,0.395,0.016,0.59c0.26,3.092,3.91,6.688,6.34,7.861c1.24,0.68,2.307,1.844,3.427,3.078
				c1.357,1.459,2.89,3.133,5.106,4.42c4.785,2.791,9.016,4.549,15.588,4.748c5.497,0.178,11.693,0.385,17.85-1.131
				c3.525-0.854,6.566-2.318,9.816-3.857c1.492-0.709,3.008-1.447,4.631-2.121c1.537-0.658,3.24-1.266,5.035-1.898
				c3.201-1.162,6.531-2.35,9.381-3.992c2.791-1.611,4.771-3.482,6.693-5.277c1.034-0.979,2.028-1.904,3.086-2.758
				c1.133-0.877,2.299-1.701,3.452-2.52c2.603-1.836,5.054-3.562,6.421-5.568c1.199-1.754,1.625-3.5,1.674-5.197l0.344-12.094
				c-0.006,0.201-0.034,0.396-0.053,0.593C144.55,97.223,144.195,95.363,143.842,93.636z"/>
			<path fill="#C57729" d="M81.804,146.545c-1.989,0-3.927-0.062-5.787-0.123c-6.851-0.209-11.307-2.047-16.276-4.941
				c-2.358-1.371-3.95-3.086-5.356-4.596c-1.08-1.191-2.092-2.311-3.144-2.887c-2.658-1.279-6.778-5.266-7.094-9.021
				c-0.021-0.244-0.027-0.496-0.021-0.746l0.342-12.098c0.092-3.108,2.277-5.943,4.39-8.688l1.192-1.586
				c0.383-0.509,0.723-1.025,1.068-1.555l0.557-0.837c1.458-2.278,3.139-4.894,6.134-7.239c0.761-0.604,1.737-1.246,2.981-1.966
				c1.562-0.9,3.341-1.792,5.056-2.641c1.638-0.803,3.235-1.655,4.765-2.529c1.577-0.915,3.096-1.869,4.504-2.83
				c1.209-0.829,2.807-1.9,4.413-2.83c1.135-0.651,2.146-1.163,3.101-1.569c3.987-1.667,8.523-2.555,12.164-3.27l0.961-0.192
				c0.948-0.191,1.88-0.377,2.783-0.588l2.224-0.503c5.247-1.211,10.114-2.335,15.165-1.96c6.49,0.475,11.403,3.061,15.877,5.67
				c4.258,2.481,8.439,5.293,10.271,9.046c2.041,2.432,2.724,5.021,3.197,7.266c0.36,1.744,0.676,3.455,0.617,5.262l0.022-0.004
				l-0.343,12.094c-0.062,2.217-0.697,4.172-1.926,5.98c-1.516,2.223-4.07,4.021-6.776,5.93c-1.146,0.811-2.296,1.625-3.41,2.49
				c-1.006,0.812-1.972,1.713-2.979,2.66c-2.095,1.955-4.101,3.83-6.968,5.482c-2.862,1.65-6.125,2.836-9.276,3.979l-0.332,0.121
				c-1.779,0.627-3.453,1.223-4.961,1.869c-1.375,0.57-2.658,1.182-3.916,1.779l-0.668,0.316c-3.453,1.643-6.506,3.09-10.096,3.961
				C89.538,146.412,84.888,146.545,81.804,146.545z M47.382,112.66l-0.331,11.645c-0.002,0.137-0.002,0.279,0.011,0.422
				c0.206,2.424,3.438,5.666,5.517,6.672c1.551,0.846,2.732,2.15,3.875,3.414c1.34,1.438,2.777,2.98,4.762,4.137
				c4.693,2.738,8.631,4.357,14.896,4.549c1.829,0.059,3.735,0.121,5.692,0.121c2.933,0,7.346-0.123,11.762-1.207
				c3.301-0.803,6.222-2.188,9.313-3.658l0.886-0.422c1.303-0.617,2.629-1.246,4.035-1.832c1.551-0.664,3.281-1.283,5.11-1.93
				l0.319-0.115c3.035-1.102,6.174-2.24,8.817-3.76c2.575-1.49,4.455-3.248,6.279-4.945c1.2-1.137,2.224-2.086,3.312-2.961
				c1.17-0.908,2.353-1.75,3.523-2.578c2.498-1.76,4.842-3.412,6.061-5.195c0.92-1.35,1.37-2.754,1.416-4.418l0.332-11.576h-0.037
				c0.135-1.669-0.175-3.361-0.529-5.09c-0.428-2.016-0.987-4.153-2.68-6.102l-0.221-0.346c-1.439-3.112-5.262-5.65-9.181-7.934
				c-4.179-2.438-8.748-4.855-14.613-5.282c-4.651-0.329-9.271,0.735-14.222,1.878l-2.301,0.52
				c-0.924,0.217-1.883,0.409-2.867,0.606l-0.957,0.191c-3.706,0.729-7.896,1.549-11.601,3.098c-0.84,0.357-1.752,0.815-2.778,1.403
				c-1.429,0.829-2.863,1.781-4.221,2.709c-1.469,1.006-3.05,2.001-4.696,2.95c-1.589,0.915-3.243,1.795-4.933,2.624
				c-1.658,0.817-3.373,1.678-4.882,2.548c-1.12,0.646-1.983,1.213-2.636,1.732c-2.611,2.043-4.08,4.334-5.504,6.551l-0.552,0.832
				c-0.38,0.58-0.757,1.151-1.172,1.701l-1.194,1.592c-1.855,2.405-3.747,4.863-3.805,7.021c-0.002,0.137,0,0.279,0.012,0.436
				H47.382L47.382,112.66z"/>
		</g>
		<g>
			<g>
				<g>
					<path fill="#C57729" d="M87.435,135.564c-2.4,0-4.747-0.115-6.971-0.225c-5.779-0.279-9.526-1.953-14.05-4.756
						c-2.016-1.24-3.376-2.789-4.693-4.285c-1.338-1.545-2.363-2.738-3.838-3.574c-0.869-0.445-5.619-3.004-8.478-6.762
						c-0.491-0.641-0.366-1.561,0.276-2.051c0.644-0.488,1.561-0.361,2.05,0.277c1.921,2.525,5.265,4.791,7.54,5.959
						c1.969,1.115,3.264,2.621,4.521,4.074c1.354,1.537,2.515,2.855,4.161,3.875c4.213,2.605,7.477,4.068,12.649,4.316
						c5.136,0.252,10.946,0.541,16.314-0.701c3.006-0.699,5.857-2.025,8.88-3.434c1.58-0.736,3.175-1.48,4.851-2.18
						c1.565-0.639,3.258-1.232,4.898-1.805l0.721-0.252c2.948-1.027,5.996-2.092,8.407-3.465c2.332-1.318,4.119-2.969,5.845-4.562
						l0.639-0.586c0.972-0.9,1.914-1.768,2.967-2.59c1.059-0.822,2.175-1.602,3.27-2.365l0.406-0.281
						c0.663-0.46,1.577-0.298,2.034,0.359c0.463,0.662,0.304,1.578-0.358,2.041l-0.41,0.279c-1.051,0.734-2.125,1.48-3.141,2.275
						c-0.986,0.77-1.869,1.584-2.783,2.43l-0.636,0.586c-1.849,1.705-3.761,3.477-6.388,4.961c-2.645,1.5-5.815,2.609-8.887,3.68
						l-0.719,0.252c-1.593,0.561-3.236,1.131-4.744,1.748c-1.631,0.682-3.19,1.406-4.717,2.117c-3.182,1.48-6.168,2.869-9.475,3.639
						C94.227,135.34,90.777,135.564,87.435,135.564z"/>
				</g>
			</g>
		</g>
		<g>
			<path fill="#C57729" d="M76.766,100.203c-0.157,0-0.312-0.027-0.467-0.08c-0.766-0.256-1.177-1.08-0.92-1.846
				c0.132-0.4,3.39-9.812,14.131-12.501c6.899-1.732,10.682-1.678,14.336-1.626c1.764,0.02,3.43,0.046,5.404-0.14
				c0.835-0.097,1.521,0.515,1.598,1.315c0.074,0.806-0.515,1.521-1.316,1.595c-2.135,0.206-3.959,0.177-5.725,0.154
				c-3.471-0.043-7.061-0.094-13.585,1.541c-9.146,2.292-11.955,10.257-12.069,10.595C77.945,99.814,77.374,100.203,76.766,100.203z
				"/>
		</g>
	</g>
	<g>
		<g opacity="0.1">
			<g>
				<path fill="#231F20" d="M117.986,72.023c1.339,0.36,2.406,0.949,3.481,1.629c1.068,0.689,2.099,1.492,3.121,2.349
					c2.046,1.695,4.087,3.59,5.944,4.933c1.178,0.872,2.344,1.486,2.994,1.658c0.229,0.063,0.354,0.086,0.424,0.077
					c0.646-0.128,1.224-0.111,1.715,0.017c0.492,0.131,0.893,0.38,1.086,0.709c0.418,0.651-0.154,1.38-1.246,1.644
					c-0.628,0.148-1.309,0.206-1.932,0.177c-0.641-0.034-1.225-0.137-1.772-0.286c-1.319-0.354-2.399-0.949-3.479-1.626
					c-1.053-0.686-2.098-1.495-3.121-2.35c-2.047-1.695-4.088-3.592-5.928-4.93c-1.201-0.875-2.36-1.486-3.014-1.663
					c-0.229-0.063-0.349-0.069-0.423-0.078c-0.217,0.072-0.31,0.135-0.396,0.249c-0.239,0.292-0.428,0.895-0.484,1.675
					c-0.034,0.783,0.04,1.723,0.184,2.732c0.273,2.015,0.776,4.292,0.846,6.279c0.022,1.329-0.074,2.524-0.875,3.61
					c-0.245,0.326-0.576,0.652-1.012,0.926c-0.445,0.286-1.018,0.521-1.646,0.669c-0.629,0.146-1.313,0.2-1.949,0.171
					c-0.642-0.034-1.229-0.128-1.767-0.271c-1.309-0.363-2.4-0.946-3.471-1.638c-1.074-0.688-2.098-1.492-3.125-2.349
					c-2.041-1.695-4.082-3.59-5.922-4.927c-1.201-0.877-2.361-1.492-3.014-1.664c-0.229-0.063-0.35-0.068-0.43-0.077
					c-0.211,0.066-0.303,0.134-0.395,0.249c-0.212,0.28-0.423,0.892-0.451,1.667c-0.058,0.78,0.018,1.718,0.159,2.729
					c0.271,2.023,0.783,4.293,0.847,6.276c0.022,1.333-0.062,2.543-0.862,3.627c-0.246,0.322-0.571,0.64-1.019,0.926
					c-0.457,0.277-1.006,0.512-1.635,0.656c-0.635,0.158-1.314,0.203-1.949,0.173c-0.646-0.021-1.229-0.129-1.761-0.272
					c-1.332-0.369-2.406-0.943-3.476-1.635c-1.068-0.691-2.098-1.495-3.121-2.35c-2.046-1.697-4.087-3.589-5.928-4.929
					c-1.199-0.877-2.36-1.489-3.012-1.667c-0.229-0.057-0.349-0.065-0.406-0.068c-0.234,0.063-0.326,0.126-0.411,0.24
					c-0.218,0.286-0.435,0.897-0.458,1.669c-0.057,0.78,0.018,1.721,0.16,2.729c0.27,2.026,0.795,4.298,0.869,6.285
					c0.023,1.329-0.086,2.534-0.886,3.619c-0.251,0.325-0.571,0.64-1.012,0.926c-0.44,0.274-1.012,0.515-1.641,0.657
					c-0.629,0.148-1.31,0.205-1.949,0.172c-0.646-0.023-1.229-0.126-1.761-0.27c-1.314-0.365-2.406-0.949-3.475-1.638
					c-1.07-0.688-2.093-1.495-3.121-2.349c-2.047-1.695-4.088-3.59-5.928-4.93c-1.201-0.875-2.361-1.49-3.013-1.665
					c-0.228-0.06-0.345-0.068-0.407-0.068c-0.654,0.125-1.232,0.108-1.721-0.023c-0.486-0.131-0.887-0.375-1.08-0.703
					c-0.415-0.657,0.143-1.389,1.246-1.646c0.629-0.149,1.297-0.206,1.934-0.177c0.64,0.034,1.217,0.14,1.754,0.28
					c1.344,0.36,2.406,0.949,3.481,1.629c1.069,0.691,2.093,1.496,3.127,2.349c2.034,1.703,4.081,3.59,5.938,4.934
					c1.178,0.883,2.338,1.494,2.99,1.668c0.229,0.063,0.365,0.075,0.423,0.077c0.223-0.077,0.303-0.131,0.395-0.249
					c0.239-0.289,0.429-0.892,0.479-1.675c0.029-0.771-0.033-1.722-0.177-2.731c-0.274-2.013-0.783-4.292-0.846-6.276
					c-0.028-1.332,0.074-2.526,0.857-3.615c0.245-0.326,0.577-0.652,1.028-0.923c0.446-0.286,1.018-0.52,1.646-0.668
					c0.629-0.146,1.298-0.206,1.932-0.174c0.641,0.031,1.219,0.137,1.75,0.28c1.343,0.36,2.412,0.949,3.486,1.626
					c1.069,0.691,2.092,1.498,3.121,2.349c2.041,1.707,4.087,3.59,5.945,4.933c1.171,0.883,2.332,1.498,2.983,1.67
					c0.234,0.062,0.366,0.074,0.429,0.079c0.223-0.079,0.303-0.131,0.395-0.249c0.211-0.283,0.429-0.895,0.463-1.678
					c0.046-0.769-0.018-1.721-0.166-2.729c-0.269-2.015-0.783-4.284-0.852-6.268c-0.018-1.34,0.062-2.541,0.869-3.624
					c0.245-0.326,0.565-0.643,1.012-0.926c0.457-0.28,1.019-0.526,1.635-0.66c0.64-0.157,1.313-0.203,1.961-0.18
					c0.634,0.031,1.218,0.137,1.755,0.28c1.331,0.372,2.4,0.949,3.48,1.626c1.068,0.688,2.098,1.495,3.121,2.349
					c2.035,1.707,4.08,3.593,5.938,4.933c1.166,0.857,2.298,1.475,2.962,1.652c0.269,0.072,0.395,0.092,0.457,0.094
					c0.239-0.074,0.313-0.143,0.399-0.257c0.229-0.28,0.429-0.892,0.476-1.664c0.051-0.78-0.035-1.727-0.166-2.727
					c-0.281-2.032-0.796-4.299-0.863-6.285c-0.022-1.329,0.086-2.538,0.886-3.621c0.245-0.326,0.571-0.64,1.012-0.926
					c0.463-0.28,1.019-0.521,1.646-0.669c0.629-0.146,1.31-0.203,1.949-0.171C116.873,71.778,117.45,71.88,117.986,72.023z"/>
			</g>
			<g>
				<path fill="#231F20" d="M117.986,94.391c1.339,0.359,2.406,0.945,3.481,1.626c1.068,0.688,2.099,1.495,3.121,2.347
					c2.046,1.698,4.087,3.592,5.944,4.934c1.178,0.873,2.344,1.486,2.994,1.662c0.229,0.062,0.354,0.08,0.424,0.074
					c0.646-0.129,1.224-0.113,1.715,0.019c0.492,0.131,0.893,0.38,1.086,0.709c0.418,0.651-0.154,1.383-1.246,1.646
					c-0.628,0.146-1.309,0.2-1.932,0.176c-0.641-0.031-1.225-0.142-1.772-0.287c-1.319-0.354-2.399-0.945-3.479-1.625
					c-1.053-0.687-2.098-1.496-3.121-2.35c-2.047-1.695-4.088-3.59-5.928-4.928c-1.201-0.877-2.36-1.492-3.014-1.663
					c-0.229-0.063-0.349-0.069-0.423-0.08c-0.217,0.068-0.31,0.134-0.396,0.249c-0.239,0.289-0.428,0.895-0.484,1.672
					c-0.034,0.786,0.04,1.727,0.184,2.735c0.273,2.015,0.776,4.293,0.846,6.278c0.022,1.332-0.074,2.526-0.875,3.609
					c-0.245,0.324-0.576,0.652-1.012,0.926c-0.445,0.283-1.018,0.523-1.646,0.67s-1.313,0.203-1.949,0.168
					c-0.642-0.027-1.229-0.125-1.767-0.268c-1.309-0.367-2.4-0.947-3.471-1.635c-1.074-0.693-2.098-1.496-3.125-2.352
					c-2.041-1.697-4.082-3.59-5.922-4.93c-1.201-0.878-2.361-1.488-3.014-1.667c-0.229-0.06-0.35-0.065-0.43-0.075
					c-0.211,0.069-0.303,0.133-0.395,0.246c-0.212,0.286-0.423,0.895-0.451,1.67c-0.058,0.779,0.018,1.721,0.159,2.729
					c0.271,2.025,0.783,4.293,0.847,6.279c0.022,1.328-0.062,2.541-0.862,3.623c-0.246,0.326-0.571,0.641-1.019,0.926
					c-0.457,0.281-1.006,0.514-1.635,0.658c-0.635,0.16-1.314,0.205-1.949,0.172c-0.646-0.023-1.229-0.127-1.761-0.27
					c-1.332-0.371-2.406-0.949-3.476-1.637c-1.068-0.689-2.098-1.496-3.121-2.352c-2.046-1.693-4.087-3.592-5.928-4.93
					c-1.199-0.878-2.36-1.488-3.012-1.664c-0.229-0.062-0.349-0.068-0.406-0.07c-0.234,0.064-0.326,0.129-0.411,0.242
					c-0.218,0.28-0.435,0.893-0.458,1.67c-0.057,0.776,0.018,1.717,0.16,2.727c0.27,2.025,0.795,4.299,0.869,6.281
					c0.023,1.332-0.086,2.539-0.886,3.621c-0.251,0.326-0.571,0.645-1.012,0.93c-0.44,0.273-1.012,0.51-1.641,0.656
					s-1.31,0.203-1.949,0.172c-0.646-0.021-1.229-0.129-1.761-0.27c-1.314-0.367-2.406-0.947-3.475-1.639
					c-1.07-0.689-2.093-1.492-3.121-2.35c-2.047-1.695-4.088-3.59-5.928-4.928c-1.201-0.881-2.361-1.492-3.013-1.664
					c-0.228-0.062-0.345-0.068-0.407-0.074c-0.654,0.127-1.232,0.115-1.721-0.016c-0.486-0.133-0.887-0.379-1.08-0.709
					c-0.415-0.652,0.143-1.385,1.246-1.645c0.629-0.146,1.297-0.209,1.934-0.176c0.64,0.032,1.217,0.139,1.754,0.281
					c1.344,0.359,2.406,0.945,3.481,1.625c1.069,0.689,2.093,1.496,3.127,2.35c2.034,1.707,4.081,3.594,5.938,4.936
					c1.178,0.883,2.338,1.494,2.99,1.672c0.229,0.059,0.365,0.07,0.423,0.074c0.223-0.08,0.303-0.133,0.395-0.246
					c0.239-0.291,0.429-0.896,0.479-1.676c0.029-0.773-0.033-1.725-0.177-2.732c-0.274-2.014-0.783-4.295-0.846-6.279
					c-0.028-1.328,0.074-2.525,0.857-3.615c0.245-0.325,0.577-0.65,1.028-0.92c0.446-0.285,1.018-0.522,1.646-0.668
					c0.629-0.148,1.298-0.209,1.932-0.178c0.641,0.034,1.219,0.137,1.75,0.279c1.343,0.359,2.412,0.949,3.486,1.629
					c1.069,0.691,2.092,1.492,3.121,2.35c2.041,1.703,4.087,3.59,5.945,4.936c1.171,0.879,2.332,1.494,2.983,1.668
					c0.234,0.062,0.366,0.074,0.429,0.078c0.223-0.08,0.303-0.137,0.395-0.25c0.211-0.279,0.429-0.893,0.463-1.676
					c0.046-0.77-0.018-1.721-0.166-2.73c-0.269-2.013-0.783-4.281-0.852-6.27c-0.018-1.34,0.062-2.541,0.869-3.627
					c0.245-0.322,0.565-0.639,1.012-0.926c0.457-0.279,1.019-0.521,1.635-0.656c0.64-0.155,1.313-0.203,1.961-0.184
					c0.634,0.034,1.218,0.141,1.755,0.283c1.331,0.369,2.4,0.949,3.48,1.626c1.068,0.69,2.098,1.495,3.121,2.349
					c2.035,1.707,4.08,3.59,5.938,4.935c1.166,0.856,2.298,1.475,2.962,1.651c0.269,0.068,0.395,0.092,0.457,0.098
					c0.239-0.074,0.313-0.145,0.399-0.262c0.229-0.275,0.429-0.895,0.476-1.662c0.051-0.78-0.035-1.725-0.166-2.729
					c-0.281-2.028-0.796-4.298-0.863-6.282c-0.022-1.332,0.086-2.537,0.886-3.621c0.245-0.324,0.571-0.644,1.012-0.927
					c0.463-0.276,1.019-0.522,1.646-0.669c0.629-0.146,1.31-0.203,1.949-0.168C116.873,94.14,117.45,94.248,117.986,94.391z"/>
			</g>
		</g>
		<g>
			<g>
				<path fill="#E3D2B4" d="M117.986,69.097c1.339,0.36,2.406,0.949,3.481,1.629c1.068,0.689,2.099,1.492,3.121,2.35
					c2.046,1.695,4.087,3.589,5.944,4.933c1.178,0.872,2.344,1.486,2.994,1.658c0.229,0.063,0.354,0.086,0.424,0.077
					c0.646-0.128,1.224-0.111,1.715,0.018c0.492,0.131,0.893,0.38,1.086,0.708c0.418,0.652-0.154,1.38-1.246,1.644
					c-0.628,0.148-1.309,0.206-1.932,0.177c-0.641-0.035-1.225-0.137-1.772-0.286c-1.319-0.354-2.399-0.949-3.479-1.626
					c-1.053-0.686-2.098-1.495-3.121-2.35c-2.047-1.695-4.088-3.592-5.928-4.93c-1.201-0.875-2.36-1.486-3.014-1.663
					c-0.229-0.063-0.349-0.069-0.423-0.077c-0.217,0.071-0.31,0.134-0.396,0.249c-0.239,0.292-0.428,0.895-0.484,1.675
					c-0.034,0.783,0.04,1.724,0.184,2.732c0.273,2.015,0.776,4.292,0.846,6.279c0.022,1.329-0.074,2.523-0.875,3.609
					c-0.245,0.326-0.576,0.652-1.012,0.926c-0.445,0.286-1.018,0.52-1.646,0.668c-0.629,0.146-1.313,0.2-1.949,0.172
					c-0.642-0.035-1.229-0.129-1.767-0.271c-1.309-0.363-2.4-0.946-3.471-1.638c-1.074-0.689-2.098-1.492-3.125-2.35
					c-2.041-1.695-4.082-3.59-5.922-4.927c-1.201-0.877-2.361-1.492-3.014-1.664c-0.229-0.062-0.35-0.068-0.43-0.077
					c-0.211,0.066-0.303,0.135-0.395,0.249c-0.212,0.28-0.423,0.892-0.451,1.666c-0.058,0.78,0.018,1.718,0.159,2.729
					c0.271,2.023,0.783,4.293,0.847,6.276c0.022,1.332-0.062,2.543-0.862,3.627c-0.246,0.322-0.571,0.64-1.019,0.926
					c-0.457,0.277-1.006,0.512-1.635,0.656c-0.635,0.158-1.314,0.203-1.949,0.172c-0.646-0.02-1.229-0.129-1.761-0.271
					c-1.332-0.368-2.406-0.942-3.476-1.635c-1.068-0.692-2.098-1.495-3.121-2.35c-2.046-1.698-4.087-3.59-5.928-4.93
					c-1.199-0.877-2.36-1.489-3.012-1.666c-0.229-0.057-0.349-0.066-0.406-0.069c-0.234,0.063-0.326,0.126-0.411,0.24
					c-0.218,0.286-0.435,0.897-0.458,1.669c-0.057,0.78,0.018,1.721,0.16,2.729c0.27,2.026,0.795,4.299,0.869,6.284
					c0.023,1.33-0.086,2.535-0.886,3.619c-0.251,0.326-0.571,0.64-1.012,0.926c-0.44,0.273-1.012,0.515-1.641,0.658
					c-0.629,0.147-1.31,0.205-1.949,0.17c-0.646-0.022-1.229-0.125-1.761-0.269c-1.314-0.366-2.406-0.948-3.475-1.638
					c-1.07-0.689-2.093-1.495-3.121-2.35c-2.047-1.695-4.088-3.59-5.928-4.931c-1.201-0.875-2.361-1.489-3.013-1.663
					c-0.228-0.06-0.345-0.069-0.407-0.069c-0.654,0.126-1.232,0.109-1.721-0.023c-0.486-0.131-0.887-0.375-1.08-0.703
					c-0.415-0.657,0.143-1.389,1.246-1.646c0.629-0.148,1.297-0.206,1.934-0.177c0.64,0.034,1.217,0.14,1.754,0.28
					c1.344,0.36,2.406,0.949,3.481,1.629c1.069,0.692,2.093,1.495,3.127,2.349c2.034,1.704,4.081,3.59,5.938,4.933
					c1.178,0.883,2.338,1.495,2.99,1.669c0.229,0.062,0.365,0.074,0.423,0.077c0.223-0.077,0.303-0.132,0.395-0.249
					c0.239-0.289,0.429-0.893,0.479-1.676c0.029-0.771-0.033-1.719-0.177-2.731c-0.274-2.012-0.783-4.293-0.846-6.276
					c-0.028-1.332,0.074-2.527,0.857-3.616c0.245-0.326,0.577-0.651,1.028-0.923c0.446-0.286,1.018-0.521,1.646-0.669
					c0.629-0.146,1.298-0.206,1.932-0.174c0.641,0.031,1.219,0.137,1.75,0.28c1.343,0.36,2.412,0.949,3.486,1.626
					c1.069,0.692,2.092,1.498,3.121,2.349c2.041,1.707,4.087,3.59,5.945,4.933c1.171,0.883,2.332,1.498,2.983,1.669
					c0.234,0.062,0.366,0.074,0.429,0.08c0.223-0.08,0.303-0.132,0.395-0.249c0.211-0.283,0.429-0.895,0.463-1.678
					c0.046-0.769-0.018-1.72-0.166-2.729c-0.269-2.015-0.783-4.284-0.852-6.268c-0.018-1.34,0.062-2.541,0.869-3.624
					c0.245-0.326,0.565-0.643,1.012-0.926c0.457-0.28,1.019-0.526,1.635-0.66c0.64-0.157,1.313-0.203,1.961-0.18
					c0.634,0.031,1.218,0.137,1.755,0.28c1.331,0.372,2.4,0.949,3.48,1.626c1.068,0.689,2.098,1.495,3.121,2.349
					c2.035,1.707,4.08,3.593,5.938,4.933c1.166,0.857,2.298,1.475,2.962,1.652c0.269,0.072,0.395,0.092,0.457,0.095
					c0.239-0.075,0.313-0.143,0.399-0.257c0.229-0.28,0.429-0.892,0.476-1.664c0.051-0.78-0.035-1.726-0.166-2.727
					c-0.281-2.032-0.796-4.298-0.863-6.285c-0.022-1.329,0.086-2.538,0.886-3.622c0.245-0.326,0.571-0.64,1.012-0.926
					c0.463-0.28,1.019-0.52,1.646-0.669c0.629-0.146,1.31-0.203,1.949-0.171C116.873,68.851,117.45,68.954,117.986,69.097z"/>
			</g>
			<g>
				<path fill="#E3D2B4" d="M117.986,91.463c1.339,0.361,2.406,0.947,3.481,1.627c1.068,0.689,2.099,1.494,3.121,2.347
					c2.046,1.698,4.087,3.593,5.944,4.933c1.178,0.875,2.344,1.486,2.994,1.664c0.229,0.06,0.354,0.08,0.424,0.074
					c0.646-0.129,1.224-0.115,1.715,0.018c0.492,0.131,0.893,0.379,1.086,0.709c0.418,0.65-0.154,1.383-1.246,1.646
					c-0.628,0.146-1.309,0.2-1.932,0.175c-0.641-0.031-1.225-0.14-1.772-0.285c-1.319-0.354-2.399-0.945-3.479-1.627
					c-1.053-0.686-2.098-1.494-3.121-2.349c-2.047-1.694-4.088-3.59-5.928-4.929c-1.201-0.877-2.36-1.491-3.014-1.662
					c-0.229-0.062-0.349-0.069-0.423-0.08c-0.217,0.068-0.31,0.134-0.396,0.249c-0.239,0.289-0.428,0.896-0.484,1.672
					c-0.034,0.786,0.04,1.728,0.184,2.735c0.273,2.015,0.776,4.293,0.846,6.279c0.022,1.332-0.074,2.525-0.875,3.608
					c-0.245,0.323-0.576,0.651-1.012,0.926c-0.445,0.283-1.018,0.522-1.646,0.669c-0.629,0.146-1.313,0.203-1.949,0.17
					c-0.642-0.029-1.229-0.127-1.767-0.27c-1.309-0.366-2.4-0.946-3.471-1.635c-1.074-0.691-2.098-1.496-3.125-2.351
					c-2.041-1.696-4.082-3.59-5.922-4.93c-1.201-0.877-2.361-1.489-3.014-1.666c-0.229-0.06-0.35-0.065-0.43-0.074
					c-0.211,0.067-0.303,0.132-0.395,0.246c-0.212,0.286-0.423,0.896-0.451,1.669c-0.058,0.78,0.018,1.721,0.159,2.729
					c0.271,2.026,0.783,4.293,0.847,6.279c0.022,1.33-0.062,2.541-0.862,3.625c-0.246,0.326-0.571,0.641-1.019,0.926
					c-0.457,0.279-1.006,0.512-1.635,0.656c-0.635,0.16-1.314,0.207-1.949,0.172c-0.646-0.021-1.229-0.125-1.761-0.268
					c-1.332-0.373-2.406-0.949-3.476-1.639c-1.068-0.688-2.098-1.496-3.121-2.35c-2.046-1.695-4.087-3.594-5.928-4.931
					c-1.199-0.878-2.36-1.489-3.012-1.664c-0.229-0.062-0.349-0.067-0.406-0.071c-0.234,0.065-0.326,0.129-0.411,0.243
					c-0.218,0.28-0.435,0.892-0.458,1.669c-0.057,0.777,0.018,1.719,0.16,2.727c0.27,2.027,0.795,4.299,0.869,6.283
					c0.023,1.332-0.086,2.537-0.886,3.621c-0.251,0.326-0.571,0.643-1.012,0.928c-0.44,0.275-1.012,0.51-1.641,0.658
					c-0.629,0.146-1.31,0.203-1.949,0.172c-0.646-0.021-1.229-0.129-1.761-0.271c-1.314-0.365-2.406-0.945-3.475-1.639
					c-1.07-0.688-2.093-1.49-3.121-2.35c-2.043-1.693-4.084-3.588-5.924-4.926c-1.201-0.881-2.361-1.492-3.013-1.664
					c-0.228-0.062-0.345-0.068-0.407-0.074c-0.654,0.127-1.232,0.114-1.721-0.017c-0.486-0.132-0.887-0.378-1.08-0.709
					c-0.415-0.651,0.143-1.384,1.246-1.644c0.629-0.146,1.297-0.209,1.934-0.174c0.64,0.03,1.217,0.137,1.754,0.278
					c1.344,0.36,2.406,0.946,3.481,1.627c1.069,0.688,2.093,1.495,3.127,2.349c2.034,1.707,4.081,3.594,5.938,4.936
					c1.178,0.883,2.338,1.492,2.99,1.672c0.229,0.059,0.365,0.07,0.423,0.072c0.223-0.08,0.303-0.131,0.395-0.244
					c0.239-0.291,0.429-0.896,0.479-1.676c0.029-0.773-0.033-1.725-0.177-2.732c-0.274-2.016-0.783-4.295-0.846-6.279
					c-0.028-1.328,0.074-2.525,0.857-3.615c0.245-0.324,0.577-0.65,1.028-0.92c0.446-0.285,1.018-0.522,1.646-0.668
					c0.629-0.148,1.298-0.209,1.932-0.178c0.641,0.034,1.219,0.137,1.75,0.28c1.343,0.36,2.412,0.948,3.486,1.629
					c1.069,0.69,2.092,1.491,3.121,2.349c2.041,1.705,4.087,3.59,5.945,4.934c1.171,0.881,2.332,1.494,2.983,1.67
					c0.234,0.062,0.366,0.074,0.429,0.076c0.223-0.08,0.303-0.135,0.395-0.248c0.211-0.279,0.429-0.893,0.463-1.676
					c0.046-0.771-0.018-1.721-0.166-2.731c-0.269-2.013-0.783-4.281-0.852-6.269c-0.018-1.34,0.062-2.541,0.869-3.627
					c0.245-0.322,0.565-0.64,1.012-0.926c0.457-0.279,1.019-0.52,1.635-0.656c0.64-0.154,1.313-0.203,1.961-0.184
					c0.634,0.034,1.218,0.141,1.755,0.283c1.332,0.369,2.4,0.949,3.48,1.626c1.068,0.692,2.098,1.495,3.121,2.351
					c2.035,1.707,4.08,3.588,5.939,4.932c1.166,0.857,2.297,1.476,2.961,1.652c0.269,0.068,0.395,0.092,0.457,0.098
					c0.239-0.074,0.313-0.145,0.399-0.262c0.229-0.275,0.429-0.895,0.476-1.662c0.051-0.781-0.035-1.725-0.166-2.729
					c-0.281-2.028-0.795-4.298-0.863-6.282c-0.022-1.332,0.086-2.537,0.886-3.621c0.246-0.322,0.571-0.643,1.012-0.926
					c0.464-0.277,1.019-0.523,1.646-0.668c0.63-0.146,1.31-0.203,1.949-0.169C116.873,91.213,117.45,91.32,117.986,91.463z"/>
			</g>
		</g>
	</g>
	<g>
		<g opacity="0.1">
			<g>
				<path fill="#231F20" d="M141.893,59.63c0,0.045-0.018,0.103-0.018,0.148c-0.059-9.832-11.718-18.396-33.846-24.322
					c-29.695-7.957-52.879-4.41-63.607,9.737c-2.85,3.756-4.135,7.468-3.976,11.046c-0.005-0.108-0.034-0.217-0.037-0.326
					l0.181,10.192c0.177,10.066,11.879,19.058,33.297,24.797c28.815,7.719,53.39,3.698,64.147-10.483
					c2.767-3.65,4.093-7.203,4.034-10.601L141.893,59.63z"/>
				<path fill="#231F20" d="M101.17,96.049h-0.005c-8.638,0-17.926-1.315-27.609-3.91C51.663,86.273,39.504,77.037,39.309,66.13
					l-0.177-10.192c-0.003-0.091,0.006-0.177,0.022-0.263c-0.006-3.741,1.424-7.525,4.25-11.255
					c7.15-9.426,19.617-14.407,36.045-14.407c8.757,0,18.49,1.415,28.912,4.209c22.44,6.014,34.457,14.716,34.787,25.188
					c0.013,0.063,0.019,0.128,0.019,0.197l0.183,10.192c0.063,3.715-1.383,7.551-4.299,11.392
					C131.792,90.771,118.33,96.049,101.17,96.049z M41.698,56.493l0.171,9.591c0.166,9.523,11.961,18.118,32.35,23.582
					c9.466,2.536,18.532,3.825,26.946,3.825h0.005c16.344,0,29.072-4.917,35.842-13.846c2.561-3.375,3.834-6.673,3.777-9.803
					l-0.172-9.846c-0.012-0.066-0.021-0.137-0.021-0.206c-0.047-9.226-11.729-17.428-32.896-23.099
					C97.49,33.953,87.99,32.568,79.45,32.568c-15.6,0-27.357,4.63-34.007,13.399c-2.615,3.447-3.867,6.882-3.722,10.214l0,0
					c0,0,0,0,0.004,0C41.727,56.287,41.721,56.393,41.698,56.493z"/>
			</g>
			<g>
				<g>
					<path fill="#231F20" d="M128.128,63.443c0.194,0.208,0.224,0.474,0.046,0.703c-0.172,0.229-0.515,0.383-0.915,0.446
						c-9.237,1.172-24.728-0.712-40.465-4.927c-15.714-4.213-28.368-9.872-32.981-14.753c-0.212-0.226-0.229-0.475-0.052-0.703
						c0.177-0.228,0.503-0.4,0.915-0.443c9.248-1.186,24.739,0.7,40.453,4.907C110.865,52.892,123.498,58.544,128.128,63.443z
						 M87.869,58.248c13.999,3.755,28.175,5.653,37.023,5.019c-5.064-4.355-16.869-9.42-30.846-13.164
						c-13.976-3.747-28.175-5.653-37.006-5.013C62.09,49.445,73.887,54.503,87.869,58.248"/>
				</g>
			</g>
			<g>
				<path fill="#231F20" d="M101.668,83.136c-6.368,0-10.461-1.375-10.85-1.509c-0.669-0.234-1.019-0.96-0.783-1.629
					c0.229-0.663,0.966-1.02,1.624-0.789c0.204,0.071,20.954,6.939,42.813-11.901c0.53-0.458,1.348-0.4,1.807,0.134
					c0.457,0.534,0.398,1.34-0.139,1.803C122.92,80.638,110.236,83.136,101.668,83.136z"/>
			</g>
		</g>
		<g>
			<g>
				<path fill="#DFC282" d="M141.893,56.705c0,0.045-0.018,0.103-0.018,0.148c-0.059-9.832-11.718-18.395-33.846-24.322
					c-29.695-7.957-52.879-4.41-63.607,9.738c-2.85,3.755-4.135,7.468-3.976,11.046c-0.005-0.109-0.034-0.217-0.037-0.326
					l0.181,10.192c0.177,10.066,11.879,19.058,33.297,24.797c28.815,7.72,53.39,3.698,64.147-10.483
					c2.767-3.65,4.093-7.203,4.034-10.601L141.893,56.705z"/>
				<path fill="#CA9963" d="M101.17,93.121h-0.005c-8.638,0-17.926-1.314-27.609-3.91c-21.893-5.865-34.052-15.102-34.247-26.008
					l-0.177-10.192c-0.003-0.091,0.006-0.177,0.022-0.263c-0.006-3.741,1.424-7.525,4.25-11.255
					c7.15-9.426,19.617-14.407,36.045-14.407c8.757,0,18.49,1.415,28.912,4.21c22.44,6.013,34.457,14.716,34.787,25.188
					c0.013,0.063,0.019,0.128,0.019,0.197l0.183,10.192c0.063,3.715-1.383,7.551-4.299,11.392
					C131.792,87.846,118.33,93.121,101.17,93.121z M41.698,53.565l0.171,9.592c0.166,9.523,11.961,18.117,32.35,23.582
					c9.466,2.535,18.532,3.824,26.946,3.824h0.005c16.344,0,29.072-4.916,35.842-13.844c2.561-3.375,3.834-6.674,3.777-9.803
					l-0.172-9.846c-0.012-0.066-0.021-0.137-0.021-0.206c-0.047-9.226-11.729-17.428-32.896-23.099
					C97.49,31.028,87.99,29.645,79.45,29.645c-15.6,0-27.357,4.63-34.007,13.398c-2.615,3.447-3.867,6.882-3.722,10.215l0,0
					c0,0,0,0,0.004,0C41.727,53.359,41.721,53.465,41.698,53.565z"/>
			</g>
			<g>
				<g>
					<path fill="#C99962" d="M128.128,60.517c0.194,0.208,0.224,0.475,0.046,0.703c-0.172,0.229-0.515,0.383-0.915,0.446
						c-9.237,1.172-24.728-0.711-40.465-4.927c-15.714-4.213-28.368-9.872-32.981-14.753c-0.212-0.226-0.229-0.475-0.052-0.703
						c0.177-0.228,0.503-0.4,0.915-0.443c9.248-1.186,24.739,0.7,40.453,4.907C110.865,49.964,123.498,55.618,128.128,60.517z
						 M87.869,55.321c13.999,3.755,28.175,5.653,37.023,5.019c-5.064-4.355-16.869-9.42-30.846-13.164
						c-13.976-3.747-28.175-5.653-37.006-5.013C62.09,46.518,73.887,51.577,87.869,55.321"/>
				</g>
			</g>
			<g>
				<path fill="#C99962" d="M101.668,80.208c-6.368,0-10.461-1.375-10.85-1.509c-0.669-0.234-1.019-0.96-0.783-1.629
					c0.229-0.663,0.966-1.021,1.624-0.789c0.204,0.071,20.954,6.939,42.813-11.901c0.53-0.458,1.348-0.4,1.807,0.134
					c0.457,0.534,0.398,1.34-0.139,1.803C122.92,77.71,110.236,80.208,101.668,80.208z"/>
			</g>
		</g>
	</g>
</g>
</svg>
