<?xml version="1.0" encoding="utf-8"?>
<!-- Generator: Adobe Illustrator 16.0.0, SVG Export Plug-In . SVG Version: 6.00 Build 0)  -->
<!DOCTYPE svg PUBLIC "-//W3C//DTD SVG 1.1//EN" "http://www.w3.org/Graphics/SVG/1.1/DTD/svg11.dtd">
<svg version="1.1" id="Layer_1" xmlns="http://www.w3.org/2000/svg" xmlns:xlink="http://www.w3.org/1999/xlink" x="0px" y="0px"
	 width="180px" height="220px" viewBox="0 0 180 220" enable-background="new 0 0 180 220" xml:space="preserve">
<g>
	<g opacity="0.1">
		<g>
			<g>
				<g>
					<path fill="#231F20" d="M75.073,74.117c16.069,0,29.097,5.819,29.097,12.998v28.245v0.658h-0.074
						c-0.77,6.869-13.45,12.338-29.022,12.338c-15.575,0-28.256-5.469-29.022-12.338h-0.077V87.114
						C45.974,79.936,59.004,74.117,75.073,74.117z"/>
					<path fill="#231F20" d="M45.224,117.006h-0.235V87.114c0-7.841,13.212-13.984,30.084-13.984
						c16.869,0,30.085,6.143,30.085,13.984v28.245l-0.078,1.646h-0.157c-1.705,7.091-14.226,12.338-29.85,12.338
						C59.449,129.344,46.928,124.097,45.224,117.006z M103.182,87.114c0-6.51-12.873-12.009-28.108-12.009
						c-15.238,0-28.111,5.499-28.111,12.009v28.175l0.068,0.617c0.708,6.319,13.287,11.465,28.043,11.465
						c14.757,0,27.333-5.146,28.04-11.465l0.068-0.349V87.114z"/>
				</g>
				<g>
					<ellipse fill="#231F20" cx="75.072" cy="87.114" rx="29.098" ry="12.995"/>
					<path fill="#231F20" d="M44.989,87.114c0-7.841,13.212-13.984,30.084-13.984c16.869,0,30.085,6.143,30.085,13.984
						c0,7.842-13.216,13.983-30.085,13.983C58.201,101.098,44.989,94.956,44.989,87.114z M46.962,87.114
						c0,6.509,12.873,12.008,28.111,12.008c15.235,0,28.108-5.499,28.108-12.008c0-6.51-12.873-12.009-28.108-12.009
						C59.835,75.105,46.962,80.604,46.962,87.114z"/>
				</g>
				<g>
					<g>
						<path fill="#231F20" d="M75.073,78.796c1.992,0,3.91,0.141,5.708,0.401c-2.913,1.072-5.627,2.55-8.045,4.392l1.662-4.779
							C74.623,78.808,74.845,78.796,75.073,78.796z"/>
						<path fill="#231F20" d="M72.158,84.389c-0.352-0.256-0.497-0.712-0.355-1.125l1.662-4.779
							c0.136-0.394,0.506-0.659,0.926-0.663l0.683-0.014c1.995,0,3.962,0.139,5.847,0.412c0.448,0.063,0.793,0.423,0.84,0.873
							c0.049,0.449-0.216,0.874-0.639,1.03c-2.835,1.044-5.454,2.474-7.786,4.25c-0.176,0.136-0.386,0.202-0.599,0.202
							C72.535,84.576,72.331,84.514,72.158,84.389z M75.104,79.784l-0.448,1.291c0.723-0.446,1.464-0.862,2.227-1.251
							C76.293,79.796,75.7,79.784,75.104,79.784z"/>
					</g>
					<g>
						<path fill="#231F20" d="M72.735,83.589c0.272-1.674,0.763-3.277,1.449-4.773c0.074-0.001,0.142-0.005,0.213-0.006
							L72.735,83.589z"/>
						<path fill="#231F20" d="M72.735,84.576c0.414,0,0.794-0.258,0.936-0.662l1.658-4.78c0.108-0.307,0.056-0.646-0.136-0.908
							c-0.191-0.263-0.482-0.385-0.825-0.403c-0.374,0.009-0.923,0.238-1.081,0.581c-0.732,1.593-1.245,3.286-1.525,5.028
							c-0.083,0.505,0.234,0.99,0.732,1.115C72.578,84.566,72.658,84.576,72.735,84.576z"/>
					</g>
					<g>
						<path fill="#231F20" d="M89.29,81.747c-6.477,0.539-12.28,3.374-16.557,7.688l0.003-5.847c2.418-1.842,5.133-3.32,8.045-4.392
							C84.132,79.679,87.066,80.573,89.29,81.747z"/>
						<path fill="#231F20" d="M72.355,90.348c-0.368-0.153-0.611-0.514-0.611-0.914l0.006-5.847c0-0.307,0.146-0.598,0.389-0.783
							c2.486-1.896,5.278-3.422,8.299-4.534c0.154-0.059,0.321-0.076,0.482-0.051c3.425,0.493,6.476,1.41,8.83,2.655
							c0.386,0.204,0.593,0.641,0.506,1.07c-0.089,0.431-0.448,0.75-0.886,0.786c-6.044,0.503-11.705,3.13-15.933,7.4
							c-0.191,0.19-0.445,0.292-0.704,0.292C72.605,90.422,72.479,90.397,72.355,90.348z M80.886,80.21
							c-2.588,0.979-4.997,2.279-7.162,3.873v3.092c3.413-2.903,7.508-4.92,11.903-5.876C84.188,80.836,82.591,80.468,80.886,80.21z
							"/>
					</g>
					<g>
						<path fill="#231F20" d="M72.479,86.528c0-1.002,0.105-1.978,0.256-2.939l-0.003,5.847
							C72.581,88.487,72.479,87.519,72.479,86.528z"/>
						<path fill="#231F20" d="M72.732,90.422c0.024,0,0.052-0.001,0.08-0.003c0.513-0.042,0.908-0.469,0.908-0.983l0.003-5.845
							c0-0.516-0.396-0.945-0.908-0.987c-0.543-0.046-0.973,0.321-1.053,0.829c-0.183,1.125-0.269,2.139-0.269,3.095
							c0,0.953,0.086,1.955,0.266,3.063C71.836,90.073,72.253,90.422,72.732,90.422z"/>
					</g>
					<g>
						<path fill="#231F20" d="M93.601,86.285c-0.686-0.065-1.374-0.122-2.078-0.122c-7.017,0-13.234,3.297-17.181,8.382l-1.609-5.11
							c4.277-4.314,10.081-7.15,16.557-7.688C91.658,82.999,93.218,84.563,93.601,86.285z"/>
						<path fill="#231F20" d="M74.168,95.518c-0.364-0.065-0.658-0.326-0.769-0.676l-1.609-5.111
							c-0.108-0.349-0.016-0.73,0.241-0.991c4.562-4.602,10.661-7.434,17.175-7.976c0.188-0.019,0.377,0.023,0.543,0.111
							c2.714,1.435,4.379,3.232,4.815,5.196c0.068,0.309-0.016,0.631-0.223,0.868c-0.21,0.238-0.521,0.357-0.837,0.329
							c-0.651-0.062-1.312-0.116-1.982-0.116c-6.479,0-12.456,2.916-16.4,7.999c-0.188,0.244-0.479,0.383-0.781,0.383
							C74.283,95.534,74.227,95.529,74.168,95.518z M92.025,85.184c-0.608-0.857-1.612-1.689-2.946-2.427
							c-5.739,0.543-11.112,3-15.223,6.958l0.89,2.82c4.284-4.697,10.303-7.358,16.776-7.358
							C91.689,85.177,91.855,85.18,92.025,85.184z"/>
					</g>
					<g>
						<path fill="#231F20" d="M72.732,89.436l1.609,5.11C73.569,92.953,73.02,91.238,72.732,89.436z"/>
						<path fill="#231F20" d="M74.341,95.534c0.121,0,0.244-0.023,0.365-0.07c0.481-0.193,0.732-0.721,0.577-1.213l-1.609-5.111
							c-0.154-0.494-0.67-0.778-1.167-0.666c-0.503,0.119-0.831,0.605-0.75,1.116c0.3,1.872,0.871,3.685,1.696,5.386
							C73.622,95.327,73.974,95.534,74.341,95.534z"/>
					</g>
					<g>
						<path fill="#231F20" d="M91.522,86.163c0.704,0,1.393,0.057,2.078,0.122c0.059,0.272,0.093,0.548,0.093,0.829
							c0,1.308-0.691,2.541-1.896,3.64c-0.093-0.003-0.182-0.019-0.274-0.019c-4.404,0-8.395,1.671-11.403,4.379
							c-1.606,0.202-3.295,0.318-5.046,0.318c-0.052,0-0.099-0.004-0.148-0.004l-0.584-0.883
							C78.289,89.46,84.505,86.163,91.522,86.163z"/>
						<path fill="#231F20" d="M74.925,96.417c-0.333,0-0.643-0.167-0.825-0.445l-0.584-0.883c-0.231-0.352-0.216-0.814,0.043-1.149
							c4.324-5.568,10.868-8.763,17.962-8.763c0.735,0,1.458,0.057,2.174,0.126c0.427,0.04,0.775,0.352,0.868,0.771
							c0.077,0.349,0.117,0.698,0.117,1.041c0,1.534-0.769,3.044-2.218,4.369c-0.188,0.171-0.667,0.258-0.941,0.241
							c-3.972,0-7.786,1.465-10.742,4.125c-0.151,0.134-0.336,0.221-0.538,0.246c-1.717,0.216-3.456,0.326-5.17,0.326L74.925,96.417
							z M91.417,89.749c0.828-0.838,1.261-1.696,1.288-2.551c-0.393-0.028-0.784-0.046-1.183-0.046
							c-6.171,0-11.888,2.646-15.825,7.289c1.328-0.022,2.671-0.111,4-0.269C82.952,91.339,87.1,89.773,91.417,89.749z"/>
					</g>
					<g>
						<path fill="#231F20" d="M74.925,95.429c-0.028,0-0.056-0.001-0.083-0.001c-0.164-0.297-0.355-0.576-0.5-0.882L74.925,95.429z"
							/>
						<path fill="#231F20" d="M74.842,96.414c0.364,0,0.741-0.197,0.911-0.519c0.173-0.318,0.194-0.706-0.006-1.01l-0.581-0.883
							c-0.287-0.434-0.862-0.57-1.31-0.315c-0.454,0.256-0.63,0.818-0.404,1.287c0.102,0.214,0.225,0.42,0.346,0.624l0.182,0.308
							C74.153,96.219,74.483,96.414,74.842,96.414z"/>
					</g>
					<g>
						<path fill="#231F20" d="M91.797,90.754c-2.304,2.108-6.535,3.714-11.677,4.361c3.008-2.708,6.999-4.379,11.403-4.379
							C91.615,90.736,91.704,90.751,91.797,90.754z"/>
						<path fill="#231F20" d="M79.221,95.526c-0.179-0.392-0.083-0.857,0.238-1.146c3.317-2.986,7.601-4.631,12.063-4.631
							c0.08,0,0.16,0.006,0.296,0.017c0.402,0.009,0.76,0.262,0.902,0.639c0.142,0.378,0.04,0.805-0.257,1.078
							c-2.477,2.266-6.933,3.947-12.221,4.611c-0.043,0.004-0.083,0.008-0.124,0.008C79.737,96.102,79.382,95.879,79.221,95.526z
							 M84.929,93.14c0.92-0.267,1.776-0.57,2.566-0.903C86.615,92.464,85.756,92.767,84.929,93.14z"/>
					</g>
					<g>
						<path fill="#231F20" d="M56.45,87.114c0-4.462,7.866-8.093,17.734-8.298c-0.686,1.496-1.177,3.099-1.449,4.773
							c-0.151,0.961-0.256,1.937-0.256,2.939c0,0.991,0.102,1.959,0.253,2.908c0.287,1.802,0.837,3.518,1.609,5.11
							c0.145,0.306,0.337,0.585,0.5,0.882C64.662,95.372,56.45,91.675,56.45,87.114z"/>
						<path fill="#231F20" d="M74.839,96.414c-10.865-0.059-19.374-4.145-19.374-9.299c0-5.071,8.039-9.062,18.701-9.287
							c0.371-0.02,0.658,0.161,0.846,0.446c0.185,0.284,0.213,0.644,0.071,0.953c-0.658,1.433-1.118,2.954-1.371,4.519
							c-0.164,1.022-0.244,1.933-0.244,2.783c0,0.846,0.081,1.747,0.241,2.751c0.266,1.68,0.778,3.306,1.523,4.838
							c0.077,0.159,0.17,0.31,0.259,0.461l0.216,0.371c0.17,0.306,0.164,0.681-0.016,0.982c-0.176,0.299-0.5,0.481-0.849,0.481
							H74.839z M57.438,87.114c0,3.302,6.257,6.86,15.745,7.284c-0.683-1.533-1.161-3.147-1.424-4.807
							c-0.179-1.108-0.266-2.111-0.266-3.063c0-0.956,0.086-1.969,0.269-3.096c0.194-1.218,0.506-2.414,0.926-3.567
							C64.276,80.369,57.438,83.554,57.438,87.114z"/>
					</g>
				</g>
			</g>
			<g>
				<g>
					<path fill="#231F20" d="M45.974,103.97c16.069,0,29.099,5.818,29.099,12.996v28.244v0.66h-0.077
						c-0.766,6.869-13.447,12.339-29.022,12.339c-15.572,0-28.253-5.47-29.022-12.339h-0.074v-28.904
						C16.878,109.788,29.905,103.97,45.974,103.97z"/>
					<path fill="#231F20" d="M16.125,146.855H15.89v-29.89c0-7.842,13.215-13.984,30.084-13.984
						c16.872,0,30.084,6.143,30.084,13.984v28.244l-0.074,1.646h-0.161c-1.705,7.095-14.225,12.339-29.85,12.339
						S17.829,153.95,16.125,146.855z M74.085,116.966c0-6.51-12.873-12.009-28.111-12.009c-15.235,0-28.108,5.499-28.108,12.009
						v28.176l0.068,0.618c0.708,6.318,13.284,11.461,28.04,11.461s27.336-5.143,28.043-11.461l0.068-0.353V116.966z"/>
				</g>
				<g>
					<path fill="#231F20" d="M16.878,116.966c0,7.181,13.027,12.996,29.096,12.996s29.099-5.815,29.099-12.996
						c0-7.178-13.03-12.996-29.099-12.996S16.878,109.788,16.878,116.966z"/>
					<path fill="#231F20" d="M15.89,116.966c0-7.842,13.215-13.984,30.084-13.984c16.872,0,30.084,6.143,30.084,13.984
						s-13.212,13.981-30.084,13.981C29.105,130.947,15.89,124.808,15.89,116.966z M17.866,116.966
						c0,6.507,12.873,12.008,28.108,12.008c15.238,0,28.111-5.501,28.111-12.008c0-6.51-12.873-12.009-28.111-12.009
						C30.739,104.957,17.866,110.456,17.866,116.966z"/>
				</g>
				<g>
					<g>
						<path fill="#231F20" d="M45.974,108.648c1.992,0,3.91,0.142,5.708,0.402c-2.913,1.072-5.627,2.547-8.042,4.391l1.662-4.78
							C45.526,108.661,45.749,108.648,45.974,108.648z"/>
						<path fill="#231F20" d="M43.062,114.238c-0.355-0.253-0.497-0.71-0.355-1.124l1.659-4.777c0.139-0.394,0.509-0.66,0.926-0.663
							l0.683-0.014c1.998,0,3.965,0.139,5.85,0.413c0.448,0.063,0.793,0.423,0.84,0.873c0.049,0.451-0.216,0.874-0.639,1.031
							c-2.835,1.044-5.454,2.471-7.786,4.25c-0.176,0.136-0.389,0.203-0.599,0.203C43.436,114.43,43.231,114.365,43.062,114.238z
							 M46.008,109.637l-0.451,1.291c0.726-0.444,1.467-0.865,2.23-1.254C47.197,109.649,46.604,109.637,46.008,109.637z"/>
					</g>
					<g>
						<path fill="#231F20" d="M43.639,113.441c0.269-1.674,0.763-3.279,1.449-4.774c0.071,0,0.142-0.003,0.213-0.006L43.639,113.441
							z"/>
						<path fill="#231F20" d="M43.639,114.43c0.414,0,0.794-0.259,0.933-0.667l1.662-4.777c0.105-0.306,0.056-0.646-0.136-0.908
							c-0.191-0.261-0.482-0.394-0.825-0.403c-0.376,0.011-0.926,0.239-1.081,0.581c-0.735,1.595-1.248,3.288-1.525,5.026
							c-0.083,0.507,0.234,0.991,0.732,1.118C43.479,114.418,43.559,114.43,43.639,114.43z"/>
					</g>
					<g>
						<path fill="#231F20" d="M60.19,111.598c-6.473,0.541-12.279,3.376-16.554,7.688l0.003-5.844
							c2.415-1.844,5.13-3.319,8.042-4.391C55.032,109.532,57.97,110.424,60.19,111.598z"/>
						<path fill="#231F20" d="M43.259,120.199c-0.371-0.154-0.611-0.513-0.611-0.914l0.003-5.847c0-0.306,0.145-0.596,0.389-0.781
							c2.486-1.896,5.281-3.422,8.302-4.535c0.154-0.057,0.318-0.074,0.482-0.051c3.422,0.491,6.476,1.411,8.827,2.652
							c0.389,0.207,0.596,0.643,0.51,1.072c-0.09,0.429-0.451,0.75-0.887,0.787c-6.047,0.501-11.705,3.129-15.936,7.4
							c-0.188,0.191-0.445,0.29-0.701,0.29C43.51,120.273,43.38,120.249,43.259,120.199z M51.79,110.063
							c-2.591,0.976-4.997,2.28-7.162,3.873l-0.003,3.089c3.413-2.903,7.508-4.917,11.906-5.874
							C55.091,110.687,53.491,110.319,51.79,110.063z"/>
					</g>
					<g>
						<path fill="#231F20" d="M43.383,116.379c0-1.004,0.102-1.979,0.256-2.938l-0.003,5.844
							C43.482,118.34,43.383,117.37,43.383,116.379z"/>
						<path fill="#231F20" d="M43.636,120.273c0.024,0,0.052,0,0.077-0.003c0.513-0.04,0.908-0.47,0.908-0.985l0.006-5.844
							c0-0.516-0.395-0.944-0.908-0.984c-0.556-0.053-0.973,0.321-1.057,0.827c-0.179,1.128-0.269,2.141-0.269,3.095
							s0.086,1.955,0.266,3.063C42.737,119.925,43.154,120.273,43.636,120.273z"/>
					</g>
					<g>
						<path fill="#231F20" d="M64.505,116.135c-0.686-0.062-1.377-0.12-2.082-0.12c-7.014,0-13.234,3.295-17.178,8.382l-1.609-5.111
							c4.274-4.312,10.081-7.146,16.554-7.688C62.559,112.849,64.122,114.415,64.505,116.135z"/>
						<path fill="#231F20" d="M45.069,125.369c-0.361-0.064-0.658-0.327-0.766-0.676l-1.609-5.111
							c-0.111-0.35-0.019-0.729,0.241-0.992c4.559-4.602,10.661-7.434,17.175-7.977c0.188-0.016,0.377,0.024,0.541,0.11
							c2.718,1.437,4.382,3.234,4.818,5.198c0.068,0.309-0.016,0.633-0.226,0.868c-0.21,0.237-0.519,0.352-0.833,0.33
							c-0.655-0.064-1.313-0.117-1.986-0.117c-6.477,0-12.453,2.915-16.4,8.002c-0.188,0.241-0.476,0.38-0.778,0.38
							C45.187,125.385,45.128,125.382,45.069,125.369z M62.927,115.035c-0.605-0.858-1.612-1.686-2.943-2.427
							c-5.738,0.543-11.112,3.002-15.226,6.958l0.889,2.819c4.287-4.697,10.306-7.356,16.777-7.356
							C62.593,115.029,62.76,115.029,62.927,115.035z"/>
					</g>
					<g>
						<path fill="#231F20" d="M43.636,119.285l1.609,5.111C44.47,122.806,43.923,121.089,43.636,119.285z"/>
						<path fill="#231F20" d="M45.245,125.385c0.121,0,0.244-0.021,0.365-0.071c0.479-0.191,0.732-0.72,0.574-1.21l-1.606-5.115
							c-0.154-0.494-0.67-0.778-1.167-0.664c-0.506,0.121-0.831,0.605-0.75,1.115c0.3,1.872,0.868,3.688,1.696,5.39
							C44.525,125.178,44.875,125.385,45.245,125.385z"/>
					</g>
					<g>
						<path fill="#231F20" d="M62.423,116.015c0.704,0,1.396,0.059,2.082,0.12c0.059,0.272,0.092,0.55,0.092,0.831
							c0,1.307-0.695,2.542-1.896,3.642c-0.093-0.004-0.182-0.019-0.278-0.019c-4.404,0-8.392,1.667-11.403,4.379
							c-1.606,0.201-3.295,0.315-5.046,0.315c-0.049,0-0.099-0.003-0.148-0.003l-0.581-0.884
							C49.189,119.31,55.409,116.015,62.423,116.015z"/>
						<path fill="#231F20" d="M45.826,126.269c-0.33,0-0.642-0.167-0.821-0.442l-0.584-0.883c-0.234-0.355-0.216-0.815,0.043-1.152
							c4.321-5.568,10.868-8.762,17.959-8.762c0.738,0,1.458,0.056,2.174,0.124c0.426,0.043,0.778,0.352,0.871,0.771
							c0.077,0.35,0.114,0.698,0.114,1.041c0,1.535-0.766,3.042-2.217,4.37c-0.186,0.17-0.655,0.263-0.942,0.241
							c-3.969,0-7.786,1.464-10.739,4.123c-0.151,0.133-0.34,0.219-0.541,0.244c-1.714,0.216-3.456,0.327-5.17,0.327L45.826,126.269
							z M62.321,119.601c0.828-0.841,1.257-1.696,1.285-2.552c-0.389-0.027-0.781-0.046-1.183-0.046
							c-6.168,0-11.885,2.646-15.822,7.289c1.328-0.022,2.671-0.111,3.997-0.27C53.856,121.193,58,119.625,62.321,119.601z"/>
					</g>
					<g>
						<path fill="#231F20" d="M45.826,125.28c-0.028,0-0.052-0.004-0.08-0.004c-0.164-0.296-0.355-0.574-0.5-0.88L45.826,125.28z"/>
						<path fill="#231F20" d="M45.746,126.265c0.361,0,0.738-0.197,0.911-0.519c0.17-0.318,0.194-0.704-0.006-1.01l-0.583-0.884
							c-0.284-0.432-0.862-0.571-1.31-0.314c-0.451,0.256-0.627,0.818-0.401,1.288c0.102,0.213,0.222,0.42,0.346,0.623l0.179,0.307
							C45.054,126.07,45.387,126.265,45.746,126.265z"/>
					</g>
					<g>
						<path fill="#231F20" d="M62.701,120.607c-2.307,2.105-6.535,3.712-11.681,4.36c3.011-2.712,6.999-4.379,11.403-4.379
							C62.519,120.589,62.608,120.604,62.701,120.607z"/>
						<path fill="#231F20" d="M50.125,125.376c-0.182-0.39-0.083-0.855,0.235-1.144c3.32-2.986,7.604-4.632,12.063-4.632
							c0.083,0,0.16,0.006,0.299,0.019c0.401,0.006,0.76,0.259,0.902,0.639c0.142,0.377,0.04,0.803-0.256,1.078
							c-2.48,2.267-6.934,3.947-12.224,4.608c-0.04,0.006-0.08,0.009-0.124,0.009C50.641,125.953,50.286,125.73,50.125,125.376z
							 M55.833,122.991c0.917-0.266,1.776-0.568,2.563-0.901C57.519,122.318,56.66,122.617,55.833,122.991z"/>
					</g>
					<g>
						<path fill="#231F20" d="M27.354,116.966c0-4.463,7.866-8.092,17.734-8.299c-0.686,1.495-1.18,3.101-1.449,4.774
							c-0.154,0.958-0.256,1.934-0.256,2.938c0,0.991,0.099,1.961,0.253,2.906c0.287,1.804,0.834,3.521,1.609,5.111
							c0.146,0.306,0.337,0.584,0.5,0.88C35.566,125.221,27.354,121.527,27.354,116.966z"/>
						<path fill="#231F20" d="M45.739,126.265c-10.865-0.059-19.374-4.145-19.374-9.299c0-5.071,8.039-9.063,18.7-9.287
							c0.365,0,0.661,0.161,0.846,0.446c0.188,0.284,0.216,0.644,0.071,0.956c-0.655,1.433-1.118,2.952-1.368,4.516
							c-0.167,1.021-0.244,1.933-0.244,2.782c0,0.847,0.077,1.745,0.241,2.752c0.266,1.68,0.778,3.305,1.522,4.836
							c0.074,0.161,0.167,0.312,0.259,0.464l0.216,0.37c0.17,0.31,0.164,0.68-0.016,0.982c-0.179,0.3-0.5,0.481-0.849,0.481
							C45.743,126.265,45.743,126.265,45.739,126.265z M28.342,116.966c0,3.302,6.254,6.859,15.745,7.285
							c-0.683-1.531-1.161-3.149-1.427-4.809c-0.179-1.108-0.266-2.109-0.266-3.063s0.09-1.967,0.272-3.098
							c0.194-1.217,0.503-2.412,0.923-3.564C35.18,110.224,28.342,113.405,28.342,116.966z"/>
					</g>
				</g>
			</g>
		</g>
		<g>
			<g>
				<g>
					<path fill="#231F20" d="M133.998,74.117c16.068,0,29.099,5.819,29.099,12.998v28.245v0.658h-0.077
						c-0.766,6.869-13.447,12.338-29.021,12.338c-15.572,0-28.254-5.469-29.022-12.338h-0.074V87.114
						C104.901,79.936,117.929,74.117,133.998,74.117z"/>
					<path fill="#231F20" d="M104.147,117.006h-0.234V87.114c0-7.841,13.216-13.984,30.085-13.984
						c16.872,0,30.084,6.143,30.084,13.984v28.245l-0.074,1.646h-0.16c-1.705,7.091-14.226,12.338-29.85,12.338
						C118.373,129.344,105.853,124.097,104.147,117.006z M162.108,87.114c0-6.51-12.872-12.009-28.11-12.009
						c-15.235,0-28.108,5.499-28.108,12.009v28.175l0.068,0.617c0.707,6.319,13.283,11.465,28.04,11.465
						c14.756,0,27.335-5.146,28.039-11.465l0.071-0.349V87.114z"/>
				</g>
				<g>
					<ellipse fill="#231F20" cx="133.999" cy="87.114" rx="29.098" ry="12.995"/>
					<path fill="#231F20" d="M103.913,87.114c0-7.841,13.216-13.984,30.085-13.984c16.872,0,30.084,6.143,30.084,13.984
						c0,7.842-13.212,13.983-30.084,13.983C117.129,101.098,103.913,94.956,103.913,87.114z M105.89,87.114
						c0,6.509,12.873,12.008,28.108,12.008c15.238,0,28.11-5.499,28.11-12.008c0-6.51-12.872-12.009-28.11-12.009
						C118.763,75.105,105.89,80.604,105.89,87.114z"/>
				</g>
				<g>
					<g>
						<path fill="#231F20" d="M133.998,78.796c1.991,0,3.909,0.141,5.707,0.401c-2.912,1.072-5.627,2.55-8.042,4.392l1.661-4.779
							C133.55,78.808,133.772,78.796,133.998,78.796z"/>
						<path fill="#231F20" d="M131.085,84.389c-0.354-0.256-0.5-0.712-0.354-1.125l1.658-4.779c0.139-0.394,0.51-0.659,0.927-0.663
							l0.683-0.014c1.998,0,3.962,0.139,5.849,0.412c0.448,0.063,0.794,0.423,0.841,0.873c0.046,0.449-0.217,0.874-0.64,1.03
							c-2.835,1.044-5.454,2.474-7.786,4.25c-0.176,0.136-0.389,0.202-0.599,0.202C131.459,84.576,131.255,84.514,131.085,84.389z
							 M134.031,79.784l-0.45,1.291c0.723-0.446,1.467-0.862,2.229-1.251C135.218,79.796,134.628,79.784,134.031,79.784z"/>
					</g>
					<g>
						<path fill="#231F20" d="M131.663,83.589c0.269-1.674,0.763-3.277,1.448-4.773c0.071-0.001,0.142-0.005,0.213-0.006
							L131.663,83.589z"/>
						<path fill="#231F20" d="M131.663,84.576c0.413,0,0.793-0.258,0.933-0.662l1.661-4.78c0.105-0.307,0.056-0.646-0.136-0.908
							c-0.191-0.263-0.503-0.385-0.824-0.403c-0.377,0.009-0.927,0.238-1.081,0.581c-0.735,1.593-1.248,3.286-1.526,5.028
							c-0.083,0.505,0.235,0.99,0.732,1.115C131.502,84.566,131.582,84.576,131.663,84.576z"/>
					</g>
					<g>
						<path fill="#231F20" d="M148.214,81.747c-6.474,0.539-12.28,3.374-16.555,7.688l0.004-5.847
							c2.415-1.842,5.13-3.32,8.042-4.392C143.056,79.679,145.993,80.573,148.214,81.747z"/>
						<path fill="#231F20" d="M131.283,90.348c-0.371-0.153-0.612-0.514-0.612-0.914l0.004-5.847c0-0.307,0.145-0.598,0.389-0.783
							c2.486-1.896,5.281-3.422,8.299-4.534c0.154-0.059,0.321-0.076,0.484-0.051c3.423,0.493,6.477,1.41,8.827,2.655
							c0.389,0.204,0.596,0.641,0.51,1.07c-0.09,0.431-0.451,0.75-0.89,0.786c-6.044,0.503-11.705,3.13-15.934,7.4
							c-0.188,0.19-0.444,0.292-0.701,0.292C131.53,90.422,131.403,90.397,131.283,90.348z M139.813,80.21
							c-2.592,0.979-4.997,2.279-7.162,3.873l-0.003,3.092c3.412-2.903,7.508-4.92,11.905-5.876
							C143.111,80.836,141.515,80.468,139.813,80.21z"/>
					</g>
					<g>
						<path fill="#231F20" d="M131.406,86.528c0-1.002,0.102-1.978,0.257-2.939l-0.004,5.847
							C131.505,88.487,131.406,87.519,131.406,86.528z"/>
						<path fill="#231F20" d="M131.659,90.422c0.025,0,0.053-0.001,0.078-0.003c0.513-0.042,0.907-0.469,0.907-0.983l0.007-5.845
							c0-0.516-0.396-0.945-0.908-0.987c-0.556-0.046-0.973,0.321-1.057,0.829c-0.179,1.125-0.269,2.139-0.269,3.095
							c0,0.953,0.087,1.955,0.266,3.063C130.761,90.073,131.178,90.422,131.659,90.422z"/>
					</g>
					<g>
						<path fill="#231F20" d="M152.528,86.285c-0.686-0.065-1.378-0.122-2.082-0.122c-7.014,0-13.233,3.297-17.178,8.382
							l-1.609-5.11c4.274-4.314,10.081-7.15,16.555-7.688C150.582,82.999,152.146,84.563,152.528,86.285z"/>
						<path fill="#231F20" d="M133.093,95.518c-0.361-0.065-0.658-0.326-0.766-0.676l-1.609-5.111
							c-0.111-0.349-0.019-0.73,0.237-0.991c4.562-4.602,10.662-7.434,17.179-7.976c0.191-0.019,0.373,0.023,0.54,0.111
							c2.718,1.435,4.383,3.232,4.818,5.196c0.067,0.309-0.016,0.631-0.226,0.868c-0.207,0.238-0.522,0.357-0.834,0.329
							c-0.655-0.062-1.312-0.116-1.986-0.116c-6.477,0-12.455,2.916-16.399,7.999c-0.188,0.244-0.476,0.383-0.778,0.383
							C133.21,95.534,133.151,95.529,133.093,95.518z M150.95,85.184c-0.605-0.857-1.612-1.689-2.943-2.427
							c-5.738,0.543-11.112,3-15.227,6.958l0.89,2.82c4.287-4.697,10.307-7.358,16.776-7.358
							C150.616,85.177,150.783,85.18,150.95,85.184z"/>
					</g>
					<g>
						<path fill="#231F20" d="M131.659,89.436l1.609,5.11C132.493,92.953,131.947,91.238,131.659,89.436z"/>
						<path fill="#231F20" d="M133.269,95.534c0.12,0,0.244-0.023,0.364-0.07c0.479-0.193,0.732-0.721,0.575-1.213l-1.609-5.111
							c-0.154-0.494-0.67-0.778-1.164-0.666c-0.507,0.119-0.831,0.605-0.751,1.116c0.3,1.872,0.868,3.685,1.695,5.386
							C132.549,95.327,132.898,95.534,133.269,95.534z"/>
					</g>
					<g>
						<path fill="#231F20" d="M150.446,86.163c0.704,0,1.396,0.057,2.082,0.122c0.059,0.272,0.09,0.548,0.09,0.829
							c0,1.308-0.692,2.541-1.894,3.64c-0.093-0.003-0.183-0.019-0.278-0.019c-4.403,0-8.391,1.671-11.402,4.379
							c-1.605,0.202-3.295,0.318-5.046,0.318c-0.05,0-0.1-0.004-0.148-0.004l-0.581-0.883
							C137.213,89.46,143.433,86.163,150.446,86.163z"/>
						<path fill="#231F20" d="M133.85,96.417c-0.331,0-0.643-0.167-0.825-0.445l-0.58-0.883c-0.235-0.352-0.217-0.814,0.043-1.149
							c4.32-5.568,10.868-8.763,17.959-8.763c0.738,0,1.458,0.057,2.175,0.126c0.426,0.04,0.778,0.352,0.871,0.771
							c0.077,0.349,0.114,0.698,0.114,1.041c0,1.534-0.767,3.044-2.218,4.369c-0.186,0.171-0.68,0.258-0.942,0.241
							c-3.969,0-7.786,1.465-10.738,4.125c-0.151,0.134-0.34,0.221-0.54,0.246c-1.715,0.216-3.456,0.326-5.17,0.326L133.85,96.417z
							 M150.345,89.749c0.827-0.838,1.257-1.696,1.285-2.551c-0.39-0.028-0.782-0.046-1.184-0.046
							c-6.167,0-11.884,2.646-15.821,7.289c1.327-0.022,2.668-0.111,3.996-0.269C141.879,91.339,146.024,89.773,150.345,89.749z"/>
					</g>
					<g>
						<path fill="#231F20" d="M133.85,95.429c-0.028,0-0.053-0.001-0.08-0.001c-0.164-0.297-0.355-0.576-0.501-0.882L133.85,95.429z
							"/>
						<path fill="#231F20" d="M133.77,96.414c0.361,0,0.737-0.197,0.91-0.519c0.17-0.318,0.195-0.706-0.006-1.01l-0.584-0.883
							c-0.284-0.434-0.861-0.57-1.31-0.315c-0.453,0.256-0.627,0.818-0.401,1.287c0.103,0.214,0.223,0.42,0.343,0.624l0.183,0.308
							C133.077,96.219,133.411,96.414,133.77,96.414z"/>
					</g>
					<g>
						<path fill="#231F20" d="M150.725,90.754c-2.307,2.108-6.535,3.714-11.681,4.361c3.012-2.708,6.999-4.379,11.402-4.379
							C150.542,90.736,150.632,90.751,150.725,90.754z"/>
						<path fill="#231F20" d="M138.146,95.526c-0.18-0.392-0.08-0.857,0.237-1.146c3.32-2.986,7.604-4.631,12.063-4.631
							c0.084,0,0.161,0.006,0.3,0.017c0.401,0.009,0.76,0.262,0.902,0.639c0.142,0.378,0.04,0.805-0.257,1.078
							c-2.479,2.266-6.934,3.947-12.224,4.611c-0.04,0.004-0.081,0.008-0.124,0.008C138.664,96.102,138.309,95.879,138.146,95.526z
							 M143.855,93.14c0.918-0.267,1.776-0.57,2.563-0.903C145.542,92.465,144.684,92.767,143.855,93.14z"/>
					</g>
					<g>
						<path fill="#231F20" d="M115.377,87.114c0-4.462,7.867-8.093,17.734-8.298c-0.686,1.496-1.18,3.099-1.448,4.773
							c-0.155,0.961-0.257,1.937-0.257,2.939c0,0.991,0.099,1.959,0.253,2.908c0.288,1.802,0.834,3.518,1.609,5.11
							c0.146,0.306,0.337,0.585,0.501,0.882C123.59,95.372,115.377,91.675,115.377,87.114z"/>
						<path fill="#231F20" d="M133.763,96.414c-10.865-0.059-19.374-4.145-19.374-9.299c0-5.071,8.04-9.062,18.701-9.287
							c0.34-0.02,0.661,0.161,0.846,0.446c0.188,0.284,0.217,0.644,0.071,0.953c-0.654,1.433-1.118,2.954-1.368,4.519
							c-0.167,1.022-0.244,1.933-0.244,2.783c0,0.846,0.077,1.747,0.241,2.751c0.266,1.68,0.778,3.306,1.52,4.838
							c0.077,0.159,0.17,0.31,0.263,0.461l0.216,0.371c0.17,0.306,0.164,0.681-0.016,0.982c-0.179,0.299-0.5,0.481-0.849,0.481
							C133.77,96.414,133.766,96.414,133.763,96.414z M116.365,87.114c0,3.302,6.255,6.86,15.745,7.284
							c-0.683-1.533-1.161-3.147-1.427-4.807c-0.179-1.108-0.266-2.111-0.266-3.063c0-0.956,0.09-1.969,0.271-3.096
							c0.195-1.218,0.504-2.414,0.924-3.567C123.203,80.369,116.365,83.554,116.365,87.114z"/>
					</g>
				</g>
			</g>
			<g>
				<g>
					<path fill="#231F20" d="M104.901,103.97c16.069,0,29.097,5.818,29.097,12.996v28.244v0.66h-0.074
						c-0.77,6.869-13.45,12.339-29.022,12.339c-15.575,0-28.256-5.47-29.022-12.339h-0.077v-28.904
						C75.802,109.788,88.833,103.97,104.901,103.97z"/>
					<path fill="#231F20" d="M75.052,146.855h-0.235v-29.89c0-7.842,13.215-13.984,30.084-13.984s30.085,6.143,30.085,13.984v28.244
						l-0.074,1.646h-0.161c-1.705,7.095-14.226,12.339-29.85,12.339C89.277,159.194,76.756,153.95,75.052,146.855z M133.013,116.966
						c0-6.51-12.876-12.009-28.111-12.009c-15.238,0-28.111,5.499-28.111,12.009v28.176l0.071,0.618
						c0.705,6.318,13.284,11.461,28.04,11.461c14.757,0,27.333-5.143,28.04-11.461l0.071-0.353V116.966z"/>
				</g>
				<g>
					<path fill="#231F20" d="M75.802,116.966c0,7.181,13.03,12.996,29.099,12.996c16.069,0,29.097-5.815,29.097-12.996
						c0-7.178-13.027-12.996-29.097-12.996C88.833,103.97,75.802,109.788,75.802,116.966z"/>
					<path fill="#231F20" d="M74.817,116.966c0-7.842,13.215-13.984,30.084-13.984s30.085,6.143,30.085,13.984
						s-13.216,13.981-30.085,13.981S74.817,124.808,74.817,116.966z M76.791,116.966c0,6.507,12.873,12.008,28.111,12.008
						c15.235,0,28.111-5.501,28.111-12.008c0-6.51-12.876-12.009-28.111-12.009C89.663,104.957,76.791,110.456,76.791,116.966z"/>
				</g>
				<g>
					<g>
						<path fill="#231F20" d="M104.901,108.648c1.992,0,3.91,0.142,5.707,0.402c-2.912,1.072-5.627,2.547-8.042,4.391l1.658-4.78
							C104.45,108.661,104.673,108.648,104.901,108.648z"/>
						<path fill="#231F20" d="M101.986,114.238c-0.353-0.253-0.498-0.71-0.355-1.124l1.661-4.777
							c0.137-0.394,0.507-0.66,0.927-0.663l0.683-0.014c1.995,0,3.963,0.139,5.847,0.413c0.447,0.063,0.794,0.423,0.84,0.873
							c0.05,0.451-0.213,0.874-0.64,1.031c-2.835,1.044-5.454,2.471-7.785,4.25c-0.177,0.136-0.387,0.203-0.597,0.203
							C102.362,114.43,102.159,114.365,101.986,114.238z M104.933,109.637l-0.448,1.291c0.723-0.444,1.467-0.865,2.227-1.254
							C106.121,109.649,105.528,109.637,104.933,109.637z"/>
					</g>
					<g>
						<path fill="#231F20" d="M102.566,113.441c0.269-1.674,0.76-3.279,1.448-4.774c0.071,0,0.14-0.003,0.21-0.006L102.566,113.441z
							"/>
						<path fill="#231F20" d="M102.566,114.43c0.411,0,0.791-0.259,0.933-0.667l1.662-4.777c0.104-0.306,0.052-0.646-0.14-0.908
							c-0.191-0.261-0.5-0.394-0.824-0.403c-0.374,0.011-0.924,0.239-1.081,0.581c-0.731,1.595-1.244,3.288-1.525,5.026
							c-0.084,0.507,0.234,0.991,0.735,1.118C102.406,114.418,102.486,114.43,102.566,114.43z"/>
					</g>
					<g>
						<path fill="#231F20" d="M119.117,111.598c-6.477,0.541-12.279,3.376-16.557,7.688l0.006-5.844
							c2.415-1.844,5.13-3.319,8.042-4.391C113.96,109.532,116.894,110.424,119.117,111.598z"/>
						<path fill="#231F20" d="M102.187,120.199c-0.37-0.154-0.611-0.513-0.611-0.914l0.003-5.847c0-0.306,0.146-0.596,0.39-0.781
							c2.485-1.896,5.277-3.422,8.298-4.535c0.151-0.057,0.318-0.074,0.482-0.051c3.425,0.491,6.477,1.411,8.83,2.652
							c0.389,0.207,0.593,0.643,0.506,1.072c-0.086,0.429-0.447,0.75-0.886,0.787c-6.045,0.501-11.706,3.129-15.934,7.4
							c-0.191,0.191-0.444,0.29-0.704,0.29C102.434,120.273,102.308,120.249,102.187,120.199z M110.717,110.063
							c-2.591,0.976-4.997,2.28-7.165,3.873v3.089c3.413-2.903,7.508-4.917,11.906-5.874
							C114.016,110.687,112.419,110.319,110.717,110.063z"/>
					</g>
					<g>
						<path fill="#231F20" d="M102.308,116.379c0-1.004,0.104-1.979,0.259-2.938l-0.006,5.844
							C102.409,118.34,102.308,117.37,102.308,116.379z"/>
						<path fill="#231F20" d="M102.561,120.273c0.024,0,0.053,0,0.08-0.003c0.513-0.04,0.908-0.47,0.908-0.985l0.003-5.844
							c0-0.516-0.396-0.944-0.908-0.984c-0.543-0.053-0.973,0.321-1.053,0.827c-0.18,1.128-0.269,2.141-0.269,3.095
							s0.086,1.955,0.266,3.063C101.665,119.925,102.082,120.273,102.561,120.273z"/>
					</g>
					<g>
						<path fill="#231F20" d="M123.429,116.135c-0.686-0.062-1.374-0.12-2.078-0.12c-7.017,0-13.234,3.295-17.181,8.382
							l-1.609-5.111c4.277-4.312,10.08-7.146,16.557-7.688C121.486,112.849,123.046,114.415,123.429,116.135z"/>
						<path fill="#231F20" d="M103.996,125.369c-0.361-0.064-0.657-0.327-0.769-0.676l-1.606-5.111
							c-0.11-0.35-0.019-0.729,0.238-0.992c4.562-4.602,10.661-7.434,17.178-7.977c0.188-0.016,0.374,0.024,0.541,0.11
							c2.714,1.437,4.379,3.234,4.814,5.198c0.068,0.309-0.016,0.633-0.223,0.868c-0.21,0.237-0.521,0.352-0.837,0.33
							c-0.651-0.064-1.312-0.117-1.982-0.117c-6.479,0-12.456,2.915-16.399,8.002c-0.188,0.241-0.479,0.38-0.781,0.38
							C104.11,125.385,104.056,125.382,103.996,125.369z M121.854,115.035c-0.608-0.858-1.611-1.686-2.946-2.427
							c-5.735,0.543-11.112,3.002-15.223,6.958l0.89,2.819c4.283-4.697,10.303-7.356,16.776-7.356
							C121.518,115.029,121.688,115.029,121.854,115.035z"/>
					</g>
					<g>
						<path fill="#231F20" d="M102.561,119.285l1.609,5.111C103.397,122.806,102.848,121.089,102.561,119.285z"/>
						<path fill="#231F20" d="M104.17,125.385c0.12,0,0.243-0.021,0.364-0.071c0.481-0.191,0.731-0.72,0.577-1.21l-1.609-5.115
							c-0.154-0.494-0.67-0.778-1.167-0.664c-0.503,0.121-0.831,0.605-0.751,1.115c0.3,1.872,0.871,3.688,1.696,5.39
							C103.45,125.178,103.802,125.385,104.17,125.385z"/>
					</g>
					<g>
						<path fill="#231F20" d="M121.351,116.015c0.704,0,1.393,0.059,2.078,0.12c0.059,0.272,0.093,0.55,0.093,0.831
							c0,1.307-0.691,2.542-1.896,3.642c-0.093-0.004-0.182-0.019-0.274-0.019c-4.404,0-8.395,1.667-11.402,4.379
							c-1.606,0.201-3.296,0.315-5.047,0.315c-0.05,0-0.099-0.003-0.148-0.003l-0.583-0.884
							C108.116,119.31,114.334,116.015,121.351,116.015z"/>
						<path fill="#231F20" d="M104.753,126.269c-0.333,0-0.643-0.167-0.824-0.442l-0.584-0.883
							c-0.231-0.355-0.216-0.815,0.043-1.152c4.324-5.568,10.868-8.762,17.963-8.762c0.735,0,1.458,0.056,2.174,0.124
							c0.427,0.043,0.775,0.352,0.868,0.771c0.077,0.35,0.117,0.698,0.117,1.041c0,1.535-0.769,3.042-2.218,4.37
							c-0.188,0.17-0.67,0.263-0.941,0.241c-3.972,0-7.786,1.464-10.742,4.123c-0.147,0.133-0.336,0.219-0.537,0.244
							c-1.717,0.216-3.456,0.327-5.17,0.327L104.753,126.269z M121.245,119.601c0.828-0.841,1.261-1.696,1.288-2.552
							c-0.389-0.027-0.784-0.046-1.183-0.046c-6.171,0-11.888,2.646-15.825,7.289c1.328-0.022,2.672-0.111,3.999-0.27
							C112.78,121.193,116.928,119.625,121.245,119.601z"/>
					</g>
					<g>
						<path fill="#231F20" d="M104.753,125.28c-0.027,0-0.056-0.004-0.08-0.004c-0.167-0.296-0.355-0.574-0.503-0.88L104.753,125.28
							z"/>
						<path fill="#231F20" d="M104.673,126.265c0.361,0,0.738-0.197,0.908-0.519c0.173-0.318,0.194-0.704-0.007-1.01l-0.58-0.884
							c-0.287-0.432-0.861-0.571-1.31-0.314c-0.454,0.256-0.63,0.818-0.404,1.288c0.102,0.213,0.226,0.42,0.346,0.623l0.183,0.307
							C103.981,126.07,104.312,126.265,104.673,126.265z"/>
					</g>
					<g>
						<path fill="#231F20" d="M121.625,120.607c-2.304,2.105-6.531,3.712-11.677,4.36c3.008-2.712,6.998-4.379,11.402-4.379
							C121.443,120.589,121.532,120.604,121.625,120.607z"/>
						<path fill="#231F20" d="M109.049,125.376c-0.179-0.39-0.083-0.855,0.238-1.144c3.32-2.986,7.604-4.632,12.063-4.632
							c0.08,0,0.16,0.006,0.296,0.019c0.405,0.006,0.76,0.259,0.902,0.639c0.146,0.377,0.04,0.803-0.257,1.078
							c-2.477,2.267-6.933,3.947-12.221,4.608c-0.043,0.006-0.083,0.009-0.123,0.009
							C109.565,125.953,109.213,125.73,109.049,125.376z M114.76,122.991c0.917-0.266,1.775-0.568,2.563-0.901
							C116.443,122.314,115.584,122.617,114.76,122.991z"/>
					</g>
					<g>
						<path fill="#231F20" d="M86.278,116.966c0-4.463,7.866-8.092,17.736-8.299c-0.688,1.495-1.18,3.101-1.448,4.774
							c-0.154,0.958-0.259,1.934-0.259,2.938c0,0.991,0.102,1.961,0.253,2.906c0.287,1.804,0.837,3.521,1.609,5.111
							c0.147,0.306,0.336,0.584,0.503,0.88C94.493,125.221,86.278,121.527,86.278,116.966z"/>
						<path fill="#231F20" d="M104.667,126.265c-10.865-0.059-19.374-4.145-19.374-9.299c0-5.071,8.039-9.063,18.7-9.287
							c0.327,0,0.658,0.161,0.847,0.446c0.186,0.284,0.213,0.644,0.071,0.956c-0.655,1.433-1.118,2.952-1.368,4.516
							c-0.167,1.021-0.247,1.933-0.247,2.782c0,0.847,0.08,1.745,0.24,2.752c0.266,1.68,0.781,3.305,1.522,4.836
							c0.077,0.161,0.17,0.312,0.26,0.464l0.216,0.37c0.17,0.31,0.164,0.68-0.015,0.982c-0.177,0.3-0.501,0.481-0.847,0.481H104.667
							z M87.267,116.966c0,3.302,6.257,6.859,15.745,7.285c-0.683-1.531-1.162-3.149-1.424-4.809
							c-0.18-1.108-0.266-2.109-0.266-3.063s0.089-1.967,0.269-3.098c0.194-1.217,0.506-2.412,0.927-3.564
							C94.107,110.224,87.267,113.405,87.267,116.966z"/>
					</g>
				</g>
			</g>
		</g>
	</g>
	<g>
		<g>
			<g>
				<g>
					<path fill="#372F16" d="M75.073,64.629c16.069,0,29.097,5.819,29.097,12.998v28.245v0.658h-0.074
						c-0.77,6.869-13.45,12.338-29.022,12.338c-15.575,0-28.256-5.47-29.022-12.338h-0.077V77.627
						C45.974,70.448,59.004,64.629,75.073,64.629z"/>
					<path fill="#372F16" d="M45.224,107.517h-0.235v-29.89c0-7.842,13.212-13.984,30.084-13.984
						c16.869,0,30.085,6.143,30.085,13.984v28.245l-0.078,1.645h-0.157c-1.705,7.093-14.226,12.34-29.85,12.34
						C59.449,119.856,46.928,114.609,45.224,107.517z M103.182,77.627c0-6.511-12.873-12.009-28.108-12.009
						c-15.238,0-28.111,5.499-28.111,12.009v28.174l0.068,0.618c0.708,6.318,13.287,11.464,28.043,11.464
						c14.757,0,27.333-5.146,28.04-11.464l0.068-0.349V77.627z"/>
				</g>
				<g>
					<ellipse fill="#F0F4F7" cx="75.072" cy="77.627" rx="29.098" ry="12.995"/>
					<path fill="#372F16" d="M44.989,77.627c0-7.842,13.212-13.984,30.084-13.984c16.869,0,30.085,6.143,30.085,13.984
						c0,7.841-13.216,13.983-30.085,13.983C58.201,91.61,44.989,85.468,44.989,77.627z M46.962,77.627
						c0,6.509,12.873,12.008,28.111,12.008c15.235,0,28.108-5.499,28.108-12.008c0-6.511-12.873-12.009-28.108-12.009
						C59.835,65.618,46.962,71.116,46.962,77.627z"/>
				</g>
				<g>
					<g>
						<path fill="#FBCDB3" d="M75.073,69.308c1.992,0,3.91,0.141,5.708,0.401c-2.913,1.072-5.627,2.55-8.045,4.392l1.662-4.779
							C74.623,69.32,74.845,69.308,75.073,69.308z"/>
						<path fill="#F8AD90" d="M72.158,74.901c-0.352-0.256-0.497-0.712-0.355-1.124l1.662-4.78c0.136-0.394,0.506-0.659,0.926-0.662
							l0.683-0.014c1.995,0,3.962,0.139,5.847,0.413c0.448,0.063,0.793,0.423,0.84,0.872c0.049,0.45-0.216,0.874-0.639,1.03
							c-2.835,1.044-5.454,2.474-7.786,4.25c-0.176,0.136-0.386,0.202-0.599,0.202C72.535,75.088,72.331,75.026,72.158,74.901z
							 M75.104,70.296l-0.448,1.291c0.723-0.446,1.464-0.862,2.227-1.251C76.293,70.309,75.7,70.296,75.104,70.296z"/>
					</g>
					<g>
						<path fill="#FBCDB3" d="M72.735,74.102c0.272-1.674,0.763-3.277,1.449-4.773c0.074-0.001,0.142-0.004,0.213-0.006
							L72.735,74.102z"/>
						<path fill="#F8AD90" d="M72.735,75.088c0.414,0,0.794-0.258,0.936-0.662l1.658-4.779c0.108-0.308,0.056-0.646-0.136-0.908
							s-0.482-0.384-0.825-0.403c-0.374,0.009-0.923,0.238-1.081,0.581c-0.732,1.594-1.245,3.286-1.525,5.028
							c-0.083,0.505,0.234,0.99,0.732,1.115C72.578,75.079,72.658,75.088,72.735,75.088z"/>
					</g>
					<g>
						<path fill="#FBCDB3" d="M89.29,72.259c-6.477,0.539-12.28,3.374-16.557,7.688l0.003-5.846c2.418-1.842,5.133-3.32,8.045-4.392
							C84.132,70.191,87.066,71.085,89.29,72.259z"/>
						<path fill="#F8AD90" d="M72.355,80.86c-0.368-0.153-0.611-0.514-0.611-0.914L71.75,74.1c0-0.307,0.146-0.597,0.389-0.783
							c2.486-1.896,5.278-3.422,8.299-4.534c0.154-0.059,0.321-0.076,0.482-0.051c3.425,0.493,6.476,1.41,8.83,2.655
							c0.386,0.204,0.593,0.641,0.506,1.07c-0.089,0.431-0.448,0.75-0.886,0.786c-6.044,0.503-11.705,3.13-15.933,7.4
							c-0.191,0.19-0.445,0.292-0.704,0.292C72.605,80.935,72.479,80.91,72.355,80.86z M80.886,70.723
							c-2.588,0.979-4.997,2.279-7.162,3.873v3.091c3.413-2.903,7.508-4.92,11.903-5.875C84.188,71.348,82.591,70.98,80.886,70.723z
							"/>
					</g>
					<g>
						<path fill="#FBCDB3" d="M72.479,77.04c0-1.002,0.105-1.978,0.256-2.938l-0.003,5.846C72.581,79,72.479,78.031,72.479,77.04z"
							/>
						<path fill="#F8AD90" d="M72.732,80.935c0.024,0,0.052-0.001,0.08-0.003c0.513-0.042,0.908-0.47,0.908-0.984l0.003-5.845
							c0-0.516-0.396-0.945-0.908-0.987c-0.543-0.046-0.973,0.321-1.053,0.829c-0.183,1.126-0.269,2.139-0.269,3.095
							c0,0.953,0.086,1.955,0.266,3.063C71.836,80.585,72.253,80.935,72.732,80.935z"/>
					</g>
					<g>
						<path fill="#FBCDB3" d="M93.601,76.798c-0.686-0.065-1.374-0.122-2.078-0.122c-7.017,0-13.234,3.297-17.181,8.382l-1.609-5.11
							c4.277-4.314,10.081-7.15,16.557-7.688C91.658,73.512,93.218,75.076,93.601,76.798z"/>
						<path fill="#F8AD90" d="M74.168,86.03c-0.364-0.064-0.658-0.326-0.769-0.676l-1.609-5.111
							c-0.108-0.349-0.016-0.73,0.241-0.991c4.562-4.602,10.661-7.434,17.175-7.976c0.188-0.019,0.377,0.023,0.543,0.111
							c2.714,1.435,4.379,3.232,4.815,5.196c0.068,0.309-0.016,0.631-0.223,0.868c-0.21,0.238-0.521,0.357-0.837,0.329
							c-0.651-0.062-1.312-0.116-1.982-0.116c-6.479,0-12.456,2.916-16.4,7.999c-0.188,0.244-0.479,0.383-0.781,0.383
							C74.283,86.046,74.227,86.042,74.168,86.03z M92.025,75.697c-0.608-0.857-1.612-1.689-2.946-2.428
							c-5.739,0.543-11.112,3-15.223,6.958l0.89,2.819c4.284-4.697,10.303-7.358,16.776-7.358
							C91.689,75.689,91.855,75.692,92.025,75.697z"/>
					</g>
					<g>
						<path fill="#FBCDB3" d="M72.732,79.948l1.609,5.11C73.569,83.465,73.02,81.75,72.732,79.948z"/>
						<path fill="#F8AD90" d="M74.341,86.046c0.121,0,0.244-0.023,0.365-0.069c0.481-0.193,0.732-0.721,0.577-1.214l-1.609-5.111
							c-0.154-0.494-0.67-0.778-1.167-0.666c-0.503,0.119-0.831,0.605-0.75,1.116c0.3,1.872,0.871,3.685,1.696,5.386
							C73.622,85.839,73.974,86.046,74.341,86.046z"/>
					</g>
					<g>
						<path fill="#FBCDB3" d="M91.522,76.676c0.704,0,1.393,0.057,2.078,0.122c0.059,0.271,0.093,0.548,0.093,0.829
							c0,1.308-0.691,2.54-1.896,3.64c-0.093-0.003-0.182-0.019-0.274-0.019c-4.404,0-8.395,1.671-11.403,4.379
							c-1.606,0.202-3.295,0.318-5.046,0.318c-0.052,0-0.099-0.004-0.148-0.004l-0.584-0.883
							C78.289,79.973,84.505,76.676,91.522,76.676z"/>
						<path fill="#F8AD90" d="M74.925,86.929c-0.333,0-0.643-0.167-0.825-0.445l-0.584-0.883c-0.231-0.352-0.216-0.813,0.043-1.149
							c4.324-5.568,10.868-8.763,17.962-8.763c0.735,0,1.458,0.057,2.174,0.126c0.427,0.04,0.775,0.352,0.868,0.771
							c0.077,0.349,0.117,0.698,0.117,1.041c0,1.533-0.769,3.043-2.218,4.369c-0.188,0.171-0.667,0.258-0.941,0.241
							c-3.972,0-7.786,1.465-10.742,4.125c-0.151,0.134-0.336,0.221-0.538,0.246c-1.717,0.216-3.456,0.326-5.17,0.326L74.925,86.929
							z M91.417,80.261c0.828-0.838,1.261-1.695,1.288-2.551c-0.393-0.028-0.784-0.046-1.183-0.046
							c-6.171,0-11.888,2.645-15.825,7.289c1.328-0.021,2.671-0.111,4-0.269C82.952,81.852,87.1,80.286,91.417,80.261z"/>
					</g>
					<g>
						<path fill="#FBCDB3" d="M74.925,85.941c-0.028,0-0.056-0.001-0.083-0.001c-0.164-0.296-0.355-0.576-0.5-0.882L74.925,85.941z"
							/>
						<path fill="#F8AD90" d="M74.842,86.926c0.364,0,0.741-0.198,0.911-0.519c0.173-0.318,0.194-0.706-0.006-1.01l-0.581-0.883
							c-0.287-0.434-0.862-0.57-1.31-0.315c-0.454,0.256-0.63,0.818-0.404,1.286c0.102,0.215,0.225,0.42,0.346,0.624l0.182,0.307
							C74.153,86.731,74.483,86.926,74.842,86.926z"/>
					</g>
					<g>
						<path fill="#FBCDB3" d="M91.797,81.267c-2.304,2.108-6.535,3.714-11.677,4.361c3.008-2.708,6.999-4.379,11.403-4.379
							C91.615,81.248,91.704,81.264,91.797,81.267z"/>
						<path fill="#F8AD90" d="M79.221,86.038c-0.179-0.392-0.083-0.857,0.238-1.146c3.317-2.987,7.601-4.631,12.063-4.631
							c0.08,0,0.16,0.006,0.296,0.017c0.402,0.009,0.76,0.263,0.902,0.639c0.142,0.378,0.04,0.805-0.257,1.078
							c-2.477,2.265-6.933,3.947-12.221,4.611c-0.043,0.005-0.083,0.008-0.124,0.008C79.737,86.614,79.382,86.392,79.221,86.038z
							 M84.929,83.652c0.92-0.267,1.776-0.57,2.566-0.903C86.615,82.976,85.756,83.279,84.929,83.652z"/>
					</g>
					<g>
						<path fill="#FCE871" d="M56.45,77.627c0-4.463,7.866-8.093,17.734-8.299c-0.686,1.497-1.177,3.099-1.449,4.773
							c-0.151,0.96-0.256,1.937-0.256,2.938c0,0.991,0.102,1.959,0.253,2.908c0.287,1.802,0.837,3.518,1.609,5.11
							c0.145,0.306,0.337,0.585,0.5,0.882C64.662,85.884,56.45,82.187,56.45,77.627z"/>
						<path fill="#C6DB62" d="M74.839,86.926c-10.865-0.059-19.374-4.145-19.374-9.299c0-5.071,8.039-9.063,18.701-9.287
							c0.371-0.02,0.658,0.161,0.846,0.446c0.185,0.284,0.213,0.644,0.071,0.953c-0.658,1.433-1.118,2.954-1.371,4.519
							c-0.164,1.022-0.244,1.934-0.244,2.783c0,0.846,0.081,1.747,0.241,2.752c0.266,1.68,0.778,3.306,1.523,4.838
							c0.077,0.159,0.17,0.311,0.259,0.462l0.216,0.371c0.17,0.306,0.164,0.681-0.016,0.982c-0.176,0.3-0.5,0.482-0.849,0.482
							H74.839z M57.438,77.627c0,3.301,6.257,6.859,15.745,7.284c-0.683-1.534-1.161-3.147-1.424-4.808
							c-0.179-1.108-0.266-2.111-0.266-3.063c0-0.956,0.086-1.969,0.269-3.096c0.194-1.218,0.506-2.414,0.926-3.567
							C64.276,70.882,57.438,74.066,57.438,77.627z"/>
					</g>
				</g>
			</g>
			<g>
				<g>
					<path fill="#372F16" d="M45.974,94.482c16.069,0,29.099,5.819,29.099,12.996v28.244v0.661h-0.077
						c-0.766,6.869-13.447,12.338-29.022,12.338c-15.572,0-28.253-5.469-29.022-12.338h-0.074v-28.905
						C16.878,100.301,29.905,94.482,45.974,94.482z"/>
					<path fill="#372F16" d="M16.125,137.368H15.89v-29.89c0-7.841,13.215-13.984,30.084-13.984
						c16.872,0,30.084,6.143,30.084,13.984v28.244l-0.074,1.646h-0.161c-1.705,7.094-14.225,12.338-29.85,12.338
						S17.829,144.462,16.125,137.368z M74.085,107.478c0-6.51-12.873-12.009-28.111-12.009c-15.235,0-28.108,5.499-28.108,12.009
						v28.176l0.068,0.617c0.708,6.319,13.284,11.461,28.04,11.461s27.336-5.142,28.043-11.461l0.068-0.352V107.478z"/>
				</g>
				<g>
					<path fill="#F0F4F7" d="M16.878,107.478c0,7.181,13.027,12.997,29.096,12.997s29.099-5.815,29.099-12.997
						c0-7.177-13.03-12.996-29.099-12.996S16.878,100.301,16.878,107.478z"/>
					<path fill="#372F16" d="M15.89,107.478c0-7.841,13.215-13.984,30.084-13.984c16.872,0,30.084,6.143,30.084,13.984
						s-13.212,13.981-30.084,13.981C29.105,121.459,15.89,115.319,15.89,107.478z M17.866,107.478
						c0,6.507,12.873,12.008,28.108,12.008c15.238,0,28.111-5.501,28.111-12.008c0-6.51-12.873-12.009-28.111-12.009
						C30.739,95.469,17.866,100.968,17.866,107.478z"/>
				</g>
				<g>
					<g>
						<path fill="#FBCDB3" d="M45.974,99.161c1.992,0,3.91,0.14,5.708,0.4c-2.913,1.073-5.627,2.549-8.042,4.392l1.662-4.779
							C45.526,99.172,45.749,99.161,45.974,99.161z"/>
						<path fill="#F8AD90" d="M43.062,104.752c-0.355-0.256-0.497-0.712-0.355-1.124l1.659-4.779
							c0.139-0.394,0.509-0.66,0.926-0.663l0.683-0.014c1.998,0,3.965,0.139,5.85,0.412c0.448,0.063,0.793,0.423,0.84,0.873
							c0.049,0.449-0.216,0.874-0.639,1.03c-2.835,1.045-5.454,2.474-7.786,4.25c-0.176,0.136-0.389,0.204-0.599,0.204
							C43.436,104.941,43.231,104.877,43.062,104.752z M46.008,100.147l-0.451,1.291c0.726-0.444,1.467-0.861,2.23-1.25
							C47.197,100.162,46.604,100.147,46.008,100.147z"/>
					</g>
					<g>
						<path fill="#FBCDB3" d="M43.639,103.953c0.269-1.674,0.763-3.277,1.449-4.773c0.071-0.002,0.142-0.003,0.213-0.006
							L43.639,103.953z"/>
						<path fill="#F8AD90" d="M43.639,104.941c0.414,0,0.794-0.259,0.933-0.664l1.662-4.779c0.105-0.307,0.056-0.646-0.136-0.908
							c-0.191-0.261-0.482-0.394-0.825-0.403c-0.376,0.011-0.926,0.239-1.081,0.581c-0.735,1.595-1.248,3.288-1.525,5.028
							c-0.083,0.507,0.234,0.99,0.732,1.115C43.479,104.93,43.559,104.941,43.639,104.941z"/>
					</g>
					<g>
						<path fill="#FBCDB3" d="M60.19,102.11c-6.473,0.539-12.279,3.374-16.554,7.687l0.003-5.845
							c2.415-1.842,5.13-3.318,8.042-4.392C55.032,100.044,57.97,100.937,60.19,102.11z"/>
						<path fill="#F8AD90" d="M43.259,110.712c-0.371-0.154-0.611-0.513-0.611-0.915l0.003-5.846c0-0.307,0.145-0.598,0.389-0.783
							c2.486-1.896,5.281-3.422,8.302-4.534c0.154-0.057,0.318-0.074,0.482-0.051c3.422,0.493,6.476,1.411,8.827,2.654
							c0.389,0.206,0.596,0.641,0.51,1.07c-0.09,0.431-0.451,0.75-0.887,0.786c-6.047,0.503-11.705,3.13-15.936,7.401
							c-0.188,0.191-0.445,0.291-0.701,0.291C43.51,110.786,43.38,110.761,43.259,110.712z M51.79,100.576
							c-2.591,0.977-4.997,2.277-7.162,3.871l-0.003,3.091c3.413-2.903,7.508-4.919,11.906-5.875
							C55.091,101.199,53.491,100.832,51.79,100.576z"/>
					</g>
					<g>
						<path fill="#FBCDB3" d="M43.383,106.891c0-1.002,0.102-1.978,0.256-2.938l-0.003,5.845
							C43.482,108.853,43.383,107.883,43.383,106.891z"/>
						<path fill="#F8AD90" d="M43.636,110.786c0.024,0,0.052,0,0.077-0.003c0.513-0.041,0.908-0.47,0.908-0.986l0.006-5.843
							c0-0.516-0.395-0.945-0.908-0.985c-0.556-0.051-0.973,0.321-1.057,0.828c-0.179,1.125-0.269,2.139-0.269,3.094
							c0,0.953,0.086,1.955,0.266,3.064C42.737,110.437,43.154,110.786,43.636,110.786z"/>
					</g>
					<g>
						<path fill="#FBCDB3" d="M64.505,106.649c-0.686-0.065-1.377-0.122-2.082-0.122c-7.014,0-13.234,3.295-17.178,8.382
							l-1.609-5.112c4.274-4.313,10.081-7.148,16.554-7.687C62.559,103.363,64.122,104.927,64.505,106.649z"/>
						<path fill="#F8AD90" d="M45.069,115.882c-0.361-0.065-0.658-0.327-0.766-0.677l-1.609-5.111
							c-0.111-0.349-0.019-0.729,0.241-0.992c4.559-4.602,10.661-7.434,17.175-7.976c0.188-0.017,0.377,0.023,0.541,0.111
							c2.718,1.435,4.382,3.232,4.818,5.196c0.068,0.309-0.016,0.633-0.226,0.87s-0.519,0.352-0.833,0.329
							c-0.655-0.063-1.313-0.117-1.986-0.117c-6.477,0-12.453,2.916-16.4,8.002c-0.188,0.24-0.476,0.38-0.778,0.38
							C45.187,115.897,45.128,115.895,45.069,115.882z M62.927,105.549c-0.605-0.858-1.612-1.689-2.943-2.429
							c-5.738,0.544-11.112,3.002-15.226,6.958l0.889,2.82c4.287-4.698,10.306-7.358,16.777-7.358
							C62.593,105.54,62.76,105.543,62.927,105.549z"/>
					</g>
					<g>
						<path fill="#FBCDB3" d="M43.636,109.797l1.609,5.112C44.47,113.318,43.923,111.602,43.636,109.797z"/>
						<path fill="#F8AD90" d="M45.245,115.897c0.121,0,0.244-0.021,0.365-0.071c0.479-0.191,0.732-0.72,0.574-1.211l-1.606-5.114
							c-0.154-0.494-0.67-0.778-1.167-0.664c-0.506,0.121-0.831,0.605-0.75,1.115c0.3,1.871,0.868,3.688,1.696,5.389
							C44.525,115.69,44.875,115.897,45.245,115.897z"/>
					</g>
					<g>
						<path fill="#FBCDB3" d="M62.423,106.527c0.704,0,1.396,0.057,2.082,0.122c0.059,0.272,0.092,0.548,0.092,0.829
							c0,1.307-0.695,2.542-1.896,3.641c-0.093-0.003-0.182-0.019-0.278-0.019c-4.404,0-8.392,1.668-11.403,4.38
							c-1.606,0.2-3.295,0.314-5.046,0.314c-0.049,0-0.099-0.003-0.148-0.003l-0.581-0.883
							C49.189,109.822,55.409,106.527,62.423,106.527z"/>
						<path fill="#F8AD90" d="M45.826,116.78c-0.33,0-0.642-0.167-0.821-0.441l-0.584-0.884c-0.234-0.354-0.216-0.814,0.043-1.151
							c4.321-5.568,10.868-8.764,17.959-8.764c0.738,0,1.458,0.057,2.174,0.127c0.426,0.04,0.778,0.352,0.871,0.771
							c0.077,0.349,0.114,0.698,0.114,1.041c0,1.535-0.766,3.042-2.217,4.371c-0.186,0.17-0.655,0.262-0.942,0.24
							c-3.969,0-7.786,1.464-10.739,4.123c-0.151,0.133-0.34,0.22-0.541,0.244c-1.714,0.217-3.456,0.327-5.17,0.327L45.826,116.78z
							 M62.321,110.112c0.828-0.84,1.257-1.695,1.285-2.551c-0.389-0.028-0.781-0.046-1.183-0.046
							c-6.168,0-11.885,2.647-15.822,7.289c1.328-0.021,2.671-0.111,3.997-0.269C53.856,111.706,58,110.137,62.321,110.112z"/>
					</g>
					<g>
						<path fill="#FBCDB3" d="M45.826,115.792c-0.028,0-0.052-0.003-0.08-0.003c-0.164-0.297-0.355-0.574-0.5-0.88L45.826,115.792z"
							/>
						<path fill="#F8AD90" d="M45.746,116.777c0.361,0,0.738-0.197,0.911-0.519c0.17-0.318,0.194-0.704-0.006-1.01l-0.583-0.884
							c-0.284-0.433-0.862-0.571-1.31-0.314c-0.451,0.256-0.627,0.818-0.401,1.287c0.102,0.213,0.222,0.42,0.346,0.624l0.179,0.306
							C45.054,116.583,45.387,116.777,45.746,116.777z"/>
					</g>
					<g>
						<path fill="#FBCDB3" d="M62.701,111.119c-2.307,2.106-6.535,3.713-11.681,4.361c3.011-2.712,6.999-4.38,11.403-4.38
							C62.519,111.101,62.608,111.116,62.701,111.119z"/>
						<path fill="#F8AD90" d="M50.125,115.888c-0.182-0.389-0.083-0.855,0.235-1.143c3.32-2.986,7.604-4.633,12.063-4.633
							c0.083,0,0.16,0.006,0.299,0.019c0.401,0.006,0.76,0.26,0.902,0.64c0.142,0.377,0.04,0.803-0.256,1.078
							c-2.48,2.267-6.934,3.946-12.224,4.607c-0.04,0.006-0.08,0.01-0.124,0.01C50.641,116.466,50.286,116.243,50.125,115.888z
							 M55.833,113.504c0.917-0.266,1.776-0.568,2.563-0.902C57.519,112.83,56.66,113.13,55.833,113.504z"/>
					</g>
					<g>
						<path fill="#FCE871" d="M27.354,107.478c0-4.463,7.866-8.092,17.734-8.298c-0.686,1.496-1.18,3.099-1.449,4.773
							c-0.154,0.96-0.256,1.937-0.256,2.938c0,0.992,0.099,1.961,0.253,2.906c0.287,1.804,0.834,3.521,1.609,5.112
							c0.146,0.306,0.337,0.583,0.5,0.88C35.566,115.733,27.354,112.04,27.354,107.478z"/>
						<path fill="#C6DB62" d="M45.739,116.777c-10.865-0.059-19.374-4.145-19.374-9.299c0-5.071,8.039-9.063,18.7-9.287
							c0.365,0,0.661,0.16,0.846,0.446c0.188,0.284,0.216,0.644,0.071,0.954c-0.655,1.433-1.118,2.953-1.368,4.517
							c-0.167,1.022-0.244,1.934-0.244,2.783c0,0.846,0.077,1.745,0.241,2.752c0.266,1.68,0.778,3.304,1.522,4.836
							c0.074,0.161,0.167,0.312,0.259,0.464l0.216,0.37c0.17,0.309,0.164,0.68-0.016,0.982c-0.179,0.299-0.5,0.481-0.849,0.481
							C45.743,116.777,45.743,116.777,45.739,116.777z M28.342,107.478c0,3.301,6.254,6.86,15.745,7.286
							c-0.683-1.532-1.161-3.15-1.427-4.809c-0.179-1.109-0.266-2.111-0.266-3.064c0-0.956,0.09-1.969,0.272-3.096
							c0.194-1.218,0.503-2.414,0.923-3.567C35.18,100.734,28.342,103.917,28.342,107.478z"/>
					</g>
				</g>
			</g>
		</g>
		<g>
			<g>
				<g>
					<path fill="#372F16" d="M133.998,64.629c16.068,0,29.099,5.819,29.099,12.998v28.245v0.658h-0.077
						c-0.766,6.869-13.447,12.338-29.021,12.338c-15.572,0-28.254-5.47-29.022-12.338h-0.074V77.627
						C104.901,70.448,117.929,64.629,133.998,64.629z"/>
					<path fill="#372F16" d="M104.147,107.517h-0.234v-29.89c0-7.842,13.216-13.984,30.085-13.984
						c16.872,0,30.084,6.143,30.084,13.984v28.245l-0.074,1.645h-0.16c-1.705,7.093-14.226,12.34-29.85,12.34
						C118.373,119.856,105.853,114.609,104.147,107.517z M162.108,77.627c0-6.511-12.872-12.009-28.11-12.009
						c-15.235,0-28.108,5.499-28.108,12.009v28.174l0.068,0.618c0.707,6.318,13.283,11.464,28.04,11.464
						c14.756,0,27.335-5.146,28.039-11.464l0.071-0.349V77.627z"/>
				</g>
				<g>
					<ellipse fill="#F0F4F7" cx="133.999" cy="77.627" rx="29.098" ry="12.995"/>
					<path fill="#372F16" d="M103.913,77.627c0-7.842,13.216-13.984,30.085-13.984c16.872,0,30.084,6.143,30.084,13.984
						c0,7.841-13.212,13.983-30.084,13.983C117.129,91.61,103.913,85.468,103.913,77.627z M105.89,77.627
						c0,6.509,12.873,12.008,28.108,12.008c15.238,0,28.11-5.499,28.11-12.008c0-6.511-12.872-12.009-28.11-12.009
						C118.763,65.618,105.89,71.116,105.89,77.627z"/>
				</g>
				<g>
					<g>
						<path fill="#FBCDB3" d="M133.998,69.308c1.991,0,3.909,0.141,5.707,0.401c-2.912,1.072-5.627,2.55-8.042,4.392l1.661-4.779
							C133.55,69.32,133.772,69.308,133.998,69.308z"/>
						<path fill="#F8AD90" d="M131.085,74.901c-0.354-0.256-0.5-0.712-0.354-1.124l1.658-4.78c0.139-0.394,0.51-0.659,0.927-0.662
							l0.683-0.014c1.998,0,3.962,0.139,5.849,0.413c0.448,0.063,0.794,0.423,0.841,0.872c0.046,0.45-0.217,0.874-0.64,1.03
							c-2.835,1.044-5.454,2.474-7.786,4.25c-0.176,0.136-0.389,0.202-0.599,0.202C131.459,75.088,131.255,75.026,131.085,74.901z
							 M134.031,70.296l-0.45,1.291c0.723-0.446,1.467-0.862,2.229-1.251C135.218,70.309,134.628,70.296,134.031,70.296z"/>
					</g>
					<g>
						<path fill="#FBCDB3" d="M131.663,74.102c0.269-1.674,0.763-3.277,1.448-4.773c0.071-0.001,0.142-0.004,0.213-0.006
							L131.663,74.102z"/>
						<path fill="#F8AD90" d="M131.663,75.088c0.413,0,0.793-0.258,0.933-0.662l1.661-4.779c0.105-0.308,0.056-0.646-0.136-0.908
							s-0.503-0.384-0.824-0.403c-0.377,0.009-0.927,0.238-1.081,0.581c-0.735,1.594-1.248,3.286-1.526,5.028
							c-0.083,0.505,0.235,0.99,0.732,1.115C131.502,75.079,131.582,75.088,131.663,75.088z"/>
					</g>
					<g>
						<path fill="#FBCDB3" d="M148.214,72.259c-6.474,0.539-12.28,3.374-16.555,7.688l0.004-5.846
							c2.415-1.842,5.13-3.32,8.042-4.392C143.056,70.191,145.993,71.085,148.214,72.259z"/>
						<path fill="#F8AD90" d="M131.283,80.86c-0.371-0.153-0.612-0.514-0.612-0.914l0.004-5.847c0-0.307,0.145-0.597,0.389-0.783
							c2.486-1.896,5.281-3.422,8.299-4.534c0.154-0.059,0.321-0.076,0.484-0.051c3.423,0.493,6.477,1.41,8.827,2.655
							c0.389,0.204,0.596,0.641,0.51,1.07c-0.09,0.431-0.451,0.75-0.89,0.786c-6.044,0.503-11.705,3.13-15.934,7.4
							c-0.188,0.19-0.444,0.292-0.701,0.292C131.53,80.935,131.403,80.91,131.283,80.86z M139.813,70.723
							c-2.592,0.979-4.997,2.279-7.162,3.873l-0.003,3.091c3.412-2.903,7.508-4.92,11.905-5.875
							C143.111,71.348,141.515,70.98,139.813,70.723z"/>
					</g>
					<g>
						<path fill="#FBCDB3" d="M131.406,77.04c0-1.002,0.102-1.978,0.257-2.938l-0.004,5.846
							C131.505,79,131.406,78.031,131.406,77.04z"/>
						<path fill="#F8AD90" d="M131.659,80.935c0.025,0,0.053-0.001,0.078-0.003c0.513-0.042,0.907-0.47,0.907-0.984l0.007-5.845
							c0-0.516-0.396-0.945-0.908-0.987c-0.556-0.046-0.973,0.321-1.057,0.829c-0.179,1.126-0.269,2.139-0.269,3.095
							c0,0.953,0.087,1.955,0.266,3.063C130.761,80.585,131.178,80.935,131.659,80.935z"/>
					</g>
					<g>
						<path fill="#FBCDB3" d="M152.528,76.798c-0.686-0.065-1.378-0.122-2.082-0.122c-7.014,0-13.233,3.297-17.178,8.382
							l-1.609-5.11c4.274-4.314,10.081-7.15,16.555-7.688C150.582,73.512,152.146,75.076,152.528,76.798z"/>
						<path fill="#F8AD90" d="M133.093,86.03c-0.361-0.064-0.658-0.326-0.766-0.676l-1.609-5.111
							c-0.111-0.349-0.019-0.73,0.237-0.991c4.562-4.602,10.662-7.434,17.179-7.976c0.191-0.019,0.373,0.023,0.54,0.111
							c2.718,1.435,4.383,3.232,4.818,5.196c0.067,0.309-0.016,0.631-0.226,0.868c-0.207,0.238-0.522,0.357-0.834,0.329
							c-0.655-0.062-1.312-0.116-1.986-0.116c-6.477,0-12.455,2.916-16.399,7.999c-0.188,0.244-0.476,0.383-0.778,0.383
							C133.21,86.046,133.151,86.042,133.093,86.03z M150.95,75.697c-0.605-0.857-1.612-1.689-2.943-2.428
							c-5.738,0.543-11.112,3-15.227,6.958l0.89,2.819c4.287-4.697,10.307-7.358,16.776-7.358
							C150.616,75.689,150.783,75.692,150.95,75.697z"/>
					</g>
					<g>
						<path fill="#FBCDB3" d="M131.659,79.948l1.609,5.11C132.493,83.465,131.947,81.75,131.659,79.948z"/>
						<path fill="#F8AD90" d="M133.269,86.046c0.12,0,0.244-0.023,0.364-0.069c0.479-0.193,0.732-0.721,0.575-1.214l-1.609-5.111
							c-0.154-0.494-0.67-0.778-1.164-0.666c-0.507,0.119-0.831,0.605-0.751,1.116c0.3,1.872,0.868,3.685,1.695,5.386
							C132.549,85.839,132.898,86.046,133.269,86.046z"/>
					</g>
					<g>
						<path fill="#FBCDB3" d="M150.446,76.676c0.704,0,1.396,0.057,2.082,0.122c0.059,0.271,0.09,0.548,0.09,0.829
							c0,1.308-0.692,2.54-1.894,3.64c-0.093-0.003-0.183-0.019-0.278-0.019c-4.403,0-8.391,1.671-11.402,4.379
							c-1.605,0.202-3.295,0.318-5.046,0.318c-0.05,0-0.1-0.004-0.148-0.004l-0.581-0.883
							C137.213,79.973,143.433,76.676,150.446,76.676z"/>
						<path fill="#F8AD90" d="M133.85,86.929c-0.331,0-0.643-0.167-0.825-0.445l-0.58-0.883c-0.235-0.352-0.217-0.813,0.043-1.149
							c4.32-5.568,10.868-8.763,17.959-8.763c0.738,0,1.458,0.057,2.175,0.126c0.426,0.04,0.778,0.352,0.871,0.771
							c0.077,0.349,0.114,0.698,0.114,1.041c0,1.533-0.767,3.043-2.218,4.369c-0.186,0.171-0.68,0.258-0.942,0.241
							c-3.969,0-7.786,1.465-10.738,4.125c-0.151,0.134-0.34,0.221-0.54,0.246c-1.715,0.216-3.456,0.326-5.17,0.326L133.85,86.929z
							 M150.345,80.261c0.827-0.838,1.257-1.695,1.285-2.551c-0.39-0.028-0.782-0.046-1.184-0.046
							c-6.167,0-11.884,2.645-15.821,7.289c1.327-0.021,2.668-0.111,3.996-0.269C141.879,81.852,146.024,80.286,150.345,80.261z"/>
					</g>
					<g>
						<path fill="#FBCDB3" d="M133.85,85.941c-0.028,0-0.053-0.001-0.08-0.001c-0.164-0.296-0.355-0.576-0.501-0.882L133.85,85.941z
							"/>
						<path fill="#F8AD90" d="M133.77,86.926c0.361,0,0.737-0.198,0.91-0.519c0.17-0.318,0.195-0.706-0.006-1.01l-0.584-0.883
							c-0.284-0.434-0.861-0.57-1.31-0.315c-0.453,0.256-0.627,0.818-0.401,1.286c0.103,0.215,0.223,0.42,0.343,0.624l0.183,0.307
							C133.077,86.731,133.411,86.926,133.77,86.926z"/>
					</g>
					<g>
						<path fill="#FBCDB3" d="M150.725,81.267c-2.307,2.108-6.535,3.714-11.681,4.361c3.012-2.708,6.999-4.379,11.402-4.379
							C150.542,81.248,150.632,81.264,150.725,81.267z"/>
						<path fill="#F8AD90" d="M138.146,86.038c-0.18-0.392-0.08-0.857,0.237-1.146c3.32-2.987,7.604-4.631,12.063-4.631
							c0.084,0,0.161,0.006,0.3,0.017c0.401,0.009,0.76,0.263,0.902,0.639c0.142,0.378,0.04,0.805-0.257,1.078
							c-2.479,2.265-6.934,3.947-12.224,4.611c-0.04,0.005-0.081,0.008-0.124,0.008C138.664,86.614,138.309,86.392,138.146,86.038z
							 M143.855,83.652c0.918-0.267,1.776-0.57,2.563-0.903C145.542,82.978,144.684,83.279,143.855,83.652z"/>
					</g>
					<g>
						<path fill="#FCE871" d="M115.377,77.627c0-4.463,7.867-8.093,17.734-8.299c-0.686,1.497-1.18,3.099-1.448,4.773
							c-0.155,0.96-0.257,1.937-0.257,2.938c0,0.991,0.099,1.959,0.253,2.908c0.288,1.802,0.834,3.518,1.609,5.11
							c0.146,0.306,0.337,0.585,0.501,0.882C123.59,85.884,115.377,82.187,115.377,77.627z"/>
						<path fill="#C6DB62" d="M133.763,86.926c-10.865-0.059-19.374-4.145-19.374-9.299c0-5.071,8.04-9.063,18.701-9.287
							c0.34-0.02,0.661,0.161,0.846,0.446c0.188,0.284,0.217,0.644,0.071,0.953c-0.654,1.433-1.118,2.954-1.368,4.519
							c-0.167,1.022-0.244,1.934-0.244,2.783c0,0.846,0.077,1.747,0.241,2.752c0.266,1.68,0.778,3.306,1.52,4.838
							c0.077,0.159,0.17,0.311,0.263,0.462l0.216,0.371c0.17,0.306,0.164,0.681-0.016,0.982c-0.179,0.3-0.5,0.482-0.849,0.482
							C133.77,86.926,133.766,86.926,133.763,86.926z M116.365,77.627c0,3.301,6.255,6.859,15.745,7.284
							c-0.683-1.534-1.161-3.147-1.427-4.808c-0.179-1.108-0.266-2.111-0.266-3.063c0-0.956,0.09-1.969,0.271-3.096
							c0.195-1.218,0.504-2.414,0.924-3.567C123.203,70.882,116.365,74.066,116.365,77.627z"/>
					</g>
				</g>
			</g>
			<g>
				<g>
					<path fill="#372F16" d="M104.901,94.482c16.069,0,29.097,5.819,29.097,12.996v28.244v0.661h-0.074
						c-0.77,6.869-13.45,12.338-29.022,12.338c-15.575,0-28.256-5.469-29.022-12.338h-0.077v-28.905
						C75.802,100.301,88.833,94.482,104.901,94.482z"/>
					<path fill="#372F16" d="M75.052,137.368h-0.235v-29.89c0-7.841,13.215-13.984,30.084-13.984s30.085,6.143,30.085,13.984v28.244
						l-0.074,1.646h-0.161c-1.705,7.094-14.226,12.338-29.85,12.338C89.277,149.706,76.756,144.462,75.052,137.368z
						 M133.013,107.478c0-6.51-12.876-12.009-28.111-12.009c-15.238,0-28.111,5.499-28.111,12.009v28.176l0.071,0.617
						c0.705,6.319,13.284,11.461,28.04,11.461c14.757,0,27.333-5.142,28.04-11.461l0.071-0.352V107.478z"/>
				</g>
				<g>
					<path fill="#F0F4F7" d="M75.802,107.478c0,7.181,13.03,12.997,29.099,12.997c16.069,0,29.097-5.815,29.097-12.997
						c0-7.177-13.027-12.996-29.097-12.996C88.833,94.482,75.802,100.301,75.802,107.478z"/>
					<path fill="#372F16" d="M74.817,107.478c0-7.841,13.215-13.984,30.084-13.984s30.085,6.143,30.085,13.984
						s-13.216,13.981-30.085,13.981S74.817,115.319,74.817,107.478z M76.791,107.478c0,6.507,12.873,12.008,28.111,12.008
						c15.235,0,28.111-5.501,28.111-12.008c0-6.51-12.876-12.009-28.111-12.009C89.663,95.469,76.791,100.968,76.791,107.478z"/>
				</g>
				<g>
					<g>
						<path fill="#FBCDB3" d="M104.901,99.161c1.992,0,3.91,0.14,5.707,0.4c-2.912,1.073-5.627,2.549-8.042,4.392l1.658-4.779
							C104.45,99.172,104.673,99.161,104.901,99.161z"/>
						<path fill="#F8AD90" d="M101.986,104.752c-0.353-0.256-0.498-0.712-0.355-1.124l1.661-4.779
							c0.137-0.394,0.507-0.66,0.927-0.663l0.683-0.014c1.995,0,3.963,0.139,5.847,0.412c0.447,0.063,0.794,0.423,0.84,0.873
							c0.05,0.449-0.213,0.874-0.64,1.03c-2.835,1.045-5.454,2.474-7.785,4.25c-0.177,0.136-0.387,0.204-0.597,0.204
							C102.362,104.941,102.159,104.877,101.986,104.752z M104.933,100.147l-0.448,1.291c0.723-0.444,1.467-0.861,2.227-1.25
							C106.121,100.162,105.528,100.147,104.933,100.147z"/>
					</g>
					<g>
						<path fill="#FBCDB3" d="M102.566,103.953c0.269-1.674,0.76-3.277,1.448-4.773c0.071-0.002,0.14-0.003,0.21-0.006
							L102.566,103.953z"/>
						<path fill="#F8AD90" d="M102.566,104.941c0.411,0,0.791-0.259,0.933-0.664l1.662-4.779c0.104-0.307,0.052-0.646-0.14-0.908
							c-0.191-0.261-0.5-0.394-0.824-0.403c-0.374,0.011-0.924,0.239-1.081,0.581c-0.731,1.595-1.244,3.288-1.525,5.028
							c-0.084,0.507,0.234,0.99,0.735,1.115C102.406,104.93,102.486,104.941,102.566,104.941z"/>
					</g>
					<g>
						<path fill="#FBCDB3" d="M119.117,102.11c-6.477,0.539-12.279,3.374-16.557,7.687l0.006-5.845
							c2.415-1.842,5.13-3.318,8.042-4.392C113.96,100.044,116.894,100.937,119.117,102.11z"/>
						<path fill="#F8AD90" d="M102.187,110.712c-0.37-0.154-0.611-0.513-0.611-0.915l0.003-5.846c0-0.307,0.146-0.598,0.39-0.783
							c2.485-1.896,5.277-3.422,8.298-4.534c0.151-0.057,0.318-0.074,0.482-0.051c3.425,0.493,6.477,1.411,8.83,2.654
							c0.389,0.206,0.593,0.641,0.506,1.07c-0.086,0.431-0.447,0.75-0.886,0.786c-6.045,0.503-11.706,3.13-15.934,7.401
							c-0.191,0.191-0.444,0.291-0.704,0.291C102.434,110.786,102.308,110.761,102.187,110.712z M110.717,100.576
							c-2.591,0.977-4.997,2.277-7.165,3.871v3.091c3.413-2.903,7.508-4.919,11.906-5.875
							C114.016,101.199,112.419,100.832,110.717,100.576z"/>
					</g>
					<g>
						<path fill="#FBCDB3" d="M102.308,106.891c0-1.002,0.104-1.978,0.259-2.938l-0.006,5.845
							C102.409,108.853,102.308,107.883,102.308,106.891z"/>
						<path fill="#F8AD90" d="M102.561,110.786c0.024,0,0.053,0,0.08-0.003c0.513-0.041,0.908-0.47,0.908-0.986l0.003-5.843
							c0-0.516-0.396-0.945-0.908-0.985c-0.543-0.051-0.973,0.321-1.053,0.828c-0.18,1.125-0.269,2.139-0.269,3.094
							c0,0.953,0.086,1.955,0.266,3.064C101.665,110.437,102.082,110.786,102.561,110.786z"/>
					</g>
					<g>
						<path fill="#FBCDB3" d="M123.429,106.649c-0.686-0.065-1.374-0.122-2.078-0.122c-7.017,0-13.234,3.295-17.181,8.382
							l-1.609-5.112c4.277-4.313,10.08-7.148,16.557-7.687C121.486,103.363,123.046,104.927,123.429,106.649z"/>
						<path fill="#F8AD90" d="M103.996,115.882c-0.361-0.065-0.657-0.327-0.769-0.677l-1.606-5.111
							c-0.11-0.349-0.019-0.729,0.238-0.992c4.562-4.602,10.661-7.434,17.178-7.976c0.188-0.017,0.374,0.023,0.541,0.111
							c2.714,1.435,4.379,3.232,4.814,5.196c0.068,0.309-0.016,0.633-0.223,0.87c-0.21,0.236-0.521,0.352-0.837,0.329
							c-0.651-0.063-1.312-0.117-1.982-0.117c-6.479,0-12.456,2.916-16.399,8.002c-0.188,0.24-0.479,0.38-0.781,0.38
							C104.11,115.897,104.056,115.895,103.996,115.882z M121.854,105.549c-0.608-0.858-1.611-1.689-2.946-2.429
							c-5.735,0.544-11.112,3.002-15.223,6.958l0.89,2.82c4.283-4.698,10.303-7.358,16.776-7.358
							C121.518,105.54,121.688,105.543,121.854,105.549z"/>
					</g>
					<g>
						<path fill="#FBCDB3" d="M102.561,109.797l1.609,5.112C103.397,113.318,102.848,111.602,102.561,109.797z"/>
						<path fill="#F8AD90" d="M104.17,115.897c0.12,0,0.243-0.021,0.364-0.071c0.481-0.191,0.731-0.72,0.577-1.211l-1.609-5.114
							c-0.154-0.494-0.67-0.778-1.167-0.664c-0.503,0.121-0.831,0.605-0.751,1.115c0.3,1.871,0.871,3.688,1.696,5.389
							C103.45,115.69,103.802,115.897,104.17,115.897z"/>
					</g>
					<g>
						<path fill="#FBCDB3" d="M121.351,106.527c0.704,0,1.393,0.057,2.078,0.122c0.059,0.272,0.093,0.548,0.093,0.829
							c0,1.307-0.691,2.542-1.896,3.641c-0.093-0.003-0.182-0.019-0.274-0.019c-4.404,0-8.395,1.668-11.402,4.38
							c-1.606,0.2-3.296,0.314-5.047,0.314c-0.05,0-0.099-0.003-0.148-0.003l-0.583-0.883
							C108.116,109.822,114.334,106.527,121.351,106.527z"/>
						<path fill="#F8AD90" d="M104.753,116.78c-0.333,0-0.643-0.167-0.824-0.441l-0.584-0.884c-0.231-0.354-0.216-0.814,0.043-1.151
							c4.324-5.568,10.868-8.764,17.963-8.764c0.735,0,1.458,0.057,2.174,0.127c0.427,0.04,0.775,0.352,0.868,0.771
							c0.077,0.349,0.117,0.698,0.117,1.041c0,1.535-0.769,3.042-2.218,4.371c-0.188,0.17-0.67,0.262-0.941,0.24
							c-3.972,0-7.786,1.464-10.742,4.123c-0.147,0.133-0.336,0.22-0.537,0.244c-1.717,0.217-3.456,0.327-5.17,0.327L104.753,116.78
							z M121.245,110.112c0.828-0.84,1.261-1.695,1.288-2.551c-0.389-0.028-0.784-0.046-1.183-0.046
							c-6.171,0-11.888,2.647-15.825,7.289c1.328-0.021,2.672-0.111,3.999-0.269C112.78,111.706,116.928,110.137,121.245,110.112z"
							/>
					</g>
					<g>
						<path fill="#FBCDB3" d="M104.753,115.792c-0.027,0-0.056-0.003-0.08-0.003c-0.167-0.297-0.355-0.574-0.503-0.88
							L104.753,115.792z"/>
						<path fill="#F8AD90" d="M104.673,116.777c0.361,0,0.738-0.197,0.908-0.519c0.173-0.318,0.194-0.704-0.007-1.01l-0.58-0.884
							c-0.287-0.433-0.861-0.571-1.31-0.314c-0.454,0.256-0.63,0.818-0.404,1.287c0.102,0.213,0.226,0.42,0.346,0.624l0.183,0.306
							C103.981,116.583,104.312,116.777,104.673,116.777z"/>
					</g>
					<g>
						<path fill="#FBCDB3" d="M121.625,111.119c-2.304,2.106-6.531,3.713-11.677,4.361c3.008-2.712,6.998-4.38,11.402-4.38
							C121.443,111.101,121.532,111.116,121.625,111.119z"/>
						<path fill="#F8AD90" d="M109.049,115.888c-0.179-0.389-0.083-0.855,0.238-1.143c3.32-2.986,7.604-4.633,12.063-4.633
							c0.08,0,0.16,0.006,0.296,0.019c0.405,0.006,0.76,0.26,0.902,0.64c0.146,0.377,0.04,0.803-0.257,1.078
							c-2.477,2.267-6.933,3.946-12.221,4.607c-0.043,0.006-0.083,0.01-0.123,0.01C109.565,116.466,109.213,116.243,109.049,115.888
							z M114.76,113.504c0.917-0.266,1.775-0.568,2.563-0.902C116.443,112.827,115.584,113.13,114.76,113.504z"/>
					</g>
					<g>
						<path fill="#FCE871" d="M86.278,107.478c0-4.463,7.866-8.092,17.736-8.298c-0.688,1.496-1.18,3.099-1.448,4.773
							c-0.154,0.96-0.259,1.937-0.259,2.938c0,0.992,0.102,1.961,0.253,2.906c0.287,1.804,0.837,3.521,1.609,5.112
							c0.147,0.306,0.336,0.583,0.503,0.88C94.493,115.733,86.278,112.04,86.278,107.478z"/>
						<path fill="#C6DB62" d="M104.667,116.777c-10.865-0.059-19.374-4.145-19.374-9.299c0-5.071,8.039-9.063,18.7-9.287
							c0.327,0,0.658,0.16,0.847,0.446c0.186,0.284,0.213,0.644,0.071,0.954c-0.655,1.433-1.118,2.953-1.368,4.517
							c-0.167,1.022-0.247,1.934-0.247,2.783c0,0.846,0.08,1.745,0.24,2.752c0.266,1.68,0.781,3.304,1.522,4.836
							c0.077,0.161,0.17,0.312,0.26,0.464l0.216,0.37c0.17,0.309,0.164,0.68-0.015,0.982c-0.177,0.299-0.501,0.481-0.847,0.481
							H104.667z M87.267,107.478c0,3.301,6.257,6.86,15.745,7.286c-0.683-1.532-1.162-3.15-1.424-4.809
							c-0.18-1.109-0.266-2.111-0.266-3.064c0-0.956,0.089-1.969,0.269-3.096c0.194-1.218,0.506-2.414,0.927-3.567
							C94.107,100.734,87.267,103.917,87.267,107.478z"/>
					</g>
				</g>
			</g>
		</g>
	</g>
</g>
</svg>
