<?xml version="1.0" encoding="utf-8"?>
<!-- Generator: Adobe Illustrator 16.0.0, SVG Export Plug-In . SVG Version: 6.00 Build 0)  -->
<!DOCTYPE svg PUBLIC "-//W3C//DTD SVG 1.1//EN" "http://www.w3.org/Graphics/SVG/1.1/DTD/svg11.dtd">
<svg version="1.1" id="Layer_1" xmlns="http://www.w3.org/2000/svg" xmlns:xlink="http://www.w3.org/1999/xlink" x="0px" y="0px"
	 width="180px" height="220px" viewBox="0 0 180 220" enable-background="new 0 0 180 220" xml:space="preserve">
<g opacity="0.1">
	<path fill="#231F20" d="M149.557,136.305c0.008,0.459-0.07,0.893-0.117,1.336c0.146-1.301,0.084-2.666-0.275-4.158
		c0.044-0.357,0.066-0.719,0.062-1.082c-0.039-2.078-0.076-4.16-0.111-6.24c0.008,0.422-0.031,0.845-0.088,1.264
		c0.142-1.029,0.123-2.078-0.219-3.117c-0.842-2.51-3.336-4.602-5.724-6.633c-0.46-0.374-0.899-0.742-1.329-1.123
		c-2.016-4.652-4.369-8.318-9.079-11.082c-2.093-1.234-4.646-2.231-7.761-3.065c-3.84-1.03-8.139-1.695-12.236-2.247
		c-1.4-0.421-2.764-0.897-4.141-1.375c-1.788-0.62-3.634-1.271-5.53-1.781c-2.069-0.553-3.962-0.872-5.797-0.988
		c-3.166-0.193-6.185,0.235-8.762,0.686c-5.704-0.605-10.265-0.544-14.385,0.182c-2.972,0.534-5.91,1.465-8.996,2.859
		c-1.535,0.263-2.897,0.603-4.114,1.025c-3.66,1.271-6.236,3.383-8.709,5.426c-1.223,1-2.486,2.023-3.828,2.916
		c-1.284,0.844-2.757,1.638-4.313,2.472c-3.155,1.688-6.433,3.438-8.267,5.856c-0.274,0.363-0.476,0.73-0.69,1.111
		c-1.716,1.621-2.876,3.219-3.582,4.859c-0.62,1.428-0.886,2.902-0.827,4.5c-0.003-0.082-0.016-0.168-0.016-0.248l0.108,6.242
		c0.016,0.918,0.153,1.879,0.401,2.893c-0.044,0.383-0.078,0.771-0.062,1.162c0-0.053-0.013-0.107-0.013-0.158l0.111,6.24
		c0.013,0.617,0.103,1.238,0.308,1.854c0.824,2.508,3.308,4.611,5.727,6.633c0.437,0.369,0.892,0.756,1.308,1.117
		c2.037,4.66,4.391,8.326,9.1,11.088c2.091,1.232,4.636,2.246,7.753,3.078c3.817,1.023,8.146,1.682,12.225,2.229
		c1.424,0.43,2.783,0.9,4.14,1.375c1.801,0.641,3.654,1.275,5.53,1.779c2.091,0.562,3.98,0.877,5.794,0.99
		c3.189,0.197,6.197-0.217,8.753-0.672c5.715,0.59,10.297,0.535,14.396-0.197c2.993-0.525,5.933-1.459,8.988-2.848
		c1.563-0.27,2.926-0.607,4.142-1.031c3.664-1.271,6.215-3.387,8.711-5.424c1.213-0.988,2.486-2.023,3.83-2.916
		c1.26-0.854,2.728-1.633,4.282-2.465c3.175-1.686,6.431-3.438,8.265-5.855c0.277-0.365,0.511-0.74,0.711-1.109
		c1.729-1.633,2.888-3.23,3.594-4.871c0.589-1.354,0.867-2.744,0.845-4.244L149.557,136.305z"/>
	<g>
		<path fill="#231F20" d="M36.964,135.168c0.364,0.098,0.651,0.295,0.734,0.553c0.801,2.559,3.936,4.822,6.746,7.279l0.202,0.242
			c1.734,4.047,3.905,7.85,8.456,10.51c1.99,1.176,4.368,2.062,7.014,2.771c3.584,0.959,7.678,1.588,11.896,2.154l0.284,0.061
			c3.432,1.027,6.58,2.326,9.717,3.166c1.664,0.445,3.321,0.766,5.008,0.875c2.608,0.148,5.275-0.184,8.038-0.678l0.61-0.025
			c4.72,0.512,9.235,0.646,13.49-0.125c0.312-0.047,0.62-0.027,0.889,0.045c0.339,0.09,0.606,0.266,0.706,0.492
			c0.201,0.414-0.209,0.854-0.895,0.98c-4.742,0.846-9.596,0.699-14.408,0.189c-2.793,0.496-5.716,0.871-8.737,0.678
			c-2.068-0.115-3.965-0.498-5.797-0.988c-3.388-0.908-6.51-2.199-9.668-3.148c-4.228-0.578-8.412-1.213-12.227-2.232
			c-2.861-0.768-5.507-1.742-7.764-3.064c-5.076-2.986-7.327-7.053-9.092-11.1c-2.678-2.33-6.014-4.693-7.042-7.74
			c-0.137-0.43,0.315-0.854,1.028-0.947C36.434,135.08,36.721,135.1,36.964,135.168z"/>
	</g>
	<g>
		<g>
			<path fill="#231F20" d="M89.061,103.505c2.367,0.636,3.419,2.324,2.315,3.781c-1.093,1.442-3.92,2.093-6.291,1.459
				c-2.365-0.635-3.401-2.32-2.308-3.763C83.884,103.527,86.69,102.872,89.061,103.505z"/>
		</g>
		<g>
			<path fill="#231F20" d="M112.759,116.16c2.368,0.633,3.399,2.318,2.306,3.762c-1.104,1.455-3.912,2.111-6.279,1.477
				c-2.391-0.641-3.422-2.324-2.32-3.781C107.562,116.175,110.369,115.52,112.759,116.16z"/>
		</g>
		<g>
			<path fill="#231F20" d="M57.867,127.275c2.365,0.633,3.419,2.322,2.315,3.779c-1.096,1.445-3.923,2.096-6.291,1.461
				c-2.37-0.637-3.401-2.322-2.308-3.764C52.688,127.296,55.497,126.641,57.867,127.275z"/>
		</g>
		<g>
			<path fill="#231F20" d="M85.073,139.023c2.367,0.635,3.391,2.33,2.297,3.775c-1.096,1.441-3.902,2.102-6.27,1.465
				c-2.37-0.635-3.425-2.326-2.329-3.768C79.865,139.051,82.705,138.389,85.073,139.023z"/>
		</g>
		<g>
			<path fill="#231F20" d="M68.664,149.221c2.388,0.641,3.419,2.326,2.316,3.777c-1.093,1.445-3.9,2.1-6.291,1.461
				c-2.367-0.635-3.401-2.318-2.308-3.764C63.488,149.242,66.294,148.586,68.664,149.221z"/>
		</g>
		<g>
			<path fill="#231F20" d="M145.361,134.061c2.367,0.637,3.4,2.32,2.298,3.775c-1.099,1.443-3.905,2.1-6.272,1.463
				c-2.388-0.639-3.422-2.322-2.328-3.766C140.167,134.076,142.971,133.42,145.361,134.061z"/>
		</g>
		<g>
			<path fill="#231F20" d="M123.514,131.523c2.369,0.635,3.394,2.33,2.297,3.777c-1.094,1.441-3.899,2.096-6.27,1.463
				c-2.367-0.635-3.4-2.32-2.307-3.764C118.329,131.559,121.146,130.891,123.514,131.523z"/>
		</g>
		<g>
			<path fill="#231F20" d="M81.529,120.273c2.365,0.635,3.391,2.332,2.297,3.774c-1.096,1.442-3.905,2.099-6.272,1.463
				c-2.391-0.64-3.419-2.325-2.326-3.767C76.322,120.301,79.139,119.633,81.529,120.273z"/>
		</g>
		<g>
			<path fill="#231F20" d="M60.042,103.146c2.368,0.633,3.401,2.318,2.308,3.762c-1.104,1.456-3.913,2.11-6.28,1.477
				c-2.391-0.64-3.421-2.324-2.318-3.781C54.845,103.162,57.655,102.506,60.042,103.146z"/>
		</g>
		<g>
			<path fill="#231F20" d="M126.971,104.217c2.391,0.64,3.426,2.325,2.331,3.768c-1.104,1.455-3.911,2.11-6.303,1.47
				c-2.368-0.634-3.397-2.318-2.295-3.774C121.797,104.239,124.605,103.582,126.971,104.217z"/>
		</g>
		<g>
			<path fill="#231F20" d="M112.777,149.607c2.367,0.635,3.4,2.316,2.308,3.762c-1.104,1.455-3.912,2.111-6.28,1.477
				c-2.369-0.633-3.4-2.316-2.297-3.773C107.602,149.629,110.41,148.973,112.777,149.607z"/>
		</g>
	</g>
</g>
<g>
	<path fill="#935B42" stroke="#5D4030" stroke-linecap="round" stroke-linejoin="round" stroke-miterlimit="10" d="M149.557,128.47
		c0.008,0.46-0.07,0.896-0.117,1.335c0.146-1.301,0.084-2.662-0.275-4.156c0.044-0.358,0.066-0.721,0.062-1.082
		c-0.039-2.08-0.076-4.162-0.111-6.244c0.008,0.425-0.031,0.847-0.088,1.265c0.142-1.026,0.123-2.077-0.219-3.116
		c-0.842-2.511-3.336-4.602-5.724-6.633c-0.46-0.373-0.899-0.742-1.329-1.123c-2.016-4.653-4.369-8.319-9.079-11.082
		c-2.093-1.234-4.646-2.232-7.761-3.066c-3.84-1.029-8.139-1.694-12.236-2.246c-1.4-0.421-2.764-0.896-4.141-1.375
		c-1.788-0.621-3.634-1.271-5.53-1.781c-2.069-0.553-3.962-0.873-5.797-0.989c-3.166-0.192-6.185,0.235-8.762,0.687
		c-5.704-0.606-10.265-0.544-14.385,0.181c-2.972,0.535-5.91,1.467-8.996,2.861c-1.535,0.262-2.897,0.602-4.114,1.025
		c-3.66,1.271-6.236,3.382-8.709,5.425c-1.223,1.001-2.486,2.023-3.828,2.917c-1.284,0.845-2.757,1.637-4.313,2.473
		c-3.155,1.688-6.433,3.437-8.267,5.855c-0.274,0.366-0.476,0.732-0.69,1.114c-1.716,1.619-2.876,3.218-3.582,4.858
		c-0.62,1.428-0.886,2.904-0.827,4.5c-0.003-0.082-0.016-0.168-0.016-0.248l0.108,6.244c0.016,0.916,0.153,1.875,0.401,2.891
		c-0.044,0.385-0.078,0.771-0.062,1.162c0-0.053-0.013-0.105-0.013-0.159l0.111,6.245c0.013,0.617,0.103,1.234,0.308,1.85
		c0.824,2.508,3.308,4.611,5.727,6.635c0.437,0.369,0.892,0.758,1.308,1.115c2.037,4.66,4.391,8.326,9.1,11.09
		c2.091,1.23,4.636,2.244,7.753,3.076c3.817,1.025,8.146,1.686,12.225,2.229c1.424,0.43,2.783,0.904,4.14,1.377
		c1.801,0.639,3.654,1.277,5.53,1.781c2.091,0.559,3.98,0.875,5.794,0.986c3.189,0.197,6.197-0.217,8.753-0.672
		c5.715,0.59,10.297,0.537,14.396-0.193c2.993-0.529,5.933-1.461,8.988-2.852c1.563-0.268,2.926-0.604,4.142-1.031
		c3.664-1.268,6.215-3.387,8.711-5.424c1.213-0.988,2.486-2.023,3.83-2.916c1.26-0.852,2.728-1.633,4.282-2.465
		c3.175-1.684,6.431-3.438,8.265-5.855c0.277-0.363,0.511-0.74,0.711-1.105c1.729-1.637,2.888-3.23,3.594-4.875
		c0.589-1.352,0.867-2.744,0.845-4.244L149.557,128.47z"/>
	<g>
		<path fill="#5D4030" d="M36.964,127.332c0.364,0.098,0.651,0.296,0.734,0.552c0.801,2.562,3.936,4.823,6.746,7.284l0.202,0.238
			c1.734,4.049,3.905,7.854,8.456,10.512c1.99,1.174,4.368,2.062,7.014,2.771c3.584,0.961,7.678,1.586,11.896,2.152l0.284,0.064
			c3.432,1.025,6.58,2.326,9.717,3.162c1.664,0.447,3.321,0.766,5.008,0.875c2.608,0.152,5.275-0.182,8.038-0.678l0.61-0.025
			c4.72,0.514,9.235,0.646,13.49-0.123c0.312-0.049,0.62-0.027,0.889,0.045c0.339,0.088,0.606,0.264,0.706,0.49
			c0.201,0.414-0.209,0.854-0.895,0.982c-4.742,0.844-9.596,0.697-14.408,0.191c-2.793,0.496-5.716,0.867-8.737,0.678
			c-2.068-0.119-3.965-0.5-5.797-0.992c-3.388-0.904-6.51-2.197-9.668-3.148c-4.228-0.578-8.412-1.209-12.227-2.232
			c-2.861-0.766-5.507-1.742-7.764-3.064c-5.076-2.986-7.327-7.051-9.092-11.098c-2.678-2.332-6.014-4.693-7.042-7.742
			c-0.137-0.428,0.315-0.854,1.028-0.943C36.434,127.246,36.721,127.266,36.964,127.332z"/>
	</g>
	<g>
		<g>
			<path fill="#5D4030" d="M89.061,95.67c2.367,0.635,3.419,2.325,2.315,3.781c-1.093,1.442-3.92,2.092-6.291,1.459
				c-2.365-0.635-3.401-2.32-2.308-3.763C83.884,95.692,86.69,95.038,89.061,95.67z"/>
		</g>
		<g>
			<path fill="#5D4030" d="M112.759,108.325c2.368,0.633,3.399,2.318,2.306,3.761c-1.104,1.455-3.912,2.111-6.279,1.477
				c-2.391-0.641-3.422-2.324-2.32-3.781C107.562,108.339,110.369,107.684,112.759,108.325z"/>
		</g>
		<g>
			<path fill="#5D4030" d="M57.867,119.439c2.365,0.633,3.419,2.324,2.315,3.78c-1.096,1.443-3.923,2.093-6.291,1.46
				c-2.37-0.634-3.401-2.32-2.308-3.763C52.688,119.461,55.497,118.807,57.867,119.439z"/>
		</g>
		<g>
			<path fill="#5D4030" d="M85.073,131.189c2.367,0.633,3.391,2.33,2.297,3.775c-1.096,1.441-3.902,2.1-6.27,1.463
				c-2.37-0.635-3.425-2.326-2.329-3.77C79.865,131.217,82.705,130.555,85.073,131.189z"/>
		</g>
		<g>
			<path fill="#5D4030" d="M68.664,141.385c2.388,0.641,3.419,2.326,2.316,3.781c-1.093,1.443-3.9,2.098-6.291,1.459
				c-2.367-0.637-3.401-2.32-2.308-3.764C63.488,141.406,66.294,140.75,68.664,141.385z"/>
		</g>
		<g>
			<path fill="#5D4030" d="M145.361,126.227c2.367,0.635,3.4,2.318,2.298,3.774c-1.099,1.442-3.905,2.101-6.272,1.464
				c-2.388-0.641-3.422-2.324-2.328-3.768C140.167,126.24,142.971,125.586,145.361,126.227z"/>
		</g>
		<g>
			<path fill="#5D4030" d="M123.514,123.688c2.369,0.637,3.394,2.334,2.297,3.776c-1.094,1.442-3.899,2.099-6.27,1.464
				c-2.367-0.634-3.4-2.318-2.307-3.761C118.329,123.723,121.146,123.055,123.514,123.688z"/>
		</g>
		<g>
			<path fill="#5D4030" d="M81.529,112.438c2.365,0.637,3.391,2.334,2.297,3.776c-1.096,1.442-3.905,2.099-6.272,1.463
				c-2.391-0.64-3.419-2.325-2.326-3.767C76.322,112.466,79.139,111.798,81.529,112.438z"/>
		</g>
		<g>
			<path fill="#5D4030" d="M60.042,95.312c2.368,0.633,3.401,2.318,2.308,3.761c-1.104,1.457-3.913,2.11-6.28,1.477
				c-2.391-0.641-3.421-2.325-2.318-3.781C54.845,95.327,57.655,94.67,60.042,95.312z"/>
		</g>
		<g>
			<path fill="#5D4030" d="M126.971,96.382c2.391,0.64,3.426,2.325,2.331,3.768c-1.104,1.455-3.911,2.11-6.303,1.471
				c-2.368-0.634-3.397-2.318-2.295-3.774C121.797,96.403,124.605,95.747,126.971,96.382z"/>
		</g>
		<g>
			<path fill="#5D4030" d="M112.777,141.771c2.367,0.635,3.4,2.318,2.308,3.766c-1.104,1.453-3.912,2.107-6.28,1.475
				c-2.369-0.635-3.4-2.318-2.297-3.775C107.602,141.795,110.41,141.137,112.777,141.771z"/>
		</g>
	</g>
</g>
</svg>
