<?xml version="1.0" encoding="utf-8"?>
<!-- Generator: Adobe Illustrator 16.0.0, SVG Export Plug-In . SVG Version: 6.00 Build 0)  -->
<!DOCTYPE svg PUBLIC "-//W3C//DTD SVG 1.1//EN" "http://www.w3.org/Graphics/SVG/1.1/DTD/svg11.dtd">
<svg version="1.1" id="Layer_1" xmlns="http://www.w3.org/2000/svg" xmlns:xlink="http://www.w3.org/1999/xlink" x="0px" y="0px"
	 width="180px" height="220px" viewBox="0 0 180 220" enable-background="new 0 0 180 220" xml:space="preserve">
<g opacity="0.1">
	<g>
		<g>
			<path fill="#231F20" d="M75.787,75.202c15.62,0,28.282,5.659,28.282,12.636v27.455v0.64h-0.072
				c-0.744,6.68-13.07,11.993-28.209,11.993s-27.462-5.313-28.209-11.993h-0.072V87.837C47.505,80.86,60.167,75.202,75.787,75.202z"
				/>
			<path fill="#231F20" d="M46.772,116.889h-0.228V87.837c0-7.624,12.845-13.595,29.242-13.595c16.4,0,29.243,5.971,29.243,13.595
				v27.455l-0.072,1.597h-0.156c-1.657,6.899-13.827,11.996-29.014,11.996S48.43,123.788,46.772,116.889z M103.111,87.837
				c0-6.329-12.516-11.675-27.325-11.675c-14.809,0-27.321,5.346-27.321,11.675v27.385l0.066,0.604
				c0.684,6.143,12.912,11.138,27.255,11.138c14.344,0,26.571-4.995,27.255-11.138l0.069-0.342V87.837z"/>
		</g>
		<g>
			<ellipse fill="#231F20" cx="75.787" cy="87.837" rx="28.282" ry="12.632"/>
			<path fill="#231F20" d="M46.544,87.837c0-7.624,12.845-13.595,29.242-13.595c16.4,0,29.243,5.971,29.243,13.595
				c0,7.622-12.843,13.591-29.243,13.591C59.39,101.429,46.544,95.459,46.544,87.837z M48.465,87.837
				c0,6.327,12.513,11.671,27.321,11.671c14.809,0,27.325-5.345,27.325-11.671c0-6.329-12.516-11.675-27.325-11.675
				C60.978,76.163,48.465,81.509,48.465,87.837z"/>
		</g>
		<g>
			<path fill="#231F20" d="M47.505,104.218c15.62,0,28.282,5.659,28.282,12.636v27.453v0.639h-0.072
				c-0.748,6.68-13.074,11.996-28.21,11.996c-15.139,0-27.465-5.316-28.21-11.996H19.22v-28.092
				C19.22,109.876,31.886,104.218,47.505,104.218z"/>
			<path fill="#231F20" d="M18.491,145.906h-0.231v-29.053c0-7.623,12.849-13.595,29.246-13.595s29.243,5.973,29.243,13.595v27.453
				l-0.075,1.6h-0.153c-1.657,6.896-13.83,11.996-29.014,11.996C32.318,157.902,20.147,152.802,18.491,145.906z M74.829,116.854
				c0-6.329-12.515-11.675-27.324-11.675c-14.812,0-27.324,5.346-27.324,11.675v27.387l0.066,0.601
				c0.688,6.145,12.915,11.141,27.258,11.141s26.568-4.996,27.255-11.141l0.069-0.339V116.854z"/>
		</g>
		<g>
			<ellipse fill="#231F20" cx="47.503" cy="116.854" rx="28.283" ry="12.632"/>
			<path fill="#231F20" d="M18.259,116.854c0-7.623,12.849-13.595,29.246-13.595s29.243,5.973,29.243,13.595
				c0,7.622-12.846,13.593-29.243,13.593S18.259,124.476,18.259,116.854z M20.181,116.854c0,6.328,12.512,11.671,27.324,11.671
				c14.809,0,27.324-5.343,27.324-11.671c0-6.329-12.515-11.675-27.324-11.675C32.693,105.178,20.181,110.524,20.181,116.854z"/>
		</g>
		<g>
			<g>
				<g>
					<path fill="#231F20" d="M49.126,113.899c0.027-0.01,0.051-0.021,0.078-0.03C49.177,113.878,49.153,113.89,49.126,113.899
						c-5.253,1.446-10.048,3.704-13.866,6.49c0.003-0.009,0.009-0.019,0.015-0.024c-0.006,0.006-0.012,0.016-0.015,0.024
						c-0.657,0.48-1.3,0.97-1.895,1.477c-2.443-1.378-3.915-3.116-3.915-5.013c0-4.468,8.082-8.085,18.054-8.085
						c5.914,0,11.149,1.276,14.443,3.245c-1.393,0.078-2.891,0.189-4.512,0.349C54.59,112.629,51.804,113.167,49.126,113.899z"/>
					<path fill="#231F20" d="M32.891,122.704c-2.879-1.624-4.401-3.647-4.401-5.851c0-5.074,8.352-9.045,19.015-9.045
						c5.896,0,11.338,1.234,14.935,3.383c0.363,0.216,0.54,0.646,0.438,1.054c-0.102,0.411-0.459,0.705-0.879,0.729
						c-1.381,0.072-2.864,0.186-4.473,0.342c-2.678,0.252-5.418,0.763-8.141,1.511c-0.003,0-0.003,0-0.003,0
						c-5.104,1.401-9.79,3.593-13.557,6.34l-0.003,0.003c-0.637,0.462-1.255,0.937-1.832,1.429c-0.18,0.15-0.402,0.229-0.625,0.229
						C33.203,122.827,33.041,122.785,32.891,122.704z M34.842,119.507c3.927-2.831,8.772-5.085,13.98-6.521
						c0.006,0,0.006-0.003,0.006-0.003v-0.003h0.003l0,0l0,0c0.003,0,0.003,0,0.003,0c0.003,0,0.003,0,0.003,0l0,0h0.003v-0.003
						c0.003,0,0.003,0,0.003,0l0,0l0.003-0.003l0,0c0.003,0,0.003,0,0.003,0l0,0h0.003l0,0c0.081-0.033,0.165-0.055,0.249-0.061
						c2.756-0.744,5.526-1.255,8.244-1.51c0.258-0.027,0.513-0.051,0.768-0.072c-3.011-1.023-6.745-1.606-10.609-1.606
						c-10.228,0-17.096,3.687-17.096,7.127c0,1.32,1.012,2.671,2.867,3.842c0.423-0.342,0.865-0.675,1.315-1.002
						C34.666,119.615,34.752,119.555,34.842,119.507z"/>
				</g>
				<g>
					<path fill="#231F20" d="M64.529,114.182c0.657,0.837,1.03,1.734,1.03,2.672c0,3.428-4.779,6.352-11.513,7.528
						C55.406,120.06,59.273,116.396,64.529,114.182z"/>
					<path fill="#231F20" d="M53.326,125.013c-0.222-0.252-0.294-0.601-0.195-0.919c1.417-4.506,5.437-8.441,11.026-10.795
						c0.402-0.168,0.861-0.048,1.128,0.291c0.82,1.042,1.234,2.141,1.234,3.264c0,3.842-4.833,7.168-12.308,8.471
						c-0.054,0.013-0.111,0.016-0.165,0.016C53.773,125.34,53.509,125.223,53.326,125.013z M55.598,123.085
						c5.38-1.255,9-3.716,9-6.231c0-0.483-0.138-0.977-0.414-1.472C60.161,117.231,57.129,119.963,55.598,123.085z"/>
				</g>
				<g>
					<path fill="#231F20" d="M63.169,112.843c0.543,0.426,0.997,0.87,1.36,1.339c-5.256,2.215-9.123,5.878-10.483,10.2
						c-1.729,0.301-3.587,0.48-5.527,0.531C49.997,119.309,55.667,114.733,63.169,112.843z"/>
					<path fill="#231F20" d="M47.763,125.508c-0.186-0.237-0.25-0.55-0.174-0.838c1.552-5.878,7.43-10.765,15.346-12.758
						c0.285-0.072,0.591-0.007,0.826,0.174c0.604,0.475,1.117,0.979,1.528,1.507c0.183,0.237,0.247,0.544,0.168,0.832
						c-0.075,0.291-0.279,0.525-0.553,0.642c-5.07,2.135-8.693,5.635-9.942,9.604c-0.108,0.343-0.396,0.595-0.75,0.654
						c-1.807,0.315-3.716,0.499-5.668,0.547c-0.009,0-0.018,0-0.024,0C48.226,125.871,47.949,125.739,47.763,125.508z
						 M62.716,113.959c-6.304,1.756-11.071,5.464-12.852,9.937c1.18-0.072,2.339-0.192,3.458-0.369
						C54.746,119.651,58.102,116.24,62.716,113.959z"/>
				</g>
				<g>
					<path fill="#231F20" d="M49.126,113.899c-5.344,2.083-9.333,5.638-10.924,9.87c-1.489-0.402-2.837-0.895-4.004-1.471
						c0.345-0.703,0.708-1.357,1.062-1.909C39.078,117.604,43.873,115.346,49.126,113.899z"/>
					<path fill="#231F20" d="M37.953,124.694c-1.543-0.414-2.951-0.931-4.179-1.534c-0.475-0.231-0.673-0.808-0.438-1.282
						c0.357-0.726,0.742-1.42,1.117-2.005c0.063-0.099,0.144-0.187,0.24-0.258c3.954-2.882,8.856-5.179,14.182-6.641
						c0.495-0.132,1.002,0.141,1.165,0.624c0.162,0.486-0.087,1.012-0.562,1.195c-5.118,1.993-8.901,5.386-10.378,9.312
						c-0.141,0.385-0.504,0.625-0.897,0.625C38.121,124.73,38.037,124.719,37.953,124.694z M35.971,121.059
						c-0.153,0.243-0.303,0.508-0.456,0.787c0.66,0.279,1.372,0.537,2.128,0.766c0.726-1.598,1.78-3.099,3.107-4.458
						C39.039,119.029,37.436,120.005,35.971,121.059z"/>
				</g>
				<g>
					<path fill="#231F20" d="M43.236,124.7c-1.798-0.198-3.488-0.517-5.034-0.931c1.591-4.232,5.581-7.787,10.924-9.87
						c2.678-0.732,5.464-1.271,8.31-1.537c1.621-0.159,3.119-0.271,4.512-0.349c0.048,0.027,0.093,0.058,0.141,0.084
						C52.626,113.101,45.094,118.18,43.236,124.7z"/>
					<path fill="#231F20" d="M43.134,125.655c-1.807-0.198-3.551-0.52-5.181-0.961c-0.261-0.069-0.48-0.246-0.606-0.486
						c-0.12-0.24-0.138-0.522-0.042-0.774c1.666-4.438,5.851-8.237,11.57-10.459c2.831-0.774,5.68-1.306,8.472-1.57
						c1.633-0.159,3.146-0.273,4.548-0.348c0.183,0.009,0.507,0.113,0.664,0.204c0.366,0.204,0.555,0.621,0.474,1.029
						c-0.084,0.408-0.426,0.718-0.84,0.763c-9.03,0.957-16.274,5.746-18.03,11.909c-0.12,0.417-0.499,0.699-0.925,0.699
						C43.203,125.661,43.167,125.655,43.134,125.655z M49.477,114.794c-4.68,1.822-8.243,4.815-9.948,8.315
						c0.979,0.225,1.993,0.405,3.035,0.543c1.348-3.779,4.488-7.046,8.724-9.315C50.681,114.481,50.075,114.632,49.477,114.794z"/>
				</g>
				<g>
					<path fill="#231F20" d="M62.088,112.098c0.388,0.24,0.75,0.486,1.081,0.745c-7.502,1.891-13.173,6.466-14.65,12.07
						c-0.339,0.01-0.672,0.021-1.015,0.021c-1.471,0-2.897-0.09-4.269-0.234C45.094,118.18,52.626,113.101,62.088,112.098z"/>
					<path fill="#231F20" d="M43.137,125.655c-0.286-0.03-0.538-0.187-0.694-0.421c-0.162-0.234-0.207-0.528-0.129-0.798
						c1.966-6.911,9.874-12.255,19.672-13.293c0.213-0.021,0.426,0.026,0.606,0.138c0.42,0.258,0.813,0.528,1.171,0.808
						c0.288,0.226,0.42,0.598,0.345,0.955c-0.075,0.356-0.348,0.642-0.706,0.729c-7.235,1.825-12.584,6.184-13.956,11.383
						c-0.111,0.415-0.478,0.709-0.91,0.715l-0.327,0.012c-0.234,0.006-0.468,0.013-0.706,0.013
						C46.088,125.896,44.659,125.817,43.137,125.655z M57.271,113.995c-6.163,1.741-10.927,5.374-12.731,9.861
						c1.117,0.087,2.203,0.147,3.254,0.117C49.123,119.903,52.548,116.354,57.271,113.995z"/>
				</g>
				<g>
					<path fill="#231F20" d="M34.197,122.299c-0.286-0.139-0.567-0.282-0.832-0.433c0.595-0.507,1.237-0.996,1.895-1.477
						C34.905,120.941,34.542,121.596,34.197,122.299z"/>
					<path fill="#231F20" d="M34.197,123.26c0.354,0,0.696-0.198,0.861-0.538c0.327-0.666,0.675-1.291,1.009-1.812
						c0.249-0.388,0.186-0.901-0.15-1.216c-0.336-0.318-0.85-0.349-1.225-0.078c-0.679,0.495-1.336,0.996-1.951,1.524
						c-0.237,0.204-0.36,0.511-0.331,0.819c0.03,0.312,0.21,0.592,0.48,0.745c0.282,0.159,0.583,0.312,0.889,0.459
						C33.915,123.229,34.056,123.26,34.197,123.26z"/>
				</g>
			</g>
			<g opacity="0.1">
				<path fill="#231F20" d="M29.451,116.854c0,4.464,8.082,8.081,18.054,8.081c9.97,0,18.054-3.617,18.054-8.081
					c0-4.468-8.084-8.085-18.054-8.085C37.532,108.769,29.451,112.386,29.451,116.854z"/>
				<path fill="#231F20" d="M28.49,116.854c0-5.074,8.352-9.045,19.015-9.045s19.015,3.971,19.015,9.045
					c0,5.07-8.352,9.042-19.015,9.042S28.49,121.924,28.49,116.854z M30.409,116.854c0,3.439,6.868,7.12,17.096,7.12
					c10.225,0,17.093-3.681,17.093-7.12c0-3.44-6.869-7.127-17.093-7.127C37.277,109.726,30.409,113.413,30.409,116.854z"/>
			</g>
		</g>
		<g>
			<g>
				<g>
					<path fill="#231F20" d="M77.411,85.041c0.027-0.012,0.048-0.022,0.075-0.035C77.459,85.019,77.438,85.029,77.411,85.041
						c-5.256,1.442-10.047,3.704-13.869,6.49c0.003-0.012,0.009-0.02,0.015-0.027c-0.006,0.008-0.012,0.015-0.015,0.027
						c-0.657,0.479-1.297,0.967-1.894,1.477c-2.444-1.379-3.915-3.119-3.915-5.017c0-4.465,8.084-8.084,18.054-8.084
						c5.914,0,11.152,1.279,14.443,3.247c-1.393,0.075-2.888,0.188-4.509,0.345C82.875,83.77,80.085,84.305,77.411,85.041z"/>
					<path fill="#231F20" d="M61.176,93.844c-2.882-1.627-4.404-3.65-4.404-5.853c0-5.072,8.352-9.043,19.015-9.043
						c5.896,0,11.339,1.232,14.935,3.382c0.363,0.218,0.54,0.646,0.438,1.055c-0.1,0.41-0.456,0.706-0.877,0.728
						c-1.384,0.075-2.864,0.186-4.473,0.341c-2.681,0.255-5.422,0.764-8.145,1.511c-0.003,0.001-0.003,0.001-0.003,0.001
						c-5.101,1.4-9.79,3.592-13.554,6.339c-0.003,0.001-0.003,0.001-0.003,0.001c-0.636,0.465-1.255,0.937-1.834,1.431
						c-0.177,0.151-0.399,0.229-0.625,0.229C61.488,93.967,61.323,93.927,61.176,93.844z M63.127,90.647
						c3.926-2.831,8.771-5.088,13.98-6.522c0.003-0.003,0.006-0.003,0.006-0.003l0.003-0.001v-0.001l0,0c0.003,0,0.003,0,0.003,0
						s0.003,0,0.003-0.001l0,0l0,0c0.021,0,0.006-0.001,0.006-0.001v-0.001l0,0c0.003,0,0.003,0,0.003,0h0.003v-0.001l0,0
						c0.084-0.033,0.168-0.053,0.252-0.06c2.756-0.745,5.527-1.252,8.241-1.508c0.258-0.026,0.516-0.05,0.769-0.072
						c-3.008-1.025-6.743-1.604-10.609-1.604c-10.225,0-17.096,3.684-17.096,7.124c0,1.319,1.015,2.67,2.867,3.844
						c0.423-0.342,0.865-0.675,1.315-1.006C62.947,90.754,63.034,90.692,63.127,90.647z"/>
				</g>
				<g>
					<path fill="#231F20" d="M92.814,85.321c0.654,0.836,1.029,1.732,1.029,2.67c0,3.43-4.782,6.355-11.516,7.528
						C83.691,91.196,87.558,87.537,92.814,85.321z"/>
					<path fill="#231F20" d="M81.607,96.153c-0.222-0.252-0.294-0.602-0.192-0.922c1.417-4.504,5.437-8.437,11.023-10.793
						c0.405-0.17,0.862-0.048,1.129,0.291c0.819,1.043,1.234,2.142,1.234,3.263c0,3.844-4.831,7.17-12.306,8.473
						c-0.054,0.011-0.111,0.015-0.168,0.015C82.055,96.48,81.791,96.363,81.607,96.153z M83.88,94.226
						c5.38-1.256,9.003-3.718,9.003-6.234c0-0.483-0.138-0.976-0.417-1.469C88.443,88.373,85.411,91.104,83.88,94.226z"/>
				</g>
				<g>
					<path fill="#231F20" d="M91.454,83.982c0.54,0.425,0.997,0.871,1.36,1.339c-5.257,2.216-9.124,5.875-10.486,10.198
						c-1.729,0.3-3.587,0.484-5.527,0.533C78.281,90.447,83.952,85.873,91.454,83.982z"/>
					<path fill="#231F20" d="M76.048,96.648c-0.186-0.237-0.252-0.549-0.174-0.84c1.549-5.874,7.43-10.761,15.346-12.755
						c0.285-0.072,0.589-0.008,0.823,0.174c0.606,0.473,1.119,0.979,1.53,1.507c0.181,0.235,0.243,0.542,0.169,0.831
						c-0.075,0.289-0.282,0.525-0.556,0.643c-5.07,2.136-8.694,5.636-9.943,9.602c-0.105,0.342-0.396,0.596-0.75,0.656
						c-1.807,0.314-3.713,0.497-5.668,0.548c-0.006,0-0.015,0-0.024,0C76.51,97.013,76.231,96.878,76.048,96.648z M90.998,85.096
						c-6.301,1.758-11.068,5.465-12.852,9.938c1.183-0.071,2.341-0.194,3.461-0.37C83.031,90.792,86.384,87.382,90.998,85.096z"/>
				</g>
				<g>
					<path fill="#231F20" d="M77.411,85.041c-5.346,2.08-9.333,5.635-10.927,9.867c-1.489-0.4-2.834-0.896-4.001-1.469
						c0.342-0.701,0.708-1.357,1.06-1.908C67.363,88.745,72.154,86.483,77.411,85.041z"/>
					<path fill="#231F20" d="M66.237,95.836c-1.546-0.416-2.954-0.934-4.179-1.536c-0.474-0.234-0.672-0.807-0.441-1.283
						c0.357-0.727,0.742-1.418,1.117-2.004c0.063-0.101,0.147-0.188,0.243-0.258c3.951-2.882,8.856-5.179,14.179-6.641
						c0.498-0.135,1.005,0.14,1.167,0.625c0.159,0.485-0.087,1.01-0.564,1.196c-5.119,1.99-8.898,5.386-10.375,9.311
						c-0.144,0.383-0.507,0.623-0.901,0.623C66.402,95.869,66.318,95.858,66.237,95.836z M64.253,92.199
						c-0.15,0.245-0.303,0.507-0.456,0.785c0.663,0.28,1.375,0.536,2.128,0.765c0.727-1.594,1.78-3.096,3.11-4.457
						C67.324,90.17,65.721,91.143,64.253,92.199z"/>
				</g>
				<g>
					<path fill="#231F20" d="M71.521,95.839c-1.801-0.195-3.491-0.515-5.038-0.931c1.594-4.232,5.581-7.787,10.927-9.867
						c2.675-0.736,5.464-1.271,8.31-1.542c1.621-0.158,3.116-0.271,4.509-0.345c0.048,0.027,0.096,0.057,0.144,0.083
						C80.908,84.242,73.376,89.319,71.521,95.839z"/>
					<path fill="#231F20" d="M71.419,96.792c-1.807-0.195-3.551-0.516-5.182-0.956c-0.264-0.07-0.483-0.249-0.606-0.489
						s-0.138-0.522-0.045-0.776c1.666-4.436,5.851-8.236,11.57-10.456c2.834-0.777,5.683-1.306,8.472-1.57
						c1.636-0.159,3.146-0.273,4.551-0.35c0.201-0.003,0.501,0.116,0.664,0.206c0.366,0.203,0.553,0.62,0.472,1.03
						c-0.084,0.41-0.424,0.718-0.841,0.761c-9.027,0.959-16.274,5.744-18.03,11.91c-0.117,0.416-0.495,0.697-0.921,0.697
						C71.488,96.798,71.452,96.797,71.419,96.792z M77.759,85.936c-4.677,1.821-8.244,4.813-9.946,8.314
						c0.979,0.224,1.99,0.405,3.035,0.542c1.345-3.781,4.488-7.044,8.724-9.314C78.963,85.619,78.356,85.772,77.759,85.936z"/>
				</g>
				<g>
					<path fill="#231F20" d="M90.374,83.237c0.387,0.24,0.75,0.488,1.081,0.746c-7.502,1.89-13.173,6.465-14.653,12.07
						c-0.339,0.007-0.669,0.022-1.015,0.022c-1.471,0-2.897-0.09-4.266-0.236C73.376,89.319,80.908,84.242,90.374,83.237z"/>
					<path fill="#231F20" d="M71.419,96.792c-0.282-0.03-0.535-0.182-0.693-0.416c-0.159-0.236-0.208-0.528-0.126-0.8
						c1.966-6.91,9.871-12.252,19.672-13.292c0.207-0.023,0.423,0.027,0.606,0.136c0.42,0.26,0.811,0.528,1.168,0.808
						c0.288,0.225,0.423,0.596,0.348,0.955c-0.078,0.359-0.351,0.643-0.705,0.731c-7.238,1.824-12.587,6.186-13.959,11.384
						c-0.108,0.414-0.477,0.706-0.907,0.716l-0.33,0.008c-0.234,0.007-0.468,0.013-0.706,0.013
						C74.373,97.034,72.941,96.956,71.419,96.792z M85.552,85.134c-6.163,1.741-10.924,5.372-12.729,9.862
						c1.117,0.087,2.207,0.144,3.254,0.115C77.408,91.041,80.833,87.494,85.552,85.134z"/>
				</g>
				<g>
					<path fill="#231F20" d="M62.482,93.439c-0.288-0.138-0.567-0.281-0.834-0.431c0.597-0.51,1.237-0.999,1.894-1.477
						C63.19,92.082,62.824,92.738,62.482,93.439z"/>
					<path fill="#231F20" d="M62.482,94.398c0.354,0,0.693-0.196,0.861-0.537c0.324-0.667,0.673-1.29,1.006-1.813
						c0.249-0.389,0.186-0.899-0.15-1.216c-0.333-0.316-0.85-0.347-1.222-0.076c-0.678,0.495-1.339,0.998-1.951,1.523
						c-0.24,0.203-0.363,0.51-0.333,0.821c0.03,0.311,0.21,0.588,0.48,0.743c0.285,0.159,0.585,0.312,0.889,0.461
						C62.197,94.368,62.341,94.398,62.482,94.398z"/>
				</g>
			</g>
			<g opacity="0.1">
				<ellipse fill="#231F20" cx="75.788" cy="87.992" rx="18.055" ry="8.083"/>
				<path fill="#231F20" d="M56.772,87.992c0-5.072,8.352-9.043,19.015-9.043s19.015,3.972,19.015,9.043
					c0,5.07-8.352,9.042-19.015,9.042S56.772,93.062,56.772,87.992z M58.69,87.992c0,3.439,6.872,7.124,17.096,7.124
					c10.228,0,17.096-3.685,17.096-7.124c0-3.44-6.868-7.124-17.096-7.124C65.562,80.868,58.69,84.552,58.69,87.992z"/>
			</g>
		</g>
	</g>
	<g>
		<g>
			<path fill="#231F20" d="M133.374,75.202c15.619,0,28.282,5.659,28.282,12.636v27.455v0.64h-0.072
				c-0.748,6.68-13.074,11.993-28.21,11.993c-15.139,0-27.465-5.313-28.21-11.993h-0.075V87.837
				C105.089,80.86,117.755,75.202,133.374,75.202z"/>
			<path fill="#231F20" d="M104.359,116.889h-0.23V87.837c0-7.624,12.849-13.595,29.245-13.595c16.397,0,29.242,5.971,29.242,13.595
				v27.455l-0.074,1.597h-0.153c-1.657,6.899-13.83,11.996-29.015,11.996C118.187,128.885,106.017,123.788,104.359,116.889z
				 M160.698,87.837c0-6.329-12.516-11.675-27.324-11.675c-14.812,0-27.324,5.346-27.324,11.675v27.385l0.066,0.604
				c0.688,6.143,12.914,11.138,27.258,11.138s26.567-4.995,27.255-11.138l0.069-0.342V87.837z"/>
		</g>
		<g>
			<ellipse fill="#231F20" cx="133.373" cy="87.837" rx="28.284" ry="12.632"/>
			<path fill="#231F20" d="M104.129,87.837c0-7.624,12.849-13.595,29.245-13.595c16.397,0,29.242,5.971,29.242,13.595
				c0,7.622-12.845,13.591-29.242,13.591C116.978,101.429,104.129,95.459,104.129,87.837z M106.05,87.837
				c0,6.327,12.513,11.671,27.324,11.671c14.809,0,27.324-5.345,27.324-11.671c0-6.329-12.516-11.675-27.324-11.675
				C118.562,76.163,106.05,81.509,106.05,87.837z"/>
		</g>
		<g>
			<path fill="#231F20" d="M105.089,104.218c15.62,0,28.285,5.659,28.285,12.636v27.453v0.639h-0.075
				c-0.744,6.68-13.07,11.996-28.21,11.996c-15.136,0-27.462-5.316-28.209-11.996h-0.072v-28.092
				C76.808,109.876,89.47,104.218,105.089,104.218z"/>
			<path fill="#231F20" d="M76.075,145.906h-0.228v-29.053c0-7.623,12.846-13.595,29.242-13.595
				c16.397,0,29.246,5.973,29.246,13.595v27.453l-0.075,1.6h-0.156c-1.657,6.896-13.827,11.996-29.015,11.996
				C89.905,157.902,77.732,152.802,76.075,145.906z M132.413,116.854c0-6.329-12.512-11.675-27.324-11.675
				c-14.809,0-27.321,5.346-27.321,11.675v27.387l0.066,0.601c0.688,6.145,12.912,11.141,27.255,11.141
				c14.344,0,26.571-4.996,27.259-11.141l0.065-0.339V116.854z"/>
		</g>
		<g>
			<path fill="#231F20" d="M76.808,116.854c0,6.977,12.662,12.632,28.281,12.632c15.62,0,28.285-5.655,28.285-12.632
				c0-6.977-12.665-12.636-28.285-12.636C89.47,104.218,76.808,109.876,76.808,116.854z"/>
			<path fill="#231F20" d="M75.847,116.854c0-7.623,12.846-13.595,29.242-13.595c16.397,0,29.246,5.973,29.246,13.595
				c0,7.622-12.849,13.593-29.246,13.593C88.692,130.446,75.847,124.476,75.847,116.854z M77.768,116.854
				c0,6.328,12.512,11.671,27.321,11.671c14.812,0,27.324-5.343,27.324-11.671c0-6.329-12.512-11.675-27.324-11.675
				C90.28,105.178,77.768,110.524,77.768,116.854z"/>
		</g>
		<g>
			<g>
				<g>
					<path fill="#231F20" d="M106.713,113.899c0.027-0.01,0.049-0.021,0.075-0.03C106.762,113.878,106.74,113.89,106.713,113.899
						c-5.256,1.446-10.047,3.704-13.869,6.49c0.003-0.009,0.01-0.019,0.016-0.024c-0.006,0.006-0.013,0.016-0.016,0.024
						c-0.657,0.48-1.297,0.97-1.894,1.477c-2.444-1.378-3.915-3.116-3.915-5.013c0-4.468,8.084-8.085,18.054-8.085
						c5.914,0,11.153,1.276,14.443,3.245c-1.394,0.078-2.889,0.189-4.51,0.349C112.177,112.629,109.388,113.167,106.713,113.899z"/>
					<path fill="#231F20" d="M90.479,122.704c-2.882-1.624-4.404-3.647-4.404-5.851c0-5.074,8.351-9.045,19.014-9.045
						c5.896,0,11.342,1.234,14.938,3.383c0.36,0.216,0.537,0.646,0.438,1.054c-0.103,0.411-0.46,0.705-0.88,0.729
						c-1.384,0.072-2.864,0.186-4.473,0.342c-2.681,0.252-5.422,0.763-8.145,1.511c-0.003,0-0.003,0-0.003,0
						c-5.101,1.401-9.79,3.593-13.555,6.34c-0.003,0-0.003,0.003-0.003,0.003c-0.636,0.462-1.255,0.937-1.834,1.429
						c-0.177,0.15-0.399,0.229-0.624,0.229C90.791,122.827,90.626,122.785,90.479,122.704z M92.43,119.507
						c3.927-2.831,8.771-5.085,13.98-6.521c0.003,0,0.003-0.003,0.003-0.003l0.003-0.003l0,0c0,0,0,0,0.003,0l0,0
						c0.003,0,0.003,0,0.003,0l0,0h0.003h0.003v-0.003l0,0h0.004l0.003-0.003l0,0l0,0c0.003,0,0.003,0,0.003,0l0,0l0,0
						c0.084-0.033,0.168-0.055,0.252-0.061c2.756-0.744,5.526-1.255,8.24-1.51c0.258-0.027,0.517-0.051,0.769-0.072
						c-3.008-1.023-6.742-1.606-10.609-1.606c-10.225,0-17.093,3.687-17.093,7.127c0,1.32,1.011,2.671,2.863,3.842
						c0.427-0.342,0.865-0.675,1.315-1.002C92.25,119.615,92.337,119.555,92.43,119.507z"/>
				</g>
				<g>
					<path fill="#231F20" d="M122.116,114.182c0.655,0.837,1.03,1.734,1.03,2.672c0,3.428-4.782,6.352-11.513,7.528
						C112.993,120.06,116.86,116.396,122.116,114.182z"/>
					<path fill="#231F20" d="M110.91,125.013c-0.219-0.252-0.294-0.601-0.192-0.919c1.417-4.506,5.437-8.441,11.026-10.795
						c0.402-0.168,0.858-0.048,1.129,0.291c0.816,1.042,1.23,2.141,1.23,3.264c0,3.842-4.83,7.168-12.305,8.471
						c-0.057,0.013-0.111,0.016-0.165,0.016C111.357,125.34,111.094,125.223,110.91,125.013z M113.183,123.085
						c5.38-1.255,9.003-3.716,9.003-6.231c0-0.483-0.138-0.977-0.417-1.472C117.746,117.231,114.714,119.963,113.183,123.085z"/>
				</g>
				<g>
					<path fill="#231F20" d="M120.757,112.843c0.543,0.426,0.996,0.87,1.359,1.339c-5.256,2.215-9.123,5.878-10.482,10.2
						c-1.732,0.301-3.591,0.48-5.53,0.531C107.584,119.309,113.255,114.733,120.757,112.843z"/>
					<path fill="#231F20" d="M105.351,125.508c-0.187-0.237-0.249-0.55-0.174-0.838c1.552-5.878,7.43-10.765,15.346-12.758
						c0.285-0.072,0.592-0.007,0.825,0.174c0.604,0.475,1.117,0.979,1.525,1.507c0.184,0.237,0.246,0.544,0.171,0.832
						c-0.075,0.291-0.282,0.525-0.555,0.642c-5.067,2.135-8.694,5.635-9.943,9.604c-0.104,0.343-0.396,0.595-0.75,0.654
						c-1.808,0.315-3.714,0.499-5.668,0.547c-0.006,0-0.015,0-0.024,0C105.812,125.871,105.533,125.739,105.351,125.508z
						 M120.301,113.959c-6.302,1.756-11.068,5.464-12.852,9.937c1.183-0.072,2.341-0.192,3.461-0.369
						C112.333,119.651,115.687,116.24,120.301,113.959z"/>
				</g>
				<g>
					<path fill="#231F20" d="M106.713,113.899c-5.346,2.083-9.333,5.638-10.924,9.87c-1.492-0.402-2.837-0.895-4.005-1.471
						c0.343-0.703,0.709-1.357,1.06-1.909C96.666,117.604,101.457,115.346,106.713,113.899z"/>
					<path fill="#231F20" d="M95.54,124.694c-1.546-0.414-2.951-0.931-4.179-1.534c-0.475-0.231-0.673-0.808-0.441-1.282
						c0.357-0.726,0.741-1.42,1.116-2.005c0.063-0.099,0.147-0.187,0.243-0.258c3.954-2.882,8.856-5.179,14.179-6.641
						c0.498-0.132,1.006,0.141,1.165,0.624c0.162,0.486-0.084,1.012-0.562,1.195c-5.118,1.993-8.897,5.386-10.375,9.312
						c-0.144,0.385-0.507,0.625-0.897,0.625C95.705,124.73,95.621,124.719,95.54,124.694z M93.556,121.059
						c-0.15,0.243-0.304,0.508-0.456,0.787c0.663,0.279,1.375,0.537,2.131,0.766c0.724-1.598,1.777-3.099,3.107-4.458
						C96.627,119.029,95.023,120.005,93.556,121.059z"/>
				</g>
				<g>
					<path fill="#231F20" d="M100.823,124.7c-1.798-0.198-3.491-0.517-5.034-0.931c1.591-4.232,5.578-7.787,10.924-9.87
						c2.675-0.732,5.464-1.271,8.31-1.537c1.621-0.159,3.116-0.271,4.51-0.349c0.051,0.027,0.096,0.058,0.144,0.084
						C110.211,113.101,102.679,118.18,100.823,124.7z"/>
					<path fill="#231F20" d="M100.722,125.655c-1.808-0.198-3.552-0.52-5.182-0.961c-0.265-0.069-0.483-0.246-0.606-0.486
						s-0.139-0.522-0.045-0.774c1.669-4.438,5.854-8.237,11.569-10.459c2.834-0.774,5.683-1.306,8.472-1.57
						c1.637-0.159,3.146-0.273,4.551-0.348c0.198,0.009,0.505,0.113,0.664,0.204c0.363,0.204,0.555,0.621,0.471,1.029
						s-0.423,0.718-0.84,0.763c-9.027,0.957-16.274,5.746-18.03,11.909c-0.117,0.417-0.495,0.699-0.922,0.699
						C100.79,125.661,100.754,125.655,100.722,125.655z M107.062,114.794c-4.68,1.822-8.24,4.815-9.945,8.315
						c0.979,0.225,1.993,0.405,3.035,0.543c1.345-3.779,4.487-7.046,8.724-9.315C108.266,114.481,107.659,114.632,107.062,114.794z"
						/>
				</g>
				<g>
					<path fill="#231F20" d="M119.676,112.098c0.388,0.24,0.751,0.486,1.081,0.745c-7.502,1.891-13.173,6.466-14.653,12.07
						c-0.336,0.01-0.672,0.021-1.015,0.021c-1.471,0-2.894-0.09-4.266-0.234C102.679,118.18,110.211,113.101,119.676,112.098z"/>
					<path fill="#231F20" d="M100.722,125.655c-0.282-0.03-0.535-0.187-0.693-0.421c-0.159-0.234-0.204-0.528-0.127-0.798
						c1.967-6.911,9.871-12.255,19.673-13.293c0.21-0.021,0.423,0.026,0.606,0.138c0.417,0.258,0.813,0.528,1.167,0.808
						c0.289,0.226,0.424,0.598,0.349,0.955c-0.078,0.356-0.349,0.642-0.705,0.729c-7.238,1.825-12.588,6.184-13.96,11.383
						c-0.107,0.415-0.477,0.709-0.906,0.715l-0.327,0.012c-0.234,0.006-0.469,0.013-0.709,0.013
						C103.676,125.896,102.243,125.817,100.722,125.655z M114.854,113.995c-6.163,1.741-10.924,5.374-12.729,9.861
						c1.117,0.087,2.207,0.147,3.255,0.117C106.71,119.903,110.136,116.354,114.854,113.995z"/>
				</g>
				<g>
					<path fill="#231F20" d="M91.784,122.299c-0.288-0.139-0.57-0.282-0.834-0.433c0.597-0.507,1.236-0.996,1.894-1.477
						C92.493,120.941,92.127,121.596,91.784,122.299z"/>
					<path fill="#231F20" d="M91.784,123.26c0.354,0,0.696-0.198,0.861-0.538c0.328-0.666,0.673-1.291,1.006-1.812
						c0.253-0.388,0.187-0.901-0.149-1.216c-0.337-0.318-0.847-0.349-1.223-0.078c-0.681,0.495-1.339,0.996-1.954,1.524
						c-0.237,0.204-0.36,0.511-0.33,0.819c0.03,0.312,0.21,0.592,0.48,0.745c0.285,0.159,0.585,0.312,0.889,0.459
						C91.502,123.229,91.644,123.26,91.784,123.26z"/>
				</g>
			</g>
			<g opacity="0.1">
				<path fill="#231F20" d="M87.035,116.854c0,4.464,8.084,8.081,18.054,8.081c9.973,0,18.058-3.617,18.058-8.081
					c0-4.468-8.085-8.085-18.058-8.085C95.119,108.769,87.035,112.386,87.035,116.854z"/>
				<path fill="#231F20" d="M86.075,116.854c0-5.074,8.351-9.045,19.014-9.045s19.015,3.971,19.015,9.045
					c0,5.07-8.352,9.042-19.015,9.042S86.075,121.924,86.075,116.854z M87.996,116.854c0,3.439,6.868,7.12,17.093,7.12
					c10.229,0,17.097-3.681,17.097-7.12c0-3.44-6.868-7.127-17.097-7.127C94.864,109.726,87.996,113.413,87.996,116.854z"/>
			</g>
		</g>
		<g>
			<g>
				<g>
					<path fill="#231F20" d="M134.995,85.041c0.027-0.012,0.051-0.022,0.078-0.035C135.046,85.019,135.022,85.029,134.995,85.041
						c-5.254,1.442-10.048,3.704-13.866,6.49c0.003-0.012,0.009-0.02,0.015-0.027c-0.006,0.008-0.012,0.015-0.015,0.027
						c-0.657,0.479-1.3,0.967-1.895,1.477c-2.443-1.379-3.914-3.119-3.914-5.017c0-4.465,8.081-8.084,18.054-8.084
						c5.914,0,11.149,1.279,14.442,3.247c-1.393,0.075-2.891,0.188-4.512,0.345C140.459,83.77,137.673,84.305,134.995,85.041z"/>
					<path fill="#231F20" d="M118.761,93.844c-2.879-1.627-4.401-3.65-4.401-5.853c0-5.072,8.352-9.043,19.015-9.043
						c5.896,0,11.339,1.232,14.935,3.382c0.363,0.218,0.541,0.646,0.438,1.055c-0.102,0.41-0.459,0.706-0.879,0.728
						c-1.381,0.075-2.864,0.186-4.474,0.341c-2.678,0.255-5.418,0.764-8.142,1.511c-0.003,0.001-0.003,0.001-0.003,0.001
						c-5.1,1.4-9.789,3.592-13.557,6.339c0,0,0,0.001-0.003,0.001c-0.637,0.465-1.255,0.937-1.831,1.431
						c-0.181,0.151-0.402,0.229-0.625,0.229C119.072,93.967,118.91,93.927,118.761,93.844z M120.712,90.647
						c3.927-2.831,8.771-5.088,13.98-6.522c0.006-0.003,0.009-0.003,0.009-0.003v-0.001l0.003-0.001l0,0c0.003,0,0.003,0,0.003,0
						s0,0,0-0.001h0.003l0,0c0.018,0,0.003-0.001,0.003-0.001l0.003-0.001l0,0c0.003,0,0.003,0,0.003,0l0,0l0.003-0.001l0,0
						c0.081-0.033,0.165-0.053,0.249-0.06c2.756-0.745,5.527-1.252,8.244-1.508c0.258-0.026,0.513-0.05,0.769-0.072
						c-3.011-1.025-6.746-1.604-10.609-1.604c-10.228,0-17.097,3.684-17.097,7.124c0,1.319,1.012,2.67,2.867,3.844
						c0.424-0.342,0.864-0.675,1.315-1.006C120.534,90.754,120.622,90.692,120.712,90.647z"/>
				</g>
				<g>
					<path fill="#231F20" d="M150.398,85.321c0.657,0.836,1.029,1.732,1.029,2.67c0,3.43-4.778,6.355-11.513,7.528
						C141.275,91.196,145.142,87.537,150.398,85.321z"/>
					<path fill="#231F20" d="M139.195,96.153c-0.223-0.252-0.295-0.602-0.195-0.922c1.417-4.504,5.437-8.437,11.026-10.793
						c0.402-0.17,0.861-0.048,1.129,0.291c0.819,1.043,1.233,2.142,1.233,3.263c0,3.844-4.833,7.17-12.309,8.473
						c-0.054,0.011-0.11,0.015-0.165,0.015C139.643,96.48,139.378,96.363,139.195,96.153z M141.468,94.226
						c5.379-1.256,9-3.718,9-6.234c0-0.483-0.139-0.976-0.415-1.469C146.03,88.373,142.998,91.104,141.468,94.226z"/>
				</g>
				<g>
					<path fill="#231F20" d="M149.038,83.982c0.544,0.425,0.997,0.871,1.36,1.339c-5.257,2.216-9.123,5.875-10.483,10.198
						c-1.729,0.3-3.587,0.484-5.526,0.533C135.866,90.447,141.536,85.873,149.038,83.982z"/>
					<path fill="#231F20" d="M133.632,96.648c-0.186-0.237-0.249-0.549-0.174-0.84c1.552-5.874,7.43-10.761,15.347-12.755
						c0.285-0.072,0.591-0.008,0.825,0.174c0.604,0.473,1.117,0.979,1.528,1.507c0.183,0.235,0.246,0.542,0.168,0.831
						c-0.075,0.289-0.279,0.525-0.553,0.643c-5.07,2.136-8.693,5.636-9.942,9.602c-0.108,0.342-0.396,0.596-0.751,0.656
						c-1.807,0.314-3.716,0.497-5.667,0.548c-0.01,0-0.019,0-0.024,0C134.095,97.013,133.818,96.878,133.632,96.648z
						 M148.585,85.096c-6.304,1.758-11.071,5.465-12.852,9.938c1.18-0.071,2.339-0.194,3.459-0.37
						C140.615,90.792,143.971,87.382,148.585,85.096z"/>
				</g>
				<g>
					<path fill="#231F20" d="M134.995,85.041c-5.344,2.08-9.333,5.635-10.924,9.867c-1.489-0.4-2.837-0.896-4.005-1.469
						c0.345-0.701,0.708-1.357,1.062-1.908C124.947,88.745,129.741,86.483,134.995,85.041z"/>
					<path fill="#231F20" d="M123.821,95.836c-1.543-0.416-2.95-0.934-4.179-1.536c-0.474-0.234-0.672-0.807-0.438-1.283
						c0.356-0.727,0.741-1.418,1.116-2.004c0.063-0.101,0.145-0.188,0.24-0.258c3.954-2.882,8.856-5.179,14.182-6.641
						c0.495-0.135,1.003,0.14,1.165,0.625s-0.088,1.01-0.562,1.196c-5.119,1.99-8.901,5.386-10.378,9.311
						c-0.142,0.383-0.505,0.623-0.897,0.623C123.99,95.869,123.906,95.858,123.821,95.836z M121.841,92.199
						c-0.153,0.245-0.304,0.507-0.457,0.785c0.661,0.28,1.372,0.536,2.129,0.765c0.727-1.594,1.78-3.096,3.106-4.457
						C124.908,90.17,123.306,91.143,121.841,92.199z"/>
				</g>
				<g>
					<path fill="#231F20" d="M129.105,95.839c-1.799-0.195-3.488-0.515-5.034-0.931c1.591-4.232,5.58-7.787,10.924-9.867
						c2.678-0.736,5.464-1.271,8.31-1.542c1.621-0.158,3.119-0.271,4.512-0.345c0.049,0.027,0.094,0.057,0.142,0.083
						C138.495,84.242,130.964,89.319,129.105,95.839z"/>
					<path fill="#231F20" d="M129.003,96.792c-1.807-0.195-3.551-0.516-5.182-0.956c-0.261-0.07-0.479-0.249-0.606-0.489
						c-0.119-0.24-0.138-0.522-0.042-0.776c1.667-4.436,5.852-8.236,11.57-10.456c2.831-0.777,5.68-1.306,8.472-1.57
						c1.633-0.159,3.146-0.273,4.548-0.35c0.171-0.003,0.507,0.116,0.663,0.206c0.366,0.203,0.556,0.62,0.475,1.03
						c-0.084,0.41-0.426,0.718-0.841,0.761c-9.029,0.959-16.273,5.744-18.029,11.91c-0.12,0.416-0.499,0.697-0.925,0.697
						C129.072,96.798,129.036,96.797,129.003,96.792z M135.347,85.936c-4.681,1.821-8.244,4.813-9.949,8.314
						c0.979,0.224,1.993,0.405,3.035,0.542c1.348-3.781,4.488-7.044,8.724-9.314C136.55,85.619,135.943,85.772,135.347,85.936z"/>
				</g>
				<g>
					<path fill="#231F20" d="M147.958,83.237c0.387,0.24,0.75,0.488,1.08,0.746c-7.502,1.89-13.172,6.465-14.649,12.07
						c-0.339,0.007-0.672,0.022-1.015,0.022c-1.471,0-2.896-0.09-4.269-0.236C130.964,89.319,138.495,84.242,147.958,83.237z"/>
					<path fill="#231F20" d="M129.006,96.792c-0.285-0.03-0.537-0.182-0.693-0.416c-0.162-0.236-0.207-0.528-0.129-0.8
						c1.967-6.91,9.874-12.252,19.672-13.292c0.21-0.023,0.427,0.027,0.606,0.136c0.421,0.26,0.813,0.528,1.171,0.808
						c0.288,0.225,0.42,0.596,0.346,0.955c-0.075,0.359-0.349,0.643-0.706,0.731c-7.234,1.824-12.584,6.186-13.956,11.384
						c-0.111,0.414-0.478,0.706-0.909,0.716l-0.328,0.008c-0.233,0.007-0.468,0.013-0.705,0.013
						C131.957,97.034,130.528,96.956,129.006,96.792z M143.14,85.134c-6.163,1.741-10.928,5.372-12.731,9.862
						c1.116,0.087,2.213,0.144,3.254,0.115C134.992,91.041,138.417,87.494,143.14,85.134z"/>
				</g>
				<g>
					<path fill="#231F20" d="M120.066,93.439c-0.285-0.138-0.567-0.281-0.832-0.431c0.595-0.51,1.237-0.999,1.895-1.477
						C120.774,92.082,120.411,92.738,120.066,93.439z"/>
					<path fill="#231F20" d="M120.066,94.398c0.354,0,0.696-0.196,0.861-0.537c0.327-0.667,0.676-1.29,1.009-1.813
						c0.249-0.389,0.187-0.899-0.15-1.216c-0.336-0.316-0.85-0.347-1.225-0.076c-0.679,0.495-1.336,0.998-1.951,1.523
						c-0.237,0.203-0.36,0.51-0.33,0.821c0.03,0.311,0.207,0.588,0.48,0.743c0.282,0.159,0.582,0.312,0.889,0.461
						C119.784,94.368,119.925,94.398,120.066,94.398z"/>
				</g>
			</g>
			<g opacity="0.1">
				<ellipse fill="#231F20" cx="133.374" cy="87.992" rx="18.054" ry="8.083"/>
				<path fill="#231F20" d="M114.359,87.992c0-5.072,8.352-9.043,19.015-9.043s19.015,3.972,19.015,9.043
					c0,5.07-8.352,9.042-19.015,9.042S114.359,93.062,114.359,87.992z M116.277,87.992c0,3.439,6.869,7.124,17.097,7.124
					c10.225,0,17.094-3.685,17.094-7.124c0-3.44-6.869-7.124-17.094-7.124C123.146,80.868,116.277,84.552,116.277,87.992z"/>
			</g>
		</g>
	</g>
</g>
<g>
	<g>
		<g>
			<path fill="#372F16" d="M75.787,65.979c15.62,0,28.282,5.659,28.282,12.636v27.453v0.641h-0.072
				c-0.744,6.679-13.07,11.993-28.209,11.993s-27.462-5.313-28.209-11.993h-0.072V78.615C47.505,71.639,60.167,65.979,75.787,65.979
				z"/>
			<path fill="#372F16" d="M46.772,107.668h-0.228V78.615c0-7.624,12.845-13.595,29.242-13.595c16.4,0,29.243,5.971,29.243,13.595
				v27.453l-0.072,1.6h-0.156c-1.657,6.897-13.827,11.995-29.014,11.995S48.43,114.565,46.772,107.668z M103.111,78.615
				c0-6.328-12.516-11.675-27.325-11.675c-14.809,0-27.321,5.347-27.321,11.675v27.386l0.066,0.602
				c0.684,6.144,12.912,11.139,27.255,11.139c14.344,0,26.571-4.995,27.255-11.139l0.069-0.34V78.615z"/>
		</g>
		<g>
			<ellipse fill="#F0F4F7" cx="75.787" cy="78.615" rx="28.282" ry="12.632"/>
			<path fill="#372F16" d="M46.544,78.615c0-7.624,12.845-13.595,29.242-13.595c16.4,0,29.243,5.971,29.243,13.595
				c0,7.622-12.843,13.591-29.243,13.591C59.39,92.207,46.544,86.237,46.544,78.615z M48.465,78.615
				c0,6.327,12.513,11.671,27.321,11.671c14.809,0,27.325-5.345,27.325-11.671c0-6.328-12.516-11.675-27.325-11.675
				C60.978,66.94,48.465,72.287,48.465,78.615z"/>
		</g>
		<g>
			<path fill="#372F16" d="M47.505,94.996c15.62,0,28.282,5.659,28.282,12.635v27.453v0.64h-0.072
				c-0.748,6.68-13.074,11.996-28.21,11.996c-15.139,0-27.465-5.316-28.21-11.996H19.22v-28.093
				C19.22,100.654,31.886,94.996,47.505,94.996z"/>
			<path fill="#372F16" d="M18.491,136.685h-0.231v-29.054c0-7.622,12.849-13.595,29.246-13.595s29.243,5.973,29.243,13.595v27.453
				l-0.075,1.601h-0.153c-1.657,6.896-13.83,11.996-29.014,11.996C32.318,148.681,20.147,143.58,18.491,136.685z M74.829,107.631
				c0-6.328-12.515-11.675-27.324-11.675c-14.812,0-27.324,5.347-27.324,11.675v27.388l0.066,0.6
				c0.688,6.146,12.915,11.141,27.258,11.141s26.568-4.995,27.255-11.141l0.069-0.339V107.631z"/>
		</g>
		<g>
			<ellipse fill="#F0F4F7" cx="47.503" cy="107.631" rx="28.283" ry="12.633"/>
			<path fill="#372F16" d="M18.259,107.631c0-7.622,12.849-13.595,29.246-13.595s29.243,5.973,29.243,13.595
				s-12.846,13.593-29.243,13.593S18.259,115.253,18.259,107.631z M20.181,107.631c0,6.328,12.512,11.672,27.324,11.672
				c14.809,0,27.324-5.344,27.324-11.672S62.314,95.956,47.505,95.956C32.693,95.956,20.181,101.303,20.181,107.631z"/>
		</g>
		<g>
			<g>
				<g>
					<path fill="#F6E9CF" d="M49.126,104.678c0.027-0.01,0.051-0.022,0.078-0.033C49.177,104.656,49.153,104.668,49.126,104.678
						c-5.253,1.444-10.048,3.705-13.866,6.489c0.003-0.009,0.009-0.018,0.015-0.023c-0.006,0.006-0.012,0.015-0.015,0.023
						c-0.657,0.48-1.3,0.97-1.895,1.478c-2.443-1.378-3.915-3.116-3.915-5.015c0-4.465,8.082-8.083,18.054-8.083
						c5.914,0,11.149,1.277,14.443,3.247c-1.393,0.075-2.891,0.188-4.512,0.345C54.59,103.407,51.804,103.944,49.126,104.678z"/>
					<path fill="#EED190" d="M32.891,113.481c-2.879-1.624-4.401-3.647-4.401-5.852c0-5.07,8.352-9.043,19.015-9.043
						c5.896,0,11.338,1.232,14.935,3.383c0.363,0.216,0.54,0.646,0.438,1.054c-0.102,0.41-0.459,0.706-0.879,0.729
						c-1.381,0.073-2.864,0.185-4.473,0.341c-2.678,0.255-5.418,0.762-8.141,1.511c-0.003,0-0.003,0-0.003,0
						c-5.104,1.402-9.79,3.593-13.557,6.34l-0.003,0.004c-0.637,0.462-1.255,0.937-1.832,1.429c-0.18,0.149-0.402,0.228-0.625,0.228
						C33.203,113.604,33.041,113.562,32.891,113.481z M34.842,110.285c3.927-2.831,8.772-5.087,13.98-6.522
						c0.006,0,0.006-0.001,0.006-0.001v-0.001h0.003l0,0l0,0c0.003-0.001,0.003-0.001,0.003-0.001c0.003,0,0.003-0.001,0.003-0.001
						l0,0h0.003v-0.001c0.003,0,0.003,0,0.003,0l0,0l0.003-0.001l0,0c0.003,0,0.003-0.001,0.003-0.001l0,0h0.003l0,0
						c0.081-0.033,0.165-0.053,0.249-0.062c2.756-0.743,5.526-1.252,8.244-1.509c0.258-0.025,0.513-0.049,0.768-0.072
						c-3.011-1.025-6.745-1.604-10.609-1.604c-10.228,0-17.096,3.683-17.096,7.124c0,1.322,1.012,2.673,2.867,3.844
						c0.423-0.343,0.865-0.676,1.315-1.003C34.666,110.393,34.752,110.333,34.842,110.285z"/>
				</g>
				<g>
					<path fill="#F6E9CF" d="M64.529,104.96c0.657,0.836,1.03,1.732,1.03,2.669c0,3.43-4.779,6.354-11.513,7.531
						C55.406,110.837,59.273,107.176,64.529,104.96z"/>
					<path fill="#EED190" d="M53.326,115.79c-0.222-0.252-0.294-0.601-0.195-0.918c1.417-4.506,5.437-8.44,11.026-10.797
						c0.402-0.168,0.861-0.048,1.128,0.292c0.82,1.043,1.234,2.141,1.234,3.262c0,3.844-4.833,7.17-12.308,8.473
						c-0.054,0.012-0.111,0.015-0.165,0.015C53.773,116.117,53.509,116,53.326,115.79z M55.598,113.863c5.38-1.255,9-3.717,9-6.234
						c0-0.482-0.138-0.974-0.414-1.468C60.161,108.011,57.129,110.741,55.598,113.863z"/>
				</g>
				<g>
					<path fill="#F6E9CF" d="M63.169,103.622c0.543,0.423,0.997,0.869,1.36,1.339c-5.256,2.216-9.123,5.876-10.483,10.2
						c-1.729,0.3-3.587,0.48-5.527,0.531C49.997,110.086,55.667,105.512,63.169,103.622z"/>
					<path fill="#EED190" d="M47.763,116.286c-0.186-0.237-0.25-0.55-0.174-0.838c1.552-5.878,7.43-10.764,15.346-12.757
						c0.285-0.073,0.591-0.009,0.826,0.174c0.604,0.473,1.117,0.979,1.528,1.505c0.183,0.237,0.247,0.543,0.168,0.832
						c-0.075,0.29-0.279,0.527-0.553,0.643c-5.07,2.136-8.693,5.635-9.942,9.604c-0.108,0.342-0.396,0.595-0.75,0.654
						c-1.807,0.315-3.716,0.498-5.668,0.546c-0.009,0-0.018,0-0.024,0C48.226,116.648,47.949,116.517,47.763,116.286z
						 M62.716,104.735c-6.304,1.758-11.071,5.465-12.852,9.938c1.18-0.072,2.339-0.192,3.458-0.369
						C54.746,110.429,58.102,107.02,62.716,104.735z"/>
				</g>
				<g>
					<path fill="#F6E9CF" d="M49.126,104.678c-5.344,2.082-9.333,5.636-10.924,9.87c-1.489-0.402-2.837-0.895-4.004-1.472
						c0.345-0.702,0.708-1.356,1.062-1.909C39.078,108.383,43.873,106.123,49.126,104.678z"/>
					<path fill="#EED190" d="M37.953,115.472c-1.543-0.414-2.951-0.931-4.179-1.533c-0.475-0.231-0.673-0.808-0.438-1.282
						c0.357-0.727,0.742-1.42,1.117-2.005c0.063-0.1,0.144-0.187,0.24-0.259c3.954-2.882,8.856-5.178,14.182-6.639
						c0.495-0.134,1.002,0.14,1.165,0.623c0.162,0.486-0.087,1.011-0.562,1.196c-5.118,1.992-8.901,5.384-10.378,9.311
						c-0.141,0.384-0.504,0.624-0.897,0.624C38.121,115.508,38.037,115.496,37.953,115.472z M35.971,111.837
						c-0.153,0.243-0.303,0.507-0.456,0.786c0.66,0.279,1.372,0.537,2.128,0.766c0.726-1.597,1.78-3.098,3.107-4.458
						C39.039,109.807,37.436,110.783,35.971,111.837z"/>
				</g>
				<g>
					<path fill="#F6E9CF" d="M43.236,115.479c-1.798-0.198-3.488-0.517-5.034-0.931c1.591-4.233,5.581-7.788,10.924-9.87
						c2.678-0.734,5.464-1.271,8.31-1.54c1.621-0.157,3.119-0.27,4.512-0.345c0.048,0.026,0.093,0.056,0.141,0.083
						C52.626,103.88,45.094,108.958,43.236,115.479z"/>
					<path fill="#EED190" d="M43.134,116.433c-1.807-0.198-3.551-0.52-5.181-0.961c-0.261-0.068-0.48-0.246-0.606-0.486
						c-0.12-0.239-0.138-0.521-0.042-0.774c1.666-4.437,5.851-8.237,11.57-10.457c2.831-0.778,5.68-1.308,8.472-1.572
						c1.633-0.159,3.146-0.271,4.548-0.348c0.183,0.009,0.507,0.114,0.664,0.204c0.366,0.204,0.555,0.622,0.474,1.03
						c-0.084,0.41-0.426,0.717-0.84,0.763c-9.03,0.958-16.274,5.746-18.03,11.909c-0.12,0.417-0.499,0.699-0.925,0.699
						C43.203,116.438,43.167,116.433,43.134,116.433z M49.477,105.573c-4.68,1.82-8.243,4.813-9.948,8.313
						c0.979,0.226,1.993,0.405,3.035,0.544c1.348-3.779,4.488-7.044,8.724-9.315C50.681,105.258,50.075,105.409,49.477,105.573z"/>
				</g>
				<g>
					<path fill="#F6E9CF" d="M62.088,102.876c0.388,0.24,0.75,0.486,1.081,0.746c-7.502,1.89-13.173,6.465-14.65,12.07
						c-0.339,0.009-0.672,0.021-1.015,0.021c-1.471,0-2.897-0.09-4.269-0.233C45.094,108.958,52.626,103.88,62.088,102.876z"/>
					<path fill="#EED190" d="M43.137,116.433c-0.286-0.03-0.538-0.186-0.694-0.42c-0.162-0.234-0.207-0.528-0.129-0.799
						c1.966-6.911,9.874-12.252,19.672-13.293c0.213-0.021,0.426,0.027,0.606,0.138c0.42,0.26,0.813,0.527,1.171,0.808
						c0.288,0.225,0.42,0.596,0.345,0.955c-0.075,0.357-0.348,0.643-0.706,0.731c-7.235,1.824-12.584,6.183-13.956,11.382
						c-0.111,0.414-0.478,0.708-0.91,0.714l-0.327,0.013c-0.234,0.006-0.468,0.012-0.706,0.012
						C46.088,116.673,44.659,116.595,43.137,116.433z M57.271,104.773c-6.163,1.74-10.927,5.374-12.731,9.862
						c1.117,0.087,2.203,0.146,3.254,0.117C49.123,110.681,52.548,107.133,57.271,104.773z"/>
				</g>
				<g>
					<path fill="#F6E9CF" d="M34.197,113.076c-0.286-0.138-0.567-0.282-0.832-0.432c0.595-0.508,1.237-0.997,1.895-1.478
						C34.905,111.72,34.542,112.374,34.197,113.076z"/>
					<path fill="#EED190" d="M34.197,114.037c0.354,0,0.696-0.198,0.861-0.537c0.327-0.667,0.675-1.291,1.009-1.813
						c0.249-0.387,0.186-0.9-0.15-1.216c-0.336-0.318-0.85-0.348-1.225-0.078c-0.679,0.495-1.336,0.997-1.951,1.525
						c-0.237,0.204-0.36,0.51-0.331,0.819c0.03,0.312,0.21,0.592,0.48,0.744c0.282,0.159,0.583,0.312,0.889,0.46
						C33.915,114.007,34.056,114.037,34.197,114.037z"/>
				</g>
			</g>
			<g opacity="0.1">
				<ellipse fill="#5D4030" cx="47.505" cy="107.629" rx="18.054" ry="8.083"/>
				<path fill="#5D4030" d="M28.49,107.629c0-5.07,8.352-9.043,19.015-9.043s19.015,3.973,19.015,9.043
					c0,5.072-8.352,9.043-19.015,9.043S28.49,112.701,28.49,107.629z M30.409,107.629c0,3.442,6.868,7.123,17.096,7.123
					c10.225,0,17.093-3.681,17.093-7.123c0-3.44-6.869-7.124-17.093-7.124C37.277,100.506,30.409,104.189,30.409,107.629z"/>
			</g>
		</g>
		<g>
			<g>
				<g>
					<path fill="#F6E9CF" d="M77.411,75.819c0.027-0.012,0.048-0.022,0.075-0.035C77.459,75.796,77.438,75.807,77.411,75.819
						c-5.256,1.442-10.047,3.704-13.869,6.49c0.003-0.012,0.009-0.02,0.015-0.027c-0.006,0.007-0.012,0.015-0.015,0.027
						c-0.657,0.479-1.297,0.967-1.894,1.477c-2.444-1.379-3.915-3.119-3.915-5.017c0-4.465,8.084-8.084,18.054-8.084
						c5.914,0,11.152,1.279,14.443,3.247c-1.393,0.075-2.888,0.188-4.509,0.345C82.875,74.547,80.085,75.083,77.411,75.819z"/>
					<path fill="#EED190" d="M61.176,84.622c-2.882-1.627-4.404-3.65-4.404-5.853c0-5.072,8.352-9.043,19.015-9.043
						c5.896,0,11.339,1.232,14.935,3.382c0.363,0.218,0.54,0.646,0.438,1.055c-0.1,0.41-0.456,0.706-0.877,0.728
						c-1.384,0.075-2.864,0.186-4.473,0.341c-2.681,0.255-5.422,0.764-8.145,1.511c-0.003,0.001-0.003,0.001-0.003,0.001
						c-5.101,1.401-9.79,3.592-13.554,6.339c-0.003,0.001-0.003,0.001-0.003,0.001c-0.636,0.465-1.255,0.937-1.834,1.431
						c-0.177,0.151-0.399,0.229-0.625,0.229C61.488,84.745,61.323,84.705,61.176,84.622z M63.127,81.425
						c3.926-2.831,8.771-5.088,13.98-6.521c0.003-0.003,0.006-0.003,0.006-0.003l0.003-0.001v-0.001l0,0c0.003,0,0.003,0,0.003,0
						s0.003,0,0.003-0.001l0,0l0,0c0.021,0,0.006-0.001,0.006-0.001v-0.001l0,0c0.003,0,0.003,0,0.003,0h0.003v-0.001l0,0
						c0.084-0.033,0.168-0.053,0.252-0.06c2.756-0.745,5.527-1.252,8.241-1.508c0.258-0.026,0.516-0.05,0.769-0.072
						c-3.008-1.025-6.743-1.604-10.609-1.604c-10.225,0-17.096,3.684-17.096,7.124c0,1.319,1.015,2.67,2.867,3.844
						c0.423-0.342,0.865-0.675,1.315-1.006C62.947,81.532,63.034,81.47,63.127,81.425z"/>
				</g>
				<g>
					<path fill="#F6E9CF" d="M92.814,76.1c0.654,0.836,1.029,1.732,1.029,2.67c0,3.43-4.782,6.355-11.516,7.528
						C83.691,81.974,87.558,78.315,92.814,76.1z"/>
					<path fill="#EED190" d="M81.607,86.931c-0.222-0.252-0.294-0.602-0.192-0.922c1.417-4.504,5.437-8.437,11.023-10.793
						c0.405-0.169,0.862-0.048,1.129,0.291c0.819,1.043,1.234,2.142,1.234,3.263c0,3.844-4.831,7.17-12.306,8.473
						c-0.054,0.011-0.111,0.015-0.168,0.015C82.055,87.258,81.791,87.141,81.607,86.931z M83.88,85.003
						c5.38-1.256,9.003-3.718,9.003-6.234c0-0.483-0.138-0.976-0.417-1.469C88.443,79.151,85.411,81.881,83.88,85.003z"/>
				</g>
				<g>
					<path fill="#F6E9CF" d="M91.454,74.761c0.54,0.424,0.997,0.87,1.36,1.339c-5.257,2.215-9.124,5.875-10.486,10.198
						c-1.729,0.3-3.587,0.485-5.527,0.533C78.281,81.225,83.952,76.65,91.454,74.761z"/>
					<path fill="#EED190" d="M76.048,87.426c-0.186-0.237-0.252-0.549-0.174-0.84c1.549-5.874,7.43-10.761,15.346-12.755
						c0.285-0.072,0.589-0.008,0.823,0.174c0.606,0.473,1.119,0.979,1.53,1.507c0.181,0.236,0.243,0.542,0.169,0.832
						c-0.075,0.288-0.282,0.525-0.556,0.642c-5.07,2.136-8.694,5.636-9.943,9.602c-0.105,0.342-0.396,0.596-0.75,0.656
						c-1.807,0.314-3.713,0.497-5.668,0.548c-0.006,0-0.015,0-0.024,0C76.51,87.791,76.231,87.656,76.048,87.426z M90.998,75.874
						c-6.301,1.758-11.068,5.465-12.852,9.938c1.183-0.071,2.341-0.194,3.461-0.369C83.031,81.57,86.384,78.16,90.998,75.874z"/>
				</g>
				<g>
					<path fill="#F6E9CF" d="M77.411,75.819c-5.346,2.08-9.333,5.635-10.927,9.868c-1.489-0.401-2.834-0.896-4.001-1.47
						c0.342-0.701,0.708-1.357,1.06-1.908C67.363,79.523,72.154,77.261,77.411,75.819z"/>
					<path fill="#EED190" d="M66.237,86.614c-1.546-0.416-2.954-0.934-4.179-1.536c-0.474-0.234-0.672-0.807-0.441-1.283
						c0.357-0.727,0.742-1.418,1.117-2.004c0.063-0.101,0.147-0.188,0.243-0.258c3.951-2.882,8.856-5.179,14.179-6.641
						c0.498-0.135,1.005,0.14,1.167,0.625c0.159,0.485-0.087,1.01-0.564,1.196c-5.119,1.99-8.898,5.385-10.375,9.311
						c-0.144,0.383-0.507,0.623-0.901,0.623C66.402,86.647,66.318,86.636,66.237,86.614z M64.253,82.977
						c-0.15,0.245-0.303,0.507-0.456,0.785c0.663,0.28,1.375,0.536,2.128,0.765c0.727-1.594,1.78-3.096,3.11-4.456
						C67.324,80.948,65.721,81.92,64.253,82.977z"/>
				</g>
				<g>
					<path fill="#F6E9CF" d="M71.521,86.617c-1.801-0.195-3.491-0.515-5.038-0.93c1.594-4.233,5.581-7.788,10.927-9.868
						c2.675-0.736,5.464-1.271,8.31-1.542c1.621-0.158,3.116-0.271,4.509-0.345c0.048,0.027,0.096,0.057,0.144,0.083
						C80.908,75.02,73.376,80.097,71.521,86.617z"/>
					<path fill="#EED190" d="M71.419,87.57c-1.807-0.195-3.551-0.516-5.182-0.956c-0.264-0.07-0.483-0.249-0.606-0.489
						s-0.138-0.522-0.045-0.776c1.666-4.436,5.851-8.236,11.57-10.456c2.834-0.777,5.683-1.306,8.472-1.57
						c1.636-0.159,3.146-0.273,4.551-0.35c0.201-0.003,0.501,0.116,0.664,0.206c0.366,0.203,0.553,0.62,0.472,1.03
						c-0.084,0.41-0.424,0.718-0.841,0.761c-9.027,0.959-16.274,5.744-18.03,11.91c-0.117,0.416-0.495,0.697-0.921,0.697
						C71.488,87.576,71.452,87.575,71.419,87.57z M77.759,76.713c-4.677,1.821-8.244,4.813-9.946,8.314
						c0.979,0.224,1.99,0.405,3.035,0.542c1.345-3.781,4.488-7.044,8.724-9.314C78.963,76.396,78.356,76.55,77.759,76.713z"/>
				</g>
				<g>
					<path fill="#F6E9CF" d="M90.374,74.015c0.387,0.24,0.75,0.488,1.081,0.746c-7.502,1.89-13.173,6.464-14.653,12.069
						c-0.339,0.007-0.669,0.022-1.015,0.022c-1.471,0-2.897-0.09-4.266-0.236C73.376,80.097,80.908,75.02,90.374,74.015z"/>
					<path fill="#EED190" d="M71.419,87.57c-0.282-0.03-0.535-0.181-0.693-0.416c-0.159-0.236-0.208-0.528-0.126-0.8
						c1.966-6.91,9.871-12.252,19.672-13.292c0.207-0.022,0.423,0.027,0.606,0.136c0.42,0.26,0.811,0.529,1.168,0.808
						c0.288,0.225,0.423,0.596,0.348,0.955c-0.078,0.359-0.351,0.643-0.705,0.731c-7.238,1.824-12.587,6.186-13.959,11.384
						c-0.108,0.414-0.477,0.706-0.907,0.716l-0.33,0.008c-0.234,0.007-0.468,0.013-0.706,0.013
						C74.373,87.812,72.941,87.733,71.419,87.57z M85.552,75.912c-6.163,1.741-10.924,5.372-12.729,9.862
						c1.117,0.087,2.207,0.144,3.254,0.115C77.408,81.818,80.833,78.271,85.552,75.912z"/>
				</g>
				<g>
					<path fill="#F6E9CF" d="M62.482,84.217c-0.288-0.138-0.567-0.281-0.834-0.431c0.597-0.51,1.237-0.998,1.894-1.477
						C63.19,82.86,62.824,83.516,62.482,84.217z"/>
					<path fill="#EED190" d="M62.482,85.176c0.354,0,0.693-0.196,0.861-0.537c0.324-0.667,0.673-1.29,1.006-1.813
						c0.249-0.389,0.186-0.899-0.15-1.216c-0.333-0.316-0.85-0.347-1.222-0.076c-0.678,0.495-1.339,0.998-1.951,1.523
						c-0.24,0.203-0.363,0.51-0.333,0.821c0.03,0.311,0.21,0.588,0.48,0.743c0.285,0.159,0.585,0.312,0.889,0.461
						C62.197,85.146,62.341,85.176,62.482,85.176z"/>
				</g>
			</g>
			<g opacity="0.1">
				<ellipse fill="#5D4030" cx="75.788" cy="78.77" rx="18.055" ry="8.083"/>
				<path fill="#5D4030" d="M56.772,78.77c0-5.072,8.352-9.043,19.015-9.043s19.015,3.972,19.015,9.043
					c0,5.07-8.352,9.042-19.015,9.042S56.772,83.84,56.772,78.77z M58.69,78.77c0,3.439,6.872,7.124,17.096,7.124
					c10.228,0,17.096-3.685,17.096-7.124c0-3.44-6.868-7.124-17.096-7.124C65.562,71.646,58.69,75.33,58.69,78.77z"/>
			</g>
		</g>
	</g>
	<g>
		<g>
			<path fill="#372F16" d="M133.374,65.979c15.619,0,28.282,5.659,28.282,12.636v27.453v0.641h-0.072
				c-0.748,6.679-13.074,11.993-28.21,11.993c-15.139,0-27.465-5.313-28.21-11.993h-0.075V78.615
				C105.089,71.639,117.755,65.979,133.374,65.979z"/>
			<path fill="#372F16" d="M104.359,107.668h-0.23V78.615c0-7.624,12.849-13.595,29.245-13.595c16.397,0,29.242,5.971,29.242,13.595
				v27.453l-0.074,1.6h-0.153c-1.657,6.897-13.83,11.995-29.015,11.995C118.187,119.663,106.017,114.565,104.359,107.668z
				 M160.698,78.615c0-6.328-12.516-11.675-27.324-11.675c-14.812,0-27.324,5.347-27.324,11.675v27.386l0.066,0.602
				c0.688,6.144,12.914,11.139,27.258,11.139s26.567-4.995,27.255-11.139l0.069-0.34V78.615z"/>
		</g>
		<g>
			<ellipse fill="#F0F4F7" cx="133.373" cy="78.615" rx="28.284" ry="12.632"/>
			<path fill="#372F16" d="M104.129,78.615c0-7.624,12.849-13.595,29.245-13.595c16.397,0,29.242,5.971,29.242,13.595
				c0,7.622-12.845,13.591-29.242,13.591C116.978,92.207,104.129,86.237,104.129,78.615z M106.05,78.615
				c0,6.327,12.513,11.671,27.324,11.671c14.809,0,27.324-5.345,27.324-11.671c0-6.328-12.516-11.675-27.324-11.675
				C118.562,66.94,106.05,72.287,106.05,78.615z"/>
		</g>
		<g>
			<path fill="#372F16" d="M105.089,94.996c15.62,0,28.285,5.659,28.285,12.635v27.453v0.64h-0.075
				c-0.744,6.68-13.07,11.996-28.21,11.996c-15.136,0-27.462-5.316-28.209-11.996h-0.072v-28.093
				C76.808,100.654,89.47,94.996,105.089,94.996z"/>
			<path fill="#372F16" d="M76.075,136.685h-0.228v-29.054c0-7.622,12.846-13.595,29.242-13.595
				c16.397,0,29.246,5.973,29.246,13.595v27.453l-0.075,1.601h-0.156c-1.657,6.896-13.827,11.996-29.015,11.996
				C89.905,148.681,77.732,143.58,76.075,136.685z M132.413,107.631c0-6.328-12.512-11.675-27.324-11.675
				c-14.809,0-27.321,5.347-27.321,11.675v27.388l0.066,0.6c0.688,6.146,12.912,11.141,27.255,11.141
				c14.344,0,26.571-4.995,27.259-11.141l0.065-0.339V107.631z"/>
		</g>
		<g>
			<ellipse fill="#F0F4F7" cx="105.091" cy="107.631" rx="28.283" ry="12.633"/>
			<path fill="#372F16" d="M75.847,107.631c0-7.622,12.846-13.595,29.242-13.595c16.397,0,29.246,5.973,29.246,13.595
				s-12.849,13.593-29.246,13.593C88.692,121.224,75.847,115.253,75.847,107.631z M77.768,107.631
				c0,6.328,12.512,11.672,27.321,11.672c14.812,0,27.324-5.344,27.324-11.672s-12.512-11.675-27.324-11.675
				C90.28,95.956,77.768,101.303,77.768,107.631z"/>
		</g>
		<g>
			<g>
				<g>
					<path fill="#F6E9CF" d="M106.713,104.678c0.027-0.01,0.049-0.022,0.075-0.033C106.762,104.656,106.74,104.668,106.713,104.678
						c-5.256,1.444-10.047,3.705-13.869,6.489c0.003-0.009,0.01-0.018,0.016-0.023c-0.006,0.006-0.013,0.015-0.016,0.023
						c-0.657,0.48-1.297,0.97-1.894,1.478c-2.444-1.378-3.915-3.116-3.915-5.015c0-4.465,8.084-8.083,18.054-8.083
						c5.914,0,11.153,1.277,14.443,3.247c-1.394,0.075-2.889,0.188-4.51,0.345C112.177,103.407,109.388,103.944,106.713,104.678z"/>
					<path fill="#EED190" d="M90.479,113.481c-2.882-1.624-4.404-3.647-4.404-5.852c0-5.07,8.351-9.043,19.014-9.043
						c5.896,0,11.342,1.232,14.938,3.383c0.36,0.216,0.537,0.646,0.438,1.054c-0.103,0.41-0.46,0.706-0.88,0.729
						c-1.384,0.073-2.864,0.185-4.473,0.341c-2.681,0.255-5.422,0.762-8.145,1.511c-0.003,0-0.003,0-0.003,0
						c-5.101,1.402-9.79,3.593-13.555,6.34c-0.003,0-0.003,0.004-0.003,0.004c-0.636,0.462-1.255,0.937-1.834,1.429
						c-0.177,0.149-0.399,0.228-0.624,0.228C90.791,113.604,90.626,113.562,90.479,113.481z M92.43,110.285
						c3.927-2.831,8.771-5.087,13.98-6.522c0.003,0,0.003-0.001,0.003-0.001l0.003-0.001l0,0c0,0,0,0,0.003,0l0,0
						c0.003-0.001,0.003-0.001,0.003-0.001v-0.001h0.003h0.003v-0.001l0,0h0.004l0.003-0.001l0,0v-0.001c0.003,0,0.003,0,0.003,0
						l0,0l0,0c0.084-0.033,0.168-0.053,0.252-0.062c2.756-0.743,5.526-1.252,8.24-1.509c0.258-0.025,0.517-0.049,0.769-0.072
						c-3.008-1.025-6.742-1.604-10.609-1.604c-10.225,0-17.093,3.683-17.093,7.124c0,1.322,1.011,2.673,2.863,3.844
						c0.427-0.343,0.865-0.676,1.315-1.003C92.25,110.393,92.337,110.333,92.43,110.285z"/>
				</g>
				<g>
					<path fill="#F6E9CF" d="M122.116,104.96c0.655,0.836,1.03,1.732,1.03,2.669c0,3.43-4.782,6.354-11.513,7.531
						C112.993,110.837,116.86,107.176,122.116,104.96z"/>
					<path fill="#EED190" d="M110.91,115.79c-0.219-0.252-0.294-0.601-0.192-0.918c1.417-4.506,5.437-8.44,11.026-10.797
						c0.402-0.168,0.858-0.048,1.129,0.292c0.816,1.043,1.23,2.141,1.23,3.262c0,3.844-4.83,7.17-12.305,8.473
						c-0.057,0.012-0.111,0.015-0.165,0.015C111.357,116.117,111.094,116,110.91,115.79z M113.183,113.863
						c5.38-1.255,9.003-3.717,9.003-6.234c0-0.482-0.138-0.974-0.417-1.468C117.746,108.011,114.714,110.741,113.183,113.863z"/>
				</g>
				<g>
					<path fill="#F6E9CF" d="M120.757,103.622c0.543,0.423,0.996,0.869,1.359,1.339c-5.256,2.216-9.123,5.876-10.482,10.2
						c-1.732,0.3-3.591,0.48-5.53,0.531C107.584,110.086,113.255,105.512,120.757,103.622z"/>
					<path fill="#EED190" d="M105.351,116.286c-0.187-0.237-0.249-0.55-0.174-0.838c1.552-5.878,7.43-10.764,15.346-12.757
						c0.285-0.073,0.592-0.009,0.825,0.174c0.604,0.473,1.117,0.979,1.525,1.505c0.184,0.237,0.246,0.543,0.171,0.832
						c-0.075,0.29-0.282,0.527-0.555,0.643c-5.067,2.136-8.694,5.635-9.943,9.604c-0.104,0.342-0.396,0.595-0.75,0.654
						c-1.808,0.315-3.714,0.498-5.668,0.546c-0.006,0-0.015,0-0.024,0C105.812,116.648,105.533,116.517,105.351,116.286z
						 M120.301,104.735c-6.302,1.758-11.068,5.465-12.852,9.938c1.183-0.072,2.341-0.192,3.461-0.369
						C112.333,110.429,115.687,107.02,120.301,104.735z"/>
				</g>
				<g>
					<path fill="#F6E9CF" d="M106.713,104.678c-5.346,2.082-9.333,5.636-10.924,9.87c-1.492-0.402-2.837-0.895-4.005-1.472
						c0.343-0.702,0.709-1.356,1.06-1.909C96.666,108.383,101.457,106.123,106.713,104.678z"/>
					<path fill="#EED190" d="M95.54,115.472c-1.546-0.414-2.951-0.931-4.179-1.533c-0.475-0.231-0.673-0.808-0.441-1.282
						c0.357-0.727,0.741-1.42,1.116-2.005c0.063-0.1,0.147-0.187,0.243-0.259c3.954-2.882,8.856-5.178,14.179-6.639
						c0.498-0.134,1.006,0.14,1.165,0.623c0.162,0.486-0.084,1.011-0.562,1.196c-5.118,1.992-8.897,5.384-10.375,9.311
						c-0.144,0.384-0.507,0.624-0.897,0.624C95.705,115.508,95.621,115.496,95.54,115.472z M93.556,111.837
						c-0.15,0.243-0.304,0.507-0.456,0.786c0.663,0.279,1.375,0.537,2.131,0.766c0.724-1.597,1.777-3.098,3.107-4.458
						C96.627,109.807,95.023,110.783,93.556,111.837z"/>
				</g>
				<g>
					<path fill="#F6E9CF" d="M100.823,115.479c-1.798-0.198-3.491-0.517-5.034-0.931c1.591-4.233,5.578-7.788,10.924-9.87
						c2.675-0.734,5.464-1.271,8.31-1.54c1.621-0.157,3.116-0.27,4.51-0.345c0.051,0.026,0.096,0.056,0.144,0.083
						C110.211,103.88,102.679,108.958,100.823,115.479z"/>
					<path fill="#EED190" d="M100.722,116.433c-1.808-0.198-3.552-0.52-5.182-0.961c-0.265-0.068-0.483-0.246-0.606-0.486
						c-0.123-0.239-0.139-0.521-0.045-0.774c1.669-4.437,5.854-8.237,11.569-10.457c2.834-0.778,5.683-1.308,8.472-1.572
						c1.637-0.159,3.146-0.271,4.551-0.348c0.198,0.009,0.505,0.114,0.664,0.204c0.363,0.204,0.555,0.622,0.471,1.03
						c-0.084,0.41-0.423,0.717-0.84,0.763c-9.027,0.958-16.274,5.746-18.03,11.909c-0.117,0.417-0.495,0.699-0.922,0.699
						C100.79,116.438,100.754,116.433,100.722,116.433z M107.062,105.573c-4.68,1.82-8.24,4.813-9.945,8.313
						c0.979,0.226,1.993,0.405,3.035,0.544c1.345-3.779,4.487-7.044,8.724-9.315C108.266,105.258,107.659,105.409,107.062,105.573z"
						/>
				</g>
				<g>
					<path fill="#F6E9CF" d="M119.676,102.876c0.388,0.24,0.751,0.486,1.081,0.746c-7.502,1.89-13.173,6.465-14.653,12.07
						c-0.336,0.009-0.672,0.021-1.015,0.021c-1.471,0-2.894-0.09-4.266-0.233C102.679,108.958,110.211,103.88,119.676,102.876z"/>
					<path fill="#EED190" d="M100.722,116.433c-0.282-0.03-0.535-0.186-0.693-0.42c-0.159-0.234-0.204-0.528-0.127-0.799
						c1.967-6.911,9.871-12.252,19.673-13.293c0.21-0.021,0.423,0.027,0.606,0.138c0.417,0.26,0.813,0.527,1.167,0.808
						c0.289,0.225,0.424,0.596,0.349,0.955c-0.078,0.357-0.349,0.643-0.705,0.731c-7.238,1.824-12.588,6.183-13.96,11.382
						c-0.107,0.414-0.477,0.708-0.906,0.714l-0.327,0.013c-0.234,0.006-0.469,0.012-0.709,0.012
						C103.676,116.673,102.243,116.595,100.722,116.433z M114.854,104.773c-6.163,1.74-10.924,5.374-12.729,9.862
						c1.117,0.087,2.207,0.146,3.255,0.117C106.71,110.681,110.136,107.133,114.854,104.773z"/>
				</g>
				<g>
					<path fill="#F6E9CF" d="M91.784,113.076c-0.288-0.138-0.57-0.282-0.834-0.432c0.597-0.508,1.236-0.997,1.894-1.478
						C92.493,111.72,92.127,112.374,91.784,113.076z"/>
					<path fill="#EED190" d="M91.784,114.037c0.354,0,0.696-0.198,0.861-0.537c0.328-0.667,0.673-1.291,1.006-1.813
						c0.253-0.387,0.187-0.9-0.149-1.216c-0.337-0.318-0.847-0.348-1.223-0.078c-0.681,0.495-1.339,0.997-1.954,1.525
						c-0.237,0.204-0.36,0.51-0.33,0.819c0.03,0.312,0.21,0.592,0.48,0.744c0.285,0.159,0.585,0.312,0.889,0.46
						C91.502,114.007,91.644,114.037,91.784,114.037z"/>
				</g>
			</g>
			<g opacity="0.1">
				<ellipse fill="#5D4030" cx="105.091" cy="107.629" rx="18.056" ry="8.083"/>
				<path fill="#5D4030" d="M86.075,107.629c0-5.07,8.351-9.043,19.014-9.043s19.015,3.973,19.015,9.043
					c0,5.072-8.352,9.043-19.015,9.043S86.075,112.701,86.075,107.629z M87.996,107.629c0,3.442,6.868,7.123,17.093,7.123
					c10.229,0,17.097-3.681,17.097-7.123c0-3.44-6.868-7.124-17.097-7.124C94.864,100.506,87.996,104.189,87.996,107.629z"/>
			</g>
		</g>
		<g>
			<g>
				<g>
					<path fill="#F6E9CF" d="M134.995,75.819c0.027-0.012,0.051-0.022,0.078-0.035C135.046,75.796,135.022,75.807,134.995,75.819
						c-5.254,1.442-10.048,3.704-13.866,6.49c0.003-0.012,0.009-0.02,0.015-0.027c-0.006,0.007-0.012,0.015-0.015,0.027
						c-0.657,0.479-1.3,0.967-1.895,1.477c-2.443-1.379-3.914-3.119-3.914-5.017c0-4.465,8.081-8.084,18.054-8.084
						c5.914,0,11.149,1.279,14.442,3.247c-1.393,0.075-2.891,0.188-4.512,0.345C140.459,74.547,137.673,75.083,134.995,75.819z"/>
					<path fill="#EED190" d="M118.761,84.622c-2.879-1.627-4.401-3.65-4.401-5.853c0-5.072,8.352-9.043,19.015-9.043
						c5.896,0,11.339,1.232,14.935,3.382c0.363,0.218,0.541,0.646,0.438,1.055c-0.102,0.41-0.459,0.706-0.879,0.728
						c-1.381,0.075-2.864,0.186-4.474,0.341c-2.678,0.255-5.418,0.764-8.142,1.511c-0.003,0.001-0.003,0.001-0.003,0.001
						c-5.1,1.401-9.789,3.592-13.557,6.339c0,0,0,0.001-0.003,0.001c-0.637,0.465-1.255,0.937-1.831,1.431
						c-0.181,0.151-0.402,0.229-0.625,0.229C119.072,84.745,118.91,84.705,118.761,84.622z M120.712,81.425
						c3.927-2.831,8.771-5.088,13.98-6.521c0.006-0.003,0.009-0.003,0.009-0.003v-0.001l0.003-0.001l0,0c0.003,0,0.003,0,0.003,0
						s0,0,0-0.001h0.003l0,0c0.018,0,0.003-0.001,0.003-0.001l0.003-0.001l0,0c0.003,0,0.003,0,0.003,0l0,0l0.003-0.001l0,0
						c0.081-0.033,0.165-0.053,0.249-0.06c2.756-0.745,5.527-1.252,8.244-1.508c0.258-0.026,0.513-0.05,0.769-0.072
						c-3.011-1.025-6.746-1.604-10.609-1.604c-10.228,0-17.097,3.684-17.097,7.124c0,1.319,1.012,2.67,2.867,3.844
						c0.424-0.342,0.864-0.675,1.315-1.006C120.534,81.532,120.622,81.47,120.712,81.425z"/>
				</g>
				<g>
					<path fill="#F6E9CF" d="M150.398,76.1c0.657,0.836,1.029,1.732,1.029,2.67c0,3.43-4.778,6.355-11.513,7.528
						C141.275,81.974,145.142,78.315,150.398,76.1z"/>
					<path fill="#EED190" d="M139.195,86.931c-0.223-0.252-0.295-0.602-0.195-0.922c1.417-4.504,5.437-8.437,11.026-10.793
						c0.402-0.169,0.861-0.048,1.129,0.291c0.819,1.043,1.233,2.142,1.233,3.263c0,3.844-4.833,7.17-12.309,8.473
						c-0.054,0.011-0.11,0.015-0.165,0.015C139.643,87.258,139.378,87.141,139.195,86.931z M141.468,85.003
						c5.379-1.256,9-3.718,9-6.234c0-0.483-0.139-0.976-0.415-1.469C146.03,79.151,142.998,81.881,141.468,85.003z"/>
				</g>
				<g>
					<path fill="#F6E9CF" d="M149.038,74.761c0.544,0.424,0.997,0.87,1.36,1.339c-5.257,2.215-9.123,5.875-10.483,10.198
						c-1.729,0.3-3.587,0.485-5.526,0.533C135.866,81.225,141.536,76.65,149.038,74.761z"/>
					<path fill="#EED190" d="M133.632,87.426c-0.186-0.237-0.249-0.549-0.174-0.84c1.552-5.874,7.43-10.761,15.347-12.755
						c0.285-0.072,0.591-0.008,0.825,0.174c0.604,0.473,1.117,0.979,1.528,1.507c0.183,0.236,0.246,0.542,0.168,0.832
						c-0.075,0.288-0.279,0.525-0.553,0.642c-5.07,2.136-8.693,5.636-9.942,9.602c-0.108,0.342-0.396,0.596-0.751,0.656
						c-1.807,0.314-3.716,0.497-5.667,0.548c-0.01,0-0.019,0-0.024,0C134.095,87.791,133.818,87.656,133.632,87.426z
						 M148.585,75.874c-6.304,1.758-11.071,5.465-12.852,9.938c1.18-0.071,2.339-0.194,3.459-0.369
						C140.615,81.57,143.971,78.16,148.585,75.874z"/>
				</g>
				<g>
					<path fill="#F6E9CF" d="M134.995,75.819c-5.344,2.08-9.333,5.635-10.924,9.868c-1.489-0.401-2.837-0.896-4.005-1.47
						c0.345-0.701,0.708-1.357,1.062-1.908C124.947,79.523,129.741,77.261,134.995,75.819z"/>
					<path fill="#EED190" d="M123.821,86.614c-1.543-0.416-2.95-0.934-4.179-1.536c-0.474-0.234-0.672-0.807-0.438-1.283
						c0.356-0.727,0.741-1.418,1.116-2.004c0.063-0.101,0.145-0.188,0.24-0.258c3.954-2.882,8.856-5.179,14.182-6.641
						c0.495-0.135,1.003,0.14,1.165,0.625s-0.088,1.01-0.562,1.196c-5.119,1.99-8.901,5.385-10.378,9.311
						c-0.142,0.383-0.505,0.623-0.897,0.623C123.99,86.647,123.906,86.636,123.821,86.614z M121.841,82.977
						c-0.153,0.245-0.304,0.507-0.457,0.785c0.661,0.28,1.372,0.536,2.129,0.765c0.727-1.594,1.78-3.096,3.106-4.456
						C124.908,80.948,123.306,81.92,121.841,82.977z"/>
				</g>
				<g>
					<path fill="#F6E9CF" d="M129.105,86.617c-1.799-0.195-3.488-0.515-5.034-0.93c1.591-4.233,5.58-7.788,10.924-9.868
						c2.678-0.736,5.464-1.271,8.31-1.542c1.621-0.158,3.119-0.271,4.512-0.345c0.049,0.027,0.094,0.057,0.142,0.083
						C138.495,75.02,130.964,80.097,129.105,86.617z"/>
					<path fill="#EED190" d="M129.003,87.57c-1.807-0.195-3.551-0.516-5.182-0.956c-0.261-0.07-0.479-0.249-0.606-0.489
						c-0.119-0.24-0.138-0.522-0.042-0.776c1.667-4.436,5.852-8.236,11.57-10.456c2.831-0.777,5.68-1.306,8.472-1.57
						c1.633-0.159,3.146-0.273,4.548-0.35c0.171-0.003,0.507,0.116,0.663,0.206c0.366,0.203,0.556,0.62,0.475,1.03
						c-0.084,0.41-0.426,0.718-0.841,0.761c-9.029,0.959-16.273,5.744-18.029,11.91c-0.12,0.416-0.499,0.697-0.925,0.697
						C129.072,87.576,129.036,87.575,129.003,87.57z M135.347,76.713c-4.681,1.821-8.244,4.813-9.949,8.314
						c0.979,0.224,1.993,0.405,3.035,0.542c1.348-3.781,4.488-7.044,8.724-9.314C136.55,76.396,135.943,76.55,135.347,76.713z"/>
				</g>
				<g>
					<path fill="#F6E9CF" d="M147.958,74.015c0.387,0.24,0.75,0.488,1.08,0.746c-7.502,1.89-13.172,6.464-14.649,12.069
						c-0.339,0.007-0.672,0.022-1.015,0.022c-1.471,0-2.896-0.09-4.269-0.236C130.964,80.097,138.495,75.02,147.958,74.015z"/>
					<path fill="#EED190" d="M129.006,87.57c-0.285-0.03-0.537-0.181-0.693-0.416c-0.162-0.236-0.207-0.528-0.129-0.8
						c1.967-6.91,9.874-12.252,19.672-13.292c0.21-0.022,0.427,0.027,0.606,0.136c0.421,0.26,0.813,0.529,1.171,0.808
						c0.288,0.225,0.42,0.596,0.346,0.955c-0.075,0.359-0.349,0.643-0.706,0.731c-7.234,1.824-12.584,6.186-13.956,11.384
						c-0.111,0.414-0.478,0.706-0.909,0.716l-0.328,0.008c-0.233,0.007-0.468,0.013-0.705,0.013
						C131.957,87.812,130.528,87.733,129.006,87.57z M143.14,75.912c-6.163,1.741-10.928,5.372-12.731,9.862
						c1.116,0.087,2.213,0.144,3.254,0.115C134.992,81.818,138.417,78.271,143.14,75.912z"/>
				</g>
				<g>
					<path fill="#F6E9CF" d="M120.066,84.217c-0.285-0.138-0.567-0.281-0.832-0.431c0.595-0.51,1.237-0.998,1.895-1.477
						C120.774,82.86,120.411,83.516,120.066,84.217z"/>
					<path fill="#EED190" d="M120.066,85.176c0.354,0,0.696-0.196,0.861-0.537c0.327-0.667,0.676-1.29,1.009-1.813
						c0.249-0.389,0.187-0.899-0.15-1.216c-0.336-0.316-0.85-0.347-1.225-0.076c-0.679,0.495-1.336,0.998-1.951,1.523
						c-0.237,0.203-0.36,0.51-0.33,0.821c0.03,0.311,0.207,0.588,0.48,0.743c0.282,0.159,0.582,0.312,0.889,0.461
						C119.784,85.146,119.925,85.176,120.066,85.176z"/>
				</g>
			</g>
			<g opacity="0.1">
				<ellipse fill="#5D4030" cx="133.374" cy="78.77" rx="18.054" ry="8.083"/>
				<path fill="#5D4030" d="M114.359,78.77c0-5.072,8.352-9.043,19.015-9.043s19.015,3.972,19.015,9.043
					c0,5.07-8.352,9.042-19.015,9.042S114.359,83.84,114.359,78.77z M116.277,78.77c0,3.439,6.869,7.124,17.097,7.124
					c10.225,0,17.094-3.685,17.094-7.124c0-3.44-6.869-7.124-17.094-7.124C123.146,71.646,116.277,75.33,116.277,78.77z"/>
			</g>
		</g>
	</g>
</g>
</svg>
