<?xml version="1.0" encoding="utf-8"?>
<!-- Generator: Adobe Illustrator 16.0.0, SVG Export Plug-In . SVG Version: 6.00 Build 0)  -->
<!DOCTYPE svg PUBLIC "-//W3C//DTD SVG 1.1//EN" "http://www.w3.org/Graphics/SVG/1.1/DTD/svg11.dtd">
<svg version="1.1" id="Layer_1" xmlns="http://www.w3.org/2000/svg" xmlns:xlink="http://www.w3.org/1999/xlink" x="0px" y="0px"
	 width="180px" height="220px" viewBox="0 0 180 220" enable-background="new 0 0 180 220" xml:space="preserve">
<g>
	<g opacity="0.1">
		<path fill="#231F20" d="M133.4,72.183c-14.877,0-26.85,4.853-29.222,11.411c-2.372-6.558-14.336-11.411-29.222-11.411
			c-16.639,0-29.672,6.062-29.672,13.795v15.674c-16.17,0.233-28.705,6.192-28.705,13.771v29.487h0.23
			c1.683,6.999,14.034,12.172,29.448,12.172c14.916,0,26.931-4.85,29.218-11.507c2.285,6.657,14.306,11.507,29.219,11.507
			c15.411,0,27.762-5.173,29.442-12.172h0.16l0.078-1.623v-15.674c14.949-0.212,26.819-5.301,28.466-12.148h0.157l0.073-1.626
			V85.978C163.072,78.245,150.038,72.183,133.4,72.183z"/>
	</g>
	<g>
		<g>
			<g>
				<path fill="#372F16" d="M75.238,64.885c15.768,0,28.554,5.714,28.554,12.755v27.72v0.65h-0.073
					c-0.752,6.741-13.199,12.108-28.481,12.108c-15.291,0-27.735-5.367-28.484-12.108h-0.079V77.64
					C46.675,70.599,59.464,64.885,75.238,64.885z"/>
				<path fill="#372F16" d="M75.238,119.665c-15.275,0-27.589-5.115-29.735-12.108h-0.296l-0.079-1.547V77.64
					c0-8.02,13.227-14.302,30.11-14.302c16.88,0,30.101,6.282,30.101,14.302v29.917h-0.369
					C102.821,114.55,90.508,119.665,75.238,119.665z M48.223,105.426l0.069,0.411c0.574,5.162,11.039,10.734,26.946,10.734
					c15.901,0,26.369-5.572,26.943-10.734l0.063-0.565V77.64c0-5.412-10.852-11.208-27.006-11.208
					c-16.161,0-27.015,5.796-27.015,11.208V105.426z"/>
			</g>
			<g>
				<path fill="#F0F4F7" d="M46.675,77.64c0,7.047,12.789,12.755,28.562,12.755c15.768,0,28.554-5.708,28.554-12.755
					c0-7.041-12.786-12.755-28.554-12.755C59.464,64.885,46.675,70.599,46.675,77.64z"/>
				<path fill="#372F16" d="M75.238,91.943c-16.883,0-30.11-6.283-30.11-14.303s13.227-14.302,30.11-14.302
					c16.88,0,30.101,6.282,30.101,14.302S92.118,91.943,75.238,91.943z M75.238,66.432c-16.161,0-27.015,5.796-27.015,11.208
					s10.854,11.208,27.015,11.208c16.155,0,27.006-5.796,27.006-11.208S91.393,66.432,75.238,66.432z"/>
			</g>
			<g>
				<g enable-background="new    ">
					<g>
						<g>
							<path fill="#A7D05F" d="M76.29,71.992c0.151-0.19,0.623-0.447,1.251-0.58c0.32-0.063,0.686-0.097,1.058-0.079
								c1.088,0.073,2.88,0.381,2.992,0.402c0.069,0.012,1.834,0.36,2.738,0.668c0.357,0.115,0.589,0.26,0.737,0.408
								c0.275,0.296,0.233,0.607,0.073,0.801c-0.109,0.148-2.104,1.807-5.27,2.82c-0.139,0.048-0.272,0.078-0.405,0.108
								c-0.547,0.112-1.167,0.124-1.765,0.012c-0.586-0.109-1.037-0.32-1.278-0.583c-0.057-0.063-0.103-0.127-0.136-0.19
								C75.338,73.993,76.184,72.141,76.29,71.992z M78.248,75.891c0.127,0.024,0.338,0.045,0.574-0.009l0.164-0.045
								c2.955-0.942,4.635-2.399,4.729-2.478c-0.012-0.006,0.154-0.236-0.251-0.381c-0.628-0.208-1.979-0.49-2.405-0.574
								c-0.483-0.082-1.874-0.308-2.632-0.354l-0.332,0.018c-0.203,0.042-0.335,0.139-0.356,0.166
								c-0.154,0.236-0.771,1.88,0.027,3.388C77.849,75.791,78.094,75.857,78.248,75.891"/>
						</g>
					</g>
					<g>
						<g>
							<path fill="#E1ECB9" d="M78.771,78.607c-0.018-0.024-0.039-0.045-0.058-0.063c-0.048-0.058-0.103-0.118-0.154-0.182
								c-0.033-0.033-0.061-0.069-0.097-0.1c-0.037-0.048-0.082-0.097-0.124-0.145c-0.042-0.042-0.091-0.091-0.13-0.139
								c-0.03-0.033-0.066-0.069-0.1-0.105c-0.076-0.082-0.157-0.169-0.239-0.248c-0.088-0.094-0.185-0.19-0.278-0.278
								c-0.033-0.037-0.066-0.066-0.1-0.1c-0.057-0.06-0.121-0.121-0.181-0.178c-0.048-0.042-0.088-0.082-0.133-0.126
								c-0.054-0.049-0.105-0.094-0.157-0.146c-0.055-0.048-0.109-0.1-0.16-0.148c-0.042-0.042-0.085-0.084-0.136-0.124
								c-0.057-0.048-0.115-0.103-0.169-0.151c-0.042-0.039-0.088-0.076-0.133-0.115c-0.06-0.051-0.124-0.106-0.181-0.157
								c-0.048-0.033-0.088-0.076-0.133-0.109c-0.058-0.054-0.124-0.112-0.19-0.163c-0.04-0.033-0.076-0.066-0.121-0.097
								c-0.066-0.058-0.139-0.115-0.211-0.175c-0.03-0.024-0.066-0.051-0.103-0.082c-0.07-0.058-0.148-0.118-0.221-0.175
								c-0.033-0.024-0.066-0.051-0.1-0.079c-0.088-0.063-0.164-0.121-0.242-0.181c-0.03-0.024-0.058-0.042-0.085-0.067
								c-0.084-0.063-0.172-0.126-0.26-0.19c-0.024-0.018-0.051-0.037-0.072-0.058c-0.091-0.063-0.185-0.13-0.272-0.196
								c-0.021-0.012-0.039-0.027-0.063-0.037c-0.093-0.072-0.19-0.139-0.284-0.208c-0.018-0.009-0.04-0.021-0.055-0.034
								c-0.652-0.45-1.333-0.885-2.037-1.302c-0.036-0.021-0.072-0.039-0.112-0.063c-0.076-0.042-0.148-0.084-0.227-0.127
								c-0.051-0.036-0.115-0.069-0.169-0.1c-0.057-0.033-0.115-0.066-0.178-0.103c-0.082-0.042-0.154-0.088-0.242-0.133
								c-0.039-0.021-0.082-0.045-0.124-0.069c-0.094-0.051-0.187-0.103-0.284-0.151c-0.037-0.021-0.076-0.039-0.109-0.06
								c-0.112-0.058-0.211-0.112-0.32-0.167c-0.024-0.015-0.048-0.027-0.066-0.039c-0.13-0.063-0.248-0.121-0.405-0.203
								c-1.009-0.504-2.055-0.973-3.133-1.402c0.474-0.127,0.924-0.233,1.381-0.333c8.863-1.85,19.41,0.075,23.507,4.285
								c4.098,4.206,0.229,9.144-8.64,10.993c-0.208,0.042-0.426,0.082-0.644,0.127c-0.003-0.082-0.012-0.163-0.021-0.248
								c-0.248-2.061-1.287-4.209-3.061-6.343C78.885,78.746,78.828,78.677,78.771,78.607z M79.179,78.797
								c0.066,0.061,0.139,0.121,0.227,0.175c2.233,1.493,5.787,2.445,6.131,2.502c0.38,0.066,1.058,0.103,1.692-0.03
								c0.348-0.076,0.65-0.193,0.874-0.348c0.61-0.414,1.299-1.248,1.321-1.281c0.045-0.048,0.652-0.892,0.761-1.402
								c0.04-0.205-0.039-0.384-0.193-0.535c-0.293-0.29-0.828-0.48-1.254-0.556c-0.314-0.057-4.312-0.462-8.047-0.03
								c-0.157,0.015-0.302,0.037-0.438,0.063c-0.556,0.118-0.982,0.335-1.175,0.595C78.852,78.227,78.9,78.532,79.179,78.797
								 M77.698,76.552c0.598,0.112,1.218,0.1,1.765-0.012c0.133-0.03,0.266-0.06,0.405-0.108c3.167-1.013,5.161-2.671,5.27-2.82
								c0.16-0.193,0.202-0.504-0.073-0.801c-0.148-0.148-0.38-0.293-0.737-0.408c-0.903-0.308-2.668-0.656-2.738-0.668
								c-0.112-0.021-1.904-0.329-2.992-0.402c-0.372-0.018-0.737,0.015-1.058,0.079c-0.628,0.133-1.1,0.39-1.251,0.58
								c-0.106,0.148-0.952,2-0.006,3.787c0.033,0.063,0.079,0.127,0.136,0.19C76.661,76.232,77.111,76.443,77.698,76.552"/>
						</g>
					</g>
					<g>
						<g>
							<path fill="#7EAF4E" d="M70.349,72.144c-0.106-0.058-0.211-0.112-0.32-0.167C70.137,72.032,70.237,72.086,70.349,72.144z"/>
						</g>
					</g>
					<g>
						<g>
							<path fill="#A7D05F" d="M79.151,74.05c-0.169,0.033-0.317,0.109-0.393,0.202l-0.776,1c-0.151,0.175,0.057,0.393,0.447,0.456
								c0.199,0.04,0.405,0.037,0.583-0.003c0.172-0.036,0.317-0.105,0.387-0.199l0.789-1c0.148-0.19-0.055-0.393-0.447-0.462
								C79.541,74.011,79.33,74.014,79.151,74.05z"/>
						</g>
					</g>
					<g>
						<g>
							<path fill="#FFFFFF" d="M77.737,72.234c0.021-0.027,0.154-0.124,0.356-0.166l0.332-0.018
								c0.759,0.045,2.149,0.272,2.632,0.354c0.426,0.084,1.777,0.366,2.405,0.574c0.405,0.145,0.239,0.375,0.251,0.381
								c-0.094,0.078-1.774,1.535-4.729,2.478l-0.164,0.045c-0.236,0.055-0.447,0.033-0.574,0.009
								c-0.154-0.033-0.399-0.1-0.483-0.269C76.966,74.114,77.583,72.47,77.737,72.234z M78.429,75.709
								c0.199,0.04,0.405,0.037,0.583-0.003c0.172-0.036,0.317-0.105,0.387-0.199l0.789-1c0.148-0.19-0.055-0.393-0.447-0.462
								c-0.2-0.033-0.411-0.03-0.589,0.006c-0.169,0.033-0.317,0.109-0.393,0.202l-0.776,1
								C77.831,75.428,78.039,75.646,78.429,75.709"/>
						</g>
					</g>
					<g>
						<g>
							<path fill="#EED08F" d="M68.659,80.42c0.042,0.057,0.088,0.109,0.121,0.163C68.744,80.529,68.702,80.478,68.659,80.42z"/>
						</g>
					</g>
					<g>
						<g>
							<path fill="#FFFFFF" d="M80.913,78.012c0.045-0.009,0.097-0.018,0.154-0.024c3.173-0.366,6.669-0.063,7.18,0.006
								c-0.012,0,0.468,0.109,0.423,0.335c-0.069,0.36-0.51,1.012-0.677,1.23c-0.172,0.203-0.728,0.834-1.154,1.13
								c-0.069,0.045-0.16,0.075-0.257,0.097c-0.211,0.045-0.456,0.036-0.535,0.018c-0.457-0.106-3.521-0.979-5.413-2.246
								c-0.235-0.148-0.184-0.281-0.145-0.344C80.535,78.166,80.65,78.069,80.913,78.012z M81.366,78.728l2.134,0.393
								c0.199,0.033,0.411,0.03,0.583-0.006c0.178-0.033,0.326-0.105,0.396-0.199c0.151-0.188-0.048-0.396-0.451-0.468l-2.146-0.39
								c-0.196-0.033-0.408-0.027-0.58,0.012c-0.178,0.039-0.317,0.103-0.39,0.193C80.768,78.447,80.971,78.652,81.366,78.728"/>
						</g>
					</g>
					<g>
						<g>
							<path fill="#A7D05F" d="M80.251,77.356c0.136-0.027,0.281-0.048,0.438-0.063c3.735-0.432,7.733-0.027,8.047,0.03
								c0.426,0.076,0.961,0.266,1.254,0.556c0.154,0.151,0.233,0.33,0.193,0.535c-0.109,0.511-0.716,1.354-0.761,1.402
								c-0.021,0.033-0.71,0.867-1.321,1.281c-0.224,0.154-0.526,0.272-0.874,0.348c-0.634,0.133-1.312,0.097-1.692,0.03
								c-0.345-0.058-3.898-1.009-6.131-2.502c-0.088-0.054-0.16-0.115-0.227-0.175c-0.278-0.266-0.327-0.571-0.103-0.846
								C79.269,77.691,79.695,77.474,80.251,77.356z M80.635,78.559c1.892,1.267,4.956,2.14,5.413,2.246
								c0.079,0.018,0.323,0.027,0.535-0.018c0.097-0.021,0.188-0.052,0.257-0.097c0.426-0.296,0.982-0.928,1.154-1.13
								c0.167-0.218,0.607-0.87,0.677-1.23c0.045-0.227-0.435-0.335-0.423-0.335c-0.511-0.069-4.007-0.372-7.18-0.006
								c-0.058,0.006-0.109,0.015-0.154,0.024c-0.263,0.058-0.378,0.154-0.423,0.203C80.451,78.278,80.399,78.411,80.635,78.559"/>
						</g>
					</g>
					<g>
						<g>
							<path fill="#F8A366" d="M57.868,75.854c-0.75,1.734-0.314,3.502,1.281,5.146c1.78,1.825,4.841,3.279,8.673,4.149
								c0.81-1.731,0.402-3.56-1.182-5.179C64.867,78.145,61.77,76.697,57.868,75.854z"/>
						</g>
					</g>
					<g>
						<g>
							<path fill="#F5E8CE" d="M65.075,70.732c-3.309,1.061-5.699,2.617-6.832,4.421c3.363,0.701,6.18,1.807,8.195,3.203
								c0.087,0.061,0.169,0.118,0.248,0.175c0.084,0.063,0.16,0.121,0.233,0.172c0.097,0.075,0.16,0.127,0.227,0.181
								c0.097,0.076,0.154,0.127,0.208,0.172c0.021,0.018,0.042,0.03,0.057,0.045c0.052,0.049,0.106,0.097,0.163,0.142
								c0.016,0.018,0.034,0.033,0.049,0.048c0.054,0.048,0.105,0.1,0.157,0.151c0.021,0.012,0.037,0.027,0.052,0.042
								c0.06,0.063,0.126,0.127,0.193,0.197c0.057,0.057,0.112,0.115,0.169,0.172c0.012,0.018,0.018,0.03,0.033,0.039
								c0.04,0.048,0.085,0.094,0.121,0.139c0.012,0.012,0.018,0.027,0.033,0.039c0.039,0.048,0.079,0.094,0.115,0.142
								c0.069,0.079,0.115,0.133,0.148,0.185c0.058,0.078,0.1,0.13,0.136,0.184c1.109,1.574,1.275,3.249,0.471,4.85
								c3.657,0.65,7.622,0.725,11.278,0.214c-0.148-2.508-1.547-5.179-4.04-7.736C73.676,75.02,69.632,72.482,65.075,70.732z"/>
						</g>
					</g>
					<g>
						<g>
							<path fill="#F5905F" d="M57.016,75.023c0.184-0.037,0.396-0.03,0.58,0c3.645,0.692,6.693,1.852,8.842,3.333
								c0.087,0.061,0.169,0.118,0.263,0.188c0.069,0.051,0.145,0.108,0.245,0.184c0.07,0.051,0.133,0.103,0.2,0.157
								c0.009,0.009,0.024,0.015,0.039,0.03c0.058,0.045,0.115,0.097,0.169,0.142c0.021,0.018,0.042,0.03,0.057,0.045
								c0.052,0.049,0.106,0.097,0.163,0.142c0.016,0.018,0.034,0.033,0.049,0.048c0.054,0.048,0.105,0.1,0.157,0.151
								c0.021,0.012,0.037,0.027,0.052,0.042c0.06,0.063,0.126,0.127,0.193,0.197c0.057,0.057,0.112,0.115,0.169,0.172
								c0.012,0.018,0.018,0.03,0.033,0.039c0.04,0.048,0.085,0.094,0.121,0.139c0.012,0.012,0.018,0.027,0.033,0.039
								c0.039,0.048,0.079,0.094,0.115,0.142c0.015,0.009,0.018,0.018,0.027,0.03c0.042,0.048,0.087,0.103,0.136,0.175
								c0.042,0.057,0.088,0.109,0.133,0.175c1.163,1.662,1.275,3.457,0.29,5.146c-0.058,0.097-0.197,0.185-0.411,0.23
								c-0.157,0.033-0.335,0.042-0.508,0.018c-0.033,0-0.063-0.006-0.097-0.012c-4.587-0.913-8.237-2.578-10.292-4.687
								c-1.843-1.889-2.26-4.031-1.188-6.025C56.647,75.168,56.786,75.081,57.016,75.023z M67.822,85.149
								c0.81-1.731,0.402-3.56-1.182-5.179c-1.774-1.825-4.871-3.273-8.772-4.116c-0.75,1.734-0.314,3.502,1.281,5.146
								C60.929,82.826,63.991,84.279,67.822,85.149"/>
						</g>
					</g>
					<g>
						<g>
							<path fill="#EED08F" d="M64.688,69.986c-4.037,1.215-6.911,3.085-8.102,5.279c0.061-0.097,0.199-0.185,0.39-0.233
								c0.224-0.045,0.436-0.039,0.62-0.009c3.294,0.625,6.11,1.635,8.208,2.922c-1.958-1.203-4.539-2.161-7.561-2.792
								c1.133-1.804,3.523-3.363,6.832-4.421c4.557,1.75,8.601,4.288,11.414,7.18c2.493,2.557,3.892,5.228,4.04,7.736
								c-3.656,0.511-7.621,0.436-11.278-0.214c0.804-1.602,0.638-3.276-0.459-4.838c1.163,1.662,1.275,3.457,0.29,5.146
								c-0.058,0.097-0.197,0.185-0.384,0.227c-0.185,0.037-0.363,0.045-0.535,0.021c4.303,0.846,9.06,0.934,13.39,0.26
								c0.335-0.069,0.511-0.196,0.508-0.341c-0.006-0.245-0.021-0.496-0.055-0.75c-0.248-2.061-1.287-4.209-3.037-6.316
								c-0.084-0.097-0.142-0.166-0.199-0.235c-0.018-0.024-0.039-0.045-0.058-0.063c-0.048-0.058-0.103-0.118-0.154-0.182
								c-0.033-0.033-0.061-0.069-0.097-0.1c-0.037-0.048-0.082-0.097-0.124-0.145c-0.042-0.042-0.091-0.091-0.13-0.139
								c-0.03-0.033-0.066-0.069-0.1-0.105c-0.076-0.082-0.157-0.169-0.239-0.248c-0.088-0.094-0.185-0.19-0.278-0.278
								c-0.033-0.037-0.066-0.066-0.1-0.1c-0.057-0.06-0.121-0.121-0.181-0.178c-0.048-0.042-0.088-0.082-0.133-0.126
								c-0.054-0.049-0.105-0.094-0.157-0.146c-0.055-0.048-0.109-0.1-0.16-0.148c-0.042-0.042-0.085-0.084-0.136-0.124
								c-0.057-0.048-0.115-0.103-0.169-0.151c-0.042-0.039-0.088-0.076-0.133-0.115c-0.06-0.051-0.124-0.106-0.181-0.157
								c-0.048-0.033-0.088-0.076-0.133-0.109c-0.058-0.054-0.124-0.112-0.19-0.163c-0.04-0.033-0.076-0.066-0.121-0.097
								c-0.066-0.058-0.139-0.115-0.211-0.175c-0.03-0.024-0.066-0.051-0.103-0.082c-0.07-0.058-0.148-0.118-0.221-0.175
								c-0.033-0.024-0.073-0.054-0.1-0.079c-0.088-0.063-0.164-0.121-0.242-0.181c-0.03-0.024-0.058-0.045-0.085-0.067
								c-0.084-0.063-0.172-0.126-0.26-0.19c-0.024-0.018-0.051-0.037-0.072-0.058c-0.091-0.063-0.185-0.13-0.272-0.196
								c-0.021-0.012-0.039-0.027-0.063-0.037c-0.093-0.072-0.19-0.139-0.284-0.208c-0.018-0.009-0.04-0.027-0.055-0.034
								c-0.652-0.45-1.333-0.885-2.037-1.302c-0.036-0.021-0.072-0.039-0.112-0.063c-0.076-0.042-0.148-0.084-0.227-0.127
								c-0.051-0.036-0.115-0.069-0.169-0.1c-0.057-0.033-0.115-0.066-0.178-0.103c-0.082-0.042-0.154-0.088-0.242-0.133
								c-0.039-0.021-0.082-0.045-0.124-0.069c-0.094-0.051-0.187-0.103-0.284-0.151c-0.037-0.021-0.076-0.039-0.109-0.06
								c-0.106-0.058-0.211-0.112-0.32-0.167c-0.024-0.015-0.048-0.027-0.066-0.039c-0.13-0.063-0.248-0.121-0.366-0.185
								c-1.314-0.653-2.65-1.233-4.028-1.747c-0.229-0.084-0.532-0.097-0.789-0.045C64.749,69.971,64.722,69.977,64.688,69.986z"/>
						</g>
					</g>
					<g>
						<g>
							<path fill="#7EAF4E" d="M67.164,69.348c-0.792,0.163-1.578,0.372-2.475,0.638c0.033-0.009,0.061-0.015,0.091-0.024
								c0.257-0.051,0.559-0.039,0.789,0.045c1.197,0.447,2.366,0.94,3.484,1.481c-0.852-0.411-1.729-0.798-2.629-1.154
								c0.474-0.127,0.924-0.233,1.381-0.333c8.863-1.85,19.41,0.075,23.507,4.285c4.098,4.206,0.229,9.144-8.64,10.993
								c-0.208,0.042-0.426,0.082-0.644,0.127c-0.003-0.082-0.012-0.163-0.021-0.248c0.033,0.254,0.048,0.504,0.055,0.75
								c0.003,0.145-0.172,0.272-0.436,0.329c0.523-0.082,1.1-0.184,1.687-0.305c9.621-2.006,13.834-7.361,9.38-11.933
								C88.244,69.424,76.785,67.342,67.164,69.348z"/>
						</g>
					</g>
				</g>
				<g>
					<g>
						<path fill="#A7D05F" d="M81.303,78.069c-0.178,0.039-0.317,0.103-0.39,0.193c-0.145,0.185,0.058,0.39,0.453,0.465l2.134,0.393
							c0.199,0.033,0.411,0.03,0.583-0.006c0.178-0.033,0.326-0.105,0.396-0.199c0.151-0.188-0.048-0.396-0.451-0.468l-2.146-0.39
							C81.687,78.024,81.475,78.03,81.303,78.069z"/>
					</g>
				</g>
			</g>
		</g>
		<g>
			<g>
				<path fill="#372F16" d="M46.675,94.185c15.774,0,28.562,5.708,28.562,12.755v27.72v0.646h-0.075
					c-0.756,6.745-13.2,12.108-28.487,12.108c-15.285,0-27.729-5.363-28.484-12.108h-0.072V106.94
					C18.119,99.893,30.907,94.185,46.675,94.185z"/>
				<path fill="#372F16" d="M46.675,148.963c-15.27,0-27.587-5.116-29.735-12.109h-0.296l-0.072-1.547V106.94
					c0-8.02,13.224-14.303,30.104-14.303c16.883,0,30.11,6.283,30.11,14.303v29.913h-0.372
					C74.265,143.847,61.948,148.963,46.675,148.963z M19.666,134.754l0.063,0.381c0.577,5.161,11.045,10.733,26.946,10.733
					c15.904,0,26.372-5.572,26.949-10.733l0.067-0.59V106.94c0-5.412-10.855-11.208-27.016-11.208
					c-16.155,0-27.01,5.796-27.01,11.208V134.754z"/>
			</g>
			<g>
				<path fill="#F0F4F7" d="M18.119,106.94c0,7.044,12.789,12.755,28.557,12.755c15.774,0,28.562-5.711,28.562-12.755
					c0-7.047-12.789-12.755-28.562-12.755C30.907,94.185,18.119,99.893,18.119,106.94z"/>
				<path fill="#372F16" d="M46.675,121.243c-16.88,0-30.104-6.283-30.104-14.303c0-8.02,13.224-14.303,30.104-14.303
					c16.883,0,30.11,6.283,30.11,14.303C76.785,114.96,63.559,121.243,46.675,121.243z M46.675,95.732
					c-16.155,0-27.01,5.796-27.01,11.208s10.855,11.208,27.01,11.208c16.161,0,27.016-5.796,27.016-11.208
					S62.836,95.732,46.675,95.732z"/>
			</g>
			<g>
				<g enable-background="new    ">
					<g>
						<g>
							<path fill="#A7D05F" d="M47.733,101.29c0.148-0.19,0.623-0.444,1.245-0.577c0.326-0.063,0.686-0.097,1.063-0.082
								c1.088,0.075,2.88,0.384,2.992,0.402c0.073,0.015,1.834,0.362,2.741,0.665c0.348,0.121,0.586,0.263,0.731,0.414
								c0.281,0.293,0.233,0.607,0.079,0.801c-0.115,0.148-2.106,1.807-5.273,2.819c-0.139,0.045-0.272,0.079-0.405,0.106
								c-0.547,0.115-1.169,0.124-1.768,0.015c-0.583-0.109-1.034-0.32-1.278-0.586c-0.061-0.061-0.103-0.124-0.136-0.19
								C46.775,103.29,47.624,101.44,47.733,101.29z M49.691,105.19c0.124,0.024,0.335,0.042,0.574-0.009l0.163-0.048
								c2.956-0.943,4.636-2.396,4.727-2.475c-0.009-0.006,0.154-0.242-0.254-0.384c-0.625-0.208-1.974-0.486-2.402-0.574
								c-0.48-0.082-1.871-0.305-2.632-0.354l-0.329,0.018c-0.203,0.042-0.339,0.142-0.36,0.169
								c-0.154,0.236-0.771,1.879,0.027,3.388C49.292,105.091,49.537,105.157,49.691,105.19"/>
						</g>
					</g>
					<g>
						<g>
							<path fill="#E1ECB9" d="M50.208,107.904c-0.016-0.021-0.034-0.045-0.052-0.063c-0.048-0.058-0.103-0.118-0.154-0.178
								c-0.033-0.033-0.067-0.07-0.1-0.103c-0.036-0.048-0.078-0.094-0.124-0.142c-0.042-0.049-0.088-0.091-0.13-0.139
								c-0.034-0.04-0.063-0.073-0.097-0.109c-0.081-0.079-0.163-0.166-0.238-0.248c-0.091-0.093-0.188-0.187-0.278-0.278
								c-0.033-0.033-0.069-0.069-0.103-0.097c-0.058-0.063-0.121-0.121-0.182-0.181c-0.048-0.04-0.087-0.082-0.133-0.127
								c-0.051-0.048-0.103-0.094-0.157-0.145c-0.054-0.048-0.105-0.097-0.16-0.148c-0.045-0.042-0.087-0.082-0.133-0.121
								c-0.058-0.054-0.115-0.103-0.172-0.151c-0.045-0.042-0.087-0.079-0.133-0.115c-0.063-0.054-0.121-0.108-0.181-0.16
								c-0.045-0.036-0.085-0.072-0.127-0.105c-0.061-0.058-0.127-0.112-0.193-0.163c-0.04-0.037-0.079-0.067-0.121-0.1
								c-0.069-0.057-0.139-0.115-0.208-0.172c-0.039-0.03-0.073-0.052-0.106-0.085c-0.075-0.054-0.151-0.115-0.224-0.175
								c-0.03-0.024-0.066-0.048-0.1-0.075c-0.084-0.063-0.163-0.121-0.242-0.185c-0.03-0.024-0.057-0.042-0.084-0.063
								c-0.084-0.063-0.172-0.127-0.254-0.19c-0.027-0.018-0.058-0.036-0.076-0.06c-0.093-0.067-0.184-0.13-0.272-0.197
								c-0.024-0.009-0.039-0.024-0.063-0.036c-0.097-0.069-0.19-0.136-0.29-0.206c-0.015-0.012-0.036-0.024-0.051-0.033
								c-0.65-0.453-1.333-0.885-2.037-1.302c-0.036-0.024-0.076-0.042-0.109-0.063c-0.079-0.042-0.151-0.091-0.227-0.127
								c-0.055-0.04-0.115-0.07-0.169-0.106c-0.061-0.03-0.115-0.063-0.175-0.097c-0.082-0.045-0.163-0.091-0.248-0.133
								c-0.04-0.024-0.079-0.045-0.121-0.069c-0.097-0.052-0.193-0.106-0.29-0.157c-0.033-0.019-0.069-0.037-0.103-0.058
								c-0.109-0.054-0.215-0.109-0.32-0.163c-0.027-0.015-0.048-0.027-0.07-0.04c-0.124-0.063-0.248-0.124-0.402-0.202
								c-1.012-0.505-2.055-0.976-3.134-1.405c0.475-0.124,0.922-0.229,1.378-0.33c8.866-1.849,19.416,0.076,23.507,4.282
								c4.101,4.207,0.23,9.145-8.636,10.997c-0.212,0.042-0.432,0.078-0.644,0.126c-0.006-0.081-0.015-0.163-0.024-0.25
								c-0.245-2.062-1.281-4.213-3.061-6.343C50.326,108.037,50.271,107.974,50.208,107.904z M50.622,108.095
								c0.067,0.061,0.136,0.124,0.227,0.175c2.233,1.493,5.787,2.445,6.131,2.505c0.38,0.066,1.054,0.103,1.689-0.03
								c0.351-0.076,0.65-0.193,0.874-0.348c0.613-0.417,1.299-1.248,1.323-1.285c0.045-0.045,0.65-0.888,0.759-1.402
								c0.042-0.206-0.04-0.384-0.193-0.535c-0.29-0.287-0.828-0.48-1.257-0.553c-0.311-0.061-4.306-0.462-8.044-0.03
								c-0.154,0.012-0.299,0.036-0.438,0.063c-0.553,0.115-0.979,0.335-1.175,0.595C50.292,107.523,50.338,107.832,50.622,108.095
								 M49.138,105.853c0.598,0.108,1.221,0.1,1.768-0.015c0.133-0.027,0.266-0.061,0.405-0.106
								c3.167-1.012,5.159-2.671,5.273-2.819c0.154-0.193,0.202-0.508-0.079-0.801c-0.145-0.151-0.384-0.293-0.731-0.414
								c-0.906-0.302-2.668-0.649-2.741-0.665c-0.112-0.018-1.904-0.327-2.992-0.402c-0.377-0.016-0.737,0.018-1.063,0.082
								c-0.623,0.133-1.097,0.387-1.245,0.577c-0.109,0.151-0.958,2-0.009,3.786c0.033,0.066,0.076,0.13,0.136,0.19
								C48.104,105.532,48.555,105.744,49.138,105.853"/>
						</g>
					</g>
					<g>
						<g>
							<path fill="#7EAF4E" d="M41.792,101.44c-0.109-0.054-0.215-0.109-0.32-0.163C41.577,101.332,41.683,101.386,41.792,101.44z"
								/>
						</g>
					</g>
					<g>
						<g>
							<path fill="#A7D05F" d="M50.595,103.35c-0.175,0.034-0.32,0.109-0.396,0.203l-0.773,1c-0.154,0.176,0.051,0.393,0.447,0.457
								c0.194,0.036,0.402,0.033,0.583-0.003c0.172-0.04,0.317-0.109,0.384-0.2l0.792-1c0.146-0.19-0.054-0.393-0.447-0.462
								C50.984,103.308,50.773,103.314,50.595,103.35z"/>
						</g>
					</g>
					<g>
						<g>
							<path fill="#FFFFFF" d="M49.177,101.534c0.021-0.027,0.157-0.127,0.36-0.169l0.329-0.018
								c0.762,0.048,2.152,0.272,2.632,0.354c0.429,0.088,1.777,0.366,2.402,0.574c0.408,0.142,0.245,0.378,0.254,0.384
								c-0.091,0.079-1.771,1.532-4.727,2.475l-0.163,0.048c-0.239,0.051-0.45,0.033-0.574,0.009
								c-0.154-0.033-0.399-0.1-0.486-0.269C48.407,103.414,49.023,101.77,49.177,101.534z M49.872,105.009
								c0.194,0.036,0.402,0.033,0.583-0.003c0.172-0.04,0.317-0.109,0.384-0.2l0.792-1c0.146-0.19-0.054-0.393-0.447-0.462
								c-0.199-0.036-0.411-0.03-0.589,0.006c-0.175,0.034-0.32,0.109-0.396,0.203l-0.773,1
								C49.271,104.729,49.477,104.946,49.872,105.009"/>
						</g>
					</g>
					<g>
						<g>
							<path fill="#EED08F" d="M40.103,109.717c0.042,0.057,0.085,0.112,0.115,0.167C40.181,109.829,40.145,109.774,40.103,109.717z
								"/>
						</g>
					</g>
					<g>
						<g>
							<path fill="#FFFFFF" d="M52.356,107.309c0.045-0.009,0.09-0.015,0.151-0.021c3.173-0.366,6.669-0.063,7.183,0.006
								c-0.015,0,0.465,0.109,0.423,0.335c-0.075,0.356-0.514,1.009-0.677,1.227c-0.172,0.206-0.728,0.837-1.16,1.13
								c-0.063,0.049-0.154,0.078-0.254,0.1c-0.212,0.042-0.454,0.033-0.532,0.016c-0.456-0.104-3.517-0.977-5.412-2.243
								c-0.235-0.151-0.184-0.284-0.145-0.348C51.979,107.466,52.09,107.366,52.356,107.309z M52.81,108.028l2.13,0.393
								c0.2,0.033,0.411,0.027,0.583-0.006c0.181-0.036,0.329-0.109,0.398-0.203c0.148-0.184-0.051-0.393-0.453-0.465l-2.148-0.39
								c-0.19-0.036-0.402-0.03-0.577,0.009c-0.175,0.04-0.314,0.106-0.387,0.193C52.208,107.747,52.411,107.953,52.81,108.028"/>
						</g>
					</g>
					<g>
						<g>
							<path fill="#A7D05F" d="M51.691,106.656c0.139-0.027,0.284-0.051,0.438-0.063c3.738-0.432,7.733-0.03,8.044,0.03
								c0.429,0.072,0.967,0.266,1.257,0.553c0.154,0.151,0.235,0.33,0.193,0.535c-0.109,0.514-0.713,1.357-0.759,1.402
								c-0.024,0.037-0.71,0.868-1.323,1.285c-0.224,0.154-0.523,0.271-0.874,0.348c-0.635,0.133-1.309,0.097-1.689,0.03
								c-0.345-0.061-3.898-1.013-6.131-2.505c-0.091-0.051-0.16-0.115-0.227-0.175c-0.284-0.263-0.329-0.571-0.105-0.843
								C50.712,106.992,51.139,106.771,51.691,106.656z M52.078,107.859c1.895,1.266,4.956,2.139,5.412,2.243
								c0.079,0.018,0.32,0.026,0.532-0.016c0.1-0.021,0.19-0.051,0.254-0.1c0.432-0.293,0.988-0.925,1.16-1.13
								c0.163-0.217,0.602-0.87,0.677-1.227c0.042-0.227-0.438-0.335-0.423-0.335c-0.514-0.07-4.01-0.372-7.183-0.006
								c-0.061,0.006-0.105,0.012-0.151,0.021c-0.266,0.057-0.378,0.157-0.423,0.202C51.894,107.575,51.843,107.708,52.078,107.859"
								/>
						</g>
					</g>
					<g>
						<g>
							<path fill="#F8A366" d="M29.314,105.154c-0.752,1.734-0.32,3.502,1.275,5.146c1.78,1.819,4.841,3.278,8.679,4.146
								c0.807-1.731,0.402-3.557-1.185-5.179C36.31,107.442,33.213,105.998,29.314,105.154z"/>
						</g>
					</g>
					<g>
						<g>
							<path fill="#F5E8CE" d="M36.516,100.029c-3.306,1.058-5.696,2.62-6.83,4.421c3.364,0.704,6.18,1.807,8.192,3.206
								c0.084,0.058,0.169,0.115,0.251,0.175c0.084,0.063,0.154,0.121,0.229,0.172c0.097,0.076,0.163,0.127,0.227,0.178
								c0.097,0.079,0.154,0.127,0.215,0.175c0.015,0.015,0.033,0.027,0.054,0.045c0.051,0.045,0.1,0.094,0.157,0.142
								c0.021,0.015,0.036,0.03,0.058,0.048c0.051,0.045,0.1,0.1,0.151,0.151c0.018,0.012,0.036,0.024,0.054,0.04
								c0.063,0.063,0.13,0.127,0.193,0.196c0.058,0.054,0.109,0.118,0.164,0.175c0.012,0.015,0.024,0.024,0.039,0.039
								c0.036,0.045,0.082,0.094,0.118,0.139c0.016,0.012,0.021,0.024,0.034,0.037c0.039,0.051,0.079,0.097,0.121,0.142
								c0.063,0.082,0.106,0.133,0.142,0.188c0.061,0.075,0.097,0.13,0.133,0.185c1.112,1.571,1.278,3.245,0.475,4.844
								c3.66,0.656,7.618,0.729,11.284,0.221c-0.154-2.508-1.556-5.18-4.043-7.736C45.116,104.32,41.076,101.782,36.516,100.029z"/>
						</g>
					</g>
					<g>
						<g>
							<path fill="#F5905F" d="M28.459,104.323c0.184-0.036,0.393-0.033,0.577,0c3.641,0.692,6.699,1.847,8.842,3.333
								c0.084,0.058,0.169,0.115,0.263,0.185c0.072,0.054,0.142,0.112,0.248,0.188c0.066,0.051,0.133,0.103,0.196,0.154
								c0.012,0.012,0.024,0.018,0.042,0.03c0.054,0.048,0.112,0.097,0.172,0.145c0.015,0.015,0.033,0.027,0.054,0.045
								c0.051,0.045,0.1,0.094,0.157,0.142c0.021,0.015,0.036,0.03,0.058,0.048c0.051,0.045,0.1,0.1,0.151,0.151
								c0.018,0.012,0.036,0.024,0.054,0.04c0.063,0.063,0.13,0.127,0.193,0.196c0.058,0.054,0.109,0.118,0.164,0.175
								c0.012,0.015,0.024,0.024,0.039,0.039c0.036,0.045,0.082,0.094,0.118,0.139c0.016,0.012,0.021,0.024,0.034,0.037
								c0.039,0.051,0.079,0.097,0.121,0.142c0.006,0.012,0.012,0.019,0.024,0.033c0.039,0.049,0.082,0.1,0.136,0.172
								c0.042,0.057,0.085,0.112,0.127,0.178c1.167,1.662,1.281,3.457,0.296,5.146c-0.058,0.097-0.2,0.185-0.411,0.227
								c-0.16,0.033-0.341,0.042-0.508,0.021c-0.033,0-0.063-0.007-0.103-0.013c-4.582-0.912-8.235-2.577-10.29-4.689
								c-1.837-1.889-2.264-4.028-1.185-6.026C28.088,104.468,28.227,104.381,28.459,104.323z M39.269,114.446
								c0.807-1.731,0.402-3.557-1.185-5.179c-1.774-1.825-4.871-3.27-8.77-4.113c-0.752,1.734-0.32,3.502,1.275,5.146
								C32.37,112.12,35.431,113.579,39.269,114.446"/>
						</g>
					</g>
					<g>
						<g>
							<path fill="#EED08F" d="M36.132,99.283c-4.04,1.215-6.914,3.085-8.102,5.279c0.058-0.094,0.196-0.181,0.39-0.229
								c0.224-0.045,0.432-0.042,0.617-0.009c3.294,0.623,6.113,1.635,8.208,2.916c-1.956-1.2-4.539-2.157-7.558-2.789
								c1.133-1.801,3.524-3.363,6.83-4.421c4.56,1.752,8.6,4.291,11.417,7.183c2.487,2.556,3.889,5.228,4.043,7.736
								c-3.666,0.508-7.624,0.436-11.284-0.221c0.804-1.599,0.638-3.272-0.462-4.832c1.167,1.662,1.281,3.457,0.296,5.146
								c-0.058,0.097-0.2,0.185-0.387,0.224c-0.184,0.036-0.365,0.045-0.532,0.024c4.3,0.843,9.054,0.931,13.387,0.26
								c0.338-0.069,0.511-0.196,0.511-0.342c-0.006-0.248-0.024-0.495-0.058-0.752c-0.245-2.062-1.281-4.213-3.037-6.313
								c-0.084-0.106-0.139-0.169-0.202-0.239c-0.016-0.021-0.034-0.045-0.052-0.063c-0.048-0.058-0.103-0.118-0.154-0.178
								c-0.033-0.033-0.067-0.07-0.1-0.103c-0.036-0.048-0.078-0.094-0.124-0.142c-0.042-0.049-0.088-0.091-0.13-0.139
								c-0.034-0.04-0.063-0.073-0.097-0.109c-0.081-0.079-0.163-0.166-0.238-0.248c-0.091-0.093-0.188-0.187-0.278-0.278
								c-0.033-0.033-0.069-0.069-0.103-0.097c-0.058-0.063-0.121-0.121-0.182-0.181c-0.048-0.04-0.087-0.082-0.133-0.127
								c-0.051-0.048-0.103-0.094-0.157-0.145c-0.054-0.048-0.105-0.097-0.16-0.148c-0.045-0.042-0.087-0.082-0.133-0.121
								c-0.058-0.054-0.115-0.103-0.172-0.151c-0.045-0.042-0.087-0.079-0.133-0.115c-0.063-0.054-0.121-0.108-0.181-0.16
								c-0.045-0.036-0.085-0.072-0.127-0.105c-0.061-0.058-0.127-0.112-0.193-0.163c-0.04-0.037-0.079-0.067-0.121-0.1
								c-0.069-0.057-0.139-0.115-0.208-0.172c-0.039-0.03-0.073-0.052-0.106-0.085c-0.075-0.054-0.151-0.115-0.224-0.175
								c-0.03-0.024-0.069-0.051-0.1-0.075c-0.084-0.063-0.163-0.121-0.242-0.185c-0.03-0.024-0.057-0.045-0.084-0.063
								c-0.084-0.063-0.172-0.127-0.254-0.19c-0.027-0.018-0.058-0.036-0.076-0.06c-0.093-0.067-0.184-0.13-0.272-0.197
								c-0.024-0.009-0.039-0.024-0.063-0.036c-0.097-0.069-0.19-0.136-0.29-0.206c-0.015-0.012-0.036-0.03-0.051-0.033
								c-0.65-0.453-1.333-0.885-2.037-1.302c-0.036-0.024-0.076-0.042-0.109-0.063c-0.079-0.042-0.151-0.091-0.227-0.127
								c-0.055-0.04-0.115-0.07-0.169-0.106c-0.061-0.03-0.115-0.063-0.175-0.097c-0.082-0.045-0.163-0.091-0.248-0.133
								c-0.04-0.024-0.079-0.045-0.121-0.069c-0.097-0.052-0.193-0.106-0.29-0.157c-0.033-0.019-0.069-0.037-0.103-0.058
								c-0.109-0.054-0.215-0.109-0.32-0.163c-0.027-0.015-0.048-0.027-0.07-0.04c-0.124-0.063-0.248-0.124-0.369-0.184
								c-1.312-0.656-2.644-1.236-4.025-1.747c-0.227-0.088-0.535-0.1-0.786-0.045C36.195,99.271,36.162,99.274,36.132,99.283z"/>
						</g>
					</g>
					<g>
						<g>
							<path fill="#7EAF4E" d="M38.607,98.648c-0.792,0.16-1.581,0.369-2.475,0.634c0.03-0.009,0.063-0.012,0.091-0.021
								c0.25-0.055,0.559-0.042,0.786,0.045c1.2,0.444,2.363,0.94,3.484,1.48c-0.852-0.411-1.729-0.797-2.626-1.157
								c0.475-0.124,0.922-0.229,1.378-0.33c8.866-1.849,19.416,0.076,23.507,4.282c4.101,4.207,0.23,9.145-8.636,10.997
								c-0.212,0.042-0.432,0.078-0.644,0.126c-0.006-0.081-0.015-0.163-0.024-0.25c0.033,0.257,0.051,0.504,0.058,0.752
								c0,0.146-0.172,0.272-0.436,0.323c0.52-0.078,1.1-0.178,1.684-0.299c9.618-2.007,13.834-7.361,9.386-11.937
								C59.681,98.721,48.231,96.639,38.607,98.648z"/>
						</g>
					</g>
				</g>
				<g>
					<g>
						<path fill="#A7D05F" d="M52.743,107.366c-0.175,0.04-0.314,0.106-0.387,0.193c-0.148,0.188,0.054,0.393,0.453,0.469
							l2.13,0.393c0.2,0.033,0.411,0.027,0.583-0.006c0.181-0.036,0.329-0.109,0.398-0.203c0.148-0.184-0.051-0.393-0.453-0.465
							l-2.148-0.39C53.13,107.321,52.918,107.327,52.743,107.366z"/>
					</g>
				</g>
			</g>
		</g>
	</g>
	<g>
		<g>
			<g>
				<path fill="#372F16" d="M133.08,64.885c15.768,0,28.557,5.714,28.557,12.755v27.72v0.65h-0.073
					c-0.755,6.741-13.199,12.108-28.483,12.108c-15.288,0-27.732-5.367-28.484-12.108h-0.076V77.64
					C104.52,70.599,117.306,64.885,133.08,64.885z"/>
				<path fill="#372F16" d="M133.08,119.665c-15.273,0-27.587-5.115-29.735-12.108h-0.297l-0.075-1.547V77.64
					c0-8.02,13.224-14.302,30.107-14.302c16.88,0,30.104,6.282,30.104,14.302v29.917h-0.369
					C160.663,114.55,148.35,119.665,133.08,119.665z M106.067,105.441l0.066,0.396c0.574,5.162,11.042,10.734,26.946,10.734
					c15.9,0,26.368-5.572,26.945-10.734l0.063-0.562V77.64c0-5.412-10.854-11.208-27.009-11.208
					c-16.158,0-27.013,5.796-27.013,11.208V105.441z"/>
			</g>
			<g>
				<path fill="#F0F4F7" d="M104.52,77.64c0,7.047,12.786,12.755,28.561,12.755c15.768,0,28.557-5.708,28.557-12.755
					c0-7.041-12.789-12.755-28.557-12.755C117.306,64.885,104.52,70.599,104.52,77.64z"/>
				<path fill="#372F16" d="M133.08,91.943c-16.884,0-30.107-6.283-30.107-14.303s13.224-14.302,30.107-14.302
					c16.88,0,30.104,6.282,30.104,14.302S149.96,91.943,133.08,91.943z M133.08,66.432c-16.158,0-27.013,5.796-27.013,11.208
					s10.854,11.208,27.013,11.208c16.154,0,27.009-5.796,27.009-11.208S149.234,66.432,133.08,66.432z"/>
			</g>
			<g>
				<g enable-background="new    ">
					<g>
						<g>
							<path fill="#A7D05F" d="M134.135,71.992c0.147-0.19,0.622-0.447,1.251-0.58c0.32-0.063,0.683-0.097,1.058-0.079
								c1.088,0.073,2.88,0.381,2.988,0.402c0.072,0.012,1.837,0.36,2.741,0.668c0.356,0.115,0.586,0.26,0.734,0.408
								c0.277,0.296,0.235,0.607,0.075,0.801c-0.109,0.148-2.104,1.807-5.271,2.82c-0.139,0.048-0.271,0.078-0.404,0.108
								c-0.551,0.112-1.17,0.124-1.769,0.012c-0.586-0.109-1.033-0.32-1.277-0.583c-0.058-0.063-0.101-0.127-0.134-0.19
								C133.183,73.993,134.028,72.141,134.135,71.992z M136.09,75.891c0.127,0.024,0.341,0.045,0.577-0.009l0.163-0.045
								c2.955-0.942,4.636-2.399,4.726-2.478c-0.009-0.006,0.157-0.236-0.25-0.381c-0.626-0.208-1.977-0.49-2.406-0.574
								c-0.483-0.082-1.87-0.308-2.632-0.354l-0.332,0.018c-0.199,0.042-0.333,0.139-0.354,0.166
								c-0.157,0.236-0.773,1.88,0.023,3.388C135.69,75.791,135.936,75.857,136.09,75.891"/>
						</g>
					</g>
					<g>
						<g>
							<path fill="#E1ECB9" d="M136.612,78.607c-0.016-0.024-0.036-0.045-0.055-0.063c-0.048-0.058-0.103-0.118-0.157-0.182
								c-0.03-0.033-0.061-0.069-0.094-0.1c-0.039-0.048-0.084-0.097-0.123-0.145c-0.046-0.042-0.094-0.091-0.131-0.139
								c-0.033-0.033-0.066-0.069-0.103-0.105c-0.075-0.082-0.154-0.169-0.235-0.248c-0.091-0.094-0.185-0.19-0.278-0.278
								c-0.033-0.037-0.066-0.066-0.1-0.1c-0.061-0.06-0.124-0.121-0.185-0.178c-0.045-0.042-0.087-0.082-0.133-0.126
								c-0.051-0.049-0.103-0.094-0.154-0.146c-0.057-0.048-0.108-0.1-0.16-0.148c-0.042-0.042-0.087-0.084-0.136-0.124
								c-0.058-0.048-0.114-0.103-0.169-0.151c-0.046-0.039-0.088-0.076-0.133-0.115c-0.063-0.051-0.127-0.106-0.185-0.157
								c-0.046-0.033-0.088-0.076-0.13-0.109c-0.058-0.054-0.124-0.112-0.19-0.163c-0.039-0.033-0.079-0.066-0.121-0.097
								c-0.066-0.058-0.139-0.115-0.212-0.175c-0.033-0.024-0.066-0.051-0.103-0.082c-0.069-0.058-0.147-0.118-0.221-0.175
								c-0.036-0.024-0.066-0.051-0.103-0.079c-0.084-0.063-0.16-0.121-0.238-0.181c-0.033-0.024-0.058-0.042-0.088-0.067
								c-0.085-0.063-0.169-0.126-0.257-0.19c-0.027-0.018-0.052-0.037-0.075-0.058c-0.088-0.063-0.182-0.13-0.272-0.196
								c-0.018-0.012-0.036-0.027-0.061-0.037c-0.094-0.072-0.19-0.139-0.287-0.208c-0.015-0.009-0.036-0.021-0.054-0.034
								c-0.65-0.45-1.333-0.885-2.034-1.302c-0.039-0.021-0.072-0.039-0.115-0.063c-0.072-0.042-0.145-0.084-0.224-0.127
								c-0.051-0.036-0.114-0.069-0.172-0.1c-0.058-0.033-0.111-0.066-0.175-0.103c-0.082-0.042-0.157-0.088-0.242-0.133
								c-0.042-0.021-0.081-0.045-0.124-0.069c-0.094-0.051-0.19-0.103-0.284-0.151c-0.039-0.021-0.075-0.039-0.111-0.06
								c-0.109-0.058-0.209-0.112-0.32-0.167c-0.021-0.015-0.046-0.027-0.066-0.039c-0.127-0.063-0.245-0.121-0.402-0.203
								c-1.012-0.504-2.055-0.973-3.134-1.402c0.475-0.127,0.922-0.233,1.378-0.333c8.866-1.85,19.413,0.075,23.511,4.285
								c4.095,4.206,0.227,9.144-8.64,10.993c-0.209,0.042-0.429,0.082-0.644,0.127c-0.003-0.082-0.013-0.163-0.021-0.248
								c-0.248-2.061-1.287-4.209-3.061-6.343C136.73,78.746,136.673,78.677,136.612,78.607z M137.021,78.797
								c0.066,0.061,0.139,0.121,0.229,0.175c2.23,1.493,5.783,2.445,6.131,2.502c0.378,0.066,1.055,0.103,1.692-0.03
								c0.348-0.076,0.65-0.193,0.874-0.348c0.61-0.414,1.296-1.248,1.32-1.281c0.042-0.048,0.649-0.892,0.762-1.402
								c0.039-0.205-0.043-0.384-0.193-0.535c-0.294-0.29-0.828-0.48-1.258-0.556c-0.311-0.057-4.309-0.462-8.044-0.03
								c-0.157,0.015-0.302,0.037-0.441,0.063c-0.556,0.118-0.979,0.335-1.172,0.595C136.693,78.227,136.742,78.532,137.021,78.797
								 M135.539,76.552c0.599,0.112,1.218,0.1,1.769-0.012c0.133-0.03,0.266-0.06,0.404-0.108c3.167-1.013,5.161-2.671,5.271-2.82
								c0.16-0.193,0.202-0.504-0.075-0.801c-0.148-0.148-0.378-0.293-0.734-0.408c-0.904-0.308-2.669-0.656-2.741-0.668
								c-0.108-0.021-1.9-0.329-2.988-0.402c-0.375-0.018-0.737,0.015-1.058,0.079c-0.629,0.133-1.104,0.39-1.251,0.58
								c-0.106,0.148-0.952,2-0.007,3.787c0.033,0.063,0.076,0.127,0.134,0.19C134.506,76.232,134.953,76.443,135.539,76.552"/>
						</g>
					</g>
					<g>
						<g>
							<path fill="#7EAF4E" d="M128.19,72.144c-0.103-0.058-0.209-0.112-0.32-0.167C127.981,72.032,128.081,72.086,128.19,72.144z"
								/>
						</g>
					</g>
					<g>
						<g>
							<path fill="#A7D05F" d="M136.996,74.05c-0.172,0.033-0.32,0.109-0.393,0.202l-0.777,1c-0.153,0.175,0.055,0.393,0.444,0.456
								c0.203,0.04,0.405,0.037,0.587-0.003c0.172-0.036,0.316-0.105,0.387-0.199l0.785-1c0.151-0.19-0.051-0.393-0.444-0.462
								C137.386,74.011,137.174,74.014,136.996,74.05z"/>
						</g>
					</g>
					<g>
						<g>
							<path fill="#FFFFFF" d="M135.582,72.234c0.021-0.027,0.154-0.124,0.354-0.166l0.332-0.018
								c0.762,0.045,2.148,0.272,2.632,0.354c0.43,0.084,1.78,0.366,2.406,0.574c0.407,0.145,0.241,0.375,0.25,0.381
								c-0.09,0.078-1.771,1.535-4.726,2.478l-0.163,0.045c-0.236,0.055-0.45,0.033-0.577,0.009c-0.154-0.033-0.399-0.1-0.484-0.269
								C134.809,74.114,135.425,72.47,135.582,72.234z M136.271,75.709c0.203,0.04,0.405,0.037,0.587-0.003
								c0.172-0.036,0.316-0.105,0.387-0.199l0.785-1c0.151-0.19-0.051-0.393-0.444-0.462c-0.199-0.033-0.411-0.03-0.589,0.006
								c-0.172,0.033-0.32,0.109-0.393,0.202l-0.777,1C135.673,75.428,135.881,75.646,136.271,75.709"/>
						</g>
					</g>
					<g>
						<g>
							<path fill="#EED08F" d="M126.504,80.42c0.043,0.057,0.085,0.109,0.121,0.163C126.586,80.529,126.547,80.478,126.504,80.42z"
								/>
						</g>
					</g>
					<g>
						<g>
							<path fill="#FFFFFF" d="M138.755,78.012c0.048-0.009,0.1-0.018,0.157-0.024c3.173-0.366,6.666-0.063,7.18,0.006
								c-0.012,0,0.469,0.109,0.42,0.335c-0.069,0.36-0.508,1.012-0.677,1.23c-0.169,0.203-0.729,0.834-1.151,1.13
								c-0.069,0.045-0.16,0.075-0.257,0.097c-0.212,0.045-0.459,0.036-0.538,0.018c-0.456-0.106-3.518-0.979-5.412-2.246
								c-0.232-0.148-0.185-0.281-0.142-0.344C138.38,78.166,138.492,78.069,138.755,78.012z M139.211,78.728l2.134,0.393
								c0.199,0.033,0.407,0.03,0.583-0.006c0.179-0.033,0.326-0.105,0.396-0.199c0.151-0.188-0.048-0.396-0.45-0.468l-2.146-0.39
								c-0.196-0.033-0.407-0.027-0.583,0.012c-0.175,0.039-0.317,0.103-0.39,0.193C138.612,78.447,138.812,78.652,139.211,78.728"
								/>
						</g>
					</g>
					<g>
						<g>
							<path fill="#A7D05F" d="M138.093,77.356c0.14-0.027,0.284-0.048,0.441-0.063c3.735-0.432,7.733-0.027,8.044,0.03
								c0.43,0.076,0.964,0.266,1.258,0.556c0.15,0.151,0.232,0.33,0.193,0.535c-0.112,0.511-0.72,1.354-0.762,1.402
								c-0.024,0.033-0.71,0.867-1.32,1.281c-0.224,0.154-0.526,0.272-0.874,0.348c-0.638,0.133-1.314,0.097-1.692,0.03
								c-0.348-0.058-3.9-1.009-6.131-2.502c-0.091-0.054-0.163-0.115-0.229-0.175c-0.278-0.266-0.327-0.571-0.1-0.846
								C137.114,77.691,137.537,77.474,138.093,77.356z M138.477,78.559c1.895,1.267,4.956,2.14,5.412,2.246
								c0.079,0.018,0.326,0.027,0.538-0.018c0.097-0.021,0.188-0.052,0.257-0.097c0.423-0.296,0.982-0.928,1.151-1.13
								c0.169-0.218,0.607-0.87,0.677-1.23c0.049-0.227-0.432-0.335-0.42-0.335c-0.514-0.069-4.007-0.372-7.18-0.006
								c-0.058,0.006-0.109,0.015-0.157,0.024c-0.263,0.058-0.375,0.154-0.42,0.203C138.292,78.278,138.244,78.411,138.477,78.559"
								/>
						</g>
					</g>
					<g>
						<g>
							<path fill="#F8A366" d="M115.713,75.854c-0.752,1.734-0.314,3.502,1.281,5.146c1.777,1.825,4.838,3.279,8.673,4.149
								c0.81-1.731,0.402-3.56-1.182-5.179C122.709,78.145,119.614,76.697,115.713,75.854z"/>
						</g>
					</g>
					<g>
						<g>
							<path fill="#F5E8CE" d="M122.917,70.732c-3.306,1.061-5.699,2.617-6.832,4.421c3.366,0.701,6.183,1.807,8.198,3.203
								c0.088,0.061,0.166,0.118,0.244,0.175c0.088,0.063,0.164,0.121,0.236,0.172c0.094,0.075,0.157,0.127,0.224,0.181
								c0.1,0.076,0.157,0.127,0.211,0.172c0.021,0.018,0.04,0.03,0.055,0.045c0.052,0.049,0.108,0.097,0.166,0.142
								c0.016,0.018,0.03,0.033,0.049,0.048c0.051,0.048,0.105,0.1,0.157,0.151c0.018,0.012,0.033,0.027,0.051,0.042
								c0.061,0.063,0.127,0.127,0.193,0.197c0.055,0.057,0.109,0.115,0.17,0.172c0.009,0.018,0.015,0.03,0.033,0.039
								c0.036,0.048,0.084,0.094,0.117,0.139c0.016,0.012,0.021,0.027,0.037,0.039c0.036,0.048,0.078,0.094,0.114,0.142
								c0.069,0.079,0.112,0.133,0.148,0.185c0.058,0.078,0.097,0.13,0.136,0.184c1.105,1.574,1.275,3.249,0.472,4.85
								c3.656,0.65,7.621,0.725,11.277,0.214c-0.151-2.508-1.55-5.179-4.04-7.736C131.521,75.02,127.478,72.482,122.917,70.732z"/>
						</g>
					</g>
					<g>
						<g>
							<path fill="#F5905F" d="M114.86,75.023c0.185-0.037,0.396-0.03,0.577,0c3.647,0.692,6.697,1.852,8.846,3.333
								c0.088,0.061,0.166,0.118,0.263,0.188c0.069,0.051,0.146,0.108,0.242,0.184c0.069,0.051,0.133,0.103,0.199,0.157
								c0.012,0.009,0.027,0.015,0.042,0.03c0.058,0.045,0.115,0.097,0.169,0.142c0.021,0.018,0.04,0.03,0.055,0.045
								c0.052,0.049,0.108,0.097,0.166,0.142c0.016,0.018,0.03,0.033,0.049,0.048c0.051,0.048,0.105,0.1,0.157,0.151
								c0.018,0.012,0.033,0.027,0.051,0.042c0.061,0.063,0.127,0.127,0.193,0.197c0.055,0.057,0.109,0.115,0.17,0.172
								c0.009,0.018,0.015,0.03,0.033,0.039c0.036,0.048,0.084,0.094,0.117,0.139c0.016,0.012,0.021,0.027,0.037,0.039
								c0.036,0.048,0.078,0.094,0.114,0.142c0.016,0.009,0.019,0.018,0.027,0.03c0.042,0.048,0.085,0.103,0.136,0.175
								c0.043,0.057,0.085,0.109,0.133,0.175c1.161,1.662,1.275,3.457,0.287,5.146c-0.057,0.097-0.196,0.185-0.411,0.23
								c-0.153,0.033-0.335,0.042-0.504,0.018c-0.033,0-0.063-0.006-0.1-0.012c-4.585-0.913-8.235-2.578-10.293-4.687
								c-1.84-1.889-2.261-4.031-1.185-6.025C114.489,75.168,114.628,75.081,114.86,75.023z M125.667,85.149
								c0.81-1.731,0.402-3.56-1.182-5.179c-1.776-1.825-4.871-3.273-8.772-4.116c-0.752,1.734-0.314,3.502,1.281,5.146
								C118.771,82.826,121.832,84.279,125.667,85.149"/>
						</g>
					</g>
					<g>
						<g>
							<path fill="#EED08F" d="M122.533,69.986c-4.04,1.215-6.914,3.085-8.102,5.279c0.058-0.097,0.196-0.185,0.387-0.233
								c0.227-0.045,0.438-0.039,0.619-0.009c3.297,0.625,6.113,1.635,8.208,2.922c-1.955-1.203-4.539-2.161-7.561-2.792
								c1.133-1.804,3.526-3.363,6.832-4.421c4.561,1.75,8.604,4.288,11.417,7.18c2.49,2.557,3.889,5.228,4.04,7.736
								c-3.656,0.511-7.621,0.436-11.277-0.214c0.804-1.602,0.634-3.276-0.46-4.838c1.161,1.662,1.275,3.457,0.287,5.146
								c-0.057,0.097-0.196,0.185-0.381,0.227c-0.184,0.037-0.365,0.045-0.534,0.021c4.303,0.846,9.057,0.934,13.39,0.26
								c0.335-0.069,0.511-0.196,0.508-0.341c-0.006-0.245-0.024-0.496-0.055-0.75c-0.248-2.061-1.287-4.209-3.04-6.316
								c-0.081-0.097-0.139-0.166-0.199-0.235c-0.016-0.024-0.036-0.045-0.055-0.063c-0.048-0.058-0.103-0.118-0.157-0.182
								c-0.03-0.033-0.061-0.069-0.094-0.1c-0.039-0.048-0.084-0.097-0.123-0.145c-0.046-0.042-0.094-0.091-0.131-0.139
								c-0.033-0.033-0.066-0.069-0.103-0.105c-0.075-0.082-0.154-0.169-0.235-0.248c-0.091-0.094-0.185-0.19-0.278-0.278
								c-0.033-0.037-0.066-0.066-0.1-0.1c-0.061-0.06-0.124-0.121-0.185-0.178c-0.045-0.042-0.087-0.082-0.133-0.126
								c-0.051-0.049-0.103-0.094-0.154-0.146c-0.057-0.048-0.108-0.1-0.16-0.148c-0.042-0.042-0.087-0.084-0.136-0.124
								c-0.058-0.048-0.114-0.103-0.169-0.151c-0.046-0.039-0.088-0.076-0.133-0.115c-0.063-0.051-0.127-0.106-0.185-0.157
								c-0.046-0.033-0.088-0.076-0.13-0.109c-0.058-0.054-0.124-0.112-0.19-0.163c-0.039-0.033-0.079-0.066-0.121-0.097
								c-0.066-0.058-0.139-0.115-0.212-0.175c-0.033-0.024-0.066-0.051-0.103-0.082c-0.069-0.058-0.147-0.118-0.221-0.175
								c-0.036-0.024-0.072-0.054-0.103-0.079c-0.084-0.063-0.16-0.121-0.238-0.181c-0.033-0.024-0.058-0.045-0.088-0.067
								c-0.085-0.063-0.169-0.126-0.257-0.19c-0.027-0.018-0.052-0.037-0.075-0.058c-0.088-0.063-0.182-0.13-0.272-0.196
								c-0.018-0.012-0.036-0.027-0.061-0.037c-0.094-0.072-0.19-0.139-0.287-0.208c-0.015-0.009-0.036-0.027-0.054-0.034
								c-0.65-0.45-1.333-0.885-2.034-1.302c-0.039-0.021-0.072-0.039-0.115-0.063c-0.072-0.042-0.145-0.084-0.224-0.127
								c-0.051-0.036-0.114-0.069-0.172-0.1c-0.058-0.033-0.111-0.066-0.175-0.103c-0.082-0.042-0.157-0.088-0.242-0.133
								c-0.042-0.021-0.081-0.045-0.124-0.069c-0.094-0.051-0.19-0.103-0.284-0.151c-0.039-0.021-0.075-0.039-0.111-0.06
								c-0.103-0.058-0.209-0.112-0.32-0.167c-0.021-0.015-0.046-0.027-0.066-0.039c-0.127-0.063-0.245-0.121-0.363-0.185
								c-1.317-0.653-2.652-1.233-4.027-1.747c-0.233-0.084-0.532-0.097-0.789-0.045C122.594,69.971,122.566,69.977,122.533,69.986z
								"/>
						</g>
					</g>
					<g>
						<g>
							<path fill="#7EAF4E" d="M125.008,69.348c-0.791,0.163-1.577,0.372-2.475,0.638c0.033-0.009,0.061-0.015,0.091-0.024
								c0.257-0.051,0.556-0.039,0.789,0.045c1.196,0.447,2.362,0.94,3.483,1.481c-0.854-0.411-1.729-0.798-2.629-1.154
								c0.475-0.127,0.922-0.233,1.378-0.333c8.866-1.85,19.413,0.075,23.511,4.285c4.095,4.206,0.227,9.144-8.64,10.993
								c-0.209,0.042-0.429,0.082-0.644,0.127c-0.003-0.082-0.013-0.163-0.021-0.248c0.03,0.254,0.049,0.504,0.055,0.75
								c0.003,0.145-0.173,0.272-0.436,0.329c0.523-0.082,1.101-0.184,1.684-0.305c9.625-2.006,13.834-7.361,9.383-11.933
								C146.089,69.424,134.63,67.342,125.008,69.348z"/>
						</g>
					</g>
				</g>
				<g>
					<g>
						<path fill="#A7D05F" d="M139.145,78.069c-0.175,0.039-0.317,0.103-0.39,0.193c-0.143,0.185,0.058,0.39,0.456,0.465
							l2.134,0.393c0.199,0.033,0.407,0.03,0.583-0.006c0.179-0.033,0.326-0.105,0.396-0.199c0.151-0.188-0.048-0.396-0.45-0.468
							l-2.146-0.39C139.531,78.024,139.32,78.03,139.145,78.069z"/>
					</g>
				</g>
			</g>
		</g>
		<g>
			<g>
				<path fill="#372F16" d="M104.52,94.185c15.774,0,28.561,5.708,28.561,12.755v27.72v0.646h-0.076
					c-0.752,6.745-13.196,12.108-28.484,12.108c-15.284,0-27.731-5.363-28.484-12.108h-0.072V106.94
					C75.963,99.893,88.749,94.185,104.52,94.185z"/>
				<path fill="#372F16" d="M104.52,148.963c-15.272,0-27.586-5.116-29.735-12.109h-0.296l-0.072-1.547V106.94
					c0-8.02,13.224-14.303,30.104-14.303c16.884,0,30.107,6.283,30.107,14.303v29.913h-0.372
					C132.106,143.847,119.793,148.963,104.52,148.963z M77.51,134.751l0.063,0.384c0.574,5.161,11.042,10.733,26.946,10.733
					c15.904,0,26.372-5.572,26.946-10.733l0.066-0.593V106.94c0-5.412-10.854-11.208-27.013-11.208
					c-16.154,0-27.009,5.796-27.009,11.208V134.751z"/>
			</g>
			<g>
				<path fill="#F0F4F7" d="M75.963,106.94c0,7.044,12.786,12.755,28.556,12.755c15.774,0,28.561-5.711,28.561-12.755
					c0-7.047-12.786-12.755-28.561-12.755C88.749,94.185,75.963,99.893,75.963,106.94z"/>
				<path fill="#372F16" d="M104.52,121.243c-16.88,0-30.104-6.283-30.104-14.303c0-8.02,13.224-14.303,30.104-14.303
					c16.884,0,30.107,6.283,30.107,14.303C134.627,114.96,121.403,121.243,104.52,121.243z M104.52,95.732
					c-16.154,0-27.009,5.796-27.009,11.208s10.855,11.208,27.009,11.208c16.158,0,27.013-5.796,27.013-11.208
					S120.678,95.732,104.52,95.732z"/>
			</g>
			<g>
				<g enable-background="new    ">
					<g>
						<g>
							<path fill="#A7D05F" d="M105.577,101.29c0.146-0.19,0.62-0.444,1.245-0.577c0.323-0.063,0.687-0.097,1.064-0.082
								c1.088,0.075,2.879,0.384,2.988,0.402c0.072,0.015,1.837,0.362,2.741,0.665c0.351,0.121,0.589,0.263,0.73,0.414
								c0.281,0.293,0.236,0.607,0.079,0.801c-0.112,0.148-2.104,1.807-5.273,2.819c-0.136,0.045-0.271,0.079-0.405,0.106
								c-0.547,0.115-1.166,0.124-1.765,0.015c-0.586-0.109-1.033-0.32-1.278-0.586c-0.06-0.061-0.105-0.124-0.136-0.19
								C104.619,103.29,105.466,101.44,105.577,101.29z M107.533,105.19c0.123,0.024,0.335,0.042,0.577-0.009l0.16-0.048
								c2.958-0.943,4.638-2.396,4.729-2.475c-0.009-0.006,0.151-0.242-0.257-0.384c-0.622-0.208-1.97-0.486-2.402-0.574
								c-0.478-0.082-1.87-0.305-2.629-0.354l-0.329,0.018c-0.202,0.042-0.339,0.142-0.359,0.169
								c-0.157,0.236-0.771,1.879,0.026,3.388C107.134,105.091,107.382,105.157,107.533,105.19"/>
						</g>
					</g>
					<g>
						<g>
							<path fill="#E1ECB9" d="M108.053,107.904c-0.016-0.021-0.033-0.045-0.055-0.063c-0.048-0.058-0.1-0.118-0.151-0.178
								c-0.036-0.033-0.066-0.07-0.1-0.103c-0.036-0.048-0.081-0.094-0.124-0.142c-0.042-0.049-0.09-0.091-0.13-0.139
								c-0.036-0.04-0.063-0.073-0.1-0.109c-0.078-0.079-0.16-0.166-0.235-0.248c-0.094-0.093-0.188-0.187-0.281-0.278
								c-0.03-0.033-0.066-0.069-0.1-0.097c-0.058-0.063-0.121-0.121-0.185-0.181c-0.045-0.04-0.085-0.082-0.133-0.127
								c-0.048-0.048-0.1-0.094-0.154-0.145c-0.054-0.048-0.108-0.097-0.16-0.148c-0.045-0.042-0.091-0.082-0.136-0.121
								c-0.055-0.054-0.112-0.103-0.169-0.151c-0.049-0.042-0.088-0.079-0.134-0.115c-0.062-0.054-0.12-0.108-0.184-0.16
								c-0.046-0.036-0.082-0.072-0.127-0.105c-0.061-0.058-0.127-0.112-0.193-0.163c-0.036-0.037-0.079-0.067-0.118-0.1
								c-0.069-0.057-0.139-0.115-0.212-0.172c-0.036-0.03-0.072-0.052-0.103-0.085c-0.075-0.054-0.151-0.115-0.224-0.175
								c-0.03-0.024-0.066-0.048-0.1-0.075c-0.084-0.063-0.163-0.121-0.244-0.185c-0.027-0.024-0.055-0.042-0.085-0.063
								c-0.082-0.063-0.169-0.127-0.254-0.19c-0.024-0.018-0.055-0.036-0.075-0.06c-0.091-0.067-0.185-0.13-0.272-0.197
								c-0.021-0.009-0.036-0.024-0.063-0.036c-0.094-0.069-0.19-0.136-0.287-0.206c-0.015-0.012-0.039-0.024-0.055-0.033
								c-0.649-0.453-1.332-0.885-2.033-1.302c-0.039-0.024-0.076-0.042-0.109-0.063c-0.078-0.042-0.15-0.091-0.227-0.127
								c-0.054-0.04-0.114-0.07-0.169-0.106c-0.063-0.03-0.118-0.063-0.178-0.097c-0.082-0.045-0.16-0.091-0.245-0.133
								c-0.042-0.024-0.079-0.045-0.121-0.069c-0.097-0.052-0.193-0.106-0.29-0.157c-0.036-0.019-0.069-0.037-0.103-0.058
								c-0.112-0.054-0.215-0.109-0.323-0.163c-0.024-0.015-0.046-0.027-0.069-0.04c-0.124-0.063-0.245-0.124-0.402-0.202
								c-1.01-0.505-2.052-0.976-3.134-1.405c0.475-0.124,0.925-0.229,1.381-0.33c8.866-1.849,19.413,0.076,23.508,4.282
								c4.101,4.207,0.229,9.145-8.637,10.997c-0.215,0.042-0.433,0.078-0.644,0.126c-0.006-0.081-0.016-0.163-0.027-0.25
								c-0.242-2.062-1.281-4.213-3.059-6.343C108.17,108.037,108.116,107.974,108.053,107.904z M108.464,108.095
								c0.066,0.061,0.136,0.124,0.229,0.175c2.232,1.493,5.787,2.445,6.128,2.505c0.384,0.066,1.058,0.103,1.692-0.03
								c0.351-0.076,0.646-0.193,0.873-0.348c0.613-0.417,1.3-1.248,1.324-1.285c0.042-0.045,0.646-0.888,0.758-1.402
								c0.04-0.206-0.042-0.384-0.193-0.535c-0.29-0.287-0.828-0.48-1.257-0.553c-0.312-0.061-4.306-0.462-8.044-0.03
								c-0.157,0.012-0.303,0.036-0.441,0.063c-0.55,0.115-0.977,0.335-1.173,0.595
								C108.134,107.523,108.183,107.832,108.464,108.095 M106.982,105.853c0.599,0.108,1.218,0.1,1.765-0.015
								c0.134-0.027,0.27-0.061,0.405-0.106c3.17-1.012,5.161-2.671,5.273-2.819c0.157-0.193,0.202-0.508-0.079-0.801
								c-0.142-0.151-0.38-0.293-0.73-0.414c-0.904-0.302-2.669-0.649-2.741-0.665c-0.109-0.018-1.9-0.327-2.988-0.402
								c-0.378-0.016-0.741,0.018-1.064,0.082c-0.625,0.133-1.1,0.387-1.245,0.577c-0.111,0.151-0.958,2-0.009,3.786
								c0.03,0.066,0.076,0.13,0.136,0.19C105.949,105.532,106.396,105.744,106.982,105.853"/>
						</g>
					</g>
					<g>
						<g>
							<path fill="#7EAF4E" d="M99.637,101.44c-0.109-0.054-0.215-0.109-0.323-0.163C99.422,101.332,99.524,101.386,99.637,101.44z"
								/>
						</g>
					</g>
					<g>
						<g>
							<path fill="#A7D05F" d="M108.439,103.35c-0.179,0.034-0.32,0.109-0.396,0.203l-0.776,1c-0.151,0.176,0.055,0.393,0.45,0.457
								c0.193,0.036,0.402,0.033,0.584-0.003c0.169-0.04,0.316-0.109,0.38-0.2l0.792-1c0.146-0.19-0.055-0.393-0.444-0.462
								C108.829,103.308,108.617,103.314,108.439,103.35z"/>
						</g>
					</g>
					<g>
						<g>
							<path fill="#FFFFFF" d="M107.022,101.534c0.021-0.027,0.157-0.127,0.359-0.169l0.329-0.018
								c0.759,0.048,2.151,0.272,2.629,0.354c0.433,0.088,1.78,0.366,2.402,0.574c0.408,0.142,0.248,0.378,0.257,0.384
								c-0.091,0.079-1.771,1.532-4.729,2.475l-0.16,0.048c-0.242,0.051-0.454,0.033-0.577,0.009
								c-0.151-0.033-0.399-0.1-0.484-0.269C106.252,103.414,106.865,101.77,107.022,101.534z M107.717,105.009
								c0.193,0.036,0.402,0.033,0.584-0.003c0.169-0.04,0.316-0.109,0.38-0.2l0.792-1c0.146-0.19-0.055-0.393-0.444-0.462
								c-0.199-0.036-0.411-0.03-0.589,0.006c-0.179,0.034-0.32,0.109-0.396,0.203l-0.776,1
								C107.115,104.729,107.321,104.946,107.717,105.009"/>
						</g>
					</g>
					<g>
						<g>
							<path fill="#EED08F" d="M97.947,109.717c0.039,0.057,0.085,0.112,0.115,0.167C98.026,109.829,97.986,109.774,97.947,109.717z
								"/>
						</g>
					</g>
					<g>
						<g>
							<path fill="#FFFFFF" d="M110.201,107.309c0.045-0.009,0.091-0.015,0.148-0.021c3.176-0.366,6.669-0.063,7.186,0.006
								c-0.016,0,0.465,0.109,0.42,0.335c-0.072,0.356-0.511,1.009-0.674,1.227c-0.172,0.206-0.729,0.837-1.16,1.13
								c-0.063,0.049-0.157,0.078-0.254,0.1c-0.212,0.042-0.456,0.033-0.532,0.016c-0.456-0.104-3.521-0.977-5.412-2.243
								c-0.235-0.151-0.188-0.284-0.145-0.348C109.823,107.466,109.936,107.366,110.201,107.309z M110.654,108.028l2.131,0.393
								c0.199,0.033,0.41,0.027,0.583-0.006c0.178-0.036,0.326-0.109,0.396-0.203c0.151-0.184-0.048-0.393-0.45-0.465l-2.148-0.39
								c-0.19-0.036-0.402-0.03-0.577,0.009c-0.179,0.04-0.317,0.106-0.387,0.193C110.053,107.747,110.256,107.953,110.654,108.028"
								/>
						</g>
					</g>
					<g>
						<g>
							<path fill="#A7D05F" d="M109.533,106.656c0.139-0.027,0.284-0.051,0.441-0.063c3.738-0.432,7.732-0.03,8.044,0.03
								c0.429,0.072,0.967,0.266,1.257,0.553c0.151,0.151,0.233,0.33,0.193,0.535c-0.111,0.514-0.716,1.357-0.758,1.402
								c-0.024,0.037-0.711,0.868-1.324,1.285c-0.227,0.154-0.522,0.271-0.873,0.348c-0.635,0.133-1.309,0.097-1.692,0.03
								c-0.341-0.061-3.896-1.013-6.128-2.505c-0.094-0.051-0.163-0.115-0.229-0.175c-0.281-0.263-0.33-0.571-0.104-0.843
								C108.557,106.992,108.983,106.771,109.533,106.656z M109.923,107.859c1.892,1.266,4.956,2.139,5.412,2.243
								c0.076,0.018,0.32,0.026,0.532-0.016c0.097-0.021,0.19-0.051,0.254-0.1c0.432-0.293,0.988-0.925,1.16-1.13
								c0.163-0.217,0.602-0.87,0.674-1.227c0.045-0.227-0.436-0.335-0.42-0.335c-0.517-0.07-4.01-0.372-7.186-0.006
								c-0.058,0.006-0.104,0.012-0.148,0.021c-0.266,0.057-0.378,0.157-0.423,0.202
								C109.735,107.575,109.688,107.708,109.923,107.859"/>
						</g>
					</g>
					<g>
						<g>
							<path fill="#F8A366" d="M87.156,105.154c-0.752,1.734-0.317,3.502,1.278,5.146c1.78,1.819,4.841,3.278,8.676,4.146
								c0.81-1.731,0.401-3.557-1.182-5.179C94.155,107.442,91.058,105.998,87.156,105.154z"/>
						</g>
					</g>
					<g>
						<g>
							<path fill="#F5E8CE" d="M94.36,100.029c-3.306,1.058-5.696,2.62-6.83,4.421c3.361,0.704,6.177,1.807,8.193,3.206
								c0.084,0.058,0.169,0.115,0.247,0.175c0.088,0.063,0.157,0.121,0.233,0.172c0.094,0.076,0.16,0.127,0.224,0.178
								c0.1,0.079,0.153,0.127,0.214,0.175c0.019,0.015,0.036,0.027,0.058,0.045c0.052,0.045,0.1,0.094,0.157,0.142
								c0.021,0.015,0.036,0.03,0.055,0.048c0.054,0.045,0.103,0.1,0.153,0.151c0.019,0.012,0.034,0.024,0.052,0.04
								c0.063,0.063,0.13,0.127,0.193,0.196c0.058,0.054,0.112,0.118,0.166,0.175c0.013,0.015,0.021,0.024,0.036,0.039
								c0.04,0.045,0.085,0.094,0.118,0.139c0.016,0.012,0.021,0.024,0.036,0.037c0.036,0.051,0.079,0.097,0.118,0.142
								c0.063,0.082,0.108,0.133,0.146,0.188c0.057,0.075,0.097,0.13,0.133,0.185c1.108,1.571,1.278,3.245,0.475,4.844
								c3.656,0.656,7.617,0.729,11.28,0.221c-0.154-2.508-1.557-5.18-4.04-7.736C102.961,104.32,98.917,101.782,94.36,100.029z"/>
						</g>
					</g>
					<g>
						<g>
							<path fill="#F5905F" d="M86.304,104.323c0.181-0.036,0.393-0.033,0.574,0c3.644,0.692,6.7,1.847,8.845,3.333
								c0.084,0.058,0.169,0.115,0.263,0.185c0.072,0.054,0.142,0.112,0.244,0.188c0.067,0.051,0.134,0.103,0.197,0.154
								c0.012,0.012,0.026,0.018,0.045,0.03c0.055,0.048,0.108,0.097,0.169,0.145c0.019,0.015,0.036,0.027,0.058,0.045
								c0.052,0.045,0.1,0.094,0.157,0.142c0.021,0.015,0.036,0.03,0.055,0.048c0.054,0.045,0.103,0.1,0.153,0.151
								c0.019,0.012,0.034,0.024,0.052,0.04c0.063,0.063,0.13,0.127,0.193,0.196c0.058,0.054,0.112,0.118,0.166,0.175
								c0.013,0.015,0.021,0.024,0.036,0.039c0.04,0.045,0.085,0.094,0.118,0.139c0.016,0.012,0.021,0.024,0.036,0.037
								c0.036,0.051,0.079,0.097,0.118,0.142c0.009,0.012,0.015,0.019,0.027,0.033c0.036,0.049,0.081,0.1,0.136,0.172
								c0.039,0.057,0.085,0.112,0.127,0.178c1.163,1.662,1.281,3.457,0.293,5.146c-0.058,0.097-0.199,0.185-0.408,0.227
								c-0.16,0.033-0.341,0.042-0.51,0.021c-0.03,0-0.064-0.007-0.101-0.013c-4.584-0.912-8.234-2.577-10.289-4.689
								c-1.84-1.889-2.264-4.028-1.188-6.026C85.933,104.468,86.068,104.381,86.304,104.323z M97.11,114.446
								c0.81-1.731,0.401-3.557-1.182-5.179c-1.773-1.825-4.871-3.27-8.772-4.113c-0.752,1.734-0.317,3.502,1.278,5.146
								C90.214,112.12,93.275,113.579,97.11,114.446"/>
						</g>
					</g>
					<g>
						<g>
							<path fill="#EED08F" d="M93.974,99.283c-4.037,1.215-6.911,3.085-8.102,5.279c0.061-0.094,0.196-0.181,0.393-0.229
								c0.221-0.045,0.432-0.042,0.614-0.009c3.297,0.623,6.116,1.635,8.21,2.916c-1.955-1.2-4.542-2.157-7.558-2.789
								c1.133-1.801,3.524-3.363,6.83-4.421c4.557,1.752,8.601,4.291,11.417,7.183c2.483,2.556,3.886,5.228,4.04,7.736
								c-3.663,0.508-7.624,0.436-11.28-0.221c0.804-1.599,0.634-3.272-0.463-4.832c1.163,1.662,1.281,3.457,0.293,5.146
								c-0.058,0.097-0.199,0.185-0.387,0.224c-0.182,0.036-0.362,0.045-0.531,0.024c4.303,0.843,9.056,0.931,13.39,0.26
								c0.338-0.069,0.508-0.196,0.508-0.342c-0.007-0.248-0.021-0.495-0.058-0.752c-0.242-2.062-1.281-4.213-3.034-6.313
								c-0.085-0.106-0.139-0.169-0.202-0.239c-0.016-0.021-0.033-0.045-0.055-0.063c-0.048-0.058-0.1-0.118-0.151-0.178
								c-0.036-0.033-0.066-0.07-0.1-0.103c-0.036-0.048-0.081-0.094-0.124-0.142c-0.042-0.049-0.09-0.091-0.13-0.139
								c-0.036-0.04-0.063-0.073-0.1-0.109c-0.078-0.079-0.16-0.166-0.235-0.248c-0.094-0.093-0.188-0.187-0.281-0.278
								c-0.03-0.033-0.066-0.069-0.1-0.097c-0.058-0.063-0.121-0.121-0.185-0.181c-0.045-0.04-0.085-0.082-0.133-0.127
								c-0.048-0.048-0.1-0.094-0.154-0.145c-0.054-0.048-0.108-0.097-0.16-0.148c-0.045-0.042-0.091-0.082-0.136-0.121
								c-0.055-0.054-0.112-0.103-0.169-0.151c-0.049-0.042-0.088-0.079-0.134-0.115c-0.062-0.054-0.12-0.108-0.184-0.16
								c-0.046-0.036-0.082-0.072-0.127-0.105c-0.061-0.058-0.127-0.112-0.193-0.163c-0.036-0.037-0.079-0.067-0.118-0.1
								c-0.069-0.057-0.139-0.115-0.212-0.172c-0.036-0.03-0.072-0.052-0.103-0.085c-0.075-0.054-0.151-0.115-0.224-0.175
								c-0.03-0.024-0.072-0.051-0.1-0.075c-0.084-0.063-0.163-0.121-0.244-0.185c-0.027-0.024-0.055-0.045-0.085-0.063
								c-0.082-0.063-0.169-0.127-0.254-0.19c-0.024-0.018-0.055-0.036-0.075-0.06c-0.091-0.067-0.185-0.13-0.272-0.197
								c-0.021-0.009-0.036-0.024-0.063-0.036c-0.094-0.069-0.19-0.136-0.287-0.206c-0.015-0.012-0.039-0.03-0.055-0.033
								c-0.649-0.453-1.332-0.885-2.033-1.302c-0.039-0.024-0.076-0.042-0.109-0.063c-0.078-0.042-0.15-0.091-0.227-0.127
								c-0.054-0.04-0.114-0.07-0.169-0.106c-0.063-0.03-0.118-0.063-0.178-0.097c-0.082-0.045-0.16-0.091-0.245-0.133
								c-0.042-0.024-0.079-0.045-0.121-0.069c-0.097-0.052-0.193-0.106-0.29-0.157c-0.036-0.019-0.069-0.037-0.103-0.058
								c-0.109-0.054-0.215-0.109-0.323-0.163c-0.024-0.015-0.046-0.027-0.069-0.04c-0.124-0.063-0.245-0.124-0.366-0.184
								c-1.314-0.656-2.647-1.236-4.025-1.747c-0.227-0.088-0.534-0.1-0.785-0.045C94.037,99.271,94.007,99.274,93.974,99.283z"/>
						</g>
					</g>
					<g>
						<g>
							<path fill="#7EAF4E" d="M96.448,98.648c-0.788,0.16-1.577,0.369-2.475,0.634c0.033-0.009,0.063-0.012,0.094-0.021
								c0.251-0.055,0.559-0.042,0.785,0.045c1.2,0.444,2.363,0.94,3.484,1.48c-0.852-0.411-1.729-0.797-2.629-1.157
								c0.475-0.124,0.925-0.229,1.381-0.33c8.866-1.849,19.413,0.076,23.508,4.282c4.101,4.207,0.229,9.145-8.637,10.997
								c-0.215,0.042-0.433,0.078-0.644,0.126c-0.006-0.081-0.016-0.163-0.027-0.25c0.036,0.257,0.051,0.504,0.058,0.752
								c0,0.146-0.17,0.272-0.433,0.323c0.52-0.078,1.097-0.178,1.684-0.299c9.618-2.007,13.834-7.361,9.383-11.937
								C117.526,98.721,106.073,96.639,96.448,98.648z"/>
						</g>
					</g>
				</g>
				<g>
					<g>
						<path fill="#A7D05F" d="M110.588,107.366c-0.179,0.04-0.317,0.106-0.387,0.193c-0.148,0.188,0.055,0.393,0.453,0.469
							l2.131,0.393c0.199,0.033,0.41,0.027,0.583-0.006c0.178-0.036,0.326-0.109,0.396-0.203c0.151-0.184-0.048-0.393-0.45-0.465
							l-2.148-0.39C110.975,107.321,110.763,107.327,110.588,107.366z"/>
					</g>
				</g>
			</g>
		</g>
	</g>
</g>
</svg>
