<?xml version="1.0" encoding="utf-8"?>
<!-- Generator: Adobe Illustrator 16.0.0, SVG Export Plug-In . SVG Version: 6.00 Build 0)  -->
<!DOCTYPE svg PUBLIC "-//W3C//DTD SVG 1.1//EN" "http://www.w3.org/Graphics/SVG/1.1/DTD/svg11.dtd">
<svg version="1.1" id="Layer_1" xmlns="http://www.w3.org/2000/svg" xmlns:xlink="http://www.w3.org/1999/xlink" x="0px" y="0px"
	 width="155.253px" height="139px" viewBox="18.5 0 155.253 139" enable-background="new 18.5 0 155.253 139" xml:space="preserve">
<g>
	<circle fill="#B5DDF5" cx="88.458" cy="69.235" r="67.248"/>
</g>
<g>
	<g>
		<defs>
			<circle id="SVGID_1_" cx="88.458" cy="69.235" r="67.248"/>
		</defs>
		<clipPath id="SVGID_2_">
			<use xlink:href="#SVGID_1_"  overflow="visible"/>
		</clipPath>
		<g clip-path="url(#SVGID_2_)">
			<g>
				<g>
					<path fill="#899AAE" d="M129.363,111.166c0,0.84-0.678,1.518-1.516,1.518H50.123c-0.842,0-1.52-0.678-1.52-1.518V91.945
						c0-0.84,0.678-1.519,1.52-1.519h77.725c0.84,0,1.518,0.679,1.518,1.519v19.221H129.363z"/>
				</g>
				<g>
					<path fill="#424E4D" d="M127.848,113.189H50.123c-1.117,0-2.024-0.908-2.024-2.023V91.945c0-1.117,0.907-2.023,2.024-2.023
						h77.725c1.116,0,2.022,0.906,2.022,2.023v19.221C129.87,112.281,128.964,113.189,127.848,113.189z M50.123,90.932
						c-0.56,0-1.013,0.457-1.013,1.014v19.222c0,0.558,0.453,1.013,1.013,1.013h77.725c0.56,0,1.012-0.455,1.012-1.013V91.945
						c0-0.557-0.452-1.014-1.012-1.014H50.123L50.123,90.932z"/>
				</g>
			</g>
			<g>
				<g>
					<path fill="#F16951" d="M138.576,109.016c-1.326-7.461-2.529-7.395-5.967-9.262c-3.058-1.482-9.84-4.268-15.403-6.734
						c-5.565-2.465-11.067-7.774-11.067-7.774h-16.88H71.618c0,0-5.499,5.312-11.065,7.774c-5.563,2.467-12.348,5.252-15.404,6.734
						c-3.437,1.867-4.638,1.801-5.966,9.262c-1.328,7.463-5.438,30.539-5.438,30.539l18.271,3.604v29.465h37.243h36.482v-29.465
						l18.272-3.604C144.014,139.555,139.902,116.479,138.576,109.016z"/>
				</g>
				<g>
					<path fill="#424E4D" d="M125.741,173.129H52.016c-0.277,0-0.504-0.227-0.504-0.506v-29.047l-17.863-3.525
						c-0.271-0.053-0.449-0.312-0.4-0.586l5.438-30.537c1.247-7.018,2.527-7.682,5.331-9.146c0.279-0.146,0.576-0.3,0.89-0.472
						c1.844-0.895,5.013-2.252,8.371-3.688c2.362-1.015,4.808-2.06,7.072-3.063c5.42-2.402,10.865-7.623,10.92-7.681
						c0.093-0.09,0.218-0.142,0.349-0.142h34.521c0.135,0,0.26,0.052,0.353,0.142c0.055,0.058,5.505,5.281,10.92,7.681
						c2.267,1.006,4.709,2.051,7.073,3.063c3.354,1.438,6.527,2.795,8.348,3.68c0.334,0.183,0.633,0.337,0.91,0.48
						c2.806,1.465,4.085,2.129,5.332,9.146l5.438,30.537c0.049,0.273-0.128,0.533-0.4,0.586l-17.862,3.525v29.047
						C126.247,172.902,126.021,173.129,125.741,173.129z M52.525,172.117h72.709v-28.959c0-0.24,0.17-0.449,0.406-0.496
						l17.786-3.508l-5.349-30.051c-1.163-6.523-2.151-7.039-4.803-8.427c-0.287-0.146-0.588-0.305-0.906-0.477
						c-1.78-0.865-4.939-2.218-8.286-3.65c-2.365-1.014-4.812-2.061-7.084-3.067c-5.138-2.277-10.126-6.853-11.062-7.732H71.821
						c-0.936,0.881-5.922,5.455-11.062,7.732c-2.272,1.008-4.72,2.055-7.085,3.067c-3.348,1.435-6.506,2.785-8.306,3.66
						c-0.302,0.162-0.6,0.319-0.885,0.467c-2.651,1.388-3.641,1.902-4.803,8.427l-5.349,30.051l17.784,3.508
						c0.238,0.047,0.409,0.256,0.409,0.496L52.525,172.117L52.525,172.117z"/>
				</g>
			</g>
			<g>
				<g>
					<g>
						<path fill="#424E4D" d="M114.688,124.412c0.102-0.02,0.203-0.045,0.308-0.064c0.479-0.08,0.946-0.254,1.444-0.203
							c0.119,0.013,0.236,0.025,0.356,0.047c0.081,0.013,0.177,0.025,0.209-0.065c0.022-0.065,0.022-0.162-0.01-0.222
							c-0.095-0.194-0.245-0.325-0.464-0.387c-0.344-0.092-0.689-0.1-1.027-0.059c-0.459,0.059-0.913,0.176-1.367,0.277
							c-0.64,0.143-1.56,0.479-2.224,0.535c-0.263,0.022-0.365,0.209-0.304,0.487c0.057,0.25,0.229,0.337,0.486,0.269
							c0.424-0.113,1.168-0.277,1.594-0.387c0.033-0.011,0.06-0.017,0.082-0.019l-0.207,7.334h-0.002
							c-0.004,0.037,0,0.076,0.006,0.114c0.013,0.101,0.078,0.207,0.189,0.201c0.115-0.006,0.271-0.065,0.34-0.151
							c0.071-0.088,0.092-0.147,0.107-0.254l0.004-0.062l0.419-7.375C114.646,124.424,114.668,124.416,114.688,124.412z"/>
					</g>
				</g>
				<g>
					<g>
						<path fill="#424E4D" d="M112.557,125.541c0.1-0.23,0.139-0.484,0.112-0.762c-0.021-0.236-0.071-0.455-0.149-0.644
							c-0.09-0.206-0.197-0.389-0.328-0.54c-0.078-0.091-0.164-0.179-0.26-0.255c-0.396-0.332-0.896-0.498-1.406-0.475
							c-0.03,0-0.063,0.002-0.096,0.006c-0.545,0.049-1.041,0.312-1.393,0.729c-0.374,0.449-0.539,0.982-0.469,1.506
							c0.025,0.177,0.16,0.293,0.332,0.285c0.004,0,0.01,0,0.018,0c0.09-0.01,0.156-0.039,0.195-0.094
							c0.039-0.057,0.047-0.127,0.025-0.219c-0.035-0.139-0.064-0.527,0.387-1.07c0.244-0.291,0.586-0.469,0.963-0.506
							c0.023,0,0.043-0.002,0.063-0.004c0.354-0.018,0.7,0.102,0.972,0.328c0.439,0.365,0.584,1.027,0.336,1.543
							c-0.104,0.213-0.231,0.406-0.379,0.578c-0.148,0.172-0.312,0.318-0.49,0.434c-0.102,0.068-0.211,0.133-0.326,0.186
							c-0.03,0.017-0.1,0.05-0.137,0.058c-0.008-0.026-0.012-0.078-0.008-0.153c0.002-0.304,0.015-1.23,0.015-1.25
							c0-0.013,0.014-0.888-0.011-0.945c-0.053-0.133-0.146-0.191-0.285-0.185c-0.016,0-0.027,0-0.047,0.003
							c-0.156,0.021-0.25,0.098-0.285,0.245v0.009v0.008l-0.07,1.377c-0.006,0.211-0.01,0.396-0.016,0.572
							c-0.008,0.168-0.016,0.334-0.024,0.502c-0.015,0.332-0.032,0.68-0.036,1.02c-0.008,0.449-0.01,0.932,0.021,1.416l0.004,0.037
							c0.007,0.123,0.02,0.328,0.035,0.424c0,0.004,0.002,0.018,0.006,0.037c0.021,0.174,0.048,0.381,0.062,0.449
							c0.033,0.147,0.129,0.252,0.26,0.283c0.041,0.012,0.09,0.018,0.137,0.014c0.14-0.006,0.252-0.072,0.297-0.182
							c0.029-0.068,0.023-0.144,0.02-0.203v-0.017c0-0.021-0.004-0.101-0.016-0.213c-0.021-0.326-0.062-0.931-0.07-1.133
							c-0.004-0.205,0.01-1.113,0.01-1.152c0-0.016,0-0.028,0-0.043c-0.002-0.073,0-0.098,0.017-0.104
							c0.276-0.104,0.509-0.158,0.733-0.168c0.115-0.002,0.232,0.002,0.344,0.022c0.158,0.024,0.265,0.119,0.32,0.277
							c0.043,0.127,0.063,0.268,0.063,0.428c-0.002,0.06-0.013,0.586-0.169,1.11c-0.002,0.003-0.002,0.009-0.002,0.011
							c-0.18,0.53-0.546,1.037-1.007,1.385c-0.076,0.06-0.158,0.111-0.239,0.162c-0.309,0.162-0.915,0.265-0.924,0.267
							c-0.086,0.012-0.176,0.02-0.26,0.024H109.4c-0.006,0-0.01,0-0.014,0c-0.006,0-0.009,0-0.013,0.002h-0.005
							c-0.145,0.006-0.223,0.067-0.268,0.119c-0.065,0.084-0.088,0.203-0.062,0.349c0.031,0.168,0.152,0.282,0.33,0.303v-0.025
							v0.025c0.007,0,0.091,0.004,0.102,0.004h0.004h0.002c0.002-0.002,0.149-0.01,0.211-0.014c0.543-0.023,1.094-0.236,1.59-0.611
							c0.582-0.438,1.027-1.043,1.259-1.701l0.002-0.01c0.183-0.486,0.244-1.008,0.19-1.543c-0.043-0.459-0.26-0.799-0.641-1.01
							c-0.121-0.068-0.303-0.138-0.469-0.173C112.07,126.322,112.37,125.961,112.557,125.541z"/>
					</g>
				</g>
			</g>
			<g>
				<g>
					<rect x="75.137" y="82.598" fill="#906A54" width="27.568" height="16.756"/>
				</g>
				<g>
					<path fill="#424E4D" d="M102.705,99.857H75.137c-0.28,0-0.504-0.226-0.504-0.504V82.598c0-0.279,0.225-0.504,0.504-0.504
						h27.568c0.279,0,0.504,0.225,0.504,0.504v16.756C103.209,99.633,102.984,99.857,102.705,99.857z M75.642,98.848h26.559V83.105
						H75.642V98.848z"/>
				</g>
			</g>
			<g>
				<g>
					<path fill="#424E4D" d="M113.752,136.012c-0.038,0-0.079-0.004-0.118-0.014l-7.688-1.814c-0.229-0.053-0.389-0.256-0.389-0.492
						v-17.104c0-0.278,0.223-0.508,0.506-0.508h15.377c0.281,0,0.506,0.229,0.506,0.508v17.104c0,0.236-0.161,0.439-0.389,0.492
						l-7.69,1.814C113.828,136.008,113.79,136.012,113.752,136.012z M106.568,133.293l7.184,1.691l7.186-1.691v-16.201h-14.369
						V133.293L106.568,133.293z"/>
				</g>
			</g>
			<g>
				<g>
					<rect x="106.062" y="116.586" fill="#6EBBDA" width="15.377" height="3.758"/>
				</g>
				<g>
					<path fill="#424E4D" d="M121.439,120.85h-15.377c-0.283,0-0.506-0.229-0.506-0.506v-3.758c0-0.279,0.223-0.508,0.506-0.508
						h15.377c0.281,0,0.506,0.229,0.506,0.508v3.758C121.945,120.621,121.723,120.85,121.439,120.85z M106.568,119.836h14.367
						v-2.744h-14.367V119.836z"/>
				</g>
			</g>
			<g>
				<g>
					<path fill="#906A54" d="M115.168,35.631c-2.921,0-5.412,1.811-6.423,4.365c-2.19-1.637-5.79-3.549-10.106-4.816l0,0
						c-0.464-1.385,1.53-3.258,1.53-3.258c-1.742-0.369-4.554,1.52-5.64,2.312c-0.217-0.036-0.432-0.079-0.65-0.11
						c-0.475-1.631,0.711-4.818,0.711-4.818c-2.105,0.638-4.498,3.367-5.397,4.472c-0.202,0.001-0.4-0.004-0.602,0
						c-0.912-2.434,1.184-7.42,1.184-7.42c-5.311,2.108-8.284,8.303-8.284,8.303h0.008c-5.51,1.233-10.101,3.549-12.488,5.653
						c-0.928-2.722-3.502-4.684-6.539-4.684c-3.819,0-6.915,3.095-6.915,6.913c0,3.817,3.096,6.911,6.915,6.911
						c0.343,0,0.68-0.033,1.012-0.08c-0.013,2.592-0.028,6.996-0.028,14.851c0,12.382,13.779,22.602,25.823,22.526l0,0
						c0.01,0,0.021,0,0.033,0c0.011,0,0.018,0,0.028,0l0,0c12.047,0.076,25.828-10.144,25.828-22.526
						c0-7.773-0.014-12.167-0.029-14.771c0.008,0,0.019,0,0.029,0c3.814,0,6.912-3.094,6.912-6.911
						C122.08,38.727,118.982,35.631,115.168,35.631z"/>
				</g>
				<g>
					<path fill="#424E4D" d="M89.34,87.26c-0.002,0-0.021,0-0.025,0h-0.15c-5.996,0-12.602-2.525-17.69-6.754
						c-5.497-4.568-8.523-10.35-8.523-16.28c0-6.122,0.007-10.921,0.025-14.284c-0.178,0.013-0.344,0.019-0.504,0.019
						c-4.093,0-7.419-3.327-7.419-7.417c0-4.091,3.326-7.419,7.419-7.419c2.929,0,5.558,1.723,6.75,4.354
						c2.761-2.198,7.233-4.175,11.924-5.255c0.597-1.157,3.517-6.382,8.44-8.338c0.191-0.074,0.406-0.027,0.549,0.117
						c0.143,0.146,0.184,0.363,0.104,0.551c-0.527,1.256-1.715,4.767-1.277,6.707c1.049-1.26,3.368-3.798,5.482-4.437
						c0.184-0.055,0.385-0.003,0.515,0.137c0.132,0.14,0.171,0.342,0.104,0.522c-0.287,0.778-0.938,2.926-0.76,4.198
						c0.024,0.004,0.051,0.01,0.075,0.014l0.024,0.004c1.293-0.924,3.543-2.331,5.283-2.331c0.207,0,0.399,0.019,0.584,0.057
						c0.184,0.04,0.332,0.178,0.383,0.359c0.051,0.182-0.004,0.376-0.141,0.506c-0.418,0.392-1.484,1.614-1.439,2.491
						c3.494,1.06,6.962,2.69,9.46,4.442c1.252-2.511,3.792-4.099,6.633-4.099c4.089,0,7.417,3.328,7.417,7.419
						c0,3.929-3.072,7.154-6.938,7.404c0.017,3.322,0.024,8.121,0.024,14.278c0,5.93-3.026,11.71-8.522,16.28
						c-5.09,4.229-11.693,6.754-17.67,6.754L89.34,87.26L89.34,87.26z M89.279,86.248c0.019,0,0.036,0,0.051,0.002l0.01,0.502
						l-0.005-0.504h0.123c11.424,0,25.201-9.822,25.201-22.022c0-6.467-0.007-11.437-0.025-14.768c0-0.134,0.052-0.262,0.146-0.36
						c0.104-0.104,0.267-0.161,0.416-0.146c3.504-0.001,6.38-2.875,6.38-6.408s-2.876-6.408-6.406-6.408
						c-2.642,0-4.979,1.589-5.955,4.046c-0.06,0.146-0.18,0.258-0.33,0.301c-0.153,0.042-0.317,0.013-0.444-0.083
						c-2.496-1.87-6.211-3.642-9.94-4.735c-0.159-0.047-0.284-0.167-0.338-0.324c-0.338-1.006,0.272-2.119,0.853-2.88
						c-1.58,0.35-3.553,1.72-4.182,2.183c-0.111,0.08-0.25,0.113-0.385,0.09l-0.24-0.042c-0.133-0.023-0.266-0.048-0.4-0.067
						c-0.193-0.029-0.354-0.17-0.41-0.359c-0.334-1.148,0.045-2.906,0.369-4.039c-1.766,1.018-3.588,3.149-4.178,3.872
						c-0.097,0.115-0.239,0.185-0.39,0.185l-0.414-0.002l-0.178,0.002c-0.005,0-0.01,0-0.014,0c-0.208,0-0.4-0.13-0.473-0.327
						c-0.696-1.857,0.167-4.938,0.746-6.62c-4.153,2.233-6.613,6.945-6.891,7.491c-0.053,0.163-0.189,0.289-0.362,0.329
						c-5.914,1.321-10.212,3.727-12.265,5.539c-0.127,0.112-0.301,0.154-0.464,0.108c-0.167-0.043-0.296-0.166-0.35-0.325
						c-0.884-2.598-3.322-4.342-6.06-4.342c-3.534,0-6.41,2.875-6.41,6.408c0,3.533,2.876,6.407,6.41,6.407
						c0.28,0,0.576-0.024,0.938-0.075c0.148-0.022,0.296,0.021,0.405,0.118c0.113,0.096,0.176,0.238,0.173,0.385
						c-0.015,3.376-0.028,8.374-0.028,14.848c0,12.2,13.779,22.022,25.184,22.022h0.132C89.279,86.248,89.279,86.248,89.279,86.248z
						"/>
				</g>
			</g>
			<g>
				<g>
					<path fill="#BF8B77" d="M105.042,69.993c0,5.089-7.058,9.214-15.763,9.214s-15.764-4.125-15.764-9.214
						c0-5.094,7.058-9.217,15.764-9.217C97.984,60.775,105.042,64.899,105.042,69.993z"/>
				</g>
				<g>
					<path fill="#424E4D" d="M89.279,79.969c-9.108,0-16.521-4.475-16.521-9.976c0-5.5,7.412-9.976,16.521-9.976
						c9.112,0,16.522,4.476,16.522,9.976C105.802,75.494,98.391,79.969,89.279,79.969z M89.279,61.532
						c-8.273,0-15.003,3.797-15.003,8.46s6.73,8.457,15.003,8.457s15.004-3.793,15.004-8.457S97.553,61.532,89.279,61.532z"/>
				</g>
			</g>
			<g>
				<g>
					<path fill="#FFFFFF" d="M94.078,75.303c0,2.113-1.828,5.777-4.882,5.777l0.028-13.033
						C89.198,73.684,94.078,75.303,94.078,75.303z"/>
				</g>
				<g>
					<path fill="#424E4D" d="M89.196,81.84c-0.201,0-0.395-0.08-0.536-0.223c-0.142-0.143-0.224-0.336-0.224-0.537l0.028-13.034
						c0-0.001,0-0.003,0-0.003c0.002-0.418,0.342-0.755,0.76-0.755h0.003c0.42,0.002,0.756,0.341,0.756,0.76
						c0,0.007,0,0.016-0.002,0.025c0.002,0.006,0.002,0.015,0.002,0.023c0,4.991,4.292,6.476,4.335,6.487
						c0.312,0.104,0.518,0.396,0.518,0.719c0,1.298-0.549,2.875-1.434,4.121C92.296,80.98,90.802,81.84,89.196,81.84z
						 M89.971,73.027l-0.014,7.195c1.902-0.503,3.113-2.822,3.327-4.435C92.509,75.416,91.077,74.572,89.971,73.027z"/>
				</g>
			</g>
			<g>
				<g>
					<path fill="#FFFFFF" d="M84.313,75.367c0,2.109,1.825,5.713,4.883,5.713l0.028-13.033
						C89.252,73.684,84.313,75.367,84.313,75.367z"/>
				</g>
				<g>
					<path fill="#424E4D" d="M89.196,81.84c-3.445,0-5.643-3.834-5.643-6.473c0-0.322,0.209-0.613,0.516-0.717
						c0.176-0.064,4.349-1.574,4.394-6.478v-0.128c0.002-0.42,0.342-0.758,0.76-0.758l0,0c0.417,0,0.757,0.336,0.759,0.755
						l-0.002,0.137l-0.025,12.903C89.955,81.5,89.613,81.84,89.196,81.84z M85.106,75.848c0.217,1.594,1.427,3.883,3.332,4.379
						l0.016-7.174C87.337,74.609,85.884,75.471,85.106,75.848z"/>
				</g>
			</g>
			<g>
				<g>
					<path fill="#424E4D" d="M78.358,51.353c0,1.631-1.321,2.952-2.95,2.952c-1.629,0-2.95-1.321-2.95-2.952
						c0-1.627,1.321-2.948,2.95-2.948C77.037,48.404,78.358,49.725,78.358,51.353z"/>
				</g>
				<g>
					<path fill="#424E4D" d="M75.408,55.063c-2.045,0-3.709-1.664-3.709-3.71c0-2.045,1.664-3.708,3.709-3.708
						c2.044,0,3.707,1.663,3.707,3.708C79.115,53.399,77.453,55.063,75.408,55.063z M75.408,49.162c-1.211,0-2.193,0.982-2.193,2.19
						c0,1.209,0.982,2.193,2.193,2.193c1.208,0,2.192-0.984,2.192-2.193C77.601,50.145,76.616,49.162,75.408,49.162z"/>
				</g>
			</g>
			<g>
				<g>
					<path fill="#424E4D" d="M106.234,51.353c0,1.631-1.319,2.952-2.951,2.952c-1.629,0-2.95-1.321-2.95-2.952
						c0-1.627,1.321-2.948,2.95-2.948C104.915,48.404,106.234,49.725,106.234,51.353z"/>
				</g>
				<g>
					<path fill="#424E4D" d="M103.283,55.063c-2.045,0-3.706-1.664-3.706-3.71c0-2.045,1.661-3.708,3.706-3.708
						c2.046,0,3.71,1.663,3.71,3.708C106.993,53.399,105.329,55.063,103.283,55.063z M103.283,49.162
						c-1.207,0-2.189,0.982-2.189,2.19c0,1.209,0.982,2.193,2.189,2.193c1.209,0,2.191-0.984,2.191-2.193
						C105.477,50.145,104.492,49.162,103.283,49.162z"/>
				</g>
			</g>
			<g>
				<g>
					<circle fill="#FFFFFF" cx="104.409" cy="49.928" r="1.827"/>
				</g>
			</g>
			<g>
				<g>
					<circle fill="#FFFFFF" cx="76.532" cy="49.928" r="1.825"/>
				</g>
			</g>
			<g>
				<g>
					<g>
						<path fill="#906A54" d="M98.247,52.688c-0.034,0.366,2.26,0.884,5.129,1.155c2.868,0.27,5.222,0.195,5.254-0.171l1.585,0.149
							l-0.309,3.262L96.352,55.8l0.31-3.263L98.247,52.688z"/>
					</g>
				</g>
			</g>
			<g>
				<g>
					<g>
						<path fill="#906A54" d="M80.446,52.688c0.035,0.366-2.264,0.884-5.13,1.155c-2.867,0.27-5.22,0.195-5.257-0.171l-1.583,0.149
							l0.308,3.262L82.337,55.8l-0.306-3.263L80.446,52.688z"/>
					</g>
				</g>
			</g>
			<g>
				<g>
					<path fill="#BF8B77" d="M112.891,64.41c-0.66-0.917-2.265-2.856-7.968-6.179c-6.889-4.001-15.185-3.989-15.644-3.984
						c-0.458-0.005-8.751-0.017-15.644,3.984c-5.703,3.323-7.304,5.262-7.966,6.179c-0.709,0.978-1.397,2.097-1.397,3.889
						c0,1.793,1,3.045,2.215,4.422c1.214,1.375,4.248,3.994,9.666,4.117c8.757,0,12.757-3.373,13.071-8.791
						c0.313,5.418,4.426,8.791,13.186,8.791c5.415-0.123,8.447-2.742,9.666-4.117c1.213-1.377,2.209-2.629,2.209-4.422
						C114.284,66.507,113.6,65.387,112.891,64.41z"/>
				</g>
				<g>
					<path fill="#424E4D" d="M102.409,77.344c-8.617,0-12.021-3.166-13.183-6.584c-1.157,3.418-4.53,6.584-13.074,6.584
						c-5.765-0.133-8.946-3.043-10.045-4.289c-1.279-1.451-2.34-2.807-2.34-4.756c0-1.962,0.769-3.19,1.491-4.188
						c0.852-1.176,2.621-3.112,8.123-6.317c6.787-3.942,14.922-4.054,15.827-4.054h0.077h0.066c0.905,0,9.04,0.112,15.829,4.053
						c6.141,3.582,7.633,5.642,8.121,6.318c0.723,0.998,1.491,2.226,1.491,4.188c0,1.949-1.06,3.305-2.34,4.756
						c-1.101,1.246-4.28,4.156-10.032,4.289C102.414,77.344,102.411,77.344,102.409,77.344z M89.208,54.752
						c-0.877,0-8.759,0.108-15.32,3.917c-5.95,3.468-7.35,5.402-7.811,6.038c-0.655,0.908-1.298,1.934-1.298,3.593
						c0,1.598,0.902,2.748,2.085,4.086c1.013,1.146,3.945,3.826,9.298,3.947c8.009,0,12.238-2.797,12.557-8.315
						c0.015-0.269,0.237-0.478,0.504-0.478s0.489,0.208,0.505,0.478c0.316,5.438,4.697,8.315,12.674,8.315
						c5.348-0.123,8.279-2.801,9.291-3.947c1.185-1.338,2.086-2.488,2.086-4.086c0-1.659-0.643-2.685-1.299-3.593
						c-0.461-0.634-1.856-2.565-7.812-6.039c-6.56-3.807-14.44-3.916-15.318-3.916h-0.066H89.208z"/>
				</g>
			</g>
			<g>
				<g>
					<path fill="#566262" d="M89.141,51.081c-3.634,0-5.794,0.821-5.794,1.738c0,3.473,3.378,7.016,5.794,7.016
						c2.417,0,5.798-3.543,5.798-7.016C94.939,51.902,92.779,51.081,89.141,51.081z"/>
				</g>
				<g>
					<path fill="#424E4D" d="M89.141,60.341c-2.691,0-6.299-3.72-6.299-7.522c0-1.363,2.473-2.244,6.299-2.244
						c3.832,0,6.304,0.88,6.304,2.244C95.445,56.621,91.834,60.341,89.141,60.341z M89.141,51.588c-3.764,0-5.289,0.867-5.289,1.231
						c0,3.141,3.105,6.509,5.289,6.509c2.188,0,5.291-3.368,5.291-6.509C94.432,52.455,92.909,51.588,89.141,51.588z"/>
				</g>
			</g>
			<g>
				<g>
					<path fill="#566262" d="M80.051,54.304c-0.161,0.087-3.769,1.371-9.288,1.009"/>
				</g>
				<g>
					<path fill="#424E4D" d="M72.715,55.882c-0.632,0-1.294-0.019-1.985-0.063c-0.28-0.019-0.49-0.261-0.472-0.538
						c0.018-0.278,0.25-0.494,0.539-0.474c5.534,0.364,9.006-0.945,9.034-0.958c0.248-0.11,0.548-0.007,0.668,0.236
						c0.117,0.245,0.03,0.537-0.209,0.666C79.97,54.923,77.096,55.882,72.715,55.882z"/>
				</g>
			</g>
			<g>
				<g>
					<path fill="#566262" d="M98.639,54.304c0.163,0.087,3.771,1.371,9.291,1.009"/>
				</g>
				<g>
					<path fill="#424E4D" d="M105.977,55.882c-4.383,0-7.252-0.958-7.576-1.132c-0.246-0.132-0.34-0.439-0.209-0.687
						c0.133-0.24,0.425-0.335,0.67-0.213c0.106,0.042,3.56,1.315,9.035,0.957c0.287-0.019,0.52,0.195,0.537,0.474
						c0.019,0.277-0.193,0.519-0.472,0.538C107.271,55.863,106.607,55.882,105.977,55.882z"/>
				</g>
			</g>
			<g>
				<g>
					<path fill="#637070" d="M91.229,53.394c0,0.468-0.935,0.853-2.087,0.853c-1.152,0-2.085-0.385-2.085-0.853
						c0-0.473,0.933-0.856,2.085-0.856C90.295,52.538,91.229,52.921,91.229,53.394z"/>
				</g>
			</g>
			<g>
				<g>
					<path fill="#424E4D" d="M97.372,66.047c-0.233,0-0.438-0.162-0.492-0.393c-0.062-0.275,0.111-0.546,0.382-0.606
						c0.129-0.029,13.36-2.927,31.278-0.836c0.28,0.034,0.476,0.285,0.444,0.563c-0.033,0.276-0.275,0.479-0.562,0.445
						c-17.736-2.074-30.809,0.786-30.938,0.813C97.448,66.044,97.41,66.047,97.372,66.047z"/>
				</g>
			</g>
			<g>
				<g>
					<path fill="#424E4D" d="M125.445,70.279c-0.038,0-0.075-0.004-0.116-0.012c-10.507-2.484-24.981-1.56-25.128-1.549
						c-0.271,0.012-0.521-0.194-0.538-0.471c-0.017-0.278,0.19-0.52,0.474-0.54c0.145-0.009,14.771-0.945,25.426,1.574
						c0.271,0.062,0.438,0.337,0.375,0.608C125.882,70.123,125.675,70.279,125.445,70.279z"/>
				</g>
			</g>
			<g>
				<g>
					<path fill="#424E4D" d="M118.534,73.736c-0.05,0-0.101-0.006-0.146-0.021c-5.271-1.565-16.867-1.916-16.984-1.918
						c-0.279-0.008-0.5-0.241-0.491-0.521c0.011-0.279,0.252-0.49,0.521-0.494c0.479,0.016,11.846,0.359,17.242,1.963
						c0.27,0.078,0.422,0.361,0.344,0.629C118.952,73.594,118.751,73.736,118.534,73.736z"/>
				</g>
			</g>
			<g>
				<g>
					<path fill="#424E4D" d="M80.935,66.047c-0.038,0-0.074-0.003-0.112-0.013c-0.131-0.027-13.201-2.887-30.938-0.813
						c-0.287,0.034-0.53-0.168-0.561-0.445c-0.034-0.278,0.166-0.529,0.444-0.563c17.919-2.093,31.146,0.807,31.276,0.836
						c0.273,0.06,0.443,0.331,0.383,0.606C81.374,65.885,81.164,66.047,80.935,66.047z"/>
				</g>
			</g>
			<g>
				<g>
					<path fill="#424E4D" d="M52.86,70.279c-0.229,0-0.435-0.156-0.491-0.389c-0.064-0.271,0.104-0.545,0.377-0.608
						c10.656-2.519,25.28-1.583,25.425-1.574c0.28,0.02,0.492,0.262,0.471,0.54c-0.017,0.277-0.265,0.483-0.538,0.471
						c-0.146-0.01-14.621-0.936-25.127,1.549C52.937,70.275,52.899,70.279,52.86,70.279z"/>
				</g>
			</g>
			<g>
				<g>
					<path fill="#424E4D" d="M59.775,73.736c-0.219,0-0.42-0.144-0.487-0.361c-0.079-0.268,0.073-0.551,0.341-0.629
						c5.395-1.604,16.762-1.947,17.245-1.963c0.262,0,0.512,0.215,0.516,0.494c0.011,0.279-0.21,0.514-0.489,0.521
						c-0.117,0.002-11.715,0.353-16.984,1.918C59.87,73.73,59.821,73.736,59.775,73.736z"/>
				</g>
			</g>
			<g>
				<g>
					<circle fill="#BF8B77" cx="63.334" cy="42.544" r="5.27"/>
				</g>
			</g>
			<g>
				<g>
					<path fill="#BF8B77" d="M119.246,42.544c0,2.91-2.359,5.268-5.268,5.268c-2.912,0-5.272-2.358-5.272-5.268
						c0-2.911,2.36-5.27,5.272-5.27C116.887,37.274,119.246,39.634,119.246,42.544z"/>
				</g>
			</g>
			<g>
				<g>
					<path fill="#424E4D" d="M115.168,49.961c-1.145,0-2.236-0.251-3.255-0.746c-0.249-0.124-0.354-0.427-0.231-0.678
						s0.426-0.355,0.676-0.232c0.881,0.427,1.824,0.646,2.812,0.646c3.53,0,6.406-2.874,6.406-6.407s-2.876-6.408-6.406-6.408
						c-3.537,0-6.41,2.875-6.41,6.408c0,0.279-0.225,0.505-0.505,0.505c-0.279,0-0.505-0.226-0.505-0.505
						c0-4.091,3.327-7.419,7.42-7.419c4.089,0,7.417,3.328,7.417,7.419C122.585,46.634,119.257,49.961,115.168,49.961z"/>
				</g>
			</g>
			<g>
				<g>
					<path fill="#424E4D" d="M62.473,49.961c-4.093,0-7.419-3.327-7.419-7.417c0-4.091,3.326-7.419,7.419-7.419
						c4.089,0,7.415,3.328,7.415,7.419c0,0.279-0.224,0.505-0.504,0.505c-0.278,0-0.505-0.226-0.505-0.505
						c0-3.533-2.873-6.408-6.406-6.408c-3.534,0-6.41,2.875-6.41,6.408s2.876,6.407,6.41,6.407c0.984,0,1.93-0.219,2.807-0.646
						c0.25-0.124,0.553-0.018,0.675,0.232c0.123,0.251,0.019,0.554-0.231,0.678C64.706,49.71,63.611,49.961,62.473,49.961z"/>
				</g>
			</g>
			<g>
				<g>
					<polygon fill="#899AAE" points="61.292,169.461 51.806,169.461 51.806,94.727 61.292,90.977 					"/>
				</g>
				<g>
					<path fill="#424E4D" d="M61.292,169.969h-9.486c-0.278,0-0.505-0.229-0.505-0.508V94.727c0-0.207,0.13-0.395,0.321-0.469
						l9.483-3.752c0.156-0.061,0.329-0.043,0.472,0.051c0.135,0.096,0.22,0.252,0.22,0.42v78.484
						C61.797,169.74,61.57,169.969,61.292,169.969z M52.312,168.957h8.472V91.719l-8.472,3.354V168.957z"/>
				</g>
			</g>
			<g>
				<g>
					<polygon fill="#637070" points="54.97,178.945 58.256,178.945 58.256,92.199 54.97,93.463 					"/>
				</g>
				<g>
					<path fill="#424E4D" d="M58.256,179.451H54.97c-0.282,0-0.505-0.227-0.505-0.506V93.463c0-0.209,0.127-0.396,0.321-0.473
						l3.289-1.264c0.155-0.06,0.332-0.041,0.468,0.055c0.136,0.094,0.22,0.252,0.22,0.418v86.746
						C58.763,179.225,58.536,179.451,58.256,179.451z M55.474,178.439h2.277V92.932l-2.277,0.877V178.439z"/>
				</g>
			</g>
			<g>
				<g>
					<path fill="#637070" d="M53.862,140.744c0,0.539,0.437,0.975,0.974,0.975h3.491c0.537,0,0.971-0.436,0.971-0.975v-4.139
						c0-0.537-0.434-0.976-0.971-0.976h-3.491c-0.538,0-0.974,0.438-0.974,0.976V140.744z"/>
				</g>
				<g>
					<path fill="#424E4D" d="M58.327,142.225h-3.491c-0.815,0-1.479-0.664-1.479-1.479v-4.14c0-0.813,0.664-1.479,1.479-1.479h3.491
						c0.812,0,1.478,0.666,1.478,1.479v4.14C59.805,141.561,59.14,142.225,58.327,142.225z M54.836,136.137
						c-0.259,0-0.468,0.211-0.468,0.469v4.14c0,0.26,0.209,0.471,0.468,0.471h3.491c0.257,0,0.465-0.211,0.465-0.471v-4.14
						c0-0.258-0.208-0.469-0.465-0.469H54.836z"/>
				</g>
			</g>
			<g>
				<g>
					<line fill="none" x1="56.583" y1="136.305" x2="56.583" y2="138.711"/>
				</g>
				<g>
					<path fill="#424E4D" d="M56.583,139.221c-0.28,0-0.507-0.229-0.507-0.51v-2.406c0-0.279,0.227-0.504,0.507-0.504
						c0.278,0,0.505,0.225,0.505,0.504v2.406C57.087,138.992,56.861,139.221,56.583,139.221z"/>
				</g>
			</g>
			<g>
				<g>
					<circle fill="#424E4D" cx="56.675" cy="133.736" r="0.505"/>
				</g>
			</g>
			<g>
				<g>
					<circle fill="#424E4D" cx="56.675" cy="143.854" r="0.505"/>
				</g>
			</g>
			<g>
				<g>
					<path fill="#424E4D" d="M56.17,146.635c0,0.281,0.227,0.508,0.505,0.508c0.28,0,0.504-0.227,0.504-0.508
						c0-0.277-0.224-0.506-0.504-0.506C56.397,146.129,56.17,146.357,56.17,146.635z"/>
				</g>
			</g>
			<g>
				<g>
					<circle fill="#424E4D" cx="56.675" cy="130.512" r="0.505"/>
				</g>
			</g>
			<g>
				<g>
					<circle fill="#424E4D" cx="56.675" cy="127.287" r="0.505"/>
				</g>
			</g>
			<g>
				<g>
					<polygon fill="#899AAE" points="116.174,169.461 125.657,169.461 125.657,94.727 116.174,90.977 					"/>
				</g>
				<g>
					<path fill="#424E4D" d="M125.657,169.969h-9.483c-0.279,0-0.508-0.229-0.508-0.508V90.977c0-0.168,0.084-0.324,0.223-0.42
						c0.141-0.094,0.312-0.111,0.469-0.051l9.488,3.752c0.188,0.074,0.316,0.262,0.316,0.469v74.734
						C126.162,169.74,125.936,169.969,125.657,169.969z M116.68,168.957h8.473V95.072l-8.473-3.354V168.957z"/>
				</g>
			</g>
			<g>
				<g>
					<polygon fill="#637070" points="122.494,178.945 119.208,178.945 119.208,92.199 122.494,93.463 					"/>
				</g>
				<g>
					<path fill="#424E4D" d="M122.494,179.451h-3.286c-0.281,0-0.508-0.227-0.508-0.506V92.199c0-0.166,0.084-0.324,0.223-0.418
						c0.136-0.096,0.312-0.113,0.466-0.055l3.289,1.264c0.193,0.076,0.324,0.264,0.324,0.473v85.482
						C123.002,179.225,122.775,179.451,122.494,179.451z M119.712,178.439h2.276V93.809l-2.276-0.877V178.439z"/>
				</g>
			</g>
			<g>
				<g>
					<path fill="#637070" d="M123.602,140.744c0,0.539-0.438,0.975-0.975,0.975h-3.49c-0.535,0-0.973-0.436-0.973-0.975v-4.139
						c0-0.537,0.438-0.976,0.973-0.976h3.49c0.537,0,0.975,0.438,0.975,0.976V140.744z"/>
				</g>
				<g>
					<path fill="#424E4D" d="M122.627,142.225h-3.49c-0.812,0-1.479-0.664-1.479-1.479v-4.14c0-0.813,0.666-1.479,1.479-1.479h3.49
						c0.818,0,1.48,0.666,1.48,1.479v4.14C124.107,141.561,123.445,142.225,122.627,142.225z M119.137,136.137
						c-0.258,0-0.466,0.211-0.466,0.469v4.14c0,0.26,0.208,0.471,0.466,0.471h3.49c0.26,0,0.469-0.211,0.469-0.471v-4.14
						c0-0.258-0.209-0.469-0.469-0.469H119.137z"/>
				</g>
			</g>
			<g>
				<g>
					<line fill="none" x1="120.882" y1="136.305" x2="120.882" y2="138.711"/>
				</g>
				<g>
					<path fill="#424E4D" d="M120.882,139.221c-0.278,0-0.506-0.229-0.506-0.51v-2.406c0-0.279,0.228-0.504,0.506-0.504
						s0.507,0.225,0.507,0.504v2.406C121.389,138.992,121.16,139.221,120.882,139.221z"/>
				</g>
			</g>
			<g>
				<g>
					<path fill="#424E4D" d="M121.292,133.736c0,0.281-0.228,0.508-0.504,0.508c-0.281,0-0.504-0.227-0.504-0.508
						c0-0.279,0.223-0.504,0.504-0.504C121.064,133.232,121.292,133.457,121.292,133.736z"/>
				</g>
			</g>
			<g>
				<g>
					<path fill="#424E4D" d="M121.292,143.854c0,0.279-0.228,0.506-0.504,0.506c-0.281,0-0.504-0.227-0.504-0.506
						c0-0.276,0.223-0.506,0.504-0.506C121.064,143.348,121.292,143.576,121.292,143.854z"/>
				</g>
			</g>
			<g>
				<g>
					<path fill="#424E4D" d="M121.292,146.635c0,0.281-0.228,0.508-0.504,0.508c-0.281,0-0.504-0.227-0.504-0.508
						c0-0.277,0.223-0.506,0.504-0.506C121.064,146.129,121.292,146.357,121.292,146.635z"/>
				</g>
			</g>
			<g>
				<g>
					<path fill="#424E4D" d="M121.292,130.512c0,0.281-0.228,0.508-0.504,0.508c-0.281,0-0.504-0.227-0.504-0.508
						c0-0.279,0.223-0.504,0.504-0.504C121.064,130.008,121.292,130.232,121.292,130.512z"/>
				</g>
			</g>
			<g>
				<g>
					<path fill="#424E4D" d="M121.292,127.287c0,0.281-0.228,0.508-0.504,0.508c-0.281,0-0.504-0.227-0.504-0.508
						c0-0.279,0.223-0.504,0.504-0.504C121.064,126.783,121.292,127.008,121.292,127.287z"/>
				</g>
			</g>
			<g>
				<g>
					<polyline fill="#DE5342" points="92.727,121.111 85.097,121.111 85.097,99.658 92.727,99.658 					"/>
				</g>
				<g>
					<path fill="#424E4D" d="M92.727,121.619h-7.629c-0.282,0-0.506-0.225-0.506-0.508V99.658c0-0.277,0.224-0.506,0.506-0.506
						h7.629c0.278,0,0.506,0.229,0.506,0.506c0,0.279-0.228,0.508-0.506,0.508h-7.123v20.441h7.123c0.278,0,0.506,0.227,0.506,0.504
						C93.23,121.395,93.005,121.619,92.727,121.619z"/>
				</g>
			</g>
			<g>
				<g>
					<path fill="#6EBBDA" d="M89.279,99.627c0,0,4.581-1.768,9.276-7.951c4.692-6.182,4.471-6.018,5.521-7.506l2.895,1.484
						c0,0-0.853,13.863-8.971,21.15C98.001,106.805,91.875,100.4,89.279,99.627z"/>
				</g>
				<g>
					<path fill="#424E4D" d="M98.001,107.309c-0.131,0-0.265-0.051-0.364-0.156c-1.678-1.752-6.479-6.438-8.5-7.041
						c-0.209-0.061-0.352-0.25-0.361-0.463c-0.007-0.217,0.12-0.416,0.321-0.491c0.045-0.019,4.516-1.808,9.055-7.785
						c3.777-4.979,4.373-5.84,4.996-6.752c0.153-0.226,0.31-0.451,0.517-0.742c0.144-0.205,0.418-0.274,0.642-0.157l2.896,1.483
						c0.179,0.092,0.287,0.278,0.275,0.481c-0.01,0.144-0.231,3.568-1.461,7.947c-1.138,4.057-3.395,9.699-7.678,13.547
						C98.247,107.268,98.124,107.309,98.001,107.309z M90.471,99.617c2.534,1.447,6.376,5.281,7.554,6.48
						c6.875-6.521,8.225-18.062,8.414-20.148l-2.203-1.129c-0.088,0.131-0.172,0.252-0.254,0.369
						c-0.631,0.924-1.229,1.793-5.023,6.793C95.492,96.549,92.105,98.742,90.471,99.617z"/>
				</g>
			</g>
			<g>
				<g>
					<path fill="#6EBBDA" d="M88.902,99.627c0,0-4.583-1.768-9.275-7.951c-4.694-6.182-4.472-6.018-5.522-7.506l-2.896,1.484
						c0,0,0.854,13.863,8.969,21.15C80.178,106.805,86.307,100.4,88.902,99.627z"/>
				</g>
				<g>
					<path fill="#424E4D" d="M80.178,107.309c-0.12,0-0.243-0.041-0.337-0.129c-4.282-3.848-6.539-9.49-7.678-13.547
						c-1.227-4.379-1.449-7.805-1.458-7.947c-0.013-0.203,0.094-0.391,0.275-0.481l2.896-1.484c0.225-0.116,0.5-0.047,0.643,0.158
						c0.204,0.291,0.359,0.519,0.515,0.742c0.627,0.912,1.216,1.772,4.997,6.752c4.535,5.979,9.007,7.769,9.053,7.785
						c0.204,0.075,0.331,0.274,0.324,0.491c-0.01,0.213-0.155,0.402-0.362,0.463c-2.021,0.604-6.822,5.289-8.503,7.041
						C80.446,107.258,80.312,107.309,80.178,107.309z M71.742,85.949c0.191,2.088,1.547,13.631,8.416,20.148
						c1.178-1.199,5.02-5.033,7.554-6.48c-1.636-0.875-5.022-3.068-8.489-7.635c-3.792-5-4.39-5.869-5.022-6.793
						c-0.081-0.117-0.167-0.238-0.255-0.369L71.742,85.949z"/>
				</g>
			</g>
			<g>
				<g>
					<circle fill="#424E4D" cx="88.91" cy="103.58" r="1.105"/>
				</g>
			</g>
			<g>
				<g>
					<circle fill="#424E4D" cx="88.91" cy="109.887" r="1.106"/>
				</g>
			</g>
			<g>
				<g>
					<circle fill="#424E4D" cx="88.91" cy="116.195" r="1.106"/>
				</g>
			</g>
		</g>
	</g>
</g>
<g>
	<path fill="#424E4D" d="M88.459,137.725c-37.765,0-68.49-30.725-68.49-68.49c0-37.764,30.725-68.488,68.49-68.488
		c37.764,0,68.488,30.724,68.488,68.488C156.947,107,126.225,137.725,88.459,137.725z M88.459,3.23
		c-36.396,0-66.006,29.609-66.006,66.004c0,36.396,29.61,66.005,66.006,66.005c36.395,0,66.004-29.609,66.004-66.005
		C154.464,32.839,124.854,3.23,88.459,3.23z"/>
</g>
<g>
	<g>
		<g>
			<ellipse fill="#FFFFFF" cx="139.788" cy="36.073" rx="33.481" ry="23.857"/>
		</g>
		<g>
			<path fill="#424E4D" d="M139.789,60.412c-18.727,0-33.966-10.918-33.966-24.339c0-13.421,15.239-24.34,33.966-24.34
				c18.729,0,33.964,10.919,33.964,24.34C173.753,49.493,158.518,60.412,139.789,60.412z M139.789,12.696
				c-18.198,0-33.003,10.486-33.003,23.377c0,12.889,14.805,23.377,33.003,23.377c18.195,0,33-10.488,33-23.377
				C172.789,23.182,157.984,12.696,139.789,12.696z"/>
		</g>
	</g>
	<g>
		<g>
			<path fill="#FFFFFF" d="M117.294,51.686c-2.089,5.832-8.931,21.654-22.821,25.691c0,0,21.527-3.826,31.375-21.152"/>
		</g>
		<g>
			<path fill="#424E4D" d="M94.473,77.857c-0.219,0-0.416-0.15-0.468-0.371c-0.06-0.248,0.089-0.5,0.333-0.57
				c4.5-1.309,15.702-6.4,22.502-25.394c0.09-0.25,0.366-0.379,0.614-0.29c0.252,0.089,0.382,0.364,0.292,0.615
				c-1.014,2.826-3.271,8.357-7.046,13.636c-2.978,4.169-6.3,7.382-9.927,9.606c7.09-2.502,18.358-8.021,24.656-19.103
				c0.131-0.232,0.424-0.312,0.656-0.181c0.23,0.132,0.312,0.424,0.18,0.657c-9.845,17.321-31.49,21.349-31.709,21.386
				C94.529,77.855,94.5,77.857,94.473,77.857z"/>
		</g>
	</g>
	<g>
		<g>
			<path fill="#424E4D" d="M120.076,31.261l3.581,5.392l2.327-6.063l2.494-0.283l-3.441,8.222l0.473,4.152l-2.293,0.26l-0.477-4.185
				l-5.176-7.209L120.076,31.261z"/>
		</g>
		<g>
			<path fill="#424E4D" d="M132.543,42.051c-0.904,0.103-1.622-0.109-2.159-0.636c-0.532-0.527-0.866-1.359-0.995-2.499l-0.623-5.49
				l2.241-0.255l0.569,5.004c0.154,1.351,0.715,1.971,1.688,1.861c0.436-0.05,0.842-0.229,1.219-0.536
				c0.377-0.308,0.664-0.746,0.86-1.312l-0.616-5.438l2.24-0.256l0.703,6.194c0.025,0.234,0.086,0.397,0.182,0.486
				c0.097,0.092,0.237,0.133,0.431,0.121l0.217,1.909c-0.218,0.068-0.401,0.118-0.552,0.147c-0.149,0.027-0.285,0.048-0.408,0.064
				c-0.4,0.045-0.738-0.009-1.01-0.165c-0.272-0.158-0.448-0.395-0.53-0.713l-0.129-0.696c-0.323,0.646-0.774,1.155-1.354,1.527
				C133.936,41.741,133.277,41.968,132.543,42.051z"/>
		</g>
		<g>
			<path fill="#424E4D" d="M153.812,39.467l-2.244,0.253l-0.559-4.92c-0.08-0.704-0.259-1.202-0.533-1.498
				c-0.277-0.297-0.627-0.422-1.054-0.372c-0.444,0.05-0.844,0.268-1.196,0.652c-0.353,0.385-0.58,0.858-0.686,1.426l0.579,5.105
				l-2.242,0.255l-0.56-4.922c-0.078-0.702-0.258-1.202-0.534-1.5c-0.277-0.296-0.627-0.42-1.05-0.371
				c-0.438,0.049-0.834,0.265-1.191,0.645c-0.357,0.379-0.588,0.853-0.693,1.416l0.58,5.123l-2.242,0.255l-0.996-8.77l2.026-0.232
				l0.183,1.625c0.262-0.606,0.654-1.095,1.183-1.465s1.156-0.6,1.882-0.682c0.736-0.083,1.325,0.031,1.768,0.343
				c0.441,0.311,0.75,0.723,0.92,1.234c0.289-0.644,0.689-1.156,1.199-1.535c0.512-0.38,1.117-0.61,1.819-0.69
				c0.534-0.061,0.989-0.01,1.356,0.15c0.369,0.164,0.666,0.394,0.892,0.696c0.229,0.303,0.399,0.656,0.521,1.061
				c0.121,0.403,0.203,0.818,0.252,1.242L153.812,39.467z"/>
		</g>
		<g>
			<path fill="#424E4D" d="M155.695,34.725l-0.854-7.532l2.242-0.255l0.855,7.532L155.695,34.725z M156.205,39.193l-0.286-2.529
				l2.243-0.253l0.287,2.527L156.205,39.193z"/>
		</g>
	</g>
</g>
</svg>
