<?xml version="1.0" encoding="utf-8"?>
<!-- Generator: Adobe Illustrator 16.0.0, SVG Export Plug-In . SVG Version: 6.00 Build 0)  -->
<!DOCTYPE svg PUBLIC "-//W3C//DTD SVG 1.1//EN" "http://www.w3.org/Graphics/SVG/1.1/DTD/svg11.dtd">
<svg version="1.1" id="Layer_1" xmlns="http://www.w3.org/2000/svg" xmlns:xlink="http://www.w3.org/1999/xlink" x="0px" y="0px"
	 width="180px" height="220px" viewBox="0 0 180 220" enable-background="new 0 0 180 220" xml:space="preserve">
<g opacity="0.1">
	<path d="M139.854,162.998c0,0.052-0.019,0.104-0.019,0.152c-0.058-9.789-11.66-18.303-33.679-24.205
		c-29.548-7.916-52.619-4.387-63.295,9.689c-2.833,3.737-4.112,7.436-3.953,10.992c-0.005-0.109-0.034-0.213-0.04-0.327
		l0.182,10.142c0.177,10.018,11.82,18.965,33.133,24.676c28.672,7.685,53.125,3.686,63.831-10.432
		c2.752-3.629,4.071-7.164,4.016-10.547L139.854,162.998z"/>
	<path d="M99.331,199.236c-0.006,0-0.006,0-0.006,0c-8.595,0-17.837-1.31-27.473-3.892c-21.785-5.836-33.883-15.024-34.077-25.88
		L37.6,159.324c-0.006-0.086,0.006-0.172,0.023-0.26c-0.006-3.724,1.416-7.487,4.226-11.196
		c7.116-9.382,19.521-14.339,35.868-14.339c8.714,0,18.4,1.406,28.77,4.186c22.332,5.984,34.287,14.646,34.617,25.067
		c0.013,0.062,0.018,0.128,0.018,0.192l0.184,10.143c0.062,3.699-1.378,7.514-4.277,11.339
		C129.802,193.989,116.406,199.236,99.331,199.236z M40.153,159.878l0.171,9.545c0.165,9.479,11.899,18.028,32.188,23.466
		c9.419,2.522,18.44,3.805,26.813,3.805c0,0,0,0,0.006,0c16.262,0,28.929-4.892,35.664-13.775c2.548-3.361,3.815-6.641,3.759-9.755
		l-0.17-9.794c-0.012-0.068-0.023-0.137-0.023-0.211c-0.045-9.178-11.67-17.34-32.732-22.982
		c-10.159-2.722-19.612-4.104-28.11-4.104c-15.522,0-27.223,4.613-33.838,13.332c-2.605,3.431-3.851,6.852-3.703,10.164l0,0v0.007
		C40.182,159.677,40.176,159.779,40.153,159.878z"/>
</g>
<g>
	<path d="M99.826,182.613c-6.338,0-10.409-1.368-10.796-1.499c-0.666-0.233-1.013-0.955-0.779-1.621
		c0.228-0.659,0.961-1.019,1.615-0.785c0.205,0.067,20.853,6.905,42.603-11.845c0.529-0.452,1.344-0.398,1.799,0.134
		c0.455,0.534,0.397,1.337-0.138,1.797C120.975,180.13,108.354,182.613,99.826,182.613z"/>
</g>
<g>
	<path fill="#E0C382" d="M139.854,154.262c0,0.051-0.019,0.104-0.019,0.153c-0.058-9.789-11.66-18.304-33.679-24.205
		c-29.548-7.917-52.619-4.39-63.295,9.688c-2.833,3.737-4.112,7.436-3.953,10.992c-0.005-0.111-0.034-0.214-0.04-0.326l0.182,10.142
		c0.177,10.017,11.82,18.964,33.133,24.674c28.672,7.685,53.125,3.687,63.831-10.432c2.752-3.63,4.071-7.164,4.016-10.546
		L139.854,154.262z"/>
	<path fill="#CA9A62" d="M99.331,190.5c-0.006,0-0.006,0-0.006,0c-8.595,0-17.837-1.309-27.473-3.891
		c-21.785-5.836-33.883-15.025-34.077-25.881L37.6,150.587c-0.006-0.085,0.006-0.171,0.023-0.259
		c-0.006-3.723,1.416-7.488,4.226-11.196c7.116-9.383,19.521-14.34,35.868-14.34c8.714,0,18.4,1.408,28.77,4.187
		c22.332,5.983,34.287,14.646,34.617,25.066c0.013,0.062,0.018,0.128,0.018,0.193l0.184,10.143c0.062,3.699-1.378,7.514-4.277,11.34
		C129.802,185.252,116.406,190.5,99.331,190.5z M40.153,151.143l0.171,9.543c0.165,9.479,11.899,18.028,32.188,23.467
		c9.419,2.522,18.44,3.806,26.813,3.806c0,0,0,0,0.006,0c16.262,0,28.929-4.892,35.664-13.776c2.548-3.361,3.815-6.641,3.759-9.755
		l-0.17-9.795c-0.012-0.067-0.023-0.136-0.023-0.21c-0.045-9.178-11.67-17.34-32.732-22.982c-10.159-2.722-19.612-4.104-28.11-4.104
		c-15.522,0-27.223,4.612-33.838,13.332c-2.605,3.43-3.851,6.852-3.703,10.165l0,0v0.005
		C40.182,150.939,40.176,151.042,40.153,151.143z"/>
</g>
<g>
	<path fill="#CA9A62" d="M99.826,179.701c-6.338,0-10.409-1.368-10.796-1.499c-0.666-0.233-1.013-0.956-0.779-1.621
		c0.228-0.66,0.961-1.019,1.615-0.785c0.205,0.068,20.853,6.905,42.603-11.845c0.529-0.452,1.344-0.398,1.799,0.134
		c0.455,0.534,0.397,1.336-0.138,1.797C120.975,177.218,108.354,179.701,99.826,179.701z"/>
</g>
<g>
	<g opacity="0.1">
		<g enable-background="new    ">
			<g>
				<path d="M116.003,144.08c0.341,0.091,0.625,0.259,0.769,0.482c0.283,0.455-0.104,0.967-0.864,1.145l-37.837,8.822
					c-0.381,0.088-0.779,0.078-1.115-0.012c-0.336-0.092-0.608-0.263-0.739-0.483c-0.29-0.446,0.108-0.968,0.859-1.132l37.819-8.846
					C115.27,143.979,115.667,143.992,116.003,144.08z"/>
			</g>
			<g>
				<path d="M73.042,109.716l62.044,16.623l-28.673,37.81l-62.045-16.627L73.042,109.716z M61.512,151.094
					c0.341,0.092,0.74,0.102,1.121,0.014l59.479-13.887c0.769-0.183,1.15-0.688,0.871-1.146c-0.147-0.226-0.428-0.39-0.762-0.479
					c-0.337-0.089-0.729-0.104-1.094-0.019l-59.519,13.896c-0.762,0.18-1.143,0.688-0.853,1.133
					C60.897,150.832,61.176,151.002,61.512,151.094 M115.906,145.707c0.762-0.178,1.148-0.688,0.863-1.145
					c-0.143-0.225-0.427-0.393-0.768-0.482c-0.336-0.091-0.734-0.104-1.109-0.021l-37.818,8.844
					c-0.751,0.166-1.149,0.687-0.859,1.133c0.131,0.222,0.404,0.393,0.739,0.482s0.734,0.101,1.115,0.012L115.906,145.707
					 M109.427,154.244c0.757-0.165,1.144-0.671,0.859-1.133c-0.144-0.228-0.421-0.396-0.757-0.488
					c-0.342-0.091-0.739-0.104-1.127-0.012l-17.7,4.133c-0.728,0.171-1.115,0.68-0.859,1.129c0.142,0.232,0.421,0.404,0.757,0.495
					c0.34,0.091,0.739,0.1,1.121,0.012L109.427,154.244"/>
			</g>
			<g>
				<path d="M122.221,135.594c0.334,0.092,0.613,0.256,0.762,0.48c0.279,0.458-0.104,0.964-0.871,1.146l-59.479,13.887
					c-0.381,0.088-0.779,0.076-1.121-0.015c-0.335-0.092-0.614-0.262-0.756-0.489c-0.296-0.443,0.091-0.953,0.859-1.131
					l59.513-13.896C121.491,135.491,121.884,135.506,122.221,135.594z"/>
			</g>
			<g>
				<path d="M109.529,152.623c0.336,0.092,0.613,0.262,0.757,0.488c0.284,0.462-0.103,0.968-0.859,1.133l-17.706,4.136
					c-0.381,0.088-0.779,0.079-1.121-0.012c-0.334-0.091-0.614-0.263-0.755-0.495c-0.256-0.449,0.131-0.958,0.859-1.129
					l17.701-4.133C108.79,152.521,109.188,152.532,109.529,152.623z"/>
			</g>
		</g>
		<g>
			<path d="M137.611,125.082c0.738,0.199,1.058,0.72,0.728,1.154l-29.901,39.43c-0.33,0.436-1.199,0.637-1.934,0.439L41.82,148.771
				c-0.74-0.195-1.036-0.711-0.706-1.146l29.902-39.431c0.33-0.434,1.177-0.645,1.917-0.447L137.611,125.082z M106.413,164.146
				l28.673-37.809l-62.044-16.622l-28.673,37.806L106.413,164.146"/>
		</g>
	</g>
	<g>
		<g enable-background="new    ">
			<g>
				<path fill="#FEC00F" d="M116.003,141.168c0.341,0.091,0.625,0.259,0.769,0.482c0.283,0.455-0.104,0.968-0.864,1.145
					l-37.837,8.821c-0.381,0.089-0.779,0.079-1.115-0.011c-0.336-0.092-0.608-0.263-0.739-0.483
					c-0.29-0.447,0.108-0.968,0.859-1.132l37.819-8.846C115.27,141.064,115.667,141.08,116.003,141.168z"/>
			</g>
			<g>
				<path fill="#FFE271" d="M73.042,106.804l62.044,16.625l-28.673,37.807l-62.045-16.627L73.042,106.804z M61.512,148.182
					c0.341,0.092,0.74,0.103,1.121,0.014l59.479-13.887c0.769-0.183,1.15-0.688,0.871-1.146c-0.147-0.225-0.428-0.391-0.762-0.48
					c-0.337-0.089-0.729-0.103-1.094-0.018l-59.519,13.896c-0.762,0.18-1.143,0.688-0.853,1.131
					C60.897,147.919,61.176,148.09,61.512,148.182 M115.906,142.795c0.762-0.177,1.148-0.688,0.863-1.145
					c-0.143-0.225-0.427-0.393-0.768-0.482c-0.336-0.091-0.734-0.104-1.109-0.023l-37.818,8.847
					c-0.751,0.163-1.149,0.685-0.859,1.132c0.131,0.223,0.404,0.393,0.739,0.482s0.734,0.101,1.115,0.012L115.906,142.795
					 M109.427,151.332c0.757-0.165,1.144-0.671,0.859-1.132c-0.144-0.228-0.421-0.398-0.757-0.489
					c-0.342-0.091-0.739-0.104-1.127-0.011l-17.7,4.132c-0.728,0.171-1.115,0.68-0.859,1.129c0.142,0.232,0.421,0.404,0.757,0.495
					c0.34,0.091,0.739,0.101,1.121,0.012L109.427,151.332"/>
			</g>
			<g>
				<path fill="#FEC00F" d="M122.221,132.682c0.334,0.092,0.613,0.256,0.762,0.48c0.279,0.458-0.104,0.964-0.871,1.146
					l-59.479,13.887c-0.381,0.089-0.779,0.078-1.121-0.014c-0.335-0.092-0.614-0.263-0.756-0.49
					c-0.296-0.442,0.091-0.951,0.859-1.131l59.513-13.896C121.491,132.579,121.884,132.593,122.221,132.682z"/>
			</g>
			<g>
				<path fill="#FEC00F" d="M109.529,149.711c0.336,0.091,0.613,0.262,0.757,0.489c0.284,0.461-0.103,0.967-0.859,1.132
					l-17.706,4.136c-0.381,0.089-0.779,0.079-1.121-0.012c-0.334-0.091-0.614-0.263-0.755-0.495
					c-0.256-0.449,0.131-0.958,0.859-1.129l17.701-4.132C108.79,149.607,109.188,149.62,109.529,149.711z"/>
			</g>
		</g>
		<g>
			<path fill="#FEC00F" d="M137.611,122.17c0.738,0.198,1.058,0.721,0.728,1.155l-29.901,39.429
				c-0.33,0.436-1.199,0.637-1.934,0.439L41.82,145.859c-0.74-0.195-1.036-0.711-0.706-1.146l29.902-39.43
				c0.33-0.434,1.177-0.644,1.917-0.446L137.611,122.17z M106.413,161.234l28.673-37.807l-62.044-16.624l-28.673,37.805
				L106.413,161.234"/>
		</g>
	</g>
</g>
<g>
	<g opacity="0.1">
		<g>
			<path d="M136.52,101.481c0.967,1.409,0.934,3.04-0.137,4.445l-24.208,31.92c-2.133,2.814-7.616,4.084-12.229,2.844
				l-52.362-14.026c-4.619-1.239-6.626-4.515-4.494-7.327l24.208-31.921c1.069-1.405,3.077-2.507,5.489-3.012
				c0.546-0.115,1.121-0.188,1.678-0.248c8.976-1.153,21.819,0.142,34.242,3.47c12.411,3.328,22.53,8.184,27.067,12.993
				C136.023,100.86,136.303,101.162,136.52,101.481z M109.535,137.141l24.208-31.92c0.733-0.971,0.751-2.049,0.08-3.049
				c-0.154-0.214-0.343-0.422-0.535-0.614c-4.317-4.54-13.946-9.127-25.817-12.307c-11.894-3.188-24.055-4.439-32.518-3.359
				c-0.495,0.043-0.876,0.097-1.246,0.172c-1.707,0.362-3.032,1.089-3.771,2.06l-24.208,31.921c-1.45,1.913-0.091,4.161,3.072,5.011
				l52.364,14.028C104.331,139.932,108.085,139.052,109.535,137.141"/>
		</g>
		<g>
			<path d="M107.471,89.25c11.871,3.18,21.5,7.767,25.817,12.307c0.192,0.192,0.381,0.4,0.535,0.614c0.671,1,0.653,2.078-0.08,3.049
				l-24.208,31.92c-1.45,1.911-5.204,2.791-8.372,1.942l-52.364-14.028c-3.163-0.85-4.522-3.098-3.072-5.011l24.208-31.921
				c0.74-0.971,2.065-1.698,3.771-2.06c0.37-0.076,0.756-0.129,1.246-0.172C83.416,84.81,95.577,86.062,107.471,89.25z"/>
		</g>
	</g>
	<g>
		<g>
			<path fill="#FAB499" d="M136.52,98.569c0.967,1.409,0.934,3.04-0.137,4.445l-24.208,31.919
				c-2.133,2.814-7.616,4.084-12.229,2.844L47.582,123.75c-4.619-1.236-6.626-4.514-4.494-7.326l24.208-31.921
				c1.069-1.405,3.077-2.507,5.489-3.012c0.546-0.115,1.121-0.188,1.678-0.248c8.976-1.153,21.819,0.142,34.242,3.47
				c12.411,3.327,22.529,8.184,27.068,12.993C136.023,97.948,136.303,98.249,136.52,98.569z M109.535,134.229l24.208-31.92
				c0.733-0.971,0.751-2.049,0.08-3.049c-0.154-0.215-0.343-0.422-0.535-0.614c-4.317-4.541-13.946-9.128-25.817-12.307
				c-11.894-3.188-24.055-4.439-32.518-3.359c-0.495,0.042-0.876,0.097-1.246,0.172c-1.707,0.363-3.032,1.089-3.771,2.061
				l-24.208,31.921c-1.45,1.913-0.091,4.161,3.072,5.008l52.364,14.031C104.331,137.02,108.085,136.141,109.535,134.229"/>
		</g>
		<g>
			<path fill="#FEDBBA" d="M107.471,86.337c11.871,3.179,21.5,7.767,25.817,12.307c0.192,0.192,0.381,0.399,0.535,0.614
				c0.671,1,0.653,2.078-0.08,3.049l-24.208,31.921c-1.45,1.91-5.204,2.789-8.372,1.941l-52.364-14.029
				c-3.163-0.849-4.522-3.097-3.072-5.009l24.208-31.921c0.74-0.971,2.065-1.698,3.771-2.061c0.37-0.075,0.756-0.129,1.246-0.172
				C83.416,81.898,95.577,83.149,107.471,86.337z"/>
		</g>
	</g>
</g>
<g>
	<g opacity="0.1">
		<g>
			<path d="M140.125,80.924c0,0.048-0.012,0.102-0.012,0.15c-0.057-9.786-11.665-18.304-33.684-24.204
				c-29.543-7.917-52.615-4.388-63.291,9.689c-2.833,3.737-4.112,7.433-3.959,10.992c-0.005-0.109-0.028-0.215-0.034-0.326
				l0.182,10.142c0.176,10.017,11.82,18.964,33.127,24.674c28.673,7.684,53.125,3.684,63.831-10.432
				c2.753-3.63,4.078-7.166,4.017-10.547L140.125,80.924z"/>
			<path d="M99.604,117.162L99.604,117.162c-8.601,0-17.837-1.309-27.479-3.891c-21.779-5.835-33.883-15.026-34.071-25.88
				l-0.182-10.142c0-0.088,0.006-0.173,0.023-0.26c-0.006-3.723,1.416-7.488,4.232-11.198c7.11-9.381,19.515-14.338,35.868-14.338
				c8.714,0,18.396,1.408,28.764,4.188c22.337,5.984,34.287,14.645,34.617,25.065c0.011,0.062,0.017,0.128,0.022,0.195l0.176,10.142
				c0.068,3.699-1.377,7.514-4.277,11.337C130.074,111.913,116.68,117.162,99.604,117.162z M40.427,77.802l0.17,9.544
				c0.17,9.478,11.899,18.028,32.194,23.466c9.414,2.521,18.436,3.805,26.812,3.805l0,0c16.269,0,28.93-4.892,35.67-13.776
				c2.547-3.36,3.811-6.641,3.76-9.754l-0.172-9.796c-0.016-0.067-0.021-0.136-0.021-0.208c-0.052-9.179-11.678-17.341-32.74-22.984
				c-10.152-2.723-19.612-4.102-28.104-4.102c-15.528,0-27.229,4.61-33.843,13.333c-2.6,3.43-3.845,6.85-3.703,10.164l0,0
				c0,0,0,0.003,0.006,0.003C40.46,77.599,40.449,77.703,40.427,77.802z"/>
		</g>
		<g>
			<g>
				<path d="M126.436,84.72c0.192,0.207,0.215,0.472,0.045,0.7s-0.519,0.381-0.91,0.441c-9.197,1.166-24.605-0.707-40.265-4.903
					C69.669,76.767,57.07,71.136,52.48,66.279c-0.21-0.225-0.222-0.471-0.046-0.7c0.171-0.228,0.501-0.398,0.905-0.441
					c9.203-1.18,24.623,0.697,40.253,4.883C109.251,74.219,121.827,79.844,126.436,84.72z M86.374,79.55
					c13.931,3.734,28.03,5.623,36.841,4.994c-5.039-4.337-16.785-9.374-30.697-13.102c-13.908-3.727-28.037-5.623-36.825-4.988
					C60.715,70.788,72.456,75.823,86.374,79.55"/>
			</g>
		</g>
		<g>
			<path d="M100.1,104.312c-6.33,0-10.41-1.366-10.795-1.5c-0.66-0.232-1.007-0.956-0.779-1.621c0.233-0.66,0.961-1.016,1.621-0.784
				c0.205,0.07,20.846,6.904,42.597-11.845c0.528-0.452,1.343-0.398,1.798,0.135c0.46,0.532,0.402,1.335-0.131,1.794
				C121.253,101.828,108.631,104.312,100.1,104.312z"/>
		</g>
	</g>
	<g>
		<g>
			<path fill="#E0C382" d="M140.125,78.011c0,0.048-0.012,0.104-0.012,0.151c-0.057-9.786-11.665-18.304-33.684-24.204
				c-29.543-7.917-52.615-4.388-63.291,9.689c-2.833,3.737-4.112,7.433-3.959,10.992c-0.005-0.109-0.028-0.214-0.034-0.325
				l0.182,10.142c0.176,10.017,11.82,18.963,33.127,24.674c28.673,7.683,53.125,3.683,63.831-10.432
				c2.753-3.63,4.078-7.166,4.017-10.547L140.125,78.011z"/>
			<path fill="#CA9A62" d="M99.604,114.25L99.604,114.25c-8.601,0-17.837-1.309-27.479-3.891
				c-21.779-5.836-33.883-15.026-34.071-25.88l-0.182-10.142c0-0.088,0.006-0.173,0.023-0.26c-0.006-3.723,1.416-7.488,4.232-11.198
				c7.11-9.381,19.515-14.338,35.868-14.338c8.714,0,18.396,1.408,28.764,4.188c22.337,5.984,34.287,14.645,34.617,25.065
				c0.011,0.062,0.017,0.128,0.022,0.195l0.176,10.142c0.068,3.699-1.377,7.514-4.277,11.337
				C130.074,109.001,116.68,114.25,99.604,114.25z M40.427,74.89l0.17,9.544c0.17,9.478,11.899,18.028,32.194,23.466
				c9.414,2.522,18.436,3.805,26.812,3.805l0,0c16.269,0,28.93-4.892,35.67-13.776c2.547-3.36,3.811-6.641,3.76-9.755l-0.172-9.796
				c-0.016-0.067-0.021-0.137-0.021-0.208c-0.052-9.179-11.678-17.341-32.74-22.984c-10.152-2.723-19.612-4.103-28.104-4.103
				c-15.528,0-27.229,4.61-33.843,13.333c-2.6,3.43-3.845,6.85-3.703,10.165l0,0c0,0,0,0.003,0.006,0.003
				C40.46,74.687,40.449,74.791,40.427,74.89z"/>
		</g>
		<g>
			<g>
				<path fill="#CA9A62" d="M126.436,81.808c0.192,0.206,0.215,0.472,0.045,0.7s-0.519,0.381-0.91,0.441
					c-9.197,1.166-24.605-0.707-40.265-4.903c-15.636-4.19-28.235-9.822-32.825-14.679c-0.21-0.225-0.222-0.471-0.046-0.699
					c0.171-0.228,0.501-0.398,0.905-0.441c9.203-1.18,24.623,0.697,40.253,4.883C109.251,71.307,121.827,76.932,126.436,81.808z
					 M86.374,76.638c13.931,3.734,28.03,5.623,36.841,4.994c-5.039-4.337-16.785-9.374-30.697-13.102
					c-13.908-3.727-28.037-5.623-36.825-4.989C60.715,67.875,72.456,72.911,86.374,76.638"/>
			</g>
		</g>
		<g>
			<path fill="#CA9A62" d="M100.1,101.4c-6.33,0-10.41-1.367-10.795-1.5c-0.66-0.232-1.007-0.956-0.779-1.621
				c0.233-0.66,0.961-1.016,1.621-0.784c0.205,0.07,20.846,6.904,42.597-11.845c0.528-0.452,1.343-0.398,1.798,0.135
				c0.46,0.532,0.402,1.335-0.131,1.794C121.253,98.916,108.631,101.4,100.1,101.4z"/>
		</g>
	</g>
</g>
</svg>
