<?xml version="1.0" encoding="utf-8"?>
<!-- Generator: Adobe Illustrator 16.0.0, SVG Export Plug-In . SVG Version: 6.00 Build 0)  -->
<!DOCTYPE svg PUBLIC "-//W3C//DTD SVG 1.1//EN" "http://www.w3.org/Graphics/SVG/1.1/DTD/svg11.dtd">
<svg version="1.1" id="Layer_1" xmlns="http://www.w3.org/2000/svg" xmlns:xlink="http://www.w3.org/1999/xlink" x="0px" y="0px"
	 width="180px" height="221.234px" viewBox="0 0 180 221.234" enable-background="new 0 0 180 221.234" xml:space="preserve">
<g>
	<g opacity="0.1">
		<path fill="#231F20" d="M143.32,141.067c0,0.051-0.018,0.104-0.018,0.155c-0.058-9.883-11.771-18.479-34-24.435
			c-29.833-7.992-53.123-4.434-63.903,9.78c-2.859,3.773-4.15,7.505-3.99,11.1c-0.006-0.115-0.034-0.218-0.04-0.333l0.184,10.238
			c0.179,10.112,11.935,19.146,33.45,24.91c28.947,7.758,53.635,3.721,64.439-10.531c2.779-3.664,4.113-7.229,4.056-10.646
			L143.32,141.067z"/>
		<path fill="#231F20" d="M102.412,177.651c-0.006,0-0.006,0-0.006,0c-8.676,0-18.008-1.32-27.735-3.929
			c-21.993-5.891-34.208-15.164-34.403-26.127l-0.178-10.237c-0.006-0.087,0.006-0.173,0.022-0.259
			c-0.005-3.76,1.43-7.563,4.267-11.307c7.186-9.469,19.709-14.476,36.213-14.476c8.797,0,18.576,1.424,29.045,4.226
			c22.545,6.041,34.614,14.787,34.947,25.307c0.012,0.062,0.018,0.133,0.018,0.194l0.185,10.238
			c0.062,3.737-1.392,7.586-4.318,11.451C133.174,172.358,119.65,177.651,102.412,177.651z M42.668,137.92l0.172,9.637
			c0.167,9.564,12.015,18.195,32.498,23.687c9.509,2.549,18.616,3.842,27.068,3.842c0,0,0,0,0.006,0
			c16.417,0,29.205-4.938,36.004-13.907c2.572-3.394,3.854-6.701,3.796-9.849l-0.172-9.889c-0.013-0.068-0.022-0.14-0.022-0.214
			c-0.047-9.262-11.783-17.502-33.047-23.197c-10.257-2.751-19.801-4.146-28.379-4.146c-15.671,0-27.482,4.657-34.163,13.461
			c-2.63,3.463-3.888,6.92-3.737,10.262l0,0v0.005C42.696,137.715,42.691,137.817,42.668,137.92z"/>
	</g>
	<g>
		<path fill="#231F20" d="M102.912,160.872c-6.396,0-10.51-1.383-10.898-1.516c-0.673-0.234-1.022-0.966-0.787-1.638
			c0.229-0.666,0.971-1.026,1.631-0.793c0.207,0.07,21.053,6.974,43.01-11.953c0.533-0.461,1.355-0.401,1.814,0.131
			c0.461,0.539,0.402,1.351-0.139,1.814C124.262,158.364,111.52,160.872,102.912,160.872z"/>
	</g>
	<g>
		<path fill="#DFC282" d="M143.32,132.247c0,0.052-0.018,0.103-0.018,0.154c-0.058-9.884-11.771-18.479-34-24.434
			c-29.833-7.993-53.123-4.433-63.903,9.779c-2.859,3.772-4.15,7.507-3.99,11.101c-0.006-0.114-0.034-0.217-0.04-0.332l0.184,10.238
			c0.179,10.112,11.935,19.145,33.45,24.91c28.947,7.758,53.635,3.721,64.439-10.531c2.779-3.664,4.113-7.229,4.056-10.646
			L143.32,132.247z"/>
		<path fill="#CA9963" d="M102.412,168.833c-0.006,0-0.006,0-0.006,0c-8.676,0-18.008-1.321-27.735-3.93
			c-21.993-5.892-34.208-15.166-34.403-26.127l-0.178-10.239c-0.006-0.086,0.006-0.172,0.022-0.258
			c-0.005-3.762,1.43-7.562,4.267-11.307c7.186-9.468,19.709-14.477,36.213-14.477c8.797,0,18.576,1.424,29.045,4.226
			c22.545,6.043,34.614,14.788,34.947,25.308c0.012,0.062,0.018,0.132,0.018,0.195l0.185,10.238
			c0.062,3.737-1.392,7.584-4.318,11.449C133.174,163.538,119.65,168.833,102.412,168.833z M42.668,129.1l0.172,9.637
			c0.167,9.566,12.015,18.197,32.498,23.688c9.509,2.551,18.616,3.84,27.068,3.84c0,0,0,0,0.006,0
			c16.417,0,29.205-4.938,36.004-13.906c2.572-3.395,3.854-6.701,3.796-9.848l-0.172-9.89c-0.013-0.067-0.022-0.138-0.022-0.212
			c-0.047-9.264-11.783-17.503-33.047-23.199c-10.257-2.75-19.801-4.146-28.379-4.146c-15.671,0-27.482,4.656-34.163,13.459
			c-2.63,3.462-3.888,6.919-3.737,10.261l0,0v0.006C42.696,128.893,42.691,128.997,42.668,129.1z"/>
	</g>
	<g>
		<path fill="#C99962" d="M102.912,157.932c-6.396,0-10.51-1.385-10.898-1.516c-0.673-0.236-1.022-0.965-0.787-1.637
			c0.229-0.666,0.971-1.027,1.631-0.793c0.207,0.068,21.053,6.971,43.01-11.955c0.533-0.459,1.355-0.402,1.814,0.131
			c0.461,0.541,0.402,1.352-0.139,1.816C124.262,155.424,111.52,157.932,102.912,157.932z"/>
	</g>
	<g>
		<path opacity="0.1" fill="#231F20" enable-background="new    " d="M138.945,107.091c-2.998-3.969-8.953-6.255-12.221-7.126
			c-0.815-0.219-1.44-0.351-2.021-0.42c-0.195-0.017-0.42-0.062-0.725-0.143c-0.959-0.253-2.031-0.902-2.572-1.465
			c-2.303-2.026-4.938-3.01-7.407-3.676c-0.724-0.194-1.429-0.367-2.103-0.511c-1.895-0.436-4.002-0.436-5.834-0.344
			c-1.809,0.097-3.323,0.304-3.922,0.407c-0.684,0.098-2.113,0.316-3.703-0.109c-0.695-0.189-1.437-0.511-2.183-1.045
			c-2.211-1.544-4.687-2.469-6.851-3.049c-1.608-0.432-3.044-0.672-4.02-0.833c-1.437-0.241-4.358-0.425-7.942-0.046
			c-3.554,0.385-7.723,1.343-11.14,3.49c-1.959,1.201-3.279,2.453-4.187,3.652c-1.131,1.493-1.597,2.9-1.786,4.031
			c-0.166,1.131-0.051,2.01-0.022,2.35c0.052,0.51-0.017,1.055-0.351,1.492c-0.315,0.373-0.734,0.701-1.619,0.993
			c-2.957,0.941-6.006,2.872-8.545,6.197c-1.773,2.342-1.55,4.868-0.866,6.862c0.333,1.004,0.792,1.889,1.217,2.549
			c0.207,0.334,0.396,0.615,0.603,0.844c0.173,0.225,0.288,0.379,0.535,0.552c0.045,0.045,0.229,0.271,0.252,0.54
			c0.041,0.258-0.052,0.568-0.207,0.775c-0.275,0.402-1.24,1.746-1.343,3.634c-0.132,1.883,0.671,4.335,3.802,6.955
			c2.096,1.458,4.34,2.429,6.545,3.021c3.365,0.901,6.615,0.965,9.045,0.77c2.451-0.189,4.141-0.614,4.502-0.711
			c0.138-0.035,0.539-0.104,0.953-0.115c0.414-0.012,0.815,0.023,1.091,0.098c0.487,0.133,1.131,0.649,1.493,1.104l0.195,0.316
			c0.855,1.234,3.457,4.926,10.635,6.85c6.074,1.625,11.402,1.338,15.55,0.346c4.157-0.982,7.179-2.604,8.952-3.572
			c1.373-0.74,2.361-1.74,3.165-2.797c0.854-1.126,1.463-2.32,1.854-3.324c0.172-0.5,0.315-0.953,0.391-1.322
			c0.039-0.199,0.051-0.372,0.057-0.527l-0.062-0.494l0.108-0.253l0.534-0.437c0.207-0.086,0.361-0.172,0.592-0.28
			c0.654-0.339,1.672-0.913,2.538-1.521c0.8-0.562,1.367-1.311,1.866-1.965c0.234-0.31,0.441-0.585,0.598-0.792l0.2-0.264
			c0.115-0.108,0.241-0.201,0.586-0.392c0.351-0.172,0.867-0.396,1.693-0.724c4.026-0.976,8.452-3.388,11.37-6.442
			c0.246-0.287,0.505-0.592,0.752-0.912C141.408,116.116,142.212,111.505,138.945,107.091z"/>
		<g>
			<g>
				<path fill="#AC6A6E" d="M138.945,104.15c3.267,4.416,2.463,9.027,0.046,12.213c-0.248,0.322-0.507,0.626-0.752,0.914
					c-2.919,3.054-7.345,5.466-11.371,6.441c-0.826,0.328-1.345,0.553-1.693,0.725c-0.345,0.189-0.471,0.281-0.586,0.391l-0.2,0.264
					c-0.154,0.207-0.361,0.482-0.598,0.793c-0.499,0.654-1.066,1.4-1.866,1.963c-0.866,0.609-1.884,1.184-2.538,1.521
					c-0.229,0.109-0.385,0.195-0.592,0.281l-0.533,0.436l-0.109,0.254l0.062,0.494c-0.006,0.154-0.017,0.327-0.057,0.527
					c-0.074,0.369-0.219,0.822-0.391,1.32c-0.393,1.006-1,2.199-1.854,3.326c-0.804,1.057-1.792,2.056-3.165,2.795
					c-1.773,0.971-4.795,2.592-8.952,3.572c-4.146,0.993-9.476,1.28-15.55-0.345c-7.178-1.923-9.779-5.617-10.635-6.851
					l-0.195-0.316c-0.362-0.454-1.006-0.971-1.493-1.104c-0.275-0.074-0.677-0.108-1.091-0.098
					c-0.414,0.012-0.815,0.081-0.953,0.114c-0.361,0.099-2.051,0.522-4.502,0.712c-2.43,0.195-5.68,0.132-9.045-0.77
					c-2.205-0.592-4.449-1.562-6.545-3.021c-3.131-2.619-3.934-5.071-3.802-6.955c0.103-1.888,1.067-3.231,1.343-3.634
					c0.155-0.207,0.248-0.518,0.207-0.775c-0.023-0.27-0.207-0.494-0.252-0.541c-0.247-0.172-0.362-0.326-0.535-0.551
					c-0.206-0.229-0.396-0.511-0.603-0.843c-0.425-0.661-0.884-1.546-1.217-2.55c-0.684-1.994-0.907-4.521,0.866-6.863
					c2.539-3.325,5.588-5.254,8.545-6.195c0.885-0.293,1.304-0.621,1.619-0.994c0.334-0.437,0.402-0.981,0.351-1.494
					c-0.028-0.338-0.144-1.217,0.022-2.348c0.189-1.132,0.655-2.537,1.786-4.031c0.907-1.199,2.228-2.451,4.187-3.651
					c3.417-2.147,7.586-3.106,11.14-3.491c3.584-0.379,6.506-0.195,7.942,0.045c0.976,0.161,2.411,0.402,4.02,0.833
					c2.164,0.58,4.64,1.504,6.851,3.05c0.746,0.533,1.486,0.854,2.183,1.045c1.59,0.424,3.021,0.207,3.703,0.108
					c0.599-0.103,2.113-0.31,3.922-0.407c1.832-0.092,3.939-0.092,5.834,0.346c0.674,0.143,1.379,0.314,2.103,0.511
					c2.47,0.666,5.104,1.647,7.407,3.675c0.541,0.562,1.613,1.212,2.572,1.464c0.305,0.081,0.528,0.126,0.725,0.144
					c0.58,0.069,1.205,0.201,2.021,0.42C129.992,97.896,135.947,100.182,138.945,104.15z M135.684,116.416
					c0.213-0.24,0.442-0.5,0.639-0.764c2.102-2.729,2.836-6.862-0.064-10.738c-2.462-3.342-7.832-5.484-10.656-6.242
					c-0.781-0.207-1.305-0.311-1.401-0.305c-0.499-0.062-0.952-0.148-1.384-0.264c-1.688-0.454-2.991-1.252-3.812-2.062
					c-2.021-1.757-4.037-2.486-6.236-3.095c-0.648-0.172-1.309-0.333-1.98-0.478c-1.137-0.287-2.93-0.328-4.501-0.24
					c-1.591,0.086-2.992,0.293-3.446,0.361c-0.826,0.133-3.105,0.471-5.628-0.201c-1.079-0.293-2.192-0.764-3.226-1.498
					c-1.844-1.305-3.945-2.08-5.807-2.597c-1.396-0.372-2.647-0.585-3.628-0.747c-0.84-0.148-3.55-0.35-6.634-0.012
					c-3.123,0.339-6.632,1.161-9.538,2.969c-1.688,1.047-2.818,2.119-3.594,3.143c-0.965,1.275-1.367,2.486-1.521,3.451
					c-0.161,0.977-0.053,1.711-0.018,2.09c0.051,0.65-0.006,1.494-0.62,2.332c-0.528,0.705-1.505,1.377-2.946,1.837
					c-2.193,0.712-4.921,2.326-7.207,5.34c-1.211,1.562-1.291,3.388-0.878,5.013c0.368,1.607,1.235,3.021,1.739,3.688l0.266,0.298
					c0.567,0.442,0.78,0.954,0.866,1.481c0.063,0.528-0.052,1.098-0.437,1.613c-0.24,0.355-1.027,1.43-1.107,2.975
					c-0.087,1.562,0.504,3.572,3.215,5.83c1.798,1.246,3.652,2.016,5.433,2.51c2.762,0.74,5.438,0.791,7.493,0.637
					c2.062-0.166,3.492-0.527,3.682-0.579c0.568-0.149,1.24-0.229,1.986-0.265c0.77-0.018,1.573,0.017,2.395,0.24
					c1.648,0.459,2.424,1.332,2.917,1.941l0.292,0.413c0.116,0.153,0.271,0.373,0.449,0.597c0.326,0.478,0.855,1.073,1.539,1.7
					c1.412,1.257,3.56,2.659,6.873,3.548c5.656,1.499,10.027,1.225,13.57,0.397c3.582-0.839,6.293-2.281,8.032-3.24
					c0.902-0.459,1.746-1.274,2.446-2.194c0.678-0.896,1.193-1.883,1.545-2.722c0.344-0.843,0.499-1.573,0.499-1.802
					c-0.185-0.559,0.035-1.04,0.305-1.396c0.226-0.293,0.499-0.541,0.794-0.74c0.264-0.195,0.504-0.322,0.819-0.467l0.312-0.148
					c0.184-0.092,0.391-0.213,0.644-0.355c0.499-0.271,1.085-0.626,1.538-0.959c0.392-0.248,0.992-0.931,1.43-1.539
					c0.219-0.293,0.42-0.557,0.598-0.787c0.108-0.148,0.213-0.281,0.334-0.406c0.293-0.312,0.729-0.615,1.252-0.879
					c0.526-0.281,1.188-0.547,2.105-0.914l0.294-0.08C128.846,121.395,133.116,119.16,135.684,116.416"/>
			</g>
			<g>
				<path fill="#8E3A52" d="M136.257,104.913c-2.462-3.342-7.832-5.483-10.766-6.265c-0.673-0.184-1.195-0.288-1.293-0.282
					c-0.499-0.063-0.952-0.149-1.384-0.265c-1.688-0.453-2.991-1.252-3.812-2.062c-2.021-1.757-4.037-2.485-6.236-3.095
					c-0.648-0.172-1.309-0.333-1.98-0.477c-1.137-0.287-2.93-0.328-4.501-0.242c-1.591,0.086-2.992,0.293-3.446,0.363
					c-0.826,0.131-3.105,0.471-5.628-0.201c-1.079-0.293-2.192-0.765-3.226-1.5c-1.844-1.304-3.945-2.078-5.807-2.596
					c-1.396-0.373-2.647-0.585-3.628-0.746c-0.84-0.15-3.55-0.351-6.634-0.013c-3.123,0.339-6.632,1.161-9.538,2.97
					c-1.688,1.045-2.818,2.118-3.594,3.141c-0.965,1.275-1.367,2.486-1.521,3.451c-0.161,0.978-0.053,1.711-0.018,2.092
					c0.051,0.648-0.006,1.492-0.62,2.33c-0.528,0.707-1.505,1.379-2.946,1.838c-2.193,0.712-4.921,2.325-7.218,5.356
					c-1.2,1.545-1.28,3.371-0.867,4.996c0.368,1.607,1.235,3.021,1.739,3.687l0.254,0.305c0.579,0.438,0.792,0.947,0.878,1.475
					c0.063,0.529-0.052,1.098-0.448,1.625c-0.229,0.344-1.016,1.418-1.096,2.963c-0.087,1.562,0.504,3.572,3.209,5.83
					c1.804,1.246,3.658,2.016,5.438,2.51c2.762,0.74,5.438,0.791,7.493,0.637c2.062-0.166,3.492-0.528,3.67-0.569
					c0.58-0.161,1.252-0.239,1.998-0.274c0.77-0.019,1.573,0.017,2.395,0.24c1.648,0.459,2.424,1.332,2.917,1.941l0.292,0.413
					c0.116,0.153,0.271,0.373,0.449,0.597c0.326,0.477,0.855,1.073,1.539,1.7c1.412,1.257,3.56,2.659,7.068,3.601
					c5.461,1.446,9.831,1.172,13.374,0.346c3.584-0.84,6.293-2.281,8.033-3.24c0.902-0.459,1.746-1.275,2.446-2.193
					c0.678-0.896,1.194-1.884,1.545-2.723c0.344-0.843,0.499-1.574,0.506-1.837c-0.19-0.522,0.028-1.005,0.298-1.36
					c0.225-0.294,0.499-0.541,0.793-0.742c0.264-0.194,0.506-0.321,0.901-0.5l0.229-0.114c0.184-0.093,0.391-0.214,0.643-0.355
					c0.5-0.271,1.086-0.626,1.539-0.959c0.392-0.248,0.992-0.931,1.43-1.539c0.219-0.293,0.42-0.557,0.598-0.786
					c0.108-0.149,0.213-0.281,0.334-0.408c0.293-0.311,0.729-0.614,1.252-0.879c0.526-0.28,1.188-0.545,2.105-0.912l0.294-0.082
					c3.136-0.711,7.407-2.944,9.974-5.689c0.215-0.24,0.443-0.5,0.639-0.764C138.423,112.924,139.157,108.79,136.257,104.913z"/>
			</g>
			<g>
				<path fill="#AC6A6E" d="M84.08,129.473c-0.402,0-0.801-0.16-1.094-0.487c-1.695-1.884-3.42-1.896-6.96-1.481
					c-1.952,0.23-3.56-0.166-4.772-1.182c-1.205-1.018-1.9-2.568-2.01-4.479c-0.057-0.971-0.677-1.638-1.688-2.653
					c-1.027-1.034-2.309-2.32-2.476-4.302c-0.295-3.57,1.226-6.695,4.284-8.798c0.669-0.459,1.585-0.291,2.045,0.381
					c0.459,0.666,0.289,1.578-0.38,2.043c-2.182,1.5-3.227,3.619-3.021,6.134c0.074,0.867,0.666,1.504,1.631,2.469
					c1.077,1.08,2.418,2.424,2.539,4.561c0.033,0.619,0.206,1.75,0.967,2.394c0.565,0.471,1.416,0.644,2.541,0.511
					c3.859-0.447,6.805-0.54,9.486,2.44c0.541,0.603,0.494,1.534-0.109,2.073C84.783,129.348,84.43,129.473,84.08,129.473z"/>
			</g>
			<g>
				<path fill="#AC6A6E" d="M112.191,121.096c-0.265,0-0.528-0.069-0.771-0.219c-0.692-0.425-0.903-1.333-0.478-2.021
					c1.882-3.044,6.399-5.197,10.084-4.824c5.703,0.592,6.402-1.183,6.908-2.475c1.354-3.469-4.244-5.979-4.299-6
					c-0.742-0.328-1.082-1.194-0.755-1.936c0.327-0.746,1.194-1.085,1.938-0.758c2.854,1.257,7.75,4.91,5.854,9.768
					c-1.41,3.602-4.376,4.898-9.951,4.324c-2.555-0.276-5.978,1.345-7.281,3.446C113.168,120.848,112.686,121.096,112.191,121.096z"
					/>
			</g>
		</g>
	</g>
	<g>
		<g opacity="0.1">
			<g>
				<path fill="#231F20" d="M143.598,80.738c0,0.046-0.013,0.104-0.013,0.148c-0.058-9.875-11.776-18.479-34.007-24.434
					c-29.824-7.993-53.115-4.427-63.896,9.785c-2.859,3.773-4.15,7.499-3.996,11.094c-0.006-0.109-0.028-0.218-0.034-0.326
					l0.185,10.237c0.178,10.112,11.934,19.145,33.443,24.91c28.947,7.758,53.634,3.715,64.441-10.531
					c2.779-3.664,4.117-7.235,4.055-10.646L143.598,80.738z"/>
				<path fill="#231F20" d="M102.688,117.322L102.688,117.322c-8.684,0-18.008-1.32-27.742-3.928
					c-21.987-5.89-34.208-15.17-34.397-26.127l-0.184-10.238c0-0.092,0.006-0.178,0.023-0.264c-0.006-3.756,1.43-7.558,4.271-11.308
					c7.18-9.469,19.703-14.47,36.213-14.47c8.797,0,18.569,1.418,29.039,4.226c22.55,6.041,34.614,14.787,34.946,25.307
					c0.013,0.062,0.018,0.126,0.023,0.195l0.178,10.237c0.068,3.731-1.39,7.586-4.317,11.444
					C133.449,112.023,119.926,117.322,102.688,117.322z M42.943,77.586l0.172,9.637c0.173,9.565,12.015,18.202,32.504,23.692
					c9.504,2.543,18.609,3.841,27.068,3.841l0,0c16.422,0,29.205-4.938,36.01-13.908c2.572-3.394,3.848-6.707,3.796-9.848
					l-0.173-9.894c-0.018-0.063-0.021-0.138-0.021-0.207c-0.052-9.269-11.789-17.508-33.053-23.205
					c-10.251-2.751-19.8-4.14-28.373-4.14c-15.677,0-27.488,4.651-34.168,13.46c-2.625,3.462-3.883,6.914-3.738,10.261l0,0
					c0,0,0,0,0.006,0C42.979,77.379,42.967,77.488,42.943,77.586z"/>
			</g>
			<g>
				<g>
					<path fill="#231F20" d="M129.773,84.568c0.195,0.212,0.219,0.477,0.047,0.707s-0.522,0.385-0.918,0.447
						c-9.286,1.178-24.842-0.711-40.65-4.949c-15.785-4.232-28.505-9.917-33.139-14.821c-0.213-0.224-0.225-0.477-0.047-0.707
						c0.173-0.229,0.506-0.402,0.914-0.442c9.291-1.194,24.857,0.701,40.638,4.927C112.427,73.969,125.123,79.647,129.773,84.568z
						 M89.33,79.35c14.064,3.771,28.299,5.679,37.193,5.041c-5.088-4.375-16.945-9.463-30.991-13.224
						c-14.039-3.762-28.304-5.68-37.175-5.037C63.428,70.506,75.279,75.588,89.33,79.35"/>
				</g>
			</g>
			<g>
				<path fill="#231F20" d="M103.188,104.352c-6.392,0-10.508-1.379-10.897-1.517c-0.667-0.235-1.019-0.965-0.787-1.636
					c0.235-0.667,0.972-1.021,1.638-0.793c0.205,0.075,21.045,6.971,43.004-11.955c0.533-0.459,1.354-0.402,1.813,0.139
					c0.466,0.533,0.408,1.344-0.132,1.809C124.544,101.842,111.801,104.352,103.188,104.352z"/>
			</g>
		</g>
		<g>
			<g>
				<path fill="#DFC282" d="M143.598,77.799c0,0.045-0.013,0.104-0.013,0.148c-0.058-9.876-11.776-18.479-34.007-24.434
					c-29.824-7.993-53.115-4.427-63.896,9.785c-2.859,3.772-4.15,7.499-3.996,11.094c-0.006-0.109-0.028-0.219-0.034-0.327
					l0.185,10.239c0.178,10.111,11.934,19.145,33.443,24.911c28.947,7.757,53.634,3.714,64.441-10.532
					c2.779-3.664,4.117-7.235,4.055-10.646L143.598,77.799z"/>
				<path fill="#CA9963" d="M102.688,114.383L102.688,114.383c-8.684,0-18.008-1.322-27.742-3.928
					c-21.987-5.891-34.208-15.172-34.397-26.128l-0.184-10.239c0-0.092,0.006-0.178,0.023-0.264
					c-0.006-3.756,1.43-7.557,4.271-11.307c7.18-9.469,19.703-14.471,36.213-14.471c8.797,0,18.569,1.418,29.039,4.227
					c22.55,6.041,34.614,14.786,34.946,25.306c0.013,0.063,0.018,0.126,0.023,0.195l0.178,10.239
					c0.068,3.731-1.39,7.584-4.317,11.443C133.449,109.083,119.926,114.383,102.688,114.383z M42.943,74.646l0.172,9.636
					c0.173,9.565,12.015,18.203,32.504,23.691c9.504,2.545,18.609,3.843,27.068,3.843l0,0c16.422,0,29.205-4.938,36.01-13.908
					c2.572-3.395,3.848-6.707,3.796-9.85l-0.173-9.894c-0.018-0.063-0.021-0.138-0.021-0.207
					c-0.052-9.268-11.789-17.508-33.053-23.205c-10.251-2.75-19.8-4.14-28.373-4.14c-15.677,0-27.488,4.651-34.168,13.46
					c-2.625,3.463-3.883,6.914-3.738,10.262l0,0c0,0,0,0,0.006,0C42.979,74.439,42.967,74.549,42.943,74.646z"/>
			</g>
			<g>
				<g>
					<path fill="#C99962" d="M129.773,81.629c0.195,0.213,0.219,0.477,0.047,0.705c-0.172,0.23-0.522,0.385-0.918,0.448
						c-9.286,1.177-24.842-0.712-40.65-4.95C72.467,73.6,59.747,67.915,55.113,63.011c-0.213-0.223-0.225-0.476-0.047-0.706
						c0.173-0.23,0.506-0.402,0.914-0.442c9.291-1.194,24.857,0.701,40.638,4.927C112.427,71.028,125.123,76.707,129.773,81.629z
						 M89.33,76.408c14.064,3.773,28.299,5.68,37.193,5.042c-5.088-4.375-16.945-9.463-30.991-13.225
						c-14.039-3.761-28.304-5.679-37.175-5.036C63.428,67.566,75.279,72.648,89.33,76.408"/>
				</g>
			</g>
			<g>
				<path fill="#C99962" d="M103.188,101.411c-6.392,0-10.508-1.378-10.897-1.517c-0.667-0.235-1.019-0.965-0.787-1.637
					c0.235-0.666,0.972-1.021,1.638-0.791c0.205,0.074,21.045,6.971,43.004-11.957c0.533-0.459,1.354-0.401,1.813,0.139
					c0.466,0.533,0.408,1.344-0.132,1.809C124.544,98.901,111.801,101.411,103.188,101.411z"/>
			</g>
		</g>
	</g>
</g>
</svg>
