<?xml version="1.0" encoding="utf-8"?>
<!-- Generator: Adobe Illustrator 19.2.1, SVG Export Plug-In . SVG Version: 6.00 Build 0)  -->
<svg version="1.1" id="Layer_1" xmlns="http://www.w3.org/2000/svg" xmlns:xlink="http://www.w3.org/1999/xlink" x="0px" y="0px"
	 viewBox="0 0 250 250" style="enable-background:new 0 0 250 250;" xml:space="preserve">
<style type="text/css">
	.st0{fill:#FFFFFF;}
	.st1{fill:#424E4D;}
	.st2{clip-path:url(#SVGID_2_);}
	.st3{fill:#F16951;}
	.st4{fill:#906A54;}
	.st5{fill:none;}
	.st6{fill:#57A0D7;}
	.st7{fill:#EEECDE;}
	.st8{fill:#5DBDA8;}
	.st9{fill:#BF8B77;}
	.st10{fill:#566262;}
	.st11{fill:#637070;}
	.st12{fill:#ED7147;}
	.st13{fill-rule:evenodd;clip-rule:evenodd;fill:#424E4D;}
</style>
<g>
	<g>
		<circle class="st0" cx="124.9" cy="125.6" r="110.1"/>
		<path class="st1" d="M124.9,236.9c-61.4,0-111.4-50-111.4-111.4c0-61.4,50-111.4,111.4-111.4c61.4,0,111.4,50,111.4,111.4
			C236.3,187,186.3,236.9,124.9,236.9z M124.9,16.7C64.9,16.7,16,65.5,16,125.6s48.9,108.9,108.9,108.9
			c60.1,0,108.9-48.9,108.9-108.9S185,16.7,124.9,16.7z"/>
	</g>
	<g>
		<defs>
			<circle id="SVGID_1_" cx="124.9" cy="125.6" r="110.1"/>
		</defs>
		<clipPath id="SVGID_2_">
			<use xlink:href="#SVGID_1_"  style="overflow:visible;"/>
		</clipPath>
		<g class="st2">
			<g>
				<path class="st3" d="M215.4,217.9c-6.1-32.9-11.3-63.9-12.2-67c-0.8-3-2.8-5.8-8.3-8.3c-5.5-2.5-31.5-13.7-31.5-13.7l-14.7-12.5
					h-23.3h-0.8h-23.3l-14.7,12.5c0,0-26,11.2-31.5,13.7c-5.5,2.5-7.5,5.3-8.3,8.3c-0.8,3-6.1,34-12.2,67
					c-6.1,32.9-6.1,66.1-6.1,66.1h39.3h56.8h0.8h56.8h39.3C221.5,284,221.5,250.8,215.4,217.9z"/>
				<path class="st1" d="M221.5,285.2h-193c-0.3,0-0.6-0.1-0.9-0.4c-0.2-0.2-0.4-0.5-0.4-0.9c0-0.3,0.1-33.7,6.1-66.3
					c2.9-15.5,5.5-30.5,7.7-42.5c2.5-13.8,4.1-22.9,4.5-24.6c1.1-4,3.9-6.8,9-9.1c5.2-2.4,29.1-12.7,31.4-13.7l14.5-12.4
					c0.2-0.2,0.5-0.3,0.8-0.3h47.5c0.3,0,0.6,0.1,0.8,0.3l14.5,12.4c2.2,1,26.1,11.3,31.4,13.7c5.1,2.3,7.9,5.1,9,9.1
					c0.5,1.7,2.1,10.8,4.5,24.6c2.1,12,4.8,27,7.7,42.5c6,32.7,6.1,66,6.1,66.3c0,0.3-0.1,0.6-0.4,0.9
					C222.1,285.1,221.8,285.2,221.5,285.2z M29.7,282.8h190.5c-0.1-6.3-0.7-35.8-6.1-64.7c-2.9-15.5-5.5-30.5-7.7-42.5
					c-2.4-13.2-4.1-22.8-4.5-24.3c-0.6-2.3-2-5-7.6-7.5c-5.5-2.5-31.3-13.6-31.5-13.7c-0.1,0-0.2-0.1-0.3-0.2l-14.3-12.3h-46.6
					l-14.3,12.3c-0.1,0.1-0.2,0.1-0.3,0.2c-0.3,0.1-26.1,11.3-31.5,13.7c-5.6,2.5-7,5.2-7.6,7.5c-0.4,1.6-2.1,11.1-4.5,24.3
					c-2.1,12-4.8,27-7.7,42.5C30.4,247,29.8,276.5,29.7,282.8z"/>
			</g>
			<g>
				<polygon class="st0" points="96.9,136.5 152.8,136.5 137.3,209.2 111.2,209.2 				"/>
				<path class="st1" d="M137.3,210.4h-26.1c-0.6,0-1.1-0.4-1.2-1l-14.3-72.8c-0.1-0.4,0-0.7,0.3-1c0.2-0.3,0.6-0.4,0.9-0.4h55.9
					c0.4,0,0.7,0.2,0.9,0.5c0.2,0.3,0.3,0.7,0.2,1l-15.5,72.8C138.4,210,137.9,210.4,137.3,210.4z M112.2,208h24.1l14.9-70.3H98.4
					L112.2,208z"/>
			</g>
			<g>
				<rect x="102.7" y="111" class="st4" width="44.3" height="30.7"/>
				<path class="st1" d="M147,142.9h-44.3c-0.7,0-1.2-0.5-1.2-1.2V111c0-0.7,0.5-1.2,1.2-1.2H147c0.7,0,1.2,0.5,1.2,1.2v30.7
					C148.2,142.3,147.7,142.9,147,142.9z M103.9,140.4h41.9v-28.2h-41.9V140.4z"/>
			</g>
			<g>
				<path class="st3" d="M125,245.3c0,0-13.9-56.3-17.9-74.7c-3.8-17.7-8-40.1-8-51.5c0,0-12,5.3-19.2,18.5l11.1,8.3
					c0,0-5.7,1.5-10.4,4.6C80.6,150.5,91.1,200.2,125,245.3z"/>
				<path class="st1" d="M125,246.5c-0.4,0-0.7-0.2-1-0.5c-33.6-44.8-44.4-94.7-44.6-95.2c-0.1-0.5,0.1-1,0.5-1.3
					c3-1.9,6.3-3.2,8.4-4l-9.2-6.9c-0.5-0.4-0.6-1-0.3-1.6c7.3-13.5,19.2-18.8,19.8-19.1c0.4-0.2,0.8-0.1,1.2,0.1
					c0.3,0.2,0.6,0.6,0.6,1c0,12.3,5,37.4,8,51.2c3.9,18.2,17.7,74.1,17.9,74.7c0.1,0.6-0.1,1.1-0.7,1.4
					C125.3,246.4,125.2,246.5,125,246.5z M82,151.1c1.5,6.4,12.1,48.7,40.3,88.5c-3.7-15-13.3-54.1-16.4-68.7
					c-2.8-13.2-7.5-36.7-8-49.7c-3.4,1.9-11.1,7-16.4,16.2l10.2,7.7c0.4,0.3,0.6,0.7,0.5,1.2c-0.1,0.5-0.4,0.8-0.9,0.9
					C91.3,147.1,86.3,148.5,82,151.1z"/>
			</g>
			<g>
				<g>
					<g>
						<polygon class="st5" points="118.8,179.2 131,181.8 131,181.8 118.8,179.2 						"/>
					</g>
					<g>
						<polygon class="st5" points="118.2,184.9 131.6,187.8 131.6,187.8 118.2,184.9 						"/>
					</g>
					<g>
						<polygon class="st5" points="124.7,244.4 124.8,244.5 124.8,244.5 124.7,244.4 						"/>
					</g>
					<g>
						<polygon class="st5" points="120.6,162.1 129.2,164 129.2,164 120.6,162.1 						"/>
					</g>
					<g>
						<polygon class="st5" points="117.7,190.5 132.2,193.7 132.2,193.7 117.7,190.6 						"/>
					</g>
					<g>
						<polygon class="st5" points="121.7,232.1 127.5,233.4 127.5,233.4 121.7,232.2 						"/>
					</g>
					<g>
						<polygon class="st5" points="121.1,156.4 128.6,158 128.6,158 121.1,156.4 						"/>
					</g>
					<g>
						<polygon class="st5" points="123.2,238.3 126.2,238.9 126.2,238.9 123.2,238.3 						"/>
					</g>
					<g>
						<polygon class="st5" points="117.1,196.2 132.8,199.7 132.8,199.7 117.1,196.2 						"/>
					</g>
					<g>
						<polygon class="st5" points="119.4,173.5 130.4,175.9 130.4,175.9 119.4,173.5 						"/>
					</g>
					<g>
						<polygon class="st5" points="120,167.8 129.8,169.9 129.8,169.9 120,167.8 						"/>
					</g>
					<g>
						<polygon class="st5" points="118.7,219.9 130.2,222.4 130.2,222.4 118.7,219.9 						"/>
					</g>
					<g>
						<polygon class="st5" points="117.2,213.7 131.6,216.9 131.6,216.9 117.2,213.7 						"/>
					</g>
					<g>
						<polygon class="st5" points="115.9,207.6 132.9,211.3 132.9,211.3 115.9,207.6 						"/>
					</g>
					<g>
						<polygon class="st5" points="120.2,226 128.9,227.9 128.9,227.9 120.2,226 						"/>
					</g>
					<g>
						<polygon class="st5" points="116.5,201.9 133.4,205.6 133.4,205.6 116.5,201.9 						"/>
					</g>
					<g>
						<polygon class="st6" points="121.4,153.8 124.8,153.8 124.8,153.8 128.1,153.8 128.6,158 121.1,156.4 						"/>
					</g>
					<g>
						<polygon class="st7" points="121.1,156.4 128.6,158 129.2,164 120.6,162.1 						"/>
					</g>
					<g>
						<polygon class="st6" points="120.6,162.1 129.2,164 129.8,169.9 120,167.8 						"/>
					</g>
					<g>
						<polygon class="st7" points="120,167.8 129.8,169.9 130.4,175.9 119.4,173.5 						"/>
					</g>
					<g>
						<polygon class="st6" points="119.4,173.5 130.4,175.9 131,181.8 118.8,179.2 						"/>
					</g>
					<g>
						<polygon class="st7" points="118.8,179.2 131,181.8 131.6,187.8 118.2,184.9 						"/>
					</g>
					<g>
						<polygon class="st6" points="118.2,184.9 131.6,187.8 132.2,193.7 117.7,190.5 						"/>
					</g>
					<g>
						<polygon class="st7" points="117.7,190.6 132.2,193.7 132.8,199.7 117.1,196.2 						"/>
					</g>
					<g>
						<polygon class="st6" points="117.1,196.2 132.8,199.7 133.4,205.6 116.5,201.9 						"/>
					</g>
					<g>
						<polygon class="st7" points="116.5,201.9 133.4,205.6 133.7,208.2 132.9,211.3 115.9,207.6 						"/>
					</g>
					<g>
						<polygon class="st6" points="115.9,208.2 115.9,207.6 132.9,211.3 131.6,216.9 117.2,213.7 						"/>
					</g>
					<g>
						<polygon class="st7" points="117.2,213.7 131.6,216.9 130.2,222.4 118.7,219.9 						"/>
					</g>
					<g>
						<polygon class="st6" points="118.7,219.9 130.2,222.4 128.9,227.9 120.2,226 						"/>
					</g>
					<g>
						<polygon class="st7" points="120.2,226 128.9,227.9 127.5,233.4 121.7,232.1 						"/>
					</g>
					<g>
						<polygon class="st6" points="121.7,232.2 127.5,233.4 126.2,238.9 123.2,238.3 						"/>
					</g>
					<g>
						<polygon class="st7" points="123.2,238.3 126.2,238.9 124.8,244.5 124.7,244.4 						"/>
					</g>
					<g>
						<polygon class="st8" points="124.8,244.7 124.8,244.7 124.8,244.6 124.7,244.4 124.8,244.5 124.8,244.6 124.8,244.7 						"/>
					</g>
				</g>
				<g>
					<path class="st1" d="M124.8,246.3c-0.3,0-0.6-0.1-0.8-0.3c-0.3-0.2-0.5-0.5-0.5-0.9l-8.8-36.2c0-0.1,0-0.3,0-0.4l5.5-54.5
						c0.1-0.6,0.6-1.1,1.2-1.1h6.7c0.6,0,1.1,0.5,1.2,1.1l5.5,54.5c0,0.1,0,0.3,0,0.4l-8.9,36.2c0,0.6-0.5,1.1-1.1,1.2
						C124.9,246.3,124.8,246.3,124.8,246.3z M117.1,208.5l7.7,31.4l7.7-31.4l-5.4-53.2h-4.5L117.1,208.5z"/>
				</g>
				<g>
					<g>
						<path class="st5" d="M130.1,151.2l-9.3,2c0,0,0,0,0,0L130.1,151.2C130.2,151.2,130.2,151.2,130.1,151.2z"/>
					</g>
					<g>
						<path class="st5" d="M132,145l-13.8,3c0,0,0,0,0,0L132,145C132,145,132,145,132,145z"/>
					</g>
					<g>
						<polygon class="st5" points="124.4,140.8 124.4,140.8 117.5,142.3 117.5,142.3 						"/>
					</g>
					<g>
						<path class="st8" d="M117.6,140.8h6.8l-6.9,1.5C117.5,141.4,117.6,140.8,117.6,140.8z"/>
					</g>
					<g>
						<path class="st7" d="M124.8,140.8L124.8,140.8h7.2c0,0,0.2,1.8,0,4.2l-13.8,3c-0.6-2.2-0.7-4.3-0.6-5.7l7-1.5H124.8z"/>
					</g>
					<g>
						<path class="st6" d="M130.2,151.2l-9.3,2c-1.4-1.5-2.2-3.4-2.7-5.2l13.8-3C131.8,146.9,131.3,149.2,130.2,151.2z"/>
					</g>
					<g>
						<path class="st7" d="M128.1,153.7c-0.6,0.5-2.2,0.8-3.4,0.8v0c0,0,0,0,0,0c0,0,0,0,0,0v0c-1.1,0-2.8-0.4-3.4-0.8
							c-0.2-0.2-0.4-0.3-0.5-0.5l9.3-2C129.6,152.1,129,153,128.1,153.7z"/>
					</g>
				</g>
				<g>
					<path class="st1" d="M124.8,156.1C124.8,156.1,124.8,156.1,124.8,156.1c-1.2,0-3.3-0.4-4.2-1.1c-5.3-4.7-4.3-13.6-4.3-14
						c0.1-0.6,0.6-1.1,1.2-1.1H132c0.6,0,1.1,0.5,1.2,1.1c0,0.4,1,9.3-4.2,14C128,155.7,126,156.1,124.8,156.1
						C124.8,156.1,124.8,156.1,124.8,156.1z M124.8,153.7C124.8,153.7,124.8,153.7,124.8,153.7c1,0,2.3-0.3,2.6-0.6
						c3.3-3,3.5-8.5,3.5-10.8h-12.1c-0.1,2.3,0.2,7.8,3.5,10.8C122.5,153.3,123.8,153.7,124.8,153.7
						C124.8,153.7,124.8,153.7,124.8,153.7z"/>
				</g>
			</g>
			<g>
				<path class="st1" d="M164.7,218.5c-0.1,0-0.2,0-0.3,0l-12.3-2.9c-0.5-0.1-0.9-0.6-0.9-1.2V187c0-0.7,0.5-1.2,1.2-1.2H177
					c0.7,0,1.2,0.5,1.2,1.2v27.4c0,0.6-0.4,1.1-0.9,1.2l-12.3,2.9C164.9,218.5,164.8,218.5,164.7,218.5z M153.6,213.5l11.1,2.6
					l11.1-2.6v-25.2h-22.2V213.5z"/>
			</g>
			<g>
				<path class="st0" d="M146.9,116.5c0,0-6.8,17.1-21.9,24.7c3.4,1.1,9.4,6.6,14,11.5c0,0,7.1-7.7,10.2-16.2
					c1.1-8.2,1.8-16.1,1.6-17.5L146.9,116.5z"/>
				<path class="st1" d="M138.9,154c-0.3,0-0.7-0.1-0.9-0.4c-5.5-6-10.8-10.4-13.4-11.2c-0.5-0.1-0.8-0.6-0.8-1.1
					c0-0.5,0.2-1,0.7-1.2c14.6-7.3,21.3-23.9,21.4-24c0.1-0.3,0.4-0.6,0.8-0.7c0.3-0.1,0.7-0.1,1,0.1l3.9,2.6
					c0.3,0.2,0.5,0.5,0.5,0.9c0.1,1.6-0.6,9.9-1.7,17.7c0,0.1,0,0.2-0.1,0.3c-3.2,8.6-10.2,16.3-10.5,16.6
					C139.6,153.8,139.3,154,138.9,154C138.9,154,138.9,154,138.9,154z M127.7,141.2c3.9,2.3,8.8,7.2,11.3,9.8
					c1.9-2.3,6.7-8.3,9.1-14.7c1-7.5,1.6-14.3,1.6-16.5l-2.1-1.4C145.6,122.4,139.4,134.3,127.7,141.2z"/>
			</g>
			<g>
				<path class="st0" d="M103,116.5c0,0,6.8,17.1,21.9,24.7c-3.4,1.1-9.4,6.6-14,11.5c0,0-7.1-7.7-10.2-16.2
					c-1.1-8.2-1.8-16.1-1.6-17.5L103,116.5z"/>
				<path class="st1" d="M111,154c-0.3,0-0.7-0.1-0.9-0.4c-0.3-0.3-7.3-8-10.5-16.6c0-0.1-0.1-0.2-0.1-0.3
					c-1.1-7.9-1.8-16.1-1.7-17.7c0-0.4,0.2-0.7,0.5-0.9l3.9-2.6c0.3-0.2,0.7-0.3,1-0.1c0.3,0.1,0.6,0.4,0.8,0.7
					c0.1,0.2,6.8,16.7,21.4,24c0.4,0.2,0.7,0.7,0.7,1.2c0,0.5-0.4,0.9-0.8,1.1c-2.6,0.8-7.9,5.2-13.4,11.2
					C111.6,153.8,111.3,154,111,154z M101.9,136.3c2.4,6.4,7.1,12.4,9.1,14.7c2.5-2.6,7.3-7.5,11.3-9.8
					c-11.7-6.8-17.9-18.8-19.8-22.8l-2.2,1.4C100.4,121.9,100.9,128.7,101.9,136.3z"/>
			</g>
			<g>
				<path class="st1" d="M69.4,284.9c-0.7,0-1.2-0.5-1.2-1.2c0-19.7-1.6-29.3-5.4-44.5c-3.9-15.5-8.8-64.4-9-66.4
					c-0.1-0.7,0.4-1.3,1.1-1.3c0.7-0.1,1.3,0.4,1.3,1.1c0.1,0.5,5.2,50.7,9,66.1c3.8,15.5,5.4,25.1,5.4,45.1
					C70.6,284.4,70.1,284.9,69.4,284.9z"/>
			</g>
			<g>
				<path class="st1" d="M181.3,284.9c-0.7,0-1.2-0.5-1.2-1.2c0-20,1.6-29.7,5.4-45.1c3.8-15.4,8.9-65.6,9-66.1
					c0.1-0.7,0.7-1.2,1.3-1.1c0.7,0.1,1.2,0.7,1.1,1.3c-0.2,2.1-5.2,50.9-9,66.4c-3.8,15.3-5.4,24.8-5.4,44.5
					C182.6,284.4,182,284.9,181.3,284.9z"/>
			</g>
			<g>
				<path class="st1" d="M123.9,285.1c-0.7,0-1.2-0.5-1.2-1.2v-32c0-2.6,0.3-4.1,1.1-6.9c0.2-0.6,0.8-1,1.5-0.9
					c0.6,0.2,1,0.8,0.9,1.5c-0.8,2.9-1,4.2-1,6.3v32C125.1,284.5,124.6,285.1,123.9,285.1z"/>
			</g>
			<g>
				<path class="st7" d="M62,284.1c0,0,1.7-35.4,3-40.7c0,0,3.1,11.7,3.7,22.9c0.6,11.2,0.6,17.7,0.6,17.7H62z"/>
				<path class="st1" d="M69.4,285.3C69.4,285.3,69.4,285.3,69.4,285.3H62c-0.3,0-0.6-0.1-0.9-0.4c-0.2-0.2-0.4-0.6-0.3-0.9
					c0.1-1.4,1.7-35.6,3-40.9c0.1-0.5,0.6-0.9,1.2-0.9c0,0,0,0,0,0c0.6,0,1,0.4,1.2,0.9c0,0.1,3.2,12,3.8,23.2
					c0.6,10,0.6,16.4,0.6,17.6c0,0.1,0,0.1,0,0.2C70.6,284.8,70,285.3,69.4,285.3z M63.3,282.9h4.9c0-2.4-0.1-8.2-0.6-16.5
					c-0.3-5.8-1.3-11.7-2.2-16.1C64.4,260.4,63.5,278,63.3,282.9z"/>
			</g>
			<g>
				<rect x="152.4" y="187" class="st8" width="24.6" height="6"/>
				<path class="st6" d="M177,194.3h-24.6c-0.7,0-1.2-0.5-1.2-1.2v-6c0-0.7,0.5-1.2,1.2-1.2H177c0.7,0,1.2,0.5,1.2,1.2v6
					C178.2,193.7,177.7,194.3,177,194.3z M153.6,191.8h22.2v-3.6h-22.2V191.8z"/>
			</g>
			<g>
				<path class="st7" d="M188.7,284.1c0,0-1.7-35.4-3-40.7c0,0-3.1,11.7-3.7,22.9c-0.6,11.2-0.6,17.7-0.6,17.7H188.7z"/>
				<path class="st1" d="M188.7,285.3h-7.4c-0.7,0-1.2-0.5-1.2-1.2c0-0.1,0-6.7,0.6-17.8c0.6-11.2,3.7-23.1,3.8-23.2
					c0.1-0.5,0.6-0.9,1.2-0.9c0,0,0,0,0,0c0.6,0,1,0.4,1.2,0.9c1.4,5.3,3,39.5,3,40.9c0,0.3-0.1,0.7-0.3,0.9
					C189.3,285.2,189,285.3,188.7,285.3z M182.5,282.9h4.9c-0.2-4.9-1.1-22.4-2.1-32.5c-0.9,4.4-1.9,10.3-2.2,16.1
					C182.7,274.7,182.6,280.5,182.5,282.9z"/>
			</g>
			<g>
				<path class="st3" d="M125,245.3c0,0,13.9-56.3,17.9-74.7c3.8-17.7,8-40.1,8-51.5c0,0,12,5.3,19.2,18.5l-11.1,8.3
					c0,0,5.7,1.5,10.4,4.6C169.3,150.5,158.8,200.2,125,245.3z"/>
				<path class="st1" d="M125,246.5c-0.2,0-0.4,0-0.5-0.1c-0.5-0.2-0.8-0.8-0.7-1.4c0.1-0.6,14-56.5,17.9-74.7c3-13.9,8-38.9,8-51.2
					c0-0.4,0.2-0.8,0.6-1c0.3-0.2,0.8-0.3,1.2-0.1c0.5,0.2,12.4,5.6,19.8,19.1c0.3,0.5,0.1,1.2-0.3,1.6l-9.2,6.9
					c2.1,0.7,5.4,2.1,8.4,4c0.4,0.3,0.6,0.8,0.5,1.3c-0.1,0.5-10.9,50.4-44.6,95.2C125.7,246.3,125.4,246.5,125,246.5z M152,121.1
					c-0.5,13-5.1,36.5-8,49.7c-3.1,14.6-12.7,53.7-16.4,68.7c28.2-39.8,38.8-82.1,40.3-88.5c-4.3-2.6-9.3-4-9.3-4
					c-0.4-0.1-0.8-0.5-0.9-0.9c-0.1-0.5,0.1-0.9,0.5-1.2l10.2-7.7C163.1,128,155.4,123,152,121.1z"/>
			</g>
			<g>
				<path class="st6" d="M123.9,285.1c-0.7,0-1.2-0.5-1.2-1.2v-32c0-2.6,0.3-4.1,1.1-6.9c0.1-0.2,0.2-0.4,0.3-0.5
					c30.9-41.2,42.3-86.7,43.8-93.3c-4.3-2.6-9.3-4-9.3-4c-0.4-0.1-0.8-0.5-0.9-0.9c-0.1-0.5,0.1-0.9,0.5-1.2l10.2-7.7
					c-6.9-12.1-18-17-18.1-17.1c-0.6-0.3-0.9-1-0.6-1.6c0.3-0.6,1-0.9,1.6-0.6c0.5,0.2,12.4,5.6,19.8,19.1c0.3,0.5,0.1,1.2-0.3,1.6
					l-9.2,6.9c2.1,0.7,5.4,2.1,8.4,4c0.4,0.3,0.6,0.8,0.5,1.3c-0.1,0.5-10.9,50.3-44.4,95.1c-0.7,2.7-0.9,4-0.9,6.1v32
					C125.2,284.5,124.6,285.1,123.9,285.1z"/>
			</g>
			<g>
				<g>
					<path class="st4" d="M167,39.9c-4.7,0-8.7,2.9-10.3,7c-3.5-2.6-9.3-5.7-16.2-7.7l0,0C139.8,37,143,34,143,34
						c-2.8-0.6-7.3,2.4-9,3.7c-0.3-0.1-0.7-0.1-1-0.2c-0.8-2.6,1.1-7.7,1.1-7.7c-3.4,1-7.2,5.4-8.6,7.2c-0.3,0-0.6,0-1,0
						c-1.5-3.9,1.9-11.9,1.9-11.9c-8.5,3.4-13.3,13.3-13.3,13.3h0c-8.8,2-16.2,5.7-20,9.1c-1.5-4.4-5.6-7.5-10.5-7.5
						c-6.1,0-11.1,5-11.1,11.1s5,11.1,11.1,11.1c0.6,0,1.1-0.1,1.6-0.1c0,4.2,0,11.2,0,23.8c0,19.8,22.1,36.2,41.3,36.1v0
						c0,0,0,0,0,0c0,0,0,0,0,0v0c19.3,0.1,41.3-16.2,41.3-36.1c0-12.4,0-19.5,0-23.7c0,0,0,0,0,0c6.1,0,11.1-5,11.1-11.1
						S173.1,39.9,167,39.9z"/>
					<path class="st1" d="M125.6,123C125.6,123,125.6,123,125.6,123l-0.3,0c-9.7,0-20.4-4.1-28.6-10.9C87.9,104.7,83,95.4,83,85.7
						c0-9.5,0-17.1,0-22.4c-0.1,0-0.3,0-0.4,0c-6.8,0-12.3-5.5-12.3-12.3s5.5-12.3,12.3-12.3c4.7,0,8.9,2.7,11,6.7
						c4.5-3.4,11.4-6.4,18.7-8.1c1.1-2.2,5.8-10.3,13.6-13.4c0.5-0.2,1-0.1,1.3,0.3c0.3,0.3,0.4,0.9,0.3,1.3
						c-0.8,1.8-2.4,6.6-2.1,9.6c2.1-2.4,5.3-5.6,8.4-6.5c0.4-0.1,0.9,0,1.2,0.3c0.3,0.3,0.4,0.8,0.3,1.3c-0.6,1.5-1.3,4.2-1.2,6
						c2.2-1.5,5.6-3.5,8.3-3.5c0.4,0,0.7,0,1,0.1c0.4,0.1,0.8,0.4,0.9,0.9c0.1,0.4,0,0.9-0.3,1.2c-0.9,0.8-2,2.3-2.2,3.4
						c5.4,1.7,10.7,4.1,14.6,6.8c2.1-3.9,6.2-6.4,10.8-6.4c6.8,0,12.3,5.5,12.3,12.3c0,6.4-4.9,11.6-11.1,12.2c0,5.3,0,12.9,0,22.5
						c0,9.6-4.9,19-13.8,26.4c-8.2,6.8-18.9,10.9-28.6,10.9L125.6,123L125.6,123z M125.6,120.6C125.6,120.6,125.6,120.6,125.6,120.6
						h0.2c18.1,0,39.9-15.5,39.9-34.9c0-10.4,0-18.3,0-23.6c0-0.3,0.1-0.6,0.4-0.9c0.3-0.3,0.6-0.4,1-0.4c5.4,0,9.8-4.4,9.8-9.9
						s-4.4-9.9-9.9-9.9c-4.1,0-7.7,2.4-9.2,6.2c-0.1,0.4-0.4,0.6-0.8,0.7c-0.4,0.1-0.8,0-1.1-0.2c-4-3-9.9-5.8-15.8-7.5
						c-0.4-0.1-0.7-0.4-0.8-0.8c-0.5-1.4,0.1-2.8,0.8-4c-1.6,0.6-3.5,1.6-5.5,3.1c-0.3,0.2-0.6,0.3-0.9,0.2l-0.4-0.1
						c-0.2,0-0.4-0.1-0.6-0.1c-0.5-0.1-0.9-0.4-1-0.9c-0.5-1.6-0.1-3.9,0.3-5.7c-2.5,1.7-4.9,4.5-5.7,5.6c-0.2,0.3-0.6,0.4-0.9,0.4
						l-0.7,0l-0.3,0c-0.5,0-1-0.3-1.2-0.8c-1-2.8-0.1-7,0.8-9.9c-5.9,3.7-9.5,10.4-9.9,11.3c-0.1,0.4-0.5,0.7-0.9,0.8
						c-9.4,2.1-16.2,5.9-19.5,8.8c-0.3,0.3-0.7,0.4-1.1,0.3c-0.4-0.1-0.7-0.4-0.8-0.8c-1.4-4-5.1-6.7-9.3-6.7
						c-5.4,0-9.9,4.4-9.9,9.9s4.4,9.9,9.9,9.9c0.4,0,0.9,0,1.4-0.1c0.4-0.1,0.7,0.1,1,0.3c0.3,0.2,0.4,0.6,0.4,0.9
						c0,5.4,0,13.4,0,23.8c0,19.3,21.8,34.9,39.9,34.9H125.6C125.5,120.6,125.6,120.6,125.6,120.6z"/>
				</g>
				<g>
					<ellipse class="st9" cx="125.5" cy="95" rx="25.2" ry="14.8"/>
					<path class="st1" d="M125.5,110.9c-14.6,0-26.5-7.2-26.5-16c0-8.8,11.9-16,26.5-16c14.6,0,26.5,7.2,26.5,16
						C152,103.8,140.1,110.9,125.5,110.9z M125.5,81.4c-13.2,0-24,6.1-24,13.5c0,7.5,10.8,13.5,24,13.5c13.2,0,24-6.1,24-13.5
						C149.6,87.5,138.8,81.4,125.5,81.4z"/>
				</g>
				<g>
					<path class="st0" d="M133.2,103.5c0,3.4-2.9,9.2-7.8,9.2l0-20.9C125.4,100.9,133.2,103.5,133.2,103.5z"/>
					<path class="st1" d="M125.4,113.9c-0.3,0-0.6-0.1-0.9-0.4c-0.2-0.2-0.4-0.5-0.4-0.9l0-20.9c0,0,0,0,0,0c0-0.7,0.5-1.2,1.2-1.2
						c0,0,0,0,0,0c0.7,0,1.2,0.5,1.2,1.2c0,0,0,0,0,0c0,0,0,0,0,0c0,7.9,6.7,10.3,6.9,10.4c0.5,0.2,0.8,0.6,0.8,1.2
						c0,2.1-0.9,4.6-2.3,6.6C130.4,112.6,128,113.9,125.4,113.9z M126.6,99.8l0,11.5c3-0.8,5-4.5,5.3-7.1
						C130.7,103.7,128.4,102.3,126.6,99.8z"/>
				</g>
				<g>
					<path class="st0" d="M117.6,103.6c0,3.4,2.9,9.1,7.8,9.1l0-20.9C125.5,100.9,117.6,103.6,117.6,103.6z"/>
					<path class="st1" d="M125.4,113.9c-5.5,0-9-6.1-9-10.4c0-0.5,0.3-1,0.8-1.2c0.3-0.1,7-2.5,7-10.4l0-0.2c0-0.7,0.5-1.2,1.2-1.2
						c0,0,0,0,0,0c0.7,0,1.2,0.5,1.2,1.2l0,0.2l0,20.7C126.6,113.4,126.1,113.9,125.4,113.9z M118.8,104.3c0.3,2.6,2.3,6.2,5.3,7
						l0-11.5C122.4,102.4,120.1,103.7,118.8,104.3z"/>
				</g>
				<g>
					<circle class="st1" cx="103.3" cy="65.1" r="4.7"/>
					<path class="st1" d="M103.3,71.1c-3.3,0-5.9-2.7-5.9-5.9c0-3.3,2.7-5.9,5.9-5.9c3.3,0,5.9,2.7,5.9,5.9
						C109.3,68.4,106.6,71.1,103.3,71.1z M103.3,61.6c-1.9,0-3.5,1.6-3.5,3.5c0,1.9,1.6,3.5,3.5,3.5c1.9,0,3.5-1.6,3.5-3.5
						C106.8,63.2,105.3,61.6,103.3,61.6z"/>
				</g>
				<g>
					<circle class="st1" cx="148" cy="65.1" r="4.7"/>
					<path class="st1" d="M148,71.1c-3.3,0-5.9-2.7-5.9-5.9c0-3.3,2.7-5.9,5.9-5.9s5.9,2.7,5.9,5.9C153.9,68.4,151.2,71.1,148,71.1z
						 M148,61.6c-1.9,0-3.5,1.6-3.5,3.5c0,1.9,1.6,3.5,3.5,3.5s3.5-1.6,3.5-3.5C151.5,63.2,149.9,61.6,148,61.6z"/>
				</g>
				<g>
					<circle class="st0" cx="149.8" cy="62.8" r="2.9"/>
				</g>
				<g>
					<circle class="st0" cx="105.1" cy="62.8" r="2.9"/>
				</g>
				<g>
					<g>
						<path class="st4" d="M139.9,67.3c-0.1,0.6,3.6,1.4,8.2,1.8c4.6,0.4,8.4,0.3,8.4-0.3l2.5,0.2l-0.5,5.2l-21.7-2.1l0.5-5.2
							L139.9,67.3z"/>
					</g>
				</g>
				<g>
					<g>
						<path class="st4" d="M111.4,67.3c0.1,0.6-3.6,1.4-8.2,1.8c-4.6,0.4-8.4,0.3-8.4-0.3l-2.5,0.2l0.5,5.2l21.7-2.1l-0.5-5.2
							L111.4,67.3z"/>
					</g>
				</g>
				<g>
					<path class="st9" d="M163.3,86c-1.1-1.5-3.6-4.6-12.8-9.9c-11-6.4-24.3-6.4-25-6.4c-0.7,0-14,0-25,6.4
						c-9.1,5.3-11.7,8.4-12.8,9.9c-1.1,1.6-2.2,3.4-2.2,6.2c0,2.9,1.6,4.9,3.5,7.1c1.9,2.2,6.8,6.4,15.5,6.6
						c14,0,20.4-5.4,20.9-14.1c0.5,8.7,7.1,14.1,21.1,14.1c8.7-0.2,13.5-4.4,15.5-6.6c1.9-2.2,3.5-4.2,3.5-7.1
						C165.6,89.4,164.5,87.6,163.3,86z"/>
					<path class="st1" d="M146.5,107.1c-13.2,0-18.9-4.6-21.1-9.8c-2.2,5.2-7.9,9.8-20.9,9.8c-9.4-0.2-14.6-5-16.4-7
						c-2.1-2.4-3.8-4.6-3.8-7.9c0-3.3,1.3-5.3,2.5-6.9c1.4-1.9,4.3-5.1,13.1-10.2c11-6.4,24.1-6.5,25.5-6.5h0.1h0.1
						c1.5,0,14.6,0.2,25.5,6.5c8.9,5.2,11.7,8.3,13.1,10.2c1.2,1.6,2.5,3.7,2.5,6.9c0,3.3-1.7,5.5-3.8,7.9
						C161.1,102.2,155.9,106.9,146.5,107.1C146.6,107.1,146.6,107.1,146.5,107.1z M125.4,71c-1.4,0-13.9,0.2-24.3,6.2
						c-9.5,5.5-11.7,8.6-12.4,9.6c-1,1.4-2,3-2,5.5c0,2.4,1.3,4.1,3.2,6.3c1.6,1.8,6.2,6,14.6,6.2c12.6,0,19.2-4.4,19.7-12.9
						c0-0.6,0.6-1.1,1.2-1.1c0.6,0,1.2,0.5,1.2,1.1c0.6,10.7,11.2,12.9,19.9,12.9c8.4-0.2,13-4.4,14.6-6.2c1.9-2.1,3.2-3.9,3.2-6.3
						c0-2.5-1-4.1-2-5.5c-0.7-1-2.9-4-12.4-9.6c-10.4-6-22.9-6.2-24.3-6.2h-0.1H125.4z"/>
				</g>
				<g>
					<path class="st10" d="M125.3,64.7c-5.8,0-9.3,1.3-9.3,2.8c0,5.6,5.4,11.2,9.3,11.2c3.9,0,9.3-5.7,9.3-11.2
						C134.6,66,131.1,64.7,125.3,64.7z"/>
					<path class="st1" d="M125.3,79.9c-4.5,0-10.5-6.2-10.5-12.4c0-2.9,5.4-4,10.5-4c5.1,0,10.5,1,10.5,4
						C135.8,73.8,129.8,79.9,125.3,79.9z M117.2,67.5c0,5,5.1,10,8.1,10c3,0,8-4.9,8.1-10c-0.3-0.5-2.6-1.6-8.1-1.6
						C119.9,65.9,117.5,67.1,117.2,67.5z"/>
				</g>
				<g>
					<path class="st10" d="M110.8,69.8c-0.3,0.1-6,2.2-14.9,1.6"/>
					<path class="st1" d="M99,72.8c-1,0-2.1,0-3.2-0.1c-0.7,0-1.2-0.6-1.1-1.3c0-0.7,0.6-1.2,1.3-1.1c8.8,0.6,14.2-1.5,14.3-1.5
						c0.6-0.3,1.3-0.1,1.6,0.5c0.3,0.6,0.1,1.3-0.5,1.7C110.8,71.2,106.1,72.8,99,72.8z"/>
				</g>
				<g>
					<path class="st10" d="M140.5,69.8c0.3,0.1,6,2.2,14.9,1.6"/>
					<path class="st1" d="M152.3,72.8c-7.1,0-11.8-1.6-12.3-1.9c-0.6-0.3-0.8-1.1-0.5-1.6c0.3-0.6,1-0.8,1.6-0.5
						c0.2,0.1,5.7,2.1,14.3,1.5c0.7,0,1.2,0.5,1.3,1.1c0,0.7-0.5,1.2-1.1,1.3C154.4,72.7,153.3,72.8,152.3,72.8z"/>
				</g>
				<g>
					<ellipse class="st11" cx="125.3" cy="68.4" rx="3.3" ry="1.4"/>
				</g>
				<g>
					<path class="st1" d="M138.5,89.1c-0.6,0-1.1-0.4-1.2-0.9c-0.1-0.7,0.3-1.3,0.9-1.5c0.2,0,21.5-4.7,50.2-1.3
						c0.7,0.1,1.1,0.7,1.1,1.3c-0.1,0.7-0.7,1.1-1.3,1.1C159.8,84.4,139,89,138.8,89C138.7,89,138.6,89.1,138.5,89.1z"/>
				</g>
				<g>
					<path class="st1" d="M183.4,95.8c-0.1,0-0.2,0-0.3,0c-16.8-4-39.9-2.5-40.1-2.5c-0.7,0-1.2-0.5-1.3-1.1c0-0.7,0.5-1.2,1.1-1.3
						c0.2,0,23.7-1.5,40.8,2.5c0.7,0.2,1.1,0.8,0.9,1.5C184.5,95.5,184,95.8,183.4,95.8z"/>
				</g>
				<g>
					<path class="st1" d="M172.4,101.4c-0.1,0-0.2,0-0.3-0.1c-8.4-2.5-26.9-3-27.1-3.1c-0.7,0-1.2-0.6-1.2-1.2
						c0-0.7,0.6-1.2,1.2-1.2c0,0,0,0,0,0c0.8,0,19,0.6,27.7,3.2c0.6,0.2,1,0.9,0.8,1.5C173.4,101,172.9,101.4,172.4,101.4z"/>
				</g>
				<g>
					<path class="st1" d="M112.2,89.1c-0.1,0-0.2,0-0.3,0c-0.2,0-21.1-4.6-49.4-1.3c-0.7,0.1-1.3-0.4-1.3-1.1
						c-0.1-0.7,0.4-1.3,1.1-1.3c28.8-3.4,50,1.3,50.2,1.3c0.7,0.1,1.1,0.8,0.9,1.5C113.2,88.7,112.7,89.1,112.2,89.1z"/>
				</g>
				<g>
					<path class="st1" d="M67.2,95.8c-0.6,0-1-0.4-1.2-0.9c-0.2-0.7,0.3-1.3,0.9-1.5c17.1-4,40.6-2.5,40.8-2.5
						c0.7,0,1.2,0.6,1.1,1.3c0,0.7-0.6,1.2-1.3,1.1c-0.2,0-23.4-1.5-40.1,2.5C67.4,95.8,67.3,95.8,67.2,95.8z"/>
				</g>
				<g>
					<path class="st1" d="M78.3,101.4c-0.5,0-1-0.3-1.2-0.9c-0.2-0.6,0.2-1.3,0.8-1.5c8.7-2.6,26.9-3.1,27.7-3.2c0,0,0,0,0,0
						c0.7,0,1.2,0.5,1.2,1.2c0,0.7-0.5,1.2-1.2,1.2c-0.2,0-18.7,0.6-27.1,3.1C78.5,101.3,78.4,101.4,78.3,101.4z"/>
				</g>
				<g>
					<circle class="st9" cx="84" cy="51" r="8.4"/>
				</g>
				<g>
					<circle class="st9" cx="165.1" cy="51" r="8.4"/>
				</g>
				<g>
					<path class="st1" d="M167,63.3c-1.9,0-3.7-0.4-5.4-1.2c-0.6-0.3-0.9-1-0.6-1.6c0.3-0.6,1-0.9,1.6-0.6c1.3,0.7,2.8,1,4.3,1
						c5.4,0,9.9-4.4,9.9-9.9s-4.4-9.9-9.9-9.9c-5.4,0-9.9,4.4-9.9,9.9c0,0.7-0.5,1.2-1.2,1.2s-1.2-0.5-1.2-1.2
						c0-6.8,5.5-12.3,12.3-12.3c6.8,0,12.3,5.5,12.3,12.3S173.8,63.3,167,63.3z"/>
				</g>
				<g>
					<path class="st1" d="M82.6,63.3c-6.8,0-12.3-5.5-12.3-12.3s5.5-12.3,12.3-12.3c6.8,0,12.3,5.5,12.3,12.3c0,0.7-0.5,1.2-1.2,1.2
						c-0.7,0-1.2-0.5-1.2-1.2c0-5.4-4.4-9.9-9.9-9.9c-5.4,0-9.9,4.4-9.9,9.9s4.4,9.9,9.9,9.9c1.5,0,3-0.3,4.3-1
						c0.6-0.3,1.3,0,1.6,0.6c0.3,0.6,0,1.3-0.6,1.6C86.3,62.9,84.5,63.3,82.6,63.3z"/>
				</g>
			</g>
			<g>
				<circle class="st10" cx="134.4" cy="250.8" r="2.7"/>
				<path class="st1" d="M134.4,254.7c-2.2,0-3.9-1.8-3.9-3.9c0-2.2,1.8-3.9,3.9-3.9c2.2,0,3.9,1.8,3.9,3.9
					C138.3,252.9,136.5,254.7,134.4,254.7z M134.4,249.3c-0.8,0-1.5,0.7-1.5,1.5s0.7,1.5,1.5,1.5c0.8,0,1.5-0.7,1.5-1.5
					S135.2,249.3,134.4,249.3z"/>
			</g>
			<g>
				<path class="st12" d="M147.7,145.1c1.8-10.4,3.1-20.1,3.1-26.4"/>
				<path class="st1" d="M147.8,146.4c-0.1,0-0.1,0-0.2,0c-0.7-0.1-1.1-0.7-1-1.4c2-11.8,3.1-20.6,3.1-26.2c0-0.7,0.5-1.2,1.2-1.2
					c0.7,0,1.2,0.5,1.2,1.2c0,5.7-1,14.7-3.1,26.6C148.8,145.9,148.3,146.4,147.8,146.4z"/>
			</g>
			<g>
				<path class="st6" d="M126,285.1c-0.7,0-1.2-0.5-1.2-1.2v-32c0-2.1-0.2-3.4-0.9-6.1c-33.5-44.8-44.3-94.6-44.4-95.1
					c-0.1-0.5,0.1-1,0.5-1.3c3-1.9,6.3-3.2,8.4-4l-9.2-6.9c-0.5-0.4-0.6-1-0.3-1.6c7.3-13.5,19.2-18.8,19.8-19.1
					c0.6-0.3,1.3,0,1.6,0.6c0.3,0.6,0,1.3-0.6,1.6c-0.1,0-11.1,5-18.1,17.1l10.2,7.7c0.4,0.3,0.6,0.7,0.5,1.2
					c-0.1,0.5-0.4,0.8-0.9,0.9c-0.1,0-5,1.4-9.3,4c1.6,6.7,13,52.2,43.9,93.4c0.1,0.1,0.2,0.3,0.3,0.5c0.8,2.9,1.1,4.4,1.1,6.9v32
					C127.3,284.5,126.7,285.1,126,285.1z"/>
			</g>
			<g>
				<path class="st12" d="M102.2,145.1c-1.8-10.4-3.1-20.1-3.1-26.4"/>
				<path class="st1" d="M102.2,146.4c-0.6,0-1.1-0.4-1.2-1c-2.1-11.9-3.1-20.9-3.1-26.6c0-0.7,0.5-1.2,1.2-1.2
					c0.7,0,1.2,0.5,1.2,1.2c0,5.6,1,14.4,3.1,26.2c0.1,0.7-0.3,1.3-1,1.4C102.4,146.3,102.3,146.4,102.2,146.4z"/>
			</g>
			<g>
				<circle class="st1" cx="176" cy="213.2" r="0.8"/>
			</g>
			<g>
				<circle class="st1" cx="176" cy="191.9" r="0.8"/>
			</g>
			<g>
				<circle class="st1" cx="176" cy="186.7" r="0.8"/>
			</g>
			<g>
				<g>
					<path class="st13" d="M165.9,200c0.2,0,0.3-0.1,0.5-0.1c0.8-0.1,1.5-0.4,2.3-0.3c0.2,0,0.4,0,0.6,0.1c0.1,0,0.3,0,0.3-0.1
						c0-0.1,0-0.3,0-0.4c-0.2-0.3-0.4-0.5-0.7-0.6c-0.5-0.1-1.1-0.2-1.6-0.1c-0.7,0.1-1.5,0.3-2.2,0.4c-1,0.2-2.5,0.8-3.6,0.9
						c-0.4,0-0.6,0.3-0.5,0.8c0.1,0.4,0.4,0.5,0.8,0.4c0.7-0.2,1.9-0.4,2.6-0.6c0.1,0,0.1,0,0.1,0l-0.3,11.7h0c0,0.1,0,0.1,0,0.2
						c0,0.2,0.1,0.3,0.3,0.3c0.2,0,0.4-0.1,0.5-0.2c0.1-0.1,0.1-0.2,0.2-0.4l0-0.1L165.9,200C165.8,200,165.8,200,165.9,200z"/>
				</g>
				<g>
					<path class="st13" d="M162.5,201.8c0.2-0.4,0.2-0.8,0.2-1.2c0-0.4-0.1-0.7-0.2-1c-0.1-0.3-0.3-0.6-0.5-0.9
						c-0.1-0.1-0.3-0.3-0.4-0.4c-0.6-0.5-1.4-0.8-2.3-0.8c0,0-0.1,0-0.1,0c-0.9,0.1-1.7,0.5-2.2,1.2c-0.6,0.7-0.9,1.6-0.7,2.4
						c0,0.3,0.3,0.5,0.5,0.5c0,0,0,0,0,0c0.1,0,0.3-0.1,0.3-0.2c0.1-0.1,0.1-0.2,0-0.3c-0.1-0.2-0.1-0.8,0.6-1.7
						c0.4-0.5,0.9-0.8,1.5-0.8c0,0,0.1,0,0.1,0c0.6,0,1.1,0.2,1.6,0.5c0.7,0.6,0.9,1.6,0.5,2.5c-0.2,0.3-0.4,0.7-0.6,0.9
						c-0.2,0.3-0.5,0.5-0.8,0.7c-0.2,0.1-0.3,0.2-0.5,0.3c-0.1,0-0.2,0.1-0.2,0.1c0,0,0-0.1,0-0.2c0-0.5,0-2,0-2c0,0,0-1.4,0-1.5
						c-0.1-0.2-0.2-0.3-0.5-0.3c0,0,0,0-0.1,0c-0.3,0-0.4,0.2-0.5,0.4l0,0l0,0l-0.1,2.2c0,0.3,0,0.6,0,0.9c0,0.3,0,0.5,0,0.8
						c0,0.5-0.1,1.1-0.1,1.6c0,0.7,0,1.5,0,2.3l0,0.1c0,0.2,0,0.5,0.1,0.7c0,0,0,0,0,0.1c0,0.3,0.1,0.6,0.1,0.7
						c0.1,0.2,0.2,0.4,0.4,0.5c0.1,0,0.1,0,0.2,0c0.2,0,0.4-0.1,0.5-0.3c0-0.1,0-0.2,0-0.3l0,0c0,0,0-0.2,0-0.3
						c0-0.5-0.1-1.5-0.1-1.8c0-0.3,0-1.8,0-1.8c0,0,0,0,0-0.1c0-0.1,0-0.2,0-0.2c0.4-0.2,0.8-0.3,1.2-0.3c0.2,0,0.4,0,0.6,0
						c0.3,0,0.4,0.2,0.5,0.4c0.1,0.2,0.1,0.4,0.1,0.7c0,0.1,0,0.9-0.3,1.8c0,0,0,0,0,0c-0.3,0.9-0.9,1.7-1.6,2.2
						c-0.1,0.1-0.2,0.2-0.4,0.3c-0.5,0.3-1.5,0.4-1.5,0.4c-0.1,0-0.3,0-0.4,0h0c0,0,0,0,0,0c0,0,0,0,0,0h0c-0.2,0-0.4,0.1-0.4,0.2
						c-0.1,0.1-0.1,0.3-0.1,0.6c0,0.3,0.2,0.5,0.5,0.5l0,0l0,0c0,0,0.1,0,0.2,0h0h0c0,0,0.2,0,0.3,0c0.9,0,1.8-0.4,2.5-1
						c0.9-0.7,1.6-1.7,2-2.7l0,0c0.3-0.8,0.4-1.6,0.3-2.5c-0.1-0.7-0.4-1.3-1-1.6c-0.2-0.1-0.5-0.2-0.7-0.3
						C161.7,203,162.2,202.5,162.5,201.8z"/>
				</g>
			</g>
		</g>
	</g>
	<g>
		<path class="st1" d="M125.1,236.9c-61.4,0-111.4-50-111.4-111.4c0-61.4,50-111.4,111.4-111.4c61.4,0,111.4,50,111.4,111.4
			C236.4,187,186.5,236.9,125.1,236.9z M125.1,16.6C65,16.6,16.1,65.5,16.1,125.6c0,60.1,48.9,108.9,108.9,108.9
			S234,185.6,234,125.6C234,65.5,185.1,16.6,125.1,16.6z"/>
	</g>
	<g>
		<g>
			<path class="st0" d="M232.5,149.3l-208.3,20c9.2,20.9,24.7,38.4,44.2,50.1l130.3-12.5C215.3,191.9,227.4,172,232.5,149.3z"/>
			<path class="st1" d="M68.3,220.7c-0.2,0-0.4-0.1-0.6-0.2c-19.9-12-35.3-29.5-44.6-50.6c-0.2-0.4-0.1-0.8,0.1-1.1
				c0.2-0.3,0.5-0.6,0.9-0.6l208.3-20c0.4,0,0.8,0.1,1,0.4c0.3,0.3,0.4,0.7,0.3,1.1c-5.1,22.5-16.9,42.7-34.2,58.2
				c-0.2,0.2-0.4,0.3-0.7,0.3L68.5,220.7C68.4,220.7,68.4,220.7,68.3,220.7z M26,170.4c9.1,19.9,23.8,36.4,42.6,47.8l129.5-12.5
				c16.3-14.8,27.6-33.8,32.8-55.1L26,170.4z"/>
		</g>
	</g>
	<g>
		<g>
			<path class="st13" d="M186.8,177.3c1,0,1.9-1,1.9-2c0-1.1-0.9-2.2-1.9-2.2c-1,0-1.9,1-1.9,2.1
				C184.9,176.3,185.9,177.3,186.8,177.3z"/>
		</g>
		<g>
			<path class="st13" d="M202.8,184.4c0,0-0.4,1.8-0.5,2.3c-0.4,1.8-0.8,3.3-1.7,5c-0.4,0.7-0.7,1.6-1.8,1.5c-1-0.1-1.3-1-1.5-1.8
				c-0.6-1.6-0.8-3.2-0.9-4.9c0-0.3,0.1-0.7,0.2-1.1c0.9-2.9,1.8-5.9,2.4-8.9c0.9-4.7,1.1-9.3,0.4-14c-0.1-0.7-0.3-1.4-0.6-2.1
				c-0.4-0.9-1.1-1.4-2.1-1.5c-1,0-1.7,0.5-2.1,1.4c-0.2,0.5-0.4,1-0.6,1.5c-1.2,4.4-1.4,8.8-1.3,13.3c0,2.7,0.2,5.3,0.4,8
				c0.2,3.1-0.2,6.2-1.2,9.2c-0.2,0.6-0.5,1.2-0.9,1.7c-0.7,1-1.5,0.9-2-0.2c-0.3-0.7-0.5-1.4-0.5-2.1c-0.2-1.9-0.3-3.9-0.4-5.8
				c0-1.8,0-3.5,0-5.3c0-0.4,0.1-0.9-0.1-1.3c-0.1-0.3-0.4-0.7-0.6-0.8c-0.8-0.4-2,0.3-2,1.2c-0.1,1.5-0.2,3-0.2,4.4
				c-0.1,2.9-0.5,5.7-1.6,8.4c-0.3,0.6-0.7,1.2-1.1,1.7c-0.7,0.7-1.3,0.6-1.7-0.3c-0.3-0.7-0.5-1.5-0.6-2.3c0-0.2,0-0.3-0.1-0.5
				c-0.3-2.1-1.7-2-1.7-2c-1.6,0.1-1.6,2.1-1.6,2.2c-0.1,0.6-0.1,1.3-0.2,1.9c-0.1,0.5-0.2,1.1-0.4,1.6c-0.1,0.3-0.4,0.8-0.7,0.8
				c-0.5,0-0.7-2.2-0.8-2.8c-0.1-0.7-0.1-1.5-0.1-2.2c0-0.3,0-0.6,0-0.9c0-1.1,0.1-2.3,0.3-3.4c0.1-0.6,0.3-1.2,0.4-1.7
				c0.2-0.6,0.7-2.4,1-2.5c0.3-0.1,0.6,0.2,0.7,0.4c0,0,0,0.1,0,0.3c0,1.2,0,2.3,0,3.6c0,0.4-0.1,0.9,0.1,1.3
				c0.1,0.3,0.4,0.7,0.6,0.8c0.8,0.4,2-0.3,2-1.2c0.1-1,0.2-2,0.3-3c0.1-0.8,0.1-1.5,0.2-2.2c0.2-1.5-0.3-2.6-1.4-3.5
				c-1.1-1-2.2-1-3.3,0c-1,0.9-1.7,2-2.2,3.2c-1.9,4.4-2.3,9-1.5,13.7c0.2,1.2,0.6,2.4,1.4,3.4c1.5,1.8,3.5,1.6,4.5-0.6
				c0.3-0.8,0.9-2.6,0.9-2.8c0.1,0.1,1.1,1.8,1.6,2.4c1.1,1.1,2.7,1.1,3.7-0.2c0.4-0.5,0.7-1,1-1.5c0.3-0.6,1-2.3,1-2.4
				c0,0.1,0.2,0.7,0.3,0.8c0.4,1.3,0.8,2.5,1.8,3.5c1.1,1.2,2.6,1.2,3.7,0.1c0.5-0.6,1.1-1.5,1.5-2.2c0.8-1.7,1.1-4,1.2-4.1
				c0.1,0.1,0.4,0.8,0.5,1.1c0.5,1.3,1.2,2.4,2.4,3.3c1.5,1.2,3,1.2,4.3-0.4c0.7-0.9,1.6-2.8,1.6-2.8
				C206,185.6,203,184.5,202.8,184.4z M195.5,179.9c-0.3,0.1-0.2-4.6-0.2-6c0.1-2.3,0.1-3.3,0.3-5.6c0-0.5,0.1-2.2,0.2-2.7
				c0.1-0.2,0.1-1.4,0.7-1.2c0.3,0.1,0.4,0.7,0.4,1c0,0.3,0.1,2.5,0.1,3.2c0,1.3-0.1,2.6-0.2,3.9C196.8,172.9,196,179.9,195.5,179.9
				z"/>
		</g>
		<g>
			<path class="st13" d="M169.9,165.7c0.5-0.1,0.9-0.2,1.4-0.3c2.1-0.5,4.2-1.3,6.5-1.2c0.5,0,1.1,0.1,1.6,0.1
				c0.4,0,0.8,0.1,0.9-0.3c0.1-0.3,0.1-0.7-0.1-1c-0.5-0.8-1.2-1.4-2.2-1.6c-1.5-0.4-3.1-0.3-4.6-0.1c-2.1,0.3-4.1,1-6.1,1.5
				c-2.9,0.8-6.9,2.4-9.9,2.8c-1.2,0.1-1.6,1-1.3,2.3c0.3,1.1,1.1,1.5,2.2,1.1c1.9-0.6,5.2-1.5,7.1-2c0.1,0,0.3-0.1,0.4-0.1
				l0.4,33.1h0c0,0.2,0,0.4,0,0.5c0.1,0.4,0.4,0.9,0.9,0.9c0.5,0,1.2-0.3,1.5-0.7c0.3-0.4,0.4-0.7,0.4-1.2l0-0.3l0.6-33.3
				C169.7,165.8,169.8,165.7,169.9,165.7z"/>
		</g>
		<g>
			<path class="st13" d="M138.8,189.9c-0.2,0-0.5,0.2-0.7,0.4c-0.1,0.2-0.1,0.5-0.2,0.7c-0.1,0.5-0.2,1-0.3,1.4
				c-0.3,1.4-1.2,4.8-1.4,5.2c-0.2,0.6-0.5,1.4-1,1.8c-0.2,0.2-0.5,0.3-0.8,0.2c-0.7-0.1-0.8-0.8-0.9-1.4c-0.6-3.8-0.9-7.6-0.3-11.5
				c0.2-1.1-0.2-1.8-0.7-2.6c-0.4-0.5-0.8-0.6-1.3-0.3c-0.6,0.3-1.1,0.6-1.7,0.9c-1.1,0.5-1.2,0.4-1.5-0.8c-0.1-0.5-0.2-1.1-0.7-1.4
				c-1-0.6-2.1-0.2-2.4,1c-0.2,0.7-0.2,1.5-0.3,2.3c-0.1,0.8,0.2,1.5,0.7,2.1c0.4,0.4,0.5,0.8,0.5,1.3c0.1,1.2,0.2,2.5,0.1,3.7
				c0,1.2-0.1,2.3-0.3,3.5c-0.1,0.3-0.1,0.5-0.1,0.8c-0.1,0.6-0.3,1.6-0.9,2.5c-0.2,0.3-0.5,0.6-0.8,0.9c-0.4,0.4-1,0.7-1.6,0.8
				c-0.5,0-1.1-0.1-1.5-0.4c-0.3-0.2-0.5-0.4-0.7-0.7c-0.2-0.2-0.9-1.4-0.1-1.6c1.3-0.3,2.1-1.1,2.4-2.3c0.8-3.1,1-6.3,0.6-9.5
				c-0.2-1.9-1.6-3.2-3.3-3.5c-1.3-0.2-2,0.1-2.5,1.4c-0.4,1-0.7,2.1-0.9,3.2c-0.3,1.7-0.5,3.4-0.5,5c-0.2,0.8-0.9,1.9-1.5,2.5
				c-0.8,0.7-1.8,0.3-2.1-0.7c-0.1-0.4-0.1-0.8-0.1-1.2c-0.1-1.5-0.4-6.6-0.5-7.6c-0.1-0.5-0.2-1.1-0.4-1.6c-0.3-0.7-0.8-1-1.5-0.9
				c-0.7,0.1-1,0.3-1.1,1.2c-0.1,0.9-0.1,1.7-0.1,2.6c0.1,1.8,0.2,3.7,0.6,5.5c0.3,1.6,0.5,3.2,0.5,4.8c0,1.1-0.2,2.2-0.3,3.2
				c-0.1,0.6-0.3,1.2-1,1.3c-0.7,0.1-0.9-0.6-1-1.1c-0.3-1.1-0.6-2.3-0.8-3.5c-0.2-2.3-0.4-4.5-0.5-6.8c-0.1-1.4,0-2.8,0-4.2
				c0-0.5-0.1-0.9-0.5-1.1c-1.5-0.8-2.6,0.2-2.5,1.4c0,2.1,0,4.1,0,6.2c0,0.6,0,1.1-0.1,1.7c0,0.6-0.1,1.1-0.2,1.6
				c-0.1,0.5-0.2,1.1-0.4,1.6c-0.1,0.5-0.3,1.1-0.5,1.6c-0.2,0.5-0.8,1.9-1.2,2.4c-0.3,0.3-0.6,0.8-1.1,0.7c-0.1,0-0.3,0-0.4-0.1
				l0,0c-0.2-0.1-0.4-0.3-0.5-0.6c-0.3-0.7-0.5-1.5-0.6-2.3c0-0.2,0-0.3-0.1-0.5c-0.3-2.1-1.7-2-1.7-2c-1.6,0.1-1.6,2.1-1.6,2.2
				c-0.1,0.6-0.1,1.3-0.2,1.9c-0.1,0.5-0.2,1.1-0.4,1.6c-0.1,0.3-0.4,0.8-0.7,0.8c-0.5,0-0.7-2.2-0.8-2.8c-0.1-0.7-0.1-1.5-0.1-2.2
				c0-0.3,0-0.6,0-0.9c0-1.1,0.1-2.3,0.3-3.4c0.1-0.6,0.3-1.2,0.4-1.8c0.2-0.6,0.7-2.4,1-2.5c0.3-0.1,0.6,0.2,0.7,0.4
				c0,0,0,0.1,0,0.3c0,1.2,0,2.3,0,3.6c0,0.4-0.1,0.9,0.1,1.3c0.1,0.3,0.4,0.7,0.6,0.8c0.8,0.4,2-0.3,2-1.2c0.1-1,0.2-2,0.3-3
				c0.1-0.8,0.1-1.5,0.2-2.2c0.2-1.5-0.3-2.6-1.4-3.5c-1.1-1-2.2-1-3.3,0c-1,0.9-1.7,2-2.2,3.2c-1.2,2.9-1.8,5.9-1.9,8.9l0,0
				c-0.2,1-0.5,2.5-1,3.4c-0.4,0.7-0.8,1.5-1.4,2.1c-1.1,1.2-2.9,1-3.9-0.3c-0.2-0.2-0.9-1.4-0.1-1.6c1.3-0.3,2.1-1.1,2.4-2.3
				c0.8-3.1,1-6.3,0.6-9.5c-0.2-1.8-1.6-3.2-3.3-3.5c-1.3-0.2-2,0.1-2.5,1.4c-0.4,1-0.7,2.1-0.9,3.2c-0.7,3.4-0.7,6.8-0.1,10.2
				c0.3,2,1,3.9,2.5,5.4c1.9,1.9,4.5,1.9,6.3-0.1c0.5-0.5,1.3-1.8,1.8-2.4c0.2,0.8,0.6,1.6,1.1,2.2c1.5,1.8,3.5,1.6,4.5-0.6
				c0.3-0.8,0.5-1.6,0.8-2.4c0-0.1,0.1-0.3,0.1-0.4c0.1,0.1,0.2,0.2,0.3,0.3c0.5,0.7,0.8,1.5,1.4,2.1c1.1,1.1,2.7,1.1,3.7-0.2l0,0
				c0,0,0,0,0-0.1c0.5-0.6,0.8-1.3,1.2-2c0.3-0.7,0.5-1.4,0.7-2c0.1-0.3,0.2-0.5,0.3-0.8c0.1,0.3,0.2,0.5,0.3,0.8
				c0.3,1.2,0.8,2.4,1.7,3.2c0.4,0.4,1,0.8,1.6,1c1.3,0.4,2.6-0.3,3.3-1.8c0.4-0.9,0.7-1.8,0.9-2.8c0.2-0.8,0.2-1.6,0.3-2.4
				c0-0.3,0-0.6,0.5-0.5c1.3,0.3,2.3,0,3.2-1.1c0.1-0.2,0.3-0.2,0.4-0.1c0,0.3,0.1,0.6,0.1,0.8c0.3,2,1,3.9,2.5,5.4
				c1.9,1.9,4.9,1.8,6.6-0.2c0.9-1.1,1.6-2.2,2.1-3.5c0.2-0.6,0.4-1.2,0.6-1.8c0.3-1.2,0.4-2.4,0.5-3.5c0.1-1.2,0.2-2.4,0.2-3.6
				c0-0.7,0-1.3-0.1-2c0-0.6,0.2-0.9,0.8-0.9c0.1,0,1-0.2,1,0.4c-0.3,3.6,0,7.1,0.5,10.6c0.1,1.1,0.5,2.1,1,3.1c1,1.8,2.8,2,4.3,0.7
				c0.8-0.7,1.3-1.5,1.7-2.5c1.5-3.4,1.6-9.9,1.5-10.1C139.3,190.1,139,189.9,138.8,189.9z M82,199.7c-0.4-0.2-0.5-2.5-0.4-4.2
				c0-0.4,0.3-2.8,0.4-3.7c0.1-0.4,0.1-0.9,0.6-0.9c1-0.1,0.9,6.8,0,8.4C82.5,199.5,82.2,199.8,82,199.7z M119,196.2
				c-0.4-0.2-0.5-2.5-0.4-4.2c0-0.4,0.3-2.8,0.4-3.7c0.1-0.4,0.1-0.9,0.6-0.9c1-0.1,0.9,6.8,0,8.4C119.5,196,119.2,196.3,119,196.2z
				"/>
		</g>
		<g>
			<path class="st13" d="M75.8,182.9c0.4-1,0.5-2.2,0.4-3.5c-0.1-1.1-0.4-2-0.8-2.9c-0.4-0.9-1-1.7-1.6-2.4
				c-0.4-0.4-0.8-0.8-1.2-1.1c-1.8-1.4-4.1-2.1-6.4-1.9c-0.1,0-0.3,0-0.4,0c-2.5,0.3-4.6,1.6-6.1,3.5c-1.6,2.1-2.3,4.5-1.8,6.9
				c0.1,0.8,0.8,1.3,1.5,1.2c0,0,0.1,0,0.1,0c0.4-0.1,0.7-0.2,0.9-0.5c0.2-0.3,0.2-0.6,0.1-1c-0.2-0.6-0.4-2.4,1.5-4.9
				c1-1.4,2.5-2.2,4.2-2.4c0.1,0,0.2,0,0.3,0c1.6-0.1,3.2,0.3,4.4,1.3c2,1.6,2.8,4.5,1.8,6.9c-0.4,1-1,1.9-1.6,2.7
				c-0.6,0.8-1.3,1.5-2.1,2c-0.5,0.3-0.9,0.6-1.4,0.9c-0.1,0.1-0.4,0.2-0.6,0.3c0-0.1-0.1-0.3-0.1-0.7c0-1.4-0.2-5.5-0.2-5.6
				c0,0-0.1-4-0.2-4.3c-0.3-0.6-0.7-0.8-1.3-0.8c-0.1,0-0.1,0-0.2,0c-0.7,0.1-1.1,0.5-1.2,1.2l0,0l0,0l-0.1,6.2c0,0.9,0,1.8,0,2.6
				c0,0.8,0,1.5,0,2.3c0,1.5,0,3.1,0,4.6c0,2,0.1,4.2,0.4,6.4l0,0.2c0.1,0.5,0.2,1.5,0.2,1.9c0,0,0,0.1,0,0.2c0.1,0.8,0.3,1.7,0.4,2
				c0.2,0.7,0.6,1.1,1.2,1.2c0.2,0,0.4,0.1,0.6,0c0.6-0.1,1.1-0.4,1.3-0.9c0.1-0.3,0.1-0.7,0.1-0.9l0-0.1c0-0.1,0-0.5-0.1-1
				c-0.2-1.5-0.5-4.2-0.5-5.1c-0.1-0.9-0.2-5-0.2-5.2c0-0.1,0-0.1,0-0.2c0-0.3,0-0.4,0.1-0.5c1.2-0.5,2.3-0.8,3.3-0.9
				c0.5,0,1,0,1.6,0c0.7,0.1,1.2,0.5,1.5,1.2c0.2,0.6,0.3,1.2,0.4,1.9c0,0.3,0.1,2.6-0.6,5c0,0,0,0,0,0c-0.7,2.4-2.3,4.8-4.3,6.4
				c-0.3,0.3-0.7,0.5-1,0.8c-1.4,0.8-4.1,1.4-4.1,1.4c-0.4,0.1-0.8,0.1-1.2,0.2l0,0c0,0,0,0-0.1,0c0,0,0,0-0.1,0l0,0
				c-0.6,0.1-1,0.4-1.2,0.6c-0.3,0.4-0.4,0.9-0.2,1.6c0.2,0.8,0.7,1.2,1.5,1.3l0-0.1l0,0.1c0,0,0.4,0,0.5,0l0,0l0,0
				c0,0,0.7-0.1,1-0.1c2.4-0.2,4.9-1.3,7.1-3c2.5-2.1,4.4-4.9,5.4-7.9l0,0c0.7-2.2,0.9-4.6,0.6-7c-0.3-2.1-1.3-3.5-3.1-4.4
				c-0.6-0.3-1.4-0.6-2.1-0.7C73.7,186.5,75,184.8,75.8,182.9z"/>
		</g>
		<g>
			<path class="st13" d="M151.1,188.2c-0.6-1.5-1-2.5-1.1-4.1c0-0.6,0-1.7-0.1-2.3c-0.1-0.9-0.8-1.5-1.9-1.5c-0.9,0-1.5,0.6-1.7,1.5
				c0,0.4-0.1,6.2-0.5,8.7c0,0.4-0.2,0.5-0.5,0.8c-0.5,0.4-0.8,0.7-0.9,1.4c-0.1,0.6,0.1,1.1,0.1,1.7c0.1,0.9,0.2,1.9,0.2,2.9
				c0,0.1,0,0.2,0,0.2c0,0,0,0.2-0.1,0.4c0,0.3-0.1,0.6-0.1,0.9c-0.2,1.8-0.3,4.9,0.9,4.5c0.7-0.2,1.1-1.2,1.3-2.4
				c0.1,0.1,0.2,0.3,0.2,0.3c0.9,1,1.9,1.7,3.3,1.5c1.6-0.2,2.7-1.2,3.2-2.7c0.5-1.6,0.6-3,0-4.9C153,192.8,152,190.5,151.1,188.2z
				 M151,198.5c-0.1,0.4-0.3,1-0.6,1.3c-0.4,0.3-1.2,0-1.5-0.3c-0.5-0.5-0.8-1.3-1-1.9c-0.4-1.1-0.5-2.2-0.2-3.3
				c0.5-1.6,0.7-3.3,1-5c0-0.1,0.1-0.2,0.1-0.3c0.1,0.1,0.9,1.8,1.2,2.6c0.2,0.6,0.3,1.2,0.5,1.8C150.9,195,151.4,196.8,151,198.5z"
				/>
		</g>
		<g>
			<path class="st13" d="M139.8,170.9c-0.6,0.1-1.1,0.5-1.1,1.3c0,0.6,0,1.1,0.1,1.7c0.1,0.9,0.7,4.3,0.9,5.1
				c0.2,0.8,0.7,1.2,1.2,1.1c0.4-0.1,0.8-0.6,0.8-1.4c0-1.7-0.2-6.4-0.5-7C140.9,171.1,140.4,170.8,139.8,170.9z"/>
		</g>
	</g>
</g>
</svg>
