<?xml version="1.0" encoding="utf-8"?>
<!-- Generator: Adobe Illustrator 16.0.0, SVG Export Plug-In . SVG Version: 6.00 Build 0)  -->
<!DOCTYPE svg PUBLIC "-//W3C//DTD SVG 1.1//EN" "http://www.w3.org/Graphics/SVG/1.1/DTD/svg11.dtd">
<svg version="1.1" id="Layer_1" xmlns="http://www.w3.org/2000/svg" xmlns:xlink="http://www.w3.org/1999/xlink" x="0px" y="0px"
	 width="180px" height="220px" viewBox="0 0 180 220" enable-background="new 0 0 180 220" xml:space="preserve">
<g opacity="0.1">
	<path d="M139.051,166.81c0,0.051-0.017,0.101-0.017,0.151c-0.056-9.645-11.487-18.033-33.18-23.847
		c-29.112-7.8-51.841-4.323-62.356,9.546c-2.793,3.682-4.054,7.324-3.897,10.829c-0.005-0.109-0.033-0.21-0.036-0.322l0.176,9.991
		c0.174,9.868,11.645,18.684,32.642,24.31c28.25,7.57,52.34,3.631,62.886-10.277c2.712-3.575,4.013-7.058,3.956-10.39
		L139.051,166.81z"/>
	<path d="M99.131,202.511c-0.006,0-0.006,0-0.006,0c-8.469,0-17.572-1.289-27.067-3.833c-21.459-5.749-33.381-14.802-33.572-25.497
		l-0.174-9.991c-0.003-0.084,0.005-0.168,0.022-0.255c-0.006-3.668,1.395-7.377,4.166-11.031
		c7.008-9.243,19.229-14.127,35.334-14.127c8.587,0,18.129,1.388,28.345,4.125c22,5.895,33.779,14.43,34.104,24.695
		c0.011,0.062,0.017,0.126,0.017,0.19l0.18,9.991c0.062,3.646-1.356,7.402-4.214,11.171
		C129.149,197.342,115.953,202.511,99.131,202.511z M40.828,163.736l0.168,9.402c0.163,9.339,11.723,17.762,31.711,23.118
		c9.28,2.485,18.167,3.749,26.417,3.749c0,0,0,0,0.006,0c16.021,0,28.5-4.819,35.135-13.572c2.511-3.312,3.76-6.542,3.704-9.61
		l-0.168-9.649c-0.012-0.067-0.022-0.135-0.022-0.207c-0.045-9.042-11.499-17.083-32.249-22.643
		c-10.009-2.681-19.323-4.043-27.695-4.043c-15.292,0-26.819,4.545-33.336,13.136c-2.564,3.379-3.791,6.749-3.648,10.014l0,0
		c0,0,0,0.006,0.002,0.006C40.856,163.537,40.851,163.638,40.828,163.736z"/>
</g>
<g>
	<path d="M99.618,186.134c-6.241,0-10.256-1.348-10.638-1.477c-0.653-0.229-0.995-0.941-0.768-1.597
		c0.227-0.65,0.947-1.003,1.594-0.773c0.202,0.067,20.542,6.803,41.97-11.67c0.521-0.445,1.322-0.393,1.771,0.132
		c0.448,0.526,0.392,1.316-0.135,1.771C120.452,183.688,108.018,186.134,99.618,186.134z"/>
</g>
<g>
	<path fill="#E0C382" d="M139.051,158.202c0,0.051-0.017,0.101-0.017,0.151c-0.056-9.644-11.487-18.032-33.18-23.847
		c-29.112-7.8-51.841-4.323-62.356,9.546c-2.793,3.682-4.054,7.324-3.897,10.829c-0.005-0.109-0.033-0.21-0.036-0.322l0.176,9.992
		c0.174,9.868,11.645,18.683,32.642,24.309c28.25,7.57,52.34,3.631,62.886-10.277c2.712-3.575,4.013-7.058,3.956-10.39
		L139.051,158.202z"/>
	<path fill="#CA9A62" d="M99.131,193.903c-0.006,0-0.006,0-0.006,0c-8.469,0-17.572-1.289-27.067-3.833
		c-21.459-5.749-33.381-14.802-33.572-25.497l-0.174-9.991c-0.003-0.084,0.005-0.168,0.022-0.255
		c-0.006-3.667,1.395-7.377,4.166-11.03c7.008-9.244,19.229-14.127,35.334-14.127c8.587,0,18.129,1.387,28.345,4.124
		c22,5.895,33.779,14.43,34.104,24.695c0.011,0.062,0.017,0.126,0.017,0.19l0.18,9.991c0.062,3.646-1.356,7.403-4.214,11.171
		C129.149,188.734,115.953,193.903,99.131,193.903z M40.828,155.129l0.168,9.402c0.163,9.339,11.723,17.762,31.711,23.118
		c9.28,2.485,18.167,3.749,26.417,3.749c0,0,0,0,0.006,0c16.021,0,28.5-4.819,35.135-13.572c2.511-3.312,3.76-6.542,3.704-9.61
		l-0.168-9.649c-0.012-0.067-0.022-0.135-0.022-0.207c-0.045-9.042-11.499-17.083-32.249-22.642
		c-10.009-2.682-19.323-4.043-27.695-4.043c-15.292,0-26.819,4.544-33.336,13.135c-2.564,3.379-3.791,6.75-3.648,10.014l0,0
		c0,0,0,0.006,0.002,0.006C40.856,154.93,40.851,155.03,40.828,155.129z"/>
</g>
<g>
	<path fill="#CA9A62" d="M99.618,183.265c-6.241,0-10.256-1.348-10.638-1.477c-0.653-0.229-0.995-0.941-0.768-1.597
		c0.227-0.65,0.947-1.003,1.594-0.773c0.202,0.067,20.542,6.803,41.97-11.67c0.521-0.445,1.322-0.393,1.771,0.132
		c0.448,0.526,0.392,1.317-0.135,1.771C120.452,180.818,108.018,183.265,99.618,183.265z"/>
</g>
<g>
	<g opacity="0.1">
		<g>
			<path d="M77.717,131.002c0.297,0.081,0.549,0.224,0.692,0.415l7.456,9.73c0.322,0.429,0.002,0.964-0.715,1.168
				c-0.395,0.109-0.832,0.106-1.202,0.006c-0.297-0.078-0.546-0.219-0.692-0.412l-7.444-9.744c-0.322-0.429-0.014-0.95,0.703-1.152
				C76.91,130.901,77.35,130.906,77.717,131.002z"/>
		</g>
		<g>
			<path d="M138.643,156.748c0.134,0.193,0.229,0.44-0.051,1.07l-0.185,0.277c-0.314,0.381-0.572,0.499-1.166,0.65
				c-0.88,0.193-2.454,0.185-4.23,0.258c-1.743,0.101-3.833,0.33-5.537,1.316c-0.812,0.471-1.384,0.97-1.754,1.457
				c-0.661,0.869-0.712,1.682-0.801,2.359c-0.062,0.672-0.135,1.219-0.516,1.721c-0.229,0.297-0.538,0.594-1.121,0.919
				c-0.762,0.448-1.412,0.633-2.09,0.745c-1.031,0.171-2.236,0.09-3.761,0.162c-1.501,0.045-3.345,0.358-4.981,1.328
				c-0.835,0.465-1.412,0.964-1.754,1.454c-0.661,0.871-0.734,1.676-0.801,2.362c-0.062,0.672-0.141,1.219-0.516,1.718
				c-0.23,0.3-0.561,0.588-1.121,0.922c-0.863,0.504-1.53,0.79-2.057,0.961c-0.796,0.232-1.361,0.271-2.454,0.302
				c-1.109,0.048-2.572,0.085-4.584,0.39c-2.685,0.415-4.181,0.976-5.207,1.216c-0.55,0.129-0.961,0.188-1.527,0.191
				c-0.603,0.011-1.379-0.042-2.521-0.247c-0.303-0.045-0.538-0.106-0.748-0.165c-1.359-0.361-1.886-0.899-2.653-1.706
				c-0.731-0.782-1.746-1.827-3.926-2.41c-0.35-0.095-0.737-0.179-1.132-0.252c-1.451-0.252-2.768-0.225-3.878-0.059
				c-1.687,0.252-2.863,0.762-3.95,1.039c-1.082,0.274-1.928,0.426-3.458,0.174c-0.277-0.042-0.513-0.106-0.746-0.168
				c-1.339-0.358-1.86-0.894-2.656-1.709c-0.731-0.779-1.72-1.815-3.922-2.407c-0.353-0.095-0.717-0.177-1.135-0.255
				c-1.375-0.229-2.692-0.168-3.872,0.011c-1.754,0.27-3.219,0.791-4.427,1.118c-0.597,0.148-1.132,0.264-1.58,0.297
				c-0.417,0.028-0.714,0.015-1.045-0.072c-0.235-0.064-0.493-0.165-0.801-0.354c-0.541-0.367-0.656-0.585-0.656-0.846
				c-0.028-0.264,0.129-0.616,0.465-1.062c0.398-0.526,1.037-1.146,1.581-1.86c0.681-0.899,1.25-2.017,0.756-3.267
				c-0.345-0.886-0.98-1.569-1.793-2.062c-1.183-0.745-2.46-1.104-3.382-1.523c-0.922-0.421-1.544-0.791-1.914-1.715
				c-0.308-0.857-0.106-1.354,0.317-1.944c0.39-0.516,1.022-1.049,1.563-1.766c0.63-0.79,1.028-1.838,0.513-3.057
				c-0.345-0.883-1.003-1.575-1.782-2.076c-1.182-0.745-2.494-1.099-3.393-1.511c-0.91-0.434-1.532-0.804-1.925-1.734
				c-0.28-0.711-0.331-1.204-0.289-1.558c0.051-0.364,0.188-0.616,0.412-0.952c0.283-0.37,0.745-0.832,1.244-1.491
				c0.325-0.426,0.655-0.938,0.986-1.558c0.533-1.109,0.684-1.944,0.779-2.589c0.118-0.639,0.179-1.02,0.482-1.418
				c0.269-0.358,0.756-0.778,1.824-1.4c0.788-0.443,1.438-0.631,2.113-0.74c1.034-0.174,2.25-0.104,3.763-0.162
				c1.496-0.045,3.343-0.358,4.982-1.328c0.807-0.471,1.384-0.97,1.748-1.457c0.662-0.868,0.715-1.681,0.785-2.365
				c0.056-0.672,0.134-1.221,0.513-1.72c0.25-0.294,0.558-0.589,1.118-0.919c0.79-0.443,1.44-0.628,2.112-0.74
				c1.034-0.171,2.253-0.101,3.76-0.162c1.513-0.059,3.345-0.358,4.987-1.328c0.706-0.409,1.227-0.874,1.58-1.345
				c0.706-0.928,0.846-1.855,0.975-2.659c0.121-0.826,0.247-1.516,0.574-1.908c0.143-0.188,0.286-0.303,0.513-0.414
				c0.202-0.118,0.496-0.211,1.011-0.295c0.726-0.098,1.096-0.069,1.446,0.025c0.35,0.096,0.72,0.28,1.107,0.589
				c0.61,0.456,1.238,1.157,2.059,1.857c0.799,0.697,1.841,1.438,3.46,1.874c0.28,0.073,0.571,0.135,0.899,0.188
				c1.446,0.25,2.751,0.238,3.875,0.06c1.687-0.252,2.864-0.763,3.945-1.04c1.083-0.277,1.924-0.411,3.459-0.174
				c0.269,0.057,0.516,0.104,0.751,0.169c1.322,0.372,1.849,0.907,2.617,1.714c0.768,0.773,1.742,1.824,3.95,2.416
				c0.354,0.095,0.723,0.159,1.121,0.232c1.445,0.249,2.773,0.246,3.899,0.064c1.659-0.261,2.858-0.763,3.923-1.045
				c1.082-0.275,1.939-0.406,3.469-0.151c0.634,0.101,1.171,0.207,1.563,0.313c1.255,0.355,1.569,0.61,2.202,1.157
				c0.616,0.563,1.367,1.398,2.998,2.438c1.866,1.186,3.418,1.673,4.259,2.085c0.426,0.218,0.734,0.406,1.021,0.703
				c0.302,0.306,0.594,0.742,0.868,1.454c0.309,0.854,0.101,1.348-0.331,1.919c-0.364,0.521-1.008,1.07-1.568,1.782
				c-0.6,0.784-0.998,1.827-0.493,3.062c0.319,0.877,0.991,1.555,1.765,2.054c1.188,0.748,2.488,1.115,3.407,1.532
				c0.925,0.421,1.547,0.793,1.917,1.718c0.279,0.742,0.066,1.289-0.421,1.931c-0.454,0.6-1.143,1.207-1.703,1.947
				c-0.348,0.459-0.645,0.997-0.695,1.586c-0.039,0.607,0.213,1.244,0.779,1.874c1.653,1.836,4.073,2.62,5.503,3.228
				C138.076,156.306,138.491,156.538,138.643,156.748z M62.077,163.789l44.803-25.236c1.895-0.726,3.855-1.448,5.885-2.157
				c0.666-0.249,0.919-0.768,0.526-1.18c-0.157-0.168-0.393-0.291-0.661-0.364c-0.403-0.109-0.88-0.101-1.295,0.045
				c-39.098,13.734-54.542,30.714-54.632,30.792c-0.381,0.432-0.134,0.961,0.569,1.186c0.754,0.204,1.578,0.042,1.947-0.373
				l0.151-0.165C59.718,165.978,60.601,165.084,62.077,163.789 M67.877,149.766c0.148,0.196,0.404,0.342,0.704,0.424
				c0.361,0.095,0.792,0.101,1.19-0.021c0.717-0.201,1.048-0.714,0.706-1.151l-7.444-9.744c-0.143-0.191-0.395-0.334-0.692-0.415
				c-0.37-0.096-0.807-0.101-1.202,0.011c-0.729,0.219-1.037,0.734-0.714,1.166L67.877,149.766 M68.824,134.947
				c-0.717,0.204-1.031,0.723-0.706,1.154l7.441,9.744c0.146,0.191,0.398,0.334,0.695,0.412c0.364,0.099,0.801,0.104,1.199-0.008
				c0.729-0.219,1.062-0.729,0.717-1.166l-7.456-9.73c-0.148-0.196-0.4-0.342-0.703-0.424
				C69.651,134.835,69.219,134.829,68.824,134.947 M84.212,127.079c-0.729,0.216-1.062,0.729-0.714,1.166l7.453,9.728
				c0.146,0.193,0.396,0.337,0.695,0.415c0.364,0.098,0.804,0.101,1.199-0.012c0.717-0.201,1.025-0.72,0.703-1.148l-7.442-9.745
				c-0.146-0.193-0.398-0.336-0.695-0.414C85.047,126.97,84.607,126.967,84.212,127.079 M76.515,131.013
				c-0.717,0.202-1.025,0.724-0.703,1.152l7.444,9.744c0.146,0.193,0.395,0.334,0.692,0.412c0.37,0.101,0.807,0.104,1.202-0.006
				c0.717-0.204,1.037-0.739,0.715-1.168l-7.456-9.73c-0.143-0.191-0.395-0.334-0.692-0.415
				C77.35,130.906,76.91,130.901,76.515,131.013 M110.293,155.271c0.442-0.397,0.309-0.93-0.354-1.21l-14.586-6.092
				c-0.067-0.028-0.135-0.05-0.207-0.07c-0.622-0.165-1.38-0.047-1.778,0.312c-0.468,0.39-0.311,0.93,0.328,1.205l14.585,6.091
				c0.067,0.025,0.135,0.048,0.207,0.067C109.11,155.742,109.878,155.622,110.293,155.271 M94.905,163.142
				c0.465-0.389,0.308-0.933-0.354-1.213l-14.56-6.08c-0.078-0.036-0.163-0.062-0.241-0.084c-0.608-0.162-1.351-0.042-1.765,0.303
				c-0.474,0.403-0.319,0.944,0.331,1.205l14.586,6.091c0.075,0.031,0.157,0.059,0.241,0.081
				C93.752,163.607,94.49,163.486,94.905,163.142 M117.987,151.335c0.442-0.397,0.285-0.936-0.359-1.196l-14.586-6.092
				c-0.079-0.033-0.163-0.062-0.241-0.081c-0.61-0.165-1.351-0.042-1.737,0.309c-0.465,0.39-0.313,0.93,0.325,1.205l14.587,6.091
				c0.078,0.031,0.156,0.059,0.24,0.081C116.821,151.814,117.566,151.69,117.987,151.335 M102.599,159.205
				c0.443-0.397,0.309-0.93-0.353-1.21l-14.56-6.086c-0.07-0.028-0.143-0.05-0.215-0.067c-0.639-0.174-1.398-0.053-1.796,0.303
				c-0.465,0.393-0.311,0.931,0.328,1.205l14.596,6.077c0.073,0.03,0.157,0.059,0.241,0.081
				C101.444,159.671,102.19,159.55,102.599,159.205"/>
		</g>
		<g>
			<path d="M141.013,158.794c-0.438,0.604-1.183,1.072-2.018,1.35c-0.823,0.277-1.709,0.401-2.55,0.469
				c-1.67,0.117-3.351,0.064-4.701,0.252c-0.908,0.117-1.653,0.313-2.314,0.7c-0.583,0.328-0.891,0.622-1.109,0.908
				c-0.387,0.516-0.454,1.048-0.521,1.731c-0.084,0.667-0.146,1.49-0.796,2.348c-0.375,0.502-0.952,1-1.759,1.471
				c-1.643,0.97-3.475,1.27-4.988,1.328c-1.513,0.06-2.723-0.008-3.76,0.16c-0.678,0.112-1.312,0.285-2.084,0.745
				c-0.589,0.325-0.897,0.622-1.11,0.908c-0.392,0.516-0.481,1.039-0.526,1.731c-0.084,0.667-0.146,1.49-0.796,2.348
				c-0.381,0.499-0.952,0.997-1.765,1.468c-0.998,0.577-1.866,0.981-2.74,1.244c-0.863,0.28-1.715,0.398-2.488,0.448
				c-1.574,0.112-2.841,0.028-5.167,0.387c-1.759,0.267-2.79,0.592-3.793,0.872c-1.015,0.297-2.146,0.597-3.61,0.597
				c-0.973,0.017-2.029-0.079-3.349-0.314c-0.395-0.069-0.793-0.14-1.121-0.229c-2.202-0.588-3.206-1.647-3.948-2.415
				c-0.771-0.807-1.294-1.345-2.62-1.715c-0.235-0.062-0.482-0.112-0.748-0.168c-1.541-0.241-2.376-0.104-3.458,0.174
				c-1.087,0.274-2.264,0.784-3.948,1.039c-1.123,0.18-2.429,0.19-3.877-0.059c-0.395-0.073-0.782-0.157-1.135-0.252
				c-2.23-0.6-3.2-1.637-3.934-2.396c-0.768-0.808-1.319-1.351-2.645-1.724c-0.233-0.062-0.479-0.112-0.746-0.165
				c-1.202-0.202-2.336-0.042-3.662,0.291c-1.314,0.316-2.676,0.812-4.222,1.067c-1.02,0.18-2.211,0.233-3.351-0.072
				c-0.684-0.186-1.264-0.426-1.776-0.751c-0.919-0.571-1.417-1.289-1.432-1.983c-0.022-0.676,0.316-1.272,0.74-1.827
				c0.499-0.658,1.126-1.261,1.58-1.86c0.552-0.765,0.866-1.438,0.585-2.146c-0.395-0.933-0.992-1.3-1.939-1.723
				c-0.896-0.412-2.199-0.779-3.384-1.527c-0.785-0.484-1.446-1.177-1.791-2.062c-0.49-1.21-0.115-2.264,0.513-3.057
				c0.543-0.714,1.174-1.247,1.563-1.763c0.445-0.588,0.65-1.081,0.342-1.938c-0.392-0.931-1.014-1.3-1.939-1.721
				c-0.922-0.42-2.199-0.778-3.382-1.523c-0.798-0.508-1.448-1.177-1.793-2.062c-0.319-0.841-0.435-1.508-0.384-2.096
				c0.084-0.594,0.358-1.106,0.695-1.55c0.381-0.498,0.818-0.933,1.244-1.487c0.28-0.373,0.571-0.793,0.832-1.322
				c0.459-0.979,0.585-1.631,0.681-2.275c0.095-0.611,0.19-1.255,0.734-1.97c0.476-0.631,1.241-1.23,2.465-1.953
				c1.662-0.964,3.497-1.261,5.007-1.319c1.51-0.06,2.729,0.008,3.735-0.168c0.701-0.104,1.328-0.298,2.113-0.74
				c0.563-0.33,0.894-0.619,1.109-0.905c0.381-0.498,0.454-1.048,0.527-1.731c0.056-0.672,0.118-1.499,0.768-2.356
				c0.381-0.498,0.958-0.997,1.754-1.454c1.67-0.978,3.508-1.277,5.016-1.336c1.513-0.059,2.729,0.008,3.76-0.16
				c0.678-0.112,1.328-0.297,2.09-0.745c0.426-0.229,0.714-0.499,0.941-0.799c0.432-0.568,0.605-1.313,0.726-2.106
				c0.121-0.793,0.193-1.634,0.821-2.46c0.283-0.373,0.703-0.74,1.3-1.045c0.597-0.303,1.328-0.521,2.174-0.637
				c1.194-0.198,2.342-0.148,3.301,0.109c0.936,0.252,1.619,0.656,2.171,1.082c0.555,0.423,1.017,0.891,1.454,1.316
				c0.914,0.88,1.782,1.595,3,1.922l0.538,0.109c1.505,0.25,2.351,0.099,3.435-0.182c1.084-0.274,2.261-0.785,3.945-1.037
				c1.114-0.165,2.431-0.19,3.877,0.059c0.397,0.07,0.778,0.16,1.132,0.253c2.18,0.585,3.194,1.628,3.928,2.409
				c0.768,0.807,1.295,1.342,2.65,1.706c0.214,0.057,0.449,0.121,0.751,0.169c1.502,0.246,2.371,0.101,3.458-0.174
				c1.059-0.283,2.264-0.788,3.945-1.04c1.114-0.165,2.432-0.19,3.877,0.059c0.746,0.132,1.379,0.267,1.939,0.415
				c1.76,0.474,2.718,1.135,3.396,1.771c0.718,0.656,1.267,1.303,2.679,2.197c1.244,0.778,2.174,1.148,3.093,1.535
				c0.902,0.375,1.872,0.807,2.59,1.569c0.487,0.507,0.868,1.126,1.165,1.925c0.51,1.219,0.112,2.267-0.481,3.051
				c-0.566,0.706-1.211,1.256-1.598,1.771c-0.409,0.578-0.616,1.073-0.308,1.928c0.392,0.931,0.991,1.298,1.916,1.715
				c0.919,0.421,2.225,0.787,3.401,1.533c0.779,0.501,1.451,1.18,1.799,2.062c0.448,1.186,0.006,2.253-0.633,3.062
				c-0.583,0.771-1.295,1.407-1.704,1.947c-0.258,0.345-0.392,0.634-0.414,0.922c-0.022,0.286,0.062,0.583,0.431,0.992
				c1.407,1.563,3.436,2.09,5.251,2.937c0.6,0.28,1.183,0.625,1.58,1.109c0.55,0.645,0.561,1.457,0.118,2.334
				C141.236,158.46,141.13,158.637,141.013,158.794z M137.241,158.746c0.594-0.151,0.852-0.27,1.166-0.65l0.185-0.277
				c0.28-0.63,0.185-0.877,0.051-1.07c-0.151-0.21-0.566-0.442-1.289-0.757c-1.43-0.607-3.85-1.392-5.503-3.228
				c-0.566-0.63-0.818-1.267-0.779-1.874c0.051-0.589,0.348-1.127,0.695-1.586c0.561-0.74,1.249-1.348,1.703-1.947
				c0.487-0.642,0.7-1.188,0.421-1.931c-0.37-0.925-0.992-1.297-1.917-1.718c-0.919-0.417-2.219-0.784-3.407-1.532
				c-0.773-0.499-1.445-1.177-1.765-2.054c-0.505-1.235-0.106-2.278,0.493-3.062c0.561-0.712,1.204-1.261,1.568-1.782
				c0.432-0.571,0.64-1.064,0.331-1.919c-0.274-0.712-0.566-1.148-0.868-1.454c-0.286-0.297-0.595-0.485-1.021-0.703
				c-0.841-0.412-2.393-0.899-4.259-2.085c-1.631-1.039-2.382-1.874-2.998-2.438c-0.633-0.547-0.947-0.802-2.202-1.157
				c-0.393-0.106-0.93-0.213-1.563-0.313c-1.529-0.255-2.387-0.124-3.469,0.151c-1.064,0.282-2.264,0.784-3.923,1.045
				c-1.126,0.182-2.454,0.185-3.899-0.064c-0.398-0.073-0.768-0.138-1.121-0.232c-2.208-0.592-3.183-1.643-3.95-2.416
				c-0.769-0.807-1.295-1.342-2.617-1.714c-0.235-0.064-0.482-0.112-0.751-0.169c-1.535-0.237-2.376-0.104-3.459,0.174
				c-1.081,0.277-2.258,0.788-3.945,1.04c-1.124,0.179-2.429,0.19-3.875-0.06c-0.328-0.053-0.619-0.114-0.899-0.188
				c-1.62-0.437-2.662-1.177-3.46-1.874c-0.821-0.7-1.449-1.401-2.059-1.857c-0.387-0.309-0.757-0.493-1.107-0.589
				c-0.35-0.095-0.72-0.123-1.446-0.025c-0.516,0.084-0.81,0.177-1.011,0.295c-0.227,0.111-0.37,0.227-0.513,0.414
				c-0.328,0.393-0.454,1.082-0.574,1.908c-0.129,0.804-0.269,1.731-0.975,2.659c-0.353,0.471-0.874,0.936-1.58,1.345
				c-1.642,0.97-3.474,1.27-4.987,1.328c-1.507,0.062-2.726-0.009-3.76,0.162c-0.672,0.112-1.322,0.297-2.112,0.74
				c-0.561,0.33-0.869,0.625-1.118,0.919c-0.378,0.499-0.457,1.048-0.513,1.72c-0.07,0.685-0.123,1.497-0.785,2.365
				c-0.364,0.487-0.941,0.986-1.748,1.457c-1.639,0.97-3.486,1.283-4.982,1.328c-1.513,0.059-2.729-0.012-3.763,0.162
				c-0.675,0.109-1.325,0.297-2.113,0.74c-1.067,0.622-1.555,1.042-1.824,1.4c-0.303,0.398-0.364,0.779-0.482,1.418
				c-0.095,0.645-0.247,1.479-0.779,2.589c-0.331,0.619-0.661,1.132-0.986,1.558c-0.499,0.659-0.961,1.121-1.244,1.491
				c-0.224,0.336-0.361,0.588-0.412,0.952c-0.042,0.354,0.009,0.847,0.289,1.558c0.393,0.931,1.015,1.301,1.925,1.734
				c0.899,0.412,2.211,0.766,3.393,1.511c0.779,0.501,1.438,1.193,1.782,2.076c0.516,1.219,0.118,2.267-0.513,3.057
				c-0.541,0.717-1.174,1.25-1.563,1.766c-0.423,0.591-0.625,1.087-0.317,1.944c0.37,0.924,0.992,1.294,1.914,1.715
				c0.922,0.42,2.199,0.778,3.382,1.523c0.812,0.493,1.448,1.177,1.793,2.062c0.493,1.25-0.076,2.367-0.756,3.267
				c-0.543,0.715-1.183,1.334-1.581,1.86c-0.336,0.446-0.493,0.799-0.465,1.062c0,0.261,0.115,0.479,0.656,0.846
				c0.308,0.188,0.566,0.289,0.801,0.354c0.331,0.087,0.627,0.101,1.045,0.072c0.448-0.033,0.983-0.148,1.58-0.297
				c1.208-0.327,2.673-0.849,4.427-1.118c1.18-0.179,2.497-0.24,3.872-0.011c0.417,0.078,0.782,0.16,1.135,0.255
				c2.202,0.592,3.191,1.628,3.922,2.407c0.796,0.815,1.317,1.351,2.656,1.709c0.233,0.062,0.468,0.126,0.746,0.168
				c1.53,0.252,2.376,0.101,3.458-0.174c1.087-0.277,2.264-0.787,3.95-1.039c1.11-0.166,2.427-0.193,3.878,0.059
				c0.395,0.073,0.782,0.157,1.132,0.252c2.18,0.583,3.194,1.628,3.926,2.41c0.768,0.807,1.294,1.345,2.653,1.706
				c0.21,0.059,0.445,0.12,0.748,0.165c1.143,0.205,1.919,0.258,2.521,0.247c0.566-0.003,0.978-0.062,1.527-0.191
				c1.026-0.24,2.522-0.801,5.207-1.216c2.012-0.305,3.475-0.342,4.584-0.39c1.093-0.03,1.658-0.069,2.454-0.302
				c0.526-0.171,1.193-0.457,2.057-0.961c0.561-0.334,0.891-0.622,1.121-0.922c0.375-0.499,0.453-1.046,0.516-1.718
				c0.066-0.687,0.14-1.491,0.801-2.362c0.342-0.49,0.919-0.989,1.754-1.454c1.637-0.97,3.48-1.283,4.981-1.328
				c1.524-0.072,2.729,0.009,3.761-0.162c0.678-0.112,1.328-0.297,2.09-0.745c0.583-0.325,0.892-0.622,1.121-0.919
				c0.381-0.502,0.454-1.049,0.516-1.721c0.089-0.678,0.14-1.49,0.801-2.359c0.37-0.487,0.941-0.986,1.754-1.457
				c1.704-0.986,3.794-1.216,5.537-1.316C134.787,158.931,136.361,158.939,137.241,158.746"/>
		</g>
		<g>
			<path d="M106.88,138.553l-44.803,25.236C67.647,158.886,81.654,148.199,106.88,138.553z"/>
		</g>
		<g>
			<path d="M62.341,138.858c0.297,0.081,0.549,0.224,0.692,0.415l7.444,9.744c0.342,0.438,0.011,0.95-0.706,1.151
				c-0.398,0.121-0.829,0.115-1.19,0.021c-0.3-0.082-0.555-0.228-0.704-0.424l-7.453-9.73c-0.322-0.432-0.014-0.947,0.714-1.166
				C61.534,138.758,61.971,138.763,62.341,138.858z"/>
		</g>
		<g>
			<path d="M112.63,134.852c0.269,0.073,0.504,0.196,0.661,0.364c0.393,0.412,0.14,0.931-0.526,1.18
				c-2.029,0.709-3.99,1.432-5.885,2.157c-25.226,9.646-39.232,20.333-44.803,25.236c-1.477,1.295-2.359,2.188-2.707,2.547
				l-0.151,0.165c-0.37,0.415-1.193,0.577-1.863,0.398c-0.787-0.247-1.034-0.779-0.653-1.211
				c0.09-0.078,15.534-17.058,54.632-30.792C111.75,134.751,112.227,134.742,112.63,134.852z"/>
		</g>
		<g>
			<path d="M102.801,143.966c0.078,0.02,0.162,0.048,0.241,0.081l14.586,6.092c0.645,0.261,0.802,0.799,0.359,1.196
				c-0.421,0.355-1.166,0.479-1.771,0.316c-0.084-0.022-0.162-0.05-0.24-0.081l-14.587-6.091c-0.639-0.275-0.79-0.815-0.325-1.205
				C101.45,143.924,102.19,143.801,102.801,143.966z"/>
		</g>
		<g>
			<path d="M79.751,155.765c0.078,0.022,0.163,0.048,0.241,0.084l14.56,6.08c0.661,0.28,0.818,0.824,0.354,1.213
				c-0.409,0.345-1.153,0.466-1.761,0.303c-0.084-0.022-0.166-0.05-0.241-0.081l-14.586-6.091c-0.647-0.261-0.804-0.802-0.331-1.205
				C78.401,155.723,79.144,155.603,79.751,155.765z"/>
		</g>
		<g>
			<path d="M87.471,151.842c0.073,0.018,0.146,0.039,0.215,0.067l14.56,6.086c0.661,0.28,0.796,0.812,0.353,1.21
				c-0.408,0.345-1.154,0.466-1.759,0.303c-0.084-0.022-0.168-0.051-0.241-0.081l-14.596-6.077
				c-0.639-0.274-0.793-0.812-0.328-1.205C86.072,151.789,86.832,151.668,87.471,151.842z"/>
		</g>
		<g>
			<path d="M95.146,147.899c0.072,0.021,0.14,0.042,0.207,0.07l14.586,6.092c0.662,0.28,0.796,0.812,0.354,1.21
				c-0.415,0.351-1.183,0.471-1.805,0.303c-0.072-0.02-0.14-0.042-0.207-0.067l-14.585-6.091c-0.639-0.275-0.793-0.815-0.328-1.205
				C93.767,147.853,94.524,147.734,95.146,147.899z"/>
		</g>
		<g>
			<path d="M70.012,134.93c0.303,0.082,0.555,0.228,0.703,0.424l7.456,9.73c0.345,0.438,0.011,0.947-0.717,1.166
				c-0.397,0.111-0.835,0.106-1.199,0.008c-0.297-0.078-0.549-0.221-0.695-0.412l-7.441-9.744c-0.325-0.432-0.011-0.95,0.706-1.154
				C69.219,134.829,69.651,134.835,70.012,134.93z"/>
		</g>
		<g>
			<path d="M85.411,127.068c0.297,0.078,0.549,0.221,0.695,0.414l7.442,9.745c0.322,0.429,0.014,0.947-0.703,1.148
				c-0.396,0.112-0.835,0.109-1.199,0.012c-0.3-0.078-0.55-0.222-0.695-0.415l-7.453-9.728c-0.348-0.438-0.014-0.95,0.714-1.166
				C84.607,126.967,85.047,126.97,85.411,127.068z"/>
		</g>
	</g>
	<g>
		<g>
			<path fill="#5FAC45" d="M77.717,128.133c0.297,0.081,0.549,0.225,0.692,0.415l7.456,9.73c0.322,0.429,0.002,0.964-0.715,1.168
				c-0.395,0.109-0.832,0.106-1.202,0.006c-0.297-0.078-0.546-0.219-0.692-0.412l-7.444-9.744c-0.322-0.429-0.014-0.95,0.703-1.152
				C76.91,128.032,77.35,128.037,77.717,128.133z"/>
		</g>
		<g>
			<path fill="#87C770" d="M138.643,153.879c0.134,0.193,0.229,0.44-0.051,1.07l-0.185,0.277c-0.314,0.381-0.572,0.499-1.166,0.65
				c-0.88,0.193-2.454,0.185-4.23,0.258c-1.743,0.101-3.833,0.33-5.537,1.316c-0.812,0.471-1.384,0.97-1.754,1.457
				c-0.661,0.869-0.712,1.682-0.801,2.359c-0.062,0.673-0.135,1.219-0.516,1.721c-0.229,0.297-0.538,0.594-1.121,0.919
				c-0.762,0.448-1.412,0.633-2.09,0.745c-1.031,0.171-2.236,0.09-3.761,0.162c-1.501,0.045-3.345,0.358-4.981,1.328
				c-0.835,0.465-1.412,0.964-1.754,1.454c-0.661,0.872-0.734,1.676-0.801,2.362c-0.062,0.672-0.141,1.219-0.516,1.718
				c-0.23,0.3-0.561,0.588-1.121,0.922c-0.863,0.504-1.53,0.79-2.057,0.961c-0.796,0.232-1.361,0.271-2.454,0.303
				c-1.109,0.047-2.572,0.084-4.584,0.389c-2.685,0.415-4.181,0.976-5.207,1.217c-0.55,0.128-0.961,0.188-1.527,0.19
				c-0.603,0.011-1.379-0.042-2.521-0.247c-0.303-0.045-0.538-0.106-0.748-0.165c-1.359-0.361-1.886-0.899-2.653-1.706
				c-0.731-0.782-1.746-1.827-3.926-2.41c-0.35-0.095-0.737-0.179-1.132-0.252c-1.451-0.252-2.768-0.225-3.878-0.059
				c-1.687,0.252-2.863,0.762-3.95,1.039c-1.082,0.274-1.928,0.426-3.458,0.174c-0.277-0.042-0.513-0.106-0.746-0.168
				c-1.339-0.358-1.86-0.894-2.656-1.709c-0.731-0.779-1.72-1.815-3.922-2.407c-0.353-0.095-0.717-0.177-1.135-0.255
				c-1.375-0.229-2.692-0.168-3.872,0.012c-1.754,0.269-3.219,0.79-4.427,1.117c-0.597,0.148-1.132,0.264-1.58,0.297
				c-0.417,0.028-0.714,0.015-1.045-0.072c-0.235-0.064-0.493-0.165-0.801-0.354c-0.541-0.366-0.656-0.585-0.656-0.846
				c-0.028-0.264,0.129-0.616,0.465-1.062c0.398-0.527,1.037-1.146,1.581-1.861c0.681-0.899,1.25-2.017,0.756-3.267
				c-0.345-0.886-0.98-1.569-1.793-2.062c-1.183-0.745-2.46-1.104-3.382-1.523c-0.922-0.421-1.544-0.79-1.914-1.715
				c-0.308-0.857-0.106-1.354,0.317-1.944c0.39-0.516,1.022-1.049,1.563-1.766c0.63-0.79,1.028-1.838,0.513-3.057
				c-0.345-0.883-1.003-1.575-1.782-2.076c-1.182-0.745-2.494-1.099-3.393-1.511c-0.91-0.434-1.532-0.804-1.925-1.734
				c-0.28-0.711-0.331-1.204-0.289-1.558c0.051-0.364,0.188-0.616,0.412-0.952c0.283-0.37,0.745-0.832,1.244-1.491
				c0.325-0.426,0.655-0.938,0.986-1.558c0.533-1.109,0.684-1.944,0.779-2.589c0.118-0.639,0.179-1.02,0.482-1.418
				c0.269-0.358,0.756-0.778,1.824-1.4c0.788-0.443,1.438-0.631,2.113-0.74c1.034-0.174,2.25-0.104,3.763-0.162
				c1.496-0.045,3.343-0.358,4.982-1.328c0.807-0.471,1.384-0.97,1.748-1.457c0.662-0.868,0.715-1.681,0.785-2.365
				c0.056-0.672,0.134-1.221,0.513-1.72c0.25-0.294,0.558-0.589,1.118-0.919c0.79-0.443,1.44-0.628,2.112-0.74
				c1.034-0.171,2.253-0.101,3.76-0.162c1.513-0.059,3.345-0.358,4.987-1.328c0.706-0.409,1.227-0.874,1.58-1.345
				c0.706-0.928,0.846-1.854,0.975-2.659c0.121-0.826,0.247-1.516,0.574-1.908c0.143-0.188,0.286-0.303,0.513-0.414
				c0.202-0.118,0.496-0.211,1.011-0.295c0.726-0.098,1.096-0.069,1.446,0.025c0.35,0.096,0.72,0.28,1.107,0.589
				c0.61,0.456,1.238,1.157,2.059,1.857c0.799,0.697,1.841,1.438,3.46,1.874c0.28,0.073,0.571,0.135,0.899,0.188
				c1.446,0.249,2.751,0.237,3.875,0.059c1.687-0.252,2.864-0.763,3.945-1.04c1.083-0.277,1.924-0.411,3.459-0.174
				c0.269,0.057,0.516,0.104,0.751,0.169c1.322,0.372,1.849,0.907,2.617,1.714c0.768,0.773,1.742,1.824,3.95,2.416
				c0.354,0.095,0.723,0.159,1.121,0.232c1.445,0.249,2.773,0.246,3.899,0.064c1.659-0.261,2.858-0.763,3.923-1.045
				c1.082-0.275,1.939-0.406,3.469-0.151c0.634,0.101,1.171,0.207,1.563,0.313c1.255,0.355,1.569,0.611,2.202,1.157
				c0.616,0.563,1.367,1.398,2.998,2.438c1.866,1.186,3.418,1.673,4.259,2.085c0.426,0.218,0.734,0.406,1.021,0.703
				c0.302,0.306,0.594,0.742,0.868,1.454c0.309,0.854,0.101,1.348-0.331,1.919c-0.364,0.521-1.008,1.07-1.568,1.782
				c-0.6,0.784-0.998,1.827-0.493,3.062c0.319,0.877,0.991,1.555,1.765,2.054c1.188,0.748,2.488,1.115,3.407,1.532
				c0.925,0.421,1.547,0.793,1.917,1.718c0.279,0.742,0.066,1.289-0.421,1.931c-0.454,0.6-1.143,1.208-1.703,1.947
				c-0.348,0.459-0.645,0.997-0.695,1.586c-0.039,0.607,0.213,1.244,0.779,1.874c1.653,1.836,4.073,2.62,5.503,3.228
				C138.076,153.437,138.491,153.669,138.643,153.879z M62.077,160.92l44.803-25.236c1.895-0.726,3.855-1.448,5.885-2.157
				c0.666-0.249,0.919-0.768,0.526-1.18c-0.157-0.168-0.393-0.291-0.661-0.364c-0.403-0.109-0.88-0.101-1.295,0.045
				c-39.098,13.734-54.542,30.714-54.632,30.792c-0.381,0.432-0.134,0.962,0.569,1.186c0.754,0.204,1.578,0.042,1.947-0.373
				l0.151-0.165C59.718,163.108,60.601,162.215,62.077,160.92 M67.877,146.896c0.148,0.196,0.404,0.342,0.704,0.424
				c0.361,0.095,0.792,0.101,1.19-0.02c0.717-0.202,1.048-0.715,0.706-1.152l-7.444-9.744c-0.143-0.191-0.395-0.334-0.692-0.415
				c-0.37-0.096-0.807-0.101-1.202,0.011c-0.729,0.219-1.037,0.734-0.714,1.166L67.877,146.896 M68.824,132.078
				c-0.717,0.204-1.031,0.723-0.706,1.154l7.441,9.744c0.146,0.191,0.398,0.334,0.695,0.412c0.364,0.099,0.801,0.104,1.199-0.008
				c0.729-0.219,1.062-0.729,0.717-1.166l-7.456-9.73c-0.148-0.196-0.4-0.342-0.703-0.424
				C69.651,131.966,69.219,131.96,68.824,132.078 M84.212,124.21c-0.729,0.216-1.062,0.729-0.714,1.166l7.453,9.728
				c0.146,0.193,0.396,0.337,0.695,0.415c0.364,0.098,0.804,0.101,1.199-0.012c0.717-0.201,1.025-0.72,0.703-1.148l-7.442-9.745
				c-0.146-0.193-0.398-0.336-0.695-0.414C85.047,124.101,84.607,124.098,84.212,124.21 M76.515,128.144
				c-0.717,0.202-1.025,0.724-0.703,1.152l7.444,9.744c0.146,0.193,0.395,0.334,0.692,0.412c0.37,0.101,0.807,0.104,1.202-0.006
				c0.717-0.204,1.037-0.739,0.715-1.168l-7.456-9.73c-0.143-0.19-0.395-0.334-0.692-0.415
				C77.35,128.037,76.91,128.032,76.515,128.144 M110.293,152.402c0.442-0.397,0.309-0.93-0.354-1.21l-14.586-6.092
				c-0.067-0.027-0.135-0.05-0.207-0.069c-0.622-0.166-1.38-0.048-1.778,0.311c-0.468,0.39-0.311,0.931,0.328,1.205l14.585,6.091
				c0.067,0.025,0.135,0.048,0.207,0.067C109.11,152.873,109.878,152.753,110.293,152.402 M94.905,160.272
				c0.465-0.389,0.308-0.933-0.354-1.213l-14.56-6.08c-0.078-0.036-0.163-0.062-0.241-0.084c-0.608-0.162-1.351-0.042-1.765,0.303
				c-0.474,0.403-0.319,0.944,0.331,1.205l14.586,6.091c0.075,0.031,0.157,0.059,0.241,0.081
				C93.752,160.738,94.49,160.617,94.905,160.272 M117.987,148.466c0.442-0.397,0.285-0.936-0.359-1.196l-14.586-6.092
				c-0.079-0.033-0.163-0.062-0.241-0.081c-0.61-0.165-1.351-0.042-1.737,0.309c-0.465,0.39-0.313,0.93,0.325,1.205l14.587,6.091
				c0.078,0.031,0.156,0.059,0.24,0.081C116.821,148.945,117.566,148.821,117.987,148.466 M102.599,156.336
				c0.443-0.397,0.309-0.93-0.353-1.21l-14.56-6.086c-0.07-0.028-0.143-0.05-0.215-0.067c-0.639-0.174-1.398-0.053-1.796,0.303
				c-0.465,0.393-0.311,0.931,0.328,1.205l14.596,6.077c0.073,0.031,0.157,0.059,0.241,0.081
				C101.444,156.802,102.19,156.681,102.599,156.336"/>
		</g>
		<g>
			<path fill="#5FAC45" d="M141.013,155.925c-0.438,0.604-1.183,1.072-2.018,1.35c-0.823,0.278-1.709,0.401-2.55,0.469
				c-1.67,0.117-3.351,0.064-4.701,0.252c-0.908,0.117-1.653,0.313-2.314,0.7c-0.583,0.328-0.891,0.622-1.109,0.908
				c-0.387,0.516-0.454,1.048-0.521,1.731c-0.084,0.667-0.146,1.49-0.796,2.348c-0.375,0.502-0.952,1-1.759,1.471
				c-1.643,0.97-3.475,1.27-4.988,1.328c-1.513,0.06-2.723-0.008-3.76,0.16c-0.678,0.112-1.312,0.286-2.084,0.745
				c-0.589,0.325-0.897,0.622-1.11,0.908c-0.392,0.516-0.481,1.039-0.526,1.731c-0.084,0.667-0.146,1.49-0.796,2.348
				c-0.381,0.499-0.952,0.997-1.765,1.468c-0.998,0.578-1.866,0.981-2.74,1.244c-0.863,0.28-1.715,0.398-2.488,0.448
				c-1.574,0.112-2.841,0.028-5.167,0.387c-1.759,0.267-2.79,0.592-3.793,0.872c-1.015,0.297-2.146,0.597-3.61,0.597
				c-0.973,0.017-2.029-0.079-3.349-0.314c-0.395-0.069-0.793-0.14-1.121-0.229c-2.202-0.588-3.206-1.647-3.948-2.415
				c-0.771-0.807-1.294-1.345-2.62-1.715c-0.235-0.062-0.482-0.112-0.748-0.168c-1.541-0.241-2.376-0.104-3.458,0.174
				c-1.087,0.274-2.264,0.784-3.948,1.039c-1.123,0.18-2.429,0.19-3.877-0.059c-0.395-0.073-0.782-0.157-1.135-0.252
				c-2.23-0.6-3.2-1.637-3.934-2.396c-0.768-0.808-1.319-1.351-2.645-1.724c-0.233-0.062-0.479-0.112-0.746-0.165
				c-1.202-0.202-2.336-0.042-3.662,0.291c-1.314,0.317-2.676,0.812-4.222,1.067c-1.02,0.18-2.211,0.233-3.351-0.072
				c-0.684-0.185-1.264-0.426-1.776-0.751c-0.919-0.571-1.417-1.289-1.432-1.983c-0.022-0.676,0.316-1.272,0.74-1.827
				c0.499-0.658,1.126-1.261,1.58-1.86c0.552-0.765,0.866-1.438,0.585-2.146c-0.395-0.933-0.992-1.3-1.939-1.723
				c-0.896-0.412-2.199-0.779-3.384-1.527c-0.785-0.484-1.446-1.177-1.791-2.062c-0.49-1.21-0.115-2.264,0.513-3.057
				c0.543-0.714,1.174-1.247,1.563-1.763c0.445-0.588,0.65-1.081,0.342-1.938c-0.392-0.93-1.014-1.3-1.939-1.721
				c-0.922-0.42-2.199-0.778-3.382-1.523c-0.798-0.508-1.448-1.177-1.793-2.062c-0.319-0.841-0.435-1.508-0.384-2.096
				c0.084-0.594,0.358-1.106,0.695-1.55c0.381-0.498,0.818-0.933,1.244-1.487c0.28-0.373,0.571-0.793,0.832-1.322
				c0.459-0.979,0.585-1.631,0.681-2.275c0.095-0.611,0.19-1.255,0.734-1.97c0.476-0.631,1.241-1.23,2.465-1.953
				c1.662-0.964,3.497-1.261,5.007-1.319s2.729,0.008,3.735-0.168c0.701-0.104,1.328-0.297,2.113-0.74
				c0.563-0.33,0.894-0.619,1.109-0.905c0.381-0.498,0.454-1.048,0.527-1.731c0.056-0.672,0.118-1.499,0.768-2.356
				c0.381-0.498,0.958-0.997,1.754-1.454c1.67-0.978,3.508-1.277,5.016-1.336c1.513-0.059,2.729,0.008,3.76-0.16
				c0.678-0.111,1.328-0.297,2.09-0.745c0.426-0.229,0.714-0.499,0.941-0.799c0.432-0.568,0.605-1.313,0.726-2.106
				c0.121-0.793,0.193-1.634,0.821-2.46c0.283-0.373,0.703-0.74,1.3-1.045c0.597-0.303,1.328-0.521,2.174-0.637
				c1.194-0.198,2.342-0.148,3.301,0.109c0.936,0.252,1.619,0.656,2.171,1.082c0.555,0.423,1.017,0.891,1.454,1.316
				c0.914,0.88,1.782,1.595,3,1.922l0.538,0.109c1.505,0.25,2.351,0.099,3.435-0.182c1.084-0.274,2.261-0.785,3.945-1.037
				c1.114-0.165,2.431-0.19,3.877,0.059c0.397,0.07,0.778,0.16,1.132,0.253c2.18,0.585,3.194,1.628,3.928,2.409
				c0.768,0.807,1.295,1.342,2.65,1.706c0.214,0.057,0.449,0.121,0.751,0.169c1.502,0.246,2.371,0.101,3.458-0.174
				c1.059-0.283,2.264-0.788,3.945-1.04c1.114-0.165,2.432-0.19,3.877,0.06c0.746,0.131,1.379,0.266,1.939,0.414
				c1.76,0.474,2.718,1.135,3.396,1.771c0.718,0.656,1.267,1.304,2.679,2.197c1.244,0.778,2.174,1.148,3.093,1.535
				c0.902,0.376,1.872,0.807,2.59,1.569c0.487,0.507,0.868,1.126,1.165,1.925c0.51,1.219,0.112,2.267-0.481,3.051
				c-0.566,0.706-1.211,1.256-1.598,1.771c-0.409,0.578-0.616,1.073-0.308,1.928c0.392,0.931,0.991,1.298,1.916,1.715
				c0.919,0.421,2.225,0.788,3.401,1.533c0.779,0.501,1.451,1.18,1.799,2.062c0.448,1.186,0.006,2.253-0.633,3.062
				c-0.583,0.771-1.295,1.407-1.704,1.947c-0.258,0.345-0.392,0.634-0.414,0.922c-0.022,0.286,0.062,0.583,0.431,0.992
				c1.407,1.563,3.436,2.09,5.251,2.937c0.6,0.28,1.183,0.625,1.58,1.109c0.55,0.645,0.561,1.457,0.118,2.334
				C141.236,155.591,141.13,155.768,141.013,155.925z M137.241,155.877c0.594-0.151,0.852-0.27,1.166-0.65l0.185-0.277
				c0.28-0.63,0.185-0.877,0.051-1.07c-0.151-0.21-0.566-0.442-1.289-0.757c-1.43-0.607-3.85-1.392-5.503-3.228
				c-0.566-0.63-0.818-1.267-0.779-1.874c0.051-0.589,0.348-1.127,0.695-1.586c0.561-0.739,1.249-1.348,1.703-1.947
				c0.487-0.642,0.7-1.188,0.421-1.931c-0.37-0.925-0.992-1.297-1.917-1.718c-0.919-0.417-2.219-0.784-3.407-1.532
				c-0.773-0.499-1.445-1.177-1.765-2.054c-0.505-1.235-0.106-2.278,0.493-3.062c0.561-0.712,1.204-1.261,1.568-1.782
				c0.432-0.571,0.64-1.064,0.331-1.919c-0.274-0.712-0.566-1.148-0.868-1.454c-0.286-0.297-0.595-0.485-1.021-0.703
				c-0.841-0.412-2.393-0.899-4.259-2.085c-1.631-1.039-2.382-1.874-2.998-2.438c-0.633-0.546-0.947-0.802-2.202-1.157
				c-0.393-0.106-0.93-0.213-1.563-0.313c-1.529-0.255-2.387-0.124-3.469,0.151c-1.064,0.282-2.264,0.784-3.923,1.045
				c-1.126,0.182-2.454,0.185-3.899-0.064c-0.398-0.073-0.768-0.138-1.121-0.232c-2.208-0.592-3.183-1.643-3.95-2.416
				c-0.769-0.807-1.295-1.342-2.617-1.714c-0.235-0.064-0.482-0.112-0.751-0.169c-1.535-0.237-2.376-0.104-3.459,0.174
				c-1.081,0.277-2.258,0.788-3.945,1.04c-1.124,0.179-2.429,0.19-3.875-0.059c-0.328-0.054-0.619-0.115-0.899-0.188
				c-1.62-0.437-2.662-1.177-3.46-1.874c-0.821-0.7-1.449-1.401-2.059-1.857c-0.387-0.309-0.757-0.493-1.107-0.589
				c-0.35-0.095-0.72-0.123-1.446-0.025c-0.516,0.084-0.81,0.177-1.011,0.295c-0.227,0.111-0.37,0.227-0.513,0.414
				c-0.328,0.393-0.454,1.082-0.574,1.908c-0.129,0.805-0.269,1.731-0.975,2.659c-0.353,0.471-0.874,0.936-1.58,1.345
				c-1.642,0.97-3.474,1.27-4.987,1.328c-1.507,0.062-2.726-0.009-3.76,0.162c-0.672,0.112-1.322,0.297-2.112,0.74
				c-0.561,0.33-0.869,0.625-1.118,0.919c-0.378,0.499-0.457,1.048-0.513,1.72c-0.07,0.685-0.123,1.497-0.785,2.365
				c-0.364,0.487-0.941,0.986-1.748,1.457c-1.639,0.97-3.486,1.283-4.982,1.328c-1.513,0.059-2.729-0.012-3.763,0.162
				c-0.675,0.109-1.325,0.297-2.113,0.74c-1.067,0.622-1.555,1.042-1.824,1.4c-0.303,0.398-0.364,0.779-0.482,1.418
				c-0.095,0.645-0.247,1.479-0.779,2.589c-0.331,0.619-0.661,1.132-0.986,1.558c-0.499,0.659-0.961,1.121-1.244,1.491
				c-0.224,0.336-0.361,0.588-0.412,0.952c-0.042,0.354,0.009,0.847,0.289,1.558c0.393,0.931,1.015,1.301,1.925,1.734
				c0.899,0.412,2.211,0.766,3.393,1.511c0.779,0.501,1.438,1.193,1.782,2.076c0.516,1.219,0.118,2.267-0.513,3.057
				c-0.541,0.717-1.174,1.25-1.563,1.766c-0.423,0.591-0.625,1.087-0.317,1.944c0.37,0.925,0.992,1.294,1.914,1.715
				c0.922,0.42,2.199,0.778,3.382,1.523c0.812,0.493,1.448,1.177,1.793,2.062c0.493,1.25-0.076,2.367-0.756,3.267
				c-0.543,0.715-1.183,1.334-1.581,1.861c-0.336,0.445-0.493,0.798-0.465,1.062c0,0.261,0.115,0.479,0.656,0.846
				c0.308,0.188,0.566,0.289,0.801,0.354c0.331,0.087,0.627,0.101,1.045,0.072c0.448-0.033,0.983-0.148,1.58-0.297
				c1.208-0.327,2.673-0.849,4.427-1.117c1.18-0.18,2.497-0.241,3.872-0.012c0.417,0.078,0.782,0.16,1.135,0.255
				c2.202,0.592,3.191,1.628,3.922,2.407c0.796,0.815,1.317,1.351,2.656,1.709c0.233,0.062,0.468,0.126,0.746,0.168
				c1.53,0.252,2.376,0.101,3.458-0.174c1.087-0.277,2.264-0.787,3.95-1.039c1.11-0.166,2.427-0.193,3.878,0.059
				c0.395,0.073,0.782,0.157,1.132,0.252c2.18,0.583,3.194,1.628,3.926,2.41c0.768,0.807,1.294,1.345,2.653,1.706
				c0.21,0.059,0.445,0.12,0.748,0.165c1.143,0.205,1.919,0.258,2.521,0.247c0.566-0.003,0.978-0.062,1.527-0.19
				c1.026-0.241,2.522-0.802,5.207-1.217c2.012-0.305,3.475-0.342,4.584-0.389c1.093-0.031,1.658-0.07,2.454-0.303
				c0.526-0.171,1.193-0.457,2.057-0.961c0.561-0.334,0.891-0.622,1.121-0.922c0.375-0.499,0.453-1.046,0.516-1.718
				c0.066-0.687,0.14-1.49,0.801-2.362c0.342-0.49,0.919-0.989,1.754-1.454c1.637-0.97,3.48-1.283,4.981-1.328
				c1.524-0.072,2.729,0.009,3.761-0.162c0.678-0.112,1.328-0.297,2.09-0.745c0.583-0.325,0.892-0.622,1.121-0.919
				c0.381-0.502,0.454-1.048,0.516-1.721c0.089-0.678,0.14-1.49,0.801-2.359c0.37-0.487,0.941-0.986,1.754-1.457
				c1.704-0.986,3.794-1.216,5.537-1.316C134.787,156.062,136.361,156.07,137.241,155.877"/>
		</g>
		<g>
			<path fill="#87C770" d="M106.88,135.684L62.077,160.92C67.647,156.017,81.654,145.33,106.88,135.684z"/>
		</g>
		<g>
			<path fill="#5FAC45" d="M62.341,135.989c0.297,0.081,0.549,0.224,0.692,0.415l7.444,9.744c0.342,0.438,0.011,0.95-0.706,1.152
				c-0.398,0.12-0.829,0.114-1.19,0.02c-0.3-0.082-0.555-0.228-0.704-0.424l-7.453-9.73c-0.322-0.432-0.014-0.947,0.714-1.166
				C61.534,135.889,61.971,135.894,62.341,135.989z"/>
		</g>
		<g>
			<path fill="#5FAC45" d="M112.63,131.982c0.269,0.073,0.504,0.196,0.661,0.364c0.393,0.412,0.14,0.931-0.526,1.18
				c-2.029,0.709-3.99,1.432-5.885,2.157c-25.226,9.646-39.232,20.333-44.803,25.236c-1.477,1.295-2.359,2.188-2.707,2.547
				l-0.151,0.165c-0.37,0.415-1.193,0.577-1.863,0.398c-0.787-0.247-1.034-0.779-0.653-1.211
				c0.09-0.078,15.534-17.058,54.632-30.792C111.75,131.882,112.227,131.873,112.63,131.982z"/>
		</g>
		<g>
			<path fill="#5FAC45" d="M102.801,141.097c0.078,0.02,0.162,0.048,0.241,0.081l14.586,6.092c0.645,0.261,0.802,0.799,0.359,1.196
				c-0.421,0.355-1.166,0.479-1.771,0.316c-0.084-0.022-0.162-0.05-0.24-0.081l-14.587-6.091c-0.639-0.275-0.79-0.815-0.325-1.205
				C101.45,141.055,102.19,140.932,102.801,141.097z"/>
		</g>
		<g>
			<path fill="#5FAC45" d="M79.751,152.896c0.078,0.022,0.163,0.048,0.241,0.084l14.56,6.08c0.661,0.28,0.818,0.824,0.354,1.213
				c-0.409,0.345-1.153,0.466-1.761,0.303c-0.084-0.022-0.166-0.05-0.241-0.081l-14.586-6.091c-0.647-0.261-0.804-0.802-0.331-1.205
				C78.401,152.854,79.144,152.733,79.751,152.896z"/>
		</g>
		<g>
			<path fill="#5FAC45" d="M87.471,148.973c0.073,0.018,0.146,0.039,0.215,0.067l14.56,6.086c0.661,0.28,0.796,0.812,0.353,1.21
				c-0.408,0.345-1.154,0.466-1.759,0.303c-0.084-0.022-0.168-0.05-0.241-0.081l-14.596-6.077c-0.639-0.274-0.793-0.812-0.328-1.205
				C86.072,148.92,86.832,148.799,87.471,148.973z"/>
		</g>
		<g>
			<path fill="#5FAC45" d="M95.146,145.031c0.072,0.02,0.14,0.042,0.207,0.069l14.586,6.092c0.662,0.28,0.796,0.812,0.354,1.21
				c-0.415,0.351-1.183,0.471-1.805,0.303c-0.072-0.02-0.14-0.042-0.207-0.067l-14.585-6.091c-0.639-0.274-0.793-0.815-0.328-1.205
				C93.767,144.983,94.524,144.865,95.146,145.031z"/>
		</g>
		<g>
			<path fill="#5FAC45" d="M70.012,132.061c0.303,0.082,0.555,0.228,0.703,0.424l7.456,9.73c0.345,0.438,0.011,0.947-0.717,1.166
				c-0.397,0.111-0.835,0.106-1.199,0.008c-0.297-0.078-0.549-0.221-0.695-0.412l-7.441-9.744c-0.325-0.432-0.011-0.95,0.706-1.154
				C69.219,131.96,69.651,131.966,70.012,132.061z"/>
		</g>
		<g>
			<path fill="#5FAC45" d="M85.411,124.199c0.297,0.078,0.549,0.221,0.695,0.414l7.442,9.745c0.322,0.429,0.014,0.947-0.703,1.148
				c-0.396,0.112-0.835,0.109-1.199,0.012c-0.3-0.078-0.55-0.222-0.695-0.415l-7.453-9.728c-0.348-0.438-0.014-0.95,0.714-1.166
				C84.607,124.098,85.047,124.101,85.411,124.199z"/>
		</g>
	</g>
</g>
<g>
	<g opacity="0.1">
		<g enable-background="new    ">
			<g>
				<path d="M115.555,135.616c0.336,0.09,0.616,0.255,0.757,0.474c0.28,0.451-0.101,0.953-0.852,1.127l-37.275,8.691
					c-0.375,0.089-0.769,0.078-1.1-0.012c-0.333-0.09-0.601-0.255-0.727-0.477c-0.289-0.437,0.102-0.952,0.845-1.115l37.259-8.713
					C114.832,135.513,115.225,135.529,115.555,135.616z"/>
			</g>
			<g>
				<path d="M73.23,101.76l61.125,16.378l-28.248,37.245l-61.124-16.38L73.23,101.76z M61.871,142.523
					c0.335,0.09,0.729,0.101,1.105,0.017l58.597-13.685c0.757-0.177,1.132-0.678,0.857-1.126c-0.146-0.222-0.42-0.387-0.751-0.474
					s-0.717-0.104-1.076-0.02l-58.636,13.689c-0.752,0.18-1.13,0.679-0.843,1.115C61.263,142.269,61.538,142.437,61.871,142.523
					 M115.46,137.217c0.751-0.174,1.132-0.676,0.852-1.127c-0.141-0.219-0.421-0.384-0.757-0.474
					c-0.33-0.089-0.723-0.104-1.093-0.024l-37.259,8.713c-0.743,0.163-1.133,0.679-0.845,1.115c0.126,0.222,0.394,0.387,0.727,0.477
					c0.331,0.09,0.724,0.101,1.1,0.012L115.46,137.217 M109.077,145.628c0.745-0.16,1.126-0.661,0.846-1.112
					c-0.14-0.228-0.414-0.396-0.745-0.485c-0.336-0.09-0.729-0.101-1.109-0.011l-17.44,4.073c-0.717,0.169-1.098,0.667-0.843,1.112
					c0.14,0.228,0.412,0.396,0.746,0.485c0.336,0.09,0.729,0.101,1.104,0.011L109.077,145.628"/>
			</g>
			<g>
				<path d="M121.68,127.256c0.331,0.087,0.605,0.252,0.751,0.474c0.274,0.448-0.101,0.949-0.857,1.126L62.977,142.54
					c-0.377,0.084-0.771,0.073-1.105-0.017c-0.333-0.087-0.608-0.255-0.747-0.482c-0.289-0.437,0.091-0.936,0.845-1.115
					l58.634-13.689C120.963,127.152,121.349,127.169,121.68,127.256z"/>
			</g>
			<g>
				<path d="M109.178,144.03c0.331,0.09,0.605,0.258,0.745,0.485c0.28,0.451-0.101,0.952-0.846,1.112l-17.443,4.073
					c-0.375,0.09-0.768,0.079-1.104-0.011c-0.333-0.09-0.605-0.258-0.746-0.485c-0.255-0.445,0.126-0.943,0.843-1.112l17.44-4.073
					C108.449,143.93,108.842,143.94,109.178,144.03z"/>
			</g>
		</g>
		<g>
			<path d="M136.844,116.897c0.729,0.196,1.042,0.712,0.717,1.138l-29.459,38.845c-0.324,0.432-1.182,0.63-1.905,0.437
				L42.47,140.239c-0.729-0.193-1.019-0.703-0.693-1.129l29.459-38.848c0.325-0.427,1.158-0.635,1.885-0.44L136.844,116.897z
				 M106.107,155.384l28.248-37.245L73.23,101.76l-28.247,37.244L106.107,155.384"/>
		</g>
	</g>
	<g>
		<g enable-background="new    ">
			<g>
				<path fill="#FEC00F" d="M115.555,132.747c0.336,0.09,0.616,0.255,0.757,0.474c0.28,0.451-0.101,0.953-0.852,1.127l-37.275,8.691
					c-0.375,0.089-0.769,0.078-1.1-0.012c-0.333-0.09-0.601-0.255-0.727-0.477c-0.289-0.437,0.102-0.952,0.845-1.115l37.259-8.713
					C114.832,132.644,115.225,132.66,115.555,132.747z"/>
			</g>
			<g>
				<path fill="#FFE271" d="M73.23,98.891l61.125,16.378l-28.248,37.245l-61.124-16.38L73.23,98.891z M61.871,139.654
					c0.335,0.09,0.729,0.101,1.105,0.017l58.597-13.685c0.757-0.176,1.132-0.678,0.857-1.126c-0.146-0.222-0.42-0.387-0.751-0.474
					s-0.717-0.104-1.076-0.02l-58.636,13.689c-0.752,0.18-1.13,0.679-0.843,1.115C61.263,139.399,61.538,139.567,61.871,139.654
					 M115.46,134.348c0.751-0.174,1.132-0.676,0.852-1.127c-0.141-0.219-0.421-0.384-0.757-0.474
					c-0.33-0.089-0.723-0.104-1.093-0.024l-37.259,8.713c-0.743,0.163-1.133,0.679-0.845,1.115c0.126,0.222,0.394,0.387,0.727,0.477
					c0.331,0.09,0.724,0.101,1.1,0.012L115.46,134.348 M109.077,142.759c0.745-0.16,1.126-0.661,0.846-1.112
					c-0.14-0.228-0.414-0.396-0.745-0.485c-0.336-0.09-0.729-0.101-1.109-0.011l-17.44,4.074c-0.717,0.168-1.098,0.666-0.843,1.112
					c0.14,0.227,0.412,0.395,0.746,0.484c0.336,0.09,0.729,0.101,1.104,0.011L109.077,142.759"/>
			</g>
			<g>
				<path fill="#FEC00F" d="M121.68,124.387c0.331,0.087,0.605,0.252,0.751,0.474c0.274,0.448-0.101,0.95-0.857,1.126
					l-58.597,13.685c-0.377,0.084-0.771,0.073-1.105-0.017c-0.333-0.087-0.608-0.255-0.747-0.482
					c-0.289-0.437,0.091-0.936,0.845-1.115l58.634-13.689C120.963,124.283,121.349,124.3,121.68,124.387z"/>
			</g>
			<g>
				<path fill="#FEC00F" d="M109.178,141.161c0.331,0.09,0.605,0.258,0.745,0.485c0.28,0.451-0.101,0.952-0.846,1.112l-17.443,4.073
					c-0.375,0.09-0.768,0.079-1.104-0.011c-0.333-0.09-0.605-0.258-0.746-0.484c-0.255-0.446,0.126-0.944,0.843-1.112l17.44-4.074
					C108.449,141.061,108.842,141.071,109.178,141.161z"/>
			</g>
		</g>
		<g>
			<path fill="#FEC00F" d="M136.844,114.028c0.729,0.196,1.042,0.712,0.717,1.138l-29.459,38.845
				c-0.324,0.432-1.182,0.631-1.905,0.438L42.47,137.37c-0.729-0.193-1.019-0.703-0.693-1.129l29.459-38.848
				c0.325-0.427,1.158-0.635,1.885-0.44L136.844,114.028z M106.107,152.515l28.248-37.245L73.23,98.891l-28.247,37.244
				L106.107,152.515"/>
		</g>
	</g>
</g>
<g>
	<g opacity="0.1">
		<g>
			<path d="M135.768,93.647c0.952,1.389,0.919,2.995-0.135,4.379l-23.85,31.448c-2.101,2.771-7.503,4.021-12.048,2.802
				l-51.59-13.821c-4.546-1.219-6.525-4.446-4.424-7.218L67.57,79.79c1.051-1.384,3.03-2.47,5.408-2.967
				c0.538-0.113,1.101-0.185,1.653-0.244c8.844-1.136,21.496,0.14,33.734,3.418c12.228,3.278,22.196,8.062,26.668,12.8
				C135.28,93.035,135.555,93.333,135.768,93.647z M109.184,128.777l23.85-31.447c0.723-0.957,0.739-2.019,0.078-3.003
				c-0.151-0.212-0.336-0.416-0.526-0.605c-4.254-4.473-13.741-8.992-25.436-12.125c-11.718-3.141-23.7-4.374-32.04-3.309
				c-0.483,0.042-0.861,0.096-1.227,0.17c-1.681,0.357-2.985,1.073-3.711,2.03l-23.85,31.448c-1.43,1.886-0.092,4.099,3.026,4.934
				l51.586,13.824C104.056,131.528,107.755,130.663,109.184,128.777"/>
		</g>
		<g>
			<path d="M107.149,81.597c11.694,3.133,21.182,7.652,25.436,12.125c0.19,0.189,0.375,0.394,0.526,0.605
				c0.661,0.985,0.645,2.047-0.078,3.003l-23.85,31.447c-1.429,1.886-5.128,2.751-8.249,1.916l-51.586-13.824
				c-3.119-0.835-4.457-3.048-3.026-4.934l23.85-31.448c0.726-0.957,2.03-1.673,3.711-2.03c0.366-0.074,0.745-0.127,1.227-0.17
				C83.45,77.223,95.432,78.456,107.149,81.597z"/>
		</g>
	</g>
	<g>
		<g>
			<path fill="#FAB499" d="M135.768,90.778c0.952,1.389,0.919,2.995-0.135,4.379l-23.85,31.448
				c-2.101,2.771-7.503,4.021-12.048,2.802l-51.59-13.821c-4.546-1.219-6.525-4.446-4.424-7.217L67.57,76.92
				c1.051-1.384,3.03-2.47,5.408-2.967c0.538-0.113,1.101-0.185,1.653-0.244c8.844-1.136,21.496,0.14,33.734,3.418
				c12.228,3.278,22.196,8.062,26.668,12.8C135.28,90.167,135.555,90.463,135.768,90.778z M109.184,125.908l23.85-31.447
				c0.723-0.957,0.739-2.019,0.078-3.003c-0.151-0.211-0.336-0.416-0.526-0.605c-4.254-4.473-13.741-8.992-25.436-12.125
				c-11.718-3.141-23.7-4.374-32.04-3.309c-0.483,0.042-0.861,0.095-1.227,0.169c-1.681,0.357-2.985,1.073-3.711,2.03l-23.85,31.448
				c-1.43,1.884-0.092,4.099,3.026,4.934l51.586,13.824C104.056,128.659,107.755,127.794,109.184,125.908"/>
		</g>
		<g>
			<path fill="#FEDBBA" d="M107.149,78.728c11.694,3.133,21.182,7.652,25.436,12.125c0.19,0.189,0.375,0.394,0.526,0.605
				c0.661,0.985,0.645,2.047-0.078,3.003l-23.85,31.447c-1.429,1.886-5.128,2.751-8.249,1.916L49.349,114
				c-3.119-0.835-4.457-3.05-3.026-4.934l23.85-31.448c0.726-0.957,2.03-1.673,3.711-2.03c0.366-0.074,0.745-0.127,1.227-0.169
				C83.45,74.354,95.432,75.587,107.149,78.728z"/>
		</g>
	</g>
</g>
<g>
	<g opacity="0.1">
		<g enable-background="new    ">
			<g>
				<path d="M102.532,88.065c-0.746-0.354-1.541-0.682-2.382-0.978c0.017-0.017,0.028-0.034,0.039-0.05
					c2.466-3.251,2.516-6.786,0.6-9.855c0.986-0.084,1.995-0.118,2.998-0.098c1.85,3.354,1.664,7.144-0.997,10.651
					C102.705,87.845,102.621,87.956,102.532,88.065z"/>
			</g>
			<g>
				<path d="M107.514,77.396c1.563,3.577,1.148,7.51-1.625,11.168c-0.247,0.319-0.505,0.633-0.773,0.94
					c-0.79-0.517-1.647-0.999-2.583-1.438c0.089-0.109,0.173-0.22,0.258-0.331c2.661-3.508,2.847-7.297,0.997-10.651
					C105.031,77.105,106.28,77.209,107.514,77.396z"/>
			</g>
			<g>
				<path d="M110.719,78.092c1.171,3.628,0.538,7.523-2.23,11.169c-0.442,0.585-0.936,1.15-1.462,1.695
					c-0.577-0.51-1.217-0.995-1.911-1.453c0.269-0.307,0.526-0.621,0.773-0.94c2.773-3.658,3.188-7.591,1.625-11.168
					c0.952,0.146,1.894,0.34,2.812,0.587C110.461,78.019,110.59,78.054,110.719,78.092z"/>
			</g>
			<g>
				<path d="M99.36,72.333c-1.099,0.105-2.186,0.253-3.25,0.443c-1.754-1.065-3.852-1.953-6.258-2.598
					c-10.616-2.845-23.228,0.1-28.122,6.554c-4.399,5.801-1.124,12.482,7.252,15.853c-0.203,0.232-0.399,0.471-0.583,0.711
					c-0.225,0.298-0.431,0.598-0.618,0.899c-9.813-3.77-13.718-11.483-8.653-18.16c5.567-7.341,19.88-10.671,31.925-7.443
					C94.361,69.479,97.163,70.772,99.36,72.333z"/>
			</g>
			<g>
				<path d="M95.897,90.797c0.856,0.283,1.652,0.611,2.381,0.978c-2.358,1.503-5.188,2.674-8.27,3.466
					c-0.687-0.436-1.306-0.903-1.854-1.398C91.031,93.181,93.683,92.15,95.897,90.797z"/>
			</g>
			<g>
				<path d="M56.058,75.213c6.348-8.369,22.669-12.192,36.428-8.506c4.571,1.224,8.287,3.128,10.971,5.43
					c-1.372,0-2.74,0.064-4.096,0.196c-2.197-1.561-4.999-2.854-8.307-3.741c-12.045-3.228-26.358,0.103-31.925,7.443
					c-5.064,6.677-1.16,14.39,8.653,18.16c-0.421,0.677-0.748,1.363-0.98,2.052C54.955,92.074,50.136,83.02,56.058,75.213z"/>
			</g>
			<g>
				<path d="M79.513,94.677c0.468,0.6,1,1.183,1.597,1.74c-2.191,0.037-4.405-0.109-6.582-0.449
					c0.165-0.294,0.356-0.586,0.574-0.876c0.193-0.252,0.403-0.499,0.627-0.737C76.983,94.534,78.25,94.641,79.513,94.677z"/>
			</g>
			<g>
				<path d="M90.009,95.24c3.082-0.792,5.911-1.962,8.27-3.466c0.874,0.443,1.647,0.941,2.314,1.485
					c-2.253,1.416-4.881,2.572-7.731,3.431C91.811,96.266,90.861,95.778,90.009,95.24z"/>
			</g>
			<g>
				<path d="M56.058,75.213c-5.922,7.807-1.103,16.861,10.744,21.035c-0.21,0.624-0.346,1.251-0.409,1.876
					c-13.864-4.427-19.685-14.746-12.958-23.615c7.007-9.239,25.065-13.456,40.254-9.386c5.802,1.555,10.357,4.101,13.378,7.17
					c-1.199-0.104-2.41-0.154-3.609-0.156c-2.684-2.302-6.399-4.206-10.971-5.43C78.727,63.021,62.405,66.844,56.058,75.213z"/>
			</g>
			<g>
				<path d="M92.861,96.69c2.851-0.859,5.479-2.015,7.731-3.431c0.589,0.478,1.093,0.989,1.502,1.524
					c-1.877,1.125-3.973,2.089-6.22,2.88c-0.135-0.032-0.264-0.066-0.398-0.101C94.552,97.314,93.677,97.021,92.861,96.69z"/>
			</g>
			<g>
				<path d="M74.529,95.968c2.177,0.34,4.391,0.486,6.582,0.449c0.729,0.684,1.549,1.334,2.457,1.943
					c-3.222,0.224-6.522,0.108-9.759-0.385C73.921,97.303,74.156,96.629,74.529,95.968z"/>
			</g>
			<g>
				<path d="M111.531,76.398c10.288,2.757,14.811,10.104,10.059,16.373c-2.247,2.964-6.164,5.166-10.753,6.373
					c0.05-0.633,0.027-1.262-0.067-1.886c3.502-1.084,6.455-2.863,8.221-5.184c4.028-5.319,0.313-11.529-8.271-13.982
					c-0.129-0.038-0.258-0.073-0.393-0.109c-0.919-0.247-1.86-0.441-2.812-0.587c-1.233-0.187-2.482-0.29-3.727-0.312
					c-1.003-0.02-2.012,0.014-2.998,0.098c-5.89,0.497-11.293,2.761-13.958,6.276c-0.487,0.642-0.86,1.297-1.126,1.958
					c-1.037,0.094-2.059,0.232-3.062,0.413c0.305-1.034,0.826-2.065,1.585-3.067C88.983,76.49,101.243,73.641,111.531,76.398z"/>
			</g>
			<g>
				<path d="M93.259,100.491c3.014,0.807,6.174,1.182,9.296,1.172c-0.135,0.223-0.286,0.444-0.449,0.664
					c-0.279,0.367-0.594,0.717-0.941,1.052c-3.07-0.09-6.152-0.513-9.107-1.304c-2.171-0.582-4.141-1.328-5.883-2.204
					c-0.933-0.468-1.805-0.974-2.606-1.512c-0.908-0.609-1.729-1.259-2.457-1.943c-0.597-0.557-1.129-1.14-1.597-1.74
					c-0.563-0.714-1.033-1.456-1.405-2.215c0.747-0.457,1.568-0.863,2.442-1.212C82.141,95.228,86.627,98.713,93.259,100.491z"/>
			</g>
			<g>
				<path d="M109.693,102.764c-0.252,0.458-0.544,0.912-0.886,1.36c-5.144,6.785-18.384,9.888-29.541,6.897
					c-8.553-2.292-13.415-7.52-12.875-12.897c0.063-0.625,0.199-1.252,0.409-1.876c0.232-0.689,0.559-1.375,0.98-2.052
					c0.187-0.301,0.393-0.601,0.618-0.899c0.184-0.241,0.38-0.479,0.583-0.711c1.94-2.215,4.765-3.991,8.085-5.241
					c0.961-0.361,1.964-0.678,2.995-0.95c0.843-0.22,1.704-0.409,2.581-0.566c1.003-0.181,2.025-0.319,3.062-0.413
					c4.041-0.37,8.271-0.077,12.231,0.985c0.768,0.206,1.508,0.437,2.214,0.688c0.841,0.296,1.636,0.624,2.382,0.978
					c0.936,0.44,1.793,0.922,2.583,1.438c0.694,0.458,1.334,0.943,1.911,1.453c2.112,1.863,3.406,4.035,3.743,6.301
					c0.095,0.624,0.117,1.252,0.067,1.886c-0.051,0.546-0.151,1.094-0.309,1.64C110.338,101.446,110.063,102.108,109.693,102.764z
					 M80.469,109.436c9.706,2.6,21.251-0.097,25.733-6.01c4.483-5.912,0.241-12.841-9.465-15.441
					c-9.704-2.6-21.229,0.103-25.714,6.014C66.541,99.913,70.766,106.836,80.469,109.436"/>
			</g>
			<g>
				<path d="M96.043,88.898c8.882,2.38,12.793,8.721,8.686,14.132c-4.102,5.414-14.683,7.871-23.568,5.49
					c-8.856-2.373-12.764-8.712-8.659-14.125C76.606,88.984,87.185,86.525,96.043,88.898z M103.227,100.191
					c0.18-0.58,0.258-1.163,0.252-1.74c-0.027-1.277-0.504-2.528-1.384-3.667c-0.409-0.535-0.913-1.046-1.502-1.524
					c-0.667-0.544-1.44-1.042-2.314-1.485c-0.729-0.367-1.524-0.695-2.381-0.978c-0.342-0.111-0.695-0.216-1.054-0.312
					c-3.027-0.81-6.286-0.95-9.323-0.525c-0.944,0.132-1.866,0.319-2.751,0.558c-0.768,0.207-1.51,0.452-2.219,0.734
					c-0.874,0.349-1.695,0.755-2.442,1.212c-0.909,0.556-1.713,1.189-2.377,1.893c-0.224,0.238-0.434,0.485-0.627,0.737
					c-0.218,0.29-0.409,0.582-0.574,0.876c-0.373,0.661-0.608,1.335-0.72,2.007c-0.098,0.605-0.092,1.21,0.008,1.804
					c0.524,3.048,3.619,5.836,8.546,7.156c6.851,1.835,14.879,0.228,18.801-3.556c0.348-0.335,0.662-0.685,0.941-1.052
					c0.163-0.22,0.314-0.441,0.449-0.664C102.852,101.178,103.075,100.686,103.227,100.191"/>
			</g>
			<g>
				<path d="M96.737,87.985c9.706,2.6,13.948,9.529,9.465,15.441c-4.482,5.913-16.028,8.61-25.733,6.01
					c-9.703-2.6-13.928-9.523-9.445-15.437C75.508,88.087,87.033,85.385,96.737,87.985z M81.161,108.521
					c8.885,2.38,19.466-0.077,23.568-5.49c4.107-5.412,0.196-11.752-8.686-14.132c-8.858-2.373-19.437,0.085-23.542,5.497
					C68.397,99.809,72.304,106.148,81.161,108.521"/>
			</g>
			<g>
				<path d="M86.173,99.872c-0.933-0.468-1.805-0.974-2.606-1.512c-3.222,0.224-6.522,0.108-9.759-0.385
					c-0.098,0.605-0.092,1.21,0.008,1.804C77.936,100.337,82.139,100.348,86.173,99.872z"/>
			</g>
			<g>
				<path d="M94.277,99.147c-6.137-1.643-10.222-4.921-11.508-8.631c0.885-0.238,1.807-0.426,2.751-0.558
					c0.44,1.388,1.336,2.711,2.634,3.883c0.549,0.495,1.168,0.962,1.854,1.398c0.852,0.538,1.802,1.026,2.853,1.45
					c0.815,0.331,1.69,0.624,2.615,0.873c0.135,0.035,0.264,0.069,0.398,0.101c2.471,0.619,5.06,0.869,7.604,0.787
					c0.006,0.577-0.072,1.16-0.252,1.74C100.229,100.256,97.175,99.924,94.277,99.147z"/>
			</g>
			<g>
				<path d="M112.551,75.055c11.505,3.083,16.56,11.295,11.241,18.307c-2.706,3.572-7.599,6.154-13.264,7.422
					c0.157-0.546,0.258-1.094,0.309-1.64c4.589-1.208,8.506-3.409,10.753-6.373c4.752-6.269,0.229-13.616-10.059-16.373
					s-22.548,0.092-27.303,6.363c-0.759,1.002-1.28,2.033-1.585,3.067c-0.877,0.157-1.737,0.346-2.581,0.566
					c0.277-1.422,0.922-2.847,1.964-4.224C87.344,75.158,101.041,71.971,112.551,75.055z"/>
			</g>
			<g>
				<path d="M94.277,99.147c2.897,0.776,5.951,1.108,8.949,1.044c-0.151,0.495-0.375,0.986-0.672,1.472
					c-3.122,0.01-6.282-0.366-9.296-1.172c-6.632-1.778-11.118-5.263-12.709-9.241c0.709-0.282,1.452-0.527,2.219-0.734
					C84.055,94.226,88.14,97.504,94.277,99.147z"/>
			</g>
			<g>
				<path d="M113.762,73.456c12.938,3.467,18.609,12.719,12.637,20.604c-3.335,4.393-9.583,7.451-16.705,8.704
					c0.37-0.656,0.645-1.317,0.835-1.98c5.665-1.268,10.558-3.85,13.264-7.422c5.318-7.012,0.264-15.224-11.241-18.307
					c-11.51-3.083-25.207,0.104-30.524,7.115c-1.042,1.377-1.687,2.802-1.964,4.224c-1.031,0.272-2.034,0.588-2.995,0.95
					c0.144-1.968,0.908-3.958,2.359-5.87c3.323-4.384,9.568-7.442,16.684-8.698c1.064-0.189,2.151-0.338,3.25-0.443
					c1.355-0.132,2.724-0.196,4.096-0.196c1.199,0.001,2.41,0.052,3.609,0.156C109.329,72.489,111.582,72.871,113.762,73.456z"/>
			</g>
		</g>
	</g>
	<g>
		<g enable-background="new    ">
			<g>
				<path fill="#DAC6CA" d="M102.532,85.196c-0.746-0.354-1.541-0.682-2.382-0.978c0.017-0.017,0.028-0.033,0.039-0.05
					c2.466-3.251,2.516-6.786,0.6-9.855c0.986-0.084,1.995-0.118,2.998-0.098c1.85,3.354,1.664,7.144-0.997,10.651
					C102.705,84.976,102.621,85.086,102.532,85.196z"/>
			</g>
			<g>
				<path fill="#F1F1F2" d="M107.514,74.526c1.563,3.577,1.148,7.51-1.625,11.168c-0.247,0.319-0.505,0.633-0.773,0.94
					c-0.79-0.517-1.647-0.999-2.583-1.439c0.089-0.109,0.173-0.22,0.258-0.331c2.661-3.508,2.847-7.297,0.997-10.651
					C105.031,74.236,106.28,74.34,107.514,74.526z"/>
			</g>
			<g>
				<path fill="#DAC6CA" d="M110.719,75.223c1.171,3.628,0.538,7.523-2.23,11.169c-0.442,0.585-0.936,1.15-1.462,1.695
					c-0.577-0.51-1.217-0.995-1.911-1.453c0.269-0.307,0.526-0.621,0.773-0.94c2.773-3.658,3.188-7.591,1.625-11.168
					c0.952,0.146,1.894,0.34,2.812,0.587C110.461,75.15,110.59,75.185,110.719,75.223z"/>
			</g>
			<g>
				<path fill="#DAC6CA" d="M99.36,69.463c-1.099,0.105-2.186,0.253-3.25,0.443c-1.754-1.065-3.852-1.953-6.258-2.598
					c-10.616-2.845-23.228,0.1-28.122,6.554c-4.399,5.801-1.124,12.482,7.252,15.853c-0.203,0.232-0.399,0.471-0.583,0.711
					c-0.225,0.298-0.431,0.598-0.618,0.899c-9.813-3.77-13.718-11.483-8.653-18.16c5.567-7.341,19.88-10.671,31.925-7.443
					C94.361,66.61,97.163,67.903,99.36,69.463z"/>
			</g>
			<g>
				<path fill="#DAC6CA" d="M95.897,87.928c0.856,0.283,1.652,0.611,2.381,0.978c-2.358,1.503-5.188,2.674-8.27,3.466
					c-0.687-0.436-1.306-0.903-1.854-1.398C91.031,90.312,93.683,89.281,95.897,87.928z"/>
			</g>
			<g>
				<path fill="#F1F1F2" d="M56.058,72.344c6.348-8.369,22.669-12.192,36.428-8.506c4.571,1.224,8.287,3.128,10.971,5.43
					c-1.372,0-2.74,0.064-4.096,0.196c-2.197-1.561-4.999-2.854-8.307-3.741c-12.045-3.228-26.358,0.103-31.925,7.443
					c-5.064,6.677-1.16,14.39,8.653,18.16c-0.421,0.677-0.748,1.363-0.98,2.052C54.955,89.205,50.136,80.151,56.058,72.344z"/>
			</g>
			<g>
				<path fill="#DAC6CA" d="M79.513,91.808c0.468,0.6,1,1.183,1.597,1.74c-2.191,0.036-4.405-0.109-6.582-0.45
					c0.165-0.294,0.356-0.586,0.574-0.876c0.193-0.252,0.403-0.499,0.627-0.737C76.983,91.665,78.25,91.771,79.513,91.808z"/>
			</g>
			<g>
				<path fill="#F1F1F2" d="M90.009,92.371c3.082-0.792,5.911-1.962,8.27-3.466c0.874,0.443,1.647,0.941,2.314,1.485
					c-2.253,1.416-4.881,2.572-7.731,3.431C91.811,93.397,90.861,92.909,90.009,92.371z"/>
			</g>
			<g>
				<path fill="#DAC6CA" d="M56.058,72.344c-5.922,7.807-1.103,16.861,10.744,21.035c-0.21,0.624-0.346,1.251-0.409,1.876
					c-13.864-4.427-19.685-14.746-12.958-23.615c7.007-9.239,25.065-13.456,40.254-9.386c5.802,1.555,10.357,4.101,13.378,7.17
					c-1.199-0.104-2.41-0.154-3.609-0.156c-2.684-2.302-6.399-4.206-10.971-5.43C78.727,60.151,62.405,63.975,56.058,72.344z"/>
			</g>
			<g>
				<path fill="#DAC6CA" d="M92.861,93.821c2.851-0.859,5.479-2.015,7.731-3.431c0.589,0.478,1.093,0.989,1.502,1.524
					c-1.877,1.125-3.973,2.089-6.22,2.88c-0.135-0.032-0.264-0.066-0.398-0.101C94.552,94.445,93.677,94.152,92.861,93.821z"/>
			</g>
			<g>
				<path fill="#F1F1F2" d="M74.529,93.099c2.177,0.34,4.391,0.486,6.582,0.45c0.729,0.684,1.549,1.333,2.457,1.943
					c-3.222,0.224-6.522,0.108-9.759-0.385C73.921,94.434,74.156,93.76,74.529,93.099z"/>
			</g>
			<g>
				<path fill="#DAC6CA" d="M111.531,73.529c10.288,2.757,14.811,10.104,10.059,16.373c-2.247,2.964-6.164,5.166-10.753,6.373
					c0.05-0.633,0.027-1.262-0.067-1.886c3.502-1.084,6.455-2.863,8.221-5.184c4.028-5.319,0.313-11.529-8.271-13.982
					c-0.129-0.038-0.258-0.073-0.393-0.109c-0.919-0.247-1.86-0.441-2.812-0.587c-1.233-0.187-2.482-0.29-3.727-0.312
					c-1.003-0.02-2.012,0.014-2.998,0.098c-5.89,0.498-11.293,2.761-13.958,6.276c-0.487,0.642-0.86,1.297-1.126,1.958
					c-1.037,0.094-2.059,0.232-3.062,0.413c0.305-1.034,0.826-2.065,1.585-3.066C88.983,73.621,101.243,70.772,111.531,73.529z"/>
			</g>
			<g>
				<path fill="#DAC6CA" d="M93.259,97.622c3.014,0.807,6.174,1.182,9.296,1.172c-0.135,0.223-0.286,0.444-0.449,0.664
					c-0.279,0.367-0.594,0.717-0.941,1.052c-3.07-0.09-6.152-0.513-9.107-1.304c-2.171-0.582-4.141-1.328-5.883-2.204
					c-0.933-0.468-1.805-0.974-2.606-1.512c-0.908-0.609-1.729-1.259-2.457-1.943c-0.597-0.558-1.129-1.141-1.597-1.74
					c-0.563-0.714-1.033-1.456-1.405-2.215c0.747-0.457,1.568-0.863,2.442-1.212C82.141,92.359,86.627,95.844,93.259,97.622z"/>
			</g>
			<g>
				<path fill="#DAC6CA" d="M109.693,99.895c-0.252,0.458-0.544,0.912-0.886,1.36c-5.144,6.785-18.384,9.886-29.541,6.897
					c-8.553-2.292-13.415-7.52-12.875-12.897c0.063-0.625,0.199-1.252,0.409-1.876c0.232-0.689,0.559-1.375,0.98-2.052
					c0.187-0.301,0.393-0.601,0.618-0.899c0.184-0.241,0.38-0.479,0.583-0.711c1.94-2.215,4.765-3.991,8.085-5.241
					c0.961-0.361,1.964-0.678,2.995-0.95c0.843-0.22,1.704-0.409,2.581-0.566c1.003-0.181,2.025-0.319,3.062-0.413
					c4.041-0.37,8.271-0.077,12.231,0.985c0.768,0.206,1.508,0.437,2.214,0.688c0.841,0.296,1.636,0.624,2.382,0.978
					c0.936,0.44,1.793,0.922,2.583,1.439c0.694,0.458,1.334,0.942,1.911,1.453c2.112,1.863,3.406,4.035,3.743,6.301
					c0.095,0.624,0.117,1.252,0.067,1.886c-0.051,0.546-0.151,1.094-0.309,1.641C110.338,98.578,110.063,99.239,109.693,99.895z
					 M80.469,106.567c9.706,2.6,21.251-0.097,25.733-6.01c4.483-5.912,0.241-12.841-9.465-15.441
					c-9.704-2.6-21.229,0.103-25.714,6.014C66.541,97.043,70.766,103.967,80.469,106.567"/>
			</g>
			<g>
				<path fill="#DAC6CA" d="M96.043,86.029c8.882,2.38,12.793,8.721,8.686,14.133c-4.102,5.413-14.683,7.87-23.568,5.49
					c-8.856-2.374-12.764-8.712-8.659-14.126C76.606,86.115,87.185,83.656,96.043,86.029z M103.227,97.322
					c0.18-0.58,0.258-1.163,0.252-1.74c-0.027-1.277-0.504-2.528-1.384-3.667c-0.409-0.535-0.913-1.046-1.502-1.524
					c-0.667-0.544-1.44-1.042-2.314-1.485c-0.729-0.367-1.524-0.695-2.381-0.978c-0.342-0.111-0.695-0.216-1.054-0.312
					c-3.027-0.81-6.286-0.95-9.323-0.525c-0.944,0.132-1.866,0.319-2.751,0.558c-0.768,0.207-1.51,0.453-2.219,0.734
					c-0.874,0.349-1.695,0.755-2.442,1.212c-0.909,0.556-1.713,1.189-2.377,1.893c-0.224,0.238-0.434,0.485-0.627,0.737
					c-0.218,0.29-0.409,0.582-0.574,0.876c-0.373,0.661-0.608,1.335-0.72,2.007c-0.098,0.605-0.092,1.21,0.008,1.804
					c0.524,3.049,3.619,5.836,8.546,7.156c6.851,1.835,14.879,0.228,18.801-3.556c0.348-0.335,0.662-0.685,0.941-1.052
					c0.163-0.22,0.314-0.441,0.449-0.664C102.852,98.309,103.075,97.817,103.227,97.322"/>
			</g>
			<g>
				<path fill="#F1F1F2" d="M96.737,85.116c9.706,2.6,13.948,9.529,9.465,15.441c-4.482,5.913-16.028,8.61-25.733,6.01
					c-9.703-2.6-13.928-9.523-9.445-15.437C75.508,85.218,87.033,82.516,96.737,85.116z M81.161,105.652
					c8.885,2.38,19.466-0.077,23.568-5.49c4.107-5.412,0.196-11.752-8.686-14.133c-8.858-2.373-19.437,0.085-23.542,5.497
					C68.397,96.94,72.304,103.279,81.161,105.652"/>
			</g>
			<g>
				<path fill="#DAC6CA" d="M86.173,97.003c-0.933-0.468-1.805-0.974-2.606-1.512c-3.222,0.224-6.522,0.108-9.759-0.385
					c-0.098,0.605-0.092,1.21,0.008,1.804C77.936,97.468,82.139,97.479,86.173,97.003z"/>
			</g>
			<g>
				<path fill="#DAC6CA" d="M94.277,96.278c-6.137-1.643-10.222-4.921-11.508-8.631c0.885-0.238,1.807-0.426,2.751-0.558
					c0.44,1.388,1.336,2.711,2.634,3.883c0.549,0.495,1.168,0.962,1.854,1.398c0.852,0.538,1.802,1.026,2.853,1.45
					c0.815,0.331,1.69,0.624,2.615,0.873c0.135,0.035,0.264,0.069,0.398,0.101c2.471,0.619,5.06,0.869,7.604,0.787
					c0.006,0.578-0.072,1.16-0.252,1.74C100.229,97.387,97.175,97.055,94.277,96.278z"/>
			</g>
			<g>
				<path fill="#F1F1F2" d="M112.551,72.186c11.505,3.083,16.56,11.295,11.241,18.307c-2.706,3.572-7.599,6.154-13.264,7.422
					c0.157-0.546,0.258-1.094,0.309-1.641c4.589-1.208,8.506-3.409,10.753-6.373c4.752-6.269,0.229-13.615-10.059-16.373
					c-10.288-2.757-22.548,0.092-27.303,6.363c-0.759,1.001-1.28,2.033-1.585,3.066c-0.877,0.157-1.737,0.346-2.581,0.566
					c0.277-1.422,0.922-2.847,1.964-4.224C87.344,72.289,101.041,69.102,112.551,72.186z"/>
			</g>
			<g>
				<path fill="#F1F1F2" d="M94.277,96.278c2.897,0.776,5.951,1.108,8.949,1.044c-0.151,0.495-0.375,0.986-0.672,1.472
					c-3.122,0.01-6.282-0.366-9.296-1.172c-6.632-1.778-11.118-5.263-12.709-9.241c0.709-0.281,1.452-0.527,2.219-0.734
					C84.055,91.357,88.14,94.635,94.277,96.278z"/>
			</g>
			<g>
				<path fill="#DAC6CA" d="M113.762,70.587c12.938,3.467,18.609,12.719,12.637,20.604c-3.335,4.393-9.583,7.452-16.705,8.704
					c0.37-0.656,0.645-1.317,0.835-1.979c5.665-1.268,10.558-3.85,13.264-7.422c5.318-7.012,0.264-15.224-11.241-18.307
					c-11.51-3.083-25.207,0.104-30.524,7.115c-1.042,1.377-1.687,2.802-1.964,4.224c-1.031,0.272-2.034,0.588-2.995,0.95
					c0.144-1.968,0.908-3.958,2.359-5.87c3.323-4.384,9.568-7.442,16.684-8.698c1.064-0.189,2.151-0.338,3.25-0.443
					c1.355-0.132,2.724-0.196,4.096-0.196c1.199,0.001,2.41,0.052,3.609,0.156C109.329,69.62,111.582,70.001,113.762,70.587z"/>
			</g>
		</g>
	</g>
</g>
<g>
	<g opacity="0.1">
		<g>
			<path d="M139.32,50.981c0,0.048-0.012,0.101-0.012,0.148c-0.056-9.641-11.493-18.033-33.185-23.845
				c-29.109-7.8-51.837-4.323-62.354,9.546c-2.792,3.682-4.053,7.323-3.899,10.829c-0.005-0.108-0.031-0.211-0.035-0.321
				l0.178,9.992c0.174,9.868,11.645,18.683,32.64,24.309c28.247,7.569,52.337,3.628,62.884-10.277
				c2.712-3.577,4.018-7.06,3.956-10.391L139.32,50.981z"/>
			<path d="M99.399,86.682L99.399,86.682c-8.472,0-17.575-1.289-27.07-3.833C50.87,77.1,38.948,68.046,38.759,57.353l-0.176-9.992
				c-0.001-0.087,0.007-0.171,0.022-0.256c-0.005-3.667,1.396-7.377,4.168-11.032C49.78,26.831,62,21.947,78.108,21.947
				c8.586,0,18.125,1.387,28.341,4.125c22.006,5.896,33.778,14.428,34.104,24.694c0.012,0.062,0.017,0.126,0.022,0.192l0.174,9.992
				c0.067,3.644-1.356,7.402-4.214,11.169C129.418,81.511,116.222,86.682,99.399,86.682z M41.1,47.906l0.168,9.403
				c0.164,9.337,11.723,17.761,31.712,23.118c9.278,2.485,18.166,3.749,26.419,3.749l0,0c16.026,0,28.5-4.819,35.141-13.572
				c2.511-3.31,3.755-6.542,3.704-9.61l-0.168-9.651c-0.017-0.066-0.022-0.134-0.022-0.205
				c-0.051-9.043-11.505-17.084-32.255-22.643c-10.003-2.683-19.32-4.042-27.691-4.042c-15.295,0-26.822,4.542-33.339,13.135
				c-2.562,3.379-3.79,6.749-3.647,10.014l0,0c0,0,0,0.002,0.003,0.002C41.129,47.706,41.121,47.808,41.1,47.906z"/>
		</g>
		<g>
			<g>
				<path d="M125.832,54.722c0.19,0.203,0.213,0.465,0.045,0.689s-0.51,0.375-0.896,0.434c-9.062,1.149-24.242-0.696-39.67-4.83
					c-15.406-4.128-27.815-9.676-32.337-14.462c-0.206-0.221-0.22-0.464-0.048-0.689c0.171-0.224,0.493-0.393,0.896-0.435
					c9.067-1.163,24.254,0.687,39.657,4.811C108.903,44.375,121.293,49.917,125.832,54.722z M86.364,49.627
					c13.725,3.679,27.617,5.54,36.296,4.92c-4.965-4.273-16.536-9.235-30.241-12.908c-13.703-3.672-27.621-5.54-36.279-4.915
					C61.087,40.995,72.654,45.956,86.364,49.627"/>
			</g>
		</g>
		<g>
			<path d="M99.887,74.023c-6.238,0-10.253-1.346-10.634-1.478c-0.653-0.229-0.995-0.941-0.768-1.597
				c0.227-0.65,0.947-1,1.594-0.772c0.202,0.069,20.539,6.802,41.968-11.669c0.521-0.446,1.322-0.393,1.771,0.133
				c0.454,0.524,0.397,1.315-0.129,1.768C120.728,71.576,108.292,74.023,99.887,74.023z"/>
		</g>
	</g>
	<g>
		<g>
			<path fill="#E0C382" d="M139.32,48.112c0,0.048-0.012,0.101-0.012,0.148c-0.056-9.641-11.493-18.033-33.185-23.845
				c-29.109-7.8-51.837-4.323-62.354,9.546c-2.792,3.682-4.053,7.323-3.899,10.829c-0.005-0.107-0.031-0.211-0.035-0.321
				l0.178,9.992c0.174,9.868,11.645,18.683,32.64,24.309c28.247,7.569,52.337,3.628,62.884-10.277
				c2.712-3.577,4.018-7.06,3.956-10.391L139.32,48.112z"/>
			<path fill="#CA9A62" d="M99.399,83.813L99.399,83.813c-8.472,0-17.575-1.289-27.07-3.833
				c-21.459-5.749-33.381-14.803-33.57-25.497l-0.176-9.992c-0.001-0.087,0.007-0.171,0.022-0.256
				c-0.005-3.667,1.396-7.377,4.168-11.032C49.78,23.961,62,19.078,78.108,19.078c8.586,0,18.125,1.387,28.341,4.125
				c22.006,5.896,33.778,14.428,34.104,24.694c0.012,0.062,0.017,0.126,0.022,0.192l0.174,9.992
				c0.067,3.644-1.356,7.402-4.214,11.169C129.418,78.642,116.222,83.813,99.399,83.813z M41.1,45.037l0.168,9.403
				c0.164,9.337,11.723,17.761,31.712,23.118c9.278,2.485,18.166,3.749,26.419,3.749l0,0c16.026,0,28.5-4.819,35.141-13.572
				c2.511-3.311,3.755-6.542,3.704-9.611l-0.168-9.651c-0.017-0.066-0.022-0.134-0.022-0.205
				c-0.051-9.043-11.505-17.084-32.255-22.643c-10.003-2.683-19.32-4.042-27.691-4.042c-15.295,0-26.822,4.542-33.339,13.135
				c-2.562,3.379-3.79,6.749-3.647,10.014l0,0c0,0,0,0.003,0.003,0.003C41.129,44.836,41.121,44.939,41.1,45.037z"/>
		</g>
		<g>
			<g>
				<path fill="#CA9A62" d="M125.832,51.853c0.19,0.203,0.213,0.465,0.045,0.689s-0.51,0.375-0.896,0.435
					c-9.062,1.148-24.242-0.696-39.67-4.831c-15.406-4.128-27.815-9.676-32.337-14.462c-0.206-0.221-0.22-0.463-0.048-0.689
					c0.171-0.224,0.493-0.393,0.896-0.435c9.067-1.163,24.254,0.687,39.657,4.811C108.903,41.506,121.293,47.048,125.832,51.853z
					 M86.364,46.759c13.725,3.679,27.617,5.539,36.296,4.92c-4.965-4.273-16.536-9.235-30.241-12.908
					c-13.703-3.672-27.621-5.539-36.279-4.915C61.087,38.126,72.654,43.087,86.364,46.759"/>
			</g>
		</g>
		<g>
			<path fill="#CA9A62" d="M99.887,71.154c-6.238,0-10.253-1.346-10.634-1.478c-0.653-0.229-0.995-0.941-0.768-1.597
				c0.227-0.65,0.947-1,1.594-0.772c0.202,0.069,20.539,6.802,41.968-11.669c0.521-0.445,1.322-0.393,1.771,0.133
				c0.454,0.524,0.397,1.315-0.129,1.768C120.728,68.707,108.292,71.154,99.887,71.154z"/>
		</g>
	</g>
</g>
</svg>
