<?xml version="1.0" encoding="utf-8"?>
<!-- Generator: Adobe Illustrator 16.0.0, SVG Export Plug-In . SVG Version: 6.00 Build 0)  -->
<!DOCTYPE svg PUBLIC "-//W3C//DTD SVG 1.1//EN" "http://www.w3.org/Graphics/SVG/1.1/DTD/svg11.dtd">
<svg version="1.1" id="Layer_1" xmlns="http://www.w3.org/2000/svg" xmlns:xlink="http://www.w3.org/1999/xlink" x="0px" y="0px"
	 width="180px" height="220px" viewBox="0 0 180 220" enable-background="new 0 0 180 220" xml:space="preserve">
<g>
	<g opacity="0.1">
		<path d="M113.027,155.804c0,6.627-13.714,12.004-30.634,12.004c-16.915,0-30.628-5.377-30.628-12.004
			c0-6.631,13.713-12.008,30.628-12.008C99.313,143.796,113.027,149.173,113.027,155.804z"/>
	</g>
	<g opacity="0.2">
		<path d="M80.941,111.229c1.453-9.948,10.017-17.588,20.37-17.588c7.096,0,13.362,3.594,17.063,9.064"/>
	</g>
	<g opacity="0.2">
		<g>
			<path d="M61.476,111.66c1.552,0.415,2.901,1.122,3.81,2.081c2.318,2.419,0.89,5.559-3.187,6.997
				c-2.456,0.877-5.337,0.924-7.734,0.281c-1.547-0.415-2.891-1.111-3.8-2.061c-2.303-2.436-0.879-5.576,3.197-7.012
				C56.218,111.067,59.084,111.018,61.476,111.66z"/>
		</g>
	</g>
	<g opacity="0.2">
		<g>
			<path d="M126.982,116.645c1.077,0.289,2.016,0.783,2.644,1.45c1.611,1.689,0.603,3.869-2.224,4.877
				c-1.71,0.608-3.711,0.646-5.377,0.198c-1.082-0.289-2.021-0.781-2.648-1.451c-1.611-1.688-0.628-3.876,2.224-4.875
				C123.311,116.231,125.312,116.197,126.982,116.645z"/>
		</g>
	</g>
	<g opacity="0.2">
		<g>
			<path d="M103.316,99.335c1.023,0.274,1.923,0.74,2.521,1.371c1.522,1.606,0.593,3.68-2.105,4.644
				c-1.631,0.576-3.548,0.606-5.134,0.18c-1.028-0.275-1.918-0.74-2.511-1.369c-1.521-1.605-0.578-3.695,2.105-4.642
				C99.823,98.942,101.726,98.909,103.316,99.335z"/>
		</g>
	</g>
	<g>
		<path fill="#935B42" d="M89.021,111.71H46.686l10.926,34.438c0,0,3.875,13.579,31.409,13.579c27.54,0,31.409-13.579,31.409-13.579
			l10.931-34.438H89.021z"/>
		<path fill="#744C3A" d="M89.021,160.993c-28.165,0-32.457-13.906-32.625-14.497l-11.44-36.051h88.134l-11.454,36.088
			C121.478,147.087,117.19,160.993,89.021,160.993z M48.415,112.975l10.402,32.793c0.047,0.153,4.114,12.695,30.203,12.695
			c26.095,0,30.156-12.542,30.196-12.668l10.414-32.82H48.415z"/>
	</g>
	<g>
		<g opacity="0.2">
			<path d="M89.021,111.71H46.686l3.671,11.583c1.146,0.43,2.328,0.781,3.568,0.966c3.929,3.323,9.004,5.335,14.548,5.335
				c5.94,0,11.331-2.312,15.359-6.068c4.126,5.347,10.575,8.801,17.849,8.801c5.679,0,10.848-2.109,14.811-5.569
				c1.581,0.462,3.246,0.722,4.977,0.722c1.783,0,3.503-0.27,5.129-0.761l4.764-15.008H89.021z"/>
		</g>
	</g>
	<g>
		<path fill="#5D4030" d="M131.074,88.644c0.152-0.928,0.247-1.873,0.247-2.845c0-7.104-4.19-13.215-10.229-16.037
			c-3.459-7.254-10.837-12.281-19.411-12.281c-0.479,0-0.948,0.041-1.418,0.071c-3.578-2.645-7.985-4.229-12.774-4.229
			c-5.653,0-10.778,2.194-14.613,5.758c-7.338,0.184-13.555,4.823-16.065,11.321c-7.037,2.342-12.117,8.97-12.117,16.795
			c0,0.066,0.01,0.131,0.01,0.196c-3.578,3.242-5.841,7.909-5.841,13.116c0,8.879,6.543,16.21,15.062,17.492
			c3.929,3.323,9.004,5.332,14.548,5.332c5.94,0,11.331-2.312,15.359-6.065c4.126,5.347,10.575,8.801,17.849,8.801
			c5.679,0,10.848-2.11,14.811-5.569c1.581,0.462,3.246,0.722,4.977,0.722c9.779,0,17.71-7.932,17.71-17.712
			C139.178,97.273,135.946,91.799,131.074,88.644z"/>
		<path fill="#5D4030" d="M101.681,127.335c-6.97,0-13.458-2.989-17.997-8.247c-4.282,3.562-9.631,5.513-15.21,5.513
			c-5.495,0-10.839-1.915-15.092-5.404c-9.023-1.534-15.784-9.503-15.784-18.686c0-5.143,2.125-10.094,5.849-13.672
			c0.21-7.938,5.12-14.763,12.406-17.44c2.836-6.723,9.226-11.199,16.515-11.563c4.181-3.729,9.53-5.777,15.122-5.777
			c4.732,0,9.265,1.45,13.145,4.2c0.346-0.023,0.694-0.043,1.047-0.043c8.569,0,16.508,4.929,20.354,12.597
			c6.425,3.191,10.551,9.81,10.551,16.986c0,0.729-0.047,1.469-0.146,2.244c5.025,3.565,8.003,9.288,8.003,15.468
			c0,10.462-8.512,18.977-18.976,18.977c-1.557,0-3.124-0.197-4.668-0.588C112.535,125.408,107.193,127.335,101.681,127.335z
			 M83.985,115.398l0.848,1.1c4.077,5.28,10.219,8.308,16.848,8.308c5.13,0,10.094-1.866,13.978-5.259l0.521-0.454l0.665,0.195
			c1.524,0.444,3.081,0.669,4.623,0.669c9.067,0,16.445-7.377,16.445-16.447c0-5.592-2.814-10.753-7.526-13.804l-0.696-0.451
			l0.136-0.818c0.155-0.938,0.229-1.801,0.229-2.639c0-6.349-3.729-12.195-9.5-14.89l-0.41-0.193l-0.195-0.409
			c-3.348-7.023-10.521-11.561-18.27-11.561c-0.358,0-0.709,0.026-1.06,0.049l-0.739,0.049l-0.37-0.275
			c-3.523-2.604-7.682-3.98-12.023-3.98c-5.107,0-9.992,1.925-13.75,5.419l-0.351,0.326l-0.479,0.013
			c-6.659,0.167-12.515,4.293-14.916,10.512l-0.215,0.556l-0.566,0.189c-6.73,2.24-11.252,8.507-11.252,15.595v0.561l-0.405,0.573
			c-3.449,3.125-5.426,7.563-5.426,12.179c0,8.06,6.012,15.044,13.985,16.239l0.356,0.055l0.274,0.232
			c3.837,3.246,8.715,5.033,13.73,5.033c5.384,0,10.533-2.034,14.496-5.726L83.985,115.398z"/>
	</g>
	<g>
		<path fill="#744C3A" d="M80.943,103.108c-0.062,0-0.124-0.004-0.185-0.014c-0.692-0.1-1.169-0.743-1.07-1.435
			c1.557-10.643,10.849-18.668,21.623-18.668c7.264,0,14.034,3.596,18.111,9.619c0.393,0.578,0.239,1.365-0.339,1.757
			c-0.578,0.391-1.364,0.24-1.757-0.338c-3.604-5.327-9.592-8.507-16.016-8.507c-9.525,0-17.743,7.095-19.117,16.504
			C82.1,102.654,81.561,103.108,80.943,103.108z"/>
	</g>
	<g>
		<path fill="#744C3A" d="M68.51,88.138c-0.086,0-0.175-0.009-0.262-0.027c-5.562-1.169-10.094-5.473-11.544-10.964
			c-0.178-0.676,0.225-1.369,0.899-1.547c0.682-0.175,1.369,0.225,1.547,0.899c1.208,4.576,4.983,8.162,9.616,9.136
			c0.685,0.144,1.122,0.814,0.979,1.499C69.62,87.729,69.096,88.138,68.51,88.138z"/>
	</g>
	<g>
		<g>
			<path fill="#8E3A52" d="M80.817,62.507c1.102,0.292,2.056,0.795,2.703,1.475c1.626,1.711,0.618,3.932-2.253,4.961
				c-1.754,0.62-3.785,0.65-5.476,0.198c-1.097-0.295-2.056-0.793-2.693-1.469c-1.641-1.732-0.633-3.952,2.253-4.96
				C77.091,62.088,79.127,62.053,80.817,62.507z"/>
		</g>
	</g>
	<g>
		<g>
			<path fill="#8E3A52" d="M61.476,102.276c1.552,0.416,2.901,1.122,3.81,2.079c2.318,2.42,0.89,5.559-3.187,6.999
				c-2.456,0.877-5.337,0.924-7.734,0.281c-1.547-0.415-2.891-1.114-3.8-2.061c-2.303-2.437-0.879-5.577,3.197-7.015
				C56.218,101.685,59.084,101.635,61.476,102.276z"/>
		</g>
	</g>
	<g>
		<g>
			<path fill="#8E3A52" d="M126.982,107.259c1.077,0.29,2.016,0.783,2.644,1.452c1.611,1.687,0.603,3.87-2.224,4.877
				c-1.71,0.607-3.711,0.645-5.377,0.197c-1.082-0.289-2.021-0.78-2.648-1.45c-1.611-1.688-0.628-3.878,2.224-4.877
				C123.311,106.849,125.312,106.812,126.982,107.259z"/>
		</g>
	</g>
	<g>
		<g>
			<path fill="#8E3A52" d="M103.316,89.951c1.023,0.273,1.923,0.739,2.521,1.371c1.522,1.606,0.593,3.68-2.105,4.644
				c-1.631,0.576-3.548,0.606-5.134,0.18c-1.028-0.275-1.918-0.74-2.511-1.369c-1.521-1.606-0.578-3.695,2.105-4.642
				C99.823,89.558,101.726,89.524,103.316,89.951z"/>
		</g>
	</g>
	<g>
		<g>
			<path fill="#8E3A52" d="M110.615,69.663c0.767,0.204,1.424,0.55,1.873,1.024c1.122,1.197,0.439,2.74-1.576,3.454
				c-1.216,0.425-2.629,0.445-3.806,0.128c-0.766-0.203-1.428-0.548-1.888-1.017c-1.116-1.2-0.439-2.74,1.577-3.456
				C108.017,69.373,109.435,69.347,110.615,69.663z"/>
		</g>
	</g>
	<g>
		<g>
			<path fill="#8E3A52" d="M61.476,102.276c1.552,0.416,2.901,1.122,3.81,2.079c2.318,2.42,0.89,5.559-3.187,6.999
				c-2.456,0.877-5.337,0.924-7.734,0.281c-1.547-0.415-2.891-1.114-3.8-2.061c-2.303-2.437-0.879-5.577,3.197-7.015
				C56.218,101.685,59.084,101.635,61.476,102.276z"/>
		</g>
	</g>
	<g opacity="0.3">
		<g>
			<path d="M76.741,68.457c-1.097-0.295-2.051-0.793-2.693-1.468c-1.245-1.319-0.954-2.916,0.524-4.05
				c-2.456,1.085-3.262,3.116-1.729,4.733c0.642,0.676,1.596,1.174,2.693,1.469c1.69,0.452,3.721,0.422,5.476-0.198
				c0.667-0.24,1.22-0.547,1.675-0.894c-0.153,0.071-0.297,0.148-0.47,0.209C80.461,68.879,78.431,68.909,76.741,68.457z"/>
		</g>
		<g>
			<path d="M55.313,110.951c-1.547-0.412-2.891-1.114-3.8-2.063c-1.833-1.937-1.275-4.308,1.072-5.925
				c-3.336,1.56-4.393,4.375-2.278,6.612c0.909,0.946,2.253,1.646,3.8,2.061c2.396,0.643,5.277,0.596,7.733-0.281
				c0.831-0.294,1.522-0.673,2.125-1.088c-0.296,0.139-0.583,0.284-0.919,0.4C60.591,111.547,57.71,111.591,55.313,110.951z"/>
		</g>
		<g>
			<path d="M122.975,113.104c-1.077-0.292-2.021-0.783-2.648-1.453c-1.221-1.284-0.944-2.851,0.509-3.972
				c-2.437,1.071-3.222,3.077-1.715,4.656c0.628,0.67,1.566,1.161,2.648,1.45c1.665,0.447,3.667,0.41,5.377-0.197
				c0.672-0.24,1.23-0.549,1.685-0.897c-0.158,0.072-0.301,0.151-0.479,0.21C126.642,113.511,124.64,113.548,122.975,113.104z"/>
		</g>
		<g>
			<path d="M99.546,95.462c-1.027-0.275-1.917-0.74-2.51-1.369c-1.151-1.214-0.89-2.706,0.474-3.769
				c-2.337,1.011-3.112,2.941-1.68,4.454c0.593,0.629,1.482,1.093,2.511,1.369c1.586,0.426,3.503,0.396,5.139-0.18
				c0.647-0.232,1.187-0.53,1.621-0.869c-0.144,0.061-0.267,0.131-0.415,0.184C103.05,95.857,101.133,95.888,99.546,95.462z"/>
		</g>
		<g>
			<path d="M108.056,73.585c-0.761-0.203-1.428-0.547-1.883-1.017c-0.82-0.877-0.657-1.931,0.267-2.718
				c-1.922,0.734-2.569,2.228-1.473,3.402c0.455,0.468,1.117,0.814,1.883,1.017c1.177,0.316,2.59,0.296,3.806-0.128
				c0.543-0.191,0.969-0.449,1.31-0.739c-0.04,0.015-0.064,0.04-0.104,0.056C110.646,73.882,109.231,73.901,108.056,73.585z"/>
		</g>
	</g>
</g>
</svg>
