<?xml version="1.0" encoding="utf-8"?>
<!-- Generator: Adobe Illustrator 19.2.1, SVG Export Plug-In . SVG Version: 6.00 Build 0)  -->
<svg version="1.1" id="Layer_1" xmlns="http://www.w3.org/2000/svg" xmlns:xlink="http://www.w3.org/1999/xlink" x="0px" y="0px"
	 viewBox="0 0 180 156" style="enable-background:new 0 0 180 156;" xml:space="preserve">
<style type="text/css">
	.st0{opacity:0.1;}
	.st1{fill:#F5CE7A;}
	.st2{fill:#EBA53C;}
	.st3{fill:#231F20;stroke:#935B42;stroke-width:0.1;stroke-miterlimit:10;}
</style>
<g>
	<path class="st0" d="M108.7,98.6c-15,0-27.3-5.2-29.3-12.3h0l-0.2-0.9l-0.6-3.8l-1-6.1c-1.1,0.1-2.2,0.1-3.3,0.1l-1.2-7.2
		c-1.4-1.9-2.2-3.9-2.2-6c0-1.1,0.2-2.1,0.6-3.1c-0.4-1-0.6-2-0.6-3.1c0-2.2,0.8-4.2,2.3-6.1c0-0.1,0-0.2,0-0.4
		c0-9.2,14.4-16.4,33.2-17c-0.6-9.3-15.9-16.5-35.4-16.5c-15.4,0-28.2,4.5-33.2,11c-1.5,1.9-2.3,3.9-2.3,6.1c0,1.1,0.2,2.1,0.6,3.1
		c-0.4,1-0.6,2-0.6,3.1c0,2.1,0.8,4.1,2.2,6L41.5,69l0.2,0.9h0c2,7.1,14.2,12.3,29.3,12.3c1.5,0,3-0.1,4.4-0.2l1.6,9.9l0.2,0.9h0
		c2,7.1,14.2,12.3,29.3,12.3c15.7,0,28.4-5.7,29.5-13.3l0.4-2.3C132,94.9,121.3,98.6,108.7,98.6z"/>
	<g>
		<g>
			<path class="st1" d="M105.4,35.4c0.2-0.7,0.4-1.5,0.4-2.2c0-8.5-14.9-15.5-33.2-15.5c-18.3,0-33.2,6.9-33.2,15.5
				c0,0.8,0.2,1.5,0.4,2.2l4.4,27h0c1.1,6.9,13.4,12.3,28.4,12.3c15.1,0,27.5-5.5,28.5-12.4L105.4,35.4z"/>
			<path class="st2" d="M72.6,75.8c-15,0-27.3-5.2-29.3-12.3h0l-0.2-0.9l-4.4-27c-0.3-0.8-0.4-1.6-0.4-2.4c0-9.2,15-16.5,34.2-16.5
				c19.2,0,34.2,7.2,34.2,16.5c0,0.8-0.1,1.6-0.4,2.5l-4.4,26.8C101,70.1,88.3,75.8,72.6,75.8z M45,61.4L45,61.4l0.2,0.9
				c1,6.4,13.1,11.5,27.4,11.5c14.3,0,26.6-5.2,27.5-11.6l4.4-27.1c0.2-0.7,0.3-1.4,0.3-1.9c0-7.8-14.7-14.5-32.2-14.5
				c-17.5,0-32.2,6.6-32.2,14.5c0,0.6,0.1,1.2,0.3,1.9L45,61.4z"/>
		</g>
		<g>
			<ellipse class="st1" cx="72.6" cy="33.2" rx="34.5" ry="16"/>
			<path class="st2" d="M72.6,50.2c-19.9,0-35.5-7.5-35.5-17.1s15.6-17.1,35.5-17.1c19.9,0,35.5,7.5,35.5,17.1S92.5,50.2,72.6,50.2z
				 M72.6,18.1c-18.1,0-33.4,6.9-33.4,15s15.3,15,33.4,15c18.1,0,33.4-6.9,33.4-15S90.7,18.1,72.6,18.1z"/>
		</g>
		<g>
			<path class="st2" d="M72.6,54.6c-10.6,0-20.4-2.3-26.9-6.2c-0.5-0.3-0.6-0.9-0.3-1.4c0.3-0.5,0.9-0.6,1.4-0.3
				c6.2,3.8,15.6,5.9,25.8,5.9c10.9,0,20.9-2.5,27-6.6c0.5-0.3,1.1-0.2,1.4,0.3c0.3,0.5,0.2,1.1-0.3,1.4
				C94.4,52,83.9,54.6,72.6,54.6z"/>
		</g>
		<g>
			<path class="st1" d="M68.5,45.4c-14.6-0.8-25.8-6-25.8-12.2"/>
			<path class="st2" d="M68.5,46.4C68.5,46.4,68.4,46.4,68.5,46.4c-15.6-0.9-26.8-6.4-26.8-13.2c0-0.6,0.5-1,1-1c0.6,0,1,0.5,1,1
				c0,5.5,10.9,10.4,24.8,11.2c0.6,0,1,0.5,1,1.1C69.5,46,69,46.4,68.5,46.4z"/>
		</g>
		<g>
			<path class="st1" d="M66.3,21.1c2-0.2,4.2-0.3,6.4-0.3c16.5,0,30,5.5,30,12.3c0,1.3-0.5,2.5-1.3,3.7"/>
			<path class="st2" d="M101.2,37.9c-0.2,0-0.4-0.1-0.6-0.2c-0.4-0.3-0.5-1-0.2-1.4c0.8-1,1.1-2,1.1-3.1c0-6.1-13.3-11.3-28.9-11.3
				c-2.1,0-4.2,0.1-6.3,0.3c-0.6,0-1.1-0.4-1.1-0.9c0-0.6,0.4-1.1,0.9-1.1c2.1-0.2,4.3-0.3,6.4-0.3c17.4,0,31,5.9,31,13.3
				c0,1.5-0.5,2.9-1.6,4.3C101.9,37.7,101.5,37.9,101.2,37.9z"/>
		</g>
		<g>
			<path class="st1" d="M77,29.7c0,0-6.5,0.4-11.4,5.6"/>
			<path class="st2" d="M65.6,36.3c-0.2,0-0.5-0.1-0.7-0.3c-0.4-0.4-0.4-1,0-1.4c5.1-5.4,11.8-5.9,12.1-5.9c0.6,0,1,0.4,1.1,1
				c0,0.6-0.4,1-1,1.1c-0.1,0-6.2,0.4-10.7,5.3C66.1,36.2,65.9,36.3,65.6,36.3z"/>
		</g>
		<g>
			<path class="st1" d="M64.8,29.7c0,0,5.3,0,12.2,4.6"/>
			<path class="st2" d="M77,35.3c-0.2,0-0.4-0.1-0.6-0.2c-6.5-4.3-11.6-4.4-11.6-4.4c-0.6,0-1-0.5-1-1s0.5-1,1-1
				c0.2,0,5.7,0.1,12.7,4.7c0.5,0.3,0.6,0.9,0.3,1.4C77.7,35.1,77.4,35.3,77,35.3z"/>
		</g>
	</g>
	<path class="st0" d="M141.9,62.5c0-0.1,0-0.1,0-0.2l-0.5,3C141.7,64.4,141.9,63.5,141.9,62.5z"/>
	<path class="st0" d="M136.2,89.5c1-1.3,1.7-2.7,1.9-4.2l3.3-20.1c-0.4,1.1-0.9,2.2-1.7,3.2L136.2,89.5z"/>
	<path class="st0" d="M106.4,39.6c0-0.1,0-0.1,0-0.2l-0.5,3C106.2,41.5,106.4,40.5,106.4,39.6z"/>
	<path class="st0" d="M106.4,39.6c0-0.1,0-0.1,0-0.2l-0.5,3C106.2,41.5,106.4,40.5,106.4,39.6z"/>
	<path class="st0" d="M106.4,39.3c0,0,0,0.1,0,0.1L106.4,39.3L106.4,39.3C106.4,39.3,106.4,39.3,106.4,39.3z"/>
	<path class="st0" d="M106.4,39.3c0,0,0,0.1,0,0.1L106.4,39.3L106.4,39.3C106.4,39.3,106.4,39.3,106.4,39.3z"/>
	<path class="st0" d="M106.4,39.3c-15.4,0-28.2,4.5-33.2,11c-1.5,1.9-2.3,3.9-2.3,6.1c0,1.1,0.2,2.1,0.6,3.1c-0.4,1-0.6,2-0.6,3.1
		c0,2.1,0.8,4.1,2.2,6l1.2,7.2c1.1,0,2.2,0,3.3-0.1c10.7-0.7,19.5-4.2,23.2-9l3.4-21c0.8-1,1.3-2.1,1.7-3.2l0.5-3
		C106.4,39.3,106.4,39.3,106.4,39.3z"/>
	<g>
		<g>
			<path class="st1" d="M141.5,58.3c0.2-0.7,0.4-1.5,0.4-2.2c0-8.5-14.9-15.5-33.2-15.5c-18.3,0-33.2,6.9-33.2,15.5
				c0,0.8,0.2,1.5,0.4,2.2l4.4,27h0c1.1,6.9,13.4,12.3,28.4,12.3c15.1,0,27.5-5.5,28.5-12.4L141.5,58.3z"/>
			<path class="st2" d="M108.7,98.6c-15,0-27.3-5.2-29.3-12.3h0l-0.2-0.9l-4.4-27c-0.3-0.8-0.4-1.6-0.4-2.4c0-9.2,15-16.5,34.2-16.5
				c19.2,0,34.2,7.2,34.2,16.5c0,0.8-0.1,1.6-0.4,2.5l-4.4,26.8C137.1,92.9,124.4,98.6,108.7,98.6z M81.1,84.3L81.1,84.3l0.2,0.9
				c1,6.4,13.1,11.5,27.4,11.5c14.3,0,26.6-5.2,27.5-11.6l4.4-27.1c0.2-0.7,0.3-1.4,0.3-1.9c0-7.8-14.7-14.5-32.2-14.5
				c-17.5,0-32.2,6.6-32.2,14.5c0,0.6,0.1,1.2,0.3,1.9L81.1,84.3z"/>
		</g>
		<g>
			<ellipse class="st1" cx="108.7" cy="56" rx="34.5" ry="16"/>
			<path class="st2" d="M108.7,73.1c-19.9,0-35.5-7.5-35.5-17.1c0-9.6,15.6-17.1,35.5-17.1c19.9,0,35.5,7.5,35.5,17.1
				C144.1,65.6,128.6,73.1,108.7,73.1z M108.7,41c-18.1,0-33.4,6.9-33.4,15c0,8.1,15.3,15,33.4,15c18.1,0,33.4-6.9,33.4-15
				C142.1,47.9,126.8,41,108.7,41z"/>
		</g>
		<g>
			<path class="st2" d="M108.7,77.4c-10.6,0-20.4-2.3-26.9-6.2c-0.5-0.3-0.6-0.9-0.3-1.4c0.3-0.5,0.9-0.6,1.4-0.3
				c6.2,3.8,15.6,5.9,25.8,5.9c10.9,0,20.9-2.5,27-6.6c0.5-0.3,1.1-0.2,1.4,0.3c0.3,0.5,0.2,1.1-0.3,1.4
				C130.4,74.8,119.9,77.4,108.7,77.4z"/>
		</g>
		<g>
			<path class="st1" d="M104.5,68.2C90,67.4,78.7,62.3,78.7,56"/>
			<path class="st2" d="M104.5,69.3C104.5,69.3,104.5,69.3,104.5,69.3C89,68.4,77.7,62.8,77.7,56c0-0.6,0.5-1,1-1c0.6,0,1,0.5,1,1
				c0,5.5,10.9,10.4,24.8,11.2c0.6,0,1,0.5,1,1.1C105.5,68.8,105.1,69.3,104.5,69.3z"/>
		</g>
		<g>
			<path class="st1" d="M102.3,44c2-0.2,4.2-0.3,6.4-0.3c16.5,0,30,5.5,30,12.3c0,1.3-0.5,2.5-1.3,3.7"/>
			<path class="st2" d="M137.3,60.7c-0.2,0-0.4-0.1-0.6-0.2c-0.4-0.3-0.5-1-0.2-1.4c0.8-1,1.1-2,1.1-3.1c0-6.1-13.3-11.3-28.9-11.3
				c-2.1,0-4.2,0.1-6.3,0.3c-0.6,0-1.1-0.4-1.1-0.9c0-0.6,0.4-1.1,0.9-1.1c2.1-0.2,4.3-0.3,6.4-0.3c17.4,0,31,5.9,31,13.3
				c0,1.5-0.5,2.9-1.6,4.3C137.9,60.6,137.6,60.7,137.3,60.7z"/>
		</g>
		<g>
			<path class="st1" d="M113.1,52.5c0,0-6.5,0.4-11.4,5.6"/>
			<path class="st2" d="M101.7,59.1c-0.2,0-0.5-0.1-0.7-0.3c-0.4-0.4-0.4-1,0-1.4c5.1-5.4,11.8-5.9,12.1-5.9c0.6,0,1,0.4,1.1,1
				c0,0.6-0.4,1-1,1.1c-0.1,0-6.2,0.4-10.7,5.3C102.2,59,101.9,59.1,101.7,59.1z"/>
		</g>
		<g>
			<path class="st1" d="M100.9,52.5c0,0,5.3,0,12.2,4.6"/>
			<path class="st2" d="M113.1,58.1c-0.2,0-0.4-0.1-0.6-0.2c-6.5-4.3-11.6-4.4-11.6-4.4c-0.6,0-1-0.5-1-1c0-0.6,0.5-1,1-1
				c0.2,0,5.7,0.1,12.7,4.7c0.5,0.3,0.6,0.9,0.3,1.4C113.7,58,113.4,58.1,113.1,58.1z"/>
		</g>
	</g>
</g>
<ellipse transform="matrix(0.2144 -0.9768 0.9768 0.2144 33.4553 144.1088)" class="st3" cx="106.3" cy="51.3" rx="1.4" ry="0.8"/>
<ellipse transform="matrix(0.8354 -0.5496 0.5496 0.8354 -13.4152 71.9052)" class="st3" cx="113.4" cy="58.4" rx="1" ry="1.8"/>
<ellipse transform="matrix(0.1722 -0.9851 0.9851 0.1722 27.0979 150.5718)" class="st3" cx="103.1" cy="59.2" rx="1.5" ry="0.9"/>
<ellipse transform="matrix(0.9709 -0.2396 0.2396 0.9709 -10.9809 28.5265)" class="st3" cx="111.9" cy="59.4" rx="0.9" ry="1.6"/>
<ellipse transform="matrix(0.8528 -0.5222 0.5222 0.8528 -13.9916 65.2017)" class="st3" cx="108.7" cy="57.4" rx="0.8" ry="1.4"/>
<ellipse transform="matrix(0.9801 -0.1986 0.1986 0.9801 -9.4695 22.5524)" class="st3" cx="107.7" cy="58.5" rx="1.8" ry="1"/>
<ellipse transform="matrix(0.5065 -0.8623 0.8623 0.5065 8.2573 125.0481)" class="st3" cx="113.4" cy="55.3" rx="1" ry="1.8"/>
<ellipse transform="matrix(0.2215 -0.9752 0.9752 0.2215 25.8153 151.7315)" class="st3" cx="107.9" cy="59.7" rx="1" ry="1.8"/>
<ellipse transform="matrix(0.9709 -0.2396 0.2396 0.9709 -9.1994 28.9051)" class="st3" cx="114.3" cy="52.3" rx="0.9" ry="1.6"/>
<ellipse transform="matrix(0.5 -0.866 0.866 0.5 6.1445 118.6357)" class="st3" cx="105.8" cy="54" rx="2" ry="1.1"/>
<ellipse transform="matrix(0.2142 -0.9768 0.9768 0.2142 24.0272 139.8615)" class="st3" cx="98.9" cy="55" rx="1.4" ry="0.8"/>
<ellipse transform="matrix(0.5359 -0.8443 0.8443 0.5359 -1.7162 108.6553)" class="st3" cx="98" cy="55.9" rx="1" ry="1.8"/>
<ellipse transform="matrix(0.305 -0.9523 0.9523 0.305 13.215 135.0565)" class="st3" cx="99.1" cy="58.5" rx="1" ry="1.8"/>
<ellipse transform="matrix(0.9844 -0.1758 0.1758 0.9844 -7.4205 21.3207)" class="st3" cx="116.6" cy="52.5" rx="1.8" ry="1"/>
<ellipse transform="matrix(0.9731 -0.2304 0.2304 0.9731 -10.012 24.8773)" class="st3" cx="101.5" cy="55.3" rx="1.5" ry="0.9"/>
<ellipse transform="matrix(0.7354 -0.6776 0.6776 0.7354 -6.8133 94.1912)" class="st3" cx="117.2" cy="55.8" rx="1.8" ry="1"/>
<ellipse transform="matrix(0.9709 -0.2396 0.2396 0.9709 -9.721 29.205)" class="st3" cx="115.3" cy="54.6" rx="1.1" ry="2"/>
<ellipse transform="matrix(0.2216 -0.9751 0.9751 0.2216 27.8968 152.8186)" class="st3" cx="109.7" cy="58.9" rx="0.9" ry="1.5"/>
<ellipse transform="matrix(0.9709 -0.2396 0.2396 0.9709 -9.0657 26.5695)" class="st3" cx="104.7" cy="50.6" rx="0.9" ry="1.6"/>
<ellipse transform="matrix(0.8354 -0.5497 0.5497 0.8354 -9.8918 67.4667)" class="st3" cx="107.7" cy="50.2" rx="0.9" ry="1.5"/>
<ellipse transform="matrix(0.9186 -0.3951 0.3951 0.9186 -12.8681 42.9987)" class="st3" cx="98" cy="52.7" rx="1.5" ry="0.9"/>
<ellipse transform="matrix(0.9709 -0.2396 0.2396 0.9709 -10.6733 27.043)" class="st3" cx="105.9" cy="57.4" rx="0.9" ry="1.6"/>
<ellipse transform="matrix(0.9844 -0.1758 0.1758 0.9844 -6.8663 20.7687)" class="st3" cx="113.8" cy="49.1" rx="1.8" ry="1"/>
<ellipse transform="matrix(0.7354 -0.6776 0.6776 0.7354 -7.4827 82.8572)" class="st3" cx="102.4" cy="51" rx="1.5" ry="0.9"/>
<ellipse transform="matrix(0.3931 -0.9195 0.9195 0.3931 8.5655 133.7285)" class="st3" cx="105.6" cy="60.4" rx="1" ry="1.8"/>
<ellipse transform="matrix(7.637647e-02 -0.9971 0.9971 7.637647e-02 50.8658 156.0556)" class="st3" cx="109.7" cy="50.6" rx="1.8" ry="1"/>
<g class="st0">
	<path d="M111.6,57.3L111.6,57.3c-0.3,0.2-0.4,0.6-0.4,1.1c-0.2-0.1-0.4-0.1-0.5-0.1c-0.3,0.1-0.5,0.3-0.6,0.7
		c-0.2-0.2-0.6-0.4-1-0.5c0,0-0.1,0-0.1,0c0-0.3-0.1-0.7-0.3-1c-0.4-0.7-1.1-1.1-1.6-0.8c-0.3,0.2-0.4,0.6-0.3,1.2
		c-0.1,0-0.1,0-0.2,0c-0.2,0-0.4,0.1-0.5,0.2c0-0.1,0-0.2-0.1-0.3c-0.1-0.6-0.5-1.1-0.8-1.3c-0.1-0.1-0.2-0.1-0.3-0.1
		c0,0,0.1,0,0.1,0c0.4-0.2,0.7-0.6,1-1.1c0.3-0.5,0.4-1,0.4-1.4c0-0.5-0.1-0.8-0.4-1c0.2-0.2,0.3-0.5,0.3-0.8c0-0.1,0-0.2,0-0.3
		c0.5,0.4,1,0.6,1.3,0.4c0,0,0.1,0,0.1-0.1c0.2,0.6,0.5,0.9,0.9,0.9c0,0,0,0,0.1,0c0.6,0,1.1-0.8,1.2-1.8c0.1-0.7-0.1-1.3-0.4-1.6
		c-0.2-0.2-0.3-0.3-0.5-0.3c0,0,0,0-0.1,0c-0.5,0-0.9,0.5-1.1,1.3c0-0.1-0.1-0.2-0.1-0.3c-0.3-0.5-0.7-0.8-1.1-0.9
		c-0.2,0-0.4,0-0.6,0.1c-0.2,0.2-0.3,0.5-0.3,0.9c0,0,0,0,0,0c-0.3,0-0.5,0.2-0.8,0.5c-0.2-0.9-0.9-1.5-1.4-1.4
		c-0.3,0.1-0.5,0.3-0.6,0.7c-0.1,0.2-0.1,0.4-0.1,0.7c0-0.1-0.1-0.2-0.1-0.3c-0.1-0.1-0.3-0.2-0.5-0.2c0,0,0,0,0,0
		c-0.4,0-0.9,0.2-1.3,0.6c-0.4,0.4-0.7,0.8-0.7,1.2c0,0.2,0.1,0.4,0.2,0.5c0.1,0.1,0.3,0.2,0.5,0.2c0,0,0,0,0,0
		c0.4,0,0.9-0.2,1.3-0.6c0.3-0.3,0.5-0.6,0.6-0.9c0-0.1,0-0.3,0-0.4c0,0.1,0,0.3,0.1,0.4c0.1,0.6,0.5,1.1,0.8,1.3
		c0.2,0.1,0.4,0.1,0.6,0.1c0.1,0,0.2-0.1,0.3-0.2c0,0.1,0.1,0.2,0.2,0.3c-0.3,0.2-0.6,0.6-0.9,1c-0.3,0.5-0.4,1-0.4,1.4
		c0,0.5,0.2,0.8,0.4,1c0.1,0.1,0.3,0.1,0.4,0.1c0,0,0.1,0,0.1,0c-0.1,0.1-0.2,0.1-0.3,0.2c-0.2,0.4-0.3,1-0.1,1.6
		c0.2,0.7,0.6,1.3,1.1,1.4c0,0.1,0.1,0.2,0.2,0.2c0,0,0,0,0,0c0,0,0,0-0.1,0c-0.5-0.2-0.9-0.3-1.3-0.2c-0.3,0-0.5,0.1-0.6,0.3
		c0,0,0,0,0,0c0.2-0.9-0.1-1.6-0.7-1.7h0c-0.5-0.1-1.1,0.5-1.2,1.4c-0.2,0.9,0.1,1.6,0.7,1.7c0,0,0.1,0,0.1,0c0.3,0,0.6-0.2,0.8-0.6
		c0,0.2,0.1,0.3,0.2,0.5c0.2,0.3,0.6,0.6,1.1,0.8c0.4,0.2,0.7,0.2,1.1,0.2c0.1,0,0.2,0,0.3,0c0.4-0.1,0.7-0.2,0.9-0.5
		c0.1-0.1,0.1-0.2,0-0.4c0.1,0,0.2,0.1,0.3,0.1c0.6,0.1,1.3,0.1,1.7-0.2c0.2-0.1,0.4-0.3,0.4-0.5c0-0.1,0-0.1,0-0.2
		c0.4,0,0.8,0,1.1-0.2c0.2,0.8,0.7,1.4,1.3,1.4c0.1,0,0.1,0,0.2,0c0.5-0.1,0.7-0.8,0.7-1.6c0.5,0.5,1.1,0.6,1.5,0.4
		c0.3-0.2,0.4-0.5,0.4-0.9c0-0.4-0.2-0.9-0.5-1.3C113.1,57.4,112.2,56.9,111.6,57.3z"/>
	<path d="M98.8,57.9c-0.2-0.1-0.4-0.1-0.6-0.1c0.3,0,0.5-0.1,0.6-0.4c0.2-0.3,0.2-0.6,0-1c0.1-0.2,0.2-0.5,0.3-0.7
		c0.2-0.8-0.1-1.5-0.6-1.6c-0.2,0-0.3,0-0.5,0.1c-0.3,0.2-0.5,0.6-0.7,1c-0.8-0.3-1.4-0.2-1.7,0.2c-0.3,0.5,0.1,1.4,1,2
		c0.4,0.2,0.7,0.3,1,0.4c-0.5,0.1-0.9,0.3-1.1,0.6c-0.2,0.6,0.4,1.4,1.5,1.7c0.3,0.1,0.6,0.1,0.9,0.1c0.2,0,0.3,0,0.5,0
		c0.4-0.1,0.7-0.3,0.8-0.6C100.5,58.9,99.8,58.2,98.8,57.9z"/>
	<path d="M102.4,55.5c0-0.2-0.2-0.3-0.3-0.4c-0.3-0.2-0.9-0.3-1.4-0.1c-0.4,0.1-0.8,0.3-1,0.5c-0.3,0.3-0.4,0.5-0.3,0.8
		c0.1,0.3,0.3,0.5,0.6,0.6c0.2,0.1,0.4,0.1,0.6,0.1c0.2,0,0.4,0,0.6-0.1c0.5-0.1,1-0.4,1.2-0.8C102.4,55.8,102.4,55.6,102.4,55.5z"
		/>
	<path d="M117.9,55.1c-0.4-0.5-1.3-0.3-2.1,0.3c0-0.2,0-0.4-0.1-0.6c0-0.2-0.1-0.4-0.2-0.6c0.2,0,0.4,0,0.6,0c1-0.2,1.8-0.8,1.6-1.5
		c0-0.2-0.2-0.4-0.4-0.5c-0.4-0.3-1-0.4-1.7-0.3c-0.5,0.1-0.9,0.3-1.2,0.5c-0.3-0.9-0.9-1.4-1.4-1.3c-0.6,0.1-0.8,1-0.6,1.9
		c0.1,0.5,0.4,1,0.7,1.2c0,0.2,0,0.4,0,0.6c0,0-0.1,0-0.1-0.1c-0.4-0.2-0.9-0.4-1.3-0.4c0,0,0,0,0,0c-0.4,0-0.7,0.1-0.9,0.4
		c-0.3,0.5,0.1,1.4,1.1,1.9c0.4,0.2,0.9,0.4,1.3,0.4c0,0,0,0,0,0c0.4,0,0.6-0.1,0.8-0.3c0.2,0.2,0.5,0.3,0.7,0.3
		c0,0.2,0.1,0.4,0.2,0.5c0.2,0.2,0.4,0.3,0.7,0.3c0.1,0,0.2,0,0.3,0c0.4-0.1,0.8-0.3,1.2-0.6C118.1,56.5,118.3,55.5,117.9,55.1z"/>
	<path d="M96.8,54.4c0.3,0,0.6-0.1,0.9-0.2h0c0.8-0.4,1.3-1,1.1-1.5c-0.2-0.5-1-0.6-1.8-0.3c-0.8,0.4-1.3,1-1.1,1.5
		C96,54.2,96.3,54.4,96.8,54.4z"/>
	<path d="M111.6,50.5c0.3,0.2,0.7,0.3,1.1,0.3c0.2,0,0.4,0,0.5,0c0.5-0.1,0.9-0.3,1.2-0.5c0.3-0.3,0.5-0.6,0.4-0.9
		c-0.1-0.6-1-1-2.1-0.8c-1,0.2-1.8,0.8-1.6,1.5C111.3,50.2,111.4,50.4,111.6,50.5z"/>
</g>
<ellipse transform="matrix(0.2143 -0.9768 0.9768 0.2143 27.7745 91.0851)" class="st3" cx="70.5" cy="28.3" rx="1.4" ry="0.8"/>
<ellipse transform="matrix(0.8354 -0.5496 0.5496 0.8354 -6.6785 48.4495)" class="st3" cx="77.6" cy="35.4" rx="1" ry="1.8"/>
<ellipse transform="matrix(0.172 -0.9851 0.9851 0.172 20.098 96.2821)" class="st3" cx="67.3" cy="36.2" rx="1.5" ry="0.9"/>
<ellipse transform="matrix(0.9709 -0.2396 0.2396 0.9709 -6.5189 19.2791)" class="st3" cx="76" cy="36.5" rx="0.9" ry="1.6"/>
<ellipse transform="matrix(0.8528 -0.5223 0.5223 0.8528 -7.2621 43.1222)" class="st3" cx="72.9" cy="34.4" rx="0.8" ry="1.4"/>
<ellipse transform="matrix(0.9801 -0.1986 0.1986 0.9801 -5.6196 14.9842)" class="st3" cx="71.9" cy="35.5" rx="1.8" ry="1"/>
<ellipse transform="matrix(0.5064 -0.8623 0.8623 0.5064 10.4009 82.835)" class="st3" cx="77.6" cy="32.3" rx="1" ry="1.8"/>
<ellipse transform="matrix(0.2215 -0.9752 0.9752 0.2215 20.3476 98.9253)" class="st3" cx="72.1" cy="36.7" rx="1" ry="1.8"/>
<ellipse transform="matrix(0.9709 -0.2396 0.2396 0.9709 -4.7369 19.6565)" class="st3" cx="78.5" cy="29.3" rx="0.9" ry="1.6"/>
<ellipse transform="matrix(0.5 -0.866 0.866 0.5 8.1407 76.1365)" class="st3" cx="70" cy="31" rx="2" ry="1.1"/>
<ellipse transform="matrix(0.2144 -0.9767 0.9767 0.2144 18.3256 86.821)" class="st3" cx="63.1" cy="32" rx="1.4" ry="0.8"/>
<ellipse transform="matrix(0.5359 -0.8443 0.8443 0.5359 1.0645 67.7573)" class="st3" cx="62.2" cy="32.9" rx="1" ry="1.8"/>
<ellipse transform="matrix(0.305 -0.9523 0.9523 0.305 10.213 84.9859)" class="st3" cx="63.3" cy="35.5" rx="1" ry="1.8"/>
<ellipse transform="matrix(0.9844 -0.1758 0.1758 0.9844 -3.9387 14.6681)" class="st3" cx="80.8" cy="29.6" rx="1.8" ry="1"/>
<ellipse transform="matrix(0.9731 -0.2303 0.2303 0.9731 -5.6792 16)" class="st3" cx="65.7" cy="32.3" rx="1.5" ry="0.9"/>
<ellipse transform="matrix(0.7354 -0.6776 0.6776 0.7354 -0.7167 63.8487)" class="st3" cx="81.4" cy="32.8" rx="1.8" ry="1"/>
<ellipse transform="matrix(0.9709 -0.2396 0.2396 0.9709 -5.2588 19.9571)" class="st3" cx="79.5" cy="31.6" rx="1.1" ry="2"/>
<ellipse transform="matrix(0.2216 -0.9751 0.9751 0.2216 22.4296 100.0132)" class="st3" cx="73.9" cy="36" rx="0.9" ry="1.5"/>
<ellipse transform="matrix(0.9709 -0.2396 0.2396 0.9709 -4.603 17.3185)" class="st3" cx="68.9" cy="27.6" rx="0.9" ry="1.6"/>
<ellipse transform="matrix(0.8354 -0.5496 0.5496 0.8354 -3.1572 43.9965)" class="st3" cx="71.9" cy="27.3" rx="0.9" ry="1.5"/>
<ellipse transform="matrix(0.9186 -0.3952 0.3952 0.9186 -6.7033 26.9901)" class="st3" cx="62.2" cy="29.8" rx="1.5" ry="0.9"/>
<ellipse transform="matrix(0.9709 -0.2396 0.2396 0.9709 -6.2108 17.7944)" class="st3" cx="70.1" cy="34.4" rx="0.9" ry="1.6"/>
<ellipse transform="matrix(0.9844 -0.1758 0.1758 0.9844 -3.3845 14.1161)" class="st3" cx="78" cy="26.2" rx="1.8" ry="1"/>
<ellipse transform="matrix(0.7355 -0.6775 0.6775 0.7355 -1.3884 52.5082)" class="st3" cx="66.6" cy="28" rx="1.5" ry="0.9"/>
<ellipse transform="matrix(0.3932 -0.9195 0.9195 0.3932 7.9597 86.8545)" class="st3" cx="69.8" cy="37.4" rx="1" ry="1.8"/>
<ellipse transform="matrix(7.649275e-02 -0.9971 0.9971 7.649275e-02 40.6954 99.1246)" class="st3" cx="73.9" cy="27.6" rx="1.8" ry="1"/>
<g class="st0">
	<path d="M75.8,34.3L75.8,34.3c-0.3,0.2-0.4,0.6-0.4,1.1c-0.2-0.1-0.4-0.1-0.5-0.1c-0.3,0.1-0.5,0.3-0.6,0.7c-0.2-0.2-0.6-0.4-1-0.5
		c0,0-0.1,0-0.1,0c0-0.3-0.1-0.7-0.3-1c-0.4-0.7-1.1-1.1-1.6-0.8c-0.3,0.2-0.4,0.6-0.3,1.2c-0.1,0-0.1,0-0.2,0
		c-0.2,0-0.4,0.1-0.5,0.2c0-0.1,0-0.2-0.1-0.3c-0.1-0.6-0.5-1.1-0.8-1.3c-0.1-0.1-0.2-0.1-0.3-0.1c0,0,0.1,0,0.1,0
		c0.4-0.2,0.7-0.6,1-1.1c0.3-0.5,0.4-1,0.4-1.4c0-0.5-0.1-0.8-0.4-1c0.2-0.2,0.3-0.5,0.3-0.8c0-0.1,0-0.2,0-0.3
		c0.5,0.4,1,0.6,1.3,0.4c0,0,0.1,0,0.1-0.1c0.2,0.6,0.5,0.9,0.9,0.9c0,0,0,0,0.1,0c0.6,0,1.1-0.8,1.2-1.8c0.1-0.7-0.1-1.3-0.4-1.6
		c-0.2-0.2-0.3-0.3-0.5-0.3c0,0,0,0-0.1,0c-0.5,0-0.9,0.5-1.1,1.3c0-0.1-0.1-0.2-0.1-0.3c-0.3-0.5-0.7-0.8-1.1-0.9
		c-0.2,0-0.4,0-0.6,0.1c-0.2,0.2-0.3,0.5-0.3,0.9c0,0,0,0,0,0c-0.3,0-0.5,0.2-0.8,0.5c-0.2-0.9-0.9-1.5-1.4-1.4
		c-0.3,0.1-0.5,0.3-0.6,0.7c-0.1,0.2-0.1,0.4-0.1,0.7c0-0.1-0.1-0.2-0.1-0.3c-0.1-0.1-0.3-0.2-0.5-0.2c0,0,0,0,0,0
		c-0.4,0-0.9,0.2-1.3,0.6c-0.4,0.4-0.7,0.8-0.7,1.2c0,0.2,0.1,0.4,0.2,0.5c0.1,0.1,0.3,0.2,0.5,0.2c0,0,0,0,0,0
		c0.4,0,0.9-0.2,1.3-0.6c0.3-0.3,0.5-0.6,0.6-0.9c0-0.1,0-0.3,0-0.4c0,0.1,0,0.3,0.1,0.4c0.1,0.6,0.5,1.1,0.8,1.3
		c0.2,0.1,0.4,0.1,0.6,0.1c0.1,0,0.2-0.1,0.3-0.2c0,0.1,0.1,0.2,0.2,0.3c-0.3,0.2-0.6,0.6-0.9,1c-0.3,0.5-0.4,1-0.4,1.4
		c0,0.5,0.2,0.8,0.4,1c0.1,0.1,0.3,0.1,0.4,0.1c0,0,0.1,0,0.1,0c-0.1,0.1-0.2,0.1-0.3,0.2c-0.2,0.4-0.3,1-0.1,1.6
		c0.2,0.7,0.6,1.3,1.1,1.4c0,0.1,0.1,0.2,0.2,0.2c0,0,0,0,0,0c0,0,0,0-0.1,0c-0.5-0.2-0.9-0.3-1.3-0.2c-0.3,0-0.5,0.1-0.6,0.3
		c0,0,0,0,0,0c0.2-0.9-0.1-1.6-0.7-1.7h0c-0.5-0.1-1.1,0.5-1.2,1.4c-0.2,0.9,0.1,1.6,0.7,1.7c0,0,0.1,0,0.1,0c0.3,0,0.6-0.2,0.8-0.6
		c0,0.2,0.1,0.3,0.2,0.5c0.2,0.3,0.6,0.6,1.1,0.8c0.4,0.2,0.7,0.2,1.1,0.2c0.1,0,0.2,0,0.3,0c0.4-0.1,0.7-0.2,0.9-0.5
		c0.1-0.1,0.1-0.2,0-0.4c0.1,0,0.2,0.1,0.3,0.1c0.6,0.1,1.3,0.1,1.7-0.2c0.2-0.1,0.4-0.3,0.4-0.5c0-0.1,0-0.1,0-0.2
		c0.4,0,0.8,0,1.1-0.2c0.2,0.8,0.7,1.4,1.3,1.4c0.1,0,0.1,0,0.2,0c0.5-0.1,0.7-0.8,0.7-1.6c0.5,0.5,1.1,0.6,1.5,0.4
		c0.3-0.2,0.4-0.5,0.4-0.9c0-0.4-0.2-0.9-0.5-1.3C77.2,34.4,76.4,34,75.8,34.3z"/>
	<path d="M63,34.9c-0.2-0.1-0.4-0.1-0.6-0.1c0.3,0,0.5-0.1,0.6-0.4c0.2-0.3,0.2-0.6,0-1c0.1-0.2,0.2-0.5,0.3-0.7
		c0.2-0.8-0.1-1.5-0.6-1.6c-0.2,0-0.3,0-0.5,0.1c-0.3,0.2-0.5,0.6-0.7,1c-0.8-0.3-1.4-0.2-1.7,0.2c-0.3,0.5,0.1,1.4,1,2
		c0.4,0.2,0.7,0.3,1,0.4c-0.5,0.1-0.9,0.3-1.1,0.6c-0.2,0.6,0.4,1.4,1.5,1.7c0.3,0.1,0.6,0.1,0.9,0.1c0.2,0,0.3,0,0.5,0
		c0.4-0.1,0.7-0.3,0.8-0.6C64.7,36,64,35.2,63,34.9z"/>
	<path d="M66.6,32.5c0-0.2-0.2-0.3-0.3-0.4c-0.3-0.2-0.9-0.3-1.4-0.1c-0.4,0.1-0.8,0.3-1,0.5c-0.3,0.3-0.4,0.5-0.3,0.8
		c0.1,0.3,0.3,0.5,0.6,0.6c0.2,0.1,0.4,0.1,0.6,0.1c0.2,0,0.4,0,0.6-0.1c0.5-0.1,1-0.4,1.2-0.8C66.6,32.9,66.6,32.7,66.6,32.5z"/>
	<path d="M82.1,32.1c-0.4-0.5-1.3-0.3-2.1,0.3c0-0.2,0-0.4-0.1-0.6c0-0.2-0.1-0.4-0.2-0.6c0.2,0,0.4,0,0.6,0c1-0.2,1.8-0.8,1.6-1.5
		c0-0.2-0.2-0.4-0.4-0.5c-0.4-0.3-1-0.4-1.7-0.3c-0.5,0.1-0.9,0.3-1.2,0.5c-0.3-0.9-0.9-1.4-1.4-1.3c-0.6,0.1-0.8,1-0.6,1.9
		c0.1,0.5,0.4,1,0.7,1.2c0,0.2,0,0.4,0,0.6c0,0-0.1,0-0.1-0.1c-0.4-0.2-0.9-0.4-1.3-0.4c0,0,0,0,0,0c-0.4,0-0.7,0.1-0.9,0.4
		c-0.3,0.5,0.1,1.4,1.1,1.9c0.4,0.2,0.9,0.4,1.3,0.4c0,0,0,0,0,0c0.4,0,0.6-0.1,0.8-0.3c0.2,0.2,0.5,0.3,0.7,0.3
		c0,0.2,0.1,0.4,0.2,0.5c0.2,0.2,0.4,0.3,0.7,0.3c0.1,0,0.2,0,0.3,0c0.4-0.1,0.8-0.3,1.2-0.6C82.3,33.5,82.5,32.6,82.1,32.1z"/>
	<path d="M61,31.4c0.3,0,0.6-0.1,0.9-0.2h0c0.8-0.4,1.3-1,1.1-1.5c-0.2-0.5-1-0.6-1.8-0.3c-0.8,0.4-1.3,1-1.1,1.5
		C60.2,31.2,60.5,31.4,61,31.4z"/>
	<path d="M75.8,27.6c0.3,0.2,0.7,0.3,1.1,0.3c0.2,0,0.4,0,0.5,0c0.5-0.1,0.9-0.3,1.2-0.5c0.3-0.3,0.5-0.6,0.4-0.9
		c-0.1-0.6-1-1-2.1-0.8c-1,0.2-1.8,0.8-1.6,1.5C75.5,27.2,75.6,27.4,75.8,27.6z"/>
</g>
</svg>
