<?xml version="1.0" encoding="utf-8"?>
<!-- Generator: Adobe Illustrator 16.0.0, SVG Export Plug-In . SVG Version: 6.00 Build 0)  -->
<!DOCTYPE svg PUBLIC "-//W3C//DTD SVG 1.1//EN" "http://www.w3.org/Graphics/SVG/1.1/DTD/svg11.dtd">
<svg version="1.1" id="Layer_1" xmlns="http://www.w3.org/2000/svg" xmlns:xlink="http://www.w3.org/1999/xlink" x="0px" y="0px"
	 width="180px" height="220px" viewBox="0 0 180 220" enable-background="new 0 0 180 220" xml:space="preserve">
<g>
	<g opacity="0.1">
		<path fill="#231F20" d="M158.07,93.964c-1.539-5.131-5.465-9.538-8.627-13.084l-0.709-0.782c-2.967-3.345-6.318-7.113-10.51-9.578
			c-3.039-1.782-6.199-2.545-9.545-3.366c-1.004-0.24-2.014-0.501-3.023-0.762c-1.039-0.3-2.098-0.62-3.166-0.96
			c-3.057-0.983-6.219-1.984-9.301-1.984c-3.084,0-5.631,1.001-8.094,1.984c-0.863,0.341-1.734,0.661-2.594,0.96
			c-0.85,0.261-1.721,0.522-2.58,0.762c-2.506,0.721-4.883,1.397-6.76,2.759l-69.646,50.525c-1.233,0.506-2.366,1.125-3.322,1.988
			c-2.697,2.467-3.807,6.236-4.766,9.582l-0.226,0.779c-1.053,3.547-2.34,7.955-0.802,13.084c1.578,5.271,5.425,9.117,8.978,12.387
			c3.274,3.002,6.992,6.428,11.544,8.275c2.62,1.059,5.228,1.338,8.011,1.641c1.273,0.121,2.585,0.26,3.921,0.48
			c1.302,0.221,2.64,0.561,4.064,0.902c2.566,0.639,5.234,1.303,7.808,1.303c0.112,0,0.212-0.018,0.323-0.02
			c0.111,0.002,0.229,0.02,0.34,0.02c2.539,0,4.714-0.66,6.825-1.303c1.134-0.342,2.206-0.662,3.296-0.861
			c1.14-0.219,2.281-0.359,3.414-0.482c2.535-0.301,4.94-0.582,6.795-1.68c0.343-0.203,0.645-0.428,0.947-0.664
			c-0.074,0.061-0.137,0.123-0.213,0.182l71.558-51.91c2.768-2.009,4-5.231,5.107-8.095
			C158.426,102.659,159.561,98.932,158.07,93.964z"/>
	</g>
	<g>
		<path fill="#F5CE7A" d="M165.441,79.225c-1.537-5.131-5.465-9.538-8.631-13.086l-0.707-0.782
			c-2.967-3.344-6.316-7.114-10.51-9.577c-3.039-1.782-6.199-2.545-9.543-3.366c-1.006-0.24-2.016-0.5-3.025-0.764
			c-1.039-0.299-2.1-0.618-3.166-0.959c-3.057-0.983-6.219-1.983-9.297-1.983c-3.086,0-5.631,1-8.098,1.983
			c-0.865,0.341-1.732,0.66-2.592,0.959c-0.852,0.263-1.723,0.524-2.582,0.764c-2.506,0.719-4.881,1.397-6.76,2.758l-71.553,51.909
			c0.162-0.12,0.351-0.205,0.522-0.317c-0.443,0.285-0.882,0.57-1.273,0.925c-2.717,2.463-3.807,6.232-4.769,9.578l-0.239,0.779
			c-1.045,3.527-2.332,7.938-0.785,13.088c1.572,5.248,5.422,9.115,8.992,12.381c3.262,3.025,6.978,6.432,11.526,8.277
			c2.621,1.061,5.249,1.342,8.006,1.623c1.274,0.139,2.591,0.279,3.927,0.498c1.305,0.221,2.635,0.545,4.064,0.904
			c2.564,0.641,5.219,1.301,7.811,1.301c2.539,0,4.711-0.66,6.824-1.301c1.136-0.342,2.205-0.66,3.299-0.861
			c1.136-0.221,2.276-0.361,3.41-0.482c2.537-0.303,4.942-0.58,6.798-1.682c0.34-0.203,0.646-0.428,0.947-0.66
			c-0.073,0.057-0.137,0.121-0.215,0.178l71.555-51.91c2.77-2.007,4.002-5.229,5.113-8.094
			C165.795,87.919,166.932,84.194,165.441,79.225z"/>
		<path fill="#E7A64B" d="M66.76,157.348c-2.766,0-5.605-0.713-8.111-1.34c-1.395-0.352-2.696-0.666-3.969-0.881
			c-1.273-0.209-2.537-0.346-3.764-0.48c-2.792-0.283-5.598-0.57-8.422-1.717c-4.843-1.963-8.756-5.596-11.901-8.514
			c-3.638-3.326-7.662-7.348-9.334-12.93c-1.661-5.533-0.251-10.305,0.782-13.785l0.246-0.794c0.993-3.468,2.131-7.417,5.117-10.127
			c0.271-0.248,0.56-0.465,0.859-0.67l-0.011-0.018l0.022-0.016L99.809,54.18c2.043-1.481,4.498-2.187,7.098-2.932
			c0.904-0.252,1.766-0.511,2.607-0.771c0.799-0.278,1.652-0.593,2.504-0.927c2.426-0.969,5.182-2.069,8.545-2.069
			c3.326,0,6.697,1.086,9.674,2.042c1.053,0.338,2.1,0.653,3.131,0.949c0.969,0.251,1.973,0.511,2.967,0.749
			c3.518,0.862,6.721,1.648,9.881,3.501c4.373,2.567,7.791,6.42,10.809,9.82l0.699,0.773c3.246,3.639,7.277,8.159,8.895,13.557
			c1.607,5.361,0.338,9.457-0.982,12.875c-1.178,3.051-2.49,6.439-5.533,8.647l-71.549,51.905l-0.009-0.012
			c-0.265,0.199-0.533,0.387-0.828,0.559c-2.067,1.229-4.583,1.527-7.244,1.842c-1.146,0.123-2.252,0.258-3.354,0.471
			c-1.062,0.195-2.14,0.521-3.179,0.834C71.755,156.66,69.489,157.348,66.76,157.348z M30.13,107.82
			c-0.393,0.253-0.756,0.486-1.079,0.779c-2.469,2.239-3.501,5.833-4.415,9.008l-0.246,0.801c-0.993,3.354-2.231,7.541-0.782,12.375
			c1.493,4.98,5.246,8.717,8.647,11.824c3.002,2.791,6.735,6.254,11.158,8.047c2.501,1.014,5.129,1.281,7.668,1.541
			c1.368,0.148,2.672,0.293,4.001,0.508c1.407,0.238,2.828,0.586,4.164,0.922c2.482,0.623,5.049,1.268,7.512,1.268
			c2.363,0,4.449-0.639,6.467-1.25c1.107-0.332,2.249-0.676,3.433-0.895c1.163-0.227,2.335-0.369,3.503-0.494
			c2.414-0.287,4.677-0.555,6.301-1.518c0.297-0.178,0.562-0.377,0.825-0.576l0.011,0.012l71.359-51.766
			c2.457-1.781,3.58-4.682,4.662-7.484c1.248-3.235,2.328-6.725,0.945-11.344c-1.461-4.875-5.295-9.169-8.369-12.62l-0.707-0.776
			c-2.898-3.273-6.182-6.971-10.217-9.342c-2.85-1.671-5.883-2.416-9.1-3.203c-1.119-0.269-2.135-0.533-3.15-0.795
			c-1.086-0.312-2.158-0.635-3.236-0.979c-2.809-0.903-5.984-1.927-8.924-1.927c-2.889,0-5.307,0.965-7.641,1.896
			c-0.887,0.35-1.77,0.673-2.643,0.979c-0.908,0.278-1.787,0.544-2.658,0.786c-2.426,0.696-4.676,1.343-6.369,2.57L30.14,107.758
			l0.028,0.038c-0.003,0.002-0.006,0.003-0.008,0.004L30.13,107.82z"/>
	</g>
	<g>
		<g>
			<path fill="#E7A64B" d="M84.594,118.047c3.162,3.547,7.095,7.957,8.632,13.084c1.49,4.973,0.352,8.697-0.953,12.086
				c-1.201,3.105-2.545,6.652-5.844,8.576c-1.855,1.102-4.243,1.379-6.78,1.682c-1.133,0.119-2.292,0.262-3.431,0.482
				c-1.09,0.197-2.161,0.52-3.306,0.883c-2.102,0.619-4.275,1.279-6.817,1.279c-2.571,0-5.242-0.66-7.808-1.301
				c-1.422-0.342-2.76-0.684-4.064-0.904c-1.336-0.219-2.648-0.359-3.918-0.482c-2.785-0.297-5.394-0.578-8.014-1.639
				c-4.55-1.846-8.268-5.273-11.544-8.277c-3.553-3.268-7.397-7.113-8.975-12.385c-1.539-5.127-0.254-9.537,0.799-13.084
				l0.226-0.779c0.961-3.346,2.068-7.115,4.768-9.581c1.972-1.783,4.672-2.543,7.529-3.363c0.856-0.243,1.715-0.482,2.562-0.764
				c0.868-0.278,1.73-0.621,2.591-0.961c2.466-0.98,5.018-1.965,8.12-1.965c3.079,0,6.221,0.985,9.274,1.965
				c1.067,0.341,2.136,0.684,3.167,0.961c1.015,0.281,2.021,0.521,3.023,0.764c3.348,0.82,6.504,1.581,9.568,3.387
				c4.17,2.442,7.543,6.231,10.502,9.557L84.594,118.047z M90.399,141.811c1.222-3.203,2.218-6.43,0.945-10.68
				c-1.23-4.107-4.313-7.773-7.906-11.799l-0.693-0.781c-2.953-3.308-5.996-6.733-9.757-8.938c-2.715-1.602-5.731-2.344-8.907-3.106
				c-1.023-0.26-2.047-0.502-3.085-0.802c-1.067-0.279-2.152-0.621-3.259-0.983c-2.903-0.922-5.908-1.862-8.705-1.862
				c-2.811,0-5.257,0.94-7.602,1.862c-0.893,0.362-1.773,0.704-2.672,0.983c-0.859,0.3-1.735,0.542-2.605,0.802
				c-2.717,0.762-5.274,1.504-7.046,3.106c-2.44,2.204-3.433,5.61-4.389,8.914l-0.234,0.805c-1.181,4.025-2.063,7.691-0.833,11.799
				c1.333,4.451,4.651,7.775,7.948,10.803c3.153,2.906,6.664,6.133,10.768,7.793c2.315,0.943,4.815,1.203,7.44,1.482
				c1.33,0.143,2.66,0.283,4.027,0.504c1.378,0.24,2.824,0.6,4.212,0.939c2.469,0.602,5.014,1.242,7.386,1.242
				c2.323,0,4.398-0.641,6.4-1.242c1.171-0.34,2.287-0.682,3.443-0.902c1.166-0.219,2.363-0.361,3.524-0.5
				c2.386-0.281,4.646-0.539,6.287-1.502C88.007,148.023,89.269,144.717,90.399,141.811"/>
		</g>
	</g>
	<g>
		<g>
			<path fill="#F5CE7A" d="M49.032,102.859c2.797,0,5.806,0.94,8.705,1.862c1.106,0.362,2.191,0.704,3.259,0.983
				c1.038,0.3,2.062,0.542,3.085,0.802c3.176,0.762,6.192,1.504,8.907,3.106c3.761,2.204,6.804,5.63,9.76,8.938l0.69,0.781
				c3.593,4.025,6.676,7.691,7.906,11.799c1.273,4.25,0.277,7.477-0.945,10.68c-1.13,2.906-2.392,6.213-5.313,7.938
				c-1.642,0.963-3.901,1.221-6.287,1.502c-1.161,0.139-2.358,0.281-3.524,0.5c-1.156,0.221-2.272,0.562-3.443,0.902
				c-2.002,0.602-4.077,1.242-6.4,1.242c-2.372,0-4.917-0.641-7.383-1.242c-1.391-0.34-2.837-0.699-4.215-0.939
				c-1.367-0.221-2.697-0.361-4.027-0.504c-2.625-0.279-5.125-0.539-7.44-1.482c-4.104-1.66-7.611-4.887-10.768-7.793
				c-3.296-3.027-6.615-6.352-7.948-10.803c-1.23-4.107-0.348-7.773,0.833-11.799l0.234-0.805c0.956-3.304,1.949-6.71,4.389-8.914
				c1.772-1.602,4.329-2.344,7.046-3.106c0.87-0.26,1.746-0.502,2.605-0.802c0.899-0.279,1.779-0.621,2.672-0.983
				C43.775,103.8,46.221,102.859,49.032,102.859z"/>
		</g>
	</g>
	<g>
		<path fill="#A4673A" d="M77.085,130.822c-0.527-1.764-1.777-3.283-2.885-4.605c-0.452-0.543-0.902-1.084-1.288-1.646
			c-0.407-0.557-0.77-1.201-1.146-1.842c-0.816-1.424-1.75-3.006-3.143-4.209c-1.158-0.984-2.454-1.463-3.709-1.924
			c-0.785-0.3-1.525-0.562-2.234-0.961c-0.611-0.341-1.293-0.863-1.987-1.422c-1.112-0.881-2.372-1.865-3.71-2.325
			c-0.647-0.238-1.381-0.317-2.157-0.317c-0.408,0-0.828,0.021-1.259,0.056c-0.408,0.023-0.818,0.052-1.228,0.052
			c-0.328,0-0.659-0.016-0.995-0.07c-0.662-0.121-1.413-0.42-2.229-0.762c-1.192-0.479-2.428-0.982-3.63-0.982
			c-1.219,0-2.152,0.503-3.06,0.982c-0.608,0.342-1.178,0.641-1.77,0.762c-0.305,0.055-0.625,0.07-0.953,0.07
			c-0.411,0-0.836-0.028-1.259-0.052c-0.448-0.034-0.884-0.056-1.29-0.056c-0.773,0-1.453,0.079-1.969,0.317
			c-1.064,0.46-1.735,1.444-2.3,2.325c-0.374,0.559-0.725,1.081-1.148,1.422c-0.457,0.399-1.055,0.661-1.661,0.961
			c-0.982,0.461-1.978,0.922-2.54,1.924c-0.69,1.203-0.673,2.785-0.637,4.209c0.006,0.641,0.029,1.285-0.04,1.842
			c-0.059,0.543-0.182,1.082-0.311,1.623c-0.305,1.346-0.651,2.846-0.12,4.629c0.537,1.783,1.784,3.287,2.897,4.629
			c0.45,0.543,0.899,1.082,1.281,1.625c0.411,0.58,0.768,1.203,1.144,1.844c0.82,1.424,1.755,3.025,3.145,4.207
			c1.179,1.002,2.452,1.463,3.708,1.924c0.785,0.301,1.546,0.58,2.237,0.961c0.625,0.342,1.295,0.885,2.003,1.42
			c1.091,0.885,2.353,1.865,3.699,2.348c0.67,0.229,1.418,0.303,2.22,0.303c0.386,0,0.788-0.018,1.194-0.043
			c0.398-0.035,0.801-0.066,1.209-0.066c0.334,0,0.676,0.023,1.016,0.088c0.656,0.102,1.414,0.418,2.221,0.74
			c1.193,0.48,2.426,0.98,3.647,0.98c1.201,0,2.136-0.5,3.042-0.98c0.617-0.322,1.182-0.639,1.775-0.74
			c0.309-0.064,0.636-0.088,0.97-0.088c0.405,0,0.825,0.031,1.242,0.066c0.425,0.025,0.833,0.043,1.221,0.043
			c0.797,0,1.505-0.074,2.038-0.303c1.059-0.482,1.73-1.463,2.303-2.326c0.375-0.557,0.723-1.082,1.143-1.441
			c0.462-0.381,1.039-0.66,1.658-0.961c0.986-0.441,1.977-0.922,2.545-1.904c0.691-1.201,0.668-2.803,0.631-4.227
			c-0.006-0.641-0.023-1.264,0.042-1.844c0.058-0.543,0.181-1.082,0.31-1.625C77.28,134.109,77.623,132.605,77.085,130.822z
			 M67.782,120.123c-0.754-0.66-1.777-1.021-2.846-1.424C66.004,119.102,67.026,119.461,67.782,120.123z M43.73,112.928
			c-0.657,0.363-1.342,0.723-2.126,0.884C42.386,113.65,43.073,113.291,43.73,112.928z M31.332,118.699
			c-0.85,0.383-1.649,0.764-2.012,1.424C29.683,119.461,30.482,119.082,31.332,118.699z M51.809,147.855
			c0.873,0.141,1.781,0.521,2.662,0.861C53.59,148.377,52.678,147.996,51.809,147.855z"/>
	</g>
	<g>
		<path fill="#A4673A" d="M82,128.365c-0.527-1.762-1.781-3.285-2.885-4.605c-0.451-0.541-0.906-1.084-1.291-1.645
			c-0.408-0.559-0.77-1.203-1.146-1.844c-0.814-1.422-1.748-3.005-3.143-4.208c-1.156-0.984-2.455-1.464-3.707-1.923
			c-0.785-0.301-1.524-0.562-2.238-0.963c-0.607-0.342-1.29-0.859-1.986-1.424c-1.109-0.879-2.367-1.862-3.707-2.323
			c-0.647-0.237-1.384-0.317-2.156-0.317c-0.412,0-0.832,0.022-1.26,0.055c-0.408,0.024-0.818,0.053-1.229,0.053
			c-0.325,0-0.657-0.017-0.996-0.073c-0.662-0.119-1.413-0.419-2.229-0.758c-1.189-0.481-2.426-0.984-3.627-0.984
			c-1.219,0-2.151,0.503-3.059,0.984c-0.611,0.339-1.18,0.639-1.772,0.758c-0.303,0.056-0.623,0.073-0.951,0.073
			c-0.414,0-0.839-0.029-1.262-0.053c-0.447-0.033-0.882-0.055-1.29-0.055c-0.773,0-1.45,0.08-1.967,0.317
			c-1.064,0.461-1.738,1.444-2.3,2.323c-0.373,0.564-0.728,1.082-1.15,1.424c-0.457,0.4-1.056,0.662-1.661,0.963
			c-0.979,0.459-1.975,0.92-2.54,1.923c-0.688,1.203-0.671,2.786-0.637,4.208c0.006,0.641,0.029,1.285-0.04,1.844
			c-0.058,0.541-0.183,1.082-0.309,1.619c-0.308,1.346-0.653,2.85-0.12,4.631c0.534,1.783,1.781,3.287,2.894,4.631
			c0.451,0.539,0.902,1.08,1.285,1.625c0.411,0.58,0.765,1.201,1.145,1.842c0.818,1.422,1.752,3.023,3.142,4.209
			c1.181,1.002,2.451,1.461,3.709,1.922c0.785,0.299,1.544,0.582,2.235,0.963c0.627,0.342,1.298,0.883,2.003,1.422
			c1.093,0.881,2.354,1.863,3.699,2.346c0.674,0.227,1.421,0.301,2.223,0.301c0.385,0,0.785-0.018,1.189-0.045
			c0.403-0.033,0.803-0.062,1.211-0.062c0.336,0,0.676,0.021,1.018,0.084c0.657,0.102,1.413,0.422,2.219,0.742
			c1.195,0.48,2.428,0.982,3.649,0.982c1.202,0,2.135-0.502,3.042-0.982c0.617-0.32,1.18-0.641,1.775-0.742
			c0.309-0.062,0.634-0.084,0.971-0.084c0.405,0,0.822,0.029,1.24,0.062c0.424,0.027,0.832,0.045,1.22,0.045
			c0.8,0,1.507-0.074,2.04-0.301c1.06-0.482,1.727-1.465,2.301-2.324c0.373-0.561,0.725-1.084,1.141-1.443
			c0.467-0.381,1.039-0.664,1.662-0.963c0.984-0.441,1.978-0.92,2.546-1.904c0.69-1.203,0.665-2.805,0.63-4.227
			c-0.009-0.641-0.021-1.262,0.04-1.842c0.058-0.545,0.183-1.086,0.312-1.625C82.192,131.652,82.534,130.148,82,128.365z
			 M72.696,117.668c-0.756-0.662-1.78-1.023-2.848-1.424C70.916,116.645,71.938,117.004,72.696,117.668z M48.641,110.472
			c-0.654,0.363-1.342,0.723-2.126,0.884C47.297,111.194,47.987,110.835,48.641,110.472z M36.247,116.244
			c-0.854,0.381-1.65,0.762-2.012,1.424C34.597,117.004,35.394,116.625,36.247,116.244z M56.72,145.4
			c0.874,0.137,1.784,0.518,2.663,0.859C58.504,145.918,57.594,145.537,56.72,145.4z"/>
	</g>
	<g>
		<g opacity="0.1">
			<path d="M82,128.365c-0.527-1.762-1.781-3.285-2.885-4.605c-0.451-0.541-0.906-1.084-1.291-1.645
				c-0.408-0.559-0.77-1.203-1.146-1.844c-0.814-1.422-1.748-3.005-3.143-4.208c-1.156-0.984-2.455-1.464-3.707-1.923
				c-0.785-0.301-1.524-0.562-2.238-0.963c-0.607-0.342-1.29-0.859-1.986-1.424c-1.109-0.879-2.367-1.862-3.707-2.323
				c-0.647-0.237-1.384-0.317-2.156-0.317c-0.412,0-0.832,0.022-1.26,0.055c-0.408,0.024-0.818,0.053-1.229,0.053
				c-0.325,0-0.657-0.017-0.996-0.073c-0.662-0.119-1.413-0.419-2.229-0.758c-1.189-0.481-2.426-0.984-3.627-0.984
				c-1.219,0-2.151,0.503-3.059,0.984c-0.611,0.339-1.18,0.639-1.772,0.758c-0.303,0.056-0.623,0.073-0.951,0.073
				c-0.414,0-0.839-0.029-1.262-0.053c-0.447-0.033-0.882-0.055-1.29-0.055c-0.773,0-1.45,0.08-1.967,0.317
				c-1.004,0.435-1.655,1.332-2.197,2.172c0.183,0.009,0.351,0.009,0.542,0.023c0.422,0.023,0.848,0.052,1.259,0.052
				c0.328,0,0.648-0.016,0.953-0.07c0.591-0.121,1.162-0.42,1.77-0.762c0.907-0.479,1.841-0.982,3.06-0.982
				c0.976,0,1.972,0.333,2.95,0.715c0.065-0.036,0.141-0.07,0.206-0.106c-0.065,0.036-0.141,0.07-0.206,0.106
				c0.226,0.089,0.454,0.178,0.68,0.268c0.816,0.342,1.567,0.641,2.229,0.762c0.336,0.055,0.667,0.07,0.995,0.07
				c0.409,0,0.819-0.028,1.228-0.052c0.431-0.034,0.851-0.056,1.259-0.056c0.776,0,1.51,0.079,2.157,0.317
				c1.338,0.46,2.598,1.444,3.71,2.325c0.694,0.559,1.376,1.081,1.987,1.422c0.709,0.399,1.449,0.661,2.234,0.961
				c1.255,0.461,2.551,0.939,3.709,1.924c1.393,1.203,2.326,2.785,3.143,4.209c0.377,0.641,0.739,1.285,1.146,1.842
				c0.386,0.562,0.836,1.104,1.288,1.646c1.107,1.322,2.357,2.842,2.885,4.605c0.537,1.783,0.194,3.287-0.116,4.629
				c-0.129,0.543-0.252,1.082-0.31,1.625c-0.065,0.58-0.048,1.203-0.042,1.844c0.037,1.424,0.061,3.025-0.631,4.227
				c-0.568,0.982-1.559,1.463-2.545,1.904c-0.619,0.301-1.196,0.58-1.658,0.961c-0.42,0.359-0.768,0.885-1.143,1.441
				c-0.031,0.049-0.068,0.1-0.103,0.148c0.226,0.01,0.462,0.023,0.674,0.023c0.8,0,1.507-0.074,2.04-0.301
				c1.06-0.482,1.727-1.465,2.301-2.324c0.373-0.561,0.725-1.084,1.141-1.443c0.467-0.381,1.039-0.664,1.662-0.963
				c0.984-0.441,1.978-0.92,2.546-1.904c0.69-1.203,0.665-2.805,0.63-4.227c-0.009-0.641-0.021-1.262,0.04-1.842
				c0.058-0.545,0.183-1.086,0.312-1.625C82.192,131.652,82.534,130.148,82,128.365z"/>
		</g>
	</g>
</g>
<g>
	<g>
		<path fill="#E7A64B" d="M69.292,87.357c0.562,0.021,0.999,0.163,1.228,0.163c0.329,0,0.64-0.083,1.095-0.103l0.158,0.02
			c0.604,0.043,1.064,0.221,1.268,0.221h0.102c0.026,0.004,0.057,0.004,0.086,0.004c0.18,0,0.411-0.046,0.717-0.046l0.324,0.023
			c0.62,0.077,1.077,0.303,1.285,0.32h0.254h0.439c0.154,0,0.336,0,0.553,0.039c1.784,0.298,3.545,0.863,5.189,1.326
			c1.721,0.478,3.47,0.94,5.222,1.659c1.85,0.742,3.579,1.704,5.215,2.587c1.721,0.942,3.471,1.861,5.148,3.044
			c1.777,1.242,3.355,2.666,4.848,4.027c1.561,1.424,3.121,2.906,4.516,4.609c0.426,0.522,0.496,1.202,0.15,1.523
			c-0.119,0.111-0.273,0.166-0.441,0.166c-0.312,0-0.678-0.185-0.957-0.524c-1.199-1.464-2.648-2.849-4.184-4.25
			c-1.473-1.341-2.949-2.665-4.518-3.767c-1.494-1.045-3.156-1.947-4.871-2.866c-1.658-0.901-3.302-1.803-4.96-2.482
			c-1.583-0.646-3.26-1.084-4.997-1.584c-1.687-0.484-3.361-0.984-4.989-1.266l-0.256-0.016h-0.439c-0.138,0-0.306,0-0.482-0.022
			c-0.623-0.097-1.056-0.302-1.242-0.302l-0.139-0.018c-0.189,0-0.448,0.04-0.797,0.06l-0.242-0.02
			c-0.613-0.06-1.039-0.241-1.241-0.241c-0.255,0-0.58,0.097-1.087,0.097c-0.617-0.016-1.037-0.159-1.248-0.159
			c-0.564,0-1.136-0.498-1.315-1.101C68.496,87.86,68.766,87.357,69.292,87.357z"/>
	</g>
</g>
<g>
	<g>
		<path fill="#E7A64B" d="M84.332,76.887c0.562,0.017,0.998,0.163,1.228,0.163c0.325,0,0.639-0.083,1.093-0.103l0.16,0.019
			c0.604,0.043,1.063,0.223,1.267,0.223h0.104c0.025,0,0.057,0,0.085,0c0.181,0,0.411-0.04,0.717-0.04l0.325,0.017
			c0.619,0.08,1.075,0.301,1.285,0.322h0.254h0.439c0.15,0,0.336,0,0.553,0.037c1.783,0.303,3.545,0.865,5.189,1.325
			c1.721,0.485,3.467,0.94,5.223,1.664c1.848,0.738,3.578,1.703,5.213,2.583c1.721,0.942,3.471,1.867,5.146,3.048
			c1.777,1.241,3.355,2.665,4.848,4.027c1.564,1.424,3.125,2.904,4.516,4.609c0.428,0.519,0.496,1.201,0.15,1.522
			c-0.119,0.108-0.273,0.167-0.439,0.167c-0.314,0-0.676-0.19-0.955-0.525c-1.199-1.464-2.648-2.849-4.184-4.25
			c-1.473-1.346-2.955-2.666-4.52-3.77c-1.494-1.039-3.156-1.941-4.871-2.861c-1.66-0.901-3.305-1.808-4.959-2.487
			c-1.584-0.64-3.26-1.085-4.998-1.581c-1.686-0.482-3.361-0.985-4.988-1.266l-0.26-0.019h-0.439c-0.135,0-0.303,0-0.482-0.019
			c-0.619-0.102-1.052-0.303-1.238-0.303l-0.144-0.018c-0.185,0-0.444,0.04-0.793,0.06l-0.242-0.02
			c-0.614-0.06-1.042-0.241-1.242-0.241c-0.254,0-0.582,0.101-1.087,0.101c-0.616-0.022-1.036-0.163-1.25-0.163
			c-0.562,0-1.137-0.499-1.316-1.099C83.536,77.389,83.807,76.887,84.332,76.887z"/>
	</g>
</g>
<g>
	<path fill="#E7A64B" d="M100.299,64.448c0.562,0.024,0.998,0.167,1.227,0.167c0.326,0,0.641-0.086,1.094-0.104l0.16,0.019
		c0.605,0.046,1.064,0.223,1.268,0.223h0.102c0.027,0.006,0.059,0.006,0.086,0.006c0.18,0,0.41-0.045,0.717-0.045l0.324,0.019
		c0.619,0.079,1.076,0.304,1.285,0.324h0.254h0.443c0.146,0,0.332,0,0.549,0.037c1.785,0.3,3.545,0.865,5.189,1.324
		c1.721,0.481,3.467,0.943,5.223,1.664c1.85,0.74,3.578,1.7,5.215,2.581c1.723,0.946,3.469,1.865,5.146,3.046
		c1.775,1.244,3.357,2.664,4.848,4.03c1.562,1.421,3.123,2.905,4.514,4.606c0.428,0.522,0.496,1.204,0.15,1.524
		c-0.119,0.111-0.27,0.166-0.439,0.166c-0.312,0-0.676-0.187-0.955-0.526c-1.199-1.462-2.648-2.847-4.184-4.246
		c-1.473-1.346-2.955-2.666-4.518-3.77c-1.496-1.041-3.156-1.945-4.871-2.862c-1.662-0.902-3.307-1.807-4.961-2.482
		c-1.584-0.646-3.26-1.085-4.996-1.587c-1.688-0.479-3.361-0.982-4.99-1.262l-0.258-0.02h-0.441c-0.135,0-0.303,0-0.479-0.02
		c-0.623-0.1-1.057-0.303-1.242-0.303l-0.143-0.017c-0.186,0-0.443,0.04-0.793,0.056l-0.242-0.016
		c-0.611-0.06-1.041-0.24-1.242-0.24c-0.254,0-0.582,0.097-1.086,0.097c-0.617-0.017-1.037-0.159-1.252-0.159
		c-0.561,0-1.135-0.5-1.314-1.103C99.504,64.952,99.773,64.448,100.299,64.448z"/>
</g>
<path fill="#231F20" stroke="#935B42" stroke-width="0.1" stroke-miterlimit="10" d="M72.805,101.974
	c-0.686,1.189-1.789,1.84-2.461,1.453c-0.672-0.389-0.659-1.668,0.029-2.858c0.685-1.192,1.786-1.842,2.46-1.454
	S73.493,100.782,72.805,101.974z"/>
<ellipse transform="matrix(0.9767 0.2146 -0.2146 0.9767 23.7932 -13.6662)" fill="#231F20" stroke="#935B42" stroke-width="0.1" stroke-miterlimit="10" cx="74.85" cy="102.771" rx="1.22" ry="2.084"/>
<ellipse transform="matrix(0.9626 -0.2709 0.2709 0.9626 -23.9321 24.8711)" fill="#231F20" stroke="#935B42" stroke-width="0.1" stroke-miterlimit="10" cx="78.141" cy="99.141" rx="1.512" ry="2.678"/>
<path fill="#231F20" stroke="#935B42" stroke-width="0.1" stroke-miterlimit="10" d="M84.514,94.587
	c0.682,1.035,0.742,2.196,0.138,2.594c-0.608,0.399-1.65-0.117-2.329-1.151c-0.682-1.034-0.742-2.195-0.137-2.595
	C82.793,93.038,83.834,93.553,84.514,94.587z"/>
<ellipse transform="matrix(0.985 0.1723 -0.1723 0.985 16.8483 -11.9473)" fill="#231F20" stroke="#935B42" stroke-width="0.1" stroke-miterlimit="10" cx="77.25" cy="91.085" rx="1.314" ry="2.242"/>
<ellipse transform="matrix(0.9709 -0.2395 0.2395 0.9709 -23.5341 22.4039)" fill="#231F20" stroke="#935B42" stroke-width="0.1" stroke-miterlimit="10" cx="80.413" cy="108.032" rx="1.405" ry="2.489"/>
<path fill="#231F20" stroke="#935B42" stroke-width="0.1" stroke-miterlimit="10" d="M84.845,106.218
	c0.6,0.979,0.622,2.062,0.046,2.413c-0.574,0.351-1.527-0.157-2.126-1.139c-0.603-0.98-0.622-2.062-0.049-2.414
	C83.29,104.726,84.243,105.235,84.845,106.218z"/>
<ellipse transform="matrix(0.1984 0.9801 -0.9801 0.1984 164.791 4.5826)" fill="#231F20" stroke="#935B42" stroke-width="0.1" stroke-miterlimit="10" cx="79.594" cy="103.041" rx="1.597" ry="2.726"/>
<ellipse transform="matrix(0.5065 -0.8622 0.8622 0.5065 -46.6233 122.4524)" fill="#231F20" stroke="#935B42" stroke-width="0.1" stroke-miterlimit="10" cx="83.662" cy="101.956" rx="1.513" ry="2.68"/>
<ellipse transform="matrix(0.2216 -0.9751 0.9751 0.2216 -29.6106 159.8255)" fill="#231F20" stroke="#935B42" stroke-width="0.1" stroke-miterlimit="10" cx="85.302" cy="98.459" rx="1.313" ry="2.241"/>
<ellipse transform="matrix(0.9982 0.0606 -0.0606 0.9982 6.2225 -5.1597)" fill="#231F20" stroke="#935B42" stroke-width="0.1" stroke-miterlimit="10" cx="88.214" cy="100.053" rx="1.314" ry="2.242"/>
<ellipse transform="matrix(0.8354 -0.5497 0.5497 0.8354 -30.6218 59.9899)" fill="#231F20" stroke="#935B42" stroke-width="0.1" stroke-miterlimit="10" cx="84.844" cy="81.119" rx="1.313" ry="2.243"/>
<ellipse transform="matrix(0.9709 -0.2397 0.2397 0.9709 -19.4708 22.6789)" fill="#231F20" stroke="#935B42" stroke-width="0.1" stroke-miterlimit="10" cx="83.51" cy="91.394" rx="1.406" ry="2.489"/>
<ellipse transform="matrix(0.8528 -0.5223 0.5223 0.8528 -34.3237 58.6686)" fill="#231F20" stroke="#935B42" stroke-width="0.1" stroke-miterlimit="10" cx="86.902" cy="90.216" rx="1.22" ry="2.084"/>
<ellipse transform="matrix(0.5066 -0.8622 0.8622 0.5066 -30.755 116.8928)" fill="#231F20" stroke="#935B42" stroke-width="0.1" stroke-miterlimit="10" cx="86.759" cy="85.319" rx="1.512" ry="2.68"/>
<ellipse transform="matrix(0.2217 -0.9751 0.9751 0.2217 -9.3123 151.5988)" fill="#231F20" stroke="#935B42" stroke-width="0.1" stroke-miterlimit="10" cx="90.316" cy="81.633" rx="1.313" ry="2.242"/>
<ellipse transform="matrix(0.9982 0.0605 -0.0605 0.9982 5.1683 -4.8166)" fill="#231F20" stroke="#935B42" stroke-width="0.1" stroke-miterlimit="10" cx="82.154" cy="82.97" rx="1.312" ry="2.242"/>
<path fill="#231F20" stroke="#935B42" stroke-width="0.1" stroke-miterlimit="10" d="M99.631,88.648
	c-0.627,1.066-1.646,1.63-2.271,1.262c-0.621-0.37-0.615-1.533,0.014-2.599c0.631-1.065,1.648-1.629,2.273-1.26
	C100.268,86.42,100.264,87.584,99.631,88.648z"/>
<ellipse transform="matrix(0.6417 0.767 -0.767 0.6417 101.3195 -35.3492)" fill="#231F20" stroke="#935B42" stroke-width="0.1" stroke-miterlimit="10" cx="88.493" cy="90.765" rx="1.405" ry="2.49"/>
<path fill="#231F20" stroke="#935B42" stroke-width="0.1" stroke-miterlimit="10" d="M92.068,93.951
	c-0.617,0.97-1.579,1.464-2.146,1.102c-0.568-0.361-0.527-1.441,0.088-2.412c0.621-0.97,1.58-1.464,2.15-1.103
	C92.729,91.901,92.688,92.981,92.068,93.951z"/>
<path fill="#231F20" stroke="#935B42" stroke-width="0.1" stroke-miterlimit="10" d="M66.851,95.953
	c-0.685,1.19-1.789,1.841-2.46,1.453c-0.673-0.388-0.658-1.668,0.029-2.858c0.684-1.19,1.789-1.841,2.46-1.453
	C67.553,93.483,67.54,94.763,66.851,95.953z"/>
<ellipse transform="matrix(0.9767 0.2147 -0.2147 0.9767 22.3844 -12.5382)" fill="#231F20" stroke="#935B42" stroke-width="0.1" stroke-miterlimit="10" cx="68.897" cy="96.751" rx="1.22" ry="2.083"/>
<ellipse transform="matrix(-0.5359 0.8443 -0.8443 -0.5359 182.1157 82.0555)" fill="#231F20" stroke="#935B42" stroke-width="0.1" stroke-miterlimit="10" cx="68.504" cy="91.084" rx="1.597" ry="2.727"/>
<path fill="#231F20" stroke="#935B42" stroke-width="0.1" stroke-miterlimit="10" d="M61.53,100.899
	c-1.437-0.459-2.381-1.514-2.113-2.353c0.272-0.841,1.653-1.149,3.086-0.69s2.377,1.513,2.109,2.352
	C64.343,101.049,62.961,101.357,61.53,100.899z"/>
<ellipse transform="matrix(0.9626 -0.2708 0.2708 0.9626 -22.523 23.0321)" fill="#231F20" stroke="#935B42" stroke-width="0.1" stroke-miterlimit="10" cx="72.189" cy="93.122" rx="1.513" ry="2.678"/>
<ellipse transform="matrix(-0.1762 -0.9844 0.9844 -0.1762 -0.594 192.8818)" fill="#231F20" stroke="#935B42" stroke-width="0.1" stroke-miterlimit="10" cx="80.414" cy="96.689" rx="1.314" ry="2.241"/>
<ellipse transform="matrix(0.2305 0.9731 -0.9731 0.2305 140.677 -2.2702)" fill="#231F20" stroke="#935B42" stroke-width="0.1" stroke-miterlimit="10" cx="71.774" cy="87.814" rx="1.313" ry="2.243"/>
<ellipse transform="matrix(0.6778 0.7352 -0.7352 0.6778 94.0949 -28.3293)" fill="#231F20" stroke="#935B42" stroke-width="0.1" stroke-miterlimit="10" cx="79.372" cy="93.199" rx="1.314" ry="2.243"/>
<path fill="#231F20" stroke="#935B42" stroke-width="0.1" stroke-miterlimit="10" d="M67.562,101.675
	c0.329,1.336-0.015,2.569-0.768,2.754s-1.633-0.747-1.964-2.081c-0.327-1.334,0.018-2.567,0.771-2.752
	C66.356,99.409,67.231,100.341,67.562,101.675z"/>
<ellipse transform="matrix(0.1993 0.9799 -0.9799 0.1993 154.0566 5.4777)" fill="#231F20" stroke="#935B42" stroke-width="0.1" stroke-miterlimit="10" cx="73.676" cy="97.012" rx="1.597" ry="2.726"/>
<ellipse transform="matrix(-0.8088 -0.5881 0.5881 -0.8088 97.8815 206.3544)" fill="#231F20" stroke="#935B42" stroke-width="0.1" stroke-miterlimit="10" cx="82.491" cy="87.263" rx="1.313" ry="2.242"/>
<ellipse transform="matrix(0.4499 -0.8931 0.8931 0.4499 -35.5307 118.2528)" fill="#231F20" stroke="#935B42" stroke-width="0.1" stroke-miterlimit="10" cx="78.224" cy="87.968" rx="1.313" ry="2.242"/>
<ellipse transform="matrix(-0.5361 0.8442 -0.8442 -0.5361 217.9276 40.5793)" fill="#231F20" stroke="#935B42" stroke-width="0.1" stroke-miterlimit="10" cx="97.813" cy="80.171" rx="1.598" ry="2.725"/>
<ellipse transform="matrix(0.5053 -0.8629 0.8629 0.5053 -21.0039 131.6938)" fill="#231F20" stroke="#935B42" stroke-width="0.1" stroke-miterlimit="10" cx="104.364" cy="84.167" rx="1.312" ry="2.243"/>
<path fill="#231F20" stroke="#935B42" stroke-width="0.1" stroke-miterlimit="10" d="M101.387,78.179
	c-1.205,0.286-2.318-0.056-2.486-0.762c-0.164-0.706,0.676-1.508,1.881-1.793c1.205-0.285,2.316,0.056,2.482,0.762
	C103.432,77.091,102.59,77.894,101.387,78.179z"/>
<ellipse transform="matrix(0.6774 0.7356 -0.7356 0.6774 91.5076 -50.4548)" fill="#231F20" stroke="#935B42" stroke-width="0.1" stroke-miterlimit="10" cx="103.277" cy="79.1" rx="1.312" ry="2.242"/>
<ellipse transform="matrix(0.5338 -0.8456 0.8456 0.5338 -25.3917 126.9975)" fill="#231F20" stroke="#935B42" stroke-width="0.1" stroke-miterlimit="10" cx="102.487" cy="86.528" rx="1.22" ry="2.082"/>
<path fill="#231F20" stroke="#935B42" stroke-width="0.1" stroke-miterlimit="10" d="M102.416,87.49
	c1.479,0.107,2.627,0.869,2.562,1.703c-0.059,0.833-1.305,1.421-2.779,1.314c-1.479-0.108-2.623-0.87-2.562-1.704
	C99.697,87.971,100.941,87.381,102.416,87.49z"/>
<path fill="#231F20" stroke="#935B42" stroke-width="0.1" stroke-miterlimit="10" d="M92.91,77.165
	c0.531,1.119,0.432,2.277-0.225,2.587c-0.658,0.312-1.619-0.343-2.146-1.462c-0.531-1.119-0.431-2.278,0.225-2.588
	C91.42,75.39,92.383,76.046,92.91,77.165z"/>
<ellipse transform="matrix(0.9934 0.1145 -0.1145 0.9934 10.2164 -10.8147)" fill="#231F20" stroke="#935B42" stroke-width="0.1" stroke-miterlimit="10" cx="99.24" cy="83.517" rx="1.313" ry="2.241"/>
<ellipse transform="matrix(0.844 0.5364 -0.5364 0.844 58.8087 -49.4464)" fill="#231F20" stroke="#935B42" stroke-width="0.1" stroke-miterlimit="10" cx="114.397" cy="76.363" rx="1.221" ry="2.084"/>
<path fill="#231F20" stroke="#935B42" stroke-width="0.1" stroke-miterlimit="10" d="M104.379,71.25
	c0.992,1.1,1.291,2.444,0.67,3.003s-1.928,0.12-2.918-0.98c-0.986-1.1-1.287-2.444-0.664-3.002
	C102.086,69.712,103.393,70.151,104.379,71.25z"/>
<ellipse transform="matrix(0.506 -0.8626 0.8626 0.506 -13.8446 136.3464)" fill="#231F20" stroke="#935B42" stroke-width="0.1" stroke-miterlimit="10" cx="112.104" cy="80.259" rx="1.312" ry="2.241"/>
<ellipse transform="matrix(0.6367 0.7711 -0.7711 0.6367 104.1514 -52.9975)" fill="#231F20" stroke="#935B42" stroke-width="0.1" stroke-miterlimit="10" cx="108.318" cy="84.03" rx="1.313" ry="2.241"/>
<ellipse transform="matrix(0.9331 0.3597 -0.3597 0.9331 30.4655 -35.1207)" fill="#231F20" stroke="#935B42" stroke-width="0.1" stroke-miterlimit="10" cx="109.614" cy="64.311" rx="1.313" ry="2.241"/>
<ellipse transform="matrix(0.9472 -0.3207 0.3207 0.9472 -19.8314 38.7012)" fill="#231F20" stroke="#935B42" stroke-width="0.1" stroke-miterlimit="10" cx="107.567" cy="79.552" rx="1.597" ry="2.727"/>
<ellipse transform="matrix(-0.2328 -0.9725 0.9725 -0.2328 60.1258 212.8469)" fill="#231F20" stroke="#935B42" stroke-width="0.1" stroke-miterlimit="10" cx="114.021" cy="82.707" rx="1.313" ry="2.242"/>
<ellipse transform="matrix(0.2625 -0.9649 0.9649 0.2625 -0.7647 169.6724)" fill="#231F20" stroke="#935B42" stroke-width="0.1" stroke-miterlimit="10" cx="110.618" cy="85.336" rx="1.313" ry="2.242"/>
<ellipse transform="matrix(0.9708 -0.2399 0.2399 0.9708 -16.4357 28.7422)" fill="#231F20" stroke="#935B42" stroke-width="0.1" stroke-miterlimit="10" cx="109.843" cy="81.882" rx="1.22" ry="2.083"/>
<ellipse transform="matrix(-0.5362 0.8441 -0.8441 -0.5362 214.012 34.7656)" fill="#231F20" stroke="#935B42" stroke-width="0.1" stroke-miterlimit="10" cx="97.454" cy="76.183" rx="1.597" ry="2.725"/>
<path fill="#231F20" stroke="#935B42" stroke-width="0.1" stroke-miterlimit="10" d="M119.023,75.461
	c0.682,1.035,0.742,2.196,0.135,2.596c-0.605,0.397-1.646-0.118-2.33-1.151c-0.678-1.035-0.738-2.196-0.133-2.596
	C117.299,73.911,118.344,74.426,119.023,75.461z"/>
<ellipse transform="matrix(0.8149 -0.5796 0.5796 0.8149 -17.1057 79.9724)" fill="#231F20" stroke="#935B42" stroke-width="0.1" stroke-miterlimit="10" cx="116.66" cy="66.769" rx="1.313" ry="2.241"/>
<ellipse transform="matrix(0.7449 0.6672 -0.6672 0.7449 73.6869 -47.5449)" fill="#231F20" stroke="#935B42" stroke-width="0.1" stroke-miterlimit="10" cx="99.012" cy="72.578" rx="1.405" ry="2.489"/>
<path fill="#231F20" stroke="#935B42" stroke-width="0.1" stroke-miterlimit="10" d="M119.084,78.216
	c0.367,1.09,0.15,2.149-0.49,2.364c-0.639,0.217-1.453-0.491-1.822-1.581c-0.371-1.089-0.15-2.148,0.484-2.365
	C117.896,76.419,118.713,77.128,119.084,78.216z"/>
<ellipse transform="matrix(0.9904 -0.1383 0.1383 0.9904 -9.1043 15.6887)" fill="#231F20" stroke="#935B42" stroke-width="0.1" stroke-miterlimit="10" cx="108.382" cy="73.381" rx="1.596" ry="2.727"/>
<ellipse transform="matrix(0.9209 0.3899 -0.3899 0.9209 36.6423 -38.5201)" fill="#231F20" stroke="#935B42" stroke-width="0.1" stroke-miterlimit="10" cx="113.204" cy="70.997" rx="1.596" ry="2.726"/>
<ellipse transform="matrix(0.2216 -0.9751 0.9751 0.2216 19.5851 178.3065)" fill="#231F20" stroke="#935B42" stroke-width="0.1" stroke-miterlimit="10" cx="121.48" cy="76.885" rx="1.313" ry="2.242"/>
<path fill="#231F20" stroke="#935B42" stroke-width="0.1" stroke-miterlimit="10" d="M108.273,67.613
	c0.479,1.142,0.324,2.294-0.344,2.575c-0.668,0.282-1.598-0.417-2.076-1.558c-0.482-1.142-0.328-2.296,0.342-2.575
	C106.863,65.773,107.793,66.471,108.273,67.613z"/>
<ellipse transform="matrix(0.866 0.5001 -0.5001 0.866 48.2757 -47.7369)" fill="#231F20" stroke="#935B42" stroke-width="0.1" stroke-miterlimit="10" cx="113.203" cy="66.202" rx="1.405" ry="2.489"/>
<path fill="#231F20" stroke="#935B42" stroke-width="0.1" stroke-miterlimit="10" d="M120.838,70.128
	c-0.246,1.123-0.979,1.917-1.639,1.772c-0.654-0.145-0.988-1.172-0.744-2.296c0.248-1.123,0.982-1.918,1.639-1.774
	C120.752,67.977,121.086,69.004,120.838,70.128z"/>
<path fill="#231F20" stroke="#935B42" stroke-width="0.1" stroke-miterlimit="10" d="M117.742,59.332
	c-1.271-0.806-1.918-2.063-1.443-2.808c0.471-0.745,1.885-0.695,3.154,0.113c1.273,0.806,1.918,2.065,1.447,2.808
	C120.428,60.189,119.016,60.14,117.742,59.332z"/>
<ellipse transform="matrix(-0.0526 0.9986 -0.9986 -0.0526 178.8942 -48.9358)" fill="#231F20" stroke="#935B42" stroke-width="0.1" stroke-miterlimit="10" cx="112.66" cy="60.392" rx="1.597" ry="2.727"/>
<ellipse transform="matrix(0.8356 -0.5494 0.5494 0.8356 -14.8209 80.183)" fill="#231F20" stroke="#935B42" stroke-width="0.1" stroke-miterlimit="10" cx="126.545" cy="64.852" rx="1.314" ry="2.244"/>
<path fill="#231F20" stroke="#935B42" stroke-width="0.1" stroke-miterlimit="10" d="M122.828,62.208
	c-1.205,0.285-2.318-0.056-2.482-0.76c-0.17-0.707,0.672-1.51,1.877-1.795c1.203-0.284,2.316,0.057,2.482,0.762
	C124.873,61.12,124.031,61.923,122.828,62.208z"/>
<ellipse transform="matrix(0.9709 -0.2396 0.2396 0.9709 -14.0858 31.5019)" fill="#231F20" stroke="#935B42" stroke-width="0.1" stroke-miterlimit="10" cx="122.524" cy="73.686" rx="1.405" ry="2.49"/>
<path fill="#231F20" stroke="#935B42" stroke-width="0.1" stroke-miterlimit="10" d="M129.643,73.313
	c0.6,0.98,0.621,2.061,0.049,2.413c-0.578,0.353-1.529-0.158-2.129-1.139c-0.602-0.981-0.623-2.062-0.049-2.414
	C128.09,71.822,129.039,72.332,129.643,73.313z"/>
<ellipse transform="matrix(0.1981 0.9802 -0.9802 0.1981 168.4897 -65.6846)" fill="#231F20" stroke="#935B42" stroke-width="0.1" stroke-miterlimit="10" cx="124.391" cy="70.137" rx="1.597" ry="2.724"/>
<ellipse transform="matrix(0.5068 -0.8621 0.8621 0.5068 3.8281 144.7961)" fill="#231F20" stroke="#935B42" stroke-width="0.1" stroke-miterlimit="10" cx="128.46" cy="69.052" rx="1.513" ry="2.679"/>
<path fill="#231F20" stroke="#935B42" stroke-width="0.1" stroke-miterlimit="10" d="M130.391,64.274
	c1.209,0.275,2.059,1.07,1.898,1.778c-0.164,0.707-1.271,1.057-2.479,0.783s-2.057-1.07-1.895-1.776
	C128.076,64.351,129.184,64,130.391,64.274z"/>
<ellipse transform="matrix(0.9982 0.0608 -0.0608 0.9982 3.9573 -7.7251)" fill="#231F20" stroke="#935B42" stroke-width="0.1" stroke-miterlimit="10" cx="129.005" cy="61.209" rx="1.314" ry="2.242"/>
<ellipse transform="matrix(0.8437 0.5367 -0.5367 0.8437 53.3016 -63.5725)" fill="#231F20" stroke="#935B42" stroke-width="0.1" stroke-miterlimit="10" cx="135.838" cy="59.76" rx="1.22" ry="2.083"/>
<path fill="#231F20" stroke="#935B42" stroke-width="0.1" stroke-miterlimit="10" d="M121.721,63.994
	c0.807-1.27,2.064-1.917,2.807-1.442c0.746,0.474,0.695,1.887-0.113,3.158c-0.811,1.27-2.068,1.916-2.811,1.442
	C120.857,66.678,120.91,65.264,121.721,63.994z"/>
<ellipse transform="matrix(0.8357 -0.5492 0.5492 0.8357 -9.7641 78.6474)" fill="#231F20" stroke="#935B42" stroke-width="0.1" stroke-miterlimit="10" cx="126.545" cy="55.64" rx="1.314" ry="2.243"/>
<path fill="#231F20" stroke="#935B42" stroke-width="0.1" stroke-miterlimit="10" d="M136.16,64.515
	c0.332,1.334-0.014,2.568-0.768,2.754s-1.629-0.747-1.959-2.081c-0.33-1.333,0.012-2.566,0.768-2.752
	C134.953,62.249,135.832,63.181,136.16,64.515z"/>
<path fill="#231F20" stroke="#935B42" stroke-width="0.1" stroke-miterlimit="10" d="M134.348,67.692
	c0.604,0.982,0.623,2.062,0.049,2.413c-0.576,0.353-1.529-0.157-2.129-1.139c-0.602-0.98-0.621-2.062-0.049-2.413
	C132.797,66.202,133.746,66.711,134.348,67.692z"/>
<ellipse transform="matrix(0.5067 -0.8621 0.8621 0.5067 17.9414 152.1451)" fill="#231F20" stroke="#935B42" stroke-width="0.1" stroke-miterlimit="10" cx="141.927" cy="60.394" rx="1.513" ry="2.68"/>
<path fill="#231F20" stroke="#935B42" stroke-width="0.1" stroke-miterlimit="10" d="M132.453,59.814
	c1.207,0.276,2.059,1.07,1.895,1.778c-0.158,0.708-1.27,1.059-2.477,0.784c-1.207-0.274-2.055-1.07-1.895-1.776
	C130.139,59.892,131.246,59.541,132.453,59.814z"/>
<ellipse transform="matrix(-0.7933 0.6088 -0.6088 -0.7933 223.9442 104.0621)" fill="#231F20" stroke="#935B42" stroke-width="0.1" stroke-miterlimit="10" cx="94.31" cy="90.041" rx="1.597" ry="2.727"/>
<ellipse transform="matrix(-0.3932 0.9194 -0.9194 -0.3932 211.86 53.6854)" fill="#231F20" stroke="#935B42" stroke-width="0.1" stroke-miterlimit="10" cx="88.215" cy="96.75" rx="1.597" ry="2.727"/>
<path fill="#231F20" stroke="#935B42" stroke-width="0.1" stroke-miterlimit="10" d="M96.48,95.029
	c-0.115,1.474-0.881,2.618-1.715,2.555c-0.83-0.064-1.416-1.312-1.301-2.787c0.109-1.476,0.877-2.62,1.711-2.556
	C96.01,92.304,96.592,93.553,96.48,95.029z"/>
<path fill="#231F20" stroke="#935B42" stroke-width="0.1" stroke-miterlimit="10" d="M93.895,85.38
	c-1.141,0.475-2.293,0.318-2.574-0.353c-0.275-0.669,0.426-1.598,1.568-2.074c1.143-0.474,2.295-0.316,2.572,0.354
	C95.742,83.977,95.039,84.904,93.895,85.38z"/>
<g opacity="0.2">
	
		<ellipse transform="matrix(-0.8659 -0.5002 0.5002 -0.8659 81.386 225.6652)" fill="#231F20" cx="70.94" cy="101.924" rx="1.405" ry="2.49"/>
	
		<ellipse transform="matrix(0.214 -0.9768 0.9768 0.214 -42.7073 153.7728)" fill="#231F20" cx="74.2" cy="103.425" rx="2.083" ry="1.22"/>
	<path fill="#231F20" d="M77.893,91.965c0.137-0.789-0.002-1.494-0.299-1.948c0.893,0.266,1.717,0.142,1.982-0.388
		c0.325-0.647-0.305-1.624-1.412-2.18s-2.266-0.481-2.591,0.167c-0.292,0.577,0.202,1.398,1.086,1.967
		c-0.601,0.141-1.172,0.896-1.355,1.93c-0.21,1.22,0.194,2.31,0.911,2.435C76.929,94.073,77.68,93.185,77.893,91.965z"/>
	
		<ellipse transform="matrix(-0.2396 -0.9709 0.9709 -0.2396 -6.6459 212.1665)" fill="#231F20" cx="79.763" cy="108.686" rx="2.488" ry="1.405"/>
	
		<ellipse transform="matrix(-0.5226 -0.8526 0.8526 -0.5226 34.9517 234.5876)" fill="#231F20" cx="83.154" cy="107.508" rx="2.084" ry="1.219"/>
	
		<ellipse transform="matrix(0.5498 0.8353 -0.8353 0.5498 106.2067 -33.5135)" fill="#231F20" cx="84.194" cy="81.773" rx="2.242" ry="1.315"/>
	<path fill="#231F20" d="M83.797,84.616c-0.422,0.721,0.27,1.912,1.547,2.661c1.273,0.749,2.651,0.773,3.074,0.053
		c0.425-0.721-0.269-1.913-1.544-2.662S84.223,83.897,83.797,84.616z"/>
	<path fill="#231F20" d="M89.377,83.569c1.207,0.274,2.314-0.077,2.474-0.785c0.162-0.706-0.688-1.502-1.894-1.776
		c-1.209-0.274-2.314,0.076-2.479,0.784C87.319,82.499,88.167,83.293,89.377,83.569z"/>
	
		<ellipse transform="matrix(-0.0606 0.9982 -0.9982 -0.0606 169.9122 7.3328)" fill="#231F20" cx="81.505" cy="83.625" rx="2.242" ry="1.314"/>
	
		<ellipse transform="matrix(0.5093 -0.8606 0.8606 0.5093 -28.2599 127.7088)" fill="#231F20" cx="97.853" cy="88.634" rx="2.242" ry="1.313"/>
	<path fill="#231F20" d="M85.933,93.018c0.499,0.595,1.758,0.363,2.813-0.519c1.053-0.882,1.504-2.079,1.008-2.674
		c-0.454-0.543-1.539-0.37-2.526,0.329c-0.602-0.92-1.507-1.4-2.065-1.059c-0.574,0.353-0.554,1.433,0.048,2.415
		c0.169,0.273,0.365,0.5,0.571,0.691C85.739,92.516,85.761,92.81,85.933,93.018z"/>
	
		<ellipse transform="matrix(-0.8436 -0.537 0.537 -0.8436 116.1902 221.7447)" fill="#231F20" cx="90.391" cy="93.95" rx="1.219" ry="2.084"/>
	
		<ellipse transform="matrix(0.866 0.5001 -0.5001 0.866 56.6677 -19.6451)" fill="#231F20" cx="64.987" cy="95.905" rx="1.405" ry="2.489"/>
	<path fill="#231F20" d="M68.696,95.371c-0.66-0.144-1.393,0.649-1.641,1.773c-0.246,1.123,0.088,2.151,0.747,2.296
		c0.655,0.144,1.39-0.649,1.638-1.774C69.685,96.542,69.351,95.515,68.696,95.371z"/>
	
		<ellipse transform="matrix(0.3046 -0.9525 0.9525 0.3046 -52.6043 128.0118)" fill="#231F20" cx="61.366" cy="100.031" rx="1.597" ry="2.726"/>
	
		<ellipse transform="matrix(0.2304 0.9731 -0.9731 0.2304 140.8244 -1.1251)" fill="#231F20" cx="71.124" cy="88.469" rx="1.314" ry="2.243"/>
	<path fill="#231F20" d="M77.071,95.372c0.495,0.534,1.63,0.286,2.541-0.553c0.91-0.838,1.25-1.951,0.759-2.485
		c-0.491-0.533-1.63-0.285-2.54,0.554C76.92,93.727,76.581,94.84,77.071,95.372z"/>
	
		<ellipse transform="matrix(-0.2393 -0.9709 0.9709 -0.2393 -18.4463 190.8818)" fill="#231F20" cx="65.547" cy="102.667" rx="2.489" ry="1.406"/>
	<path fill="#231F20" d="M72.71,96.102c-0.06,0.012-0.108,0.04-0.165,0.054c0.576-0.442,0.793-1.561,0.447-2.79
		c-0.399-1.424-1.375-2.396-2.18-2.169c-0.316,0.088-0.533,0.384-0.686,0.753c-0.242-0.551-0.725-1.12-1.418-1.56
		c-1.271-0.807-2.686-0.857-3.156-0.112c-0.474,0.745,0.174,2.001,1.444,2.808c1.145,0.727,2.365,0.805,2.95,0.278
		c0.026,0.267,0.055,0.538,0.135,0.82c0.355,1.271,1.17,2.13,1.912,2.15c-1.073,0.416-1.783,1.16-1.643,1.873
		c0.179,0.864,1.518,1.323,2.992,1.023c1.475-0.299,2.528-1.242,2.355-2.106C75.525,96.26,74.186,95.802,72.71,96.102z"/>
	<path fill="#231F20" d="M82.901,88.689c0.732-1.002,0.846-2.159,0.258-2.586c-0.588-0.425-1.652,0.041-2.38,1.042
		c-0.728,1.002-0.841,2.159-0.257,2.586C81.11,90.157,82.174,89.69,82.901,88.689z"/>
	
		<ellipse transform="matrix(0.5057 -0.8627 0.8627 0.5057 -21.9114 131.4003)" fill="#231F20" cx="103.715" cy="84.822" rx="1.313" ry="2.244"/>
	<path fill="#231F20" d="M101.738,78.789c-0.912,0.839-1.25,1.952-0.76,2.486c0.49,0.532,1.629,0.285,2.539-0.554
		c0.91-0.839,1.25-1.952,0.76-2.486C103.783,77.703,102.648,77.95,101.738,78.789z"/>
	<path fill="#231F20" d="M103.27,88.558c0.131-0.066,0.254-0.144,0.332-0.263c0.359-0.571-0.141-1.531-1.113-2.144
		c-0.973-0.614-2.053-0.649-2.412-0.08c-0.352,0.558,0.123,1.484,1.057,2.099c-1.176,0.081-2.096,0.582-2.146,1.289
		c-0.061,0.833,1.088,1.595,2.562,1.702c1.477,0.107,2.721-0.481,2.783-1.314C104.365,89.341,103.93,88.88,103.27,88.558z"/>
	
		<ellipse transform="matrix(0.4284 0.9036 -0.9036 0.4284 122.883 -37.4913)" fill="#231F20" cx="91.074" cy="78.38" rx="2.243" ry="1.316"/>
	<path fill="#231F20" d="M98.336,86.398c0.719,0.083,1.418-0.847,1.561-2.077c0.098-0.842-0.105-1.581-0.467-2.006
		c0.008-0.013,0.027-0.016,0.035-0.029c0.475-0.745-0.174-2.001-1.447-2.81c-1.27-0.806-2.682-0.857-3.156-0.113
		c-0.473,0.745,0.176,2.003,1.447,2.81c0.475,0.303,0.959,0.462,1.416,0.549c-0.211,0.356-0.379,0.789-0.438,1.298
		C97.145,85.251,97.613,86.315,98.336,86.398z"/>
	<path fill="#231F20" d="M114.777,77.673c0.615-0.972,0.656-2.052,0.088-2.413c-0.568-0.363-1.529,0.131-2.146,1.102
		c-0.619,0.972-0.658,2.051-0.092,2.413C113.199,79.137,114.156,78.643,114.777,77.673z"/>
	
		<ellipse transform="matrix(0.6691 0.7431 -0.7431 0.6691 88.1342 -52.1262)" fill="#231F20" cx="102.607" cy="72.916" rx="2.679" ry="1.513"/>
	<path fill="#231F20" d="M108.158,67.056c0.68,0.261,1.588-0.464,2.031-1.62c0.445-1.155,0.258-2.303-0.418-2.564
		s-1.586,0.463-2.029,1.62C107.293,65.648,107.482,66.796,108.158,67.056z"/>
	<path fill="#231F20" d="M113.387,82.044c0.365-0.625-0.199-1.638-1.266-2.264c-1.072-0.626-2.232-0.626-2.602-0.001
		c-0.17,0.294-0.121,0.675,0.072,1.06c-0.283-0.26-0.6-0.398-0.9-0.325c-0.027,0.007-0.049,0.04-0.076,0.052
		c-0.037-0.284-0.082-0.575-0.186-0.872c-0.482-1.426-1.553-2.353-2.389-2.069c-0.834,0.282-1.119,1.668-0.637,3.095
		c0.486,1.425,1.553,2.352,2.389,2.069c0.078-0.027,0.127-0.104,0.191-0.149c0.012,0.064,0.008,0.125,0.025,0.19
		c0.018,0.073,0.053,0.128,0.074,0.198c-0.408,0.107-0.844,0.308-1.252,0.644c-0.953,0.79-1.354,1.882-0.891,2.44
		c0.371,0.451,1.184,0.398,1.986-0.043c0.258,0.497,0.873,0.964,1.695,1.19c1.195,0.325,2.32,0.023,2.508-0.678
		c0.191-0.699-0.621-1.531-1.814-1.856c-0.33-0.091-0.652-0.123-0.951-0.122c0.012-0.024,0.029-0.047,0.037-0.071
		c0.098,0.015,0.197,0.05,0.291,0.026c0.654-0.161,0.959-1.197,0.686-2.315c-0.066-0.259-0.16-0.496-0.268-0.711
		c0.193,0.187,0.418,0.362,0.678,0.515c0.449,0.262,0.906,0.389,1.32,0.432c-0.646,0.38-1.037,0.912-0.92,1.404
		c0.168,0.706,1.281,1.043,2.484,0.755c1.205-0.288,2.045-1.093,1.877-1.8C115.396,82.199,114.461,81.888,113.387,82.044z"/>
	<path fill="#231F20" d="M95.949,78.187c1.025,0.649,2.117,0.783,2.76,0.43c0.467,0.298,1.213,0.409,2.027,0.216
		c1.203-0.284,2.045-1.087,1.879-1.793c-0.168-0.705-1.277-1.047-2.484-0.762c-0.465,0.11-0.848,0.311-1.168,0.54
		c-0.271-0.475-0.709-0.952-1.301-1.327c-0.131-0.083-0.26-0.121-0.391-0.187c0.625,0.038,1.461-0.377,2.137-1.133
		c0.916-1.024,1.189-2.274,0.611-2.792c-0.576-0.517-1.789-0.105-2.705,0.919c-0.885,0.99-1.154,2.178-0.652,2.724
		c-0.939-0.306-1.809-0.195-2.16,0.356C94.029,76.12,94.678,77.379,95.949,78.187z"/>
	
		<ellipse transform="matrix(-0.815 0.5795 -0.5795 -0.815 249.6262 55.1481)" fill="#231F20" cx="116.01" cy="67.422" rx="1.313" ry="2.242"/>
	
		<ellipse transform="matrix(-0.1383 -0.9904 0.9904 -0.1383 49.3025 190.9682)" fill="#231F20" cx="107.73" cy="74.035" rx="2.726" ry="1.597"/>
	
		<ellipse transform="matrix(-0.3894 0.9211 -0.9211 -0.3894 222.3737 -4.1235)" fill="#231F20" cx="112.554" cy="71.651" rx="2.726" ry="1.598"/>
	
		<ellipse transform="matrix(0.3872 0.922 -0.922 0.3872 128.6165 -55.9657)" fill="#231F20" cx="106.411" cy="68.775" rx="2.242" ry="1.312"/>
	<path fill="#231F20" d="M113.771,67.559c0.689-1.19,0.699-2.47,0.025-2.858c-0.67-0.389-1.771,0.262-2.459,1.454
		c-0.688,1.19-0.699,2.47-0.029,2.858C111.982,69.401,113.084,68.75,113.771,67.559z"/>
	<path fill="#231F20" d="M119.445,68.486c-0.658-0.144-1.393,0.649-1.637,1.772c-0.25,1.125,0.084,2.153,0.744,2.297
		c0.656,0.144,1.389-0.649,1.639-1.773C120.436,69.659,120.102,68.63,119.445,68.486z"/>
	<path fill="#231F20" d="M117.094,59.987c1.27,0.806,2.686,0.857,3.158,0.113c0.473-0.745-0.176-2.002-1.449-2.81
		c-1.27-0.807-2.682-0.857-3.156-0.113S115.82,59.181,117.094,59.987z"/>
	<path fill="#231F20" d="M111.926,62.642c1.504,0.08,2.76-0.57,2.809-1.45c0.045-0.882-1.135-1.661-2.641-1.741
		c-1.5-0.08-2.76,0.57-2.805,1.45C109.24,61.782,110.422,62.56,111.926,62.642z"/>
	
		<ellipse transform="matrix(-0.9732 0.2301 -0.2301 -0.9732 254.6508 93.4716)" fill="#231F20" cx="121.875" cy="61.585" rx="2.242" ry="1.313"/>
	
		<ellipse transform="matrix(-0.5224 -0.8527 0.8527 -0.5224 131.1727 222.6813)" fill="#231F20" cx="127.951" cy="74.604" rx="2.083" ry="1.219"/>
	<path fill="#231F20" d="M128.574,68.402c-1.275-0.749-2.65-0.771-3.076-0.051c-0.164,0.283-0.117,0.645,0.029,1.019
		c-0.557-0.229-1.299-0.307-2.104-0.144c-1.477,0.3-2.529,1.243-2.355,2.108c0.049,0.241,0.207,0.44,0.416,0.612
		c-0.07-0.002-0.139-0.039-0.207-0.022c-0.752,0.186-1.096,1.418-0.768,2.754c0.184,0.74,0.539,1.33,0.945,1.7
		c-0.111-0.038-0.211-0.091-0.33-0.118c-1.098-0.249-2.074,0.035-2.373,0.611c-0.092-0.25-0.215-0.506-0.379-0.755
		c-0.68-1.035-1.723-1.55-2.33-1.151c-0.605,0.398-0.545,1.56,0.135,2.594c0.012,0.016,0.023,0.024,0.035,0.038
		c-0.314,0.439-0.369,1.24-0.092,2.058c0.369,1.09,1.188,1.798,1.824,1.581c0.639-0.217,0.855-1.275,0.486-2.364
		c-0.018-0.047-0.041-0.082-0.059-0.125c0.041-0.019,0.098-0.01,0.137-0.036c0.254-0.168,0.365-0.49,0.387-0.865
		c0.318,0.427,0.895,0.805,1.645,0.976c1.209,0.274,2.314-0.077,2.479-0.785c0.102-0.458-0.244-0.94-0.811-1.307
		c0.088,0.007,0.176,0.049,0.262,0.027c0.754-0.186,1.098-1.418,0.768-2.752c-0.178-0.724-0.52-1.307-0.912-1.679
		c0.502,0.125,1.096,0.161,1.734,0.031c1.326-0.269,2.26-1.059,2.32-1.845c0.201,0.177,0.41,0.351,0.664,0.501
		c1.273,0.749,2.652,0.772,3.074,0.051C130.545,70.344,129.852,69.152,128.574,68.402z"/>
	<path fill="#231F20" d="M129.742,64.929c-1.096-0.249-2.072,0.033-2.371,0.612c-0.092-0.251-0.215-0.508-0.377-0.756
		c-0.682-1.035-1.725-1.55-2.332-1.152c-0.148,0.099-0.254,0.244-0.322,0.421c-0.066-0.362-0.195-0.678-0.459-0.848
		c-0.746-0.474-2.004,0.172-2.812,1.443c-0.809,1.271-0.861,2.684-0.117,3.158c0.746,0.473,2.004-0.172,2.812-1.442
		c0.297-0.465,0.453-0.936,0.545-1.386c0.068,0.401,0.215,0.831,0.492,1.25c0.678,1.033,1.723,1.549,2.328,1.149
		c0.256-0.168,0.367-0.489,0.387-0.864c0.318,0.426,0.895,0.804,1.645,0.976c1.207,0.274,2.316-0.077,2.477-0.785
		C131.797,65.999,130.949,65.203,129.742,64.929z"/>
	<path fill="#231F20" d="M128.219,64.101c0.684,0.042,1.287-0.833,1.412-1.973c0.332,0.397,0.885,0.743,1.594,0.904
		c1.205,0.273,2.312-0.077,2.477-0.785c0.16-0.707-0.688-1.502-1.895-1.776c-0.965-0.22-1.844-0.027-2.25,0.414
		c-0.18-0.71-0.568-1.229-1.066-1.259c-0.723-0.044-1.371,0.922-1.445,2.158C126.969,63.02,127.496,64.057,128.219,64.101z"/>
	<path fill="#231F20" d="M134.16,59.759c-0.619,0.97-0.658,2.05-0.09,2.413c0.568,0.361,1.531-0.133,2.148-1.103
		c0.615-0.97,0.656-2.051,0.088-2.412C135.738,58.295,134.777,58.788,134.16,59.759z"/>
	<path fill="#231F20" d="M127.129,58.167c0.604-0.398,0.545-1.56-0.135-2.594c-0.682-1.034-1.725-1.55-2.332-1.151
		c-0.605,0.399-0.545,1.561,0.139,2.596C125.479,58.051,126.523,58.566,127.129,58.167z"/>
	<path fill="#231F20" d="M133.553,63.089c-0.754,0.186-1.1,1.418-0.768,2.754c0.326,1.334,1.207,2.266,1.961,2.08
		c0.752-0.186,1.096-1.419,0.766-2.753C135.182,63.834,134.307,62.904,133.553,63.089z"/>
	
		<ellipse transform="matrix(-0.5219 -0.853 0.853 -0.5219 143.0545 218.1454)" fill="#231F20" cx="132.659" cy="68.984" rx="2.083" ry="1.222"/>
	
		<ellipse transform="matrix(0.5069 -0.862 0.862 0.5069 17.0344 151.8766)" fill="#231F20" cx="141.276" cy="61.048" rx="1.512" ry="2.678"/>
	<path fill="#231F20" d="M88.193,95.938c-1.385-0.592-2.788-0.416-3.133,0.395c-0.24,0.558,0.108,1.26,0.781,1.842
		c-0.266-0.144-0.562-0.267-0.896-0.342c-0.303-0.068-0.596-0.097-0.87-0.091c0.503-0.455,0.434-1.524-0.208-2.5
		c-0.226-0.341-0.491-0.598-0.768-0.813c0.119,0.023,0.242,0.066,0.356,0.037c0.754-0.186,1.099-1.418,0.768-2.752
		c-0.328-1.336-1.207-2.266-1.961-2.081c-0.752,0.186-1.096,1.418-0.768,2.754c0.178,0.71,0.512,1.29,0.896,1.664
		c-0.316-0.096-0.622-0.113-0.854,0.042c-0.545,0.356-0.521,1.325-0.027,2.269c-0.455-0.308-1.175-0.452-1.979-0.308
		c-1.03,0.184-1.781,0.754-1.924,1.356c-0.282-0.168-0.57-0.268-0.842-0.192c-0.805,0.227-1.131,1.564-0.73,2.989
		c0.355,1.268,1.164,2.125,1.906,2.151c-1.09,0.411-1.816,1.162-1.67,1.881c0.175,0.865,1.512,1.322,2.99,1.023
		c1.328-0.269,2.261-1.059,2.318-1.844c0.203,0.176,0.413,0.352,0.664,0.5c1.276,0.749,2.654,0.772,3.078,0.052
		c0.422-0.72-0.27-1.912-1.545-2.661c-1.275-0.75-2.654-0.773-3.076-0.053c-0.166,0.284-0.117,0.645,0.028,1.019
		c-0.556-0.23-1.298-0.305-2.103-0.143c-0.046,0.009-0.081,0.03-0.123,0.04c0.57-0.445,0.787-1.561,0.442-2.785
		c-0.083-0.292-0.2-0.55-0.326-0.796c0.403,0.102,0.868,0.138,1.374,0.048c1.176-0.209,2.018-0.919,1.962-1.61
		c0.396,0.468,0.849,0.773,1.273,0.875c-0.396,0.148-0.688,0.388-0.763,0.717c-0.162,0.706,0.688,1.502,1.896,1.776
		c0.784,0.178,1.5,0.071,1.969-0.206c-0.026,0.147-0.069,0.281-0.078,0.438c-0.076,1.235,0.451,2.273,1.173,2.317
		c0.726,0.044,1.373-0.922,1.448-2.158c0.037-0.612-0.075-1.174-0.283-1.592c0.702-0.017,1.278-0.246,1.479-0.716
		C90.418,97.667,89.577,96.528,88.193,95.938z M86.416,98.575c0.168,0.1,0.321,0.212,0.514,0.293
		c-0.055,0.062-0.121,0.102-0.169,0.174C86.683,98.88,86.569,98.721,86.416,98.575z"/>
	<path fill="#231F20" d="M94.816,93.025c0.184-0.024,0.359-0.058,0.5-0.167c0.703-0.537,0.525-1.941-0.391-3.135
		c-0.918-1.194-2.227-1.728-2.926-1.19c-0.703,0.536-0.525,1.94,0.391,3.135c0.551,0.716,1.23,1.153,1.848,1.307
		c-0.713,0.186-1.324,1.177-1.426,2.476c-0.113,1.476,0.473,2.723,1.305,2.787c0.834,0.064,1.598-1.08,1.713-2.556
		C95.926,94.395,95.482,93.332,94.816,93.025z"/>
	<path fill="#231F20" d="M90.672,85.682c0.277,0.669,1.432,0.828,2.576,0.353c1.141-0.475,1.842-1.404,1.566-2.074
		c-0.281-0.669-1.434-0.828-2.574-0.352C91.096,84.084,90.393,85.011,90.672,85.682z"/>
</g>
</svg>
