<?xml version="1.0" encoding="utf-8"?>
<!-- Generator: Adobe Illustrator 16.0.0, SVG Export Plug-In . SVG Version: 6.00 Build 0)  -->
<!DOCTYPE svg PUBLIC "-//W3C//DTD SVG 1.1//EN" "http://www.w3.org/Graphics/SVG/1.1/DTD/svg11.dtd">
<svg version="1.1" id="Layer_1" xmlns="http://www.w3.org/2000/svg" xmlns:xlink="http://www.w3.org/1999/xlink" x="0px" y="0px"
	 width="180px" height="220px" viewBox="0 0 180 220" enable-background="new 0 0 180 220" xml:space="preserve">
<g>
	<g opacity="0.1">
		<path fill="#231F20" d="M156.83,94.511c-1.536-5.125-5.458-9.524-8.616-13.067l-0.706-0.781c-2.965-3.34-6.311-7.104-10.498-9.564
			c-3.035-1.781-6.189-2.542-9.529-3.363c-1.004-0.239-2.014-0.5-3.021-0.761c-1.037-0.299-2.095-0.619-3.161-0.959
			c-3.052-0.982-6.21-1.981-9.288-1.981c-3.08,0-5.623,0.999-8.083,1.981c-0.864,0.34-1.733,0.66-2.591,0.959
			c-0.85,0.261-1.719,0.521-2.577,0.761c-2.502,0.72-4.876,1.396-6.752,2.756l-69.556,50.46c-1.231,0.507-2.363,1.122-3.317,1.982
			c-2.693,2.465-3.802,6.23-4.76,9.57l-0.225,0.778c-1.052,3.543-2.337,7.942-0.801,13.067c1.576,5.262,5.418,9.104,8.967,12.369
			c3.269,2.999,6.983,6.42,11.529,8.266c2.617,1.056,5.222,1.334,8,1.638c1.271,0.119,2.583,0.262,3.917,0.483
			c1.299,0.218,2.636,0.56,4.059,0.9c2.562,0.639,5.227,1.301,7.798,1.301c0.111,0,0.211-0.019,0.322-0.022
			c0.111,0.005,0.228,0.022,0.339,0.022c2.537,0,4.708-0.662,6.818-1.301c1.131-0.342,2.203-0.661,3.292-0.859
			c1.137-0.224,2.277-0.359,3.409-0.485c2.531-0.296,4.934-0.581,6.786-1.677c0.342-0.205,0.644-0.426,0.946-0.66
			c-0.074,0.058-0.137,0.119-0.214,0.177l71.465-51.842c2.765-2.004,3.996-5.224,5.102-8.083
			C157.188,103.193,158.318,99.473,156.83,94.511z"/>
	</g>
	<g>
		<path fill="#F5CE7A" d="M164.191,79.792c-1.535-5.125-5.457-9.524-8.618-13.07l-0.707-0.781
			c-2.964-3.339-6.308-7.104-10.497-9.564c-3.035-1.78-6.189-2.542-9.53-3.362c-1.004-0.239-2.013-0.5-3.021-0.762
			c-1.038-0.299-2.096-0.617-3.161-0.958c-3.054-0.982-6.21-1.981-9.286-1.981c-3.081,0-5.623,0.999-8.086,1.981
			c-0.863,0.34-1.729,0.658-2.588,0.958c-0.852,0.262-1.721,0.523-2.579,0.762c-2.502,0.718-4.874,1.396-6.752,2.755l-71.459,51.841
			c0.162-0.119,0.351-0.204,0.521-0.315c-0.442,0.284-0.881,0.569-1.271,0.923c-2.713,2.461-3.802,6.223-4.762,9.568l-0.24,0.775
			c-1.043,3.521-2.329,7.929-0.784,13.069c1.57,5.245,5.416,9.104,8.981,12.364c3.258,3.023,6.969,6.425,11.512,8.266
			c2.617,1.063,5.242,1.344,7.995,1.625c1.274,0.137,2.588,0.279,3.922,0.495c1.303,0.224,2.631,0.542,4.059,0.901
			c2.562,0.644,5.213,1.302,7.801,1.302c2.537,0,4.706-0.658,6.814-1.302c1.135-0.34,2.204-0.656,3.295-0.861
			c1.134-0.217,2.274-0.357,3.406-0.479c2.534-0.303,4.936-0.582,6.789-1.683c0.339-0.198,0.644-0.425,0.946-0.655
			c-0.074,0.058-0.137,0.119-0.214,0.178l71.462-51.844c2.766-2.006,3.996-5.224,5.104-8.084
			C164.546,88.475,165.68,84.753,164.191,79.792z"/>
		<path fill="#E7A64B" d="M65.639,157.814c-2.762,0-5.598-0.713-8.1-1.34c-1.394-0.354-2.694-0.666-3.965-0.881
			c-1.271-0.208-2.534-0.345-3.759-0.48c-2.788-0.282-5.589-0.567-8.411-1.711c-4.836-1.961-8.744-5.592-11.885-8.506
			c-3.634-3.322-7.652-7.336-9.323-12.91c-1.659-5.529-0.251-10.293,0.781-13.771l0.245-0.79c0.992-3.463,2.129-7.407,5.11-10.114
			c0.271-0.248,0.559-0.463,0.858-0.668l-0.011-0.018l0.023-0.016l71.442-51.831c2.041-1.479,4.491-2.184,7.088-2.929
			c0.903-0.252,1.766-0.51,2.605-0.77c0.798-0.278,1.648-0.593,2.499-0.926c2.423-0.968,5.177-2.066,8.533-2.066
			c3.323,0,6.688,1.084,9.662,2.04c1.052,0.337,2.098,0.652,3.127,0.947c0.969,0.251,1.97,0.51,2.964,0.749
			c3.512,0.86,6.713,1.646,9.868,3.497c4.366,2.563,7.78,6.411,10.793,9.807l0.698,0.772c3.244,3.634,7.269,8.149,8.884,13.54
			c1.604,5.354,0.337,9.444-0.98,12.858c-1.177,3.047-2.487,6.433-5.526,8.636L87.403,152.77l-0.008-0.009
			c-0.265,0.196-0.533,0.386-0.827,0.556c-2.066,1.229-4.578,1.527-7.237,1.842c-1.143,0.123-2.249,0.257-3.349,0.471
			c-1.061,0.196-2.138,0.52-3.175,0.829C70.627,157.125,68.364,157.814,65.639,157.814z M29.057,108.35
			c-0.394,0.252-0.755,0.485-1.078,0.778c-2.465,2.233-3.497,5.826-4.409,8.995l-0.245,0.801c-0.992,3.35-2.229,7.53-0.781,12.355
			c1.491,4.977,5.239,8.707,8.636,11.812c2.999,2.787,6.727,6.248,11.145,8.037c2.497,1.013,5.122,1.28,7.658,1.539
			c1.365,0.147,2.668,0.291,3.996,0.508c1.405,0.236,2.825,0.584,4.158,0.921c2.48,0.621,5.042,1.264,7.502,1.264
			c2.36,0,4.443-0.633,6.458-1.25c1.106-0.329,2.246-0.672,3.429-0.889c1.16-0.229,2.332-0.371,3.497-0.496
			c2.411-0.285,4.671-0.553,6.293-1.517c0.297-0.177,0.562-0.373,0.824-0.575l0.012,0.014l71.266-51.698
			c2.453-1.778,3.576-4.677,4.656-7.476c1.246-3.229,2.326-6.716,0.943-11.328c-1.459-4.869-5.287-9.158-8.359-12.604l-0.704-0.775
			c-2.896-3.269-6.173-6.961-10.203-9.33c-2.849-1.669-5.877-2.413-9.089-3.199c-1.117-0.268-2.133-0.532-3.146-0.794
			c-1.084-0.312-2.154-0.634-3.231-0.978c-2.806-0.902-5.978-1.924-8.913-1.924c-2.885,0-5.298,0.963-7.63,1.894
			c-0.886,0.349-1.767,0.672-2.64,0.978c-0.906,0.278-1.783,0.543-2.652,0.785c-2.424,0.695-4.672,1.341-6.362,2.566l-71.021,51.524
			l0.029,0.039c-0.003,0.001-0.006,0.003-0.009,0.004L29.057,108.35z"/>
	</g>
	<g>
		<g>
			<path fill="#E7A64B" d="M83.45,118.562c3.158,3.543,7.085,7.945,8.622,13.066c1.488,4.966,0.351,8.686-0.952,12.071
				c-1.199,3.101-2.542,6.641-5.837,8.562c-1.853,1.102-4.238,1.381-6.772,1.682c-1.131,0.121-2.289,0.263-3.426,0.479
				c-1.089,0.2-2.158,0.521-3.3,0.884c-2.101,0.618-4.27,1.279-6.809,1.279c-2.568,0-5.236-0.661-7.798-1.302
				c-1.419-0.341-2.756-0.679-4.059-0.901c-1.334-0.219-2.645-0.357-3.913-0.479c-2.782-0.303-5.387-0.581-8.003-1.643
				c-4.543-1.841-8.257-5.262-11.529-8.263c-3.549-3.265-7.388-7.104-8.964-12.37c-1.536-5.121-0.254-9.523,0.798-13.066
				l0.225-0.775c0.96-3.348,2.066-7.107,4.763-9.571c1.97-1.78,4.666-2.54,7.519-3.358c0.855-0.243,1.713-0.482,2.559-0.764
				c0.867-0.277,1.728-0.619,2.588-0.96c2.462-0.979,5.01-1.962,8.108-1.962c3.076,0,6.213,0.983,9.263,1.962
				c1.066,0.341,2.132,0.683,3.164,0.96c1.012,0.281,2.018,0.521,3.019,0.764c3.343,0.818,6.496,1.578,9.557,3.383
				c4.164,2.438,7.533,6.224,10.489,9.547L83.45,118.562z M89.247,142.299c1.22-3.204,2.215-6.425,0.942-10.669
				c-1.229-4.101-4.307-7.764-7.895-11.785l-0.692-0.78c-2.95-3.301-5.988-6.722-9.745-8.924c-2.71-1.601-5.723-2.342-8.895-3.103
				c-1.023-0.259-2.044-0.501-3.081-0.802c-1.066-0.278-2.149-0.619-3.255-0.981c-2.899-0.921-5.9-1.86-8.693-1.86
				c-2.807,0-5.25,0.939-7.593,1.86c-0.892,0.362-1.77,0.703-2.667,0.981c-0.858,0.3-1.733,0.543-2.603,0.802
				c-2.713,0.761-5.267,1.502-7.037,3.103c-2.437,2.202-3.429,5.604-4.383,8.9l-0.234,0.804c-1.18,4.021-2.061,7.685-0.832,11.785
				c1.331,4.443,4.646,7.769,7.938,10.788c3.149,2.9,6.655,6.125,10.754,7.781c2.312,0.943,4.808,1.203,7.43,1.482
				c1.328,0.143,2.656,0.283,4.021,0.5c1.377,0.242,2.822,0.603,4.207,0.94c2.465,0.599,5.008,1.239,7.376,1.239
				c2.32,0,4.392-0.642,6.393-1.239c1.169-0.339,2.283-0.679,3.438-0.899c1.166-0.221,2.36-0.361,3.52-0.503
				c2.383-0.278,4.64-0.534,6.279-1.499C86.858,148.5,88.118,145.2,89.247,142.299"/>
		</g>
	</g>
	<g>
		<g>
			<path fill="#F5CE7A" d="M47.934,103.395c2.793,0,5.797,0.939,8.693,1.86c1.105,0.362,2.189,0.703,3.255,0.981
				c1.037,0.3,2.058,0.543,3.081,0.802c3.172,0.761,6.185,1.502,8.895,3.103c3.757,2.202,6.795,5.623,9.748,8.924l0.69,0.78
				c3.588,4.021,6.667,7.686,7.896,11.785c1.271,4.244,0.275,7.465-0.943,10.669c-1.129,2.901-2.389,6.201-5.307,7.924
				c-1.639,0.963-3.896,1.219-6.279,1.498c-1.16,0.141-2.354,0.282-3.52,0.502c-1.154,0.223-2.269,0.562-3.438,0.9
				c-2,0.6-4.073,1.24-6.393,1.24c-2.369,0-4.911-0.643-7.374-1.24c-1.388-0.339-2.833-0.698-4.21-0.939
				c-1.365-0.218-2.693-0.358-4.021-0.502c-2.622-0.279-5.119-0.539-7.43-1.481c-4.099-1.656-7.602-4.88-10.754-7.781
				c-3.292-3.021-6.606-6.345-7.938-10.788c-1.229-4.102-0.348-7.764,0.832-11.785l0.234-0.804c0.955-3.298,1.946-6.698,4.383-8.901
				c1.77-1.6,4.324-2.341,7.037-3.102c0.87-0.26,1.745-0.501,2.603-0.801c0.897-0.279,1.775-0.62,2.667-0.982
				C42.684,104.334,45.126,103.395,47.934,103.395z"/>
		</g>
	</g>
	<g>
		<path fill="#A4673A" d="M75.951,131.318c-0.527-1.758-1.776-3.276-2.882-4.596c-0.45-0.543-0.9-1.084-1.285-1.646
			c-0.408-0.56-0.77-1.2-1.146-1.843c-0.815-1.418-1.747-2.998-3.138-4.2c-1.157-0.979-2.451-1.459-3.705-1.921
			c-0.784-0.299-1.522-0.559-2.231-0.961c-0.61-0.34-1.292-0.86-1.984-1.422c-1.112-0.879-2.369-1.858-3.705-2.32
			c-0.647-0.239-1.38-0.316-2.155-0.316c-0.408,0-0.827,0.021-1.257,0.055c-0.408,0.022-0.818,0.052-1.226,0.052
			c-0.328,0-0.659-0.015-0.995-0.068c-0.661-0.118-1.411-0.422-2.226-0.761c-1.191-0.479-2.426-0.982-3.625-0.982
			c-1.217,0-2.149,0.504-3.056,0.982c-0.607,0.339-1.177,0.643-1.767,0.761c-0.305,0.056-0.624,0.068-0.952,0.068
			c-0.411,0-0.835-0.028-1.257-0.052c-0.447-0.033-0.883-0.055-1.288-0.055c-0.772,0-1.451,0.077-1.967,0.316
			c-1.063,0.462-1.733,1.441-2.297,2.32c-0.374,0.562-0.724,1.082-1.146,1.422c-0.456,0.402-1.055,0.662-1.659,0.961
			c-0.98,0.462-1.975,0.921-2.537,1.921c-0.69,1.202-0.673,2.782-0.636,4.2c0.006,0.643,0.029,1.283-0.04,1.843
			c-0.06,0.541-0.182,1.083-0.311,1.618c-0.305,1.346-0.65,2.845-0.12,4.623c0.536,1.783,1.781,3.283,2.893,4.625
			c0.45,0.539,0.897,1.08,1.28,1.623c0.41,0.58,0.767,1.201,1.143,1.841c0.818,1.42,1.753,3.021,3.141,4.2
			c1.177,1.004,2.448,1.463,3.702,1.922c0.784,0.303,1.545,0.582,2.235,0.964c0.624,0.339,1.294,0.881,2,1.416
			c1.089,0.881,2.349,1.86,3.694,2.343c0.67,0.229,1.417,0.303,2.218,0.303c0.385,0,0.787-0.018,1.191-0.043
			c0.399-0.033,0.801-0.062,1.208-0.062c0.333,0,0.676,0.021,1.015,0.085c0.655,0.1,1.411,0.416,2.217,0.74
			c1.191,0.479,2.422,0.979,3.643,0.979c1.2,0,2.132-0.498,3.038-0.979c0.616-0.324,1.18-0.642,1.773-0.74
			c0.308-0.064,0.636-0.085,0.969-0.085c0.405,0,0.824,0.028,1.24,0.062c0.424,0.025,0.832,0.043,1.22,0.043
			c0.795,0,1.502-0.074,2.035-0.303c1.057-0.48,1.727-1.462,2.3-2.322c0.374-0.556,0.721-1.076,1.14-1.437
			c0.462-0.382,1.038-0.661,1.656-0.964c0.986-0.438,1.975-0.918,2.542-1.9c0.69-1.199,0.667-2.802,0.63-4.222
			c-0.005-0.64-0.022-1.261,0.043-1.841c0.057-0.543,0.18-1.084,0.308-1.623C76.145,134.604,76.487,133.104,75.951,131.318z
			 M66.659,120.637c-0.752-0.66-1.775-1.02-2.841-1.422C64.884,119.617,65.904,119.977,66.659,120.637z M42.638,113.449
			c-0.656,0.363-1.34,0.724-2.124,0.884C41.296,114.173,41.982,113.812,42.638,113.449z M30.257,119.215
			c-0.849,0.383-1.647,0.762-2.009,1.422C28.609,119.977,29.408,119.598,30.257,119.215z M50.707,148.332
			c0.872,0.141,1.778,0.521,2.659,0.861C52.485,148.854,51.576,148.473,50.707,148.332z"/>
	</g>
	<g>
		<path fill="#A4673A" d="M80.859,128.868c-0.527-1.761-1.778-3.28-2.881-4.601c-0.45-0.541-0.904-1.082-1.289-1.642
			c-0.407-0.56-0.77-1.203-1.146-1.842c-0.812-1.419-1.745-3.004-3.138-4.201c-1.154-0.985-2.451-1.465-3.702-1.924
			c-0.784-0.3-1.522-0.562-2.235-0.96c-0.607-0.344-1.288-0.861-1.983-1.42c-1.109-0.881-2.366-1.864-3.703-2.322
			c-0.647-0.237-1.382-0.316-2.155-0.316c-0.41,0-0.829,0.022-1.257,0.058c-0.408,0.021-0.818,0.052-1.229,0.052
			c-0.325,0-0.655-0.018-0.995-0.074c-0.661-0.119-1.411-0.417-2.226-0.757c-1.188-0.479-2.422-0.983-3.623-0.983
			c-1.217,0-2.149,0.504-3.055,0.983c-0.61,0.341-1.177,0.638-1.77,0.757c-0.302,0.057-0.621,0.074-0.949,0.074
			c-0.413,0-0.838-0.029-1.26-0.052c-0.447-0.034-0.881-0.058-1.288-0.058c-0.772,0-1.448,0.079-1.964,0.316
			c-1.062,0.458-1.736,1.441-2.297,2.322c-0.373,0.559-0.727,1.076-1.148,1.42c-0.456,0.398-1.055,0.66-1.659,0.96
			c-0.978,0.459-1.973,0.921-2.537,1.924c-0.687,1.196-0.67,2.782-0.636,4.201c0.006,0.639,0.028,1.282-0.04,1.842
			c-0.057,0.541-0.182,1.077-0.308,1.618c-0.308,1.343-0.653,2.845-0.12,4.623c0.533,1.777,1.778,3.283,2.89,4.623
			c0.451,0.542,0.901,1.083,1.283,1.625c0.411,0.578,0.764,1.197,1.143,1.838c0.818,1.423,1.75,3.021,3.138,4.204
			c1.18,1.001,2.448,1.46,3.705,1.921c0.784,0.297,1.542,0.579,2.231,0.958c0.627,0.342,1.297,0.884,2.001,1.419
			c1.092,0.884,2.352,1.863,3.694,2.344c0.673,0.229,1.419,0.303,2.22,0.303c0.385,0,0.784-0.019,1.188-0.043
			c0.402-0.031,0.801-0.065,1.208-0.065c0.336,0,0.676,0.022,1.018,0.086c0.656,0.103,1.411,0.421,2.215,0.739
			c1.194,0.479,2.425,0.98,3.645,0.98c1.2,0,2.132-0.501,3.039-0.98c0.616-0.318,1.177-0.637,1.772-0.739
			c0.308-0.063,0.633-0.086,0.969-0.086c0.405,0,0.821,0.034,1.24,0.065c0.422,0.024,0.83,0.043,1.217,0.043
			c0.798,0,1.505-0.074,2.038-0.303c1.058-0.479,1.725-1.46,2.297-2.32c0.374-0.559,0.724-1.082,1.14-1.441
			c0.464-0.379,1.038-0.661,1.659-0.958c0.983-0.44,1.975-0.92,2.542-1.903c0.689-1.199,0.664-2.799,0.63-4.222
			c-0.009-0.642-0.023-1.261,0.04-1.838c0.057-0.542,0.182-1.083,0.311-1.625C81.05,132.152,81.392,130.646,80.859,128.868z
			 M71.567,118.184c-0.755-0.658-1.778-1.021-2.844-1.423C69.789,117.163,70.809,117.521,71.567,118.184z M47.543,110.998
			c-0.653,0.361-1.34,0.721-2.124,0.884C46.201,111.719,46.891,111.359,47.543,110.998z M35.165,116.761
			c-0.852,0.382-1.647,0.765-2.009,1.423C33.518,117.521,34.313,117.143,35.165,116.761z M55.612,145.878
			c0.872,0.14,1.781,0.521,2.659,0.861C57.394,146.396,56.484,146.018,55.612,145.878z"/>
	</g>
	<g>
		<g opacity="0.1">
			<path d="M80.859,128.868c-0.527-1.761-1.778-3.28-2.881-4.601c-0.45-0.541-0.904-1.082-1.289-1.642
				c-0.407-0.56-0.77-1.203-1.146-1.842c-0.812-1.419-1.745-3.004-3.138-4.201c-1.154-0.985-2.451-1.465-3.702-1.924
				c-0.784-0.3-1.522-0.562-2.235-0.96c-0.607-0.344-1.288-0.861-1.983-1.42c-1.109-0.881-2.366-1.864-3.703-2.322
				c-0.647-0.237-1.382-0.316-2.155-0.316c-0.41,0-0.829,0.022-1.257,0.058c-0.408,0.021-0.818,0.052-1.229,0.052
				c-0.325,0-0.655-0.018-0.995-0.074c-0.661-0.119-1.411-0.417-2.226-0.757c-1.188-0.479-2.422-0.983-3.623-0.983
				c-1.217,0-2.149,0.504-3.055,0.983c-0.61,0.341-1.177,0.638-1.77,0.757c-0.302,0.057-0.621,0.074-0.949,0.074
				c-0.413,0-0.838-0.029-1.26-0.052c-0.447-0.034-0.881-0.058-1.288-0.058c-0.772,0-1.448,0.079-1.964,0.316
				c-1.003,0.436-1.653,1.331-2.195,2.169c0.183,0.008,0.351,0.008,0.542,0.022c0.422,0.021,0.847,0.051,1.257,0.051
				c0.328,0,0.647-0.014,0.952-0.068c0.59-0.119,1.16-0.422,1.767-0.761c0.907-0.479,1.838-0.983,3.056-0.983
				c0.975,0,1.969,0.338,2.947,0.717c0.066-0.037,0.14-0.071,0.206-0.105c-0.066,0.034-0.14,0.068-0.206,0.105
				c0.225,0.088,0.453,0.177,0.679,0.268c0.815,0.339,1.564,0.643,2.226,0.761c0.336,0.056,0.667,0.068,0.995,0.068
				c0.407,0,0.818-0.028,1.226-0.052c0.43-0.033,0.849-0.055,1.257-0.055c0.775,0,1.508,0.077,2.155,0.316
				c1.336,0.462,2.593,1.441,3.705,2.32c0.692,0.562,1.374,1.082,1.984,1.422c0.709,0.402,1.448,0.662,2.231,0.961
				c1.254,0.462,2.548,0.939,3.705,1.921c1.391,1.202,2.323,2.782,3.138,4.2c0.376,0.643,0.738,1.283,1.146,1.843
				c0.385,0.562,0.835,1.103,1.285,1.646c1.106,1.318,2.354,2.838,2.882,4.596c0.536,1.785,0.193,3.285-0.117,4.627
				c-0.128,0.539-0.25,1.08-0.308,1.621c-0.065,0.582-0.048,1.203-0.043,1.842c0.037,1.42,0.06,3.021-0.63,4.222
				c-0.567,0.983-1.556,1.462-2.542,1.899c-0.619,0.304-1.194,0.582-1.656,0.965c-0.419,0.359-0.767,0.881-1.14,1.438
				c-0.031,0.051-0.068,0.1-0.103,0.147c0.225,0.011,0.462,0.022,0.673,0.022c0.798,0,1.505-0.074,2.038-0.303
				c1.058-0.479,1.725-1.46,2.297-2.32c0.374-0.559,0.724-1.082,1.14-1.441c0.464-0.379,1.038-0.661,1.659-0.958
				c0.983-0.44,1.975-0.92,2.542-1.903c0.689-1.199,0.664-2.799,0.63-4.222c-0.009-0.642-0.023-1.261,0.04-1.838
				c0.057-0.542,0.182-1.083,0.311-1.625C81.05,132.152,81.392,130.646,80.859,128.868z"/>
		</g>
	</g>
	<g>
		<g>
			<path fill="#E7A64B" d="M69.028,87.374c0.562,0.021,0.998,0.163,1.226,0.163c0.328,0,0.639-0.083,1.095-0.104l0.157,0.021
				c0.604,0.042,1.063,0.222,1.265,0.222h0.103c0.026,0.004,0.057,0.004,0.086,0.004c0.179,0,0.41-0.045,0.715-0.045L74,87.655
				c0.619,0.079,1.075,0.302,1.283,0.321h0.253h0.439c0.154,0,0.336,0,0.553,0.039c1.781,0.299,3.54,0.861,5.182,1.321
				c1.718,0.481,3.466,0.942,5.216,1.66c1.847,0.741,3.574,1.702,5.208,2.581c1.718,0.941,3.466,1.861,5.142,3.042
				c1.775,1.241,3.353,2.662,4.843,4.022c1.56,1.422,3.118,2.902,4.51,4.603c0.424,0.521,0.495,1.202,0.149,1.522
				c-0.118,0.109-0.272,0.166-0.44,0.166c-0.312,0-0.676-0.188-0.955-0.524c-1.196-1.462-2.646-2.845-4.179-4.244
				c-1.471-1.341-2.946-2.662-4.512-3.765c-1.493-1.039-3.152-1.94-4.865-2.857c-1.655-0.9-3.297-1.803-4.953-2.48
				c-1.582-0.644-3.255-1.084-4.991-1.582c-1.685-0.482-3.357-0.982-4.982-1.264l-0.257-0.019h-0.439c-0.137,0-0.305,0-0.481-0.021
				c-0.622-0.1-1.055-0.302-1.24-0.302l-0.14-0.019c-0.188,0-0.448,0.041-0.795,0.061l-0.242-0.02
				c-0.613-0.061-1.038-0.239-1.24-0.239c-0.254,0-0.579,0.098-1.086,0.098c-0.616-0.019-1.035-0.159-1.249-0.159
				c-0.562,0-1.131-0.5-1.311-1.101C68.233,87.876,68.503,87.374,69.028,87.374z"/>
		</g>
	</g>
	<g>
		<g>
			<path fill="#E7A64B" d="M84.048,76.917c0.562,0.019,0.998,0.163,1.226,0.163c0.325,0,0.638-0.084,1.092-0.104l0.159,0.02
				c0.604,0.044,1.063,0.224,1.266,0.224h0.103c0.026,0.001,0.057,0.001,0.085,0.001c0.18,0,0.411-0.043,0.715-0.043l0.325,0.02
				c0.62,0.08,1.075,0.302,1.283,0.322h0.255h0.438c0.15,0,0.336,0,0.553,0.037c1.781,0.299,3.54,0.862,5.182,1.323
				c1.72,0.481,3.463,0.94,5.217,1.66c1.847,0.74,3.574,1.7,5.207,2.58c1.719,0.942,3.466,1.862,5.14,3.044
				c1.774,1.24,3.353,2.661,4.842,4.021c1.562,1.42,3.121,2.9,4.511,4.603c0.426,0.521,0.494,1.2,0.149,1.521
				c-0.119,0.111-0.272,0.166-0.438,0.166c-0.312,0-0.676-0.187-0.955-0.524c-1.196-1.46-2.645-2.843-4.178-4.242
				c-1.472-1.342-2.949-2.662-4.513-3.765c-1.493-1.041-3.151-1.94-4.865-2.858c-1.657-0.899-3.3-1.804-4.952-2.481
				c-1.582-0.642-3.256-1.084-4.992-1.582c-1.685-0.48-3.356-0.982-4.98-1.262l-0.26-0.02h-0.439c-0.136,0-0.304,0-0.482-0.02
				c-0.618-0.102-1.053-0.302-1.236-0.302L89.359,79.4c-0.186,0-0.445,0.039-0.792,0.06l-0.242-0.021
				c-0.613-0.06-1.041-0.239-1.24-0.239c-0.253,0-0.581,0.099-1.085,0.099c-0.616-0.02-1.035-0.16-1.249-0.16
				c-0.562,0-1.134-0.498-1.314-1.1C83.253,77.417,83.524,76.917,84.048,76.917z"/>
		</g>
	</g>
	<g>
		<path fill="#E7A64B" d="M99.995,64.497c0.562,0.02,0.997,0.164,1.226,0.164c0.325,0,0.639-0.084,1.092-0.104l0.16,0.02
			c0.604,0.042,1.062,0.222,1.266,0.222h0.103c0.025,0.003,0.058,0.003,0.086,0.003c0.179,0,0.41-0.044,0.716-0.044l0.324,0.02
			c0.618,0.079,1.074,0.302,1.282,0.321h0.254h0.438c0.15,0,0.336,0,0.554,0.039c1.78,0.299,3.54,0.862,5.182,1.322
			c1.72,0.482,3.464,0.942,5.216,1.66c1.848,0.741,3.574,1.702,5.207,2.581c1.719,0.941,3.467,1.861,5.143,3.042
			c1.771,1.241,3.352,2.662,4.84,4.022c1.562,1.422,3.121,2.902,4.509,4.603c0.429,0.521,0.496,1.202,0.151,1.522
			c-0.12,0.109-0.271,0.166-0.439,0.166c-0.312,0-0.676-0.188-0.955-0.524c-1.195-1.462-2.645-2.845-4.178-4.244
			c-1.471-1.341-2.949-2.661-4.512-3.763c-1.494-1.041-3.152-1.941-4.865-2.859c-1.659-0.9-3.301-1.805-4.954-2.48
			c-1.582-0.644-3.255-1.084-4.989-1.583c-1.686-0.482-3.357-0.982-4.982-1.263l-0.26-0.019h-0.438c-0.134,0-0.302,0-0.479-0.02
			c-0.621-0.1-1.055-0.302-1.239-0.302l-0.144-0.018c-0.185,0-0.443,0.041-0.791,0.06l-0.242-0.019
			c-0.613-0.06-1.041-0.241-1.24-0.241c-0.254,0-0.581,0.098-1.086,0.098c-0.615-0.019-1.034-0.16-1.248-0.16
			c-0.562,0-1.135-0.499-1.314-1.1C99.2,64.999,99.471,64.497,99.995,64.497z"/>
	</g>
</g>
</svg>
