<?xml version="1.0" encoding="utf-8"?>
<!-- Generator: Adobe Illustrator 16.0.0, SVG Export Plug-In . SVG Version: 6.00 Build 0)  -->
<!DOCTYPE svg PUBLIC "-//W3C//DTD SVG 1.1//EN" "http://www.w3.org/Graphics/SVG/1.1/DTD/svg11.dtd">
<svg version="1.1" id="Layer_1" xmlns="http://www.w3.org/2000/svg" xmlns:xlink="http://www.w3.org/1999/xlink" x="0px" y="0px"
	 width="136.79px" height="139px" viewBox="21.605 0 136.79 139" enable-background="new 21.605 0 136.79 139" xml:space="preserve"
	>
<g>
	<circle fill="#B5DDF5" cx="90" cy="69.383" r="67.154"/>
</g>
<g>
	<g>
		<defs>
			<circle id="SVGID_1_" cx="90" cy="69.383" r="67.155"/>
		</defs>
		<clipPath id="SVGID_2_">
			<use xlink:href="#SVGID_1_"  overflow="visible"/>
		</clipPath>
		<g clip-path="url(#SVGID_2_)">
			<g>
				<g>
					<path fill="#404344" d="M63.591,59.384c-0.183,0-0.332-0.148-0.332-0.332V47.768c0-0.184,0.149-0.332,0.332-0.332h33.188
						c0.186,0,0.332,0.148,0.332,0.332v11.285c0,0.184-0.146,0.332-0.332,0.332L63.591,59.384L63.591,59.384z"/>
				</g>
				<g>
					<path fill="#637070" d="M96.779,47.768v11.285H63.591V47.768H96.779 M96.779,47.104H63.591c-0.366,0-0.663,0.298-0.663,0.664
						v11.285c0,0.366,0.297,0.663,0.663,0.663h33.188c0.367,0,0.666-0.297,0.666-0.663V47.768
						C97.445,47.402,97.146,47.104,96.779,47.104L96.779,47.104z"/>
				</g>
			</g>
			<g>
				<polygon fill="#F16951" points="162.462,65.118 164.502,65.118 156.037,62.875 130.137,46.762 115.35,46.762 111.576,46.762 
					96.79,46.762 70.89,62.875 62.426,65.118 76.498,65.118 76.498,128.037 77.619,128.037 77.619,134.971 163.838,134.971 
					163.838,128.037 162.462,128.037 				"/>
				<path fill="#637070" d="M163.838,135.591H77.619c-0.343,0-0.62-0.276-0.62-0.62v-6.312h-0.501c-0.343,0-0.62-0.277-0.62-0.62
					v-62.3H62.426c-0.312,0-0.574-0.231-0.615-0.54c-0.04-0.309,0.155-0.6,0.457-0.68l8.375-2.22l25.821-16.063
					c0.099-0.061,0.211-0.094,0.327-0.094h33.348c0.116,0,0.229,0.033,0.326,0.094l25.822,16.063l8.312,2.204
					c0.309,0.035,0.547,0.297,0.547,0.616c0,0.343-0.276,0.62-0.619,0.62c-0.006,0.001-0.014,0-0.023,0h-1.42v61.679h0.756
					c0.344,0,0.62,0.276,0.62,0.62v6.934C164.458,135.312,164.182,135.591,163.838,135.591z M78.239,134.352h84.979v-5.693h-0.756
					c-0.343,0-0.62-0.277-0.62-0.62v-62.92c0-0.021,0.001-0.042,0.004-0.062l-5.967-1.581c-0.061-0.016-0.115-0.041-0.168-0.073
					l-25.751-16.02H96.967l-25.75,16.019c-0.052,0.033-0.109,0.058-0.168,0.073l-3.863,1.023h9.312c0.343,0,0.62,0.277,0.62,0.62
					v62.299h0.501c0.343,0,0.62,0.277,0.62,0.62V134.352z"/>
			</g>
			<g>
				<g>
					<rect x="77.698" y="67.773" fill="#DE5342" width="2.17" height="1.837"/>
				</g>
				<g>
					<rect x="81.144" y="67.773" fill="#DE5342" width="5.274" height="1.837"/>
				</g>
				<g>
					<rect x="77.698" y="70.527" fill="#DE5342" width="5.274" height="1.84"/>
				</g>
				<g>
					<rect x="84.247" y="70.527" fill="#DE5342" width="5.272" height="1.84"/>
				</g>
				<g>
					<rect x="77.698" y="73.286" fill="#DE5342" width="2.17" height="1.838"/>
				</g>
				<g>
					<rect x="81.144" y="73.286" fill="#DE5342" width="5.274" height="1.838"/>
				</g>
				<g>
					<rect x="77.698" y="76.043" fill="#DE5342" width="5.274" height="1.838"/>
				</g>
			</g>
			<g>
				<g>
					<g>
						<path fill="#B5DDF5" d="M82.202,85.887V72.04c0-0.922,0.674-1.688,1.554-1.836c0.146-0.879,0.915-1.552,1.835-1.552
							c0.922,0,1.688,0.672,1.835,1.552c0.883,0.147,1.554,0.913,1.554,1.836v13.847H82.202z"/>
					</g>
					<g>
						<g>
							<path fill="#637070" d="M85.591,68.983c0.843,0,1.527,0.685,1.527,1.529c0.845,0,1.53,0.686,1.53,1.528v13.515h-6.114V72.04
								c0-0.845,0.683-1.528,1.528-1.528C84.062,69.667,84.747,68.983,85.591,68.983 M85.591,68.321
								c-1.008,0-1.858,0.681-2.112,1.607c-0.928,0.256-1.608,1.104-1.608,2.112v13.515v0.666h0.664h6.114h0.664v-0.666V72.04
								c0-1.008-0.682-1.856-1.608-2.112C87.448,69.001,86.598,68.321,85.591,68.321L85.591,68.321z"/>
						</g>
					</g>
				</g>
				<g>
					<g>
						<path fill="#B5DDF5" d="M93.389,85.887V72.04c0-0.923,0.676-1.688,1.557-1.836c0.146-0.879,0.914-1.552,1.836-1.552
							s1.689,0.672,1.835,1.552c0.881,0.147,1.556,0.914,1.556,1.836v13.847H93.389z"/>
					</g>
					<g>
						<g>
							<path fill="#637070" d="M96.779,68.983c0.846,0,1.529,0.685,1.529,1.529c0.844,0,1.528,0.686,1.528,1.528v13.515h-6.112
								V72.04c0-0.845,0.682-1.528,1.525-1.528C95.251,69.667,95.938,68.983,96.779,68.983 M96.779,68.321
								c-1.006,0-1.855,0.681-2.113,1.607c-0.925,0.256-1.607,1.104-1.607,2.112v13.515v0.666h0.666h6.113h0.663v-0.666V72.04
								c0-1.008-0.683-1.856-1.606-2.112C98.637,69.001,97.787,68.321,96.779,68.321L96.779,68.321z"/>
						</g>
					</g>
				</g>
				<g>
					<g>
						<path fill="#B5DDF5" d="M138.527,85.887V72.04c0-0.922,0.673-1.688,1.554-1.836c0.146-0.879,0.913-1.552,1.835-1.552
							s1.691,0.672,1.836,1.552c0.881,0.147,1.557,0.913,1.557,1.836v13.847H138.527z"/>
					</g>
					<g>
						<g>
							<path fill="#637070" d="M141.916,68.983c0.846,0,1.529,0.685,1.529,1.529c0.846,0,1.527,0.686,1.527,1.528v13.515h-6.113
								V72.04c0-0.845,0.686-1.528,1.527-1.528C140.389,69.667,141.074,68.983,141.916,68.983 M141.916,68.321
								c-1.005,0-1.855,0.681-2.113,1.607c-0.924,0.256-1.605,1.104-1.605,2.112v13.515v0.666h0.662h6.115h0.666v-0.666V72.04
								c0-1.008-0.684-1.856-1.608-2.112C143.771,69.001,142.923,68.321,141.916,68.321L141.916,68.321z"/>
						</g>
					</g>
				</g>
				<g>
					<g>
						<path fill="#B5DDF5" d="M149.717,85.887V72.04c0-0.923,0.674-1.688,1.555-1.836c0.146-0.879,0.914-1.552,1.836-1.552
							s1.688,0.672,1.834,1.552c0.879,0.147,1.555,0.914,1.555,1.836v13.847H149.717z"/>
					</g>
					<g>
						<g>
							<path fill="#637070" d="M153.105,68.983c0.847,0,1.527,0.685,1.527,1.529c0.846,0,1.53,0.686,1.53,1.528v13.515h-6.116V72.04
								c0-0.845,0.686-1.528,1.53-1.528C151.578,69.667,152.264,68.983,153.105,68.983 M153.105,68.321
								c-1.008,0-1.854,0.681-2.112,1.607c-0.925,0.256-1.608,1.104-1.608,2.112v13.515v0.666h0.663h6.116h0.663v-0.666V72.04
								c0-1.008-0.683-1.856-1.608-2.112C154.963,69.001,154.113,68.321,153.105,68.321L153.105,68.321z"/>
						</g>
					</g>
				</g>
			</g>
			<g>
				<g>
					<rect x="157.527" y="87.969" fill="#DE5342" width="4.589" height="1.838"/>
				</g>
				<g>
					<rect x="154.083" y="90.727" fill="#DE5342" width="5.272" height="1.838"/>
				</g>
				<g>
					<rect x="160.631" y="90.727" fill="#DE5342" width="1.485" height="1.838"/>
				</g>
				<g>
					<rect x="150.979" y="93.482" fill="#DE5342" width="5.274" height="1.838"/>
				</g>
				<g>
					<rect x="157.527" y="93.482" fill="#DE5342" width="4.589" height="1.838"/>
				</g>
				<g>
					<rect x="154.083" y="96.24" fill="#DE5342" width="5.272" height="1.84"/>
				</g>
				<g>
					<rect x="160.631" y="96.24" fill="#DE5342" width="1.485" height="1.84"/>
				</g>
				<g>
					<rect x="157.527" y="98.998" fill="#DE5342" width="4.589" height="1.839"/>
				</g>
				<g>
					<rect x="160.631" y="101.755" fill="#DE5342" width="1.485" height="1.839"/>
				</g>
			</g>
			<g>
				<g>
					<path fill="#404344" d="M62.426,65.45c-0.167,0-0.308-0.124-0.33-0.29c-0.021-0.165,0.083-0.319,0.245-0.363l8.417-2.23
						l25.855-16.086c0.055-0.033,0.115-0.05,0.177-0.05h33.347c0.062,0,0.123,0.017,0.176,0.05l25.858,16.086l8.415,2.23
						c0.163,0.044,0.266,0.198,0.245,0.363c-0.022,0.166-0.163,0.29-0.329,0.29H62.426z"/>
				</g>
				<g>
					<path fill="#637070" d="M130.137,46.762l25.9,16.113l8.465,2.243h-2.04H76.498H62.426l8.464-2.243l25.9-16.113h14.786h3.771
						L130.137,46.762 M130.137,46.1H115.35h-3.772H96.79c-0.122,0-0.244,0.034-0.353,0.1L70.623,62.257l-8.367,2.219
						c-0.324,0.085-0.532,0.397-0.488,0.728c0.041,0.331,0.325,0.578,0.658,0.578h14.072h85.964h2.04
						c0.334,0,0.615-0.247,0.658-0.578c0.041-0.331-0.166-0.643-0.49-0.728l-8.367-2.219l-25.816-16.058
						C130.382,46.134,130.26,46.1,130.137,46.1L130.137,46.1z"/>
				</g>
			</g>
			<g>
				<g>
					<path fill="#EDEADC" d="M77.034,108.391c-0.184,0-0.332-0.146-0.332-0.33v-0.994c0-0.186,0.148-0.334,0.332-0.334h86.124
						c0.185,0,0.332,0.148,0.332,0.334v0.994c0,0.185-0.147,0.33-0.332,0.33H77.034z"/>
				</g>
				<g>
					<path fill="#637070" d="M163.158,107.066v0.994H77.034v-0.994H163.158 M163.158,106.4H77.034c-0.367,0-0.664,0.299-0.664,0.666
						v0.994c0,0.366,0.297,0.664,0.664,0.664h86.124c0.365,0,0.664-0.298,0.664-0.664v-0.994
						C163.822,106.699,163.523,106.4,163.158,106.4L163.158,106.4z"/>
				</g>
			</g>
			<g>
				<g>
					<path fill="#EDEADC" d="M77.034,99.1c-0.184,0-0.332-0.146-0.332-0.332v-0.994c0-0.184,0.148-0.332,0.332-0.332h86.124
						c0.185,0,0.332,0.148,0.332,0.332v0.994c0,0.186-0.147,0.332-0.332,0.332H77.034z"/>
				</g>
				<g>
					<path fill="#637070" d="M163.158,97.773v0.994H77.034v-0.994H163.158 M163.158,97.107H77.034c-0.367,0-0.664,0.299-0.664,0.666
						v0.994c0,0.366,0.297,0.664,0.664,0.664h86.124c0.365,0,0.664-0.298,0.664-0.664v-0.994
						C163.822,97.406,163.523,97.107,163.158,97.107L163.158,97.107z"/>
				</g>
			</g>
			<g>
				<g>
					<path fill="#EDEADC" d="M77.034,95.947c-0.184,0-0.332-0.148-0.332-0.333v-0.996c0-0.183,0.148-0.33,0.332-0.33h86.124
						c0.185,0,0.332,0.147,0.332,0.33v0.996c0,0.185-0.147,0.333-0.332,0.333H77.034z"/>
				</g>
				<g>
					<path fill="#637070" d="M163.158,94.618v0.996H77.034v-0.996H163.158 M163.158,93.956H77.034c-0.367,0-0.664,0.298-0.664,0.662
						v0.996c0,0.368,0.297,0.665,0.664,0.665h86.124c0.365,0,0.664-0.297,0.664-0.665v-0.996
						C163.822,94.254,163.523,93.956,163.158,93.956L163.158,93.956z"/>
				</g>
			</g>
			<g>
				<g>
					<path fill="#EDEADC" d="M77.034,122.167c-0.184,0-0.332-0.149-0.332-0.333v-1.991c0-0.183,0.148-0.332,0.332-0.332h86.124
						c0.185,0,0.332,0.149,0.332,0.332v1.991c0,0.184-0.147,0.333-0.332,0.333H77.034z"/>
				</g>
				<g>
					<path fill="#637070" d="M163.158,119.843v1.991H77.034v-1.991H163.158 M163.158,119.18H77.034
						c-0.367,0-0.664,0.297-0.664,0.663v1.991c0,0.367,0.297,0.665,0.664,0.665h86.124c0.365,0,0.664-0.298,0.664-0.665v-1.991
						C163.822,119.477,163.523,119.18,163.158,119.18L163.158,119.18z"/>
				</g>
			</g>
			<g>
				<g>
					<path fill="#EDEADC" d="M77.034,87.318c-0.184,0-0.332-0.15-0.332-0.332v-1.432c0-0.184,0.148-0.33,0.332-0.33h86.124
						c0.185,0,0.332,0.146,0.332,0.33v1.432c0,0.182-0.147,0.332-0.332,0.332H77.034z"/>
				</g>
				<g>
					<path fill="#637070" d="M163.158,85.555v1.432H77.034v-1.432H163.158 M163.158,84.893H77.034c-0.367,0-0.664,0.297-0.664,0.662
						v1.432c0,0.367,0.297,0.664,0.664,0.664h86.124c0.365,0,0.664-0.297,0.664-0.664v-1.432
						C163.822,85.189,163.523,84.893,163.158,84.893L163.158,84.893z"/>
				</g>
			</g>
			<g>
				<g>
					<path fill="#F16951" d="M105.357,94.895c-0.185,0-0.332-0.146-0.332-0.332V62.019l-2.4-2.402
						c-0.062-0.063-0.098-0.146-0.098-0.235v-4.436c0-0.182,0.147-0.332,0.332-0.332h3.66l12.611-16.18
						c0.04-0.088,0.107-0.161,0.191-0.189c0.016-0.006,0.031-0.011,0.05-0.014c0.035-0.011,0.071-0.017,0.104-0.017
						c0.035,0,0.067,0.005,0.099,0.016c0.114,0.041,0.207,0.127,0.229,0.241l12.582,16.143h3.661c0.185,0,0.331,0.15,0.331,0.332
						v4.436c0,0.088-0.033,0.172-0.095,0.235l-2.452,2.452v32.494c0,0.186-0.148,0.332-0.332,0.332H105.357L105.357,94.895z"/>
				</g>
				<g>
					<path fill="#637070" d="M119.479,38.528v0.064l12.748,16.354h3.822v4.436l-2.497,2.499h-0.051v32.682h-28.146V61.88
						l-2.498-2.499v-4.436h3.822l12.748-16.354v-0.064l0.024,0.032L119.479,38.528 M119.43,37.866c-0.07,0-0.144,0.01-0.212,0.034
						c-0.202,0.068-0.354,0.228-0.42,0.424l-12.438,15.958h-3.5c-0.367,0-0.664,0.298-0.664,0.665v4.436
						c0,0.176,0.07,0.344,0.195,0.47l2.303,2.304v32.407c0,0.365,0.299,0.664,0.664,0.664h28.146c0.367,0,0.664-0.299,0.664-0.664
						V62.208l2.353-2.355c0.127-0.126,0.195-0.294,0.195-0.47v-4.436c0-0.367-0.297-0.665-0.664-0.665h-3.496l-12.445-15.958
						c-0.062-0.192-0.211-0.351-0.41-0.421c-0.072-0.024-0.146-0.037-0.221-0.037c-0.006,0-0.017,0-0.024,0
						C119.447,37.866,119.438,37.866,119.43,37.866L119.43,37.866z"/>
				</g>
			</g>
			<g>
				<g>
					<path fill="#EDEADC" d="M110.048,87.318c-0.183,0-0.332-0.15-0.332-0.332V63.099c0-5.368,4.369-9.737,9.738-9.737
						c5.368,0,9.741,4.369,9.741,9.737v23.887c0,0.182-0.152,0.332-0.334,0.332H110.048z"/>
				</g>
				<g>
					<path fill="#637070" d="M119.454,53.694c5.196,0,9.407,4.211,9.407,9.405v23.887h-18.813V63.099
						C110.048,57.905,114.258,53.694,119.454,53.694 M119.454,53.029c-5.554,0-10.071,4.518-10.071,10.07v23.887
						c0,0.365,0.299,0.664,0.665,0.664h18.813c0.365,0,0.664-0.299,0.664-0.664V63.099
						C129.525,57.547,125.008,53.029,119.454,53.029L119.454,53.029z"/>
				</g>
			</g>
			<g>
				<g>
					<path fill="#EDEADC" d="M106.977,88.646c-0.185,0-0.332-0.148-0.332-0.332v-1.992c0-0.184,0.147-0.33,0.332-0.33h24.781
						c0.184,0,0.332,0.146,0.332,0.33v1.992c0,0.184-0.148,0.332-0.332,0.332H106.977z"/>
				</g>
				<g>
					<path fill="#637070" d="M131.758,86.32v1.994h-24.781V86.32H131.758 M131.758,85.658h-24.781c-0.367,0-0.664,0.298-0.664,0.662
						v1.994c0,0.365,0.297,0.662,0.664,0.662h24.781c0.364,0,0.664-0.297,0.664-0.662V86.32
						C132.422,85.956,132.122,85.658,131.758,85.658L131.758,85.658z"/>
				</g>
			</g>
			<g>
				<path fill="#EDEADC" d="M120.863,56.276c0-0.778-0.631-1.409-1.409-1.409s-1.409,0.631-1.409,1.409l0,0l0,0
					c-0.777,0-1.406,0.631-1.406,1.409c0,0.776,0.629,1.409,1.406,1.409l0,0l0,0c0,0.777,0.631,1.409,1.409,1.409
					s1.409-0.631,1.409-1.409l0,0l0,0c0.775,0,1.408-0.632,1.408-1.409C122.271,56.907,121.641,56.276,120.863,56.276z"/>
				<path fill="#637070" d="M119.454,61.123c-0.931,0-1.716-0.629-1.955-1.483c-0.854-0.239-1.481-1.024-1.481-1.954
					s0.629-1.715,1.481-1.955c0.239-0.854,1.024-1.483,1.955-1.483s1.717,0.628,1.955,1.483c0.854,0.239,1.481,1.025,1.481,1.955
					s-0.629,1.715-1.481,1.954C121.171,60.494,120.385,61.123,119.454,61.123z M118.045,56.896c-0.436,0-0.786,0.354-0.786,0.789
					s0.353,0.789,0.786,0.789h0.619v0.62c0,0.435,0.354,0.789,0.79,0.789s0.79-0.354,0.79-0.789v-0.62h0.619
					c0.435,0,0.787-0.354,0.787-0.789s-0.354-0.789-0.787-0.789h-0.619v-0.62c0-0.435-0.354-0.789-0.79-0.789
					s-0.79,0.354-0.79,0.789v0.62H118.045z"/>
			</g>
			<g>
				<g>
					<path fill="#404344" d="M77.034,135.227c-0.184,0-0.332-0.148-0.332-0.332v-6.937c0-0.183,0.148-0.332,0.332-0.332h87.11
						c0.184,0,0.332,0.149,0.332,0.332v6.937c0,0.184-0.148,0.332-0.332,0.332H77.034z"/>
				</g>
				<g>
					<path fill="#637070" d="M164.145,127.958v6.937H77.035v-6.937H164.145 M164.145,127.296H77.035
						c-0.365,0-0.664,0.297-0.664,0.662v6.937c0,0.367,0.299,0.664,0.664,0.664h87.109c0.367,0,0.664-0.297,0.664-0.664v-6.937
						C164.809,127.593,164.512,127.296,164.145,127.296L164.145,127.296z"/>
				</g>
			</g>
			<g>
				<g>
					<path fill="#EDEADC" d="M108.328,130.05c-0.186,0-0.332-0.149-0.332-0.332v-21.329c0-6.316,5.141-11.457,11.458-11.457
						c6.319,0,11.458,5.141,11.458,11.457v21.329c0,0.183-0.146,0.332-0.332,0.332H108.328z"/>
				</g>
				<g>
					<path fill="#637070" d="M119.454,97.264c6.135,0,11.126,4.989,11.126,11.125v21.329h-22.252v-21.329
						C108.328,102.253,113.318,97.264,119.454,97.264 M119.454,96.6c-6.5,0-11.79,5.289-11.79,11.789v21.329
						c0,0.366,0.296,0.664,0.664,0.664h22.252c0.368,0,0.664-0.298,0.664-0.664v-21.329C131.244,101.889,125.956,96.6,119.454,96.6
						L119.454,96.6z"/>
				</g>
			</g>
			<g>
				<g>
					<path fill="#BF8B77" d="M109.834,128.543c-0.184,0-0.332-0.146-0.332-0.332v-19.822c0-5.486,4.464-9.951,9.952-9.951
						c5.487,0,9.952,4.465,9.952,9.951v19.822c0,0.186-0.148,0.332-0.331,0.332H109.834z"/>
				</g>
				<g>
					<path fill="#637070" d="M119.454,98.768c5.313,0,9.621,4.31,9.621,9.621v19.822h-19.241v-19.822
						C109.834,103.076,114.141,98.768,119.454,98.768 M119.454,98.104c-5.672,0-10.284,4.614-10.284,10.285v19.821
						c0,0.368,0.297,0.664,0.664,0.664h19.241c0.368,0,0.663-0.296,0.663-0.664v-19.821
						C129.738,102.719,125.125,98.104,119.454,98.104L119.454,98.104z"/>
				</g>
			</g>
			<g>
				<rect x="118.834" y="98.768" fill="#637070" width="1.24" height="29.443"/>
			</g>
			<g>
				<circle fill="#637070" cx="121.907" cy="116.154" r="1.284"/>
			</g>
			<g>
				<circle fill="#637070" cx="117.003" cy="116.154" r="1.284"/>
			</g>
			<g>
				<g>
					<path fill="#585C5D" d="M106.977,131.759c-0.185,0-0.332-0.147-0.332-0.332v-3.469c0-0.183,0.147-0.332,0.332-0.332h24.781
						c0.184,0,0.332,0.149,0.332,0.332v3.469c0,0.185-0.148,0.332-0.332,0.332H106.977z"/>
				</g>
				<g>
					<path fill="#637070" d="M131.758,127.958v3.469h-24.781v-3.469H131.758 M131.758,127.296h-24.781
						c-0.367,0-0.664,0.297-0.664,0.662v3.469c0,0.367,0.297,0.664,0.664,0.664h24.781c0.364,0,0.664-0.297,0.664-0.664v-3.469
						C132.422,127.593,132.122,127.296,131.758,127.296L131.758,127.296z"/>
				</g>
			</g>
			<g>
				<g>
					<path fill="#585C5D" d="M105.123,135.227c-0.184,0-0.332-0.148-0.332-0.332v-3.468c0-0.184,0.148-0.331,0.332-0.331h28.486
						c0.186,0,0.332,0.147,0.332,0.331v3.468c0,0.184-0.146,0.332-0.332,0.332H105.123z"/>
				</g>
				<g>
					<path fill="#637070" d="M133.609,131.427v3.468h-28.486v-3.468H133.609 M133.609,130.764h-28.486
						c-0.367,0-0.664,0.297-0.664,0.663v3.468c0,0.367,0.297,0.664,0.664,0.664h28.486c0.367,0,0.664-0.297,0.664-0.664v-3.468
						C134.273,131.061,133.979,130.764,133.609,130.764L133.609,130.764z"/>
				</g>
			</g>
			<g>
				<g>
					<path fill="#585C5D" d="M102.855,138.693c-0.184,0-0.332-0.148-0.332-0.332v-3.469c0-0.183,0.148-0.332,0.332-0.332h33.021
						c0.186,0,0.333,0.149,0.333,0.332v3.469c0,0.184-0.147,0.332-0.333,0.332H102.855z"/>
				</g>
				<g>
					<path fill="#637070" d="M135.878,134.895v3.467h-33.022v-3.467H135.878 M135.878,134.229h-33.022
						c-0.365,0-0.662,0.299-0.662,0.664v3.469c0,0.367,0.297,0.662,0.662,0.662h33.022c0.368,0,0.664-0.295,0.664-0.662v-3.469
						C136.542,134.527,136.246,134.229,135.878,134.229L135.878,134.229z"/>
				</g>
			</g>
			<g>
				<circle fill="#DE5342" cx="119.454" cy="47.768" r="2.434"/>
				<path fill="#585C5D" d="M119.454,50.821c-1.685,0-3.054-1.37-3.054-3.054s1.369-3.053,3.054-3.053s3.054,1.37,3.054,3.053
					S121.139,50.821,119.454,50.821z M119.454,45.955c-0.999,0-1.813,0.813-1.813,1.813s0.814,1.813,1.813,1.813
					s1.813-0.813,1.813-1.813S120.453,45.955,119.454,45.955z"/>
			</g>
			<g>
				<g>
					<path fill="#F16951" d="M22.224,135.227c-0.184,0-0.332-0.148-0.332-0.332v-6.937c0-0.183,0.148-0.332,0.332-0.332h1.044
						V66.789l-1.841-2.357c-0.046-0.059-0.07-0.131-0.07-0.205v-8.362c0-0.186,0.148-0.332,0.332-0.332h4.726L50.05,23.037
						c0.062-0.086,0.163-0.137,0.269-0.137c0.105,0,0.205,0.051,0.268,0.137l23.636,32.496h4.726c0.184,0,0.332,0.146,0.332,0.332
						v8.362c0,0.074-0.025,0.146-0.071,0.205l-1.841,2.357v60.837h1.044c0.184,0,0.332,0.149,0.332,0.332v6.937
						c0,0.184-0.147,0.332-0.332,0.332H22.224z"/>
				</g>
				<g>
					<path fill="#637070" d="M50.317,23.232l23.735,32.633h4.895v8.362l-1.913,2.447v61.285h1.376v6.936H22.224v-6.936h1.375V66.673
						l-1.911-2.447v-8.362h4.895L50.317,23.232 M50.317,22.568c-0.212,0-0.412,0.103-0.537,0.275L26.245,55.201h-4.557
						c-0.367,0-0.664,0.297-0.664,0.664v8.362c0,0.148,0.049,0.291,0.14,0.408l1.772,2.266v60.395h-0.712
						c-0.367,0-0.664,0.297-0.664,0.662v6.937c0,0.367,0.297,0.664,0.664,0.664H78.41c0.368,0,0.664-0.297,0.664-0.664v-6.937
						c0-0.365-0.295-0.662-0.664-0.662h-0.712V66.901l1.772-2.266c0.091-0.117,0.141-0.26,0.141-0.408v-8.362
						c0-0.367-0.295-0.664-0.664-0.664h-4.558L50.854,22.843C50.729,22.671,50.529,22.568,50.317,22.568L50.317,22.568z"/>
				</g>
			</g>
			<g>
				<g>
					<path fill="#EDEADC" d="M20.46,63.924c-0.183,0-0.332-0.147-0.332-0.332v-1.991c0-0.184,0.149-0.331,0.332-0.331h59.713
						c0.186,0,0.333,0.146,0.333,0.331v1.991c0,0.185-0.148,0.332-0.333,0.332H20.46z"/>
				</g>
				<g>
					<path fill="#637070" d="M80.173,61.601v1.991H20.46v-1.991H80.173 M80.173,60.937H20.46c-0.367,0-0.664,0.297-0.664,0.664
						v1.991c0,0.366,0.297,0.664,0.664,0.664h59.713c0.366,0,0.665-0.298,0.665-0.664v-1.991
						C80.838,61.234,80.539,60.937,80.173,60.937L80.173,60.937z"/>
				</g>
			</g>
			<g>
				<g>
					<rect x="23.613" y="68.193" fill="#DE5342" width="1.307" height="1.839"/>
				</g>
				<g>
					<rect x="26.194" y="68.193" fill="#DE5342" width="5.274" height="1.839"/>
				</g>
				<g>
					<rect x="23.613" y="70.951" fill="#DE5342" width="4.409" height="1.839"/>
				</g>
				<g>
					<rect x="29.297" y="70.951" fill="#DE5342" width="5.273" height="1.839"/>
				</g>
				<g>
					<rect x="23.613" y="73.708" fill="#DE5342" width="1.307" height="1.839"/>
				</g>
				<g>
					<rect x="26.194" y="73.708" fill="#DE5342" width="5.274" height="1.839"/>
				</g>
				<g>
					<rect x="32.743" y="73.708" fill="#DE5342" width="5.274" height="1.839"/>
				</g>
				<g>
					<rect x="23.613" y="76.465" fill="#DE5342" width="4.409" height="1.84"/>
				</g>
				<g>
					<rect x="29.297" y="76.465" fill="#DE5342" width="5.273" height="1.84"/>
				</g>
				<g>
					<rect x="23.613" y="79.225" fill="#DE5342" width="1.307" height="1.838"/>
				</g>
				<g>
					<rect x="26.194" y="79.225" fill="#DE5342" width="5.274" height="1.838"/>
				</g>
				<g>
					<rect x="23.613" y="81.98" fill="#DE5342" width="4.409" height="1.838"/>
				</g>
				<g>
					<rect x="29.297" y="81.98" fill="#DE5342" width="5.273" height="1.838"/>
				</g>
				<g>
					<rect x="23.613" y="84.738" fill="#DE5342" width="1.307" height="1.838"/>
				</g>
				<g>
					<rect x="26.194" y="84.738" fill="#DE5342" width="5.274" height="1.838"/>
				</g>
				<g>
					<rect x="23.613" y="87.494" fill="#DE5342" width="4.409" height="1.839"/>
				</g>
			</g>
			<g>
				<g>
					<rect x="72.656" y="98.646" fill="#DE5342" width="4.378" height="1.838"/>
				</g>
				<g>
					<rect x="69.211" y="101.402" fill="#DE5342" width="5.272" height="1.84"/>
				</g>
				<g>
					<rect x="75.759" y="101.402" fill="#DE5342" width="1.275" height="1.84"/>
				</g>
				<g>
					<rect x="66.108" y="104.16" fill="#DE5342" width="5.273" height="1.839"/>
				</g>
				<g>
					<rect x="72.656" y="104.16" fill="#DE5342" width="4.378" height="1.839"/>
				</g>
				<g>
					<rect x="56.115" y="106.917" fill="#DE5342" width="5.273" height="1.839"/>
				</g>
				<g>
					<rect x="62.662" y="106.917" fill="#DE5342" width="5.274" height="1.839"/>
				</g>
				<g>
					<rect x="69.211" y="106.917" fill="#DE5342" width="5.272" height="1.839"/>
				</g>
				<g>
					<rect x="75.759" y="106.917" fill="#DE5342" width="1.275" height="1.839"/>
				</g>
				<g>
					<rect x="59.56" y="109.675" fill="#DE5342" width="5.273" height="1.839"/>
				</g>
				<g>
					<rect x="66.108" y="109.675" fill="#DE5342" width="5.273" height="1.839"/>
				</g>
				<g>
					<rect x="72.656" y="109.675" fill="#DE5342" width="4.378" height="1.839"/>
				</g>
				<g>
					<rect x="62.662" y="112.432" fill="#DE5342" width="5.274" height="1.84"/>
				</g>
				<g>
					<rect x="69.211" y="112.432" fill="#DE5342" width="5.272" height="1.84"/>
				</g>
				<g>
					<rect x="75.759" y="112.432" fill="#DE5342" width="1.275" height="1.84"/>
				</g>
				<g>
					<rect x="66.108" y="115.189" fill="#DE5342" width="5.273" height="1.838"/>
				</g>
				<g>
					<rect x="72.656" y="115.189" fill="#DE5342" width="4.378" height="1.838"/>
				</g>
				<g>
					<rect x="69.211" y="117.947" fill="#DE5342" width="5.272" height="1.838"/>
				</g>
				<g>
					<rect x="75.759" y="117.947" fill="#DE5342" width="1.275" height="1.838"/>
				</g>
			</g>
			<g>
				<g>
					<path fill="#EDEADC" d="M22.668,107.896c-0.185,0-0.333-0.148-0.333-0.332v-0.996c0-0.186,0.148-0.332,0.333-0.332H78.41
						c0.184,0,0.332,0.146,0.332,0.332v0.996c0,0.184-0.147,0.332-0.332,0.332H22.668z"/>
				</g>
				<g>
					<path fill="#637070" d="M78.41,106.566v0.996H22.668v-0.996H78.41 M78.41,105.902H22.668c-0.368,0-0.665,0.299-0.665,0.664
						v0.996c0,0.367,0.297,0.664,0.665,0.664H78.41c0.368,0,0.664-0.297,0.664-0.664v-0.996
						C79.074,106.201,78.778,105.902,78.41,105.902L78.41,105.902z"/>
				</g>
			</g>
			<g>
				<g>
					<path fill="#EDEADC" d="M22.668,98.604c-0.185,0-0.333-0.149-0.333-0.334v-0.994c0-0.184,0.148-0.33,0.333-0.33H78.41
						c0.184,0,0.332,0.146,0.332,0.33v0.994c0,0.185-0.147,0.334-0.332,0.334H22.668z"/>
				</g>
				<g>
					<path fill="#637070" d="M78.41,97.275v0.992H22.668v-0.992H78.41 M78.41,96.609H22.668c-0.368,0-0.665,0.3-0.665,0.666v0.992
						c0,0.368,0.297,0.668,0.665,0.668H78.41c0.368,0,0.664-0.3,0.664-0.668v-0.992C79.074,96.909,78.778,96.609,78.41,96.609
						L78.41,96.609z"/>
				</g>
			</g>
			<g>
				<g>
					<path fill="#EDEADC" d="M22.668,95.449c-0.185,0-0.333-0.147-0.333-0.331V94.12c0-0.185,0.148-0.33,0.333-0.33H78.41
						c0.184,0,0.332,0.146,0.332,0.33v0.998c0,0.184-0.147,0.331-0.332,0.331H22.668z"/>
				</g>
				<g>
					<path fill="#637070" d="M78.41,94.12v0.998H22.668V94.12H78.41 M78.41,93.458H22.668c-0.368,0-0.665,0.297-0.665,0.662v0.998
						c0,0.366,0.297,0.663,0.665,0.663H78.41c0.368,0,0.664-0.297,0.664-0.663V94.12C79.074,93.755,78.778,93.458,78.41,93.458
						L78.41,93.458z"/>
				</g>
			</g>
			<g>
				<g>
					<path fill="#EDEADC" d="M22.668,87.092c-0.185,0-0.333-0.146-0.333-0.332v-1.43c0-0.184,0.148-0.332,0.333-0.332H78.41
						c0.184,0,0.332,0.148,0.332,0.332v1.43c0,0.186-0.147,0.332-0.332,0.332H22.668z"/>
				</g>
				<g>
					<path fill="#637070" d="M78.41,85.33v1.43H22.668v-1.43H78.41 M78.41,84.667H22.668c-0.368,0-0.665,0.296-0.665,0.663v1.43
						c0,0.368,0.297,0.665,0.665,0.665H78.41c0.368,0,0.664-0.297,0.664-0.665v-1.43C79.074,84.963,78.778,84.667,78.41,84.667
						L78.41,84.667z"/>
				</g>
			</g>
			<g>
				<g>
					<path fill="#EDEADC" d="M22.668,121.752c-0.185,0-0.333-0.148-0.333-0.332v-1.992c0-0.183,0.148-0.33,0.333-0.33H78.41
						c0.184,0,0.332,0.147,0.332,0.33v1.992c0,0.184-0.147,0.332-0.332,0.332H22.668z"/>
				</g>
				<g>
					<path fill="#637070" d="M78.41,119.428v1.992H22.668v-1.992H78.41 M78.41,118.766H22.668c-0.368,0-0.665,0.295-0.665,0.662
						v1.992c0,0.368,0.297,0.662,0.665,0.662H78.41c0.368,0,0.664-0.294,0.664-0.662v-1.992
						C79.074,119.061,78.778,118.766,78.41,118.766L78.41,118.766z"/>
				</g>
			</g>
			<g>
				<g>
					<path fill="#EDEADC" d="M37.595,90.581c-0.183,0-0.332-0.147-0.332-0.33V57.945c0-7.198,5.859-13.054,13.056-13.054
						c7.197,0,13.052,5.856,13.052,13.054v32.306c0,0.183-0.148,0.33-0.331,0.33H37.595z"/>
				</g>
				<g>
					<path fill="#637070" d="M50.318,45.224c7.025,0,12.722,5.695,12.722,12.721v32.306H37.595V57.945l0,0
						C37.595,50.919,43.291,45.224,50.318,45.224 M50.318,44.558c-7.382,0-13.387,6.005-13.387,13.387L36.93,90.251
						c0,0.176,0.07,0.345,0.196,0.47c0.124,0.122,0.292,0.193,0.469,0.193H63.04c0.367,0,0.662-0.298,0.662-0.663V57.945
						C63.702,50.563,57.7,44.558,50.318,44.558L50.318,44.558z"/>
				</g>
			</g>
			<g>
				<g>
					<path fill="#B5DDF5" d="M38.978,89.145V59.174c0-0.921,0.672-1.688,1.554-1.835c0.146-0.88,0.914-1.554,1.835-1.554
						c0.922,0,1.688,0.673,1.835,1.554c0.879,0.147,1.555,0.914,1.555,1.835v29.971H38.978z"/>
				</g>
				<g>
					<g>
						<path fill="#637070" d="M42.367,56.116c0.844,0,1.527,0.684,1.527,1.53c0.846,0,1.529,0.683,1.529,1.527v29.638h-6.114V59.173
							c0-0.844,0.686-1.527,1.528-1.527C40.837,56.8,41.522,56.116,42.367,56.116 M42.367,55.453c-1.006,0-1.856,0.681-2.113,1.608
							c-0.925,0.256-1.608,1.107-1.608,2.112v29.638v0.664h0.664h6.114h0.664v-0.664V59.173c0-1.005-0.682-1.856-1.608-2.112
							C44.223,56.133,43.374,55.453,42.367,55.453L42.367,55.453z"/>
					</g>
				</g>
			</g>
			<g>
				<g>
					<path fill="#B5DDF5" d="M47.039,89.145V50.23c0-0.922,0.673-1.689,1.553-1.836c0.146-0.879,0.913-1.554,1.836-1.554
						c0.92,0,1.688,0.675,1.836,1.554c0.879,0.147,1.553,0.915,1.553,1.836v38.915H47.039z"/>
				</g>
				<g>
					<g>
						<path fill="#637070" d="M50.428,47.172c0.844,0,1.528,0.684,1.528,1.53c0.845,0,1.528,0.683,1.528,1.528v38.583H47.37V50.23
							c0-0.845,0.685-1.528,1.529-1.528C48.899,47.856,49.582,47.172,50.428,47.172 M50.428,46.508
							c-1.007,0-1.857,0.682-2.115,1.608c-0.925,0.257-1.606,1.107-1.606,2.114v38.583v0.664h0.664h6.114h0.664v-0.664V50.23
							c0-1.006-0.681-1.857-1.608-2.114C52.286,47.19,51.433,46.508,50.428,46.508L50.428,46.508z"/>
					</g>
				</g>
			</g>
			<g>
				<g>
					<path fill="#B5DDF5" d="M55.099,89.145V59.174c0-0.921,0.673-1.688,1.554-1.835c0.145-0.88,0.913-1.554,1.835-1.554
						c0.921,0,1.687,0.673,1.835,1.554c0.88,0.147,1.555,0.914,1.555,1.835v29.971H55.099z"/>
				</g>
				<g>
					<g>
						<path fill="#637070" d="M58.488,56.116c0.844,0,1.527,0.684,1.527,1.53c0.845,0,1.531,0.683,1.531,1.527v29.638h-6.115V59.173
							c0-0.844,0.684-1.527,1.527-1.527C56.958,56.8,57.644,56.116,58.488,56.116 M58.488,55.453c-1.007,0-1.857,0.681-2.112,1.608
							c-0.927,0.256-1.607,1.107-1.607,2.112v29.638v0.664h0.663h6.115h0.664v-0.664V59.173c0-1.005-0.682-1.856-1.608-2.112
							C60.345,56.133,59.495,55.453,58.488,55.453L58.488,55.453z"/>
					</g>
				</g>
			</g>
			<g>
				<g>
					<path fill="#B5DDF5" d="M120.053,85.887V63.391c0-0.92,0.674-1.686,1.555-1.834c0.146-0.879,0.914-1.554,1.836-1.554
						s1.689,0.674,1.834,1.554c0.882,0.148,1.557,0.914,1.557,1.834v22.496H120.053z"/>
				</g>
				<g>
					<g>
						<path fill="#637070" d="M123.441,60.335c0.845,0,1.529,0.686,1.529,1.53c0.846,0,1.529,0.685,1.529,1.526v22.164h-6.118
							V63.391c0-0.842,0.687-1.526,1.53-1.526C121.913,61.021,122.6,60.335,123.441,60.335 M123.441,59.672
							c-1.006,0-1.855,0.682-2.113,1.607c-0.926,0.257-1.605,1.106-1.605,2.111v22.165v0.664h0.66h6.118h0.664v-0.664V63.391
							c0-1.005-0.683-1.854-1.608-2.111C125.299,60.354,124.448,59.672,123.441,59.672L123.441,59.672z"/>
					</g>
				</g>
			</g>
			<g>
				<g>
					<path fill="#B5DDF5" d="M112.238,85.887V63.391c0-0.92,0.672-1.686,1.554-1.834c0.147-0.879,0.914-1.554,1.835-1.554
						c0.922,0,1.689,0.674,1.835,1.554c0.882,0.148,1.554,0.914,1.554,1.834v22.496H112.238z"/>
				</g>
				<g>
					<g>
						<path fill="#637070" d="M115.627,60.335c0.846,0,1.529,0.686,1.529,1.53c0.842,0,1.527,0.685,1.527,1.526v22.164h-6.113
							V63.391c0-0.842,0.685-1.526,1.527-1.526C114.1,61.021,114.784,60.335,115.627,60.335 M115.627,59.672
							c-1.006,0-1.855,0.682-2.111,1.607c-0.927,0.257-1.607,1.106-1.607,2.111v22.165v0.664h0.664h6.111h0.666v-0.664V63.391
							c0-1.005-0.684-1.854-1.607-2.111C117.482,60.354,116.634,59.672,115.627,59.672L115.627,59.672z"/>
					</g>
				</g>
			</g>
			<g>
				<g>
					<path fill="#B5DDF5" d="M38.978,124.157v-20.688c0-1.869,1.52-3.391,3.389-3.391c1.869,0,3.39,1.521,3.39,3.391v20.688H38.978z
						"/>
				</g>
				<g>
					<g>
						<path fill="#637070" d="M42.367,100.411c1.688,0,3.056,1.368,3.056,3.058v20.356h-6.114v-20.356
							C39.309,101.779,40.677,100.411,42.367,100.411 M42.367,99.748c-2.053,0-3.722,1.67-3.722,3.721v20.356v0.664h0.664h6.114
							h0.664v-0.664v-20.356C46.086,101.418,44.417,99.748,42.367,99.748L42.367,99.748z"/>
					</g>
				</g>
			</g>
			<g>
				<g>
					<path fill="#B5DDF5" d="M46.927,124.157v-20.688c0-1.869,1.521-3.391,3.391-3.391c1.868,0,3.388,1.521,3.388,3.391v20.688
						H46.927z"/>
				</g>
				<g>
					<g>
						<path fill="#637070" d="M50.318,100.411c1.688,0,3.056,1.368,3.056,3.058v20.356H47.26v-20.356
							C47.26,101.779,48.627,100.411,50.318,100.411 M50.318,99.748c-2.053,0-3.723,1.67-3.723,3.721v20.356v0.664h0.665h6.114
							h0.664v-0.664v-20.356C54.038,101.418,52.368,99.748,50.318,99.748L50.318,99.748z"/>
					</g>
				</g>
			</g>
			<g>
				<g>
					<path fill="#B5DDF5" d="M54.877,124.157v-20.688c0-1.869,1.521-3.391,3.392-3.391c1.868,0,3.389,1.521,3.389,3.391v20.688
						H54.877z"/>
				</g>
				<g>
					<g>
						<path fill="#637070" d="M58.269,100.411c1.688,0,3.057,1.368,3.057,3.058v20.356h-6.117v-20.356
							C55.209,101.779,56.581,100.411,58.269,100.411 M58.269,99.748c-2.054,0-3.724,1.67-3.724,3.721v20.356v0.664h0.664h6.117
							h0.664v-0.664v-20.356C61.99,101.418,60.321,99.748,58.269,99.748L58.269,99.748z"/>
					</g>
				</g>
			</g>
			<g>
				<g>
					<path fill="#B5DDF5" d="M80.542,124.102v-18.918c0-2.783,2.265-5.048,5.049-5.048c2.783,0,5.048,2.265,5.048,5.048v18.918
						H80.542z"/>
				</g>
				<g>
					<g>
						<path fill="#637070" d="M85.591,100.467c2.605,0,4.716,2.111,4.716,4.717v18.586h-9.434v-18.586
							C80.874,102.578,82.986,100.467,85.591,100.467 M85.591,99.805c-2.967,0-5.381,2.411-5.381,5.379v18.586v0.664h0.664h9.434
							h0.665v-0.664v-18.586C90.973,102.216,88.559,99.805,85.591,99.805L85.591,99.805z"/>
					</g>
				</g>
			</g>
			<g>
				<g>
					<path fill="#B5DDF5" d="M91.73,124.102v-18.918c0-2.783,2.267-5.048,5.049-5.048c2.783,0,5.051,2.265,5.051,5.048v18.918H91.73
						z"/>
				</g>
				<g>
					<g>
						<path fill="#637070" d="M96.779,100.467c2.607,0,4.719,2.111,4.719,4.717v18.586h-9.438v-18.586
							C92.062,102.578,94.175,100.467,96.779,100.467 M96.779,99.805c-2.967,0-5.379,2.411-5.379,5.379v18.586v0.664h0.66h9.438
							h0.664v-0.664v-18.586C102.162,102.216,99.747,99.805,96.779,99.805L96.779,99.805z"/>
					</g>
				</g>
			</g>
			<g>
				<g>
					<path fill="#B5DDF5" d="M137.046,124.102v-18.918c0-2.783,2.265-5.048,5.05-5.048c2.783,0,5.049,2.265,5.049,5.048v18.918
						H137.046z"/>
				</g>
				<g>
					<g>
						<path fill="#637070" d="M142.096,100.467c2.606,0,4.719,2.111,4.719,4.717v18.586h-9.437v-18.586
							C137.378,102.578,139.491,100.467,142.096,100.467 M142.096,99.805c-2.967,0-5.382,2.411-5.382,5.379v18.586v0.664h0.664
							h9.437h0.662v-0.664v-18.586C147.477,102.216,145.062,99.805,142.096,99.805L142.096,99.805z"/>
					</g>
				</g>
			</g>
			<g>
				<g>
					<path fill="#B5DDF5" d="M148.234,124.102v-18.918c0-2.783,2.266-5.048,5.052-5.048c2.782,0,5.047,2.265,5.047,5.048v18.918
						H148.234z"/>
				</g>
				<g>
					<g>
						<path fill="#637070" d="M153.286,100.467c2.604,0,4.715,2.111,4.715,4.717v18.586h-9.435v-18.586
							C148.566,102.578,150.68,100.467,153.286,100.467 M153.286,99.805c-2.972,0-5.384,2.411-5.384,5.379v18.586v0.664h0.664h9.435
							h0.664v-0.664v-18.586C158.665,102.216,156.252,99.805,153.286,99.805L153.286,99.805z"/>
					</g>
				</g>
			</g>
			<g>
				<g>
					<path fill="#EDEADC" d="M36.542,92.193c-0.183,0-0.331-0.147-0.331-0.33V89.87c0-0.183,0.148-0.332,0.331-0.332h27.659
						c0.183,0,0.332,0.149,0.332,0.332v1.993c0,0.183-0.149,0.33-0.332,0.33H36.542z"/>
				</g>
				<g>
					<path fill="#637070" d="M64.201,89.87v1.993H36.542V89.87H64.201 M64.201,89.207H36.542c-0.367,0-0.662,0.295-0.662,0.663
						v1.993c0,0.365,0.295,0.662,0.662,0.662h27.659c0.368,0,0.663-0.297,0.663-0.662V89.87
						C64.864,89.502,64.569,89.207,64.201,89.207L64.201,89.207z"/>
				</g>
			</g>
			<g opacity="0.3">
				<g>
					<rect x="40.789" y="59.052" fill="#585C5D" width="1.24" height="29.759"/>
				</g>
				<g>
					<rect x="42.835" y="59.052" fill="#585C5D" width="1.241" height="29.759"/>
				</g>
				<g>
					<rect x="40.789" y="102.916" fill="#585C5D" width="1.24" height="20.965"/>
				</g>
				<g>
					<rect x="42.835" y="102.916" fill="#585C5D" width="1.241" height="20.965"/>
				</g>
				<g>
					<rect x="39.309" y="58.553" fill="#585C5D" width="6.114" height="1.241"/>
				</g>
				<g>
					<rect x="39.309" y="61.585" fill="#585C5D" width="6.114" height="1.24"/>
				</g>
				<g>
					<rect x="39.309" y="64.616" fill="#585C5D" width="6.114" height="1.24"/>
				</g>
				<g>
					<rect x="39.309" y="67.646" fill="#585C5D" width="6.114" height="1.24"/>
				</g>
				<g>
					<rect x="39.309" y="70.68" fill="#585C5D" width="6.114" height="1.239"/>
				</g>
				<g>
					<rect x="39.309" y="73.711" fill="#585C5D" width="6.114" height="1.24"/>
				</g>
				<g>
					<rect x="39.309" y="76.741" fill="#585C5D" width="6.114" height="1.239"/>
				</g>
				<g>
					<rect x="39.309" y="79.771" fill="#585C5D" width="6.114" height="1.239"/>
				</g>
				<g>
					<rect x="39.309" y="82.802" fill="#585C5D" width="6.114" height="1.24"/>
				</g>
				<g>
					<rect x="39.309" y="102.172" fill="#585C5D" width="6.114" height="1.24"/>
				</g>
				<g>
					<rect x="39.309" y="105.201" fill="#585C5D" width="6.114" height="1.24"/>
				</g>
				<g>
					<rect x="39.309" y="108.232" fill="#585C5D" width="6.114" height="1.24"/>
				</g>
				<g>
					<rect x="39.309" y="111.264" fill="#585C5D" width="6.114" height="1.24"/>
				</g>
				<g>
					<rect x="39.309" y="114.296" fill="#585C5D" width="6.114" height="1.24"/>
				</g>
				<g>
					<rect x="39.309" y="117.325" fill="#585C5D" width="6.114" height="1.239"/>
				</g>
				<g>
					<rect x="39.309" y="120.355" fill="#585C5D" width="6.114" height="1.24"/>
				</g>
				<g>
					<rect x="48.851" y="102.916" fill="#585C5D" width="1.24" height="20.965"/>
				</g>
				<g>
					<rect x="50.896" y="102.916" fill="#585C5D" width="1.24" height="20.965"/>
				</g>
				<g>
					<rect x="47.37" y="102.172" fill="#585C5D" width="6.114" height="1.24"/>
				</g>
				<g>
					<rect x="47.37" y="105.201" fill="#585C5D" width="6.114" height="1.24"/>
				</g>
				<g>
					<rect x="47.37" y="108.232" fill="#585C5D" width="6.114" height="1.24"/>
				</g>
				<g>
					<rect x="47.37" y="111.264" fill="#585C5D" width="6.114" height="1.24"/>
				</g>
				<g>
					<rect x="47.37" y="114.296" fill="#585C5D" width="6.114" height="1.24"/>
				</g>
				<g>
					<rect x="47.37" y="117.325" fill="#585C5D" width="6.114" height="1.239"/>
				</g>
				<g>
					<rect x="47.37" y="120.355" fill="#585C5D" width="6.114" height="1.24"/>
				</g>
				<g>
					<rect x="56.692" y="102.916" fill="#585C5D" width="1.24" height="20.965"/>
				</g>
				<g>
					<rect x="58.737" y="102.916" fill="#585C5D" width="1.241" height="20.965"/>
				</g>
				<g>
					<rect x="55.209" y="102.172" fill="#585C5D" width="6.117" height="1.24"/>
				</g>
				<g>
					<rect x="55.209" y="105.201" fill="#585C5D" width="6.117" height="1.24"/>
				</g>
				<g>
					<rect x="55.209" y="108.232" fill="#585C5D" width="6.117" height="1.24"/>
				</g>
				<g>
					<rect x="55.209" y="111.264" fill="#585C5D" width="6.117" height="1.24"/>
				</g>
				<g>
					<rect x="55.209" y="114.296" fill="#585C5D" width="6.117" height="1.24"/>
				</g>
				<g>
					<rect x="55.209" y="117.325" fill="#585C5D" width="6.117" height="1.239"/>
				</g>
				<g>
					<rect x="55.209" y="120.355" fill="#585C5D" width="6.117" height="1.24"/>
				</g>
				<g>
					<rect x="84.014" y="71.895" fill="#585C5D" width="1.24" height="12.972"/>
				</g>
				<g>
					<rect x="86.062" y="71.895" fill="#585C5D" width="1.24" height="12.972"/>
				</g>
				<g>
					<rect x="83.38" y="105.083" fill="#585C5D" width="1.24" height="18.59"/>
				</g>
				<g>
					<rect x="86.562" y="105.252" fill="#585C5D" width="1.24" height="18.591"/>
				</g>
				<g>
					<rect x="94.609" y="104.958" fill="#585C5D" width="1.24" height="18.594"/>
				</g>
				<g>
					<rect x="97.792" y="105.128" fill="#585C5D" width="1.24" height="18.591"/>
				</g>
				<g>
					<rect x="139.706" y="104.958" fill="#585C5D" width="1.239" height="18.594"/>
				</g>
				<g>
					<rect x="142.889" y="105.128" fill="#585C5D" width="1.239" height="18.591"/>
				</g>
				<g>
					<rect x="151.073" y="104.958" fill="#585C5D" width="1.239" height="18.594"/>
				</g>
				<g>
					<rect x="154.256" y="105.128" fill="#585C5D" width="1.24" height="18.591"/>
				</g>
				<g>
					<rect x="80.874" y="104.466" fill="#585C5D" width="9.434" height="1.24"/>
				</g>
				<g>
					<rect x="80.874" y="109.111" fill="#585C5D" width="9.434" height="1.24"/>
				</g>
				<g>
					<rect x="80.874" y="113.759" fill="#585C5D" width="9.434" height="1.24"/>
				</g>
				<g>
					<rect x="80.874" y="118.404" fill="#585C5D" width="9.434" height="1.24"/>
				</g>
				<g>
					<rect x="80.874" y="123.053" fill="#585C5D" width="9.434" height="1.24"/>
				</g>
				<g>
					<rect x="92.062" y="104.466" fill="#585C5D" width="9.437" height="1.24"/>
				</g>
				<g>
					<rect x="92.062" y="109.111" fill="#585C5D" width="9.437" height="1.24"/>
				</g>
				<g>
					<rect x="92.062" y="113.759" fill="#585C5D" width="9.437" height="1.24"/>
				</g>
				<g>
					<rect x="92.062" y="118.404" fill="#585C5D" width="9.437" height="1.24"/>
				</g>
				<g>
					<rect x="92.062" y="123.053" fill="#585C5D" width="9.437" height="1.24"/>
				</g>
				<g>
					<rect x="137.201" y="104.466" fill="#585C5D" width="9.434" height="1.24"/>
				</g>
				<g>
					<rect x="137.201" y="109.111" fill="#585C5D" width="9.434" height="1.24"/>
				</g>
				<g>
					<rect x="137.201" y="113.759" fill="#585C5D" width="9.434" height="1.24"/>
				</g>
				<g>
					<rect x="137.201" y="118.404" fill="#585C5D" width="9.434" height="1.24"/>
				</g>
				<g>
					<rect x="137.201" y="123.053" fill="#585C5D" width="9.434" height="1.24"/>
				</g>
				<g>
					<rect x="148.566" y="104.466" fill="#585C5D" width="9.435" height="1.24"/>
				</g>
				<g>
					<rect x="148.566" y="109.111" fill="#585C5D" width="9.435" height="1.24"/>
				</g>
				<g>
					<rect x="148.566" y="113.759" fill="#585C5D" width="9.435" height="1.24"/>
				</g>
				<g>
					<rect x="148.566" y="118.404" fill="#585C5D" width="9.435" height="1.24"/>
				</g>
				<g>
					<rect x="148.566" y="123.053" fill="#585C5D" width="9.435" height="1.24"/>
				</g>
				<g>
					<rect x="82.534" y="73.989" fill="#585C5D" width="6.114" height="1.239"/>
				</g>
				<g>
					<rect x="82.534" y="71.273" fill="#585C5D" width="6.114" height="1.24"/>
				</g>
				<g>
					<rect x="82.534" y="76.82" fill="#585C5D" width="6.114" height="1.24"/>
				</g>
				<g>
					<rect x="82.534" y="79.656" fill="#585C5D" width="6.114" height="1.24"/>
				</g>
				<g>
					<rect x="82.534" y="82.489" fill="#585C5D" width="6.114" height="1.239"/>
				</g>
				<g>
					<rect x="95.205" y="71.895" fill="#585C5D" width="1.24" height="12.972"/>
				</g>
				<g>
					<rect x="97.25" y="71.895" fill="#585C5D" width="1.24" height="12.972"/>
				</g>
				<g>
					<rect x="93.725" y="71.152" fill="#585C5D" width="6.113" height="1.24"/>
				</g>
				<g>
					<rect x="93.725" y="73.989" fill="#585C5D" width="6.113" height="1.239"/>
				</g>
				<g>
					<rect x="93.725" y="76.82" fill="#585C5D" width="6.113" height="1.24"/>
				</g>
				<g>
					<rect x="93.725" y="79.656" fill="#585C5D" width="6.113" height="1.24"/>
				</g>
				<g>
					<rect x="93.725" y="82.489" fill="#585C5D" width="6.113" height="1.239"/>
				</g>
				<g>
					<rect x="140.342" y="71.895" fill="#585C5D" width="1.24" height="12.972"/>
				</g>
				<g>
					<rect x="142.387" y="71.895" fill="#585C5D" width="1.239" height="12.972"/>
				</g>
				<g>
					<rect x="138.859" y="71.152" fill="#585C5D" width="6.113" height="1.24"/>
				</g>
				<g>
					<rect x="138.859" y="73.989" fill="#585C5D" width="6.113" height="1.239"/>
				</g>
				<g>
					<rect x="138.859" y="76.82" fill="#585C5D" width="6.113" height="1.24"/>
				</g>
				<g>
					<rect x="138.859" y="79.656" fill="#585C5D" width="6.113" height="1.24"/>
				</g>
				<g>
					<rect x="138.859" y="82.489" fill="#585C5D" width="6.113" height="1.239"/>
				</g>
				<g>
					<rect x="151.529" y="71.895" fill="#585C5D" width="1.24" height="12.972"/>
				</g>
				<g>
					<rect x="153.576" y="71.895" fill="#585C5D" width="1.24" height="12.972"/>
				</g>
				<g>
					<rect x="150.048" y="71.152" fill="#585C5D" width="6.116" height="1.24"/>
				</g>
				<g>
					<rect x="150.048" y="73.989" fill="#585C5D" width="6.116" height="1.239"/>
				</g>
				<g>
					<rect x="150.048" y="76.82" fill="#585C5D" width="6.116" height="1.24"/>
				</g>
				<g>
					<rect x="150.048" y="79.656" fill="#585C5D" width="6.116" height="1.24"/>
				</g>
				<g>
					<rect x="150.048" y="82.489" fill="#585C5D" width="6.116" height="1.239"/>
				</g>
				<g>
					<rect x="39.309" y="85.833" fill="#585C5D" width="6.114" height="1.241"/>
				</g>
				<g>
					<rect x="56.912" y="59.052" fill="#585C5D" width="1.24" height="29.759"/>
				</g>
				<g>
					<rect x="58.959" y="59.052" fill="#585C5D" width="1.241" height="29.759"/>
				</g>
				<g>
					<rect x="55.431" y="58.553" fill="#585C5D" width="6.115" height="1.241"/>
				</g>
				<g>
					<rect x="55.431" y="61.585" fill="#585C5D" width="6.115" height="1.24"/>
				</g>
				<g>
					<rect x="55.431" y="64.616" fill="#585C5D" width="6.115" height="1.24"/>
				</g>
				<g>
					<rect x="55.431" y="67.646" fill="#585C5D" width="6.115" height="1.24"/>
				</g>
				<g>
					<rect x="55.431" y="70.68" fill="#585C5D" width="6.115" height="1.239"/>
				</g>
				<g>
					<rect x="55.431" y="73.711" fill="#585C5D" width="6.115" height="1.24"/>
				</g>
				<g>
					<rect x="55.431" y="76.741" fill="#585C5D" width="6.115" height="1.239"/>
				</g>
				<g>
					<rect x="55.431" y="79.771" fill="#585C5D" width="6.115" height="1.239"/>
				</g>
				<g>
					<rect x="55.431" y="82.802" fill="#585C5D" width="6.115" height="1.24"/>
				</g>
				<g>
					<rect x="114.034" y="63.036" fill="#585C5D" width="1.239" height="22.483"/>
				</g>
				<g>
					<rect x="116.115" y="63.036" fill="#585C5D" width="1.24" height="22.483"/>
				</g>
				<g>
					<rect x="112.518" y="62.543" fill="#585C5D" width="6.221" height="1.24"/>
				</g>
				<g>
					<rect x="112.518" y="65.739" fill="#585C5D" width="6.221" height="1.241"/>
				</g>
				<g>
					<rect x="112.518" y="68.936" fill="#585C5D" width="6.221" height="1.24"/>
				</g>
				<g>
					<rect x="112.518" y="72.135" fill="#585C5D" width="6.221" height="1.24"/>
				</g>
				<g>
					<rect x="112.518" y="75.332" fill="#585C5D" width="6.221" height="1.24"/>
				</g>
				<g>
					<rect x="112.518" y="78.527" fill="#585C5D" width="6.221" height="1.24"/>
				</g>
				<g>
					<rect x="112.518" y="81.729" fill="#585C5D" width="6.221" height="1.239"/>
				</g>
				<g>
					<rect x="121.85" y="63.036" fill="#585C5D" width="1.24" height="22.483"/>
				</g>
				<g>
					<rect x="123.934" y="63.036" fill="#585C5D" width="1.24" height="22.483"/>
				</g>
				<g>
					<rect x="120.332" y="62.543" fill="#585C5D" width="6.22" height="1.24"/>
				</g>
				<g>
					<rect x="120.332" y="65.739" fill="#585C5D" width="6.22" height="1.241"/>
				</g>
				<g>
					<rect x="120.332" y="68.936" fill="#585C5D" width="6.22" height="1.24"/>
				</g>
				<g>
					<rect x="120.332" y="72.135" fill="#585C5D" width="6.22" height="1.24"/>
				</g>
				<g>
					<rect x="120.332" y="75.332" fill="#585C5D" width="6.22" height="1.24"/>
				</g>
				<g>
					<rect x="120.332" y="78.527" fill="#585C5D" width="6.22" height="1.24"/>
				</g>
				<g>
					<rect x="120.332" y="81.729" fill="#585C5D" width="6.22" height="1.239"/>
				</g>
				<g>
					<rect x="55.431" y="85.833" fill="#585C5D" width="6.115" height="1.241"/>
				</g>
				<g>
					<rect x="48.795" y="50.23" fill="#585C5D" width="1.24" height="38.583"/>
				</g>
				<g>
					<rect x="50.842" y="50.23" fill="#585C5D" width="1.24" height="38.583"/>
				</g>
				<g>
					<rect x="47.314" y="49.61" fill="#585C5D" width="6.117" height="1.24"/>
				</g>
				<g>
					<rect x="47.314" y="61.585" fill="#585C5D" width="6.117" height="1.24"/>
				</g>
				<g>
					<rect x="47.314" y="58.553" fill="#585C5D" width="6.117" height="1.241"/>
				</g>
				<g>
					<rect x="47.314" y="55.522" fill="#585C5D" width="6.117" height="1.24"/>
				</g>
				<g>
					<rect x="47.314" y="52.491" fill="#585C5D" width="6.117" height="1.24"/>
				</g>
				<g>
					<rect x="47.314" y="64.616" fill="#585C5D" width="6.117" height="1.24"/>
				</g>
				<g>
					<rect x="47.314" y="67.646" fill="#585C5D" width="6.117" height="1.24"/>
				</g>
				<g>
					<rect x="47.314" y="70.68" fill="#585C5D" width="6.117" height="1.239"/>
				</g>
				<g>
					<rect x="47.314" y="73.711" fill="#585C5D" width="6.117" height="1.24"/>
				</g>
				<g>
					<rect x="47.314" y="76.741" fill="#585C5D" width="6.117" height="1.239"/>
				</g>
				<g>
					<rect x="47.314" y="79.771" fill="#585C5D" width="6.117" height="1.239"/>
				</g>
				<g>
					<rect x="47.314" y="82.802" fill="#585C5D" width="6.117" height="1.24"/>
				</g>
				<g>
					<rect x="47.314" y="85.833" fill="#585C5D" width="6.117" height="1.241"/>
				</g>
			</g>
			<g>
				<g>
					<path fill="#585C5D" d="M22.224,135.227c-0.184,0-0.332-0.148-0.332-0.332v-6.937c0-0.183,0.148-0.332,0.332-0.332H78.41
						c0.184,0,0.332,0.149,0.332,0.332v6.937c0,0.184-0.147,0.332-0.332,0.332H22.224z"/>
				</g>
				<g>
					<path fill="#637070" d="M78.41,127.958v6.937H22.224v-6.937H78.41 M78.41,127.296H22.224c-0.366,0-0.664,0.297-0.664,0.662
						v6.937c0,0.367,0.298,0.664,0.664,0.664H78.41c0.368,0,0.664-0.297,0.664-0.664v-6.937
						C79.074,127.593,78.778,127.296,78.41,127.296L78.41,127.296z"/>
				</g>
			</g>
			<g>
				<circle fill="#DE5342" cx="50.318" cy="36.095" r="2.435"/>
				<path fill="#585C5D" d="M50.317,39.148c-1.685,0-3.055-1.37-3.055-3.053c0-1.683,1.37-3.054,3.055-3.054s3.056,1.37,3.056,3.054
					C53.373,37.779,52.002,39.148,50.317,39.148z M50.317,34.282c-1,0-1.814,0.812-1.814,1.812s0.814,1.813,1.814,1.813
					c1.001,0,1.815-0.813,1.815-1.813S51.319,34.282,50.317,34.282z"/>
			</g>
			<g>
				<g>
					<path fill="#EDEADC" d="M36.542,126.148c-0.183,0-0.331-0.146-0.331-0.332v-1.991c0-0.185,0.148-0.33,0.331-0.33h27.659
						c0.183,0,0.332,0.146,0.332,0.33v1.991c0,0.186-0.149,0.332-0.332,0.332H36.542z"/>
				</g>
				<g>
					<path fill="#637070" d="M64.201,123.825v1.991H36.542v-1.991H64.201 M64.201,123.163H36.542c-0.367,0-0.662,0.295-0.662,0.662
						v1.991c0,0.367,0.295,0.664,0.662,0.664h27.659c0.368,0,0.663-0.297,0.663-0.664v-1.991
						C64.864,123.458,64.569,123.163,64.201,123.163L64.201,123.163z"/>
				</g>
			</g>
			<g>
				<g>
					<path fill="#EDEADC" d="M78.947,126.148c-0.184,0-0.332-0.146-0.332-0.332v-1.991c0-0.185,0.148-0.33,0.332-0.33h23.913
						c0.182,0,0.332,0.146,0.332,0.33v1.991c0,0.186-0.15,0.332-0.332,0.332H78.947z"/>
				</g>
				<g>
					<path fill="#637070" d="M102.859,123.825v1.991H78.947v-1.991H102.859 M102.859,123.163H78.947
						c-0.369,0-0.664,0.295-0.664,0.662v1.991c0,0.367,0.295,0.664,0.664,0.664h23.913c0.367,0,0.664-0.297,0.664-0.664v-1.991
						C103.523,123.458,103.227,123.163,102.859,123.163L102.859,123.163z"/>
				</g>
			</g>
			<g>
				<g>
					<path fill="#EDEADC" d="M136.05,126.148c-0.182,0-0.329-0.146-0.329-0.332v-1.991c0-0.185,0.147-0.33,0.329-0.33h23.912
						c0.185,0,0.332,0.146,0.332,0.33v1.991c0,0.186-0.147,0.332-0.332,0.332H136.05z"/>
				</g>
				<g>
					<path fill="#637070" d="M159.962,123.825v1.991H136.05v-1.991H159.962 M159.962,123.163H136.05
						c-0.364,0-0.661,0.295-0.661,0.662v1.991c0,0.367,0.297,0.664,0.661,0.664h23.912c0.368,0,0.664-0.297,0.664-0.664v-1.991
						C160.626,123.458,160.33,123.163,159.962,123.163L159.962,123.163z"/>
				</g>
			</g>
			<g>
				<g>
					<rect x="22.224" y="130.298" fill="#404344" width="5.274" height="1.839"/>
				</g>
				<g>
					<rect x="28.771" y="130.298" fill="#404344" width="5.274" height="1.839"/>
				</g>
				<g>
					<rect x="35.32" y="130.298" fill="#404344" width="5.274" height="1.839"/>
				</g>
				<g>
					<rect x="22.224" y="133.057" fill="#404344" width="1.827" height="1.838"/>
				</g>
				<g>
					<rect x="25.325" y="133.057" fill="#404344" width="5.273" height="1.838"/>
				</g>
				<g>
					<rect x="31.873" y="133.057" fill="#404344" width="5.275" height="1.838"/>
				</g>
				<g>
					<rect x="38.422" y="133.057" fill="#404344" width="5.273" height="1.838"/>
				</g>
			</g>
			<g>
				<g>
					<rect x="158.872" y="130.298" fill="#585C5D" width="5.272" height="1.839"/>
				</g>
				<g>
					<rect x="152.323" y="130.298" fill="#585C5D" width="5.272" height="1.839"/>
				</g>
				<g>
					<rect x="145.773" y="130.298" fill="#585C5D" width="5.271" height="1.839"/>
				</g>
				<g>
					<rect x="162.318" y="133.057" fill="#585C5D" width="1.826" height="1.838"/>
				</g>
				<g>
					<rect x="155.77" y="133.057" fill="#585C5D" width="5.272" height="1.838"/>
				</g>
				<g>
					<rect x="149.221" y="133.057" fill="#585C5D" width="5.275" height="1.838"/>
				</g>
			</g>
		</g>
	</g>
</g>
<g>
	<path fill="#424E4D" d="M90,137.777c-37.713,0-68.395-30.682-68.395-68.396C21.605,31.67,52.287,0.988,90,0.988
		c37.714,0,68.395,30.682,68.395,68.395C158.395,107.098,127.714,137.777,90,137.777z M90,3.469
		c-36.346,0-65.915,29.569-65.915,65.914c0,36.346,29.569,65.914,65.915,65.914c36.346,0,65.914-29.568,65.914-65.914
		C155.914,33.038,126.346,3.469,90,3.469z"/>
</g>
</svg>
