<?xml version="1.0" encoding="utf-8"?>
<!-- Generator: Adobe Illustrator 21.1.0, SVG Export Plug-In . SVG Version: 6.00 Build 0)  -->
<svg version="1.1" id="Layer_1" xmlns="http://www.w3.org/2000/svg" xmlns:xlink="http://www.w3.org/1999/xlink" x="0px" y="0px"
	 viewBox="0 0 180 139.5" style="enable-background:new 0 0 180 139.5;" xml:space="preserve">
<style type="text/css">
	.st0{opacity:0.1;}
	.st1{fill:#231F20;}
	.st2{fill:#CDDEE4;}
	.st3{fill:#424E4D;}
	.st4{fill:#FDBF0F;}
	.st5{fill:#F8A366;}
	.st6{fill:#A7D05E;}
	.st7{fill:#86C670;}
	.st8{fill:#8E3A52;}
	.st9{fill:#F1634C;}
	.st10{fill:#FCE871;}
	.st11{fill:none;}
	.st12{fill:#EBA53C;}
	.st13{fill:#FFE171;}
	.st14{fill:#F4D9A6;}
	.st15{opacity:0.4;}
</style>
<g class="st0">
	<path class="st1" d="M90.8,55.1c-22.5,0-40.1,8.5-40.1,19.3c0,0.9,0.1,1.9,0.4,2.8l5.1,31.7l0.2,1h0.1c2.3,8.3,16.7,14.5,34.3,14.5
		c18.4,0,33.3-6.7,34.5-15.6l5.1-31.5c0.3-1,0.4-2,0.4-2.9C130.9,63.6,113.3,55.1,90.8,55.1z"/>
</g>
<g>
	<path class="st2" d="M131,67c0.3-0.9,0.4-1.8,0.4-2.8c0-10.4-18.2-18.9-40.7-18.9s-40.7,8.5-40.7,18.9c0,0.9,0.2,1.9,0.4,2.8
		l5.4,33.1l0,0c1.3,8.4,16.4,15.1,34.8,15.1c18.5,0,33.6-6.7,34.8-15.2L131,67z"/>
	<path class="st3" d="M90.8,116.4c-18.4,0-33.4-6.4-35.8-15.1h-0.1l-0.2-1l-5.4-33.1c-0.3-1-0.5-1.9-0.5-2.9
		c0-11.3,18.4-20.1,41.9-20.1s41.9,8.9,41.9,20.1c0,1-0.1,1.9-0.5,3.1l-5.4,32.9C125.5,109.4,110.1,116.4,90.8,116.4z M57,98.8
		L57,98.8l0.2,1c1.2,7.9,16,14,33.6,14c17.5,0,32.5-6.3,33.6-14.2l5.4-33.1c0.3-0.9,0.4-1.6,0.4-2.4c0-9.6-18.1-17.7-39.5-17.7
		s-39.4,8.1-39.4,17.7c0,0.7,0.1,1.4,0.4,2.4L57,98.8z"/>
</g>
<g>
	<g>
		<g>
			<path class="st4" d="M107.3,71.2c-1,0-2.1-0.1-3.1-0.3c-8.1-1.7-13.2-9.6-11.5-17.6c0.1-0.2,0.2-0.4,0.4-0.6
				c0.2-0.1,0.4-0.1,0.7-0.1l27.3,5.8c0.5,0.1,0.8,0.6,0.7,1.1c-0.8,3.9-3.1,7.2-6.4,9.4C113,70.4,110.2,71.2,107.3,71.2z
				 M94.4,54.6c-0.9,6.7,3.5,13.1,10.2,14.5c3.4,0.7,6.9,0.1,9.8-1.8c2.7-1.7,4.6-4.3,5.4-7.3L94.4,54.6z"/>
		</g>
	</g>
	<g>
		<path class="st5" d="M94.7,52.7c-1.9,7.5,2.8,14.8,9.9,16.3c3.4,0.7,6.9,0.1,9.8-1.8c2.9-1.9,5.1-5,5.9-9"/>
	</g>
</g>
<g>
	<circle class="st6" cx="105.8" cy="61.2" r="5.4"/>
	<path class="st7" d="M105.8,67.6c-3.5,0-6.3-2.8-6.3-6.3s2.8-6.3,6.3-6.3s6.3,2.8,6.3,6.3S109.3,67.6,105.8,67.6z M105.8,56.7
		c-2.5,0-4.5,2-4.5,4.5s2,4.5,4.5,4.5s4.5-2,4.5-4.5S108.2,56.7,105.8,56.7z"/>
</g>
<g>
	<circle class="st8" cx="117.3" cy="88.4" r="6.3"/>
	<path class="st9" d="M117.3,95.6c-4,0-7.2-3.2-7.2-7.2c0-4,3.2-7.2,7.2-7.2c4,0,7.2,3.2,7.2,7.2S121.3,95.6,117.3,95.6z
		 M117.3,83.1c-3,0-5.4,2.4-5.4,5.4s2.4,5.4,5.4,5.4s5.4-2.4,5.4-5.4C122.6,85.5,120.2,83.1,117.3,83.1z"/>
</g>
<g>
	<path class="st3" d="M90.8,116.4c-18.4,0-33.4-6.4-35.8-15.1H55l-0.2-1l-5.4-33.1c-0.1-0.7,0.4-1.3,1-1.4c0.7-0.1,1.3,0.4,1.4,1
		l5.4,33.1c1.2,7.9,16,14,33.6,14c17.5,0,32.5-6.3,33.6-14.2l5.4-33c0.1-0.7,0.7-1.1,1.4-1c0.7,0.1,1.1,0.7,1,1.4l-5.4,33
		C125.6,109.4,110.1,116.4,90.8,116.4z"/>
</g>
<g>
	<g>
		<circle class="st10" cx="74.1" cy="63.1" r="9.7"/>
		<path class="st4" d="M74.1,73.8c-5.9,0-10.7-4.8-10.7-10.7s4.8-10.7,10.7-10.7s10.7,4.8,10.7,10.7S80,73.8,74.1,73.8z M74.1,54.3
			c-4.8,0-8.8,4-8.8,8.8c0,4.8,4,8.8,8.8,8.8c4.8,0,8.8-4,8.8-8.8C82.9,58.3,78.9,54.3,74.1,54.3z"/>
	</g>
	<g>
		<g>
			<line class="st11" x1="70.4" y1="66.8" x2="71.5" y2="65.6"/>
			<path class="st12" d="M70.4,67.7c-0.2,0-0.4-0.1-0.7-0.3c-0.4-0.4-0.4-1,0-1.3l1.2-1.2c0.4-0.4,1-0.4,1.3,0c0.4,0.4,0.4,1,0,1.3
				l-1.2,1.2C70.9,67.7,70.6,67.7,70.4,67.7z"/>
		</g>
		<g>
			<line class="st11" x1="77.7" y1="59.4" x2="76.6" y2="60.6"/>
			<path class="st12" d="M76.6,61.5c-0.2,0-0.4-0.1-0.7-0.3c-0.4-0.4-0.4-1,0-1.3l1.2-1.2c0.4-0.4,1-0.4,1.3,0c0.4,0.4,0.4,1,0,1.3
				l-1.2,1.2C77,61.5,76.8,61.5,76.6,61.5z"/>
		</g>
		<g>
			<line class="st11" x1="77.7" y1="66.8" x2="76.6" y2="65.6"/>
			<path class="st12" d="M77.7,67.7c-0.2,0-0.4-0.1-0.7-0.3l-1.2-1.2c-0.4-0.4-0.4-1,0-1.3s1-0.4,1.3,0l1.2,1.2c0.4,0.4,0.4,1,0,1.3
				C78.2,67.7,77.9,67.7,77.7,67.7z"/>
		</g>
		<g>
			<line class="st11" x1="70.4" y1="59.4" x2="71.5" y2="60.6"/>
			<path class="st12" d="M71.5,61.5c-0.2,0-0.4-0.1-0.7-0.3L69.7,60c-0.4-0.4-0.4-1,0-1.3c0.4-0.4,1-0.4,1.3,0l1.2,1.2
				c0.4,0.4,0.4,1,0,1.3C72.1,61.5,71.8,61.5,71.5,61.5z"/>
		</g>
	</g>
</g>
<g>
	<g>
		<circle class="st10" cx="101.6" cy="71.8" r="9.7"/>
		<path class="st4" d="M101.6,82.5c-5.9,0-10.7-4.8-10.7-10.7s4.8-10.7,10.7-10.7c5.9,0,10.7,4.8,10.7,10.7S107.5,82.5,101.6,82.5z
			 M101.6,63c-4.8,0-8.8,4-8.8,8.8s4,8.8,8.8,8.8c4.8,0,8.8-4,8.8-8.8C110.4,67,106.4,63,101.6,63z"/>
	</g>
	<g>
		<g>
			<line class="st11" x1="97.9" y1="75.5" x2="99.1" y2="74.4"/>
			<path class="st12" d="M97.9,76.5c-0.2,0-0.4-0.1-0.7-0.3c-0.4-0.4-0.4-1,0-1.3l1.2-1.2c0.4-0.4,1-0.4,1.3,0c0.4,0.4,0.4,1,0,1.3
				l-1.2,1.2C98.4,76.4,98.2,76.5,97.9,76.5z"/>
		</g>
		<g>
			<line class="st11" x1="105.2" y1="68.2" x2="104.1" y2="69.4"/>
			<path class="st12" d="M104.1,70.3c-0.2,0-0.4-0.1-0.7-0.3c-0.4-0.4-0.4-1,0-1.3l1.2-1.2c0.4-0.4,1-0.4,1.3,0s0.4,1,0,1.3
				l-1.2,1.2C104.6,70.2,104.4,70.3,104.1,70.3z"/>
		</g>
		<g>
			<line class="st11" x1="105.2" y1="75.5" x2="104.1" y2="74.4"/>
			<path class="st12" d="M105.2,76.5c-0.2,0-0.4-0.1-0.7-0.3l-1.2-1.2c-0.4-0.4-0.4-1,0-1.3c0.4-0.4,1-0.4,1.3,0l1.2,1.2
				c0.4,0.4,0.4,1,0,1.3C105.7,76.4,105.5,76.5,105.2,76.5z"/>
		</g>
		<g>
			<line class="st11" x1="97.9" y1="68.2" x2="99.1" y2="69.4"/>
			<path class="st12" d="M99.1,70.3c-0.2,0-0.4-0.1-0.7-0.3l-1.2-1.2c-0.4-0.4-0.4-1,0-1.3s1-0.4,1.3,0l1.2,1.2c0.4,0.4,0.4,1,0,1.3
				C99.6,70.2,99.3,70.3,99.1,70.3z"/>
		</g>
	</g>
</g>
<g>
	<g>
		<circle class="st10" cx="94.4" cy="85.5" r="9.7"/>
		<path class="st4" d="M94.4,96.1c-5.9,0-10.7-4.8-10.7-10.7c0-5.9,4.8-10.7,10.7-10.7c5.9,0,10.7,4.8,10.7,10.7
			S100.2,96.1,94.4,96.1z M94.4,76.7c-4.8,0-8.8,4-8.8,8.8c0,4.8,4,8.8,8.8,8.8s8.8-4,8.8-8.8C103.2,80.6,99.2,76.7,94.4,76.7z"/>
	</g>
	<g>
		<g>
			<line class="st11" x1="90.7" y1="89.1" x2="91.8" y2="88"/>
			<path class="st12" d="M90.7,90.1c-0.2,0-0.4-0.1-0.7-0.3c-0.4-0.4-0.4-1,0-1.3l1.2-1.2c0.4-0.4,1-0.4,1.3,0s0.4,1,0,1.3l-1.2,1.2
				C91.1,90,90.9,90.1,90.7,90.1z"/>
		</g>
		<g>
			<line class="st11" x1="98" y1="81.8" x2="96.9" y2="82.9"/>
			<path class="st12" d="M96.9,83.9c-0.2,0-0.4-0.1-0.7-0.3c-0.4-0.4-0.4-1,0-1.3l1.2-1.2c0.4-0.4,1-0.4,1.3,0c0.4,0.4,0.4,1,0,1.3
				l-1.2,1.2C97.3,83.8,97.1,83.9,96.9,83.9z"/>
		</g>
		<g>
			<line class="st11" x1="98" y1="89.1" x2="96.9" y2="88"/>
			<path class="st12" d="M98,90.1c-0.2,0-0.4-0.1-0.7-0.3l-1.2-1.2c-0.4-0.4-0.4-1,0-1.3c0.4-0.4,1-0.4,1.3,0l1.2,1.2
				c0.4,0.4,0.4,1,0,1.3C98.5,90,98.2,90.1,98,90.1z"/>
		</g>
		<g>
			<line class="st11" x1="90.7" y1="81.8" x2="91.8" y2="82.9"/>
			<path class="st12" d="M91.8,83.9c-0.2,0-0.4-0.1-0.7-0.3L90,82.4c-0.4-0.4-0.4-1,0-1.3s1-0.4,1.3,0l1.2,1.2c0.4,0.4,0.4,1,0,1.3
				C92.3,83.8,92,83.9,91.8,83.9z"/>
		</g>
	</g>
</g>
<g>
	<path class="st4" d="M86.3,109.8c0.6,1.1,1.6,1.2,1.8,1.2c0.1,0,1.2,0.1,1.9-0.8c3.5-4.2,4.8-9.7,4.8-10c0.1-0.5-0.1-1.8-1.4-2.2
		c-1.4-0.5-4.2-0.8-4.2-0.8s-2.8-0.2-4.3,0c-1.3,0.2-1.7,1.3-1.8,1.9C83.3,99.3,83.6,105,86.3,109.8z"/>
	<path class="st13" d="M88.3,111.9c-0.1,0-0.2,0-0.3,0c-1-0.1-1.9-0.7-2.5-1.6c-2.8-4.9-3.1-10.8-3.1-11.3c0.1-1,0.8-2.5,2.5-2.8
		c1.6-0.2,4.3-0.1,4.5,0c0.1,0,2.9,0.3,4.4,0.8c1.6,0.6,2.1,2.2,2,3.1c-0.1,0.5-1.4,6.2-5.1,10.5C90.1,111.6,89.1,111.9,88.3,111.9z
		 M87,97.9c-0.6,0-1.3,0-1.7,0.1c-0.9,0.1-1,1-1,1s0.2,5.5,2.9,10.2l0,0c0.3,0.5,0.7,0.7,1,0.7c0.1,0,0.7,0.1,1.2-0.5
		c3.4-4.1,4.6-9.5,4.6-9.5l0,0c0,0,0-0.9-0.8-1.2c-1.3-0.4-4-0.7-4-0.7l0,0C89.2,98,88.2,97.9,87,97.9z"/>
</g>
<g>
	<path class="st4" d="M73.9,89.4c0.9-0.9,0.6-1.9,0.6-2.1c0-0.1-0.2-1.2-1.4-1.6c-5.1-1.9-10.7-1.5-11-1.4c-0.5,0.1-1.6,0.7-1.6,2
		c0,1.5,0.6,4.2,0.6,4.2s0.7,2.7,1.3,4c0.6,1.1,1.9,1.2,2.4,1.1C65,95.6,70.3,93.5,73.9,89.4z"/>
	<path class="st13" d="M64.2,96.7c-0.9,0-2.1-0.4-2.8-1.6c-0.7-1.4-1.4-4.1-1.5-4.3c0-0.1-0.6-2.8-0.6-4.5c0-1.7,1.4-2.7,2.3-2.9
		c0.5-0.1,6.3-0.6,11.6,1.4c1.5,0.5,1.9,1.9,2,2.2c0.2,1-0.1,2.1-0.8,2.9c-3.8,4.2-9.2,6.4-9.7,6.6C64.7,96.7,64.4,96.7,64.2,96.7z
		 M61.8,90.4c0,0,0.7,2.5,1.3,3.8c0.4,0.8,1.3,0.6,1.3,0.6s5.2-2,8.7-6l0,0c0.4-0.4,0.4-0.9,0.4-1.2c-0.1-0.2-0.2-0.7-0.8-1
		c-5-1.9-10.4-1.3-10.6-1.3c0,0-0.9,0.2-0.9,1.1C61.3,87.6,61.7,89.7,61.8,90.4L61.8,90.4z"/>
</g>
<g>
	<path class="st4" d="M67.6,76.8c1.2,0.4,2-0.2,2.2-0.3c0.1-0.1,1-0.7,0.9-1.9c-0.2-5.4-2.9-10.4-3.1-10.7c-0.3-0.4-1.3-1.2-2.5-0.7
		c-1.4,0.6-3.7,2.2-3.7,2.2s-2.2,1.7-3.1,2.8c-0.8,1-0.4,2.2-0.1,2.6C58.3,70.9,62.4,75,67.6,76.8z"/>
	<path class="st13" d="M68.4,77.8c-0.4,0-0.7-0.1-1.1-0.2c-5.4-1.8-9.5-5.9-9.8-6.3c-0.6-0.7-1-2.4,0.1-3.7c1-1.3,3.2-2.9,3.3-3
		c0.1-0.1,2.4-1.7,3.9-2.3c1.6-0.7,3.1,0.2,3.7,1c0.3,0.4,3.1,5.6,3.3,11.3c0.1,1.6-1,2.5-1.3,2.8C69.7,77.6,69.1,77.8,68.4,77.8z
		 M61.9,66c0,0-2.1,1.6-3,2.7c-0.5,0.7-0.1,1.4,0,1.5c0,0,3.9,4,9,5.7l0,0c0.6,0.2,1,0,1.3-0.1c0.1-0.1,0.6-0.4,0.5-1.2
		c-0.2-5.4-2.9-10.1-2.9-10.2l0,0c0,0-0.6-0.7-1.4-0.4C64.3,64.4,62.5,65.6,61.9,66L61.9,66z"/>
</g>
<g>
	<path class="st9" d="M96.6,85.4c0.1,1.3,1,1.8,1,1.9c0.1,0.1,1,0.7,2.2,0.1c5-2.2,8.7-6.6,8.8-6.8c0.3-0.4,0.6-1.6-0.3-2.6
		c-1-1-3.4-2.6-3.4-2.6s-2.4-1.4-3.8-1.9c-1.3-0.4-2.2,0.4-2.5,0.9C98.5,74.7,96.3,80,96.6,85.4z"/>
	<path class="st8" d="M98.8,88.5c-0.8,0-1.5-0.4-1.7-0.5c-0.9-0.6-1.5-1.6-1.5-2.6c-0.3-5.6,2-11.1,2.2-11.5
		c0.5-0.8,1.9-1.9,3.5-1.3c1.5,0.4,3.9,1.9,4,1.9c0.1,0.1,2.5,1.6,3.6,2.8c1.2,1.3,0.9,2.9,0.4,3.7c-0.3,0.4-4.1,4.9-9.2,7.2
		C99.7,88.5,99.3,88.5,98.8,88.5z M100.5,74.3c-0.6,0-1,0.5-1,0.5c0,0-2.2,5.1-1.9,10.4l0,0c0,0.6,0.4,1,0.6,1.1s0.7,0.4,1.3,0.1
		c4.9-2.2,8.4-6.4,8.4-6.5l0,0c0,0,0.4-0.8-0.1-1.4c-0.8-0.8-2.6-2.1-3.2-2.5l0,0c0,0-2.3-1.3-3.6-1.8
		C100.8,74.3,100.6,74.3,100.5,74.3z"/>
</g>
<g>
	<path class="st9" d="M82.6,66.6c0,1.3,1,1.8,1,1.9c0.1,0.1,1,0.7,2.2,0.1c5-2.2,8.7-6.6,8.8-6.8c0.3-0.4,0.6-1.6-0.3-2.6
		c-1-1-3.4-2.6-3.4-2.6s-2.4-1.4-3.8-1.9c-1.3-0.4-2.2,0.4-2.5,0.9C84.5,55.9,82.3,61.2,82.6,66.6z"/>
	<path class="st8" d="M84.8,69.8c-0.8,0-1.5-0.4-1.7-0.5c-0.9-0.6-1.5-1.5-1.5-2.6c-0.3-5.7,1.9-11,2.2-11.5
		c0.5-0.8,1.9-1.9,3.5-1.3c1.5,0.4,3.9,1.9,4,1.9c0.1,0.1,2.5,1.6,3.6,2.8c1.2,1.3,0.9,2.9,0.4,3.7c-0.3,0.4-4.1,4.9-9.2,7.2
		C85.6,69.7,85.2,69.8,84.8,69.8z M86.4,55.6c-0.6,0-1,0.5-1,0.6c0,0-2.2,5.1-1.9,10.4l0,0c0,0.7,0.4,1,0.6,1.1
		c0.2,0.1,0.7,0.4,1.3,0.1c4.8-2.2,8.4-6.4,8.4-6.5l0,0c0,0,0.4-0.8-0.1-1.4c-1-1-3.2-2.5-3.2-2.5l0,0c0,0-2.3-1.3-3.6-1.8
		C86.7,55.6,86.6,55.6,86.4,55.6z"/>
</g>
<g>
	<path class="st9" d="M95.8,98.8c1.2,0.4,2-0.2,2.2-0.3c0.1-0.1,1-0.7,0.9-1.9c-0.2-5.4-2.9-10.4-3.1-10.7c-0.3-0.4-1.3-1.2-2.5-0.7
		c-1.4,0.6-3.7,2.2-3.7,2.2s-2.2,1.7-3.1,2.8c-0.8,1-0.4,2.2-0.1,2.6C86.5,93,90.6,97,95.8,98.8z"/>
	<path class="st8" d="M96.5,99.8c-0.4,0-0.7-0.1-1.1-0.2c-5.4-1.8-9.5-5.9-9.8-6.3c-0.6-0.7-1-2.4,0.1-3.7c1-1.3,3.2-2.9,3.3-3
		c0.1-0.1,2.4-1.7,3.9-2.3c1.6-0.7,3.1,0.2,3.7,1c0.3,0.4,3.1,5.6,3.3,11.3c0.1,1.3-0.6,2.3-1.3,2.8C97.9,99.7,97.2,99.8,96.5,99.8z
		 M90,88c0,0-2.1,1.6-3,2.7c-0.6,0.7-0.1,1.4,0,1.5c0,0,3.9,4,9,5.7l0,0c0.6,0.2,1,0,1.3-0.1c0.1-0.1,0.6-0.4,0.5-1.2
		c-0.2-5.4-2.9-10.1-2.9-10.2l0,0c0,0-0.6-0.7-1.4-0.4C92.5,86.4,90.7,87.6,90,88L90,88z"/>
</g>
<g>
	<path class="st9" d="M60,86.6c0.5,1.2,1.6,1.3,1.7,1.3c0.1,0,1.2,0.2,2-0.7c3.8-3.9,5.5-9.3,5.6-9.6c0.1-0.5-0.1-1.8-1.3-2.3
		c-1.3-0.6-4.1-1.1-4.1-1.1s-2.8-0.4-4.3-0.3c-1.3,0.1-1.9,1.3-1.9,1.8C57.8,75.9,57.7,81.6,60,86.6z"/>
	<path class="st8" d="M62.1,88.9c-0.2,0-0.4,0-0.6-0.1c-1-0.2-1.9-0.9-2.4-1.9c-2.4-5.1-2.3-11-2.2-11.6c0.1-1,1-2.4,2.8-2.5
		c1.6-0.1,4.3,0.3,4.5,0.3c0.1,0,2.9,0.6,4.3,1.2c1.6,0.7,1.9,2.4,1.8,3.3c-0.1,0.5-1.9,6.1-5.8,10.1C63.6,88.8,62.7,88.9,62.1,88.9
		z M60.3,74.7c-0.2,0-0.4,0-0.5,0c-0.9,0.1-1,1-1,1s-0.1,5.6,2.1,10.4l0,0c0.2,0.5,0.7,0.7,1,0.8c0.1,0,0.7,0.1,1.2-0.4
		c3.7-3.8,5.3-9.1,5.4-9.2l0,0c0,0,0.1-0.9-0.7-1.3c-1-0.4-3.2-1-3.9-1l0,0C63.8,75,61.8,74.7,60.3,74.7z"/>
</g>
<g>
	<g>
		<g>
			<path class="st4" d="M83.6,99.9c-2.7,0-5.4-0.7-7.8-2.2c-3.4-2.1-5.7-5.4-6.7-9.2c-1.9-8,3.1-16,11-17.9c0.2-0.1,0.5,0,0.7,0.1
				c0.2,0.1,0.4,0.4,0.4,0.6l6.5,27.2c0.1,0.5-0.2,1-0.7,1.1C86,99.7,84.8,99.9,83.6,99.9z M79.7,72.6c-6.4,2-10.3,8.7-8.7,15.4
				c0.8,3.4,2.9,6.3,5.8,8.1c2.7,1.6,5.8,2.2,9,1.7L79.7,72.6z"/>
		</g>
	</g>
	<g>
		<path class="st5" d="M81.6,72c-7.6,1.4-12.2,9-10.5,16c0.8,3.4,2.9,6.3,5.8,8.1c3,1.8,6.7,2.5,10.7,1.4"/>
	</g>
</g>
<g>
	<path class="st4" d="M100,95.9c0.1,1.3,1,1.7,1.2,1.8c0.1,0.1,1,0.6,2.2,0c4.8-2.5,8.3-7,8.4-7.3c0.2-0.4,0.5-1.7-0.4-2.6
		c-1.1-1-3.5-2.4-3.5-2.4s-2.5-1.3-3.9-1.6c-1.3-0.3-2.2,0.6-2.4,1C101.4,85.1,99.5,90.6,100,95.9z"/>
	<path class="st13" d="M102.3,99c-0.7,0-1.3-0.3-1.6-0.4c-0.9-0.5-1.5-1.4-1.6-2.5c-0.6-5.6,1.4-11.1,1.6-11.6
		c0.4-0.8,1.7-1.9,3.4-1.5c1.6,0.4,4,1.7,4.1,1.7c0.1,0.1,2.5,1.5,3.7,2.5c1.3,1.2,1,2.8,0.6,3.7c-0.2,0.4-3.8,5.1-8.8,7.7
		C103.2,98.8,102.7,99,102.3,99z M103.5,84.7c-0.7,0-1,0.6-1,0.6s-2,5.2-1.4,10.5l0,0c0.1,0.7,0.4,1,0.7,1c0.1,0.1,0.7,0.3,1.3,0
		c4.8-2.4,8.1-6.9,8.1-6.9l0,0c0,0,0.4-0.8-0.2-1.4c-1-1-3.3-2.2-3.4-2.2l0,0c0,0-2.4-1.2-3.7-1.6C103.6,84.7,103.5,84.7,103.5,84.7
		z"/>
</g>
<g>
	<g>
		<g>
			<path class="st4" d="M108.6,108.3c-6.6,0-12.8-4.6-14.5-11.3c-0.1-0.2,0-0.5,0.1-0.7c0.1-0.2,0.3-0.4,0.6-0.4l27.1-6.8
				c0.5-0.1,1,0.1,1.1,0.7c1,3.9,0.4,7.8-1.6,11.3c-2,3.4-5.3,5.8-9.2,6.8C111,108.2,109.8,108.3,108.6,108.3z M96.2,97.5
				c2.1,6.4,8.9,10.2,15.5,8.6c3.4-0.8,6.2-3,8-5.9c1.6-2.7,2.2-5.8,1.6-9L96.2,97.5z"/>
		</g>
	</g>
	<g>
		<path class="st5" d="M95.6,95.7c1.5,7.6,9.1,12.1,16,10.4c3.4-0.8,6.2-3,8-5.9c1.8-3,2.5-6.7,1.3-10.7"/>
	</g>
</g>
<g>
	<g>
		<g>
			<path class="st14" d="M103.3,82c5.8,5.1,14.6,4.4,19.7-1.4s4.4-14.6-1.4-19.7L103.3,82z"/>
			<path class="st9" d="M112.4,86.4c-3.4,0-6.9-1.2-9.7-3.7c-0.2-0.1-0.3-0.4-0.3-0.7c0-0.2,0.1-0.5,0.2-0.7l18.3-21
				c0.4-0.4,0.9-0.4,1.3-0.1c3,2.6,4.8,6.2,5.1,10.1c0.3,4-1,7.8-3.6,10.8C120.8,84.7,116.6,86.4,112.4,86.4z M104.6,81.9
				c5.4,4,13.1,3.3,17.6-1.9c2.3-2.6,3.4-6,3.1-9.5c-0.2-3.1-1.6-6-3.8-8.3L104.6,81.9z"/>
		</g>
	</g>
	<g>
		<path class="st14" d="M103.1,80.8c5.6,5.4,14.4,4.7,19.1-0.7c2.3-2.6,3.4-6,3.1-9.5c-0.2-3.4-1.9-6.9-5.1-9.5"/>
	</g>
</g>
<g>
	<g>
		<g>
			<path class="st14" d="M61.9,88.2c-3.6,6.8-1,15.2,5.8,18.9c6.8,3.6,15.2,1,18.9-5.8L61.9,88.2z"/>
			<path class="st9" d="M74.2,109.6c-2.4,0-4.8-0.6-6.9-1.7C60,104.1,57.2,95,61.1,87.7c0.1-0.2,0.3-0.4,0.5-0.4
				c0.2-0.1,0.5-0.1,0.7,0.1L87,100.4c0.4,0.2,0.6,0.8,0.4,1.3c-1.9,3.5-5,6.1-8.7,7.2C77.2,109.3,75.7,109.6,74.2,109.6z
				 M62.4,89.4c-2.7,6.2-0.2,13.5,5.8,16.7c3.1,1.6,6.6,1.9,9.9,0.9c3.1-0.9,5.5-2.9,7.2-5.5L62.4,89.4z"/>
		</g>
	</g>
	<g>
		<path class="st14" d="M63.1,87.7c-4,6.7-1.3,15.1,5.1,18.4c3.1,1.6,6.6,1.9,9.9,0.9c3.3-1,6.3-3.4,8.2-7.2"/>
	</g>
</g>
<g>
	<g class="st15">
		<path class="st2" d="M90.8,80.5c-18.6,0-34.5-5.7-40.1-13.5l5.2,32.1l0,0c1.3,8.4,16.4,15.1,34.8,15.1c18.5,0,33.6-6.7,34.8-15.2
			l5.2-32C125.2,74.8,109.4,80.5,90.8,80.5z"/>
	</g>
</g>
<g>
	<path class="st3" d="M90.9,116.4c-18.3,0-33.4-6.4-35.8-15.1H55l-0.2-1l-5.4-33.1c-0.1-0.7,0.4-1.3,1-1.4c0.7-0.1,1.3,0.4,1.4,1
		l5.4,33.1c1.2,7.9,16,14,33.6,14c17.5,0,32.5-6.3,33.6-14.2l5.4-33c0.1-0.7,0.7-1.1,1.4-1c0.7,0.1,1.1,0.7,1,1.4l-5.4,33
		C125.7,109.4,110.2,116.4,90.9,116.4z"/>
</g>
<g>
	<circle class="st6" cx="97.7" cy="105.5" r="5.4"/>
	<path class="st7" d="M97.7,111.9c-3.5,0-6.3-2.8-6.3-6.3s2.8-6.3,6.3-6.3s6.3,2.8,6.3,6.3S101.2,111.9,97.7,111.9z M97.7,101.1
		c-2.5,0-4.5,2-4.5,4.5s2,4.5,4.5,4.5s4.5-2,4.5-4.5S100.2,101.1,97.7,101.1z"/>
</g>
<g>
	<circle class="st6" cx="112.6" cy="74.4" r="5.4"/>
	<path class="st7" d="M112.6,80.8c-3.5,0-6.3-2.8-6.3-6.3s2.8-6.3,6.3-6.3s6.3,2.8,6.3,6.3C118.9,77.9,116.1,80.8,112.6,80.8z
		 M112.6,69.9c-2.5,0-4.5,2-4.5,4.5s2,4.5,4.5,4.5s4.5-2,4.5-4.5S115,69.9,112.6,69.9z"/>
</g>
<g>
	<circle class="st6" cx="94" cy="86.4" r="5.4"/>
	<path class="st7" d="M93.9,92.7c-3.5,0-6.3-2.8-6.3-6.3s2.8-6.3,6.3-6.3s6.3,2.8,6.3,6.3C100.3,89.9,97.4,92.7,93.9,92.7z
		 M93.9,81.9c-2.5,0-4.5,2-4.5,4.5s2,4.5,4.5,4.5s4.5-2,4.5-4.5S96.4,81.9,93.9,81.9z"/>
</g>
<g>
	<circle class="st8" cx="87.5" cy="73.3" r="6.3"/>
	<path class="st9" d="M87.5,80.5c-4,0-7.2-3.2-7.2-7.2c0-4,3.2-7.2,7.2-7.2c4,0,7.2,3.2,7.2,7.2S91.4,80.5,87.5,80.5z M87.5,68
		c-3,0-5.4,2.4-5.4,5.4s2.4,5.4,5.4,5.4s5.4-2.4,5.4-5.4S90.4,68,87.5,68z"/>
</g>
<g>
	<circle class="st6" cx="73.4" cy="71.6" r="5.4"/>
	<path class="st7" d="M73.4,77.9c-3.5,0-6.3-2.8-6.3-6.3s2.8-6.3,6.3-6.3s6.3,2.8,6.3,6.3S76.9,77.9,73.4,77.9z M73.4,67.1
		c-2.5,0-4.5,2-4.5,4.5s2,4.5,4.5,4.5s4.5-2,4.5-4.5S75.9,67.1,73.4,67.1z"/>
</g>
<g>
	<path class="st3" d="M90.5,80.5c-13.8,0-26.9-3.1-35-8.4c-0.6-0.4-0.7-1.1-0.4-1.7c0.4-0.6,1.1-0.7,1.7-0.4
		c7.8,5,20.3,8.1,33.6,8.1c13.9,0,26.7-3.2,34.4-8.5c0.6-0.4,1.3-0.2,1.7,0.3c0.4,0.6,0.2,1.3-0.3,1.7
		C118.2,77.1,104.8,80.5,90.5,80.5z"/>
</g>
<g>
	<path class="st4" d="M74.6,109.7c1.2,0.4,2-0.2,2.2-0.3c0.1-0.1,1-0.7,0.9-1.9c-0.2-5.4-2.9-10.4-3.1-10.7
		c-0.3-0.4-1.3-1.2-2.5-0.7c-1.4,0.6-3.7,2.2-3.7,2.2s-2.2,1.7-3.1,2.8c-0.8,1-0.4,2.2-0.1,2.6C65.4,104,69.4,108,74.6,109.7z"/>
	<path class="st13" d="M75.4,110.8c-0.4,0-0.7-0.1-1.1-0.2c-5.4-1.8-9.5-5.9-9.8-6.3c-0.6-0.7-1-2.4,0.1-3.7c1-1.2,3.2-2.9,3.3-3
		c0.1-0.1,2.4-1.7,3.9-2.3c1.6-0.7,3.1,0.2,3.7,1c0.3,0.4,3.1,5.6,3.3,11.3c0.1,1.6-1,2.5-1.3,2.8C76.8,110.6,76.1,110.8,75.4,110.8
		z M68.9,99.1c0,0-2.1,1.6-3,2.7c-0.6,0.7-0.1,1.4,0,1.5c0,0,3.9,4,9,5.7l0,0c0.6,0.2,1,0,1.3-0.1c0.1-0.1,0.6-0.5,0.5-1.2
		c-0.2-5.4-2.9-10.1-2.9-10.2l0,0c0,0-0.6-0.7-1.4-0.4C71.1,97.5,68.9,99,68.9,99.1L68.9,99.1z"/>
</g>
</svg>
