<?xml version="1.0" encoding="utf-8"?>
<!-- Generator: Adobe Illustrator 16.0.0, SVG Export Plug-In . SVG Version: 6.00 Build 0)  -->
<!DOCTYPE svg PUBLIC "-//W3C//DTD SVG 1.1//EN" "http://www.w3.org/Graphics/SVG/1.1/DTD/svg11.dtd">
<svg version="1.1" id="Layer_1" xmlns="http://www.w3.org/2000/svg" xmlns:xlink="http://www.w3.org/1999/xlink" x="0px" y="0px"
	 width="180px" height="220px" viewBox="0 0 180 220" enable-background="new 0 0 180 220" xml:space="preserve">
<g>
	<g opacity="0.1">
		<path fill="#231F20" d="M133.479,73.362c-14.941,0-26.966,4.874-29.349,11.457c-2.382-6.583-14.397-11.457-29.348-11.457
			c-16.711,0-29.8,6.088-29.8,13.854v15.742c-16.24,0.234-28.829,6.219-28.829,13.831v29.615h0.23
			c1.69,7.025,14.094,12.225,29.576,12.225c14.98,0,27.047-4.871,29.345-11.557c2.294,6.686,14.367,11.557,29.345,11.557
			c15.478,0,27.882-5.199,29.569-12.225h0.161l0.078-1.633v-15.739c15.015-0.213,26.936-5.326,28.59-12.204h0.157l0.073-1.633
			V87.216C163.278,79.45,150.188,73.362,133.479,73.362z"/>
	</g>
	<g>
		<g>
			<g>
				<path fill="#372F16" d="M75.222,65.586c15.839,0,28.683,5.736,28.683,12.811v27.84v0.649h-0.072
					c-0.762,6.774-13.26,12.161-28.611,12.161s-27.849-5.387-28.607-12.161h-0.076V78.396
					C46.539,71.322,59.383,65.586,75.222,65.586z"/>
				<path fill="#372F16" d="M75.222,120.601c-15.336,0-27.706-5.138-29.864-12.161h-0.297l-0.076-1.554V78.396
					c0-8.055,13.281-14.364,30.237-14.364s30.237,6.31,30.237,14.364v30.043h-0.37C102.925,115.463,90.558,120.601,75.222,120.601z
					 M48.093,106.315l0.066,0.397c0.58,5.184,11.093,10.78,27.063,10.78s26.483-5.597,27.066-10.78l0.063-0.562V78.396
					c0-5.436-10.901-11.256-27.129-11.256s-27.129,5.821-27.129,11.256V106.315z"/>
			</g>
			<g>
				<ellipse fill="#F0F4F7" cx="75.222" cy="78.396" rx="28.683" ry="12.811"/>
				<path fill="#372F16" d="M75.222,92.761c-16.957,0-30.237-6.31-30.237-14.365c0-8.055,13.281-14.364,30.237-14.364
					s30.237,6.31,30.237,14.364C105.459,86.452,92.179,92.761,75.222,92.761z M75.222,67.14c-16.228,0-27.129,5.821-27.129,11.256
					c0,5.436,10.901,11.257,27.129,11.257s27.129-5.821,27.129-11.257C102.352,72.961,91.45,67.14,75.222,67.14z"/>
			</g>
			<g>
				<g>
					<g>
						<path fill="#F8A366" d="M82.518,81.93c0.052-0.009,0.1-0.019,0.149-0.024c2.318-0.464,4.498-1.065,6.048-1.712
							c-0.146-0.307-0.325-0.622-0.531-0.944c-1.557,0.571-3.512,1.093-5.587,1.502c-0.197,0.036-0.392,0.076-0.589,0.112
							c0.058,0.243,0.118,0.51,0.373,0.883C82.424,81.814,82.473,81.872,82.518,81.93z"/>
					</g>
				</g>
				<g>
					<g>
						<path fill="#F8A366" d="M77.198,70.166c0.155,0.042,0.312,0.091,0.47,0.14c0.125-0.027,0.243-0.055,0.368-0.079
							C77.759,70.202,77.48,70.178,77.198,70.166z"/>
					</g>
				</g>
				<g>
					<g>
						<path fill="#F5905F" d="M73.304,69.422c0.031,0,0.058,0,0.088-0.003c-0.03,0.003-0.067,0.003-0.106,0.003
							C73.289,69.422,73.298,69.422,73.304,69.422z"/>
					</g>
				</g>
				<g>
					<g>
						<path fill="#F5905F" d="M73.304,69.422c-0.021,0-0.045,0-0.066,0c-0.061,0.003-0.122,0.006-0.182,0.009
							C73.137,69.429,73.219,69.425,73.304,69.422z"/>
					</g>
				</g>
				<g>
					<g>
						<path fill="#F5905F" d="M73.286,69.422c-0.018,0-0.033,0-0.048,0C73.252,69.422,73.268,69.422,73.286,69.422z"/>
					</g>
				</g>
				<g enable-background="new    ">
					<g>
						<g>
							<path fill="#F5905F" d="M73.438,69.413l0.2-0.018c0.104-0.012,0.249-0.006,0.386,0.012c0.076,0.006,0.143,0.015,0.203,0.033
								l-0.352-0.027l-0.307,0.006c-0.042,0-0.082,0-0.118,0c-0.024,0-0.037,0-0.058,0C73.41,69.419,73.422,69.413,73.438,69.413z"
								/>
						</g>
					</g>
					<g>
						<g>
							<path fill="#F5905F" d="M89.344,85.016c-0.006,0-0.012,0-0.012,0.009l-0.003,0.003c0.024-0.012,0.048-0.019,0.07-0.03h-0.003
								C89.377,84.998,89.359,85.01,89.344,85.016z"/>
						</g>
					</g>
					<g>
						<g>
							<path fill="#F5905F" d="M79.656,86.91c0,0.012,0,0.024,0,0.037c0.003,0.133-0.179,0.261-0.449,0.312
								c1.645-0.115,3.25-0.325,4.756-0.622c1.181-0.234,2.303-0.525,3.356-0.865c0.698-0.228,1.363-0.47,1.991-0.743
								c0.021-0.003,0.024-0.012,0.033-0.012c0.015-0.006,0.033-0.018,0.052-0.018c0.027-0.016,0.036-0.021,0.048-0.027
								c-0.03,0.015-0.07,0.027-0.112,0.045c-1.375,0.443-2.865,0.819-4.452,1.132C83.14,86.497,81.359,86.755,79.656,86.91z"/>
						</g>
					</g>
					<g>
						<g>
							<path fill="#F5905F" d="M64.739,73.374c1.645-0.68,3.83-1.302,6.301-1.794c1.842-0.367,3.711-0.631,5.481-0.78
								c-0.671-0.2-1.259-0.349-1.711-0.456c-0.346-0.085-0.701-0.154-1.102-0.23c-1.566,0.158-3.138,0.392-4.607,0.686
								c-1.93,0.382-3.7,0.859-5.12,1.378c-0.121-0.07-0.252-0.134-0.407-0.194c-0.261-0.097-0.583-0.176-0.944-0.23
								c1.594-0.61,3.636-1.172,5.852-1.609c1.557-0.31,3.205-0.552,4.98-0.722l0.106-0.003l0.307-0.006l0.422,0.04
								c0.41,0.085,0.819,0.17,1.241,0.273c0.452,0.103,1.014,0.246,1.66,0.44c0.155,0.042,0.312,0.091,0.47,0.14
								c0.422,0.133,0.871,0.291,1.375,0.479c0.634,0.249,1.26,0.513,1.86,0.804c0.358,0.179,0.72,0.367,1.068,0.564
								c0.058,0.027,0.112,0.061,0.17,0.091c0.434,0.246,0.865,0.513,1.293,0.792c0.292,0.194,0.583,0.395,0.865,0.61
								c0.045,0.027,0.088,0.058,0.124,0.085c0.386,0.279,0.75,0.564,1.102,0.856c0.252,0.203,0.495,0.41,0.762,0.644
								c0.294,0.27,0.585,0.54,0.88,0.832c0.307,0.3,0.574,0.57,0.853,0.865c0.203,0.222,0.397,0.443,0.583,0.662
								c0.264,0.307,0.504,0.622,0.726,0.929c0.024,0.037,0.045,0.067,0.07,0.103c0.167,0.228,0.318,0.461,0.458,0.683
								c0.197,0.325,0.358,0.649,0.486,0.95c0.021,0.043,0.04,0.082,0.055,0.122c0.103,0.246,0.185,0.489,0.246,0.719
								c0.104,0.397,0.148,0.774,0.14,1.175c-0.009,0.27-0.042,0.516-0.094,0.743c-0.021,0.088-0.043,0.17-0.067,0.249
								c-0.103,0.343-0.236,0.625-0.352,0.844c-0.119,0.215-0.243,0.425-0.389,0.625l-0.182,0.134
								c-0.067,0.03-0.14,0.067-0.255,0.106c-0.03,0.015-0.07,0.027-0.112,0.045c-1.375,0.443-2.865,0.819-4.452,1.132
								c-1.736,0.349-3.521,0.607-5.223,0.762c0-0.088,0.021-0.179,0.085-0.276c0.133-0.24,0.322-0.398,0.567-0.522
								c1.317-0.149,2.668-0.368,3.964-0.625c1.454-0.285,2.841-0.631,4.042-1.011l0.125-0.058c0.106-0.155,0.203-0.312,0.294-0.488
								c0.112-0.216,0.246-0.51,0.352-0.865c-1.442,0.489-3.114,0.926-4.962,1.29c-0.137,0.03-0.276,0.058-0.41,0.07
								c0.173-0.319,0.237-0.577,0.219-0.808c2.018-0.428,3.866-0.959,5.274-1.514c0-0.355-0.058-0.716-0.179-1.093
								c-1.563,0.58-3.554,1.114-5.661,1.533c-0.063,0.012-0.136,0.024-0.203,0.04c-0.103-0.091-0.204-0.182-0.312-0.279
								c-0.109-0.115-0.222-0.23-0.334-0.373c0.052-0.009,0.1-0.019,0.149-0.024c2.318-0.464,4.498-1.065,6.048-1.712
								c-0.146-0.307-0.325-0.622-0.531-0.944c-1.557,0.571-3.512,1.093-5.587,1.502c-0.197,0.036-0.392,0.076-0.589,0.112
								c-0.006-0.019-0.012-0.04-0.015-0.058c-0.052-0.216-0.088-0.431-0.27-0.665c0.066-0.015,0.136-0.027,0.203-0.039
								c2.182-0.434,4.231-0.993,5.751-1.59c-0.228-0.301-0.471-0.598-0.729-0.896c-1.46,0.507-3.229,0.962-5.096,1.333
								c-0.507,0.103-1.02,0.194-1.536,0.276c-0.037-0.009-0.076-0.027-0.112-0.045c-0.504-0.218-1.041-0.355-1.569-0.434
								c0.859-0.127,1.721-0.273,2.559-0.443c1.906-0.376,3.706-0.853,5.126-1.369c-0.179-0.191-0.376-0.386-0.58-0.586
								c-0.207-0.2-0.4-0.392-0.607-0.571c-1.83,0.125-3.833,0.407-5.745,0.786c-2.106,0.419-4.088,0.953-5.597,1.53
								c-0.13-0.076-0.218-0.143-0.292-0.218c-0.167-0.149-0.233-0.316-0.264-0.495c1.529-0.555,3.42-1.065,5.46-1.469
								c1.912-0.376,3.848-0.649,5.684-0.795c-0.333-0.286-0.68-0.559-1.035-0.832c-2.03,0.104-4.34,0.41-6.522,0.844
								c-1.472,0.289-2.88,0.638-4.106,1.017c-0.207-0.191-0.519-0.388-0.953-0.576c1.293-0.413,2.771-0.783,4.382-1.105
								c2.131-0.422,4.271-0.707,6.276-0.834c-0.416-0.285-0.828-0.552-1.25-0.801c-2.131,0.079-4.589,0.397-6.902,0.856
								c-1.891,0.373-3.672,0.84-5.104,1.351c-0.058-0.006-0.122-0.006-0.185-0.006c-0.847-0.03-1.533,0-2.104-0.076
								c-0.389-0.04-0.75-0.122-1.187-0.31c-0.243-0.1-0.397-0.207-0.525-0.328c-0.267-0.246-0.343-0.552-0.416-0.877
								C64.745,73.413,64.742,73.395,64.739,73.374z M67.228,74.843c1.657-0.686,3.888-1.323,6.361-1.818
								c2.143-0.422,4.364-0.716,6.392-0.847c-0.559-0.286-1.135-0.541-1.73-0.774c-2.049,0.1-4.322,0.382-6.553,0.825
								c-2.54,0.501-4.759,1.15-6.307,1.846C65.935,74.324,66.566,74.576,67.228,74.843"/>
						</g>
					</g>
					<g>
						<g>
							<path fill="#F5905F" d="M74.296,69.453c-0.009-0.003-0.021-0.006-0.033-0.012v0.006
								C74.275,69.447,74.287,69.45,74.296,69.453z"/>
						</g>
					</g>
					<g>
						<g>
							<path fill="#F8A366" d="M80.488,70.491l-0.264,0.048c-0.407,0.076-0.795,0.161-1.181,0.246
								c0.634,0.249,1.26,0.513,1.86,0.804c0.401-0.085,0.801-0.17,1.211-0.249c0.461-0.1,0.944-0.182,1.445-0.27
								C82.579,70.837,81.541,70.643,80.488,70.491z"/>
						</g>
					</g>
					<g>
						<g>
							<path fill="#F5905F" d="M67.055,70.133c-1.942,0.382-3.739,0.917-5.327,1.587c0.127-0.021,0.264-0.03,0.404-0.021
								l0.155,0.012l0.07,0.006c0.088,0.012,0.182,0.021,0.273,0.037c1.594-0.61,3.636-1.172,5.852-1.609
								c1.557-0.31,3.205-0.552,4.98-0.722l0.106-0.003c-0.042,0-0.082,0-0.118,0c-0.024,0-0.037,0-0.058,0
								c-0.03,0.003-0.058,0.003-0.088,0.003c-0.085,0.003-0.167,0.006-0.249,0.009c-0.042,0-0.079,0.003-0.125,0.009
								c-0.018,0-0.049,0-0.07,0c-0.822,0.042-1.63,0.1-2.422,0.186C69.261,69.744,68.139,69.914,67.055,70.133z"/>
						</g>
					</g>
					<g>
						<g>
							<path fill="#F8A366" d="M83.435,73.037c0.404-0.094,0.813-0.179,1.232-0.261c0.917-0.182,1.857-0.337,2.795-0.47
								c-0.689-0.273-1.393-0.531-2.121-0.756c-0.959,0.143-1.782,0.279-2.568,0.428c-0.273,0.061-0.54,0.116-0.801,0.176
								c0.058,0.027,0.112,0.061,0.17,0.091C82.576,72.491,83.007,72.758,83.435,73.037z"/>
						</g>
					</g>
					<g>
						<g>
							<path fill="#5FAB45" d="M61.729,71.72c-0.103,0.019-0.182,0.042-0.243,0.073c-6.137,2.568-8.261,6.668-4.568,10.273
								l0.72-0.146l0.71-0.14c-3.335-3.253-1.521-6.956,3.918-9.342c0.134,0.027,0.228,0.058,0.313,0.085
								c0.125,0.046,0.206,0.1,0.282,0.179c0.191,0.158,0.251,0.449,0.331,0.786c0.067,0.337,0.152,0.726,0.546,1.108
								c0.197,0.194,0.477,0.391,0.877,0.555c0.908,0.397,1.939,0.531,2.786,0.549c0.85,0.03,1.533,0,2.109,0.064
								c0.379,0.051,0.747,0.127,1.19,0.312c0.312,0.14,0.5,0.264,0.628,0.385c0.216,0.209,0.252,0.434,0.297,0.719
								c0.04,0.279,0.073,0.616,0.428,0.975c0.209,0.203,0.528,0.406,0.992,0.604c0.917,0.398,1.945,0.525,2.78,0.556
								c0.85,0.018,1.526-0.012,2.115,0.067c0.382,0.039,0.747,0.121,1.184,0.306c0.607,0.258,0.88,0.431,1.029,0.58
								c0.173,0.164,0.212,0.328,0.273,0.595c0.064,0.261,0.143,0.61,0.449,1.074c0.167,0.261,0.367,0.464,0.553,0.644
								c0.27,0.27,0.519,0.467,0.683,0.622c0.134,0.134,0.216,0.246,0.243,0.392c0.031,0.148-0.009,0.352-0.167,0.655
								c-0.225,0.389-0.562,0.538-1.093,0.726c-0.51,0.167-1.238,0.322-1.9,0.625c-0.437,0.204-0.801,0.489-0.996,0.859
								c-0.033,0.052-0.055,0.106-0.07,0.164c-8.091,0.47-16.261-1.405-19.782-4.844l-0.71,0.14l-0.72,0.146
								c3.934,3.839,13.129,5.867,22.089,5.214c0.066-0.003,0.124-0.009,0.179-0.019c0.292-0.055,0.474-0.182,0.471-0.315
								c0-0.125,0.021-0.216,0.085-0.312c0.133-0.24,0.322-0.398,0.567-0.522c0.152-0.073,0.322-0.137,0.507-0.201
								c0.522-0.173,1.248-0.325,1.909-0.634c0.425-0.2,0.798-0.479,0.986-0.834c0.176-0.337,0.24-0.595,0.222-0.826
								c0-0.021-0.003-0.04-0.006-0.061c-0.033-0.24-0.194-0.455-0.392-0.637c-0.115-0.115-0.243-0.225-0.37-0.337
								c-0.103-0.091-0.204-0.182-0.312-0.279c-0.109-0.115-0.222-0.23-0.334-0.373c-0.045-0.058-0.094-0.116-0.137-0.183
								c-0.255-0.373-0.315-0.64-0.373-0.883c-0.006-0.019-0.012-0.04-0.015-0.058c-0.052-0.216-0.088-0.431-0.27-0.665
								c-0.037-0.051-0.082-0.103-0.143-0.161c-0.243-0.234-0.634-0.477-1.262-0.756c-0.037-0.009-0.076-0.027-0.112-0.045
								c-0.504-0.218-1.041-0.355-1.569-0.434c-0.428-0.07-0.847-0.106-1.229-0.118c-0.844-0.015-1.536,0.006-2.097-0.067
								c-0.389-0.036-0.752-0.121-1.187-0.31c-0.134-0.052-0.243-0.103-0.331-0.158c-0.13-0.076-0.218-0.143-0.292-0.218
								c-0.167-0.149-0.233-0.316-0.264-0.495c-0.021-0.07-0.03-0.146-0.04-0.228c-0.042-0.276-0.082-0.616-0.443-0.968
								c-0.243-0.23-0.556-0.428-0.975-0.604c-0.871-0.379-1.809-0.516-2.613-0.546c-0.058-0.006-0.122-0.006-0.185-0.006
								c-0.847-0.03-1.533,0-2.104-0.076c-0.389-0.04-0.75-0.122-1.187-0.31c-0.243-0.1-0.397-0.207-0.525-0.328
								c-0.267-0.246-0.343-0.552-0.416-0.877c-0.006-0.024-0.009-0.042-0.012-0.063c-0.07-0.31-0.118-0.641-0.443-0.959
								c-0.088-0.082-0.191-0.164-0.316-0.237c-0.121-0.07-0.252-0.134-0.407-0.194c-0.261-0.097-0.583-0.176-0.944-0.23
								c-0.091-0.015-0.185-0.024-0.273-0.037l-0.225-0.018C61.993,71.689,61.856,71.699,61.729,71.72z"/>
						</g>
					</g>
					<g>
						<g>
							<path fill="#F8A366" d="M64.739,73.374c1.645-0.68,3.83-1.302,6.301-1.794c1.842-0.367,3.711-0.631,5.481-0.78
								c-0.671-0.2-1.259-0.349-1.711-0.456c-0.346-0.085-0.701-0.154-1.038-0.23h-0.064c-1.566,0.158-3.138,0.392-4.607,0.686
								c-1.93,0.382-3.7,0.859-5.12,1.378c0.125,0.073,0.228,0.155,0.316,0.237C64.621,72.733,64.669,73.064,64.739,73.374z"/>
						</g>
					</g>
					<g>
						<g>
							<path fill="#F8A366" d="M85.526,74.588c0.549-0.127,1.117-0.252,1.69-0.367c0.986-0.197,1.994-0.361,3.023-0.501
								c-0.453-0.291-0.959-0.58-1.505-0.84c-1.145,0.143-2.294,0.325-3.402,0.549c-0.346,0.066-0.692,0.14-1.032,0.218
								c0.045,0.027,0.088,0.058,0.124,0.085C84.81,74.011,85.174,74.296,85.526,74.588z"/>
						</g>
					</g>
					<g>
						<g>
							<path fill="#F8A366" d="M71.698,72.229c-2.54,0.501-4.759,1.15-6.307,1.846c0.543,0.249,1.175,0.5,1.836,0.768
								c1.657-0.686,3.888-1.323,6.361-1.818c2.143-0.422,4.364-0.716,6.392-0.847c-0.559-0.286-1.135-0.541-1.73-0.774
								C76.202,71.504,73.929,71.787,71.698,72.229z"/>
						</g>
					</g>
					<g>
						<g>
							<path fill="#F8A366" d="M71.765,75.568c1.293-0.413,2.771-0.783,4.382-1.105c2.131-0.422,4.271-0.707,6.276-0.834
								c-0.416-0.285-0.828-0.552-1.25-0.801c-2.131,0.079-4.589,0.397-6.902,0.856c-1.891,0.373-3.672,0.84-5.104,1.351
								C69.972,75.064,70.909,75.201,71.765,75.568z"/>
						</g>
					</g>
					<g>
						<g>
							<path fill="#F8A366" d="M73.237,77.38c1.529-0.555,3.42-1.065,5.46-1.469c1.912-0.376,3.848-0.649,5.684-0.795
								c-0.333-0.286-0.68-0.559-1.035-0.832c-2.03,0.104-4.34,0.41-6.522,0.844c-1.472,0.289-2.88,0.638-4.106,1.017
								c0.012,0.012,0.027,0.024,0.037,0.04c0.361,0.352,0.4,0.692,0.443,0.968C73.207,77.234,73.216,77.31,73.237,77.38z"/>
						</g>
					</g>
					<g>
						<g>
							<path fill="#F8A366" d="M78.636,78.746c0.859-0.127,1.721-0.273,2.559-0.443c1.906-0.376,3.706-0.853,5.126-1.369
								c-0.179-0.191-0.376-0.386-0.58-0.586c-0.207-0.2-0.4-0.392-0.607-0.571c-1.83,0.125-3.833,0.407-5.745,0.786
								c-2.106,0.419-4.088,0.953-5.597,1.53c0.088,0.055,0.197,0.106,0.331,0.158c0.434,0.188,0.798,0.273,1.187,0.31
								c0.562,0.073,1.253,0.052,2.097,0.067C77.79,78.64,78.208,78.676,78.636,78.746z"/>
						</g>
					</g>
					<g>
						<g>
							<path fill="#F8A366" d="M81.723,80.142c0.066-0.015,0.136-0.027,0.203-0.039c2.182-0.434,4.231-0.993,5.751-1.59
								c-0.228-0.301-0.471-0.598-0.729-0.896c-1.46,0.507-3.229,0.962-5.096,1.333c-0.507,0.103-1.02,0.194-1.536,0.276
								c0.628,0.279,1.02,0.522,1.262,0.756C81.641,80.039,81.687,80.09,81.723,80.142z"/>
						</g>
					</g>
					<g>
						<g>
							<path fill="#F8A366" d="M90.397,80.375c0.273-0.052,0.543-0.097,0.813-0.149c0.789-0.158,1.591-0.346,2.435-0.57
								c0.112-0.382,0.151-0.783,0.124-1.193c-0.853,0.225-1.751,0.428-2.658,0.613c-0.419,0.082-0.835,0.155-1.254,0.228
								c0.197,0.325,0.358,0.649,0.486,0.95C90.363,80.297,90.382,80.336,90.397,80.375z"/>
						</g>
					</g>
					<g>
						<g>
							<path fill="#F8A366" d="M91.872,80.87c-0.407,0.082-0.816,0.152-1.229,0.225c0.104,0.397,0.148,0.774,0.14,1.153
								c0.397-0.07,0.802-0.146,1.199-0.228l0.258-0.052c0.434-0.455,0.792-0.926,1.041-1.408
								C92.81,80.676,92.336,80.776,91.872,80.87z"/>
						</g>
					</g>
					<g>
						<g>
							<path fill="#F8A366" d="M91.076,82.949c-0.13,0.024-0.258,0.045-0.388,0.063c-0.021,0.088-0.043,0.17-0.067,0.249
								C90.779,83.159,90.925,83.052,91.076,82.949z"/>
						</g>
					</g>
					<g>
						<g>
							<path fill="#F8A366" d="M83.926,83.556c0.003,0.021,0.006,0.04,0.006,0.061c2.018-0.428,3.866-0.959,5.274-1.514
								c0-0.355-0.058-0.716-0.179-1.093c-1.563,0.58-3.554,1.114-5.661,1.533c-0.063,0.012-0.136,0.024-0.203,0.04
								c0.127,0.112,0.255,0.222,0.37,0.337C83.732,83.101,83.893,83.316,83.926,83.556z"/>
						</g>
					</g>
					<g>
						<g>
							<path fill="#F5905F" d="M75.538,69.726c0.452,0.103,1.014,0.246,1.66,0.44c0.282,0.012,0.562,0.036,0.838,0.061
								c-0.125,0.024-0.243,0.052-0.368,0.079c0.422,0.133,0.871,0.291,1.335,0.464c0.425-0.07,0.813-0.155,1.22-0.231l0.264-0.048
								c1.053,0.152,2.091,0.346,3.071,0.58c-0.501,0.088-0.983,0.17-1.445,0.27c-0.41,0.079-0.81,0.164-1.211,0.249
								c0.358,0.179,0.72,0.367,1.068,0.564c0.261-0.061,0.528-0.115,0.801-0.176c0.786-0.148,1.608-0.285,2.568-0.428
								c0.728,0.225,1.432,0.482,2.121,0.756c-0.938,0.133-1.878,0.288-2.795,0.47c-0.419,0.082-0.829,0.167-1.232,0.261
								c0.292,0.194,0.583,0.395,0.865,0.61c0.34-0.079,0.686-0.152,1.032-0.218c1.108-0.225,2.258-0.407,3.402-0.549
								c0.546,0.261,1.053,0.549,1.505,0.84c-1.029,0.14-2.037,0.304-3.023,0.501c-0.574,0.115-1.141,0.24-1.69,0.367
								c0.252,0.203,0.495,0.41,0.747,0.631c0.507-0.122,1.038-0.237,1.575-0.346c1.062-0.212,2.173-0.392,3.296-0.537
								c0.361,0.279,0.655,0.525,0.91,0.768c0.24,0.233,0.455,0.495,0.689,0.798c-0.996,0.282-2.037,0.519-3.087,0.729
								c-0.546,0.112-1.093,0.207-1.636,0.297c0.203,0.222,0.397,0.443,0.583,0.662c0.568-0.094,1.138-0.197,1.706-0.31
								c0.983-0.197,1.955-0.419,2.896-0.67c0.197,0.346,0.346,0.704,0.431,1.056c-1.001,0.285-2.085,0.54-3.192,0.755
								c-0.343,0.07-0.692,0.137-1.044,0.2c0.167,0.228,0.318,0.461,0.458,0.683c0.419-0.073,0.835-0.146,1.254-0.228
								c0.907-0.185,1.806-0.389,2.658-0.613c0.027,0.41-0.012,0.811-0.124,1.193c-0.844,0.225-1.646,0.413-2.435,0.57
								c-0.27,0.052-0.54,0.097-0.813,0.149c0.103,0.246,0.185,0.489,0.246,0.719c0.413-0.073,0.822-0.143,1.229-0.225
								c0.464-0.094,0.938-0.194,1.408-0.31c-0.249,0.482-0.607,0.953-1.041,1.408l-0.258,0.052
								c-0.397,0.082-0.802,0.158-1.199,0.228c-0.009,0.292-0.042,0.537-0.094,0.765c0.13-0.018,0.258-0.039,0.388-0.063
								c-0.151,0.103-0.297,0.209-0.455,0.312c-0.103,0.343-0.236,0.625-0.352,0.844c-0.119,0.215-0.243,0.425-0.383,0.622
								c-0.012,0.019-0.021,0.034-0.03,0.046c1.523-0.674,2.786-1.487,3.703-2.392c0.795-0.771,1.326-1.6,1.608-2.443
								c0.203-0.683,0.236-1.39,0.104-2.118c-0.149-0.625-0.419-1.25-0.841-1.857c-0.304-0.452-0.613-0.813-0.953-1.145
								c-0.343-0.337-0.765-0.67-1.309-1.068c-0.759-0.546-1.639-1.05-2.64-1.514c-1.126-0.525-2.361-0.986-3.66-1.366
								c-1.615-0.467-3.369-0.838-5.214-1.093c-2.176-0.294-4.395-0.416-6.631-0.37c0.076,0.006,0.143,0.015,0.203,0.033
								C74.706,69.538,75.116,69.623,75.538,69.726z"/>
						</g>
					</g>
					<g>
						<g>
							<path fill="#F5905F" d="M89.332,85.025l-0.003,0.003c-0.027,0.012-0.049,0.024-0.079,0.036
								C89.283,85.052,89.304,85.034,89.332,85.025z"/>
						</g>
					</g>
					<g>
						<g>
							<path fill="#F5905F" d="M89.444,84.971c-0.012,0.006-0.021,0.012-0.033,0.018c-0.006,0.003-0.012,0.006-0.015,0.009h0.003
								h0.012l0.155-0.049c0.127-0.037,0.209-0.085,0.267-0.143c0.006-0.009,0.015-0.021,0.024-0.033
								c0.009-0.012,0.019-0.027,0.024-0.043l-0.182,0.134C89.632,84.895,89.559,84.931,89.444,84.971z"/>
						</g>
					</g>
					<g>
						<g>
							<path fill="#F5905F" d="M89.344,85.016c-0.03,0.018-0.055,0.03-0.094,0.048c-0.601,0.255-1.247,0.492-1.93,0.707
								c0.698-0.228,1.363-0.47,1.991-0.743h0.018C89.332,85.025,89.334,85.016,89.344,85.016z"/>
						</g>
					</g>
					<g>
						<g>
							<path fill="#F5905F" d="M89.322,85.025l0.006,0.003h-0.018C89.316,85.028,89.319,85.028,89.322,85.025z"/>
						</g>
					</g>
					<g>
						<g>
							<path fill="#F8A366" d="M82.725,85.277c-0.662,0.31-1.387,0.461-1.909,0.634c-0.185,0.064-0.355,0.127-0.507,0.201
								c1.317-0.149,2.668-0.368,3.964-0.625c1.454-0.285,2.841-0.631,4.042-1.011l0.125-0.058c0.106-0.155,0.203-0.312,0.294-0.488
								c0.112-0.216,0.246-0.51,0.352-0.865c-1.442,0.489-3.114,0.926-4.962,1.29c-0.137,0.03-0.276,0.058-0.413,0.088
								C83.522,84.797,83.149,85.077,82.725,85.277z"/>
						</g>
					</g>
					<g>
						<g>
							<path fill="#86C670" d="M62.266,72.439c-5.438,2.386-7.253,6.088-3.918,9.342l-0.71,0.14l0.71-0.14
								c3.521,3.438,11.69,5.314,19.782,4.844c0.015-0.058,0.037-0.112,0.07-0.164c0.194-0.37,0.559-0.655,0.996-0.859
								c0.662-0.303,1.39-0.458,1.9-0.625c0.531-0.188,0.868-0.337,1.093-0.726c0.158-0.303,0.197-0.507,0.167-0.655
								c-0.027-0.146-0.109-0.258-0.243-0.392c-0.164-0.155-0.413-0.352-0.683-0.622c-0.186-0.179-0.386-0.382-0.553-0.644
								c-0.306-0.464-0.385-0.813-0.449-1.074c-0.061-0.267-0.1-0.431-0.273-0.595c-0.149-0.149-0.422-0.322-1.029-0.58
								c-0.437-0.185-0.801-0.267-1.184-0.306c-0.589-0.079-1.266-0.049-2.115-0.067c-0.835-0.03-1.864-0.158-2.78-0.556
								c-0.464-0.197-0.783-0.4-0.992-0.604c-0.355-0.358-0.389-0.695-0.428-0.975c-0.045-0.285-0.082-0.51-0.297-0.719
								c-0.127-0.121-0.315-0.246-0.628-0.385c-0.443-0.185-0.811-0.261-1.19-0.312c-0.577-0.064-1.259-0.034-2.109-0.064
								c-0.847-0.018-1.878-0.152-2.786-0.549c-0.4-0.164-0.68-0.361-0.877-0.555c-0.395-0.382-0.479-0.771-0.546-1.108
								c-0.079-0.337-0.14-0.628-0.331-0.786c-0.076-0.079-0.158-0.133-0.282-0.179C62.493,72.497,62.399,72.466,62.266,72.439z"/>
						</g>
					</g>
				</g>
				<g>
					<g>
						<path fill="#F8A366" d="M88.021,76.928c0.543-0.091,1.089-0.185,1.636-0.297c1.05-0.209,2.091-0.446,3.087-0.729
							c-0.234-0.303-0.449-0.564-0.689-0.798c-0.255-0.243-0.549-0.489-0.91-0.768c-1.123,0.146-2.234,0.325-3.296,0.537
							c-0.537,0.109-1.068,0.225-1.575,0.346c0.003,0,0.009,0.006,0.015,0.012c0.294,0.27,0.585,0.54,0.88,0.832
							c0.307,0.3,0.574,0.57,0.841,0.853C88.011,76.919,88.018,76.922,88.021,76.928z"/>
					</g>
				</g>
				<g>
					<g>
						<path fill="#F8A366" d="M89.398,78.621c0.352-0.063,0.701-0.13,1.044-0.2c1.107-0.215,2.191-0.47,3.192-0.755
							c-0.085-0.352-0.233-0.71-0.431-1.056c-0.94,0.251-1.912,0.473-2.896,0.67c-0.567,0.112-1.138,0.215-1.706,0.31
							c0.264,0.307,0.504,0.622,0.726,0.929C89.353,78.555,89.374,78.585,89.398,78.621z"/>
					</g>
				</g>
			</g>
		</g>
		<g>
			<g>
				<path fill="#372F16" d="M46.381,95.01c15.839,0,28.68,5.736,28.68,12.813v27.839v0.649h-0.073
					c-0.756,6.771-13.26,12.161-28.607,12.161c-15.354,0-27.852-5.39-28.607-12.161h-0.076v-28.489
					C17.697,100.746,30.539,95.01,46.381,95.01z"/>
				<path fill="#372F16" d="M46.381,150.027c-15.339,0-27.706-5.138-29.864-12.16h-0.297l-0.076-1.555v-28.489
					c0-8.058,13.281-14.368,30.237-14.368c16.953,0,30.234,6.31,30.234,14.368v30.043h-0.371
					C74.087,144.89,61.72,150.027,46.381,150.027z M19.251,135.742l0.067,0.397c0.576,5.184,11.089,10.78,27.062,10.78
					s26.486-5.597,27.062-10.78l0.064-0.567v-27.749c0-5.438-10.902-11.26-27.126-11.26c-16.228,0-27.129,5.821-27.129,11.26
					V135.742z"/>
			</g>
			<g>
				<path fill="#F0F4F7" d="M17.697,107.824c0,7.072,12.841,12.811,28.684,12.811c15.839,0,28.68-5.739,28.68-12.811
					c0-7.078-12.841-12.813-28.68-12.813C30.539,95.01,17.697,100.746,17.697,107.824z"/>
				<path fill="#372F16" d="M46.381,122.188c-16.956,0-30.237-6.31-30.237-14.365c0-8.058,13.281-14.368,30.237-14.368
					c16.953,0,30.234,6.31,30.234,14.368C76.615,115.879,63.334,122.188,46.381,122.188z M46.381,96.564
					c-16.228,0-27.129,5.821-27.129,11.26c0,5.436,10.901,11.256,27.129,11.256c16.225,0,27.126-5.82,27.126-11.256
					C73.507,102.385,62.605,96.564,46.381,96.564z"/>
			</g>
			<g>
				<g>
					<g>
						<path fill="#F8A366" d="M53.674,111.356c0.049-0.009,0.103-0.021,0.155-0.027c2.316-0.464,4.495-1.062,6.045-1.712
							c-0.146-0.31-0.325-0.619-0.531-0.94c-1.557,0.567-3.512,1.089-5.59,1.499c-0.194,0.04-0.389,0.073-0.589,0.115
							c0.061,0.243,0.125,0.507,0.373,0.883C53.583,111.238,53.628,111.296,53.674,111.356z"/>
					</g>
				</g>
				<g>
					<g>
						<path fill="#F8A366" d="M48.354,99.587c0.158,0.048,0.312,0.097,0.471,0.146c0.124-0.03,0.249-0.058,0.37-0.082
							C48.915,99.629,48.636,99.605,48.354,99.587z"/>
					</g>
				</g>
				<g>
					<g>
						<path fill="#F5905F" d="M44.457,98.849c0.037,0,0.064,0,0.091-0.006c-0.03,0.006-0.067,0.006-0.104,0.006
							C44.448,98.849,44.454,98.849,44.457,98.849z"/>
					</g>
				</g>
				<g>
					<g>
						<path fill="#F5905F" d="M44.457,98.849c-0.018,0-0.042,0-0.067,0c-0.058,0.003-0.118,0.006-0.179,0.009
							C44.296,98.855,44.378,98.853,44.457,98.849z"/>
					</g>
				</g>
				<g>
					<g>
						<path fill="#F5905F" d="M44.444,98.849c-0.018,0-0.039,0-0.055,0C44.405,98.849,44.426,98.849,44.444,98.849z"/>
					</g>
				</g>
				<g enable-background="new    ">
					<g>
						<g>
							<path fill="#F5905F" d="M44.593,98.837l0.197-0.015c0.109-0.016,0.252-0.006,0.389,0.009c0.076,0.006,0.143,0.018,0.203,0.03
								l-0.352-0.027l-0.31,0.009c-0.04,0-0.076-0.003-0.118,0c-0.019,0-0.034,0-0.055,0C44.566,98.84,44.581,98.837,44.593,98.837z
								"/>
						</g>
					</g>
					<g>
						<g>
							<path fill="#F5905F" d="M60.5,114.443c-0.003,0-0.009,0-0.009,0.009l-0.006,0.003c0.021-0.012,0.048-0.021,0.073-0.03
								l-0.006-0.003C60.533,114.425,60.512,114.437,60.5,114.443z"/>
						</g>
					</g>
					<g>
						<g>
							<path fill="#F5905F" d="M50.812,116.337c0,0.012,0,0.021,0,0.033c0.003,0.134-0.179,0.261-0.452,0.315
								c1.651-0.118,3.253-0.327,4.759-0.622c1.18-0.236,2.3-0.524,3.359-0.865c0.695-0.228,1.357-0.47,1.991-0.743
								c0.021-0.003,0.024-0.012,0.03-0.012c0.012-0.007,0.033-0.019,0.052-0.021c0.027-0.016,0.036-0.019,0.051-0.024
								c-0.033,0.009-0.07,0.027-0.112,0.046c-1.381,0.439-2.871,0.819-4.455,1.132C54.296,115.924,52.515,116.182,50.812,116.337z"
								/>
						</g>
					</g>
					<g>
						<g>
							<path fill="#F5905F" d="M35.895,102.798c1.645-0.677,3.833-1.299,6.301-1.794c1.845-0.364,3.711-0.631,5.481-0.777
								c-0.674-0.2-1.26-0.349-1.708-0.458c-0.352-0.082-0.704-0.152-1.105-0.228c-1.566,0.155-3.132,0.388-4.607,0.686
								c-1.927,0.382-3.7,0.859-5.123,1.375c-0.115-0.07-0.249-0.133-0.407-0.191c-0.258-0.097-0.577-0.179-0.944-0.23
								c1.596-0.61,3.639-1.171,5.854-1.612c1.56-0.306,3.202-0.549,4.983-0.719l0.1-0.006l0.31-0.009l0.422,0.046
								c0.41,0.085,0.819,0.167,1.241,0.273c0.449,0.1,1.02,0.246,1.66,0.434c0.158,0.048,0.312,0.097,0.471,0.146
								c0.425,0.134,0.871,0.285,1.375,0.479c0.637,0.246,1.256,0.507,1.864,0.804c0.358,0.176,0.713,0.364,1.062,0.562
								c0.058,0.027,0.118,0.061,0.173,0.094c0.434,0.246,0.868,0.513,1.293,0.789c0.292,0.194,0.583,0.395,0.868,0.607
								c0.042,0.03,0.085,0.061,0.125,0.088c0.382,0.282,0.75,0.568,1.102,0.856c0.249,0.204,0.495,0.413,0.759,0.646
								c0.294,0.27,0.583,0.54,0.883,0.829c0.301,0.303,0.568,0.574,0.85,0.865c0.203,0.225,0.397,0.443,0.585,0.665
								c0.264,0.306,0.504,0.619,0.723,0.925c0.021,0.034,0.048,0.067,0.073,0.1c0.17,0.234,0.319,0.465,0.455,0.689
								c0.197,0.325,0.358,0.646,0.486,0.95c0.018,0.04,0.042,0.082,0.055,0.122c0.1,0.243,0.188,0.488,0.246,0.716
								c0.106,0.397,0.149,0.777,0.14,1.178c-0.009,0.271-0.042,0.516-0.094,0.743c-0.021,0.085-0.042,0.167-0.066,0.249
								c-0.097,0.343-0.237,0.622-0.349,0.844c-0.119,0.213-0.246,0.425-0.392,0.625l-0.179,0.134
								c-0.073,0.03-0.146,0.063-0.255,0.106c-0.033,0.009-0.07,0.027-0.112,0.046c-1.381,0.439-2.871,0.819-4.455,1.132
								c-1.736,0.349-3.521,0.606-5.223,0.762c0-0.088,0.021-0.183,0.088-0.276c0.13-0.246,0.322-0.397,0.571-0.521
								c1.308-0.149,2.662-0.368,3.96-0.626c1.451-0.288,2.841-0.634,4.04-1.011l0.127-0.058c0.1-0.157,0.203-0.312,0.292-0.488
								c0.115-0.222,0.249-0.51,0.349-0.865c-1.436,0.489-3.111,0.923-4.956,1.29c-0.14,0.027-0.279,0.058-0.41,0.07
								c0.17-0.319,0.234-0.58,0.215-0.808c2.021-0.431,3.867-0.959,5.275-1.518c0-0.353-0.058-0.713-0.182-1.09
								c-1.56,0.58-3.551,1.114-5.657,1.533c-0.066,0.012-0.133,0.021-0.203,0.036c-0.103-0.088-0.203-0.179-0.307-0.282
								c-0.112-0.109-0.228-0.225-0.34-0.367c0.049-0.009,0.103-0.021,0.155-0.027c2.316-0.464,4.495-1.062,6.045-1.712
								c-0.146-0.31-0.325-0.619-0.531-0.94c-1.557,0.567-3.512,1.089-5.59,1.499c-0.194,0.04-0.389,0.073-0.589,0.115
								c-0.006-0.018-0.009-0.042-0.012-0.058c-0.055-0.215-0.091-0.431-0.27-0.665c0.066-0.015,0.133-0.027,0.203-0.042
								c2.179-0.431,4.231-0.989,5.748-1.59c-0.228-0.3-0.467-0.595-0.728-0.892c-1.46,0.507-3.229,0.959-5.093,1.329
								c-0.507,0.103-1.026,0.194-1.536,0.279c-0.04-0.012-0.076-0.027-0.115-0.046c-0.507-0.218-1.041-0.355-1.563-0.437
								c0.856-0.128,1.714-0.273,2.555-0.44c1.903-0.376,3.706-0.853,5.126-1.375c-0.182-0.188-0.376-0.379-0.583-0.58
								c-0.207-0.2-0.401-0.391-0.607-0.57c-1.83,0.125-3.836,0.407-5.742,0.783c-2.106,0.422-4.091,0.953-5.597,1.533
								c-0.13-0.076-0.221-0.146-0.297-0.221c-0.161-0.146-0.228-0.313-0.264-0.492c1.533-0.559,3.424-1.065,5.463-1.469
								c1.912-0.379,3.848-0.652,5.684-0.801c-0.337-0.279-0.68-0.553-1.032-0.829c-2.03,0.103-4.343,0.41-6.522,0.843
								c-1.475,0.292-2.883,0.641-4.109,1.02c-0.209-0.194-0.513-0.392-0.956-0.577c1.302-0.413,2.774-0.786,4.389-1.104
								c2.127-0.425,4.267-0.708,6.276-0.835c-0.416-0.285-0.832-0.552-1.257-0.801c-2.125,0.073-4.583,0.398-6.896,0.856
								c-1.888,0.374-3.672,0.838-5.107,1.348c-0.058-0.003-0.122-0.006-0.182-0.006c-0.853-0.027-1.536,0.003-2.106-0.073
								c-0.385-0.042-0.752-0.121-1.184-0.312c-0.249-0.1-0.401-0.203-0.528-0.331c-0.264-0.239-0.343-0.546-0.416-0.874
								C35.901,102.84,35.898,102.822,35.895,102.798z M38.384,104.27c1.654-0.686,3.888-1.326,6.361-1.818
								c2.143-0.422,4.37-0.719,6.395-0.85c-0.562-0.285-1.135-0.54-1.73-0.771c-2.052,0.097-4.322,0.382-6.552,0.819
								c-2.538,0.504-4.762,1.153-6.313,1.849C37.094,103.748,37.722,104,38.384,104.27"/>
						</g>
					</g>
					<g>
						<g>
							<path fill="#F5905F" d="M45.452,98.88c-0.006-0.003-0.018-0.006-0.033-0.012v0.006C45.434,98.874,45.446,98.876,45.452,98.88
								z"/>
						</g>
					</g>
					<g>
						<g>
							<path fill="#F8A366" d="M51.641,99.915l-0.264,0.052c-0.401,0.073-0.789,0.158-1.178,0.246
								c0.637,0.246,1.256,0.507,1.864,0.804c0.395-0.088,0.798-0.173,1.205-0.251c0.461-0.097,0.947-0.183,1.451-0.271
								C53.731,100.264,52.703,100.066,51.641,99.915z"/>
						</g>
					</g>
					<g>
						<g>
							<path fill="#F5905F" d="M38.208,99.557c-1.942,0.385-3.736,0.917-5.32,1.587c0.125-0.021,0.261-0.03,0.401-0.021l0.155,0.012
								l0.067,0.009c0.094,0.012,0.188,0.021,0.273,0.037c1.596-0.61,3.639-1.171,5.854-1.612c1.56-0.306,3.202-0.549,4.983-0.719
								l0.1-0.006c-0.04,0-0.076-0.003-0.118,0c-0.019,0-0.034,0-0.055,0c-0.027,0.006-0.055,0.006-0.091,0.006
								c-0.079,0.003-0.161,0.006-0.246,0.009c-0.04,0-0.082,0.003-0.125,0.003c-0.021,0-0.045,0.006-0.07,0.006
								c-0.826,0.04-1.633,0.097-2.422,0.182C40.417,99.168,39.291,99.338,38.208,99.557z"/>
						</g>
					</g>
					<g>
						<g>
							<path fill="#F8A366" d="M54.59,102.461c0.401-0.091,0.813-0.176,1.235-0.261c0.914-0.179,1.854-0.337,2.789-0.471
								c-0.683-0.276-1.39-0.528-2.119-0.753c-0.959,0.137-1.778,0.276-2.57,0.428c-0.273,0.058-0.54,0.109-0.801,0.173
								c0.058,0.027,0.118,0.061,0.173,0.094C53.731,101.917,54.166,102.185,54.59,102.461z"/>
						</g>
					</g>
					<g>
						<g>
							<path fill="#5FAB45" d="M32.887,101.144c-0.106,0.021-0.182,0.042-0.249,0.076c-6.131,2.564-8.258,6.668-4.564,10.273
								l0.722-0.146l0.707-0.14c-3.333-3.257-1.514-6.957,3.924-9.345c0.127,0.027,0.225,0.054,0.307,0.088
								c0.121,0.042,0.206,0.1,0.285,0.173c0.185,0.164,0.252,0.455,0.328,0.792c0.067,0.337,0.152,0.726,0.546,1.105
								c0.2,0.194,0.479,0.392,0.877,0.555c0.908,0.401,1.942,0.534,2.783,0.553c0.853,0.027,1.536,0,2.112,0.063
								c0.379,0.052,0.75,0.127,1.187,0.312c0.319,0.14,0.507,0.264,0.631,0.382c0.215,0.209,0.255,0.437,0.297,0.723
								c0.04,0.276,0.073,0.61,0.428,0.974c0.209,0.203,0.528,0.407,0.989,0.604c0.922,0.395,1.945,0.522,2.786,0.555
								c0.844,0.015,1.526-0.012,2.109,0.064c0.391,0.036,0.75,0.125,1.187,0.307c0.61,0.258,0.883,0.434,1.026,0.583
								c0.176,0.164,0.215,0.328,0.273,0.595c0.067,0.261,0.143,0.61,0.452,1.074c0.17,0.262,0.364,0.465,0.549,0.644
								c0.273,0.268,0.525,0.465,0.686,0.622c0.13,0.134,0.215,0.243,0.246,0.389c0.027,0.151-0.009,0.355-0.17,0.655
								c-0.228,0.392-0.564,0.537-1.092,0.726c-0.507,0.17-1.235,0.322-1.897,0.625c-0.443,0.207-0.804,0.492-1.001,0.856
								c-0.03,0.058-0.055,0.112-0.067,0.17c-8.088,0.47-16.258-1.405-19.782-4.844l-0.707,0.14l-0.722,0.146
								c3.933,3.839,13.132,5.863,22.088,5.214c0.063-0.006,0.127-0.012,0.182-0.021c0.288-0.055,0.47-0.182,0.467-0.315
								c0-0.121,0.021-0.216,0.088-0.31c0.13-0.246,0.322-0.397,0.571-0.521c0.146-0.073,0.312-0.137,0.503-0.201
								c0.519-0.176,1.245-0.327,1.909-0.634c0.425-0.2,0.792-0.482,0.98-0.838c0.179-0.334,0.243-0.595,0.225-0.822
								c0-0.024-0.003-0.043-0.006-0.061c-0.03-0.246-0.191-0.459-0.389-0.638c-0.115-0.115-0.246-0.225-0.373-0.34
								c-0.103-0.088-0.203-0.179-0.307-0.282c-0.112-0.109-0.228-0.225-0.34-0.367c-0.045-0.061-0.091-0.118-0.137-0.183
								c-0.249-0.376-0.312-0.64-0.373-0.883c-0.006-0.018-0.009-0.042-0.012-0.058c-0.055-0.215-0.091-0.431-0.27-0.665
								c-0.04-0.055-0.085-0.103-0.14-0.161c-0.249-0.237-0.641-0.477-1.266-0.756c-0.04-0.012-0.076-0.027-0.115-0.046
								c-0.507-0.218-1.041-0.355-1.563-0.437c-0.434-0.07-0.853-0.104-1.235-0.116c-0.844-0.018-1.533,0.006-2.097-0.066
								c-0.389-0.04-0.75-0.122-1.189-0.31c-0.131-0.055-0.237-0.106-0.325-0.158c-0.13-0.076-0.221-0.146-0.297-0.221
								c-0.161-0.146-0.228-0.313-0.264-0.492c-0.018-0.073-0.027-0.146-0.033-0.228c-0.045-0.279-0.082-0.622-0.443-0.971
								c-0.249-0.231-0.552-0.428-0.978-0.604c-0.871-0.379-1.806-0.516-2.613-0.546c-0.058-0.003-0.122-0.006-0.182-0.006
								c-0.853-0.027-1.536,0.003-2.106-0.073c-0.385-0.042-0.752-0.121-1.184-0.312c-0.249-0.1-0.401-0.203-0.528-0.331
								c-0.264-0.239-0.343-0.546-0.416-0.874c-0.006-0.021-0.009-0.039-0.012-0.063c-0.067-0.307-0.115-0.637-0.443-0.956
								c-0.088-0.082-0.191-0.164-0.319-0.24c-0.115-0.07-0.249-0.133-0.407-0.191c-0.258-0.097-0.577-0.179-0.944-0.23
								c-0.085-0.015-0.179-0.024-0.273-0.037l-0.222-0.021C33.148,101.113,33.012,101.123,32.887,101.144z"/>
						</g>
					</g>
					<g>
						<g>
							<path fill="#F8A366" d="M35.895,102.798c1.645-0.677,3.833-1.299,6.301-1.794c1.845-0.364,3.711-0.631,5.481-0.777
								c-0.674-0.2-1.26-0.349-1.708-0.458c-0.352-0.082-0.704-0.152-1.041-0.228h-0.064c-1.566,0.155-3.132,0.388-4.607,0.686
								c-1.927,0.382-3.7,0.859-5.123,1.375c0.127,0.076,0.23,0.158,0.319,0.24C35.78,102.161,35.828,102.491,35.895,102.798z"/>
						</g>
					</g>
					<g>
						<g>
							<path fill="#F8A366" d="M56.685,104.012c0.546-0.127,1.117-0.249,1.69-0.364c0.98-0.197,1.988-0.361,3.023-0.5
								c-0.456-0.294-0.962-0.58-1.508-0.841c-1.142,0.143-2.292,0.325-3.405,0.546c-0.343,0.07-0.689,0.14-1.026,0.215
								c0.042,0.03,0.085,0.061,0.125,0.088C55.965,103.438,56.333,103.724,56.685,104.012z"/>
						</g>
					</g>
					<g>
						<g>
							<path fill="#F8A366" d="M42.857,101.65c-2.538,0.504-4.762,1.153-6.313,1.849c0.549,0.249,1.178,0.5,1.839,0.771
								c1.654-0.686,3.888-1.326,6.361-1.818c2.143-0.422,4.37-0.719,6.395-0.85c-0.562-0.285-1.135-0.54-1.73-0.771
								C47.358,100.928,45.088,101.213,42.857,101.65z"/>
						</g>
					</g>
					<g>
						<g>
							<path fill="#F8A366" d="M42.918,104.995c1.302-0.413,2.774-0.786,4.389-1.104c2.127-0.425,4.267-0.708,6.276-0.835
								c-0.416-0.285-0.832-0.552-1.257-0.801c-2.125,0.073-4.583,0.398-6.896,0.856c-1.888,0.374-3.672,0.838-5.107,1.348
								C41.13,104.488,42.065,104.625,42.918,104.995z"/>
						</g>
					</g>
					<g>
						<g>
							<path fill="#F8A366" d="M44.39,106.807c1.533-0.559,3.424-1.065,5.463-1.469c1.912-0.379,3.848-0.652,5.684-0.801
								c-0.337-0.279-0.68-0.553-1.032-0.829c-2.03,0.103-4.343,0.41-6.522,0.843c-1.475,0.292-2.883,0.641-4.109,1.02
								c0.012,0.009,0.03,0.024,0.04,0.037c0.361,0.349,0.397,0.692,0.443,0.971C44.363,106.661,44.372,106.734,44.39,106.807z"/>
						</g>
					</g>
					<g>
						<g>
							<path fill="#F8A366" d="M49.798,108.17c0.856-0.128,1.714-0.273,2.555-0.44c1.903-0.376,3.706-0.853,5.126-1.375
								c-0.182-0.188-0.376-0.379-0.583-0.58c-0.207-0.2-0.401-0.391-0.607-0.57c-1.83,0.125-3.836,0.407-5.742,0.783
								c-2.106,0.422-4.091,0.953-5.597,1.533c0.088,0.052,0.194,0.104,0.325,0.158c0.44,0.188,0.801,0.27,1.189,0.31
								c0.564,0.073,1.253,0.048,2.097,0.066C48.945,108.066,49.364,108.1,49.798,108.17z"/>
						</g>
					</g>
					<g>
						<g>
							<path fill="#F8A366" d="M52.882,109.569c0.066-0.015,0.133-0.027,0.203-0.042c2.179-0.431,4.231-0.989,5.748-1.59
								c-0.228-0.3-0.467-0.595-0.728-0.892c-1.46,0.507-3.229,0.959-5.093,1.329c-0.507,0.103-1.026,0.194-1.536,0.279
								c0.625,0.279,1.017,0.519,1.266,0.756C52.797,109.466,52.842,109.514,52.882,109.569z"/>
						</g>
					</g>
					<g>
						<g>
							<path fill="#F8A366" d="M61.553,109.803c0.273-0.052,0.546-0.097,0.816-0.155c0.786-0.151,1.587-0.346,2.428-0.564
								c0.119-0.385,0.158-0.786,0.127-1.195c-0.853,0.224-1.748,0.428-2.659,0.61c-0.418,0.082-0.834,0.161-1.253,0.233
								c0.197,0.325,0.358,0.646,0.486,0.95C61.516,109.721,61.541,109.763,61.553,109.803z"/>
						</g>
					</g>
					<g>
						<g>
							<path fill="#F8A366" d="M63.027,110.297c-0.406,0.079-0.813,0.148-1.229,0.221c0.106,0.397,0.149,0.777,0.14,1.153
								c0.401-0.069,0.801-0.146,1.202-0.225l0.252-0.055c0.437-0.452,0.795-0.922,1.047-1.408
								C63.968,110.103,63.492,110.203,63.027,110.297z"/>
						</g>
					</g>
					<g>
						<g>
							<path fill="#F8A366" d="M62.232,112.376c-0.13,0.021-0.261,0.046-0.389,0.063c-0.021,0.085-0.042,0.167-0.066,0.249
								C61.932,112.586,62.087,112.479,62.232,112.376z"/>
						</g>
					</g>
					<g>
						<g>
							<path fill="#F8A366" d="M55.082,112.983c0.003,0.018,0.006,0.036,0.006,0.061c2.021-0.431,3.867-0.959,5.275-1.518
								c0-0.353-0.058-0.713-0.182-1.09c-1.56,0.58-3.551,1.114-5.657,1.533c-0.066,0.012-0.133,0.021-0.203,0.036
								c0.127,0.115,0.258,0.225,0.373,0.34C54.891,112.524,55.052,112.737,55.082,112.983z"/>
						</g>
					</g>
					<g>
						<g>
							<path fill="#F5905F" d="M46.693,99.153c0.449,0.1,1.02,0.246,1.66,0.434c0.282,0.018,0.562,0.042,0.841,0.063
								c-0.122,0.024-0.246,0.052-0.37,0.082c0.425,0.134,0.871,0.285,1.335,0.464c0.428-0.073,0.816-0.158,1.217-0.23l0.264-0.052
								c1.062,0.152,2.091,0.349,3.077,0.58c-0.504,0.088-0.989,0.173-1.451,0.271c-0.407,0.079-0.81,0.164-1.205,0.251
								c0.358,0.176,0.713,0.364,1.062,0.562c0.261-0.063,0.528-0.115,0.801-0.173c0.792-0.152,1.611-0.292,2.57-0.428
								c0.729,0.225,1.436,0.477,2.119,0.753c-0.935,0.134-1.875,0.292-2.789,0.471c-0.422,0.085-0.834,0.17-1.235,0.261
								c0.292,0.194,0.583,0.395,0.868,0.607c0.337-0.076,0.683-0.146,1.026-0.215c1.114-0.222,2.264-0.404,3.405-0.546
								c0.546,0.261,1.053,0.546,1.508,0.841c-1.035,0.14-2.042,0.303-3.023,0.5c-0.574,0.115-1.144,0.237-1.69,0.364
								c0.249,0.204,0.495,0.413,0.74,0.634c0.513-0.121,1.041-0.24,1.579-0.346c1.065-0.212,2.173-0.392,3.299-0.538
								c0.355,0.279,0.652,0.522,0.904,0.768c0.243,0.234,0.458,0.492,0.692,0.798c-0.992,0.279-2.036,0.519-3.083,0.729
								c-0.543,0.109-1.092,0.206-1.639,0.294c0.203,0.225,0.397,0.443,0.585,0.665c0.565-0.094,1.135-0.197,1.703-0.31
								c0.983-0.197,1.957-0.422,2.895-0.674c0.197,0.349,0.349,0.704,0.431,1.056c-1.005,0.285-2.082,0.54-3.193,0.759
								c-0.346,0.066-0.692,0.136-1.041,0.194c0.17,0.234,0.319,0.465,0.455,0.689c0.419-0.073,0.835-0.151,1.253-0.233
								c0.911-0.182,1.806-0.386,2.659-0.61c0.03,0.41-0.009,0.81-0.127,1.195c-0.841,0.219-1.642,0.413-2.428,0.564
								c-0.271,0.058-0.543,0.104-0.816,0.155c0.1,0.243,0.188,0.488,0.246,0.716c0.416-0.073,0.823-0.143,1.229-0.221
								c0.465-0.094,0.941-0.194,1.412-0.313c-0.252,0.486-0.61,0.956-1.047,1.408l-0.252,0.055c-0.4,0.079-0.801,0.155-1.202,0.225
								c-0.009,0.295-0.042,0.54-0.094,0.768c0.128-0.018,0.258-0.042,0.389-0.063c-0.146,0.104-0.3,0.21-0.455,0.312
								c-0.097,0.343-0.237,0.622-0.349,0.844c-0.119,0.213-0.246,0.425-0.389,0.619c-0.009,0.019-0.018,0.036-0.027,0.049
								c1.524-0.674,2.783-1.487,3.706-2.395c0.792-0.771,1.323-1.597,1.605-2.44c0.206-0.683,0.237-1.396,0.1-2.118
								c-0.146-0.628-0.416-1.25-0.838-1.857c-0.307-0.452-0.613-0.813-0.95-1.144c-0.346-0.337-0.771-0.674-1.314-1.068
								c-0.755-0.546-1.636-1.056-2.637-1.518c-1.126-0.525-2.358-0.983-3.663-1.363c-1.612-0.467-3.369-0.837-5.211-1.092
								c-2.179-0.297-4.395-0.419-6.631-0.374c0.076,0.006,0.143,0.018,0.203,0.03C45.862,98.965,46.271,99.046,46.693,99.153z"/>
						</g>
					</g>
					<g>
						<g>
							<path fill="#F5905F" d="M60.49,114.452l-0.006,0.003c-0.027,0.012-0.049,0.021-0.076,0.03
								C60.439,114.477,60.46,114.461,60.49,114.452z"/>
						</g>
					</g>
					<g>
						<g>
							<path fill="#F5905F" d="M60.603,114.397c-0.015,0.006-0.024,0.009-0.039,0.015c0,0-0.006,0.007-0.012,0.01l0.006,0.003h0.006
								l0.164-0.052c0.119-0.033,0.207-0.082,0.258-0.14c0.009-0.012,0.019-0.024,0.027-0.033c0.009-0.013,0.019-0.03,0.024-0.043
								l-0.179,0.134C60.785,114.321,60.712,114.354,60.603,114.397z"/>
						</g>
					</g>
					<g>
						<g>
							<path fill="#F5905F" d="M60.5,114.443c-0.03,0.018-0.058,0.03-0.091,0.042c-0.601,0.258-1.253,0.498-1.93,0.713
								c0.695-0.228,1.357-0.47,1.991-0.743h0.015C60.49,114.452,60.493,114.443,60.5,114.443z"/>
						</g>
					</g>
					<g>
						<g>
							<path fill="#F5905F" d="M60.478,114.452l0.006,0.003h-0.015C60.475,114.455,60.478,114.455,60.478,114.452z"/>
						</g>
					</g>
					<g>
						<g>
							<path fill="#F8A366" d="M53.883,114.704c-0.665,0.307-1.39,0.458-1.909,0.634c-0.191,0.064-0.358,0.128-0.503,0.201
								c1.308-0.149,2.662-0.368,3.96-0.626c1.451-0.288,2.841-0.634,4.04-1.011l0.127-0.058c0.1-0.157,0.203-0.312,0.292-0.488
								c0.115-0.222,0.249-0.51,0.349-0.865c-1.436,0.489-3.111,0.923-4.956,1.29c-0.14,0.027-0.279,0.058-0.419,0.085
								C54.675,114.222,54.308,114.504,53.883,114.704z"/>
						</g>
					</g>
					<g>
						<g>
							<path fill="#86C670" d="M33.428,101.863c-5.438,2.388-7.257,6.088-3.924,9.345l-0.707,0.14l0.707-0.14
								c3.523,3.438,11.694,5.313,19.782,4.844c0.012-0.058,0.037-0.112,0.067-0.17c0.197-0.364,0.559-0.649,1.001-0.856
								c0.662-0.303,1.39-0.455,1.897-0.625c0.528-0.188,0.865-0.334,1.092-0.726c0.161-0.3,0.197-0.504,0.17-0.655
								c-0.031-0.146-0.116-0.255-0.246-0.389c-0.161-0.157-0.413-0.354-0.686-0.622c-0.185-0.179-0.379-0.382-0.549-0.644
								c-0.31-0.464-0.385-0.813-0.452-1.074c-0.058-0.267-0.097-0.431-0.273-0.595c-0.143-0.149-0.416-0.325-1.026-0.583
								c-0.437-0.182-0.795-0.271-1.187-0.307c-0.583-0.076-1.266-0.049-2.109-0.064c-0.841-0.033-1.864-0.161-2.786-0.555
								c-0.461-0.197-0.78-0.401-0.989-0.604c-0.355-0.364-0.389-0.698-0.428-0.974c-0.042-0.286-0.082-0.513-0.297-0.723
								c-0.125-0.118-0.312-0.243-0.631-0.382c-0.437-0.185-0.807-0.261-1.187-0.312c-0.577-0.063-1.26-0.037-2.112-0.063
								c-0.841-0.019-1.875-0.152-2.783-0.553c-0.397-0.164-0.677-0.361-0.877-0.555c-0.395-0.379-0.479-0.768-0.546-1.105
								c-0.076-0.337-0.143-0.628-0.328-0.792c-0.079-0.073-0.164-0.13-0.285-0.173C33.652,101.917,33.555,101.891,33.428,101.863z"
								/>
						</g>
					</g>
				</g>
				<g>
					<g>
						<path fill="#F8A366" d="M59.176,106.352c0.546-0.088,1.096-0.185,1.639-0.294c1.047-0.209,2.091-0.449,3.083-0.729
							c-0.233-0.307-0.449-0.564-0.692-0.798c-0.252-0.246-0.549-0.489-0.904-0.768c-1.126,0.146-2.234,0.325-3.299,0.538
							c-0.538,0.106-1.065,0.225-1.579,0.346c0.003,0,0.012,0.006,0.019,0.012c0.294,0.27,0.583,0.54,0.883,0.829
							c0.301,0.303,0.568,0.574,0.835,0.856C59.167,106.343,59.173,106.349,59.176,106.352z"/>
					</g>
				</g>
				<g>
					<g>
						<path fill="#F8A366" d="M60.557,108.042c0.349-0.058,0.695-0.127,1.041-0.194c1.111-0.219,2.188-0.474,3.193-0.759
							c-0.082-0.352-0.234-0.708-0.431-1.056c-0.938,0.252-1.912,0.477-2.895,0.674c-0.568,0.112-1.138,0.215-1.703,0.31
							c0.264,0.306,0.504,0.619,0.723,0.925C60.505,107.976,60.533,108.009,60.557,108.042z"/>
					</g>
				</g>
			</g>
		</g>
	</g>
	<g>
		<g>
			<g>
				<path fill="#372F16" d="M133.153,65.586c15.84,0,28.684,5.736,28.684,12.811v27.84v0.649h-0.073
					c-0.762,6.774-13.257,12.161-28.61,12.161c-15.351,0-27.849-5.387-28.607-12.161h-0.073V78.396
					C104.473,71.322,117.313,65.586,133.153,65.586z"/>
				<path fill="#372F16" d="M133.153,120.601c-15.336,0-27.706-5.138-29.864-12.161h-0.297l-0.073-1.554V78.396
					c0-8.055,13.281-14.364,30.234-14.364c16.956,0,30.237,6.31,30.237,14.364v30.043h-0.37
					C160.856,115.463,148.489,120.601,133.153,120.601z M106.027,106.331l0.063,0.382c0.579,5.184,11.093,10.78,27.062,10.78
					s26.483-5.597,27.065-10.78l0.064-0.562V78.396c0-5.436-10.902-11.256-27.13-11.256c-16.225,0-27.126,5.821-27.126,11.256
					V106.331z"/>
			</g>
			<g>
				<ellipse fill="#F0F4F7" cx="133.155" cy="78.396" rx="28.682" ry="12.811"/>
				<path fill="#372F16" d="M133.153,92.761c-16.953,0-30.234-6.31-30.234-14.365c0-8.055,13.281-14.364,30.234-14.364
					c16.956,0,30.237,6.31,30.237,14.364C163.391,86.452,150.109,92.761,133.153,92.761z M133.153,67.14
					c-16.225,0-27.126,5.821-27.126,11.256c0,5.436,10.901,11.257,27.126,11.257c16.228,0,27.13-5.821,27.13-11.257
					C160.283,72.961,149.381,67.14,133.153,67.14z"/>
			</g>
			<g>
				<g>
					<g>
						<path fill="#F8A366" d="M140.449,81.93c0.052-0.009,0.101-0.019,0.148-0.024c2.319-0.464,4.498-1.065,6.049-1.712
							c-0.146-0.307-0.324-0.622-0.531-0.944c-1.557,0.571-3.511,1.093-5.587,1.502c-0.197,0.036-0.392,0.076-0.589,0.112
							c0.058,0.243,0.118,0.51,0.373,0.883C140.355,81.814,140.404,81.872,140.449,81.93z"/>
					</g>
				</g>
				<g>
					<g>
						<path fill="#F8A366" d="M135.129,70.166c0.155,0.042,0.312,0.091,0.471,0.14c0.124-0.027,0.242-0.055,0.367-0.079
							C135.69,70.202,135.411,70.178,135.129,70.166z"/>
					</g>
				</g>
				<g>
					<g>
						<path fill="#F5905F" d="M131.235,69.422c0.03,0,0.058,0,0.091-0.003c-0.033,0.003-0.066,0.003-0.109,0.003
							C131.22,69.422,131.229,69.422,131.235,69.422z"/>
					</g>
				</g>
				<g>
					<g>
						<path fill="#F5905F" d="M131.235,69.422c-0.021,0-0.043,0-0.067,0c-0.061,0.003-0.118,0.006-0.182,0.009
							C131.068,69.429,131.15,69.425,131.235,69.422z"/>
					</g>
				</g>
				<g>
					<g>
						<path fill="#F5905F" d="M131.217,69.422c-0.018,0-0.033,0-0.049,0C131.184,69.422,131.199,69.422,131.217,69.422z"/>
					</g>
				</g>
				<g enable-background="new    ">
					<g>
						<g>
							<path fill="#F5905F" d="M131.369,69.413l0.2-0.018c0.103-0.012,0.249-0.006,0.385,0.012c0.076,0.006,0.144,0.015,0.204,0.033
								l-0.353-0.027l-0.307,0.006c-0.039,0-0.082,0-0.118,0c-0.024,0-0.036,0-0.055,0
								C131.342,69.419,131.354,69.413,131.369,69.413z"/>
						</g>
					</g>
					<g>
						<g>
							<path fill="#F5905F" d="M147.275,85.016c-0.007,0-0.013,0-0.013,0.009l-0.003,0.003c0.024-0.012,0.049-0.019,0.07-0.03
								h-0.004C147.309,84.998,147.29,85.01,147.275,85.016z"/>
						</g>
					</g>
					<g>
						<g>
							<path fill="#F5905F" d="M137.588,86.91c0,0.012,0,0.024,0,0.037c0.003,0.133-0.18,0.261-0.449,0.312
								c1.645-0.115,3.25-0.325,4.756-0.622c1.184-0.234,2.303-0.525,3.356-0.865c0.698-0.228,1.362-0.47,1.99-0.743
								c0.021-0.003,0.024-0.012,0.034-0.012c0.015-0.006,0.033-0.018,0.051-0.018c0.027-0.016,0.04-0.021,0.049-0.027
								c-0.03,0.015-0.069,0.027-0.112,0.045c-1.375,0.443-2.865,0.819-4.452,1.132C141.071,86.497,139.29,86.755,137.588,86.91z"/>
						</g>
					</g>
					<g>
						<g>
							<path fill="#F5905F" d="M122.671,73.374c1.645-0.68,3.83-1.302,6.304-1.794c1.839-0.367,3.708-0.631,5.478-0.78
								c-0.671-0.2-1.26-0.349-1.712-0.456c-0.346-0.085-0.701-0.154-1.102-0.23c-1.565,0.158-3.135,0.392-4.606,0.686
								c-1.931,0.382-3.7,0.859-5.12,1.378c-0.122-0.07-0.252-0.134-0.407-0.194c-0.261-0.097-0.582-0.176-0.943-0.23
								c1.593-0.61,3.636-1.172,5.852-1.609c1.557-0.31,3.204-0.552,4.979-0.722l0.106-0.003l0.307-0.006l0.422,0.04
								c0.41,0.085,0.819,0.17,1.244,0.273c0.449,0.103,1.011,0.246,1.657,0.44c0.155,0.042,0.312,0.091,0.471,0.14
								c0.425,0.133,0.871,0.291,1.375,0.479c0.634,0.249,1.26,0.513,1.863,0.804c0.355,0.179,0.716,0.367,1.065,0.564
								c0.058,0.027,0.112,0.061,0.17,0.091c0.434,0.246,0.864,0.513,1.293,0.792c0.294,0.194,0.582,0.395,0.864,0.61
								c0.046,0.027,0.089,0.058,0.125,0.085c0.386,0.279,0.75,0.564,1.102,0.856c0.252,0.203,0.495,0.41,0.762,0.644
								c0.295,0.27,0.586,0.54,0.88,0.832c0.307,0.3,0.574,0.57,0.854,0.865c0.203,0.222,0.397,0.443,0.582,0.662
								c0.265,0.307,0.504,0.622,0.726,0.929c0.024,0.037,0.046,0.067,0.07,0.103c0.17,0.228,0.318,0.461,0.458,0.683
								c0.197,0.325,0.358,0.649,0.485,0.95c0.021,0.043,0.039,0.082,0.055,0.122c0.104,0.246,0.186,0.489,0.249,0.719
								c0.1,0.397,0.146,0.774,0.14,1.175c-0.013,0.27-0.046,0.516-0.098,0.743c-0.021,0.088-0.042,0.17-0.066,0.249
								c-0.104,0.343-0.236,0.625-0.352,0.844c-0.119,0.215-0.243,0.425-0.389,0.625l-0.183,0.134
								c-0.066,0.03-0.14,0.067-0.255,0.106c-0.03,0.015-0.069,0.027-0.112,0.045c-1.375,0.443-2.865,0.819-4.452,1.132
								c-1.736,0.349-3.521,0.607-5.223,0.762c0-0.088,0.021-0.179,0.084-0.276c0.134-0.24,0.322-0.398,0.568-0.522
								c1.316-0.149,2.667-0.368,3.963-0.625c1.454-0.285,2.841-0.631,4.043-1.011l0.125-0.058c0.105-0.155,0.203-0.312,0.294-0.488
								c0.112-0.216,0.246-0.51,0.352-0.865c-1.441,0.489-3.113,0.926-4.962,1.29c-0.137,0.03-0.276,0.058-0.409,0.07
								c0.173-0.319,0.236-0.577,0.218-0.808c2.019-0.428,3.867-0.959,5.275-1.514c0-0.355-0.058-0.716-0.18-1.093
								c-1.562,0.58-3.554,1.114-5.66,1.533c-0.063,0.012-0.137,0.024-0.203,0.04c-0.1-0.091-0.203-0.182-0.31-0.279
								c-0.112-0.115-0.225-0.23-0.337-0.373c0.052-0.009,0.101-0.019,0.148-0.024c2.319-0.464,4.498-1.065,6.049-1.712
								c-0.146-0.307-0.324-0.622-0.531-0.944c-1.557,0.571-3.511,1.093-5.587,1.502c-0.197,0.036-0.392,0.076-0.589,0.112
								c-0.006-0.019-0.012-0.04-0.016-0.058c-0.051-0.216-0.088-0.431-0.27-0.665c0.066-0.015,0.137-0.027,0.203-0.039
								c2.183-0.434,4.23-0.993,5.751-1.59c-0.228-0.301-0.47-0.598-0.728-0.896c-1.46,0.507-3.229,0.962-5.093,1.333
								c-0.51,0.103-1.023,0.194-1.539,0.276c-0.036-0.009-0.076-0.027-0.112-0.045c-0.504-0.218-1.038-0.355-1.569-0.434
								c0.862-0.127,1.721-0.273,2.559-0.443c1.906-0.376,3.706-0.853,5.126-1.369c-0.176-0.191-0.373-0.386-0.579-0.586
								c-0.207-0.2-0.401-0.392-0.607-0.571c-1.83,0.125-3.833,0.407-5.745,0.786c-2.104,0.419-4.088,0.953-5.594,1.53
								c-0.133-0.076-0.221-0.143-0.294-0.218c-0.167-0.149-0.233-0.316-0.265-0.495c1.53-0.555,3.421-1.065,5.464-1.469
								c1.908-0.376,3.845-0.649,5.681-0.795c-0.334-0.286-0.68-0.559-1.034-0.832c-2.03,0.104-4.341,0.41-6.522,0.844
								c-1.472,0.289-2.88,0.638-4.104,1.017c-0.209-0.191-0.521-0.388-0.956-0.576c1.296-0.413,2.771-0.783,4.383-1.105
								c2.131-0.422,4.271-0.707,6.276-0.834c-0.416-0.285-0.829-0.552-1.251-0.801c-2.13,0.079-4.589,0.397-6.901,0.856
								c-1.888,0.373-3.672,0.84-5.104,1.351c-0.058-0.006-0.121-0.006-0.186-0.006c-0.847-0.03-1.532,0-2.1-0.076
								c-0.392-0.04-0.753-0.122-1.189-0.31c-0.243-0.1-0.398-0.207-0.525-0.328c-0.268-0.246-0.343-0.552-0.416-0.877
								C122.677,73.413,122.674,73.395,122.671,73.374z M125.159,74.843c1.657-0.686,3.888-1.323,6.364-1.818
								c2.14-0.422,4.364-0.716,6.389-0.847c-0.559-0.286-1.135-0.541-1.729-0.774c-2.049,0.1-4.322,0.382-6.553,0.825
								c-2.537,0.501-4.759,1.15-6.307,1.846C123.869,74.324,124.498,74.576,125.159,74.843"/>
						</g>
					</g>
					<g>
						<g>
							<path fill="#F5905F" d="M132.228,69.453c-0.009-0.003-0.021-0.006-0.03-0.012v0.006
								C132.206,69.447,132.219,69.45,132.228,69.453z"/>
						</g>
					</g>
					<g>
						<g>
							<path fill="#F8A366" d="M138.419,70.491l-0.264,0.048c-0.407,0.076-0.792,0.161-1.181,0.246
								c0.634,0.249,1.26,0.513,1.863,0.804c0.397-0.085,0.798-0.17,1.208-0.249c0.461-0.1,0.943-0.182,1.444-0.27
								C140.51,70.837,139.472,70.643,138.419,70.491z"/>
						</g>
					</g>
					<g>
						<g>
							<path fill="#F5905F" d="M124.986,70.133c-1.942,0.382-3.739,0.917-5.326,1.587c0.127-0.021,0.264-0.03,0.403-0.021
								l0.155,0.012l0.069,0.006c0.091,0.012,0.183,0.021,0.273,0.037c1.593-0.61,3.636-1.172,5.852-1.609
								c1.557-0.31,3.204-0.552,4.979-0.722l0.106-0.003c-0.039,0-0.082,0-0.118,0c-0.024,0-0.036,0-0.055,0
								c-0.033,0.003-0.061,0.003-0.091,0.003c-0.085,0.003-0.167,0.006-0.249,0.009c-0.042,0-0.079,0.003-0.124,0.009
								c-0.019,0-0.049,0-0.07,0c-0.822,0.042-1.63,0.1-2.422,0.186C127.192,69.744,126.069,69.914,124.986,70.133z"/>
						</g>
					</g>
					<g>
						<g>
							<path fill="#F8A366" d="M141.366,73.037c0.403-0.094,0.813-0.179,1.235-0.261c0.913-0.182,1.854-0.337,2.792-0.47
								c-0.689-0.273-1.394-0.531-2.122-0.756c-0.959,0.143-1.781,0.279-2.567,0.428c-0.272,0.061-0.54,0.116-0.801,0.176
								c0.058,0.027,0.112,0.061,0.17,0.091C140.507,72.491,140.938,72.758,141.366,73.037z"/>
						</g>
					</g>
					<g>
						<g>
							<path fill="#5FAB45" d="M119.66,71.72c-0.104,0.019-0.183,0.042-0.243,0.073c-6.137,2.568-8.261,6.668-4.567,10.273
								l0.719-0.146l0.714-0.14c-3.339-3.253-1.523-6.956,3.915-9.342c0.134,0.027,0.228,0.058,0.315,0.085
								c0.121,0.046,0.203,0.1,0.279,0.179c0.191,0.158,0.255,0.449,0.331,0.786c0.066,0.337,0.151,0.726,0.546,1.108
								c0.197,0.194,0.477,0.391,0.877,0.555c0.907,0.397,1.939,0.531,2.786,0.549c0.85,0.03,1.533,0,2.109,0.064
								c0.38,0.051,0.747,0.127,1.189,0.312c0.312,0.14,0.501,0.264,0.629,0.385c0.215,0.209,0.252,0.434,0.297,0.719
								c0.04,0.279,0.073,0.616,0.428,0.975c0.21,0.203,0.528,0.406,0.993,0.604c0.916,0.398,1.945,0.525,2.78,0.556
								c0.85,0.018,1.526-0.012,2.115,0.067c0.382,0.039,0.746,0.121,1.184,0.306c0.606,0.258,0.88,0.431,1.028,0.58
								c0.173,0.164,0.213,0.328,0.273,0.595c0.063,0.261,0.143,0.61,0.449,1.074c0.17,0.261,0.367,0.464,0.552,0.644
								c0.271,0.27,0.52,0.467,0.684,0.622c0.133,0.134,0.215,0.246,0.242,0.392c0.033,0.148-0.009,0.352-0.164,0.655
								c-0.228,0.389-0.564,0.538-1.095,0.726c-0.511,0.167-1.238,0.322-1.9,0.625c-0.437,0.204-0.801,0.489-0.995,0.859
								c-0.033,0.052-0.055,0.106-0.07,0.164c-8.091,0.47-16.261-1.405-19.778-4.844l-0.714,0.14l-0.719,0.146
								c3.934,3.839,13.129,5.867,22.088,5.214c0.067-0.003,0.125-0.009,0.18-0.019c0.291-0.055,0.474-0.182,0.471-0.315
								c0-0.125,0.021-0.216,0.084-0.312c0.134-0.24,0.322-0.398,0.568-0.522c0.151-0.073,0.321-0.137,0.507-0.201
								c0.521-0.173,1.247-0.325,1.909-0.634c0.425-0.2,0.798-0.479,0.986-0.834c0.176-0.337,0.239-0.595,0.221-0.826
								c0-0.021,0-0.04-0.003-0.061c-0.036-0.24-0.197-0.455-0.395-0.637c-0.115-0.115-0.242-0.225-0.37-0.337
								c-0.1-0.091-0.203-0.182-0.31-0.279c-0.112-0.115-0.225-0.23-0.337-0.373c-0.045-0.058-0.094-0.116-0.137-0.183
								c-0.255-0.373-0.315-0.64-0.373-0.883c-0.006-0.019-0.012-0.04-0.016-0.058c-0.051-0.216-0.088-0.431-0.27-0.665
								c-0.036-0.051-0.082-0.103-0.14-0.161c-0.246-0.234-0.638-0.477-1.266-0.756c-0.036-0.009-0.076-0.027-0.112-0.045
								c-0.504-0.218-1.038-0.355-1.569-0.434c-0.428-0.07-0.847-0.106-1.229-0.118c-0.844-0.015-1.533,0.006-2.098-0.067
								c-0.389-0.036-0.753-0.121-1.187-0.31c-0.134-0.052-0.243-0.103-0.328-0.158c-0.133-0.076-0.221-0.143-0.294-0.218
								c-0.167-0.149-0.233-0.316-0.265-0.495c-0.021-0.07-0.03-0.146-0.039-0.228c-0.042-0.276-0.079-0.616-0.443-0.968
								c-0.242-0.23-0.555-0.428-0.974-0.604c-0.868-0.379-1.81-0.516-2.613-0.546c-0.058-0.006-0.121-0.006-0.186-0.006
								c-0.847-0.03-1.532,0-2.1-0.076c-0.392-0.04-0.753-0.122-1.189-0.31c-0.243-0.1-0.398-0.207-0.525-0.328
								c-0.268-0.246-0.343-0.552-0.416-0.877c-0.006-0.024-0.009-0.042-0.012-0.063c-0.07-0.31-0.118-0.641-0.443-0.959
								c-0.088-0.082-0.191-0.164-0.315-0.237c-0.122-0.07-0.252-0.134-0.407-0.194c-0.261-0.097-0.582-0.176-0.943-0.23
								c-0.091-0.015-0.183-0.024-0.273-0.037l-0.225-0.018C119.924,71.689,119.787,71.699,119.66,71.72z"/>
						</g>
					</g>
					<g>
						<g>
							<path fill="#F8A366" d="M122.671,73.374c1.645-0.68,3.83-1.302,6.304-1.794c1.839-0.367,3.708-0.631,5.478-0.78
								c-0.671-0.2-1.26-0.349-1.712-0.456c-0.346-0.085-0.701-0.154-1.037-0.23h-0.064c-1.565,0.158-3.135,0.392-4.606,0.686
								c-1.931,0.382-3.7,0.859-5.12,1.378c0.124,0.073,0.228,0.155,0.315,0.237C122.553,72.733,122.601,73.064,122.671,73.374z"/>
						</g>
					</g>
					<g>
						<g>
							<path fill="#F8A366" d="M143.457,74.588c0.553-0.127,1.117-0.252,1.693-0.367c0.983-0.197,1.991-0.361,3.023-0.501
								c-0.456-0.291-0.963-0.58-1.509-0.84c-1.145,0.143-2.295,0.325-3.402,0.549c-0.346,0.066-0.692,0.14-1.032,0.218
								c0.046,0.027,0.089,0.058,0.125,0.085C142.741,74.011,143.105,74.296,143.457,74.588z"/>
						</g>
					</g>
					<g>
						<g>
							<path fill="#F8A366" d="M129.63,72.229c-2.537,0.501-4.759,1.15-6.307,1.846c0.546,0.249,1.175,0.5,1.836,0.768
								c1.657-0.686,3.888-1.323,6.364-1.818c2.14-0.422,4.364-0.716,6.389-0.847c-0.559-0.286-1.135-0.541-1.729-0.774
								C134.134,71.504,131.86,71.787,129.63,72.229z"/>
						</g>
					</g>
					<g>
						<g>
							<path fill="#F8A366" d="M129.696,75.568c1.296-0.413,2.771-0.783,4.383-1.105c2.131-0.422,4.271-0.707,6.276-0.834
								c-0.416-0.285-0.829-0.552-1.251-0.801c-2.13,0.079-4.589,0.397-6.901,0.856c-1.888,0.373-3.672,0.84-5.104,1.351
								C127.902,75.064,128.844,75.201,129.696,75.568z"/>
						</g>
					</g>
					<g>
						<g>
							<path fill="#F8A366" d="M131.168,77.38c1.53-0.555,3.421-1.065,5.464-1.469c1.908-0.376,3.845-0.649,5.681-0.795
								c-0.334-0.286-0.68-0.559-1.034-0.832c-2.03,0.104-4.341,0.41-6.522,0.844c-1.472,0.289-2.88,0.638-4.104,1.017
								c0.01,0.012,0.024,0.024,0.033,0.04c0.364,0.352,0.401,0.692,0.443,0.968C131.138,77.234,131.147,77.31,131.168,77.38z"/>
						</g>
					</g>
					<g>
						<g>
							<path fill="#F8A366" d="M136.567,78.746c0.862-0.127,1.721-0.273,2.559-0.443c1.906-0.376,3.706-0.853,5.126-1.369
								c-0.176-0.191-0.373-0.386-0.579-0.586c-0.207-0.2-0.401-0.392-0.607-0.571c-1.83,0.125-3.833,0.407-5.745,0.786
								c-2.104,0.419-4.088,0.953-5.594,1.53c0.085,0.055,0.194,0.106,0.328,0.158c0.434,0.188,0.798,0.273,1.187,0.31
								c0.564,0.073,1.254,0.052,2.098,0.067C135.721,78.64,136.14,78.676,136.567,78.746z"/>
						</g>
					</g>
					<g>
						<g>
							<path fill="#F8A366" d="M139.654,80.142c0.066-0.015,0.137-0.027,0.203-0.039c2.183-0.434,4.23-0.993,5.751-1.59
								c-0.228-0.301-0.47-0.598-0.728-0.896c-1.46,0.507-3.229,0.962-5.093,1.333c-0.51,0.103-1.023,0.194-1.539,0.276
								c0.628,0.279,1.02,0.522,1.266,0.756C139.572,80.039,139.618,80.09,139.654,80.142z"/>
						</g>
					</g>
					<g>
						<g>
							<path fill="#F8A366" d="M148.328,80.375c0.273-0.052,0.543-0.097,0.813-0.149c0.789-0.158,1.59-0.346,2.434-0.57
								c0.112-0.382,0.155-0.783,0.125-1.193c-0.853,0.225-1.751,0.428-2.659,0.613c-0.419,0.082-0.834,0.155-1.253,0.228
								c0.197,0.325,0.358,0.649,0.485,0.95C148.295,80.297,148.312,80.336,148.328,80.375z"/>
						</g>
					</g>
					<g>
						<g>
							<path fill="#F8A366" d="M149.803,80.87c-0.406,0.082-0.816,0.152-1.226,0.225c0.1,0.397,0.146,0.774,0.14,1.153
								c0.397-0.07,0.801-0.146,1.198-0.228l0.255-0.052c0.435-0.455,0.793-0.926,1.041-1.408
								C150.741,80.676,150.268,80.776,149.803,80.87z"/>
						</g>
					</g>
					<g>
						<g>
							<path fill="#F8A366" d="M149.008,82.949c-0.131,0.024-0.258,0.045-0.389,0.063c-0.021,0.088-0.042,0.17-0.066,0.249
								C148.711,83.159,148.856,83.052,149.008,82.949z"/>
						</g>
					</g>
					<g>
						<g>
							<path fill="#F8A366" d="M141.86,83.556c0.003,0.021,0.003,0.04,0.003,0.061c2.019-0.428,3.867-0.959,5.275-1.514
								c0-0.355-0.058-0.716-0.18-1.093c-1.562,0.58-3.554,1.114-5.66,1.533c-0.063,0.012-0.137,0.024-0.203,0.04
								c0.128,0.112,0.255,0.222,0.37,0.337C141.663,83.101,141.824,83.316,141.86,83.556z"/>
						</g>
					</g>
					<g>
						<g>
							<path fill="#F5905F" d="M133.472,69.726c0.449,0.103,1.011,0.246,1.657,0.44c0.282,0.012,0.562,0.036,0.838,0.061
								c-0.125,0.024-0.243,0.052-0.367,0.079c0.425,0.133,0.871,0.291,1.335,0.464c0.429-0.07,0.813-0.155,1.221-0.231l0.264-0.048
								c1.053,0.152,2.091,0.346,3.071,0.58c-0.501,0.088-0.983,0.17-1.444,0.27c-0.41,0.079-0.811,0.164-1.208,0.249
								c0.355,0.179,0.716,0.367,1.065,0.564c0.261-0.061,0.528-0.115,0.801-0.176c0.786-0.148,1.608-0.285,2.567-0.428
								c0.729,0.225,1.433,0.482,2.122,0.756c-0.938,0.133-1.879,0.288-2.792,0.47c-0.422,0.082-0.832,0.167-1.235,0.261
								c0.294,0.194,0.582,0.395,0.864,0.61c0.34-0.079,0.687-0.152,1.032-0.218c1.107-0.225,2.258-0.407,3.402-0.549
								c0.546,0.261,1.053,0.549,1.509,0.84c-1.032,0.14-2.04,0.304-3.023,0.501c-0.576,0.115-1.141,0.24-1.693,0.367
								c0.252,0.203,0.495,0.41,0.746,0.631c0.508-0.122,1.038-0.237,1.575-0.346c1.062-0.212,2.174-0.392,3.296-0.537
								c0.361,0.279,0.656,0.525,0.911,0.768c0.239,0.233,0.455,0.495,0.688,0.798c-0.995,0.282-2.033,0.519-3.086,0.729
								c-0.547,0.112-1.093,0.207-1.636,0.297c0.203,0.222,0.397,0.443,0.582,0.662c0.567-0.094,1.139-0.197,1.709-0.31
								c0.98-0.197,1.951-0.419,2.893-0.67c0.197,0.346,0.346,0.704,0.431,1.056c-1.002,0.285-2.085,0.54-3.189,0.755
								c-0.347,0.07-0.695,0.137-1.047,0.2c0.17,0.228,0.318,0.461,0.458,0.683c0.419-0.073,0.834-0.146,1.253-0.228
								c0.908-0.185,1.807-0.389,2.659-0.613c0.03,0.41-0.013,0.811-0.125,1.193c-0.844,0.225-1.645,0.413-2.434,0.57
								c-0.271,0.052-0.54,0.097-0.813,0.149c0.104,0.246,0.186,0.489,0.249,0.719c0.409-0.073,0.819-0.143,1.226-0.225
								c0.465-0.094,0.938-0.194,1.408-0.31c-0.248,0.482-0.606,0.953-1.041,1.408l-0.255,0.052
								c-0.397,0.082-0.801,0.158-1.198,0.228c-0.013,0.292-0.046,0.537-0.098,0.765c0.131-0.018,0.258-0.039,0.389-0.063
								c-0.151,0.103-0.297,0.209-0.455,0.312c-0.104,0.343-0.236,0.625-0.352,0.844c-0.119,0.215-0.243,0.425-0.383,0.622
								c-0.013,0.019-0.021,0.034-0.03,0.046c1.523-0.674,2.786-1.487,3.702-2.392c0.796-0.771,1.326-1.6,1.608-2.443
								c0.204-0.683,0.237-1.39,0.104-2.118c-0.148-0.625-0.419-1.25-0.841-1.857c-0.303-0.452-0.613-0.813-0.953-1.145
								c-0.343-0.337-0.765-0.67-1.308-1.068c-0.759-0.546-1.639-1.05-2.641-1.514c-1.126-0.525-2.361-0.986-3.66-1.366
								c-1.614-0.467-3.368-0.838-5.214-1.093c-2.176-0.294-4.395-0.416-6.632-0.37c0.076,0.006,0.144,0.015,0.204,0.033
								C132.638,69.538,133.047,69.623,133.472,69.726z"/>
						</g>
					</g>
					<g>
						<g>
							<path fill="#F5905F" d="M147.263,85.025l-0.003,0.003c-0.024,0.012-0.049,0.024-0.079,0.036
								C147.214,85.052,147.235,85.034,147.263,85.025z"/>
						</g>
					</g>
					<g>
						<g>
							<path fill="#F5905F" d="M147.375,84.971c-0.009,0.006-0.021,0.012-0.033,0.018c-0.006,0.003-0.012,0.006-0.016,0.009h0.004
								h0.012l0.158-0.049c0.124-0.037,0.209-0.085,0.264-0.143c0.006-0.009,0.016-0.021,0.024-0.033
								c0.009-0.012,0.018-0.027,0.024-0.043l-0.183,0.134C147.563,84.895,147.49,84.931,147.375,84.971z"/>
						</g>
					</g>
					<g>
						<g>
							<path fill="#F5905F" d="M147.275,85.016c-0.031,0.018-0.055,0.03-0.095,0.048c-0.601,0.255-1.247,0.492-1.93,0.707
								c0.698-0.228,1.362-0.47,1.99-0.743h0.019C147.263,85.025,147.266,85.016,147.275,85.016z"/>
						</g>
					</g>
					<g>
						<g>
							<path fill="#F5905F" d="M147.254,85.025l0.006,0.003h-0.019C147.248,85.028,147.251,85.028,147.254,85.025z"/>
						</g>
					</g>
					<g>
						<g>
							<path fill="#F8A366" d="M140.656,85.277c-0.662,0.31-1.388,0.461-1.909,0.634c-0.186,0.064-0.355,0.127-0.507,0.201
								c1.316-0.149,2.667-0.368,3.963-0.625c1.454-0.285,2.841-0.631,4.043-1.011l0.125-0.058c0.105-0.155,0.203-0.312,0.294-0.488
								c0.112-0.216,0.246-0.51,0.352-0.865c-1.441,0.489-3.113,0.926-4.962,1.29c-0.137,0.03-0.276,0.058-0.412,0.088
								C141.454,84.797,141.081,85.077,140.656,85.277z"/>
						</g>
					</g>
					<g>
						<g>
							<path fill="#86C670" d="M120.197,72.439c-5.438,2.386-7.254,6.088-3.915,9.342l-0.714,0.14l0.714-0.14
								c3.518,3.438,11.688,5.314,19.778,4.844c0.016-0.058,0.037-0.112,0.07-0.164c0.194-0.37,0.559-0.655,0.995-0.859
								c0.662-0.303,1.39-0.458,1.9-0.625c0.53-0.188,0.867-0.337,1.095-0.726c0.155-0.303,0.197-0.507,0.164-0.655
								c-0.027-0.146-0.109-0.258-0.242-0.392c-0.164-0.155-0.413-0.352-0.684-0.622c-0.185-0.179-0.382-0.382-0.552-0.644
								c-0.307-0.464-0.386-0.813-0.449-1.074c-0.061-0.267-0.101-0.431-0.273-0.595c-0.148-0.149-0.422-0.322-1.028-0.58
								c-0.438-0.185-0.802-0.267-1.184-0.306c-0.589-0.079-1.266-0.049-2.115-0.067c-0.835-0.03-1.864-0.158-2.78-0.556
								c-0.465-0.197-0.783-0.4-0.993-0.604c-0.354-0.358-0.388-0.695-0.428-0.975c-0.045-0.285-0.082-0.51-0.297-0.719
								c-0.128-0.121-0.316-0.246-0.629-0.385c-0.442-0.185-0.81-0.261-1.189-0.312c-0.576-0.064-1.26-0.034-2.109-0.064
								c-0.847-0.018-1.879-0.152-2.786-0.549c-0.4-0.164-0.68-0.361-0.877-0.555c-0.395-0.382-0.479-0.771-0.546-1.108
								c-0.076-0.337-0.14-0.628-0.331-0.786c-0.076-0.079-0.158-0.133-0.279-0.179C120.425,72.497,120.331,72.466,120.197,72.439z"
								/>
						</g>
					</g>
				</g>
				<g>
					<g>
						<path fill="#F8A366" d="M145.952,76.928c0.543-0.091,1.089-0.185,1.636-0.297c1.053-0.209,2.091-0.446,3.086-0.729
							c-0.233-0.303-0.449-0.564-0.688-0.798c-0.255-0.243-0.55-0.489-0.911-0.768c-1.122,0.146-2.233,0.325-3.296,0.537
							c-0.537,0.109-1.067,0.225-1.575,0.346c0.004,0,0.01,0.006,0.016,0.012c0.295,0.27,0.586,0.54,0.88,0.832
							c0.307,0.3,0.574,0.57,0.841,0.853C145.942,76.919,145.949,76.922,145.952,76.928z"/>
					</g>
				</g>
				<g>
					<g>
						<path fill="#F8A366" d="M147.33,78.621c0.352-0.063,0.7-0.13,1.047-0.2c1.104-0.215,2.188-0.47,3.189-0.755
							c-0.085-0.352-0.233-0.71-0.431-1.056c-0.941,0.251-1.912,0.473-2.893,0.67c-0.57,0.112-1.142,0.215-1.709,0.31
							c0.265,0.307,0.504,0.622,0.726,0.929C147.284,78.555,147.306,78.585,147.33,78.621z"/>
					</g>
				</g>
			</g>
		</g>
		<g>
			<g>
				<path fill="#372F16" d="M104.312,95.01c15.839,0,28.68,5.736,28.68,12.813v27.839v0.649h-0.072
					c-0.756,6.771-13.26,12.161-28.607,12.161c-15.351,0-27.852-5.39-28.608-12.161h-0.076v-28.489
					C75.629,100.746,88.47,95.01,104.312,95.01z"/>
				<path fill="#372F16" d="M104.312,150.027c-15.339,0-27.707-5.138-29.864-12.16h-0.297l-0.076-1.555v-28.489
					c0-8.058,13.281-14.368,30.238-14.368c16.953,0,30.234,6.31,30.234,14.368v30.043h-0.371
					C132.019,144.89,119.65,150.027,104.312,150.027z M77.183,135.742l0.067,0.397c0.577,5.184,11.09,10.78,27.063,10.78
					c15.973,0,26.485-5.597,27.062-10.78l0.063-0.567v-27.749c0-5.438-10.901-11.26-27.126-11.26c-16.229,0-27.13,5.821-27.13,11.26
					V135.742z"/>
			</g>
			<g>
				<path fill="#F0F4F7" d="M75.629,107.824c0,7.072,12.841,12.811,28.684,12.811c15.839,0,28.68-5.739,28.68-12.811
					c0-7.078-12.841-12.813-28.68-12.813C88.47,95.01,75.629,100.746,75.629,107.824z"/>
				<path fill="#372F16" d="M104.312,122.188c-16.957,0-30.238-6.31-30.238-14.365c0-8.058,13.281-14.368,30.238-14.368
					c16.953,0,30.234,6.31,30.234,14.368C134.547,115.879,121.266,122.188,104.312,122.188z M104.312,96.564
					c-16.229,0-27.13,5.821-27.13,11.26c0,5.436,10.901,11.256,27.13,11.256c16.225,0,27.126-5.82,27.126-11.256
					C131.438,102.385,120.537,96.564,104.312,96.564z"/>
			</g>
			<g>
				<g>
					<g>
						<path fill="#F8A366" d="M111.605,111.356c0.048-0.009,0.103-0.021,0.154-0.027c2.315-0.464,4.495-1.062,6.046-1.712
							c-0.146-0.31-0.325-0.619-0.531-0.94c-1.557,0.567-3.512,1.089-5.591,1.499c-0.193,0.04-0.388,0.073-0.588,0.115
							c0.061,0.243,0.124,0.507,0.373,0.883C111.514,111.238,111.56,111.296,111.605,111.356z"/>
					</g>
				</g>
				<g>
					<g>
						<path fill="#F8A366" d="M106.285,99.587c0.157,0.048,0.312,0.097,0.47,0.146c0.125-0.03,0.249-0.058,0.371-0.082
							C106.847,99.629,106.567,99.605,106.285,99.587z"/>
					</g>
				</g>
				<g>
					<g>
						<path fill="#F5905F" d="M102.391,98.849c0.034,0,0.062,0,0.088-0.006c-0.03,0.006-0.066,0.006-0.103,0.006
							C102.379,98.849,102.385,98.849,102.391,98.849z"/>
					</g>
				</g>
				<g>
					<g>
						<path fill="#F5905F" d="M102.391,98.849c-0.021,0-0.045,0-0.066,0c-0.061,0.003-0.121,0.006-0.182,0.009
							C102.228,98.855,102.309,98.853,102.391,98.849z"/>
					</g>
				</g>
				<g>
					<g>
						<path fill="#F5905F" d="M102.376,98.849c-0.019,0-0.04,0-0.052,0C102.336,98.849,102.357,98.849,102.376,98.849z"/>
					</g>
				</g>
				<g enable-background="new    ">
					<g>
						<g>
							<path fill="#F5905F" d="M102.524,98.837l0.2-0.015c0.106-0.016,0.249-0.006,0.386,0.009c0.076,0.006,0.143,0.018,0.203,0.03
								l-0.352-0.027l-0.307,0.009c-0.043,0-0.079-0.003-0.122,0c-0.018,0-0.033,0-0.055,0
								C102.497,98.84,102.513,98.837,102.524,98.837z"/>
						</g>
					</g>
					<g>
						<g>
							<path fill="#F5905F" d="M118.434,114.443c-0.006,0-0.012,0-0.012,0.009l-0.006,0.003c0.021-0.012,0.048-0.021,0.072-0.03
								l-0.006-0.003C118.464,114.425,118.443,114.437,118.434,114.443z"/>
						</g>
					</g>
					<g>
						<g>
							<path fill="#F5905F" d="M108.743,116.337c0,0.012,0,0.021,0,0.033c0.003,0.134-0.179,0.261-0.449,0.315
								c1.648-0.118,3.251-0.327,4.756-0.622c1.181-0.236,2.301-0.524,3.359-0.865c0.695-0.228,1.356-0.47,1.991-0.743
								c0.021-0.003,0.024-0.012,0.033-0.012c0.01-0.007,0.03-0.019,0.049-0.021c0.027-0.016,0.036-0.019,0.052-0.024
								c-0.033,0.009-0.07,0.027-0.112,0.046c-1.381,0.439-2.871,0.819-4.455,1.132
								C112.228,115.924,110.445,116.182,108.743,116.337z"/>
						</g>
					</g>
					<g>
						<g>
							<path fill="#F5905F" d="M93.826,102.798c1.646-0.677,3.833-1.299,6.301-1.794c1.846-0.364,3.712-0.631,5.481-0.777
								c-0.671-0.2-1.26-0.349-1.709-0.458c-0.353-0.082-0.701-0.152-1.104-0.228c-1.566,0.155-3.133,0.388-4.607,0.686
								c-1.927,0.382-3.699,0.859-5.123,1.375c-0.115-0.07-0.249-0.133-0.406-0.191c-0.258-0.097-0.577-0.179-0.944-0.23
								c1.597-0.61,3.639-1.171,5.854-1.612c1.561-0.306,3.205-0.549,4.983-0.719l0.104-0.006l0.307-0.009l0.422,0.046
								c0.409,0.085,0.822,0.167,1.241,0.273c0.449,0.1,1.02,0.246,1.66,0.434c0.157,0.048,0.312,0.097,0.47,0.146
								c0.425,0.134,0.874,0.285,1.375,0.479c0.641,0.246,1.257,0.507,1.863,0.804c0.358,0.176,0.717,0.364,1.062,0.562
								c0.061,0.027,0.118,0.061,0.173,0.094c0.435,0.246,0.868,0.513,1.296,0.789c0.289,0.194,0.58,0.395,0.865,0.607
								c0.043,0.03,0.085,0.061,0.124,0.088c0.383,0.282,0.75,0.568,1.103,0.856c0.248,0.204,0.494,0.413,0.759,0.646
								c0.294,0.27,0.582,0.54,0.883,0.829c0.301,0.303,0.567,0.574,0.85,0.865c0.203,0.225,0.397,0.443,0.586,0.665
								c0.264,0.306,0.504,0.619,0.723,0.925c0.021,0.034,0.048,0.067,0.072,0.1c0.17,0.234,0.318,0.465,0.455,0.689
								c0.197,0.325,0.361,0.646,0.486,0.95c0.018,0.04,0.042,0.082,0.055,0.122c0.1,0.243,0.188,0.488,0.245,0.716
								c0.106,0.397,0.149,0.777,0.14,1.178c-0.009,0.271-0.042,0.516-0.094,0.743c-0.021,0.085-0.043,0.167-0.066,0.249
								c-0.098,0.343-0.237,0.622-0.35,0.844c-0.118,0.213-0.246,0.425-0.392,0.625l-0.179,0.134
								c-0.073,0.03-0.146,0.063-0.255,0.106c-0.033,0.009-0.07,0.027-0.112,0.046c-1.381,0.439-2.871,0.819-4.455,1.132
								c-1.736,0.349-3.521,0.606-5.224,0.762c0-0.088,0.021-0.183,0.088-0.276c0.131-0.246,0.322-0.397,0.57-0.521
								c1.312-0.149,2.662-0.368,3.961-0.626c1.451-0.288,2.841-0.634,4.04-1.011l0.127-0.058c0.104-0.157,0.203-0.312,0.291-0.488
								c0.115-0.222,0.249-0.51,0.35-0.865c-1.436,0.489-3.111,0.923-4.956,1.29c-0.14,0.027-0.279,0.058-0.41,0.07
								c0.17-0.319,0.234-0.58,0.216-0.808c2.021-0.431,3.869-0.959,5.274-1.518c0-0.353-0.058-0.713-0.182-1.09
								c-1.561,0.58-3.551,1.114-5.657,1.533c-0.063,0.012-0.134,0.021-0.203,0.036c-0.104-0.088-0.204-0.179-0.307-0.282
								c-0.112-0.109-0.225-0.225-0.34-0.367c0.048-0.009,0.103-0.021,0.154-0.027c2.315-0.464,4.495-1.062,6.046-1.712
								c-0.146-0.31-0.325-0.619-0.531-0.94c-1.557,0.567-3.512,1.089-5.591,1.499c-0.193,0.04-0.388,0.073-0.588,0.115
								c-0.007-0.018-0.01-0.042-0.013-0.058c-0.055-0.215-0.091-0.431-0.271-0.665c0.067-0.015,0.134-0.027,0.204-0.042
								c2.179-0.431,4.23-0.989,5.748-1.59c-0.228-0.3-0.468-0.595-0.729-0.892c-1.46,0.507-3.229,0.959-5.093,1.329
								c-0.507,0.103-1.025,0.194-1.535,0.279c-0.037-0.012-0.076-0.027-0.115-0.046c-0.508-0.218-1.041-0.355-1.563-0.437
								c0.855-0.128,1.715-0.273,2.556-0.44c1.902-0.376,3.705-0.853,5.126-1.375c-0.183-0.188-0.376-0.379-0.583-0.58
								c-0.206-0.2-0.4-0.391-0.606-0.57c-1.827,0.125-3.837,0.407-5.742,0.783c-2.106,0.422-4.092,0.953-5.597,1.533
								c-0.131-0.076-0.222-0.146-0.295-0.221c-0.163-0.146-0.23-0.313-0.264-0.492c1.529-0.559,3.424-1.065,5.46-1.469
								c1.912-0.379,3.849-0.652,5.685-0.801c-0.334-0.279-0.68-0.553-1.032-0.829c-2.03,0.103-4.34,0.41-6.521,0.843
								c-1.476,0.292-2.884,0.641-4.109,1.02c-0.21-0.194-0.514-0.392-0.956-0.577c1.302-0.413,2.773-0.786,4.389-1.104
								c2.127-0.425,4.267-0.708,6.275-0.835c-0.415-0.285-0.831-0.552-1.256-0.801c-2.125,0.073-4.583,0.398-6.896,0.856
								c-1.888,0.374-3.673,0.838-5.108,1.348c-0.058-0.003-0.121-0.006-0.182-0.006c-0.853-0.027-1.536,0.003-2.106-0.073
								c-0.386-0.042-0.753-0.121-1.184-0.312c-0.246-0.1-0.4-0.203-0.528-0.331c-0.261-0.239-0.343-0.546-0.415-0.874
								C93.832,102.84,93.829,102.822,93.826,102.798z M96.315,104.27c1.653-0.686,3.888-1.326,6.36-1.818
								c2.144-0.422,4.371-0.719,6.396-0.85c-0.562-0.285-1.136-0.54-1.73-0.771c-2.052,0.097-4.321,0.382-6.553,0.819
								c-2.537,0.504-4.762,1.153-6.312,1.849C95.025,103.748,95.653,104,96.315,104.27"/>
						</g>
					</g>
					<g>
						<g>
							<path fill="#F5905F" d="M103.384,98.88c-0.007-0.003-0.019-0.006-0.034-0.012v0.006
								C103.365,98.874,103.377,98.876,103.384,98.88z"/>
						</g>
					</g>
					<g>
						<g>
							<path fill="#F8A366" d="M109.571,99.915l-0.264,0.052c-0.4,0.073-0.789,0.158-1.178,0.246
								c0.641,0.246,1.257,0.507,1.863,0.804c0.395-0.088,0.799-0.173,1.205-0.251c0.462-0.097,0.947-0.183,1.451-0.271
								C111.663,100.264,110.634,100.066,109.571,99.915z"/>
						</g>
					</g>
					<g>
						<g>
							<path fill="#F5905F" d="M96.142,99.557c-1.945,0.385-3.738,0.917-5.323,1.587c0.125-0.021,0.262-0.03,0.401-0.021
								l0.154,0.012l0.07,0.009c0.091,0.012,0.185,0.021,0.27,0.037c1.597-0.61,3.639-1.171,5.854-1.612
								c1.561-0.306,3.205-0.549,4.983-0.719l0.104-0.006c-0.043,0-0.079-0.003-0.122,0c-0.018,0-0.033,0-0.055,0
								c-0.026,0.006-0.054,0.006-0.088,0.006c-0.082,0.003-0.163,0.006-0.248,0.009c-0.04,0-0.082,0.003-0.125,0.003
								c-0.021,0-0.045,0.006-0.069,0.006c-0.826,0.04-1.633,0.097-2.422,0.182C98.349,99.168,97.223,99.338,96.142,99.557z"/>
						</g>
					</g>
					<g>
						<g>
							<path fill="#F8A366" d="M112.524,102.461c0.401-0.091,0.811-0.176,1.232-0.261c0.917-0.179,1.857-0.337,2.792-0.471
								c-0.686-0.276-1.393-0.528-2.121-0.753c-0.959,0.137-1.778,0.276-2.57,0.428c-0.271,0.058-0.537,0.109-0.802,0.173
								c0.061,0.027,0.118,0.061,0.173,0.094C111.663,101.917,112.097,102.185,112.524,102.461z"/>
						</g>
					</g>
					<g>
						<g>
							<path fill="#5FAB45" d="M90.818,101.144c-0.105,0.021-0.179,0.042-0.245,0.076c-6.134,2.564-8.262,6.668-4.565,10.273
								l0.719-0.146l0.707-0.14c-3.332-3.257-1.514-6.957,3.925-9.345c0.127,0.027,0.225,0.054,0.306,0.088
								c0.122,0.042,0.207,0.1,0.286,0.173c0.185,0.164,0.252,0.455,0.327,0.792c0.067,0.337,0.152,0.726,0.547,1.105
								c0.2,0.194,0.479,0.392,0.877,0.555c0.907,0.401,1.942,0.534,2.783,0.553c0.853,0.027,1.535,0,2.112,0.063
								c0.379,0.052,0.749,0.127,1.187,0.312c0.318,0.14,0.507,0.264,0.631,0.382c0.216,0.209,0.255,0.437,0.298,0.723
								c0.039,0.276,0.072,0.61,0.428,0.974c0.209,0.203,0.528,0.407,0.989,0.604c0.923,0.395,1.945,0.522,2.786,0.555
								c0.844,0.015,1.526-0.012,2.109,0.064c0.392,0.036,0.75,0.125,1.187,0.307c0.61,0.258,0.884,0.434,1.026,0.583
								c0.176,0.164,0.215,0.328,0.272,0.595c0.067,0.261,0.143,0.61,0.452,1.074c0.17,0.262,0.364,0.465,0.55,0.644
								c0.273,0.268,0.524,0.465,0.686,0.622c0.131,0.134,0.216,0.243,0.246,0.389c0.027,0.151-0.009,0.355-0.17,0.655
								c-0.225,0.392-0.562,0.537-1.093,0.726c-0.507,0.17-1.235,0.322-1.896,0.625c-0.443,0.207-0.805,0.492-0.999,0.856
								c-0.033,0.058-0.058,0.112-0.069,0.17c-8.088,0.47-16.259-1.405-19.782-4.844l-0.707,0.14l-0.719,0.146
								c3.93,3.839,13.129,5.863,22.088,5.214c0.063-0.006,0.124-0.012,0.179-0.021c0.289-0.055,0.471-0.182,0.468-0.315
								c0-0.121,0.021-0.216,0.088-0.31c0.131-0.246,0.322-0.397,0.57-0.521c0.146-0.073,0.313-0.137,0.504-0.201
								c0.52-0.176,1.245-0.327,1.909-0.634c0.425-0.2,0.792-0.482,0.98-0.838c0.179-0.334,0.243-0.595,0.225-0.822
								c0-0.024-0.003-0.043-0.006-0.061c-0.03-0.246-0.191-0.459-0.389-0.638c-0.115-0.115-0.246-0.225-0.373-0.34
								c-0.104-0.088-0.204-0.179-0.307-0.282c-0.112-0.109-0.225-0.225-0.34-0.367c-0.046-0.061-0.092-0.118-0.137-0.183
								c-0.249-0.376-0.312-0.64-0.373-0.883c-0.007-0.018-0.01-0.042-0.013-0.058c-0.055-0.215-0.091-0.431-0.271-0.665
								c-0.039-0.055-0.084-0.103-0.139-0.161c-0.249-0.237-0.641-0.477-1.266-0.756c-0.037-0.012-0.076-0.027-0.115-0.046
								c-0.508-0.218-1.041-0.355-1.563-0.437c-0.434-0.07-0.853-0.104-1.235-0.116c-0.844-0.018-1.532,0.006-2.097-0.066
								c-0.389-0.04-0.75-0.122-1.19-0.31c-0.13-0.055-0.236-0.106-0.324-0.158c-0.131-0.076-0.222-0.146-0.295-0.221
								c-0.163-0.146-0.23-0.313-0.264-0.492c-0.021-0.073-0.03-0.146-0.036-0.228c-0.046-0.279-0.082-0.622-0.443-0.971
								c-0.249-0.231-0.553-0.428-0.978-0.604c-0.871-0.379-1.806-0.516-2.613-0.546c-0.058-0.003-0.121-0.006-0.182-0.006
								c-0.853-0.027-1.536,0.003-2.106-0.073c-0.386-0.042-0.753-0.121-1.184-0.312c-0.246-0.1-0.4-0.203-0.528-0.331
								c-0.261-0.239-0.343-0.546-0.415-0.874c-0.007-0.021-0.01-0.039-0.013-0.063c-0.066-0.307-0.115-0.637-0.443-0.956
								c-0.088-0.082-0.188-0.164-0.318-0.24c-0.115-0.07-0.249-0.133-0.406-0.191c-0.258-0.097-0.577-0.179-0.944-0.23
								c-0.085-0.015-0.179-0.024-0.27-0.037l-0.225-0.021C91.08,101.113,90.943,101.123,90.818,101.144z"/>
						</g>
					</g>
					<g>
						<g>
							<path fill="#F8A366" d="M93.826,102.798c1.646-0.677,3.833-1.299,6.301-1.794c1.846-0.364,3.712-0.631,5.481-0.777
								c-0.671-0.2-1.26-0.349-1.709-0.458c-0.353-0.082-0.701-0.152-1.041-0.228h-0.063c-1.566,0.155-3.133,0.388-4.607,0.686
								c-1.927,0.382-3.699,0.859-5.123,1.375c0.131,0.076,0.23,0.158,0.318,0.24C93.711,102.161,93.76,102.491,93.826,102.798z"/>
						</g>
					</g>
					<g>
						<g>
							<path fill="#F8A366" d="M114.616,104.012c0.546-0.127,1.116-0.249,1.69-0.364c0.983-0.197,1.99-0.361,3.022-0.5
								c-0.455-0.294-0.962-0.58-1.509-0.841c-1.141,0.143-2.291,0.325-3.404,0.546c-0.344,0.07-0.689,0.14-1.026,0.215
								c0.043,0.03,0.085,0.061,0.124,0.088C113.896,103.438,114.264,103.724,114.616,104.012z"/>
						</g>
					</g>
					<g>
						<g>
							<path fill="#F8A366" d="M100.788,101.65c-2.537,0.504-4.762,1.153-6.312,1.849c0.55,0.249,1.178,0.5,1.84,0.771
								c1.653-0.686,3.888-1.326,6.36-1.818c2.144-0.422,4.371-0.719,6.396-0.85c-0.562-0.285-1.136-0.54-1.73-0.771
								C105.289,100.928,103.02,101.213,100.788,101.65z"/>
						</g>
					</g>
					<g>
						<g>
							<path fill="#F8A366" d="M100.85,104.995c1.302-0.413,2.773-0.786,4.389-1.104c2.127-0.425,4.267-0.708,6.275-0.835
								c-0.415-0.285-0.831-0.552-1.256-0.801c-2.125,0.073-4.583,0.398-6.896,0.856c-1.888,0.374-3.673,0.838-5.108,1.348
								C99.062,104.488,99.996,104.625,100.85,104.995z"/>
						</g>
					</g>
					<g>
						<g>
							<path fill="#F8A366" d="M102.324,106.807c1.529-0.559,3.424-1.065,5.46-1.469c1.912-0.379,3.849-0.652,5.685-0.801
								c-0.334-0.279-0.68-0.553-1.032-0.829c-2.03,0.103-4.34,0.41-6.521,0.843c-1.476,0.292-2.884,0.641-4.109,1.02
								c0.012,0.009,0.03,0.024,0.039,0.037c0.361,0.349,0.397,0.692,0.443,0.971C102.294,106.661,102.303,106.734,102.324,106.807z
								"/>
						</g>
					</g>
					<g>
						<g>
							<path fill="#F8A366" d="M107.729,108.17c0.855-0.128,1.715-0.273,2.556-0.44c1.902-0.376,3.705-0.853,5.126-1.375
								c-0.183-0.188-0.376-0.379-0.583-0.58c-0.206-0.2-0.4-0.391-0.606-0.57c-1.827,0.125-3.837,0.407-5.742,0.783
								c-2.106,0.422-4.092,0.953-5.597,1.533c0.088,0.052,0.194,0.104,0.324,0.158c0.44,0.188,0.802,0.27,1.19,0.31
								c0.564,0.073,1.253,0.048,2.097,0.066C106.877,108.066,107.296,108.1,107.729,108.17z"/>
						</g>
					</g>
					<g>
						<g>
							<path fill="#F8A366" d="M110.812,109.569c0.067-0.015,0.134-0.027,0.204-0.042c2.179-0.431,4.23-0.989,5.748-1.59
								c-0.228-0.3-0.468-0.595-0.729-0.892c-1.46,0.507-3.229,0.959-5.093,1.329c-0.507,0.103-1.025,0.194-1.535,0.279
								c0.625,0.279,1.017,0.519,1.266,0.756C110.729,109.466,110.773,109.514,110.812,109.569z"/>
						</g>
					</g>
					<g>
						<g>
							<path fill="#F8A366" d="M119.484,109.803c0.272-0.052,0.546-0.097,0.816-0.155c0.785-0.151,1.587-0.346,2.431-0.564
								c0.115-0.385,0.154-0.786,0.124-1.195c-0.853,0.224-1.748,0.428-2.658,0.61c-0.416,0.082-0.835,0.161-1.254,0.233
								c0.197,0.325,0.361,0.646,0.486,0.95C119.447,109.721,119.472,109.763,119.484,109.803z"/>
						</g>
					</g>
					<g>
						<g>
							<path fill="#F8A366" d="M120.959,110.297c-0.407,0.079-0.813,0.148-1.229,0.221c0.106,0.397,0.149,0.777,0.14,1.153
								c0.4-0.069,0.802-0.146,1.202-0.225l0.252-0.055c0.437-0.452,0.795-0.922,1.047-1.408
								C121.899,110.103,121.423,110.203,120.959,110.297z"/>
						</g>
					</g>
					<g>
						<g>
							<path fill="#F8A366" d="M120.164,112.376c-0.131,0.021-0.258,0.046-0.389,0.063c-0.021,0.085-0.043,0.167-0.066,0.249
								C119.863,112.586,120.018,112.479,120.164,112.376z"/>
						</g>
					</g>
					<g>
						<g>
							<path fill="#F8A366" d="M113.014,112.983c0.003,0.018,0.006,0.036,0.006,0.061c2.021-0.431,3.869-0.959,5.274-1.518
								c0-0.353-0.058-0.713-0.182-1.09c-1.561,0.58-3.551,1.114-5.657,1.533c-0.063,0.012-0.134,0.021-0.203,0.036
								c0.127,0.115,0.258,0.225,0.373,0.34C112.822,112.524,112.983,112.737,113.014,112.983z"/>
						</g>
					</g>
					<g>
						<g>
							<path fill="#F5905F" d="M104.625,99.153c0.449,0.1,1.02,0.246,1.66,0.434c0.282,0.018,0.562,0.042,0.841,0.063
								c-0.122,0.024-0.246,0.052-0.371,0.082c0.425,0.134,0.874,0.285,1.339,0.464c0.425-0.073,0.813-0.158,1.214-0.23l0.264-0.052
								c1.062,0.152,2.092,0.349,3.078,0.58c-0.504,0.088-0.989,0.173-1.451,0.271c-0.406,0.079-0.811,0.164-1.205,0.251
								c0.358,0.176,0.717,0.364,1.062,0.562c0.265-0.063,0.531-0.115,0.802-0.173c0.792-0.152,1.611-0.292,2.57-0.428
								c0.729,0.225,1.436,0.477,2.121,0.753c-0.935,0.134-1.875,0.292-2.792,0.471c-0.422,0.085-0.831,0.17-1.232,0.261
								c0.289,0.194,0.58,0.395,0.865,0.607c0.337-0.076,0.683-0.146,1.026-0.215c1.113-0.222,2.264-0.404,3.404-0.546
								c0.547,0.261,1.054,0.546,1.509,0.841c-1.032,0.14-2.039,0.303-3.022,0.5c-0.574,0.115-1.145,0.237-1.69,0.364
								c0.248,0.204,0.494,0.413,0.74,0.634c0.513-0.121,1.041-0.24,1.578-0.346c1.065-0.212,2.173-0.392,3.299-0.538
								c0.355,0.279,0.652,0.522,0.904,0.768c0.243,0.234,0.458,0.492,0.692,0.798c-0.992,0.279-2.037,0.519-3.084,0.729
								c-0.543,0.109-1.092,0.206-1.639,0.294c0.203,0.225,0.397,0.443,0.586,0.665c0.564-0.094,1.138-0.197,1.702-0.31
								c0.986-0.197,1.958-0.422,2.896-0.674c0.197,0.349,0.35,0.704,0.432,1.056c-1.002,0.285-2.082,0.54-3.193,0.759
								c-0.346,0.066-0.688,0.136-1.041,0.194c0.17,0.234,0.318,0.465,0.455,0.689c0.419-0.073,0.838-0.151,1.254-0.233
								c0.91-0.182,1.806-0.386,2.658-0.61c0.03,0.41-0.009,0.81-0.124,1.195c-0.844,0.219-1.646,0.413-2.431,0.564
								c-0.271,0.058-0.544,0.104-0.816,0.155c0.1,0.243,0.188,0.488,0.245,0.716c0.416-0.073,0.822-0.143,1.229-0.221
								c0.464-0.094,0.94-0.194,1.411-0.313c-0.252,0.486-0.61,0.956-1.047,1.408l-0.252,0.055c-0.4,0.079-0.802,0.155-1.202,0.225
								c-0.009,0.295-0.042,0.54-0.094,0.768c0.131-0.018,0.258-0.042,0.389-0.063c-0.146,0.104-0.301,0.21-0.455,0.312
								c-0.098,0.343-0.237,0.622-0.35,0.844c-0.118,0.213-0.246,0.425-0.386,0.619c-0.012,0.019-0.021,0.036-0.03,0.049
								c1.523-0.674,2.783-1.487,3.706-2.395c0.792-0.771,1.323-1.597,1.605-2.44c0.206-0.683,0.236-1.396,0.101-2.118
								c-0.144-0.628-0.416-1.25-0.838-1.857c-0.307-0.452-0.613-0.813-0.95-1.144c-0.346-0.337-0.771-0.674-1.312-1.068
								c-0.758-0.546-1.639-1.056-2.64-1.518c-1.123-0.525-2.358-0.983-3.663-1.363c-1.612-0.467-3.366-0.837-5.211-1.092
								c-2.18-0.297-4.396-0.419-6.632-0.374c0.076,0.006,0.143,0.018,0.203,0.03C103.793,98.965,104.206,99.046,104.625,99.153z"/>
						</g>
					</g>
					<g>
						<g>
							<path fill="#F5905F" d="M118.422,114.452l-0.006,0.003c-0.027,0.012-0.049,0.021-0.076,0.03
								C118.37,114.477,118.392,114.461,118.422,114.452z"/>
						</g>
					</g>
					<g>
						<g>
							<path fill="#F5905F" d="M118.534,114.397c-0.016,0.006-0.024,0.009-0.037,0.015c-0.003,0.004-0.009,0.007-0.015,0.01
								l0.006,0.003h0.009l0.161-0.052c0.118-0.033,0.207-0.082,0.258-0.14c0.01-0.012,0.019-0.024,0.027-0.033
								c0.01-0.013,0.019-0.03,0.024-0.043l-0.179,0.134C118.716,114.321,118.644,114.354,118.534,114.397z"/>
						</g>
					</g>
					<g>
						<g>
							<path fill="#F5905F" d="M118.434,114.443c-0.033,0.018-0.061,0.03-0.094,0.042c-0.602,0.258-1.251,0.498-1.931,0.713
								c0.695-0.228,1.356-0.47,1.991-0.743h0.016C118.422,114.452,118.425,114.443,118.434,114.443z"/>
						</g>
					</g>
					<g>
						<g>
							<path fill="#F5905F" d="M118.409,114.452l0.007,0.003H118.4C118.406,114.455,118.409,114.455,118.409,114.452z"/>
						</g>
					</g>
					<g>
						<g>
							<path fill="#F8A366" d="M111.814,114.704c-0.664,0.307-1.39,0.458-1.909,0.634c-0.19,0.064-0.357,0.128-0.504,0.201
								c1.312-0.149,2.662-0.368,3.961-0.626c1.451-0.288,2.841-0.634,4.04-1.011l0.127-0.058c0.104-0.157,0.203-0.312,0.291-0.488
								c0.115-0.222,0.249-0.51,0.35-0.865c-1.436,0.489-3.111,0.923-4.956,1.29c-0.14,0.027-0.279,0.058-0.419,0.085
								C112.606,114.222,112.239,114.504,111.814,114.704z"/>
						</g>
					</g>
					<g>
						<g>
							<path fill="#86C670" d="M91.359,101.863c-5.439,2.388-7.257,6.088-3.925,9.345l-0.707,0.14l0.707-0.14
								c3.523,3.438,11.694,5.313,19.782,4.844c0.012-0.058,0.036-0.112,0.069-0.17c0.194-0.364,0.556-0.649,0.999-0.856
								c0.661-0.303,1.39-0.455,1.896-0.625c0.531-0.188,0.868-0.334,1.093-0.726c0.161-0.3,0.197-0.504,0.17-0.655
								c-0.03-0.146-0.115-0.255-0.246-0.389c-0.161-0.157-0.412-0.354-0.686-0.622c-0.186-0.179-0.38-0.382-0.55-0.644
								c-0.31-0.464-0.385-0.813-0.452-1.074c-0.058-0.267-0.097-0.431-0.272-0.595c-0.143-0.149-0.416-0.325-1.026-0.583
								c-0.437-0.182-0.795-0.271-1.187-0.307c-0.583-0.076-1.266-0.049-2.109-0.064c-0.841-0.033-1.863-0.161-2.786-0.555
								c-0.461-0.197-0.78-0.401-0.989-0.604c-0.355-0.364-0.389-0.698-0.428-0.974c-0.043-0.286-0.082-0.513-0.298-0.723
								c-0.124-0.118-0.312-0.243-0.631-0.382c-0.438-0.185-0.808-0.261-1.187-0.312c-0.577-0.063-1.26-0.037-2.112-0.063
								c-0.841-0.019-1.876-0.152-2.783-0.553c-0.397-0.164-0.677-0.361-0.877-0.555c-0.395-0.379-0.479-0.768-0.547-1.105
								c-0.075-0.337-0.143-0.628-0.327-0.792c-0.079-0.073-0.164-0.13-0.286-0.173C91.584,101.917,91.486,101.891,91.359,101.863z"
								/>
						</g>
					</g>
				</g>
				<g>
					<g>
						<path fill="#F8A366" d="M117.107,106.352c0.547-0.088,1.096-0.185,1.639-0.294c1.047-0.209,2.092-0.449,3.084-0.729
							c-0.234-0.307-0.449-0.564-0.692-0.798c-0.252-0.246-0.549-0.489-0.904-0.768c-1.126,0.146-2.233,0.325-3.299,0.538
							c-0.537,0.106-1.065,0.225-1.578,0.346c0.003,0,0.012,0.006,0.019,0.012c0.294,0.27,0.582,0.54,0.883,0.829
							c0.301,0.303,0.567,0.574,0.835,0.856C117.099,106.343,117.104,106.349,117.107,106.352z"/>
					</g>
				</g>
				<g>
					<g>
						<path fill="#F8A366" d="M118.488,108.042c0.353-0.058,0.695-0.127,1.041-0.194c1.111-0.219,2.191-0.474,3.193-0.759
							c-0.082-0.352-0.234-0.708-0.432-1.056c-0.938,0.252-1.909,0.477-2.896,0.674c-0.564,0.112-1.138,0.215-1.702,0.31
							c0.264,0.306,0.504,0.619,0.723,0.925C118.437,107.976,118.464,108.009,118.488,108.042z"/>
					</g>
				</g>
			</g>
		</g>
	</g>
</g>
</svg>
