<?xml version="1.0" encoding="utf-8"?>
<!-- Generator: Adobe Illustrator 21.1.0, SVG Export Plug-In . SVG Version: 6.00 Build 0)  -->
<svg version="1.1" id="Layer_1" xmlns="http://www.w3.org/2000/svg" xmlns:xlink="http://www.w3.org/1999/xlink" x="0px" y="0px"
	 viewBox="0 0 180 157" style="enable-background:new 0 0 180 157;" xml:space="preserve">
<style type="text/css">
	.st0{opacity:0.1;}
	.st1{fill:#231F20;}
	.st2{fill:#F5CE7A;}
	.st3{fill:#E7A64B;}
	.st4{fill:#FFFBD4;}
	.st5{fill:#F4ECCA;stroke:#F5CE7A;stroke-width:0.1;stroke-miterlimit:10;}
	.st6{fill:#4D9E5C;}
</style>
<g>
	<g class="st0">
		<path class="st1" d="M141.2,57.6c-1.1-3.8-4.1-7.1-6.4-9.7l-0.5-0.6c-2.2-2.5-4.7-5.2-7.8-7.1c-2.3-1.3-4.6-1.9-7.1-2.5
			c-0.7-0.1-1.5-0.4-2.2-0.6c-0.7-0.2-1.6-0.4-2.4-0.7c-2.3-0.7-4.6-1.5-6.9-1.5s-4.2,0.7-6,1.5c-0.7,0.2-1.3,0.5-1.9,0.7
			s-1.3,0.4-1.9,0.6c-1.8,0.5-3.6,1-5,2.1L41.4,77.3c-0.9,0.4-1.8,0.8-2.4,1.5c-2,1.8-2.8,4.7-3.5,7.1l-0.1,0.6
			c-0.8,2.7-1.8,5.9-0.6,9.7c1.2,3.9,4.1,6.8,6.6,9.2c2.4,2.2,5.2,4.8,8.6,6.1c1.9,0.8,3.9,1,5.9,1.2c1,0.1,1.9,0.2,2.9,0.4
			c1,0.1,2,0.4,3,0.7c1.9,0.4,3.9,1,5.8,1c0.1,0,0.1,0,0.2,0s0.1,0,0.2,0c1.9,0,3.5-0.5,5.1-1c0.8-0.2,1.6-0.5,2.4-0.7
			c0.8-0.1,1.7-0.3,2.5-0.4c1.8-0.2,3.7-0.4,5-1.3c0.2-0.1,0.4-0.3,0.7-0.5c-0.1,0.1-0.1,0.1-0.1,0.1l53.1-38.6c2.1-1.5,3-3.9,3.8-6
			C141.5,64,142.4,61.3,141.2,57.6z"/>
	</g>
	<g>
		<path class="st2" d="M146.7,46.7c-1.1-3.8-4.1-7.1-6.4-9.7l-0.5-0.6c-2.2-2.5-4.7-5.2-7.8-7.1c-2.3-1.3-4.6-1.9-7.1-2.5
			c-0.7-0.1-1.5-0.4-2.2-0.6s-1.6-0.4-2.4-0.7c-2.3-0.7-4.6-1.5-6.9-1.5s-4.2,0.7-6,1.5c-0.7,0.2-1.3,0.5-1.9,0.7s-1.3,0.4-1.9,0.6
			c-1.8,0.5-3.6,1-5,2.1L45.4,67.4c0.1-0.1,0.3-0.1,0.4-0.2c-0.3,0.2-0.7,0.4-1,0.7c-2,1.8-2.8,4.7-3.5,7.1l-0.1,0.6
			c-0.7,2.6-1.7,5.9-0.6,9.7c1.2,3.9,4,6.8,6.6,9.2c2.4,2.2,5.2,4.8,8.6,6.1c1.9,0.8,3.9,1,5.9,1.2c1,0.1,1.9,0.2,2.9,0.4
			c1,0.1,1.9,0.4,3,0.7c1.9,0.4,3.8,1,5.8,1c1.9,0,3.5-0.5,5.1-1c0.8-0.2,1.6-0.5,2.4-0.7c0.8-0.1,1.7-0.3,2.5-0.4
			c1.8-0.2,3.7-0.4,5-1.3c0.2-0.1,0.4-0.3,0.7-0.5c-0.1,0.1-0.1,0.1-0.1,0.1l53.1-38.6c2.1-1.5,3-3.9,3.8-6
			C147,53.1,147.8,50.4,146.7,46.7z"/>
		<path class="st3" d="M73.5,104.7c-2.1,0-4.1-0.5-6-1c-1-0.3-2-0.5-3-0.7c-1-0.1-1.8-0.2-2.8-0.4c-2.1-0.2-4.1-0.4-6.3-1.3
			c-3.6-1.5-6.5-4.1-8.9-6.4c-2.7-2.4-5.7-5.5-6.9-9.6c-1.3-4.1-0.2-7.7,0.6-10.3l0.1-0.6c0.7-2.6,1.6-5.5,3.8-7.5
			c0.2-0.1,0.4-0.4,0.7-0.5l0,0l0,0L98,28c1.6-1.1,3.3-1.6,5.2-2.1c0.7-0.2,1.3-0.4,1.9-0.6c0.6-0.2,1.3-0.4,1.8-0.7
			c1.8-0.7,3.8-1.6,6.4-1.6c2.4,0,4.9,0.8,7.2,1.6c0.8,0.2,1.6,0.5,2.3,0.7c0.7,0.2,1.5,0.4,2.2,0.6c2.6,0.7,5,1.3,7.3,2.6
			c3.3,1.9,5.8,4.7,8.1,7.3l0.5,0.6c2.4,2.7,5.4,6.1,6.6,10s0.2,7-0.7,9.5c-0.9,2.3-1.8,4.8-4.1,6.4L89.5,101l0,0
			c-0.2,0.1-0.4,0.3-0.6,0.4c-1.6,0.9-3.4,1.1-5.4,1.4c-0.8,0.1-1.7,0.2-2.5,0.4c-0.8,0.1-1.6,0.4-2.4,0.6
			C77.2,104.1,75.5,104.7,73.5,104.7z M46.3,67.9c-0.3,0.2-0.6,0.4-0.8,0.6c-1.8,1.6-2.6,4.4-3.3,6.7l-0.1,0.6
			c-0.7,2.5-1.6,5.6-0.6,9.2c1.1,3.7,3.9,6.5,6.4,8.8c2.2,2.1,5,4.7,8.3,6c1.8,0.7,3.8,1,5.7,1.1c1,0.1,2,0.2,3,0.4
			c1,0.1,2.1,0.4,3.1,0.7c1.8,0.4,3.8,1,5.5,1c1.8,0,3.3-0.4,4.8-1c0.8-0.2,1.7-0.5,2.5-0.7c0.9-0.1,1.7-0.3,2.6-0.4
			c1.8-0.2,3.5-0.4,4.7-1.1c0.2-0.1,0.4-0.3,0.6-0.4l0,0l53-38.4c1.8-1.3,2.7-3.5,3.5-5.5c1-2.4,1.7-5,0.7-8.4
			c-1.1-3.6-3.9-6.8-6.2-9.4l-0.5-0.6c-2.1-2.4-4.6-5.2-7.6-6.9c-2.1-1.3-4.4-1.8-6.7-2.4c-0.8-0.2-1.6-0.4-2.4-0.6
			c-0.8-0.2-1.6-0.4-2.4-0.7c-2.1-0.7-4.4-1.4-6.6-1.4c-2.1,0-3.9,0.7-5.7,1.4c-0.7,0.3-1.3,0.5-2,0.7c-0.7,0.2-1.3,0.4-2,0.6
			c-1.8,0.5-3.5,1-4.7,1.9L46.3,67.9L46.3,67.9L46.3,67.9L46.3,67.9z"/>
	</g>
	<g>
		<g>
			<path class="st3" d="M86.7,75.5c2.4,2.7,5.2,5.9,6.4,9.7c1.1,3.7,0.3,6.4-0.7,8.9c-0.9,2.3-1.9,4.9-4.4,6.4c-1.4,0.8-3.2,1-5,1.3
				c-0.8,0.1-1.7,0.2-2.5,0.4c-0.8,0.1-1.6,0.4-2.4,0.7c-1.6,0.4-3.2,1-5,1c-1.9,0-3.9-0.5-5.8-1c-1-0.2-2.1-0.5-3-0.7
				c-1-0.1-2-0.3-2.9-0.4c-2.1-0.2-4-0.4-6-1.2c-3.4-1.4-6.1-3.9-8.6-6.1c-2.7-2.4-5.5-5.2-6.6-9.2c-1.1-3.8-0.2-7.1,0.6-9.7
				l0.1-0.6c0.7-2.5,1.6-5.2,3.5-7.1c1.5-1.3,3.5-1.9,5.6-2.5c0.7-0.1,1.3-0.4,1.9-0.6c0.7-0.2,1.3-0.4,1.9-0.7
				c1.8-0.7,3.7-1.5,6.1-1.5c2.3,0,4.7,0.7,6.9,1.5c0.8,0.2,1.6,0.5,2.4,0.7c0.7,0.2,1.5,0.4,2.2,0.6c2.5,0.6,4.8,1.2,7.1,2.5
				c3.1,1.8,5.6,4.7,7.8,7.1L86.7,75.5z M91,93.1c0.9-2.4,1.6-4.8,0.7-7.9c-0.9-3-3.2-5.8-5.8-8.8l-0.5-0.6c-2.2-2.4-4.4-5-7.2-6.6
				c-2-1.2-4.3-1.8-6.6-2.3c-0.7-0.2-1.6-0.4-2.3-0.6c-0.8-0.2-1.6-0.4-2.4-0.7c-2.1-0.7-4.4-1.4-6.4-1.4c-2.1,0-3.9,0.7-5.6,1.4
				c-0.7,0.3-1.3,0.5-2,0.7s-1.3,0.4-1.9,0.6c-2,0.6-3.9,1.1-5.2,2.3c-1.8,1.6-2.5,4.1-3.3,6.6l-0.1,0.6c-0.9,3-1.6,5.7-0.6,8.8
				c1,3.3,3.5,5.8,5.9,8.1c2.4,2.1,4.9,4.6,8,5.8c1.7,0.7,3.5,0.9,5.5,1.1c1,0.1,2,0.2,3,0.4c1,0.1,2.1,0.4,3.1,0.7
				c1.8,0.4,3.7,0.9,5.5,0.9c1.7,0,3.3-0.4,4.7-0.9c0.9-0.2,1.7-0.5,2.6-0.7c0.9-0.1,1.8-0.3,2.6-0.4c1.8-0.2,3.5-0.4,4.7-1.1
				C89.2,97.7,90.2,95.3,91,93.1"/>
		</g>
	</g>
	<g>
		<g>
			<path class="st2" d="M60.4,64.2c2.1,0,4.3,0.7,6.4,1.4c0.8,0.3,1.6,0.5,2.4,0.7c0.7,0.2,1.6,0.4,2.3,0.6c2.4,0.6,4.6,1.1,6.6,2.3
				c2.8,1.6,5,4.2,7.2,6.6l0.5,0.6c2.7,3,4.9,5.7,5.8,8.8c1,3.2,0.2,5.5-0.7,7.9c-0.8,2.1-1.8,4.6-3.9,5.9c-1.2,0.7-2.9,0.9-4.7,1.1
				c-0.9,0.1-1.8,0.2-2.6,0.4c-0.9,0.1-1.7,0.4-2.6,0.7c-1.5,0.4-3,0.9-4.7,0.9c-1.8,0-3.6-0.4-5.5-0.9c-1-0.2-2.1-0.5-3.1-0.7
				c-1-0.1-2-0.3-3-0.4c-1.9-0.2-3.8-0.4-5.5-1.1c-3-1.3-5.6-3.6-8-5.8c-2.4-2.2-4.9-4.7-5.9-8.1c-0.9-3-0.2-5.8,0.6-8.8l0.1-0.6
				c0.7-2.4,1.5-4.9,3.3-6.6c1.3-1.2,3.2-1.8,5.2-2.3c0.7-0.2,1.3-0.4,1.9-0.6c0.7-0.2,1.3-0.4,2-0.7C56.4,64.9,58.3,64.2,60.4,64.2
				z"/>
		</g>
	</g>
	<g>
		<path class="st4" d="M81.2,84.9c-0.4-1.3-1.3-2.4-2.1-3.4c-0.4-0.4-0.7-0.8-1-1.3c-0.3-0.4-0.6-0.9-0.9-1.4
			c-0.6-1-1.3-2.2-2.4-3.1c-0.9-0.7-1.8-1.1-2.7-1.4c-0.6-0.2-1.1-0.4-1.6-0.7c-0.4-0.2-1-0.7-1.5-1c-0.8-0.7-1.8-1.4-2.7-1.7
			c-0.5-0.1-1-0.2-1.6-0.2c-0.3,0-0.6,0-1,0.1c-0.3,0-0.6,0.1-0.9,0.1c-0.2,0-0.5,0-0.7-0.1c-0.5-0.1-1-0.3-1.6-0.6
			c-0.9-0.4-1.8-0.7-2.7-0.7c-0.9,0-1.6,0.4-2.3,0.7c-0.4,0.2-0.9,0.4-1.3,0.6c-0.2,0.1-0.4,0.1-0.7,0.1s-0.6,0-1-0.1
			c-0.4,0-0.7-0.1-1-0.1c-0.6,0-1.1,0.1-1.5,0.2c-0.8,0.4-1.3,1.1-1.7,1.7c-0.3,0.4-0.5,0.8-0.9,1c-0.4,0.3-0.8,0.5-1.3,0.7
			c-0.7,0.4-1.5,0.7-1.9,1.4c-0.5,0.9-0.5,2.1-0.4,3.1c0,0.4,0,1,0,1.4c-0.1,0.4-0.1,0.8-0.2,1.2c-0.2,1-0.5,2.1-0.1,3.5
			c0.4,1.3,1.3,2.4,2.1,3.5c0.4,0.4,0.7,0.8,1,1.2c0.3,0.4,0.6,0.9,0.8,1.4c0.6,1,1.3,2.2,2.4,3.1c0.9,0.7,1.8,1.1,2.7,1.4
			c0.6,0.2,1.2,0.4,1.6,0.7c0.4,0.2,1,0.7,1.5,1c0.8,0.7,1.8,1.4,2.7,1.8c0.5,0.1,1,0.2,1.6,0.2c0.3,0,0.6,0,0.9,0s0.6-0.1,0.9-0.1
			c0.2,0,0.5,0,0.7,0.1c0.5,0.1,1,0.3,1.6,0.5c0.9,0.4,1.8,0.7,2.7,0.7c0.9,0,1.6-0.4,2.3-0.7c0.4-0.2,0.9-0.4,1.3-0.5
			c0.2-0.1,0.4-0.1,0.7-0.1s0.6,0,0.9,0.1c0.3,0,0.6,0,0.9,0c0.6,0,1.1-0.1,1.5-0.2c0.8-0.4,1.3-1.1,1.7-1.7c0.3-0.4,0.5-0.8,0.8-1
			c0.4-0.3,0.7-0.5,1.3-0.7c0.7-0.3,1.5-0.7,1.9-1.4c0.5-0.9,0.5-2.1,0.4-3.1c0-0.4,0-1,0-1.4c0.1-0.4,0.1-0.8,0.2-1.2
			C81.3,87.4,81.6,86.3,81.2,84.9z M74.2,77c-0.6-0.5-1.3-0.7-2.1-1C72.9,76.3,73.7,76.5,74.2,77z M56.4,71.7
			c-0.5,0.3-1,0.5-1.6,0.7C55.4,72.2,55.9,71.9,56.4,71.7z M47.2,76c-0.7,0.3-1.3,0.6-1.5,1C45.9,76.5,46.5,76.2,47.2,76z
			 M62.4,97.6c0.7,0.1,1.3,0.4,2,0.7C63.8,98,63,97.7,62.4,97.6z"/>
	</g>
	<g>
		<path class="st4" d="M84.8,83.2c-0.4-1.3-1.3-2.4-2.1-3.4c-0.4-0.4-0.7-0.8-1-1.3s-0.6-0.9-0.9-1.4c-0.6-1-1.3-2.2-2.4-3.1
			c-0.9-0.7-1.8-1.1-2.7-1.4c-0.6-0.2-1.1-0.4-1.6-0.7c-0.4-0.2-1-0.7-1.5-1c-0.8-0.7-1.8-1.4-2.7-1.7c-0.5-0.1-1-0.2-1.6-0.2
			c-0.3,0-0.6,0-1,0.1C67,69,66.7,69,66.4,69c-0.2,0-0.5,0-0.7-0.1c-0.5-0.1-1-0.3-1.6-0.6c-0.9-0.4-1.8-0.7-2.7-0.7
			c-0.9,0-1.6,0.4-2.3,0.7c-0.4,0.2-0.9,0.4-1.3,0.6C57.5,69,57.3,69,57,69s-0.6,0-1-0.1c-0.4,0-0.7-0.1-1-0.1
			c-0.6,0-1.1,0.1-1.5,0.2c-0.8,0.4-1.3,1.1-1.7,1.7c-0.3,0.4-0.5,0.8-0.9,1c-0.4,0.3-0.8,0.5-1.3,0.7c-0.7,0.4-1.5,0.7-1.9,1.4
			c-0.5,0.9-0.5,2.1-0.4,3.1c0,0.4,0,1,0,1.4c-0.1,0.4-0.1,0.8-0.2,1.2c-0.2,1-0.5,2.1-0.1,3.5c0.4,1.3,1.3,2.4,2.1,3.5
			c0.4,0.4,0.7,0.8,1,1.2c0.3,0.4,0.6,0.9,0.8,1.4c0.6,1,1.3,2.2,2.4,3.1c0.9,0.7,1.8,1.1,2.7,1.4c0.6,0.2,1.2,0.4,1.6,0.7
			c0.4,0.2,1,0.7,1.5,1c0.8,0.7,1.8,1.4,2.7,1.8c0.5,0.1,1,0.2,1.6,0.2c0.3,0,0.6,0,0.9,0s0.6-0.1,0.9-0.1c0.2,0,0.5,0,0.7,0.1
			c0.5,0.1,1,0.3,1.6,0.5c0.9,0.4,1.8,0.7,2.7,0.7c0.9,0,1.6-0.4,2.3-0.7c0.4-0.2,0.9-0.4,1.3-0.5c0.2-0.1,0.4-0.1,0.7-0.1
			s0.6,0,0.9,0.1c0.3,0,0.6,0,0.9,0c0.6,0,1.1-0.1,1.6-0.2c0.8-0.4,1.3-1.1,1.7-1.7c0.3-0.4,0.5-0.8,0.8-1c0.4-0.3,0.7-0.5,1.3-0.7
			c0.7-0.3,1.5-0.7,1.9-1.4c0.5-0.9,0.5-2.1,0.4-3.1c0-0.4,0-1,0-1.4c0.1-0.4,0.1-0.8,0.2-1.2C85,85.6,85.2,84.5,84.8,83.2z
			 M77.9,75.2c-0.6-0.5-1.3-0.7-2.1-1C76.6,74.4,77.3,74.7,77.9,75.2z M60.1,69.9c-0.5,0.3-1,0.5-1.6,0.7
			C59,70.4,59.5,70.2,60.1,69.9z M50.8,74.1c-0.7,0.3-1.3,0.6-1.5,1C49.6,74.7,50.2,74.4,50.8,74.1z M66,95.8c0.7,0.1,1.3,0.4,2,0.7
			C67.4,96.2,66.7,95.9,66,95.8z"/>
	</g>
	<g>
		<g>
			<path class="st3" d="M76,52.3c0.4,0,0.7,0.1,0.9,0.1c0.2,0,0.4-0.1,0.8-0.1h0.1c0.4,0,0.8,0.1,1,0.1h0.1H79c0.1,0,0.3,0,0.5,0
				h0.2c0.4,0.1,0.8,0.2,1,0.2h0.2h0.3c0.1,0,0.2,0,0.4,0c1.3,0.2,2.7,0.7,3.8,1c1.3,0.4,2.6,0.7,3.8,1.3c1.4,0.5,2.7,1.3,3.8,1.9
				c1.3,0.7,2.6,1.4,3.8,2.3c1.3,0.9,2.5,2,3.6,3c1.2,1,2.3,2.1,3.3,3.4c0.3,0.4,0.4,0.9,0.1,1.1c-0.1,0.1-0.2,0.1-0.3,0.1
				c-0.2,0-0.5-0.1-0.7-0.4c-0.9-1.1-2-2.1-3.1-3.2c-1.1-1-2.2-2-3.3-2.8c-1.1-0.7-2.4-1.5-3.6-2.1c-1.3-0.7-2.4-1.3-3.7-1.8
				c-1.2-0.4-2.4-0.8-3.7-1.2c-1.3-0.4-2.5-0.7-3.7-1h-0.2h-0.3c-0.1,0-0.2,0-0.4,0c-0.4-0.1-0.8-0.2-0.9-0.2l-0.2,0.1
				c-0.1,0-0.4,0-0.6,0.1h-0.1c-0.4-0.1-0.7-0.1-0.9-0.1c-0.2,0-0.4,0.1-0.8,0.1c-0.4,0-0.7-0.1-1-0.1c-0.4,0-0.8-0.4-1-0.8
				C75.4,52.6,75.6,52.3,76,52.3z"/>
		</g>
	</g>
	<g>
		<g>
			<path class="st3" d="M87.2,44.5c0.4,0,0.7,0.1,0.9,0.1c0.2,0,0.4-0.1,0.8-0.1H89c0.4,0,0.8,0.1,1,0.1h0.1h0.1c0.1,0,0.3,0,0.5,0
				h0.2c0.4,0.1,0.8,0.2,1,0.2H92h0.3c0.1,0,0.2,0,0.4,0c1.3,0.2,2.7,0.7,3.8,1c1.3,0.4,2.6,0.7,3.8,1.3c1.4,0.5,2.7,1.3,3.8,1.9
				c1.3,0.7,2.6,1.4,3.8,2.3c1.3,0.9,2.5,2,3.6,3c1.2,1,2.3,2.1,3.3,3.4c0.3,0.4,0.4,0.9,0.1,1.1c-0.1,0.1-0.2,0.1-0.3,0.1
				c-0.2,0-0.5-0.1-0.7-0.4c-0.9-1.1-2-2.1-3.1-3.2c-1.1-1-2.2-2-3.3-2.8c-1.1-0.7-2.4-1.5-3.6-2.1c-1.3-0.7-2.4-1.3-3.7-1.8
				c-1.2-0.4-2.4-0.8-3.7-1.2c-1.3-0.4-2.5-0.7-3.7-1h-0.2h-0.4c-0.1,0-0.2,0-0.4,0c-0.4-0.1-0.8-0.2-0.9-0.2h-0.1
				c-0.1,0-0.3,0-0.6,0.1h-0.1c-0.4-0.1-0.7-0.1-0.9-0.1c-0.2,0-0.4,0.1-0.8,0.1c-0.4,0-0.7-0.1-1-0.1c-0.4,0-0.8-0.4-1-0.8
				C86.6,44.9,86.8,44.5,87.2,44.5z"/>
		</g>
	</g>
	<g>
		<path class="st3" d="M99.1,35.3c0.4,0,0.7,0.1,0.9,0.1c0.2,0,0.4-0.1,0.8-0.1h0.1c0.4,0,0.8,0.1,1,0.1h0.1h0.1c0.1,0,0.3,0,0.5,0
			h0.2c0.4,0.1,0.8,0.2,1,0.2h0.2h0.3c0.1,0,0.2,0,0.4,0c1.3,0.2,2.7,0.7,3.8,1c1.3,0.4,2.6,0.7,3.8,1.3c1.4,0.5,2.7,1.3,3.8,1.9
			c1.3,0.7,2.6,1.4,3.8,2.3c1.3,0.9,2.5,2,3.6,3c1.2,1,2.3,2.1,3.3,3.4c0.3,0.4,0.4,0.9,0.1,1.1c-0.1,0.1-0.2,0.1-0.3,0.1
			c-0.2,0-0.5-0.1-0.7-0.4c-0.9-1.1-2-2.1-3.1-3.2c-1.1-1-2.2-2-3.3-2.8c-1.1-0.7-2.4-1.5-3.6-2.1c-1.3-0.7-2.4-1.3-3.7-1.8
			c-1.2-0.4-2.4-0.8-3.7-1.2c-1.3-0.4-2.5-0.7-3.7-1h-0.2h-0.3c-0.1,0-0.2,0-0.4,0c-0.4-0.1-0.8-0.2-0.9-0.2h-0.1
			c-0.1,0-0.3,0-0.6,0.1h-0.1c-0.4-0.1-0.7-0.1-0.9-0.1c-0.2,0-0.4,0.1-0.8,0.1c-0.4,0-0.7-0.1-1-0.1c-0.4,0-0.8-0.4-1-0.8
			C98.5,35.7,98.6,35.3,99.1,35.3z"/>
	</g>
	<g>
		<g class="st0">
			<path class="st3" d="M84.8,83.2c-0.4-1.3-1.3-2.4-2.1-3.4c-0.4-0.4-0.7-0.8-1-1.3s-0.6-0.9-0.9-1.4c-0.6-1-1.3-2.2-2.4-3.1
				c-0.9-0.7-1.8-1.1-2.7-1.4c-0.6-0.2-1.1-0.4-1.6-0.7c-0.4-0.2-1-0.7-1.5-1c-0.8-0.7-1.8-1.4-2.7-1.7c-0.5-0.1-1-0.2-1.6-0.2
				c-0.3,0-0.6,0-1,0.1C67,69,66.7,69,66.4,69c-0.2,0-0.5,0-0.7-0.1c-0.5-0.1-1-0.3-1.6-0.6c-0.9-0.4-1.8-0.7-2.7-0.7
				c-0.9,0-1.6,0.4-2.3,0.7c-0.4,0.2-0.9,0.4-1.3,0.6C57.5,69,57.3,69,57,69s-0.6,0-1-0.1c-0.4,0-0.7-0.1-1-0.1
				c-0.6,0-1.1,0.1-1.5,0.2c-0.7,0.3-1.3,1-1.6,1.6c0.1,0,0.3,0,0.4,0c0.3,0,0.7,0.1,1,0.1c0.2,0,0.5,0,0.7-0.1
				c0.4-0.1,0.9-0.3,1.3-0.6c0.7-0.4,1.3-0.7,2.3-0.7c0.7,0,1.5,0.2,2.2,0.5c0.1,0,0.1-0.1,0.1-0.1c-0.1,0-0.1,0.1-0.1,0.1
				c0.1,0.1,0.4,0.1,0.5,0.2c0.6,0.2,1.2,0.4,1.6,0.6c0.2,0.1,0.5,0.1,0.7,0.1c0.3,0,0.6,0,0.9-0.1c0.3,0,0.7-0.1,1-0.1
				c0.6,0,1.1,0.1,1.6,0.2c1,0.4,1.9,1.1,2.7,1.7c0.5,0.4,1,0.8,1.5,1c0.5,0.3,1.1,0.5,1.6,0.7c1,0.4,1.9,0.7,2.7,1.4
				c1,0.9,1.7,2.1,2.4,3.1c0.3,0.4,0.5,1,0.9,1.4c0.3,0.4,0.6,0.8,1,1.3c0.8,1,1.8,2.1,2.1,3.4c0.4,1.3,0.1,2.4-0.1,3.5
				c-0.1,0.4-0.2,0.8-0.2,1.2c-0.1,0.4,0,0.9,0,1.4c0,1,0.1,2.2-0.4,3.1c-0.4,0.7-1.2,1.1-1.9,1.4c-0.4,0.2-0.9,0.4-1.3,0.7
				c-0.3,0.3-0.6,0.7-0.8,1l-0.1,0.1c0.1,0,0.4,0,0.5,0c0.6,0,1.1-0.1,1.6-0.2c0.8-0.4,1.3-1.1,1.7-1.7c0.3-0.4,0.5-0.8,0.8-1
				c0.4-0.3,0.7-0.5,1.3-0.7c0.7-0.3,1.5-0.7,1.9-1.4c0.5-0.9,0.5-2.1,0.4-3.1c0-0.4,0-1,0-1.4c0.1-0.4,0.1-0.8,0.2-1.2
				C85,85.6,85.2,84.5,84.8,83.2z"/>
		</g>
	</g>
</g>
<g class="st0">
	<g>
		<path class="st1" d="M74.5,93.8c0.5,0.1,1,0.6,1,1.2c0,1.6-1.2,2.6-2.7,2.4c-0.5-0.1-1-0.6-1-1.2s0.4-1,1-0.9
			c0.4,0.1,0.7-0.2,0.7-0.6C73.5,94.1,73.9,93.7,74.5,93.8z"/>
	</g>
	<g>
		<path class="st1" d="M74.2,75.9c0.7,0.1,1.3,0.4,1.8,1s0.8,1.3,0.9,2.1c0,0.6-0.4,1-1,1h-0.1c-0.5-0.1-1-0.6-1-1.1
			c0-0.2-0.1-0.4-0.2-0.5l-0.5-0.3c-0.6-0.1-1-0.6-1-1.1c0-0.6,0.4-1,1-1C74.1,75.8,74.2,75.9,74.2,75.9z"/>
	</g>
	<g>
		<path class="st1" d="M68,80.3c0.4,0.1,0.9,0.3,1.3,0.6c0.4,0.4,0.6,1,0.3,1.5c-0.1,0.3-0.5,0.4-0.8,0.4c-0.1,0-0.4-0.1-0.5-0.2
			c-0.1-0.1-0.1-0.1-0.2-0.1c-0.1,0-0.3,0-0.4,0.1c-0.2,0.3-0.5,0.4-0.8,0.4c-0.1,0-0.4-0.1-0.5-0.2c-0.4-0.4-0.6-1-0.3-1.5
			C66.3,80.5,67.2,80.2,68,80.3z"/>
	</g>
	<g>
		<path class="st1" d="M55.8,86.9c0.2,0,0.4,0.1,0.7,0.2c0.7,0.3,1.1,0.8,1.5,1.4c0.3,0.5,0.1,1.2-0.4,1.3L57.1,90
			c-0.3-0.1-0.7-0.3-0.8-0.7L56,89h-0.4c-0.1,0.1-0.3,0.1-0.4,0.1c-0.4-0.1-0.7-0.3-0.8-0.7c-0.3-0.5-0.1-1.2,0.4-1.3
			C55,86.9,55.3,86.9,55.8,86.9z"/>
	</g>
	<g>
		<path class="st1" d="M63,84.1c0.1,0,0.2,0.1,0.3,0.1c0.7,0.3,1.1,0.8,1.4,1.5c0.3,0.7,0.4,1.3,0.1,2c-0.1,0.4-0.5,0.7-0.9,0.6
			l-0.3-0.1c-0.5-0.3-0.8-0.9-0.6-1.4v-0.4l-0.3-0.3c-0.5-0.3-0.8-0.9-0.7-1.4C62.2,84.3,62.6,84.1,63,84.1z"/>
	</g>
	<g>
		<path class="st1" d="M62.6,75.9c0.5,0.1,1,0.6,1,1.2c0,1.4-1.1,2.4-2.4,2.2c-0.5-0.1-1-0.6-1-1.2s0.4-1,1-0.9
			c0.3,0.1,0.5-0.1,0.5-0.4C61.6,76.2,62.1,75.8,62.6,75.9z"/>
	</g>
	<g>
		<path class="st1" d="M56.7,92.7c0.1,0,0.1,0.1,0.3,0.1c0.5,0.2,0.8,0.9,0.7,1.4c-0.1,0.4,0.1,1,0.6,1.1c0.5,0.2,0.8,0.9,0.7,1.3
			c-0.1,0.4-0.5,0.7-1,0.6l-0.3-0.1c-1.5-0.7-2.3-2.4-1.9-3.9C55.9,92.8,56.4,92.6,56.7,92.7z"/>
	</g>
	<g>
		<path class="st1" d="M64.3,92.9c0.5,0.1,1,0.6,1,1.2c0,1.6-1.3,2.7-2.7,2.5c-0.5-0.1-1-0.6-1-1.2s0.4-1,1-0.9
			c0.4,0.1,0.8-0.2,0.8-0.7C63.4,93.2,63.8,92.8,64.3,92.9z"/>
	</g>
	<g>
		<path class="st1" d="M50.2,86.6c0.3,0.1,0.6,0.2,0.7,0.5c0.4,0.5,0.3,1.1-0.1,1.4c-0.1,0.1-0.3,0.3-0.3,0.5s0,0.4,0.1,0.7
			c0.4,0.5,0.3,1.1-0.1,1.4c-0.2,0.1-0.4,0.1-0.6,0.1c-0.3-0.1-0.6-0.2-0.7-0.5c-0.4-0.7-0.7-1.5-0.6-2.2s0.4-1.4,1-1.8
			C49.7,86.6,49.9,86.5,50.2,86.6z"/>
	</g>
	<g>
		<path class="st1" d="M49.1,79c0.5,0.1,1,0.6,1,1.2c0,0.6-0.4,1-1,0.9c-0.4-0.1-0.8,0.3-0.8,0.7c0,0.6-0.4,1-1,0.9
			c-0.5-0.1-1-0.6-1-1.2C46.2,79.9,47.5,78.8,49.1,79z"/>
	</g>
	<g>
		<path class="st1" d="M57.3,79.5c0.2,0,0.4,0.1,0.6,0.3c0.4,0.4,0.4,1.1,0.1,1.5c-0.5,0.6-1.3,0.9-2.1,0.7c-0.6-0.1-1.3-0.4-1.8-1
			c-0.4-0.4-0.4-1.1-0.1-1.5c0.2-0.2,0.4-0.3,0.7-0.3c0.2,0,0.4,0.1,0.6,0.3s0.4,0.2,0.5,0.3c0.2,0,0.4,0,0.6-0.2
			C56.7,79.5,57,79.4,57.3,79.5z"/>
	</g>
	<g>
		<path class="st1" d="M54.5,73c0.6,0.1,1.3,0.4,1.8,1c0.4,0.4,0.4,1.1,0.1,1.5c-0.2,0.2-0.4,0.3-0.7,0.2c-0.2,0-0.4-0.1-0.6-0.3
			s-0.4-0.2-0.5-0.3c-0.2,0-0.4,0-0.6,0.2c-0.2,0.2-0.4,0.3-0.7,0.2c-0.2,0-0.4-0.1-0.6-0.4c-0.4-0.4-0.4-1.1-0.1-1.5
			C53,73,53.7,72.8,54.5,73z"/>
	</g>
	<g>
		<path class="st1" d="M71.7,85.1c0.5,0.1,1,0.6,1,1.2c0,1.6-1.3,2.7-2.7,2.5c-0.5-0.1-1-0.6-1-1.2s0.4-1,1-0.9
			c0.4,0.1,0.8-0.3,0.8-0.7C70.7,85.4,71.1,85,71.7,85.1z"/>
	</g>
</g>
<g>
	<g class="st0">
		<path class="st1" d="M85,53.3c0.1,0,0.1,0,0.1,0c0.4,0,0.9-0.5,1-1.2c0.1-0.7-0.1-1.5-0.5-1.6c-0.1,0-0.1,0-0.1,0
			c-0.4,0-0.9,0.5-1,1.2C84.4,52.6,84.6,53.2,85,53.3z"/>
		<path class="st1" d="M92.9,48.7c0.1,0,0.1,0,0.2,0c0.1,0,0.3-0.1,0.4-0.1c0.4-0.3,0.4-0.9,0.1-1.6c0.2,0,0.4,0,0.7-0.1
			c0.4-0.1,0.8-0.4,1.1-0.7c0.3-0.3,0.4-0.6,0.3-0.9c-0.1-0.6-1-0.8-2-0.5c-0.6,0.1-1,0.5-1.3,0.9l0,0c-0.4-0.1-0.7-0.2-1,0
			c-0.2,0.1-0.4,0.4-0.4,0.9c0,0.4,0.1,0.8,0.4,1.2C92,48.2,92.5,48.6,92.9,48.7z"/>
		<path class="st1" d="M76.8,61.3c-0.2-0.1-0.5,0.1-0.7,0.4c-0.2,0.2-0.4,0.6-0.4,1c-0.1,0.5,0,1,0.2,1.3c0.1,0.1,0.3,0.3,0.4,0.3
			h0.1c0.2,0,0.4-0.1,0.7-0.4c0.2-0.2,0.4-0.6,0.4-1c0.1-0.5,0-1-0.2-1.3C77,61.4,76.9,61.3,76.8,61.3z"/>
		<path class="st1" d="M84.1,61.4c0.1-0.4,0.1-0.9-0.2-1.4c-0.2-0.3-0.4-0.6-0.7-0.7c-0.3-0.1-0.5-0.1-0.7-0.1
			c-0.3,0.2-0.4,0.6-0.2,1.1c-0.1,0-0.1,0-0.1,0c-0.4,0.1-0.9,0.3-1.2,0.5c-0.3,0.3-0.4,0.6-0.4,0.9c0.1,0.3,0.3,0.5,0.7,0.7
			c0.2,0.1,0.4,0.1,0.7,0.1c0.2,0,0.4,0,0.6-0.1c0.1,0,0.1-0.1,0.1-0.1c0,0.1,0,0.2,0.1,0.4c0.2,0.8,0.7,1.4,1.2,1.4
			c0.1,0,0.1,0,0.1,0c0.3-0.1,0.4-0.3,0.6-0.7c0.1-0.4,0.1-0.7,0-1.2C84.4,62,84.3,61.6,84.1,61.4z"/>
		<path class="st1" d="M104.5,45.1c-0.2-0.1-0.4-0.2-0.7-0.2c0.1-0.1,0.1-0.2,0.1-0.4c0-0.2-0.1-0.4-0.4-0.5
			c-0.1-0.1-0.2-0.1-0.3-0.1c0.1-0.1,0.3-0.2,0.3-0.4c0.1-0.2-0.1-0.5-0.3-0.7l-0.1-0.1c0.1,0,0.1,0,0.1,0c0.1-0.1,0.3-0.1,0.4-0.4
			c0.2-0.4,0.3-0.9,0.1-1.5c-0.2-0.9-0.8-1.5-1.3-1.3c-0.1,0.1-0.3,0.1-0.4,0.4c-0.2,0.4-0.2,0.9-0.1,1.4l0,0
			c-0.4-0.1-0.9-0.2-1.4-0.1c-0.5,0.1-1,0.3-1.3,0.5c0-0.1,0-0.4-0.1-0.5c-0.1-0.4-0.3-0.8-0.5-1c-0.2-0.3-0.5-0.4-0.8-0.3
			c-0.3,0.1-0.4,0.3-0.6,0.7c-0.1,0.4-0.1,0.7,0,1.2c0.1,0.4,0.3,0.7,0.4,0.9c-0.1,0.2-0.3,0.4-0.2,0.7c0.1,0.3,0.3,0.6,0.7,0.7
			c0.2,0.1,0.6,0.1,0.9,0.1c-0.3,0.2-0.7,0.5-0.9,1c-0.1,0.1-0.1,0.3-0.2,0.4c-0.1-0.3-0.2-0.6-0.4-0.8c-0.2-0.3-0.5-0.4-0.8-0.3
			c-0.3,0.1-0.4,0.3-0.6,0.7c-0.1,0.4-0.1,0.7,0,1.2c0.1,0.6,0.4,1,0.8,1.3c0.1,0.1,0.3,0.1,0.4,0.1c0.1,0,0.1,0,0.1,0
			c0.1-0.1,0.3-0.1,0.4-0.4c0-0.1,0-0.1,0.1-0.1l0,0c0.1,0.1,0.1,0.1,0.2,0.2c0.1,0.1,0.2,0.1,0.4,0.1c0.1,0,0.1-0.1,0.2-0.1
			c0.1,0,0.1,0,0.1,0c0.1,0,0.4,0,0.5-0.1c1-0.1,1.6-0.8,1.6-1.4c0,0,0-0.1-0.1-0.1c0.1,0.1,0.3,0.1,0.4,0.1
			c-0.1,0.1-0.1,0.3-0.1,0.4c0.1,0.3,0.3,0.5,0.7,0.7c0.1,0.1,0.3,0.1,0.5,0.1l0,0c-0.6,0.6-0.8,1.3-0.4,1.7
			c0.1,0.1,0.3,0.2,0.5,0.2c0.4,0,0.8-0.2,1.2-0.5c0.3-0.3,0.5-0.6,0.6-0.9c0.1-0.3,0.1-0.6-0.1-0.8c0,0-0.1,0-0.1-0.1
			c0.1-0.1,0.2-0.1,0.3-0.2c0.3-0.3,0.4-0.6,0.4-0.9C104.8,45.4,104.7,45.2,104.5,45.1z M100.8,43.5L100.8,43.5
			c0.2,0.2,0.4,0.3,0.6,0.4c-0.4,0.1-0.7,0.4-0.9,0.7c0-0.1,0-0.1,0-0.2c-0.1-0.2-0.2-0.4-0.4-0.5l0,0
			C100.2,43.7,100.5,43.6,100.8,43.5z M102.4,42.3L102.4,42.3L102.4,42.3L102.4,42.3z"/>
		<path class="st1" d="M80.1,62.7c-1-0.2-1.8,0.1-2,0.7c-0.1,0.6,0.5,1.3,1.5,1.5c0.2,0.1,0.4,0.1,0.7,0.1c0.4,0,0.7-0.1,1-0.2
			c0.2-0.1,0.4-0.3,0.4-0.5C81.7,63.6,81.1,62.9,80.1,62.7z"/>
		<path class="st1" d="M108.4,43.7c-0.4-0.1-1,0.4-1.1,1.2c-0.1,0.4-0.1,0.7,0,1c0.1,0.3,0.3,0.5,0.5,0.5c0.1,0,0.1,0,0.1,0
			c0.4,0,0.9-0.5,1-1.2C109.2,44.4,109,43.8,108.4,43.7z"/>
		<path class="st1" d="M76.8,57.5c-0.8-0.5-1.8-0.5-2.1,0s0.1,1.3,1,1.8c0.4,0.3,0.9,0.4,1.3,0.4s0.7-0.1,0.8-0.4
			C78.1,58.9,77.6,58,76.8,57.5z"/>
		<path class="st1" d="M76.4,60.4c-0.1-0.4-0.7-0.7-1.5-0.7c-0.1-0.6-0.4-1-0.9-1h-0.1c-0.6,0-1.1,0.7-1.2,1.7
			c-0.1,0.7,0.1,1.2,0.4,1.6c0.1,0.1,0.4,0.3,0.5,0.3h0.1c0.1,0,0.4-0.1,0.5-0.2c0,0,0-0.1,0.1-0.1c0.2,0,0.4,0,0.6-0.1
			C75.9,61.7,76.6,61,76.4,60.4z"/>
		<path class="st1" d="M79.9,58.3c-0.4,0.1-0.8,0.4-1.1,0.7c-0.3,0.3-0.4,0.6-0.3,0.9c0.1,0.4,0.6,0.7,1.3,0.7
			c0.2,0,0.5-0.1,0.8-0.1c1-0.3,1.6-1,1.4-1.6C81.8,58.2,80.9,58,79.9,58.3z"/>
		<path class="st1" d="M79,58.5c0.1,0,0.4,0,0.5-0.1c0.7-0.1,1.3-0.7,1.3-1.2c0.1,0.1,0.1,0.1,0.1,0.2c0.1,0.1,0.3,0.1,0.4,0.1
			s0.1,0,0.1,0c0.1-0.1,0.3-0.1,0.4-0.4c0.2-0.4,0.3-0.9,0.1-1.5c-0.2-0.9-0.8-1.5-1.3-1.3c-0.1,0.1-0.3,0.1-0.4,0.4
			c-0.2,0.4-0.3,1-0.1,1.5c0.1,0.2,0.1,0.4,0.2,0.6c-0.1-0.1-0.1-0.1-0.2-0.1c-0.3-0.1-0.7-0.1-1,0c-0.5,0.1-1,0.4-1.1,0.7
			c-0.1,0.1-0.1,0.4-0.1,0.5c0.1,0.2,0.3,0.4,0.6,0.5C78.6,58.4,78.7,58.5,79,58.5z"/>
		<path class="st1" d="M91.9,54.4c0-0.2,0-0.4-0.1-0.6c-0.1-0.2-0.1-0.4-0.2-0.5c0,0,0,0,0.1,0c0.1,0,0.4,0,0.5-0.1
			c0.4-0.1,0.9-0.3,1.2-0.5c0.3-0.3,0.4-0.6,0.4-0.9c-0.1-0.6-1-1-1.9-0.7c-0.4,0.1-0.8,0.3-1.1,0.5c0-0.1,0-0.1-0.1-0.1
			c0-0.1,0.1-0.2,0.1-0.4c0-0.4,0-0.9-0.2-1.3c-0.1-0.4-0.4-0.6-0.7-0.6c0,0,0,0-0.1,0c-0.6,0-1,0.7-1.1,1.7c0,0.2,0,0.4,0,0.5
			c-0.3-0.1-0.6-0.1-0.9,0c-0.6,0.1-1.1,0.4-1.4,0.7c-0.1,0.2-0.2,0.4-0.1,0.6c0,0.1,0.1,0.1,0.1,0.2c-0.1,0-0.1,0-0.2,0.1
			c-0.5,0.4-0.4,1.3,0.1,2.1c0.4,0.7,1,1,1.5,1c0.1,0,0.3-0.1,0.4-0.1c0.1-0.1,0.1-0.1,0.1-0.1c0.1,0.1,0.3,0.2,0.5,0.4
			c0.4,0.2,0.8,0.4,1.2,0.4l0,0c0.4,0,0.7-0.1,0.8-0.4c0.1-0.1,0.1-0.2,0.1-0.4c0.1,0,0.1,0.1,0.2,0.1c0,0,0,0,0.1,0
			c0,0.1,0.1,0.3,0.1,0.4c0.1,0.1,0.4,0.2,0.6,0.2c0.4,0,1-0.2,1.4-0.7c0.7-0.7,1-1.6,0.6-2C93.4,53.7,92.6,53.8,91.9,54.4z
			 M88,54.1c-0.1-0.1-0.2-0.3-0.3-0.4c0.1,0,0.3,0,0.4-0.1c0.4-0.1,0.9-0.3,1.2-0.5c0.1,0.1,0.1,0.1,0.2,0.2c0,0.3,0,0.7,0.1,1
			c0,0.1,0,0.1,0.1,0.1c-0.4-0.2-0.7-0.3-1.1-0.3l0,0c-0.1,0-0.3,0-0.4,0.1C88.1,54.2,88.1,54.1,88,54.1z"/>
		<path class="st1" d="M113.1,38.8c-0.4-0.1-0.9-0.2-1.4-0.1c-1.1,0.1-1.8,0.8-1.8,1.4c0.1,0.3,0.3,0.6,0.7,0.7
			c0.3,0.1,0.6,0.1,0.9,0.1c0.1,0,0.3,0,0.5-0.1c1.1-0.1,1.8-0.8,1.8-1.4C113.8,39.1,113.5,38.9,113.1,38.8z"/>
		<path class="st1" d="M88.1,57.2c-0.8-0.1-1.6,0.1-1.6,0.6c-0.1,0.2,0.1,0.5,0.3,0.7c0.2,0.2,0.6,0.4,1,0.4
			c0.1,0.1,0.4,0.1,0.5,0.1c0.6,0,1-0.2,1.1-0.6C89.5,57.9,88.9,57.3,88.1,57.2z"/>
		<path class="st1" d="M82.5,54.9C82.5,55,82.5,55,82.5,54.9c-0.1,0.4-0.2,0.8-0.2,1.2c0,0.4,0.1,0.7,0.4,1c0.1,0.1,0.2,0.1,0.4,0.1
			c0.4,0,0.8-0.2,1.2-0.7c0.2,0.4,0.6,0.7,1,0.7c0.1,0,0.1,0,0.1,0c0.3-0.1,0.4-0.3,0.6-0.7c0.1-0.4,0.1-0.7,0-1.2
			c-0.2-0.5-0.5-1-0.9-1.3c-0.1,0-0.1,0-0.1,0c-0.1-0.2-0.1-0.4-0.3-0.4c-0.4-0.2-0.9-0.1-1.3,0.4c-0.1-0.3-0.1-0.6-0.3-0.9l0,0
			c-0.4-0.7-1.2-1-1.6-0.7c-0.2,0.1-0.3,0.4-0.3,0.7s0.1,0.7,0.4,1C81.7,54.6,82.1,54.9,82.5,54.9z"/>
		<path class="st1" d="M74.2,56.2c0.2-0.3,0.3-0.6,0.1-0.8c-0.2-0.4-1-0.6-1.7-0.2c-0.4,0.1-0.7,0.4-0.8,0.7
			c-0.2,0.3-0.3,0.6-0.1,0.8c0.1,0.2,0.4,0.4,0.7,0.4c0.1,0,0.1,0,0.2,0c0.3,0,0.6-0.1,0.9-0.2C73.8,56.7,74.1,56.5,74.2,56.2z"/>
		<path class="st1" d="M88.4,49.3c0.5,0,1.2-0.4,1.6-1.2c0.2-0.4,0.4-0.9,0.4-1.3c0-0.4-0.1-0.7-0.4-1c-0.6-0.3-1.4,0.1-2,1.1
			c-0.5,1-0.5,1.9,0,2.3C88.1,49.2,88.3,49.3,88.4,49.3z"/>
		<path class="st1" d="M100.2,47.8c-0.4,0.1-0.7,0.3-1.1,0.6s-0.6,0.7-0.7,1c-0.1,0.4-0.1,0.7,0.1,1c0.1,0.1,0.4,0.2,0.6,0.2
			c0.1,0,0.2,0,0.3,0c0.4-0.1,0.7-0.3,1.1-0.6c0.4-0.3,0.6-0.7,0.7-1c0.1-0.4,0.1-0.7-0.1-1C100.8,47.8,100.5,47.7,100.2,47.8z"/>
		<path class="st1" d="M98.3,50c-0.1-0.4-0.3-0.9-0.6-1.2c-0.1-0.4-0.5-0.7-1-1c-0.4-0.2-0.9-0.4-1.3-0.4l0,0
			c-0.4,0-0.7,0.1-0.8,0.4c-0.1,0.1-0.1,0.2-0.1,0.4c-0.1,0-0.1,0-0.2,0c-0.6,0.1-0.9,1.1-0.7,2.1c0.1,0.5,0.4,1,0.7,1.3
			c0.2,0.3,0.5,0.4,0.8,0.4c0.1,0,0.1,0,0.1,0c0.3-0.1,0.5-0.4,0.7-0.8c0.1-0.2,0.1-0.4,0.1-0.6c0.2,1,0.8,1.6,1.4,1.6
			c0.1,0,0.1,0,0.1,0C98.2,52.1,98.5,51.1,98.3,50L98.3,50z M95.9,49.8L95.9,49.8L95.9,49.8L95.9,49.8z"/>
		<path class="st1" d="M116.9,36.4c-0.2-0.9-0.8-1.5-1.3-1.3c-0.4,0.1-0.6,0.5-0.6,1c-0.3-0.1-0.7-0.1-1,0c-0.2,0.1-0.4,0.1-0.5,0.1
			c0-0.1,0-0.1,0-0.2c-0.1-0.6-0.4-1-0.8-1.3l0,0c-0.1-0.5-0.4-1-0.8-1.2c-0.1-0.1-0.4-0.1-0.5-0.1c-0.1,0.1-0.3,0.1-0.4,0.4
			c-0.2,0.4-0.3,0.9-0.1,1.5c0,0.1,0.1,0.1,0.1,0.2h-0.1c-0.1,0-0.1,0.1-0.2,0.1c-0.1,0-0.1-0.1-0.1-0.1c-0.5,0.1-1,0.4-1.5,1
			c-0.1,0.1-0.1,0.1-0.1,0.2c0.1-0.4,0-0.8-0.2-1c-0.1-0.1-0.4-0.1-0.6-0.1c-0.5,0.1-1,0.4-1.5,1c-0.1,0.2-0.3,0.4-0.4,0.7
			c-0.1,0-0.2,0-0.4,0c-1,0.1-1.6,0.8-1.6,1.4c0,0.2,0.1,0.4,0.4,0.5c0.3,0.2,0.7,0.3,1,0.3c0.1,0,0.4,0,0.5-0.1
			c0.5-0.1,1-0.3,1.3-0.6c0.1-0.1,0.1-0.1,0.3-0.1c0,0.1,0,0.2,0.1,0.3c-0.1,0-0.1,0-0.1,0c-0.4,0.1-0.9,0.3-1.2,0.5
			c-0.2,0.2-0.3,0.4-0.4,0.7c-0.4-0.6-0.8-1-1.3-0.8c-0.6,0.1-0.9,1.1-0.7,2.1c0.2,0.9,0.7,1.5,1.3,1.6c0.1,0.5,0.4,0.8,0.8,0.9
			c0,0,0,0,0.1,0c0.3,0,0.6-0.1,0.7-0.5c0.2-0.3,0.4-0.7,0.4-1.2s-0.1-0.8-0.2-1.2c0.1,0,0.1,0,0.1,0c0.2,0,0.4,0,0.6-0.1
			c0.1,0,0.1-0.1,0.1-0.1c0,0.1,0,0.2,0.1,0.4c0.2,0.8,0.7,1.4,1.2,1.4c0.1,0,0.1,0,0.1,0c0.5-0.1,0.7-1,0.5-1.8
			c-0.1-0.4-0.3-0.7-0.5-1c0.1-0.2,0.1-0.7,0-1c0.4-0.1,0.8-0.4,1.2-0.8c0.1,0.1,0.1,0.1,0.1,0.2c0.2,0.2,0.4,0.4,0.7,0.4
			c0.1,0,0.1,0,0.1,0c0.3-0.1,0.4-0.3,0.6-0.7c0-0.1,0.1-0.3,0.1-0.4c0.1,0.1,0.3,0.2,0.4,0.2c0.2,0.3,0.7,0.4,1.3,0.4
			c0.1,0,0.4,0,0.6-0.1c0.4-0.1,0.8-0.2,1-0.4c0.2,0.4,0.5,0.6,0.8,0.6c0.1,0,0.1,0,0.1,0C116.9,38.1,117.1,37.3,116.9,36.4z
			 M108.2,37.7L108.2,37.7L108.2,37.7L108.2,37.7z"/>
		<path class="st1" d="M77.4,56.3L77.4,56.3c0.4,0,0.9-0.2,1.3-0.5c0.6-0.6,0.8-1.3,0.4-1.7c-0.4-0.4-1.1-0.2-1.7,0.4
			c-0.4,0.4-0.6,0.8-0.7,1.2c0,0.2,0.1,0.4,0.1,0.5C77,56.3,77.2,56.3,77.4,56.3z"/>
		<path class="st1" d="M85.2,57.6c-0.6-0.2-1.2-0.3-1.6-0.1c-0.2,0.1-0.4,0.2-0.4,0.4c-0.2,0.6,0.3,1.3,1.2,1.7
			c0.4,0.1,0.7,0.2,1,0.2c0.5,0,0.9-0.1,1-0.5C86.7,58.7,86.1,58,85.2,57.6z"/>
	</g>
	<ellipse transform="matrix(0.2144 -0.9767 0.9767 0.2144 16.946 124.2061)" class="st5" cx="85.7" cy="51.6" rx="1.3" ry="0.7"/>
	<ellipse transform="matrix(0.8354 -0.5496 0.5496 0.8354 -15.487 56.9911)" class="st5" cx="87.4" cy="54.4" rx="1" ry="1.7"/>
	<ellipse transform="matrix(0.8354 -0.5496 0.5496 0.8354 -10.4095 58.7326)" class="st5" cx="92.9" cy="46.7" rx="1" ry="1.7"/>
	<ellipse transform="matrix(0.1722 -0.9851 0.9851 0.1722 2.1551 127.2829)" class="st5" cx="76.8" cy="62.4" rx="1.4" ry="0.8"/>
	<ellipse transform="matrix(0.9709 -0.2396 0.2396 0.9709 -12.4531 21.9177)" class="st5" cx="83.9" cy="62.2" rx="0.9" ry="1.6"/>
	<ellipse transform="matrix(0.9709 -0.2396 0.2396 0.9709 -5.5293 27.7408)" class="st5" cx="111.3" cy="36.6" rx="0.9" ry="1.6"/>
	<ellipse transform="matrix(0.9709 -0.2396 0.2396 0.9709 -5.2973 28.0362)" class="st5" cx="112.7" cy="35.8" rx="0.9" ry="1.6"/>
	<ellipse transform="matrix(0.9709 -0.2396 0.2396 0.9709 -4.9401 27.8505)" class="st5" cx="112.1" cy="34.2" rx="0.9" ry="1.6"/>
	<ellipse transform="matrix(0.8528 -0.5222 0.5222 0.8528 -19.058 52.4254)" class="st5" cx="83.5" cy="60" rx="0.7" ry="1.3"/>
	<ellipse transform="matrix(0.9801 -0.1986 0.1986 0.9801 -10.4711 17.6015)" class="st5" cx="82.5" cy="61" rx="1.7" ry="1"/>
	<ellipse transform="matrix(0.9709 -0.2396 0.2396 0.9709 -6.5694 27.328)" class="st5" cx="109.1" cy="40.7" rx="0.9" ry="1.6"/>
	<ellipse transform="matrix(0.8528 -0.5222 0.5222 0.8528 -4.1282 62.4231)" class="st5" cx="108.7" cy="38.5" rx="0.7" ry="1.3"/>
	<ellipse transform="matrix(0.9801 -0.1986 0.1986 0.9801 -5.6963 22.191)" class="st5" cx="107.8" cy="39.5" rx="1.7" ry="1"/>
	<ellipse transform="matrix(0.9801 -0.1986 0.1986 0.9801 -6.987 21.4463)" class="st5" cx="103.4" cy="45.6" rx="1.7" ry="1"/>
	<ellipse transform="matrix(0.9801 -0.1986 0.1986 0.9801 -5.0061 23.4559)" class="st5" cx="114.4" cy="36.7" rx="1.7" ry="1"/>
	<ellipse transform="matrix(0.5064 -0.8623 0.8623 0.5064 -3.3184 104.3997)" class="st5" cx="89.5" cy="55.1" rx="1" ry="1.6"/>
	<ellipse transform="matrix(0.2215 -0.9752 0.9752 0.2215 0.6394 127.4941)" class="st5" cx="80.2" cy="63.3" rx="1" ry="1.7"/>
	<ellipse transform="matrix(0.9709 -0.2396 0.2396 0.9709 -9.7395 23.0991)" class="st5" cx="90.1" cy="51.6" rx="0.9" ry="1.6"/>
	<ellipse transform="matrix(0.5 -0.866 0.866 0.5 -5.6201 100.2353)" class="st5" cx="84" cy="55" rx="1.8" ry="1"/>
	<ellipse transform="matrix(0.5 -0.866 0.866 0.5 10.5721 108.6051)" class="st5" cx="99.3" cy="45.1" rx="1.8" ry="1"/>
	<ellipse transform="matrix(0.2142 -0.9768 0.9768 0.2142 41.6296 141.0551)" class="st5" cx="108.5" cy="44.7" rx="1.3" ry="0.7"/>
	<ellipse transform="matrix(0.5359 -0.8443 0.8443 0.5359 -13.4856 91.5577)" class="st5" cx="76.5" cy="58" rx="1" ry="1.7"/>
	
		<ellipse transform="matrix(8.686416e-02 -0.9962 0.9962 8.686416e-02 7.8008 128.9608)" class="st5" cx="74.2" cy="60.2" rx="1.7" ry="1"/>
	<ellipse transform="matrix(0.9587 -0.2843 0.2843 0.9587 -14.1162 23.8345)" class="st5" cx="75" cy="60.5" rx="1.7" ry="1"/>
	<ellipse transform="matrix(0.9587 -0.2844 0.2844 0.9587 -13.4338 25.3335)" class="st5" cx="80.5" cy="58.9" rx="1.7" ry="1"/>
	<ellipse transform="matrix(0.9587 -0.2844 0.2844 0.9587 -9.0299 28.7494)" class="st5" cx="94.5" cy="45.5" rx="1.7" ry="1"/>
	<ellipse transform="matrix(0.9844 -0.1758 0.1758 0.9844 -7.6731 17.0415)" class="st5" cx="92.3" cy="51.8" rx="1.7" ry="1"/>
	<ellipse transform="matrix(0.9731 -0.2304 0.2304 0.9731 -11.024 19.8864)" class="st5" cx="79.6" cy="57.1" rx="1.4" ry="0.8"/>
	<ellipse transform="matrix(0.7354 -0.6776 0.6776 0.7354 -12.6449 77.4695)" class="st5" cx="92.9" cy="54.9" rx="1.7" ry="1"/>
	<ellipse transform="matrix(0.9709 -0.2396 0.2396 0.9709 -10.2291 23.3733)" class="st5" cx="91" cy="53.8" rx="1" ry="1.8"/>
	<ellipse transform="matrix(0.9709 -0.2396 0.2396 0.9709 -6.7007 26.3937)" class="st5" cx="105.2" cy="40.8" rx="1" ry="1.8"/>
	<ellipse transform="matrix(0.9891 -0.1471 0.1471 0.9891 -5.0491 15.2978)" class="st5" cx="100.9" cy="41.8" rx="1.8" ry="1"/>
	<ellipse transform="matrix(0.9891 -0.147 0.147 0.9891 -5.1598 15.0998)" class="st5" cx="99.6" cy="42.5" rx="1.8" ry="1"/>
	<ellipse transform="matrix(0.9891 -0.1471 0.1471 0.9891 -4.5698 16.9234)" class="st5" cx="112.1" cy="39.4" rx="1.8" ry="1"/>
	<ellipse transform="matrix(0.2216 -0.9751 0.9751 0.2216 12.4759 130.9745)" class="st5" cx="88.3" cy="57.7" rx="0.8" ry="1.4"/>
	<ellipse transform="matrix(0.2214 -0.9752 0.9752 0.2214 37.9744 133.0047)" class="st5" cx="102.3" cy="42.7" rx="0.8" ry="1.4"/>
	<ellipse transform="matrix(0.9709 -0.2396 0.2396 0.9709 -10.9325 21.1206)" class="st5" cx="81.4" cy="55.5" rx="0.9" ry="1.6"/>
	<ellipse transform="matrix(0.9709 -0.2396 0.2396 0.9709 -6.7458 25.8784)" class="st5" cx="103.1" cy="40.7" rx="0.9" ry="1.6"/>
	<ellipse transform="matrix(0.8354 -0.5497 0.5497 0.8354 -15.6892 54.1189)" class="st5" cx="82.5" cy="53.3" rx="0.8" ry="1.4"/>
	<ellipse transform="matrix(0.9186 -0.3951 0.3951 0.9186 -16.0043 33.505)" class="st5" cx="73.4" cy="55.6" rx="1.4" ry="0.8"/>
	<ellipse transform="matrix(0.9709 -0.2396 0.2396 0.9709 -10.7519 22.0335)" class="st5" cx="85.2" cy="55.2" rx="0.9" ry="1.6"/>
	<ellipse transform="matrix(0.5065 -0.8623 0.8623 0.5065 5.9187 107.045)" class="st5" cx="96.5" cy="48.4" rx="1" ry="1.6"/>
	<ellipse transform="matrix(0.9709 -0.2396 0.2396 0.9709 -8.0766 24.657)" class="st5" cx="97.4" cy="45.5" rx="0.9" ry="1.6"/>
	<ellipse transform="matrix(0.9709 -0.2396 0.2396 0.9709 -6.9349 24.7674)" class="st5" cx="98.4" cy="40.9" rx="0.9" ry="1.6"/>
	<ellipse transform="matrix(0.5 -0.866 0.866 0.5 3.8933 100.9184)" class="st5" cx="89.3" cy="47.1" rx="1.8" ry="1"/>
	<ellipse transform="matrix(0.9844 -0.1758 0.1758 0.9844 -6.4985 18.2072)" class="st5" cx="99.5" cy="45.8" rx="1.7" ry="1"/>
	<ellipse transform="matrix(0.9844 -0.1758 0.1758 0.9844 -6.2081 18.6774)" class="st5" cx="102.3" cy="44.4" rx="1.7" ry="1"/>
	<ellipse transform="matrix(0.9844 -0.1758 0.1758 0.9844 -4.9956 19.212)" class="st5" cx="105.9" cy="37.8" rx="1.7" ry="1"/>
	<ellipse transform="matrix(0.7354 -0.6776 0.6776 0.7354 -6.6219 80.7676)" class="st5" cx="100.1" cy="48.9" rx="1.7" ry="1"/>
	
		<ellipse transform="matrix(5.929831e-02 -0.9982 0.9982 5.929831e-02 58.3583 145.4022)" class="st5" cx="106.3" cy="41.7" rx="1.7" ry="1"/>
	<ellipse transform="matrix(0.9709 -0.2396 0.2396 0.9709 -9.1199 24.7999)" class="st5" cx="97.4" cy="49.9" rx="1" ry="1.8"/>
	<ellipse transform="matrix(0.6318 -0.7751 0.7751 0.6318 11.9788 98.8201)" class="st5" cx="110" cy="36.8" rx="1.8" ry="1"/>
	<ellipse transform="matrix(0.6318 -0.7751 0.7751 0.6318 12.3413 96.7295)" class="st5" cx="108" cy="35.4" rx="1.8" ry="1"/>
	<ellipse transform="matrix(0.9709 -0.2396 0.2396 0.9709 -9.1499 24.2485)" class="st5" cx="95.2" cy="49.8" rx="1" ry="1.8"/>
	<ellipse transform="matrix(0.9709 -0.2396 0.2396 0.9709 -5.2961 28.9151)" class="st5" cx="116.3" cy="36.2" rx="0.9" ry="1.6"/>
	<ellipse transform="matrix(0.9844 -0.1758 0.1758 0.9844 -7.8026 16.332)" class="st5" cx="88.3" cy="52.2" rx="1.7" ry="1"/>
	<ellipse transform="matrix(0.7354 -0.6776 0.6776 0.7354 -16.4143 67.5713)" class="st5" cx="78.3" cy="54.8" rx="1.4" ry="0.8"/>
	<ellipse transform="matrix(0.7354 -0.6776 0.6776 0.7354 -4.7571 82.6475)" class="st5" cx="103.5" cy="47.4" rx="1.4" ry="0.8"/>
	<ellipse transform="matrix(0.3931 -0.9195 0.9195 0.3931 -1.8539 113.5217)" class="st5" cx="85.1" cy="58.2" rx="1" ry="1.7"/>
	
		<ellipse transform="matrix(7.637435e-02 -0.9971 0.9971 7.637435e-02 32.5467 136.5288)" class="st5" cx="90" cy="50.7" rx="1.6" ry="1"/>
</g>
<g>
	<g>
		<path class="st6" d="M75.1,93.6c0.5,0.1,1,0.6,1,1.2c0,1.6-1.2,2.6-2.7,2.4c-0.5-0.1-1-0.6-1-1.2s0.4-1,1-0.9
			c0.4,0.1,0.7-0.2,0.7-0.6C74.2,93.9,74.6,93.5,75.1,93.6z"/>
	</g>
	<g>
		<path class="st6" d="M74.8,75.7c0.7,0.1,1.3,0.4,1.8,1s0.8,1.3,0.9,2.1c0,0.6-0.4,1-1,1h-0.1c-0.5-0.1-1-0.6-1-1.1
			c0-0.2-0.1-0.4-0.2-0.5l-0.5-0.4c-0.6-0.1-1-0.6-1-1.1c0-0.6,0.4-1,1-1C74.8,75.7,74.8,75.7,74.8,75.7z"/>
	</g>
	<g>
		<path class="st6" d="M68.6,80.1c0.4,0.1,0.9,0.3,1.3,0.6c0.4,0.4,0.6,1,0.3,1.5c-0.1,0.3-0.5,0.4-0.8,0.4c-0.1,0-0.4-0.1-0.5-0.2
			c-0.1-0.1-0.1-0.1-0.2-0.1c-0.1,0-0.3,0-0.4,0.1c-0.2,0.3-0.5,0.4-0.8,0.4c-0.1,0-0.4-0.1-0.5-0.2c-0.4-0.4-0.6-1-0.3-1.5
			C66.9,80.3,67.7,80,68.6,80.1z"/>
	</g>
	<g>
		<path class="st6" d="M56.4,86.7c0.2,0,0.4,0.1,0.7,0.2c0.7,0.3,1.1,0.8,1.5,1.4c0.3,0.5,0.1,1.2-0.4,1.3l-0.4,0.1
			c-0.4-0.1-0.7-0.3-0.8-0.7l-0.3-0.3h-0.4c-0.1,0.1-0.3,0.1-0.4,0.1c-0.4-0.1-0.7-0.3-0.8-0.7c-0.3-0.5-0.1-1.2,0.4-1.3
			C55.6,86.7,55.9,86.6,56.4,86.7z"/>
	</g>
	<g>
		<path class="st6" d="M63.6,83.9c0.1,0,0.2,0.1,0.3,0.1c0.7,0.3,1.1,0.8,1.4,1.5s0.4,1.3,0.1,2c-0.1,0.4-0.5,0.7-0.9,0.6L64.3,88
			c-0.5-0.3-0.8-0.9-0.6-1.4v-0.4l-0.3-0.3c-0.5-0.3-0.8-0.9-0.7-1.4C62.8,84,63.2,83.9,63.6,83.9z"/>
	</g>
	<g>
		<path class="st6" d="M63.2,75.7c0.5,0.1,1,0.6,1,1.2c0,1.4-1.1,2.4-2.4,2.2c-0.5-0.1-1-0.6-1-1.2c0-0.6,0.4-1,1-0.9
			c0.3,0.1,0.5-0.1,0.5-0.4C62.2,76,62.6,75.6,63.2,75.7z"/>
	</g>
	<g>
		<path class="st6" d="M57.4,92.5c0.1,0,0.1,0.1,0.3,0.1c0.5,0.2,0.8,0.9,0.7,1.4c-0.1,0.4,0.1,1,0.6,1.1c0.5,0.2,0.8,0.9,0.7,1.3
			c-0.1,0.4-0.5,0.7-1,0.6l-0.3-0.1c-1.5-0.7-2.3-2.4-1.9-3.9C56.6,92.6,57,92.4,57.4,92.5z"/>
	</g>
	<g>
		<path class="st6" d="M65,92.7c0.5,0.1,1,0.6,1,1.2c0,1.6-1.3,2.7-2.7,2.5c-0.5-0.1-1-0.6-1-1.2s0.4-1,1-0.9
			c0.4,0.1,0.8-0.2,0.8-0.7C64,93,64.5,92.6,65,92.7z"/>
	</g>
	<g>
		<path class="st6" d="M50.8,86.3c0.3,0.1,0.6,0.2,0.7,0.5c0.4,0.5,0.3,1.1-0.1,1.4c-0.1,0.1-0.3,0.3-0.3,0.5c0,0.2,0,0.4,0.1,0.7
			c0.4,0.5,0.3,1.1-0.1,1.4C50.8,91,50.7,91,50.5,91c-0.3-0.1-0.6-0.2-0.7-0.5c-0.4-0.7-0.7-1.5-0.6-2.2c0.1-0.7,0.4-1.4,1-1.8
			C50.3,86.3,50.5,86.3,50.8,86.3z"/>
	</g>
	<g>
		<path class="st6" d="M49.6,78.8c0.5,0.1,1,0.6,1,1.2s-0.4,1-1,0.9c-0.4-0.1-0.8,0.3-0.8,0.7c0,0.6-0.4,1-1,0.9
			c-0.5-0.1-1-0.6-1-1.2C46.9,79.7,48.1,78.6,49.6,78.8z"/>
	</g>
	<g>
		<path class="st6" d="M57.9,79.2c0.2,0,0.4,0.1,0.6,0.3C59,80,59,80.6,58.7,81c-0.5,0.6-1.3,0.9-2.1,0.7c-0.6-0.1-1.3-0.4-1.8-1
			c-0.4-0.4-0.4-1.1-0.1-1.5c0.2-0.2,0.4-0.3,0.7-0.3c0.2,0,0.4,0.1,0.6,0.3c0.1,0.1,0.4,0.2,0.5,0.3c0.2,0,0.4,0,0.6-0.2
			C57.3,79.2,57.6,79.2,57.9,79.2z"/>
	</g>
	<g>
		<path class="st6" d="M55.1,72.7c0.6,0.1,1.3,0.4,1.8,1c0.4,0.4,0.4,1.1,0.1,1.5c-0.2,0.2-0.4,0.3-0.7,0.2c-0.2,0-0.4-0.1-0.6-0.3
			s-0.4-0.2-0.5-0.3c-0.2,0-0.4,0-0.6,0.2c-0.2,0.2-0.4,0.3-0.7,0.2c-0.2,0-0.4-0.1-0.6-0.4c-0.4-0.4-0.4-1.1-0.1-1.5
			C53.6,72.8,54.4,72.6,55.1,72.7z"/>
	</g>
	<g>
		<path class="st6" d="M72.2,84.9c0.5,0.1,1,0.6,1,1.2c0,1.6-1.3,2.7-2.7,2.5c-0.5-0.1-1-0.6-1-1.2c0-0.6,0.4-1,1-0.9
			c0.4,0.1,0.8-0.3,0.8-0.7C71.3,85.2,71.7,84.8,72.2,84.9z"/>
	</g>
	<g class="st0">
		<path class="st1" d="M78,84.4c0.4-0.3,1.1-0.3,1.6,0.1c1.1,1.1,1.1,2.8-0.1,3.7c-0.4,0.3-1.1,0.3-1.6-0.1c-0.4-0.4-0.4-1,0.1-1.3
			c0.4-0.3,0.4-0.7,0.1-1.1C77.6,85.4,77.6,84.8,78,84.4z"/>
	</g>
	<g>
		<path class="st6" d="M78.3,83.8c0.4-0.3,1.1-0.3,1.6,0.1c1.1,1.1,1.1,2.8-0.1,3.7c-0.4,0.3-1.1,0.3-1.6-0.1
			c-0.4-0.4-0.4-1,0.1-1.3c0.4-0.3,0.4-0.7,0.1-1.1C77.8,84.8,77.9,84.2,78.3,83.8z"/>
	</g>
</g>
</svg>
