<?xml version="1.0" encoding="utf-8"?>
<!-- Generator: Adobe Illustrator 16.0.0, SVG Export Plug-In . SVG Version: 6.00 Build 0)  -->
<!DOCTYPE svg PUBLIC "-//W3C//DTD SVG 1.1//EN" "http://www.w3.org/Graphics/SVG/1.1/DTD/svg11.dtd">
<svg version="1.1" id="Layer_1" xmlns="http://www.w3.org/2000/svg" xmlns:xlink="http://www.w3.org/1999/xlink" x="0px" y="0px"
	 width="180px" height="220px" viewBox="0 0 180 220" enable-background="new 0 0 180 220" xml:space="preserve">
<g opacity="0.1">
	<path d="M140.133,157.248c0,0.052-0.017,0.104-0.017,0.154c-0.058-9.848-11.729-18.412-33.88-24.35
		c-29.723-7.965-52.931-4.414-63.67,9.747c-2.85,3.759-4.137,7.479-3.977,11.058c-0.006-0.111-0.034-0.215-0.04-0.328l0.183,10.201
		c0.177,10.076,11.89,19.076,33.329,24.82c28.843,7.729,53.441,3.708,64.208-10.494c2.771-3.649,4.098-7.205,4.041-10.606
		L140.133,157.248z"/>
	<path d="M99.371,193.701c-0.006,0-0.006,0-0.006,0c-8.645,0-17.943-1.316-27.636-3.914c-21.914-5.87-34.084-15.113-34.279-26.033
		l-0.177-10.202c-0.006-0.086,0.006-0.172,0.023-0.261c-0.006-3.744,1.424-7.532,4.251-11.264
		c7.158-9.438,19.637-14.424,36.082-14.424c8.766,0,18.51,1.416,28.939,4.211c22.465,6.02,34.49,14.733,34.822,25.215
		c0.012,0.063,0.019,0.13,0.019,0.195l0.183,10.201c0.062,3.723-1.385,7.559-4.303,11.406
		C130.021,188.423,116.548,193.701,99.371,193.701z M39.842,154.109l0.172,9.602c0.166,9.535,11.97,18.135,32.379,23.604
		c9.475,2.539,18.55,3.828,26.972,3.828c0,0,0,0,0.006,0c16.357,0,29.102-4.92,35.876-13.857c2.562-3.381,3.839-6.68,3.78-9.812
		l-0.17-9.853c-0.012-0.069-0.023-0.138-0.023-0.212c-0.046-9.232-11.741-17.442-32.93-23.119
		c-10.219-2.737-19.727-4.128-28.275-4.128c-15.615,0-27.384,4.641-34.039,13.412c-2.621,3.45-3.874,6.892-3.725,10.225l0,0v0.007
		C39.871,153.906,39.865,154.01,39.842,154.109z"/>
</g>
<g>
	<path d="M99.869,176.979c-6.374,0-10.471-1.375-10.86-1.508c-0.669-0.234-1.019-0.961-0.784-1.631
		c0.229-0.663,0.967-1.023,1.625-0.789c0.206,0.068,20.976,6.946,42.855-11.916c0.531-0.455,1.352-0.4,1.809,0.135
		c0.457,0.539,0.4,1.346-0.138,1.809C121.143,174.48,108.445,176.979,99.869,176.979z"/>
</g>
<g>
	<path fill="#E0C382" d="M140.133,148.459c0,0.052-0.017,0.104-0.017,0.155c-0.058-9.849-11.729-18.413-33.88-24.351
		c-29.723-7.964-52.931-4.414-63.67,9.747c-2.85,3.761-4.137,7.479-3.977,11.058c-0.006-0.11-0.034-0.215-0.04-0.328l0.183,10.201
		c0.177,10.076,11.89,19.076,33.329,24.82c28.843,7.73,53.441,3.708,64.208-10.492c2.771-3.65,4.098-7.207,4.041-10.608
		L140.133,148.459z"/>
	<path fill="#CA9A62" d="M99.371,184.913c-0.006,0-0.006,0-0.006,0c-8.645,0-17.943-1.315-27.636-3.914
		c-21.914-5.87-34.084-15.114-34.279-26.034l-0.177-10.201c-0.006-0.086,0.006-0.172,0.023-0.261
		c-0.006-3.745,1.424-7.532,4.251-11.265c7.158-9.438,19.637-14.424,36.082-14.424c8.766,0,18.51,1.418,28.939,4.213
		c22.465,6.019,34.49,14.731,34.822,25.215c0.012,0.062,0.019,0.129,0.019,0.193l0.183,10.203c0.062,3.721-1.385,7.559-4.303,11.405
		C130.021,179.635,116.548,184.913,99.371,184.913z M39.842,145.32l0.172,9.602c0.166,9.535,11.97,18.137,32.379,23.605
		c9.475,2.537,18.55,3.828,26.972,3.828c0,0,0,0,0.006,0c16.357,0,29.102-4.922,35.876-13.858c2.562-3.382,3.839-6.681,3.78-9.812
		l-0.17-9.854c-0.012-0.067-0.023-0.138-0.023-0.212c-0.046-9.23-11.741-17.442-32.93-23.118
		c-10.219-2.739-19.727-4.127-28.275-4.127c-15.615,0-27.384,4.64-34.039,13.41c-2.621,3.45-3.874,6.893-3.725,10.225l0,0v0.007
		C39.871,145.118,39.865,145.221,39.842,145.32z"/>
</g>
<g>
	<path fill="#CA9A62" d="M99.869,174.05c-6.374,0-10.471-1.376-10.86-1.508c-0.669-0.233-1.019-0.961-0.784-1.631
		c0.229-0.663,0.967-1.022,1.625-0.789c0.206,0.067,20.976,6.946,42.855-11.916c0.531-0.454,1.352-0.399,1.809,0.135
		c0.457,0.538,0.4,1.345-0.138,1.808C121.143,171.553,108.445,174.05,99.869,174.05z"/>
</g>
<g opacity="0.1">
	<g>
		<path d="M117.609,125.477c0.226,0.06,0.427,0.153,0.584,0.282c0.051,0.048,2.549,2.105,4.189,5.369
			c1.62,3.259,2.354,7.753-1.261,12.524c-1.66,2.187-4.259,4.436-8.042,6.615c-0.443,0.269-1.094,0.319-1.617,0.18
			c-0.163-0.043-0.316-0.108-0.449-0.188c-0.533-0.354-0.518-0.911,0.066-1.262c0.458-0.263,0.893-0.522,1.311-0.784
			c2.832-1.773,4.774-3.559,6.076-5.275c3.041-4.011,2.649-7.78,1.376-10.698c-0.913-2.044-2.263-3.656-3.142-4.577
			c-0.377-0.393-0.666-0.658-0.801-0.778l-0.086-0.077c-0.483-0.392-0.317-0.943,0.326-1.228
			C116.585,125.378,117.146,125.35,117.609,125.477z"/>
	</g>
	<g>
		<path d="M133.204,131.288c2.89,3.862,2.153,7.981,0.062,10.706c-0.197,0.26-0.423,0.515-0.635,0.758
			c-2.561,2.734-6.816,4.964-9.941,5.667l-0.291,0.08c-0.916,0.372-1.573,0.636-2.101,0.913c-0.521,0.266-0.952,0.568-1.245,0.878
			c-0.123,0.126-0.223,0.258-0.33,0.399c-0.179,0.235-0.379,0.498-0.6,0.791c-0.432,0.601-1.032,1.283-1.422,1.529
			c-0.454,0.336-1.038,0.688-1.533,0.959c-0.252,0.143-0.458,0.264-0.645,0.354l-0.229,0.11c-0.393,0.176-0.633,0.308-0.896,0.498
			c-0.295,0.2-0.565,0.443-0.789,0.735c-0.271,0.36-0.489,0.835-0.301,1.354c-0.006,0.265-0.158,0.996-0.504,1.834
			c-0.347,0.84-0.863,1.822-1.539,2.711c-0.695,0.92-1.539,1.728-2.435,2.19c-1.733,0.955-4.435,2.392-8.005,3.224
			c-3.533,0.824-7.889,1.097-13.329-0.346c-3.493-0.933-5.633-2.332-7.041-3.588c-0.681-0.621-1.208-1.219-1.537-1.693
			c-0.177-0.224-0.332-0.438-0.446-0.59l-0.292-0.412c-0.492-0.605-1.265-1.48-2.907-1.938c-0.815-0.218-1.619-0.257-2.386-0.233
			c-0.741,0.027-1.41,0.113-1.991,0.273c-0.174,0.04-1.599,0.395-3.653,0.566c-2.048,0.148-4.717,0.104-7.47-0.636
			c-1.773-0.491-3.622-1.259-5.418-2.5c-2.695-2.255-3.281-4.252-3.195-5.808c0.077-1.542,0.861-2.615,1.09-2.953
			c0.397-0.525,0.509-1.093,0.449-1.619c-0.086-0.525-0.297-1.035-0.875-1.474l-0.254-0.304c-0.504-0.66-1.368-2.067-1.734-3.676
			c-0.412-1.619-0.329-3.439,0.867-4.979c2.289-3.02,5.007-4.623,7.189-5.338c1.439-0.455,2.409-1.129,2.938-1.825
			c0.609-0.836,0.669-1.683,0.615-2.329c-0.031-0.375-0.14-1.104,0.02-2.08c0.154-0.959,0.552-2.168,1.514-3.438
			c0.775-1.021,1.902-2.086,3.582-3.127c2.895-1.805,6.394-2.621,9.507-2.963c3.072-0.334,5.773-0.137,6.605,0.017
			c0.979,0.155,2.229,0.368,3.616,0.741c1.857,0.515,3.948,1.285,5.785,2.584c1.028,0.732,2.14,1.205,3.215,1.494
			c2.512,0.672,4.784,0.334,5.606,0.203c0.455-0.07,1.85-0.277,3.438-0.359c1.566-0.088,3.35-0.051,4.484,0.238
			c0.67,0.143,1.324,0.301,1.973,0.476c2.191,0.604,4.199,1.334,6.214,3.085c0.817,0.806,2.119,1.604,3.8,2.054
			c0.428,0.115,0.883,0.201,1.381,0.265c0.096-0.013,0.619,0.098,1.287,0.273C125.396,125.83,130.749,127.964,133.204,131.288z
			 M71.401,155.451c0.784-0.123,1.267-0.605,1.09-1.094c-0.2-0.502-0.386-1-0.558-1.492l14.922-29.911
			c0.42-0.151,0.824-0.283,1.196-0.396c0.735-0.207,1.05-0.736,0.695-1.183c-0.146-0.194-0.395-0.337-0.698-0.419
			c-0.375-0.1-0.833-0.102-1.244,0.021c-4.349,1.289-10.794,4.513-15.097,10.147c-4.18,5.515-6.191,13.292-2.062,23.677
			c0.109,0.274,0.426,0.486,0.824,0.596C70.751,155.475,71.077,155.497,71.401,155.451 M113.081,150.268
			c3.784-2.18,6.382-4.429,8.042-6.613c3.615-4.772,2.881-9.268,1.261-12.525c-1.642-3.268-4.14-5.32-4.19-5.369
			c-0.156-0.129-0.357-0.224-0.584-0.283c-0.463-0.125-1.023-0.098-1.467,0.104c-0.645,0.283-0.811,0.836-0.326,1.229l0.086,0.076
			c0.135,0.12,0.424,0.387,0.801,0.778l-4.311,20.552c-0.418,0.262-0.854,0.521-1.312,0.784c-0.584,0.351-0.601,0.907-0.065,1.262
			c0.131,0.08,0.285,0.146,0.448,0.188C111.988,150.588,112.639,150.536,113.081,150.268"/>
	</g>
	<g enable-background="new    ">
		<g>
			<path d="M135.882,130.533c3.257,4.4,2.452,8.992,0.043,12.17c-0.243,0.32-0.504,0.617-0.747,0.904
				c-2.906,3.05-7.316,5.453-11.332,6.426c-0.822,0.326-1.339,0.549-1.688,0.721c-0.344,0.188-0.469,0.277-0.581,0.389l-0.2,0.262
				c-0.154,0.203-0.363,0.482-0.598,0.787c-0.498,0.656-1.062,1.4-1.859,1.959c-0.863,0.608-1.874,1.182-2.529,1.514
				c-0.229,0.113-0.381,0.197-0.588,0.279l-0.529,0.44l-0.109,0.253l0.061,0.485c-0.002,0.16-0.018,0.332-0.055,0.532
				c-0.077,0.365-0.217,0.818-0.393,1.316c-0.387,1-0.995,2.186-1.848,3.312c-0.799,1.047-1.785,2.048-3.152,2.786
				c-1.769,0.961-4.777,2.58-8.918,3.56c-4.131,0.983-9.44,1.274-15.494-0.347c-7.152-1.918-9.747-5.594-10.6-6.823l-0.195-0.313
				c-0.357-0.459-0.998-0.971-1.484-1.1c-0.275-0.074-0.678-0.113-1.09-0.102c-0.412,0.013-0.81,0.084-0.95,0.113
				c-0.36,0.096-2.04,0.525-4.486,0.711c-2.42,0.191-5.659,0.135-9.009-0.764c-2.2-0.589-4.435-1.557-6.526-3.013
				c-3.118-2.606-3.917-5.05-3.788-6.927c0.103-1.889,1.064-3.228,1.339-3.627c0.154-0.201,0.246-0.51,0.209-0.768
				c-0.026-0.27-0.206-0.492-0.252-0.544c-0.246-0.168-0.36-0.319-0.535-0.543c-0.203-0.229-0.392-0.51-0.601-0.847
				c-0.42-0.658-0.878-1.534-1.213-2.535c-0.678-1.991-0.901-4.506,0.867-6.838c2.526-3.312,5.564-5.237,8.511-6.176
				c0.884-0.289,1.302-0.615,1.616-0.987c0.332-0.44,0.398-0.984,0.349-1.487c-0.029-0.344-0.146-1.213,0.023-2.345
				c0.189-1.125,0.649-2.529,1.776-4.017c0.907-1.197,2.223-2.439,4.171-3.639c3.404-2.139,7.558-3.097,11.103-3.48
				c3.57-0.377,6.482-0.192,7.91,0.05c0.976,0.157,2.403,0.399,4.008,0.827c2.154,0.578,4.621,1.502,6.823,3.041
				c0.746,0.533,1.484,0.853,2.177,1.039c1.582,0.422,3.008,0.209,3.688,0.111c0.599-0.103,2.108-0.312,3.911-0.408
				c1.824-0.091,3.925-0.088,5.811,0.348c0.67,0.143,1.373,0.314,2.094,0.508c2.465,0.661,5.088,1.645,7.385,3.663
				c0.537,0.557,1.605,1.203,2.561,1.458c0.305,0.082,0.529,0.124,0.723,0.14c0.58,0.068,1.201,0.2,2.014,0.418
				C126.959,124.303,132.893,126.574,135.882,130.533z M132.632,142.752c0.212-0.243,0.438-0.498,0.636-0.758
				c2.092-2.725,2.826-6.844-0.062-10.706c-2.455-3.324-7.809-5.458-10.622-6.214c-0.774-0.205-1.299-0.314-1.394-0.303
				c-0.498-0.062-0.953-0.148-1.383-0.265c-1.68-0.45-2.98-1.248-3.797-2.057c-2.017-1.748-4.023-2.479-6.216-3.083
				c-0.647-0.174-1.302-0.333-1.972-0.477c-1.137-0.287-2.918-0.326-4.485-0.238c-1.588,0.084-2.981,0.289-3.437,0.359
				c-0.823,0.133-3.096,0.469-5.607-0.203c-1.075-0.289-2.186-0.761-3.215-1.492c-1.837-1.299-3.928-2.07-5.785-2.586
				c-1.388-0.373-2.638-0.584-3.616-0.74c-0.833-0.153-3.533-0.352-6.605-0.016c-3.113,0.342-6.612,1.158-9.507,2.961
				c-1.679,1.041-2.807,2.107-3.582,3.129c-0.961,1.269-1.359,2.478-1.514,3.437c-0.16,0.976-0.051,1.705-0.02,2.08
				c0.054,0.646-0.006,1.493-0.615,2.329c-0.529,0.697-1.499,1.37-2.938,1.824c-2.183,0.716-4.9,2.32-7.178,5.324
				c-1.208,1.553-1.291,3.373-0.878,4.992c0.366,1.607,1.23,3.016,1.734,3.676l0.263,0.301c0.569,0.44,0.781,0.949,0.867,1.477
				c0.06,0.525-0.052,1.094-0.438,1.604c-0.24,0.354-1.024,1.428-1.101,2.97c-0.086,1.556,0.5,3.553,3.201,5.805
				c1.791,1.244,3.639,2.011,5.413,2.503c2.752,0.738,5.421,0.784,7.47,0.635c2.054-0.172,3.479-0.525,3.665-0.582
				c0.569-0.145,1.239-0.229,1.979-0.258c0.767-0.022,1.571,0.018,2.386,0.233c1.642,0.458,2.415,1.333,2.907,1.938l0.292,0.412
				c0.115,0.152,0.269,0.366,0.446,0.59c0.329,0.476,0.855,1.072,1.537,1.693c1.407,1.256,3.547,2.655,6.846,3.536
				c5.636,1.493,9.99,1.222,13.523,0.397c3.57-0.832,6.271-2.27,8.005-3.225c0.896-0.464,1.739-1.271,2.435-2.191
				c0.676-0.888,1.192-1.871,1.539-2.709c0.346-0.838,0.498-1.57,0.498-1.799c-0.184-0.557,0.034-1.031,0.307-1.392
				c0.224-0.292,0.494-0.535,0.789-0.735c0.264-0.191,0.504-0.322,0.815-0.467l0.31-0.143c0.186-0.092,0.392-0.213,0.644-0.354
				c0.495-0.272,1.079-0.624,1.533-0.959c0.39-0.246,0.989-0.93,1.422-1.53c0.222-0.291,0.421-0.555,0.599-0.789
				c0.108-0.144,0.209-0.274,0.332-0.4c0.291-0.309,0.725-0.612,1.244-0.878c0.526-0.277,1.186-0.541,2.1-0.913l0.293-0.08
				C125.814,147.716,130.07,145.486,132.632,142.752"/>
		</g>
		<g>
			<path d="M86.855,122.955l-14.922,29.911c-3.235-9.308-1.259-16.164,2.432-21.024C77.926,127.141,83.162,124.275,86.855,122.955z"
				/>
		</g>
		<g>
			<path d="M88.048,120.958c0.303,0.082,0.552,0.226,0.698,0.419c0.355,0.446,0.037,0.977-0.695,1.184
				c-0.372,0.11-0.775,0.242-1.196,0.395c-3.693,1.322-8.929,4.186-12.49,8.886c-3.691,4.86-5.667,11.718-2.432,21.024
				c0.172,0.492,0.358,0.99,0.558,1.492c0.177,0.486-0.306,0.971-1.09,1.094c-0.324,0.046-0.649,0.023-0.933-0.051
				c-0.397-0.109-0.715-0.321-0.824-0.596c-4.128-10.386-2.117-18.164,2.062-23.678c4.303-5.636,10.749-8.857,15.097-10.148
				C87.215,120.855,87.673,120.857,88.048,120.958z"/>
		</g>
	</g>
	<g>
		<path d="M116.702,127.661c0.879,0.921,2.229,2.534,3.142,4.577c1.273,2.918,1.665,6.688-1.376,10.699
			c-1.302,1.717-3.243,3.502-6.075,5.274L116.702,127.661z"/>
	</g>
</g>
<g>
	<g>
		<path fill="#442C00" d="M117.609,122.546c0.226,0.06,0.427,0.156,0.584,0.283c0.051,0.048,2.549,2.104,4.189,5.37
			c1.62,3.258,2.354,7.753-1.261,12.523c-1.66,2.187-4.259,4.436-8.042,6.614c-0.443,0.269-1.094,0.32-1.617,0.181
			c-0.163-0.043-0.316-0.108-0.449-0.188c-0.533-0.354-0.518-0.912,0.066-1.263c0.458-0.262,0.893-0.522,1.311-0.782
			c2.832-1.774,4.774-3.56,6.076-5.275c3.041-4.012,2.649-7.782,1.376-10.7c-0.913-2.043-2.263-3.656-3.142-4.576
			c-0.377-0.393-0.666-0.659-0.801-0.779l-0.086-0.076c-0.483-0.393-0.317-0.943,0.326-1.229
			C116.585,122.447,117.146,122.421,117.609,122.546z"/>
	</g>
	<g>
		<path d="M133.204,128.359c2.89,3.861,2.153,7.98,0.062,10.705c-0.197,0.26-0.423,0.515-0.635,0.758
			c-2.561,2.734-6.816,4.964-9.941,5.668l-0.291,0.08c-0.916,0.371-1.573,0.635-2.101,0.912c-0.521,0.267-0.952,0.568-1.245,0.879
			c-0.123,0.125-0.223,0.257-0.33,0.399c-0.179,0.234-0.379,0.497-0.6,0.789c-0.432,0.601-1.032,1.285-1.422,1.531
			c-0.454,0.334-1.038,0.687-1.533,0.958c-0.252,0.143-0.458,0.263-0.645,0.354l-0.229,0.111c-0.393,0.176-0.633,0.307-0.896,0.498
			c-0.295,0.2-0.565,0.443-0.789,0.734c-0.271,0.361-0.489,0.836-0.301,1.356c-0.006,0.263-0.158,0.995-0.504,1.833
			c-0.347,0.84-0.863,1.823-1.539,2.71c-0.695,0.921-1.539,1.729-2.435,2.191c-1.733,0.955-4.435,2.392-8.005,3.224
			c-3.533,0.824-7.889,1.096-13.329-0.346c-3.493-0.934-5.633-2.332-7.041-3.588c-0.681-0.62-1.208-1.219-1.537-1.693
			c-0.177-0.224-0.332-0.438-0.446-0.59l-0.292-0.411c-0.492-0.606-1.265-1.481-2.907-1.94c-0.815-0.217-1.619-0.256-2.386-0.233
			c-0.741,0.028-1.41,0.114-1.991,0.274c-0.174,0.039-1.599,0.396-3.653,0.565c-2.048,0.149-4.717,0.104-7.47-0.635
			c-1.773-0.492-3.622-1.259-5.418-2.5c-2.695-2.255-3.281-4.252-3.195-5.808c0.077-1.543,0.861-2.615,1.09-2.953
			c0.397-0.526,0.509-1.094,0.449-1.619c-0.086-0.526-0.297-1.035-0.875-1.473l-0.254-0.305c-0.504-0.66-1.368-2.068-1.734-3.676
			c-0.412-1.619-0.329-3.439,0.867-4.979c2.289-3.019,5.007-4.623,7.189-5.338c1.439-0.455,2.409-1.128,2.938-1.826
			c0.609-0.836,0.669-1.681,0.615-2.328c-0.031-0.375-0.14-1.106,0.02-2.08c0.154-0.961,0.552-2.168,1.514-3.438
			c0.775-1.021,1.902-2.087,3.582-3.128c2.895-1.804,6.394-2.621,9.507-2.962c3.072-0.334,5.773-0.137,6.605,0.017
			c0.979,0.155,2.229,0.367,3.616,0.74c1.857,0.516,3.948,1.286,5.785,2.584c1.028,0.732,2.14,1.205,3.215,1.494
			c2.512,0.672,4.784,0.334,5.606,0.203c0.455-0.07,1.85-0.275,3.438-0.359c1.566-0.089,3.35-0.05,4.484,0.237
			c0.67,0.144,1.324,0.302,1.973,0.476c2.191,0.604,4.199,1.336,6.214,3.086c0.817,0.806,2.119,1.602,3.8,2.053
			c0.428,0.115,0.883,0.199,1.381,0.265c0.096-0.01,0.619,0.097,1.287,0.276C125.396,122.898,130.749,125.034,133.204,128.359z
			 M71.401,152.521c0.784-0.123,1.267-0.606,1.09-1.094c-0.2-0.503-0.386-1.001-0.558-1.492l14.922-29.91
			c0.42-0.152,0.824-0.283,1.196-0.396c0.735-0.208,1.05-0.737,0.695-1.183c-0.146-0.194-0.395-0.338-0.698-0.42
			c-0.375-0.1-0.833-0.102-1.244,0.021c-4.349,1.29-10.794,4.512-15.097,10.149c-4.18,5.513-6.191,13.291-2.062,23.676
			c0.109,0.274,0.426,0.485,0.824,0.597C70.751,152.545,71.077,152.566,71.401,152.521 M113.081,147.338
			c3.784-2.18,6.382-4.429,8.042-6.613c3.615-4.771,2.881-9.268,1.261-12.524c-1.642-3.269-4.14-5.322-4.19-5.37
			c-0.156-0.127-0.357-0.223-0.584-0.283c-0.463-0.125-1.023-0.099-1.467,0.104c-0.645,0.283-0.811,0.836-0.326,1.228l0.086,0.076
			c0.135,0.12,0.424,0.388,0.801,0.778l-4.311,20.554c-0.418,0.26-0.854,0.521-1.312,0.782c-0.584,0.351-0.601,0.908-0.065,1.263
			c0.131,0.08,0.285,0.146,0.448,0.188C111.988,147.658,112.639,147.605,113.081,147.338"/>
	</g>
	<g enable-background="new    ">
		<g>
			<path fill="#442C00" d="M135.882,127.604c3.257,4.4,2.452,8.992,0.043,12.17c-0.243,0.32-0.504,0.619-0.747,0.904
				c-2.906,3.051-7.316,5.453-11.332,6.426c-0.822,0.326-1.339,0.549-1.688,0.722c-0.344,0.188-0.469,0.276-0.581,0.389l-0.2,0.261
				c-0.154,0.203-0.363,0.483-0.598,0.787c-0.498,0.657-1.062,1.401-1.859,1.959c-0.863,0.609-1.874,1.182-2.529,1.514
				c-0.229,0.115-0.381,0.197-0.588,0.281l-0.529,0.439l-0.109,0.252l0.061,0.486c-0.002,0.16-0.018,0.332-0.055,0.531
				c-0.077,0.366-0.217,0.818-0.393,1.316c-0.387,1.001-0.995,2.186-1.848,3.312c-0.799,1.047-1.785,2.049-3.152,2.785
				c-1.769,0.963-4.777,2.581-8.918,3.561c-4.131,0.984-9.44,1.275-15.494-0.348c-7.152-1.916-9.747-5.593-10.6-6.822l-0.195-0.314
				c-0.357-0.458-0.998-0.97-1.484-1.099c-0.275-0.074-0.678-0.114-1.09-0.101c-0.412,0.012-0.81,0.084-0.95,0.111
				c-0.36,0.098-2.04,0.525-4.486,0.712c-2.42,0.192-5.659,0.136-9.009-0.764c-2.2-0.589-4.435-1.556-6.526-3.013
				c-3.118-2.605-3.917-5.049-3.788-6.927c0.103-1.888,1.064-3.228,1.339-3.628c0.154-0.199,0.246-0.509,0.209-0.767
				c-0.026-0.269-0.206-0.492-0.252-0.544c-0.246-0.168-0.36-0.319-0.535-0.543c-0.203-0.229-0.392-0.51-0.601-0.848
				c-0.42-0.658-0.878-1.533-1.213-2.535c-0.678-1.99-0.901-4.506,0.867-6.836c2.526-3.313,5.564-5.238,8.511-6.178
				c0.884-0.289,1.302-0.615,1.616-0.986c0.332-0.438,0.398-0.982,0.349-1.487c-0.029-0.343-0.146-1.216,0.023-2.345
				c0.189-1.125,0.649-2.529,1.776-4.018c0.907-1.195,2.223-2.439,4.171-3.638c3.404-2.138,7.558-3.097,11.103-3.48
				c3.57-0.378,6.482-0.193,7.91,0.048c0.976,0.158,2.403,0.399,4.008,0.829c2.154,0.576,4.621,1.502,6.823,3.04
				c0.746,0.533,1.484,0.854,2.177,1.039c1.582,0.424,3.008,0.21,3.688,0.111c0.599-0.104,2.108-0.312,3.911-0.409
				c1.824-0.09,3.925-0.087,5.811,0.349c0.67,0.143,1.373,0.314,2.094,0.508c2.465,0.66,5.088,1.644,7.385,3.664
				c0.537,0.556,1.605,1.203,2.561,1.457c0.305,0.082,0.529,0.125,0.723,0.141c0.58,0.068,1.201,0.199,2.014,0.417
				C126.959,121.371,132.893,123.646,135.882,127.604z M132.632,139.822c0.212-0.243,0.438-0.498,0.636-0.758
				c2.092-2.725,2.826-6.844-0.062-10.705c-2.455-3.325-7.809-5.461-10.622-6.217c-0.774-0.205-1.299-0.312-1.394-0.302
				c-0.498-0.063-0.953-0.149-1.383-0.265c-1.68-0.451-2.98-1.247-3.797-2.057c-2.017-1.748-4.023-2.479-6.216-3.082
				c-0.647-0.174-1.302-0.334-1.972-0.477c-1.137-0.288-2.918-0.326-4.485-0.236c-1.588,0.082-2.981,0.289-3.437,0.358
				c-0.823,0.131-3.096,0.469-5.607-0.203c-1.075-0.289-2.186-0.761-3.215-1.494c-1.837-1.299-3.928-2.069-5.785-2.584
				c-1.388-0.374-2.638-0.585-3.616-0.741c-0.833-0.152-3.533-0.35-6.605-0.016c-3.113,0.342-6.612,1.159-9.507,2.962
				c-1.679,1.042-2.807,2.106-3.582,3.128c-0.961,1.27-1.359,2.479-1.514,3.438c-0.16,0.974-0.051,1.704-0.02,2.081
				c0.054,0.646-0.006,1.492-0.615,2.328c-0.529,0.697-1.499,1.369-2.938,1.824c-2.183,0.715-4.9,2.32-7.178,5.324
				c-1.208,1.553-1.291,3.373-0.878,4.992c0.366,1.607,1.23,3.016,1.734,3.676l0.263,0.301c0.569,0.44,0.781,0.949,0.867,1.477
				c0.06,0.525-0.052,1.093-0.438,1.603c-0.24,0.354-1.024,1.429-1.101,2.97c-0.086,1.557,0.5,3.554,3.201,5.806
				c1.791,1.243,3.639,2.011,5.413,2.503c2.752,0.738,5.421,0.784,7.47,0.635c2.054-0.171,3.479-0.525,3.665-0.583
				c0.569-0.144,1.239-0.229,1.979-0.258c0.767-0.022,1.571,0.019,2.386,0.233c1.642,0.459,2.415,1.334,2.907,1.94l0.292,0.411
				c0.115,0.152,0.269,0.366,0.446,0.59c0.329,0.475,0.855,1.073,1.537,1.693c1.407,1.256,3.547,2.654,6.846,3.535
				c5.636,1.494,9.99,1.223,13.523,0.397c3.57-0.832,6.271-2.269,8.005-3.224c0.896-0.465,1.739-1.271,2.435-2.191
				c0.676-0.887,1.192-1.871,1.539-2.71c0.346-0.838,0.498-1.569,0.498-1.799c-0.184-0.556,0.034-1.03,0.307-1.392
				c0.224-0.291,0.494-0.534,0.789-0.734c0.264-0.191,0.504-0.323,0.815-0.466l0.31-0.144c0.186-0.093,0.392-0.213,0.644-0.354
				c0.495-0.271,1.079-0.624,1.533-0.958c0.39-0.246,0.989-0.932,1.422-1.531c0.222-0.292,0.421-0.555,0.599-0.789
				c0.108-0.144,0.209-0.275,0.332-0.4c0.291-0.31,0.725-0.611,1.244-0.879c0.526-0.276,1.186-0.541,2.1-0.912l0.293-0.08
				C125.814,144.786,130.07,142.559,132.632,139.822"/>
		</g>
		<g>
			<path d="M86.855,120.025l-14.922,29.91c-3.235-9.308-1.259-16.164,2.432-21.024C77.926,124.211,83.162,121.348,86.855,120.025z"
				/>
		</g>
		<g>
			<path fill="#442C00" d="M88.048,118.027c0.303,0.082,0.552,0.226,0.698,0.42c0.355,0.445,0.037,0.976-0.695,1.183
				c-0.372,0.112-0.775,0.243-1.196,0.396c-3.693,1.322-8.929,4.186-12.49,8.886c-3.691,4.86-5.667,11.718-2.432,21.024
				c0.172,0.491,0.358,0.989,0.558,1.492c0.177,0.486-0.306,0.971-1.09,1.094c-0.324,0.045-0.649,0.022-0.933-0.051
				c-0.397-0.109-0.715-0.32-0.824-0.597c-4.128-10.385-2.117-18.163,2.062-23.676c4.303-5.638,10.749-8.858,15.097-10.149
				C87.215,117.927,87.673,117.928,88.048,118.027z"/>
		</g>
	</g>
	<g>
		<path d="M116.702,124.73c0.879,0.922,2.229,2.535,3.142,4.578c1.273,2.918,1.665,6.688-1.376,10.699
			c-1.302,1.717-3.243,3.501-6.075,5.275L116.702,124.73z"/>
	</g>
</g>
<g>
	<g opacity="0.1">
		<g enable-background="new    ">
			<g>
				<path d="M116.143,127.443c0.344,0.092,0.629,0.258,0.771,0.482c0.286,0.461-0.104,0.973-0.869,1.153l-38.062,8.874
					c-0.383,0.086-0.784,0.076-1.121-0.012c-0.338-0.092-0.612-0.264-0.744-0.488c-0.292-0.449,0.109-0.975,0.864-1.139
					l38.043-8.896C115.402,127.338,115.805,127.352,116.143,127.443z"/>
			</g>
			<g>
				<path d="M72.925,92.874l62.413,16.723l-28.843,38.033l-62.413-16.726L72.925,92.874z M61.328,134.498
					c0.343,0.092,0.744,0.104,1.127,0.012l59.833-13.968c0.772-0.183,1.155-0.692,0.875-1.153c-0.147-0.225-0.429-0.392-0.767-0.481
					c-0.338-0.091-0.732-0.104-1.1-0.019l-59.872,13.979c-0.767,0.178-1.15,0.689-0.858,1.137
					C60.709,134.234,60.99,134.407,61.328,134.498 M116.045,129.08c0.768-0.182,1.155-0.691,0.869-1.153
					c-0.143-0.226-0.43-0.392-0.771-0.483c-0.338-0.092-0.738-0.104-1.115-0.021l-38.044,8.895c-0.755,0.166-1.156,0.689-0.864,1.14
					c0.132,0.226,0.406,0.397,0.744,0.489c0.337,0.088,0.738,0.097,1.121,0.011L116.045,129.08 M109.527,137.668
					c0.761-0.166,1.149-0.675,0.863-1.139c-0.144-0.229-0.424-0.4-0.761-0.492c-0.344-0.092-0.743-0.104-1.134-0.014l-17.807,4.156
					c-0.731,0.172-1.122,0.685-0.863,1.139c0.143,0.231,0.423,0.402,0.761,0.494c0.343,0.092,0.744,0.102,1.127,0.013
					L109.527,137.668"/>
			</g>
			<g>
				<path d="M122.396,118.907c0.338,0.09,0.617,0.257,0.767,0.481c0.28,0.461-0.103,0.971-0.875,1.153L62.455,134.51
					c-0.383,0.092-0.784,0.08-1.127-0.012c-0.338-0.091-0.618-0.264-0.761-0.494c-0.297-0.445,0.092-0.959,0.864-1.137
					l59.866-13.979C121.663,118.802,122.059,118.816,122.396,118.907z"/>
			</g>
			<g>
				<path d="M109.631,136.037c0.337,0.092,0.617,0.264,0.762,0.492c0.285,0.464-0.104,0.973-0.865,1.139l-17.812,4.157
					c-0.384,0.089-0.784,0.079-1.127-0.013c-0.337-0.092-0.618-0.263-0.761-0.494c-0.258-0.454,0.131-0.967,0.863-1.139
					l17.807-4.156C108.887,135.936,109.287,135.945,109.631,136.037z"/>
			</g>
		</g>
		<g>
			<path d="M137.879,108.332c0.743,0.199,1.064,0.724,0.732,1.162l-30.079,39.664c-0.332,0.436-1.208,0.641-1.945,0.439
				l-65.068-17.434c-0.744-0.2-1.042-0.716-0.709-1.156l30.079-39.663c0.332-0.437,1.184-0.648,1.928-0.449L137.879,108.332z
				 M106.495,147.63l28.843-38.033L72.925,92.874l-28.843,38.03L106.495,147.63"/>
		</g>
	</g>
	<g>
		<g enable-background="new    ">
			<g>
				<path fill="#FEC00F" d="M116.143,124.514c0.344,0.092,0.629,0.258,0.771,0.483c0.286,0.461-0.104,0.974-0.869,1.153
					l-38.062,8.873c-0.383,0.086-0.784,0.078-1.121-0.01c-0.338-0.093-0.612-0.265-0.744-0.49c-0.292-0.448,0.109-0.973,0.864-1.139
					l38.043-8.895C115.402,124.408,115.805,124.423,116.143,124.514z"/>
			</g>
			<g>
				<path fill="#FFE271" d="M72.925,89.945l62.413,16.723L106.495,144.7l-62.413-16.726L72.925,89.945z M61.328,131.568
					c0.343,0.092,0.744,0.104,1.127,0.012l59.833-13.969c0.772-0.182,1.155-0.691,0.875-1.152c-0.147-0.225-0.429-0.393-0.767-0.482
					s-0.732-0.104-1.1-0.019l-59.872,13.979c-0.767,0.178-1.15,0.689-0.858,1.137C60.709,131.307,60.99,131.479,61.328,131.568
					 M116.045,126.15c0.768-0.182,1.155-0.692,0.869-1.153c-0.143-0.226-0.43-0.392-0.771-0.483
					c-0.338-0.091-0.738-0.104-1.115-0.021l-38.044,8.895c-0.755,0.166-1.156,0.689-0.864,1.139c0.132,0.227,0.406,0.397,0.744,0.49
					c0.337,0.088,0.738,0.096,1.121,0.01L116.045,126.15 M109.527,134.738c0.761-0.166,1.149-0.676,0.863-1.139
					c-0.144-0.229-0.424-0.4-0.761-0.492c-0.344-0.092-0.743-0.104-1.134-0.015l-17.807,4.157c-0.731,0.171-1.122,0.684-0.863,1.139
					c0.143,0.231,0.423,0.403,0.761,0.494c0.343,0.092,0.744,0.102,1.127,0.012L109.527,134.738"/>
			</g>
			<g>
				<path fill="#FEC00F" d="M122.396,115.977c0.338,0.09,0.617,0.258,0.767,0.482c0.28,0.461-0.103,0.973-0.875,1.152L62.455,131.58
					c-0.383,0.092-0.784,0.08-1.127-0.012c-0.338-0.092-0.618-0.264-0.761-0.494c-0.297-0.446,0.092-0.959,0.864-1.137
					l59.866-13.979C121.663,115.873,122.059,115.887,122.396,115.977z"/>
			</g>
			<g>
				<path fill="#FEC00F" d="M109.631,133.107c0.337,0.092,0.617,0.264,0.762,0.492c0.285,0.463-0.104,0.973-0.865,1.139
					l-17.812,4.156c-0.384,0.09-0.784,0.08-1.127-0.012c-0.337-0.091-0.618-0.263-0.761-0.494c-0.258-0.455,0.131-0.968,0.863-1.139
					l17.807-4.157C108.887,133.005,109.287,133.018,109.631,133.107z"/>
			</g>
		</g>
		<g>
			<path fill="#FEC00F" d="M137.879,105.402c0.743,0.199,1.064,0.724,0.732,1.162l-30.079,39.665
				c-0.332,0.436-1.208,0.642-1.945,0.44l-65.068-17.435c-0.744-0.2-1.042-0.715-0.709-1.156l30.079-39.663
				c0.332-0.437,1.184-0.648,1.928-0.449L137.879,105.402z M106.495,144.7l28.843-38.032L72.925,89.945l-28.843,38.032
				L106.495,144.7"/>
		</g>
	</g>
</g>
<g>
	<g opacity="0.1">
		<g>
			<path d="M140.407,83.742c0,0.049-0.011,0.103-0.011,0.152c-0.059-9.844-11.735-18.413-33.885-24.348
				c-29.719-7.964-52.927-4.414-63.667,9.747c-2.849,3.759-4.137,7.477-3.982,11.057c-0.005-0.11-0.028-0.216-0.034-0.328
				l0.183,10.202c0.177,10.076,11.89,19.076,33.323,24.821c28.845,7.729,53.44,3.705,64.21-10.494
				c2.77-3.652,4.104-7.208,4.039-10.609L140.407,83.742z"/>
			<path d="M99.646,120.195L99.646,120.195c-8.652,0-17.944-1.316-27.643-3.914c-21.908-5.87-34.084-15.114-34.273-26.033
				l-0.183-10.202c0-0.088,0.006-0.174,0.023-0.262c-0.006-3.745,1.425-7.533,4.257-11.265c7.152-9.437,19.631-14.423,36.082-14.423
				c8.766,0,18.504,1.416,28.936,4.212c22.469,6.02,34.49,14.732,34.821,25.214c0.013,0.063,0.019,0.129,0.022,0.196l0.179,10.202
				c0.067,3.72-1.386,7.558-4.304,11.405C130.298,114.916,116.822,120.195,99.646,120.195z M40.117,80.603l0.171,9.601
				c0.172,9.534,11.97,18.135,32.385,23.604c9.469,2.539,18.544,3.828,26.974,3.828l0,0c16.362,0,29.101-4.92,35.881-13.858
				c2.562-3.38,3.832-6.68,3.781-9.812l-0.172-9.854c-0.018-0.067-0.022-0.137-0.022-0.209c-0.052-9.233-11.746-17.444-32.935-23.12
				c-10.214-2.739-19.729-4.126-28.271-4.126c-15.621,0-27.39,4.637-34.044,13.412c-2.615,3.45-3.868,6.89-3.725,10.225l0,0
				c0,0,0,0.003,0.005,0.003C40.151,80.398,40.14,80.502,40.117,80.603z"/>
		</g>
		<g>
			<g>
				<path d="M126.637,87.562c0.193,0.208,0.217,0.475,0.045,0.704s-0.521,0.383-0.916,0.444c-9.252,1.173-24.752-0.711-40.503-4.933
					c-15.729-4.215-28.403-9.88-33.021-14.766c-0.211-0.226-0.223-0.474-0.045-0.704c0.171-0.229,0.503-0.401,0.91-0.444
					c9.258-1.187,24.77,0.701,40.492,4.912C109.35,76.998,122.001,82.657,126.637,87.562z M86.337,82.36
					c14.013,3.756,28.197,5.656,37.06,5.024c-5.069-4.363-16.885-9.43-30.881-13.18c-13.99-3.749-28.202-5.656-37.042-5.018
					C60.526,73.546,72.336,78.611,86.337,82.36"/>
			</g>
		</g>
		<g>
			<path d="M100.145,107.27c-6.369,0-10.472-1.375-10.859-1.509c-0.664-0.233-1.013-0.961-0.784-1.63
				c0.235-0.664,0.967-1.021,1.631-0.788c0.206,0.07,20.97,6.944,42.851-11.916c0.531-0.455,1.351-0.401,1.809,0.136
				c0.463,0.535,0.406,1.343-0.132,1.805C121.423,104.771,108.727,107.27,100.145,107.27z"/>
		</g>
	</g>
	<g>
		<g>
			<path fill="#E0C382" d="M140.407,80.812c0,0.049-0.011,0.103-0.011,0.152c-0.059-9.844-11.735-18.413-33.885-24.347
				c-29.719-7.965-52.927-4.415-63.667,9.747c-2.849,3.759-4.137,7.477-3.982,11.058c-0.005-0.11-0.028-0.216-0.034-0.328
				l0.183,10.202c0.177,10.076,11.89,19.076,33.323,24.821c28.845,7.729,53.44,3.705,64.21-10.494
				c2.77-3.652,4.104-7.208,4.039-10.609L140.407,80.812z"/>
			<path fill="#CA9A62" d="M99.646,117.266L99.646,117.266c-8.652,0-17.944-1.315-27.643-3.914
				c-21.909-5.87-34.084-15.115-34.273-26.034l-0.183-10.202c0-0.089,0.006-0.175,0.023-0.262
				c-0.006-3.745,1.425-7.532,4.257-11.265c7.152-9.437,19.631-14.423,36.082-14.423c8.766,0,18.504,1.416,28.936,4.212
				c22.469,6.02,34.49,14.732,34.821,25.214c0.013,0.063,0.019,0.129,0.022,0.196l0.179,10.202
				c0.067,3.721-1.386,7.559-4.304,11.405C130.298,111.986,116.822,117.266,99.646,117.266z M40.117,77.673l0.171,9.601
				c0.172,9.534,11.97,18.135,32.385,23.605c9.469,2.538,18.544,3.828,26.974,3.828l0,0c16.362,0,29.101-4.921,35.881-13.858
				c2.562-3.38,3.832-6.68,3.781-9.812l-0.172-9.854c-0.018-0.067-0.022-0.137-0.022-0.208c-0.052-9.234-11.746-17.444-32.935-23.12
				c-10.214-2.739-19.729-4.127-28.271-4.127c-15.621,0-27.39,4.637-34.044,13.412c-2.615,3.45-3.868,6.891-3.725,10.225l0,0
				c0,0,0,0.003,0.005,0.003C40.151,77.468,40.14,77.573,40.117,77.673z"/>
		</g>
		<g>
			<g>
				<path fill="#CA9A62" d="M126.637,84.632c0.193,0.208,0.217,0.475,0.045,0.704s-0.521,0.383-0.916,0.443
					c-9.252,1.173-24.752-0.711-40.503-4.932c-15.729-4.215-28.403-9.88-33.021-14.767c-0.211-0.226-0.223-0.473-0.045-0.704
					c0.171-0.229,0.503-0.4,0.91-0.443c9.258-1.188,24.77,0.701,40.492,4.912C109.35,74.068,122.001,79.727,126.637,84.632z
					 M86.337,79.431c14.013,3.756,28.197,5.656,37.06,5.023c-5.069-4.363-16.885-9.429-30.881-13.18
					c-13.99-3.749-28.202-5.656-37.042-5.018C60.526,70.617,72.336,75.682,86.337,79.431"/>
			</g>
		</g>
		<g>
			<path fill="#CA9A62" d="M100.145,104.34c-6.369,0-10.472-1.375-10.859-1.509c-0.664-0.233-1.013-0.961-0.784-1.631
				c0.235-0.664,0.967-1.021,1.631-0.788c0.206,0.07,20.97,6.945,42.851-11.916c0.531-0.455,1.351-0.4,1.809,0.136
				c0.463,0.535,0.406,1.343-0.132,1.805C121.423,101.842,108.727,104.34,100.145,104.34z"/>
		</g>
	</g>
</g>
</svg>
